<svg width="128" height="128" viewBox="0 0 128 128" fill="none" xmlns="http://www.w3.org/2000/svg">
  <rect width="128" height="128" rx="64" fill="white" />
  <path fill-rule="evenodd" clip-rule="evenodd"
        d="M63.9993 25.957L31.0879 44.9786V83.0214L63.9993 102.043L96.9108 83.0214V44.9786L63.9993 25.957ZM65.3816 16.3708C64.5262 15.8764 63.4725 15.8764 62.6171 16.3708L23.4857 38.987C22.6304 39.4815 22.1035 40.3949 22.1035 41.3836V86.6161C22.1035 87.6049 22.6304 88.5185 23.4857 89.0127L62.6171 111.629C63.4725 112.123 64.5262 112.123 65.3816 111.629L104.513 89.0127C105.368 88.5185 105.895 87.6049 105.895 86.6161V41.3836C105.895 40.3949 105.368 39.4815 104.513 38.987L65.3816 16.3708Z"
        fill="#FF9211" />
  <path d="M63.9988 39.7365L43.0079 51.8683V76.1319L63.8606 88.1838C63.9462 88.2334 63.9988 88.3247 63.9988 88.4235V92.5777C63.9988 92.7908 63.7686 92.924 63.5842 92.8174L39.898 79.1278C39.2565 78.7569 38.8613 78.0718 38.8613 77.3303V50.6699C38.8613 49.9284 39.2565 49.2433 39.898 48.8727L62.9621 35.5425C63.6037 35.1717 64.394 35.1717 65.0356 35.5425L88.8164 49.237C88.9992 49.3424 89.0008 49.6058 88.8195 49.7135C87.4161 50.5468 86.6973 50.9174 85.1272 51.7916C85.0422 51.8391 84.9381 51.8386 84.8539 51.7898L63.9988 39.7365Z"
        fill="#FF9211" />
  <path d="M67.4551 64.5118C67.4551 64.4096 67.5114 64.3154 67.6017 64.2674L88.4731 53.1468C88.6573 53.0488 88.8792 53.1823 88.8792 53.3912V80.4441C88.8792 80.5429 88.8268 80.634 88.7418 80.6835L67.8703 92.815C67.6862 92.9222 67.4551 92.789 67.4551 92.5759V64.5118Z"
        fill="#FF9211" />
</svg>
