<?xml version="1.0" encoding="UTF-8"?>
<svg xmlns="http://www.w3.org/2000/svg" width="128" height="128"
     viewBox="0 0 128 128">
  <defs>
    <linearGradient id="linear-pattern-0" gradientUnits="userSpaceOnUse" x1="-0.00459654" y1="69.6604" x2="127.995"
                    y2="69.6604">
      <stop offset="0" stop-color="rgb(0%, 50.980392%, 98.039216%)" stop-opacity="1" />
      <stop offset="1" stop-color="rgb(0%, 94.901961%, 99.607843%)" stop-opacity="1" />
    </linearGradient>
    <linearGradient id="linear-pattern-1" gradientUnits="userSpaceOnUse" x1="-0.00485992" y1="58.373" x2="127.995"
                    y2="58.373">
      <stop offset="0" stop-color="rgb(0%, 50.980392%, 98.039216%)" stop-opacity="1" />
      <stop offset="1" stop-color="rgb(0%, 94.901961%, 99.607843%)" stop-opacity="1" />
    </linearGradient>
  </defs>
  <path fill-rule="nonzero" fill="url(#linear-pattern-0)"
        d="M 15.515625 22.128906 C 16.316406 21.136719 17.148438 20.175781 17.980469 19.214844 C 18.011719 19.183594 18.105469 19.152344 18.140625 19.121094 C 18.203125 19.023438 18.332031 18.960938 18.425781 18.863281 L 18.492188 18.769531 C 19.066406 18.222656 19.707031 17.648438 20.410156 17.105469 C 22.972656 15.183594 25.59375 13.710938 28.378906 12.71875 C 37.339844 9.585938 47.292969 11.503906 55.097656 18.898438 C 66.011719 29.105469 65.019531 45.585938 56.316406 56.527344 C 45.308594 72.847656 26.425781 95.601562 52.570312 115.984375 C 57.277344 119.664062 60.761719 122.671875 75.578125 126.960938 C 65.882812 128.753906 56.890625 128.175781 46.90625 125.648438 C 39.835938 121.648438 28.699219 113.105469 24.921875 101.554688 C 19.195312 84.046875 35.003906 57.839844 42.621094 47.761719 C 53.082031 33.808594 36.15625 18.703125 23.644531 35.570312 C 17.179688 44.367188 5.753906 69.234375 9.722656 87.695312 C 12.027344 98.160156 15.132812 105.777344 27.386719 116.273438 C 25.117188 114.929688 22.90625 113.425781 20.761719 111.695312 C -7.683594 85.167969 -4.386719 44.144531 15.515625 22.128906 Z M 15.515625 22.128906 " />
  <path fill-rule="nonzero" fill="url(#linear-pattern-1)"
        d="M 112.476562 105.90625 C 111.675781 106.898438 110.84375 107.855469 110.011719 108.816406 C 109.980469 108.847656 109.882812 108.882812 109.851562 108.914062 C 109.785156 109.007812 109.660156 109.074219 109.5625 109.167969 L 109.5 109.265625 C 108.921875 109.808594 108.28125 110.386719 107.578125 110.898438 C 105.019531 112.816406 102.394531 114.289062 99.609375 115.28125 C 90.652344 118.417969 80.699219 116.496094 72.890625 109.105469 C 61.980469 98.898438 62.972656 82.417969 71.675781 71.472656 C 82.683594 55.152344 101.5625 32.402344 75.417969 12.015625 C 70.714844 8.335938 67.226562 5.328125 52.410156 1.039062 C 62.105469 -0.75 71.097656 -0.175781 81.082031 2.351562 C 88.15625 6.351562 99.292969 14.898438 103.066406 26.449219 C 108.796875 43.953125 92.988281 70.160156 85.371094 80.242188 C 74.90625 94.191406 91.835938 109.296875 104.347656 92.433594 C 110.875 83.632812 122.300781 58.769531 118.332031 40.304688 C 116.027344 29.839844 112.921875 22.226562 100.667969 11.730469 C 102.9375 13.074219 105.148438 14.578125 107.289062 16.304688 C 135.675781 42.863281 132.378906 83.890625 112.476562 105.90625 Z M 112.476562 105.90625 " />
</svg>
