<svg width="128" height="128" viewBox="0 0 128 128" fill="none" xmlns="http://www.w3.org/2000/svg">
  <path d="M15.5154 22.1286C16.3154 21.1366 17.1474 20.1766 17.9794 19.2166C18.0114 19.1846 18.1074 19.1526 18.1394 19.1206C18.2034 19.0246 18.3314 18.9606 18.4274 18.8646L18.4914 18.7686C19.0674 18.2246 19.7074 17.6486 20.4114 17.1046C22.9714 15.1846 25.5954 13.7126 28.3794 12.7206C37.3394 9.58458 47.2914 11.5046 55.0994 18.8966C66.0114 29.1046 65.0194 45.5846 56.3154 56.5286C45.3074 72.8486 26.4274 95.6006 52.5714 115.985C57.2754 119.665 60.7634 122.673 75.5794 126.961C65.8834 128.753 56.8914 128.177 46.9074 125.649C39.8354 121.649 28.6994 113.105 24.9234 101.553C19.1954 84.0486 35.0034 57.8406 42.6194 47.7606C53.0834 33.8086 36.1554 18.7046 23.6434 35.5686C17.1794 44.3686 5.7554 69.2326 9.7234 87.6966C12.0274 98.1606 15.1314 105.777 27.3874 116.273C25.1154 114.929 22.9074 113.425 20.7634 111.697C-7.6846 85.1686 -4.3886 44.1446 15.5154 22.1286Z"
        fill="url(#paint0_linear_185_90)" />
  <path d="M112.475 105.905C111.675 106.897 110.843 107.857 110.011 108.817C109.979 108.849 109.883 108.881 109.851 108.913C109.787 109.009 109.659 109.073 109.563 109.169L109.499 109.265C108.923 109.809 108.283 110.385 107.579 110.897C105.019 112.817 102.395 114.289 99.6111 115.281C90.6511 118.417 80.6991 116.497 72.8911 109.105C61.9791 98.8968 62.9711 82.4168 71.6751 71.4728C82.6831 55.1528 101.563 32.4008 75.4191 12.0168C70.7151 8.33682 67.2271 5.32882 52.4111 1.04082C62.1071 -0.751179 71.0991 -0.175179 81.0831 2.35282C88.1551 6.35282 99.2911 14.8968 103.067 26.4488C108.795 43.9528 92.9871 70.1608 85.3711 80.2408C74.9071 94.1928 91.8351 109.297 104.347 92.4328C110.875 83.6328 122.299 58.7688 118.331 40.3048C116.027 29.8408 112.923 22.2248 100.667 11.7288C102.939 13.0728 105.147 14.5768 107.291 16.3048C135.675 42.8648 132.379 83.8888 112.475 105.905Z"
        fill="url(#paint1_linear_185_90)" />
  <defs>
    <linearGradient id="paint0_linear_185_90" x1="-0.00459654" y1="69.6604" x2="127.995" y2="69.6604"
                    gradientUnits="userSpaceOnUse">
      <stop stop-color="#0082FA" />
      <stop offset="1" stop-color="#00F2FE" />
    </linearGradient>
    <linearGradient id="paint1_linear_185_90" x1="-0.00485992" y1="58.373" x2="127.995" y2="58.373"
                    gradientUnits="userSpaceOnUse">
      <stop stop-color="#0082FA" />
      <stop offset="1" stop-color="#00F2FE" />
    </linearGradient>
  </defs>
</svg>
