<?xml version="1.0" encoding="UTF-8"?>
<svg xmlns="http://www.w3.org/2000/svg" width="128" height="128"
     viewBox="0 0 128 128">
  <path fill-rule="nonzero" fill="rgb(100%, 27.843137%, 29.803922%)" fill-opacity="1"
        d="M 128 64 C 128 99.347656 99.347656 128 64 128 C 28.652344 128 0 99.347656 0 64 C 0 28.652344 28.652344 0 64 0 C 99.347656 0 128 28.652344 128 64 " />
  <path fill-rule="evenodd" fill="rgb(100%, 100%, 100%)" fill-opacity="1"
        d="M 64.007812 18.113281 C 65.097656 18.113281 66.101562 18.695312 66.648438 19.636719 L 108.882812 92.789062 C 109.425781 93.734375 109.425781 94.894531 108.882812 95.839844 C 108.339844 96.78125 107.332031 97.363281 106.242188 97.363281 L 21.773438 97.363281 C 20.683594 97.363281 19.675781 96.78125 19.132812 95.839844 C 18.589844 94.894531 18.589844 93.734375 19.132812 92.789062 L 61.367188 19.636719 C 61.914062 18.695312 62.917969 18.113281 64.007812 18.113281 Z M 27.050781 91.265625 L 100.964844 91.265625 L 64.007812 27.257812 Z M 27.050781 91.265625 " />
  <path fill-rule="evenodd" fill="rgb(100%, 100%, 100%)" fill-opacity="1"
        d="M 63.96875 18.113281 C 65.652344 18.113281 67.015625 19.476562 67.015625 21.160156 L 67.015625 67.015625 L 107.167969 91.105469 C 108.609375 91.972656 109.078125 93.84375 108.214844 95.289062 C 107.347656 96.730469 105.476562 97.199219 104.03125 96.332031 L 63.96875 72.296875 L 23.902344 96.332031 C 22.460938 97.199219 20.589844 96.730469 19.722656 95.289062 C 18.855469 93.84375 19.324219 91.972656 20.765625 91.105469 L 60.917969 67.015625 L 60.917969 21.160156 C 60.917969 19.476562 62.285156 18.113281 63.96875 18.113281 Z M 63.96875 18.113281 " />
</svg>
