<svg width="128" height="128" viewBox="0 0 128 128" fill="none" xmlns="http://www.w3.org/2000/svg">
  <path fill-rule="evenodd" clip-rule="evenodd"
        d="M64 0C99.3485 0 128 28.6515 128 64C128 99.3485 99.3485 128 64 128C28.6515 128 0 99.3485 0 64C0 28.6515 28.6515 0 64 0Z"
        fill="#EEEEEE" />
  <path d="M35.1751 64L35.2212 80.9216L49.5982 89.385V99.2922L26.8039 85.9238V59.0541L35.1751 64ZM35.1751 47.0784V56.9395L26.7988 51.9834V42.1222L35.1751 37.1712L43.5924 42.1274L35.1751 47.0784ZM55.6039 42.1222L63.9803 37.1661L72.3975 42.1222L63.9803 47.0784L55.6039 42.1222Z"
        fill="#BDBDBD" />
  <path d="M41.2266 77.4144V67.5072L49.6029 72.4634V82.3245L41.2266 77.4144ZM55.6035 92.9331L63.9798 97.8893L72.3971 92.9331V102.794L63.9798 107.75L55.6035 102.794V92.9331ZM84.4035 42.1222L92.7798 37.1661L101.197 42.1222V51.9834L92.7798 56.9395V47.0784L84.4035 42.1222ZM92.7798 80.9216L92.8259 64L101.202 59.0438V85.9136L78.408 99.2819V89.3747L92.7798 80.9216Z"
        fill="#BDBDBD" />
  <path d="M86.7728 77.4144L78.3965 82.3245V72.4634L86.7728 67.5072V77.4144Z" fill="#BDBDBD" />
  <path d="M86.7733 50.5856L86.8194 60.4928L72.3964 68.9562V85.9187L64.0201 90.8288L55.6437 85.9187V68.9562L41.2207 60.4928V50.5856L49.6329 45.6294L63.9689 54.1338L78.3919 45.6294L86.8092 50.5856H86.7733ZM41.2258 33.664L63.9791 20.2496L86.7733 33.664L78.397 38.6202L63.974 30.1158L49.6021 38.6202L41.2258 33.664Z"
        fill="#BDBDBD" />
</svg>
