<svg width="128" height="128" viewBox="0 0 128 128" fill="none" xmlns="http://www.w3.org/2000/svg">
  <mask id="mask0_187_68" style="mask-type:luminance" maskUnits="userSpaceOnUse" x="0" y="0" width="128" height="128">
    <path fill-rule="evenodd" clip-rule="evenodd"
          d="M64 0C28.6534 0 0 28.6543 0 64C0 99.3466 28.6534 128 64 128C99.3457 128 128 99.3466 128 64C128 28.6543 99.3457 0 64 0Z"
          fill="white" />
  </mask>
  <g mask="url(#mask0_187_68)">
    <path fill-rule="evenodd" clip-rule="evenodd"
          d="M64 0C28.6534 0 0 28.6543 0 64C0 99.3466 28.6534 128 64 128C99.3457 128 128 99.3466 128 64C128 28.6543 99.3457 0 64 0Z"
          fill="url(#paint0_linear_187_68)" />
  </g>
  <path fill-rule="evenodd" clip-rule="evenodd"
        d="M112.402 42.3974L77.8491 42.343C77.1741 42.343 76.627 41.795 76.627 41.12V39.0638C76.627 38.3879 77.1741 37.8417 77.8491 37.8417L112.402 37.8961C113.077 37.8961 113.624 38.4432 113.624 39.1183V41.1753C113.624 41.8495 113.077 42.3974 112.402 42.3974Z"
        fill="white" />
  <path fill-rule="evenodd" clip-rule="evenodd"
        d="M106.719 60.583H79.9344H77.9344H77.9058C77.2308 60.583 76.6846 61.1301 76.6846 61.8051V61.8337V63.8622V92.8717C76.6846 93.5623 77.2438 94.1223 77.9344 94.1223H79.9344C80.6249 94.1223 81.185 93.5623 81.185 92.8717V65.0843H106.719C107.394 65.0843 107.941 64.5372 107.941 63.8622V61.8051C107.941 61.1301 107.394 60.583 106.719 60.583Z"
        fill="white" />
  <path fill-rule="evenodd" clip-rule="evenodd"
        d="M61.0736 69.053C60.8325 69.0417 60.6138 69.0348 60.3294 69.3451C59.7772 69.9492 59.1842 70.5231 58.5343 71.0486L58.2058 71.3123L58.1021 71.3961C57.9103 71.556 57.8359 71.7427 57.8679 71.9804C57.8757 72.0435 57.8895 72.0988 57.9025 72.1593C57.9206 72.218 57.9327 72.2768 57.9483 72.3373C58.0053 72.543 58.0624 72.7487 58.1073 72.9501L58.116 72.9847C58.1791 73.2751 58.2344 73.569 58.2793 73.8602L58.2992 73.9752C58.3355 74.231 58.3666 74.5059 58.3899 74.7894L58.3977 74.8585C58.4003 74.8948 58.4055 74.9302 58.4081 74.9665C58.4332 75.3166 58.4444 75.6364 58.4444 75.9458C58.4444 83.486 52.3096 89.6217 44.7685 89.6217H28.0122H27.9889C27.523 89.6148 27.1488 89.2397 27.141 88.7747V88.7487V74.3148V74.2941C27.1471 73.8257 27.5248 73.4488 27.9924 73.4445H28.0079H44.7685C45.192 73.4445 45.6406 73.4263 46.141 73.3892L46.3009 73.3779C46.7123 73.3434 47.1332 73.2924 47.587 73.2206L47.7823 73.1904C48.205 73.1195 48.6268 73.0331 49.0373 72.9337L49.1903 72.8957C49.6345 72.7833 50.0624 72.6606 50.4608 72.5292L50.4971 72.5171C51.3718 72.225 52.2335 71.862 53.0581 71.4376C53.4634 71.2293 53.8662 71.002 54.2646 70.7565L54.2983 70.7358C54.6916 70.492 55.0762 70.2336 55.4366 69.9709L56.4824 69.148C57.7702 68.1083 58.8627 66.9034 59.7452 65.5508L59.7772 65.5128C59.8765 65.3667 59.9794 65.199 60.0831 65.0314L60.1886 64.8602C61.9915 61.9717 62.9448 58.6545 62.9448 55.2682C62.9448 45.2448 54.791 37.091 44.7685 37.091H24.9301H24.8256C23.6181 37.1204 22.6492 38.0927 22.6371 39.3036V39.3477V59.9847C22.6371 59.9916 22.6328 59.9968 22.6328 60.0037V60.0478C22.6328 60.0547 22.6371 60.0607 22.6371 60.0677C22.6605 61.2855 23.644 62.2656 24.867 62.269H24.88H44.7685C46.8791 62.269 48.9094 62.7505 50.8109 63.6943C50.8212 63.6986 50.8281 63.7047 50.8385 63.7072C50.9388 63.7487 51.0485 63.7738 51.1644 63.7738C51.364 63.7738 51.5395 63.6951 51.6847 63.5811C51.7244 63.5465 51.7633 63.5136 51.8022 63.4791C52.6881 62.69 53.4911 61.7954 54.0546 61.0115C54.1453 60.8844 54.1782 60.7392 54.1514 60.5914C54.1229 60.4471 54.0546 60.3365 53.95 60.2725L53.9526 60.2673C53.899 60.2362 53.8428 60.2094 53.7884 60.1774C53.5524 60.0426 53.313 59.9121 53.0719 59.7876C52.9267 59.7133 52.7823 59.6424 52.6363 59.5724C52.4746 59.4955 52.313 59.4203 52.1497 59.3486C51.8843 59.231 51.6164 59.1195 51.3467 59.0149C51.3104 59.0002 51.2733 58.9864 51.2361 58.9726C50.8912 58.8403 50.5429 58.7193 50.1903 58.6087C50.1894 58.6079 50.1877 58.6079 50.186 58.607C48.4392 58.0599 46.6155 57.7686 44.7685 57.7686H28.0304H27.9647C27.5075 57.7513 27.1419 57.3814 27.1367 56.9216V56.9052V42.4713V42.435C27.1471 41.9683 27.5256 41.5932 27.9941 41.5923H27.9958H44.7685C45.0995 41.5923 45.4262 41.6165 45.7434 41.6398L45.7901 41.6433C52.8861 42.1714 58.4444 48.1567 58.4444 55.2682C58.4444 57.0927 58.0857 58.8706 57.3804 60.5508C57.1791 61.0279 56.95 61.4955 56.6994 61.9423L56.6778 61.9769C55.791 63.3702 54.753 64.6113 53.5775 65.696C53.5326 65.7375 53.4867 65.7773 53.4409 65.817L53.3485 65.8974C52.8498 66.301 52.3372 66.6623 51.8195 66.9752C49.6899 68.263 47.2508 68.9432 44.7685 68.9432H24.8921C24.8869 68.9432 24.8826 68.9406 24.8783 68.9406C24.8731 68.9406 24.8688 68.9432 24.8644 68.9432C23.6449 68.9518 22.6639 69.9302 22.6406 71.1454C22.6406 71.1524 22.6371 71.1575 22.6371 71.1636V71.2077C22.6371 71.2137 22.6406 71.2198 22.6406 71.2267V91.8559C22.6406 91.8637 22.6371 91.8689 22.6371 91.8766C22.6371 91.8844 22.6406 91.8913 22.6406 91.8991C22.6536 93.1273 23.6484 94.1221 24.8817 94.1221H44.7685C54.791 94.1221 62.9448 85.9674 62.9448 75.9458C62.9448 73.7876 62.5619 71.6779 61.8109 69.6588C61.7158 69.3952 61.5161 69.1187 61.0736 69.053Z"
        fill="white" />
  <defs>
    <linearGradient id="paint0_linear_187_68" x1="57.0598" y1="-25.4148" x2="-25.733" y2="70.575"
                    gradientUnits="userSpaceOnUse">
      <stop stop-color="#32C5FF" />
      <stop offset="1" stop-color="#3C58C1" />
    </linearGradient>
  </defs>
</svg>
