<?xml version="1.0" encoding="UTF-8"?>
<svg xmlns:xlink="http://www.w3.org/1999/xlink" xmlns="http://www.w3.org/2000/svg" width="128" height="128"
     viewBox="0 0 128 128">
  <defs>
    <filter id="filter-remove-color" x="0%" y="0%" width="100%" height="100%">
      <feColorMatrix color-interpolation-filters="sRGB" values="0 0 0 0 1 0 0 0 0 1 0 0 0 0 1 0 0 0 1 0" />
    </filter>
    <clipPath id="clip-0">
      <path clip-rule="nonzero" d="M 0 0 L 153.601562 0 L 153.601562 153.601562 L 0 153.601562 Z M 0 0 " />
    </clipPath>
    <clipPath id="clip-1">
      <rect x="0" y="0" width="154" height="154" />
    </clipPath>
    <g id="source-127" clip-path="url(#clip-1)">
      <path fill-rule="evenodd" fill="rgb(100%, 100%, 100%)" fill-opacity="1"
            d="M 64 0 C 28.652344 0 0 28.65625 0 64 C 0 99.347656 28.652344 128 64 128 C 99.34375 128 128 99.347656 128 64 C 128 28.65625 99.34375 0 64 0 Z M 64 0 " />
    </g>
    <clipPath id="clip-2">
      <rect x="0" y="0" width="154" height="154" />
    </clipPath>
    <g id="source-130" clip-path="url(#clip-2)">
      <g clip-path="url(#clip-0)">
        <use xlink:href="#source-127" />
      </g>
    </g>
    <mask id="mask-0">
      <g filter="url(#filter-remove-color)">
        <use xlink:href="#source-130" />
      </g>
    </mask>
    <linearGradient id="linear-pattern-0" gradientUnits="userSpaceOnUse" x1="57.0598" y1="-25.4148" x2="-25.733"
                    y2="70.575">
      <stop offset="0" stop-color="rgb(19.607843%, 77.254902%, 100%)" stop-opacity="1" />
      <stop offset="1" stop-color="rgb(23.529412%, 34.509804%, 75.686275%)" stop-opacity="1" />
    </linearGradient>
    <clipPath id="clip-3">
      <rect x="0" y="0" width="128" height="128" />
    </clipPath>
    <g id="source-129" clip-path="url(#clip-3)">
      <path fill-rule="evenodd" fill="url(#linear-pattern-0)"
            d="M 64 0 C 28.652344 0 0 28.65625 0 64 C 0 99.347656 28.652344 128 64 128 C 99.34375 128 128 99.347656 128 64 C 128 28.65625 99.34375 0 64 0 Z M 64 0 " />
    </g>
  </defs>
  <g mask="url(#mask-0)">
    <use xlink:href="#source-129" />
  </g>
  <path fill-rule="evenodd" fill="rgb(100%, 100%, 100%)" fill-opacity="1"
        d="M 112.402344 42.398438 L 77.847656 42.34375 C 77.175781 42.34375 76.628906 41.796875 76.628906 41.121094 L 76.628906 39.0625 C 76.628906 38.386719 77.175781 37.839844 77.847656 37.839844 L 112.402344 37.894531 C 113.078125 37.894531 113.625 38.441406 113.625 39.117188 L 113.625 41.175781 C 113.625 41.847656 113.078125 42.398438 112.402344 42.398438 Z M 112.402344 42.398438 " />
  <path fill-rule="evenodd" fill="rgb(100%, 100%, 100%)" fill-opacity="1"
        d="M 106.71875 60.582031 L 77.90625 60.582031 C 77.230469 60.582031 76.683594 61.128906 76.683594 61.804688 L 76.683594 92.871094 C 76.683594 93.5625 77.242188 94.121094 77.933594 94.121094 L 79.933594 94.121094 C 80.625 94.121094 81.183594 93.5625 81.183594 92.871094 L 81.183594 65.085938 L 106.71875 65.085938 C 107.394531 65.085938 107.941406 64.539062 107.941406 63.863281 L 107.941406 61.804688 C 107.941406 61.128906 107.394531 60.582031 106.71875 60.582031 Z M 106.71875 60.582031 " />
  <path fill-rule="evenodd" fill="rgb(100%, 100%, 100%)" fill-opacity="1"
        d="M 61.074219 69.054688 C 60.832031 69.042969 60.613281 69.035156 60.328125 69.34375 C 59.777344 69.949219 59.183594 70.523438 58.535156 71.046875 L 58.207031 71.3125 L 58.101562 71.394531 C 57.910156 71.554688 57.835938 71.742188 57.867188 71.980469 C 57.875 72.042969 57.890625 72.097656 57.902344 72.160156 C 57.921875 72.21875 57.933594 72.277344 57.949219 72.335938 C 58.003906 72.542969 58.0625 72.75 58.105469 72.949219 L 58.117188 72.984375 C 58.179688 73.273438 58.234375 73.570312 58.28125 73.859375 L 58.300781 73.976562 C 58.335938 74.230469 58.367188 74.507812 58.390625 74.789062 L 58.398438 74.859375 C 58.398438 74.894531 58.40625 74.929688 58.40625 74.964844 C 58.433594 75.316406 58.445312 75.636719 58.445312 75.945312 C 58.445312 83.484375 52.308594 89.621094 44.769531 89.621094 L 27.988281 89.621094 C 27.523438 89.613281 27.148438 89.238281 27.140625 88.773438 L 27.140625 74.292969 C 27.148438 73.824219 27.523438 73.449219 27.992188 73.445312 L 44.769531 73.445312 C 45.191406 73.445312 45.640625 73.425781 46.140625 73.390625 L 46.300781 73.378906 C 46.710938 73.34375 47.132812 73.292969 47.585938 73.21875 L 47.78125 73.191406 C 48.203125 73.121094 48.625 73.03125 49.039062 72.933594 L 49.191406 72.894531 C 49.632812 72.785156 50.0625 72.660156 50.460938 72.527344 L 50.496094 72.515625 C 51.371094 72.226562 52.234375 71.863281 53.058594 71.4375 C 53.464844 71.230469 53.867188 71.003906 54.265625 70.757812 L 54.296875 70.734375 C 54.691406 70.492188 55.078125 70.234375 55.4375 69.972656 L 56.480469 69.148438 C 57.769531 68.109375 58.863281 66.902344 59.746094 65.550781 L 59.777344 65.511719 C 59.875 65.367188 59.980469 65.199219 60.082031 65.03125 L 60.1875 64.859375 C 61.992188 61.972656 62.945312 58.65625 62.945312 55.269531 C 62.945312 45.246094 54.789062 37.089844 44.769531 37.089844 L 24.824219 37.089844 C 23.617188 37.121094 22.648438 38.09375 22.636719 39.304688 L 22.636719 59.984375 C 22.636719 59.992188 22.632812 59.996094 22.632812 60.003906 L 22.632812 60.046875 C 22.632812 60.054688 22.636719 60.0625 22.636719 60.066406 C 22.660156 61.285156 23.644531 62.265625 24.867188 62.269531 L 44.769531 62.269531 C 46.878906 62.269531 48.910156 62.75 50.8125 63.695312 C 50.820312 63.699219 50.828125 63.703125 50.839844 63.707031 C 50.9375 63.75 51.046875 63.773438 51.164062 63.773438 C 51.363281 63.773438 51.539062 63.695312 51.683594 63.582031 C 51.722656 63.546875 51.761719 63.511719 51.800781 63.480469 C 52.6875 62.691406 53.492188 61.796875 54.054688 61.011719 C 54.144531 60.882812 54.179688 60.738281 54.152344 60.589844 C 54.121094 60.445312 54.054688 60.335938 53.949219 60.273438 L 53.953125 60.265625 C 53.898438 60.234375 53.84375 60.210938 53.789062 60.175781 C 53.550781 60.042969 53.3125 59.910156 53.070312 59.789062 C 52.925781 59.714844 52.78125 59.640625 52.636719 59.574219 C 52.472656 59.496094 52.3125 59.421875 52.148438 59.347656 C 51.882812 59.230469 51.617188 59.121094 51.347656 59.015625 C 51.308594 59 51.273438 58.988281 51.234375 58.972656 C 50.890625 58.839844 50.542969 58.71875 50.191406 58.609375 C 50.1875 58.609375 50.1875 58.609375 50.1875 58.605469 C 48.4375 58.058594 46.617188 57.769531 44.769531 57.769531 L 27.964844 57.769531 C 27.507812 57.75 27.140625 57.382812 27.136719 56.921875 L 27.136719 42.433594 C 27.148438 41.96875 27.527344 41.59375 27.992188 41.59375 L 44.769531 41.59375 C 45.097656 41.59375 45.425781 41.617188 45.742188 41.640625 L 45.789062 41.644531 C 52.886719 42.171875 58.445312 48.15625 58.445312 55.269531 C 58.445312 57.09375 58.085938 58.871094 57.378906 60.550781 C 57.179688 61.027344 56.949219 61.496094 56.699219 61.941406 L 56.679688 61.976562 C 55.789062 63.371094 54.753906 64.609375 53.578125 65.695312 C 53.53125 65.738281 53.488281 65.777344 53.441406 65.816406 L 53.347656 65.898438 C 52.851562 66.300781 52.335938 66.664062 51.820312 66.976562 C 49.691406 68.261719 47.25 68.941406 44.769531 68.941406 L 24.890625 68.941406 C 24.886719 68.941406 24.882812 68.941406 24.878906 68.941406 C 24.875 68.941406 24.867188 68.941406 24.863281 68.941406 C 23.644531 68.953125 22.664062 69.929688 22.640625 71.144531 C 22.640625 71.152344 22.636719 71.15625 22.636719 71.164062 L 22.636719 71.207031 C 22.636719 71.214844 22.640625 71.21875 22.640625 71.226562 L 22.640625 91.855469 C 22.640625 91.863281 22.636719 91.867188 22.636719 91.875 C 22.636719 91.882812 22.640625 91.890625 22.640625 91.898438 C 22.652344 93.128906 23.648438 94.121094 24.882812 94.121094 L 44.769531 94.121094 C 54.789062 94.121094 62.945312 85.96875 62.945312 75.945312 C 62.945312 73.789062 62.5625 71.679688 61.8125 69.660156 C 61.714844 69.394531 61.515625 69.117188 61.074219 69.054688 Z M 61.074219 69.054688 " />
</svg>
