<?xml version="1.0" encoding="UTF-8"?>
<svg xmlns="http://www.w3.org/2000/svg" width="128" height="128"
     viewBox="0 0 128 128">
  <path fill-rule="nonzero" fill="rgb(20.392157%, 40.392157%, 95.686275%)" fill-opacity="1"
        d="M 106.824219 108.457031 C 133.09375 83.03125 135.210938 42.515625 111.558594 17.960938 C 87.90625 -6.59375 47.441406 -5.882812 21.171875 19.542969 C -5.09375 44.972656 -7.210938 85.488281 16.441406 110.039062 C 40.09375 134.59375 80.558594 133.886719 106.824219 108.457031 Z M 106.824219 108.457031 " />
  <path fill-rule="nonzero" fill="rgb(20.392157%, 40.392157%, 95.686275%)" fill-opacity="1"
        d="M 16.785156 79.621094 C 16.652344 79.546875 16.523438 79.464844 16.398438 79.386719 C 16.523438 79.464844 16.65625 79.539062 16.785156 79.621094 Z M 16.785156 79.621094 " />
  <path fill-rule="nonzero" fill="rgb(20.392157%, 40.392157%, 95.686275%)" fill-opacity="1"
        d="M 60.148438 119.476562 C 60.367188 119.476562 60.585938 119.472656 60.800781 119.46875 C 59.214844 119.449219 57.683594 119.402344 56.191406 119.332031 C 57.492188 119.429688 58.8125 119.476562 60.152344 119.476562 Z M 60.148438 119.476562 " />
  <path fill-rule="nonzero" fill="rgb(20.392157%, 40.392157%, 95.686275%)" fill-opacity="1"
        d="M 27.714844 46.183594 C 37.535156 46.183594 44.941406 54.167969 44.253906 64.011719 C 43.589844 73.542969 35.589844 81.328125 26.167969 81.816406 C 33.832031 81.503906 40.578125 77.410156 47 71.816406 C 45.113281 69.835938 44.042969 67.074219 44.261719 64.011719 C 44.679688 57.996094 49.882812 53.117188 55.890625 53.117188 C 58.652344 53.117188 61.097656 54.152344 62.898438 55.851562 C 68.035156 50.550781 73.289062 45.539062 78.980469 42.054688 C 83.160156 39.269531 88.0625 37.546875 93.242188 37.300781 C 93.667969 37.28125 94.101562 37.269531 94.535156 37.269531 C 118.609375 37.269531 119.574219 57.53125 119.417969 62.78125 C 120.859375 32.714844 98.039062 8.546875 67.886719 8.546875 C 37.738281 8.546875 10.828125 33.378906 8.6875 64.011719 C 9.375 54.167969 17.894531 46.183594 27.714844 46.183594 Z M 27.714844 46.183594 " />
  <path fill-rule="nonzero" fill="rgb(20.392157%, 40.392157%, 95.686275%)" fill-opacity="1"
        d="M 8.644531 64.84375 C 8.652344 64.578125 8.664062 64.308594 8.683594 64.039062 C 8.667969 64.304688 8.652344 64.578125 8.644531 64.84375 Z M 8.644531 64.84375 " />
  <path fill-rule="nonzero" fill="rgb(20.392157%, 40.392157%, 95.686275%)" fill-opacity="1"
        d="M 15.882812 79.050781 C 15.882812 79.050781 15.859375 79.039062 15.855469 79.027344 C 15.867188 79.035156 15.875 79.039062 15.882812 79.050781 Z M 15.882812 79.050781 " />
  <path fill-rule="nonzero" fill="rgb(20.392157%, 40.392157%, 95.686275%)" fill-opacity="1"
        d="M 23.398438 81.746094 C 21.0625 81.503906 18.894531 80.800781 16.980469 79.734375 C 18.859375 80.796875 21.007812 81.503906 23.398438 81.746094 Z M 23.398438 81.746094 " />
  <path fill-rule="nonzero" fill="rgb(20.392157%, 40.392157%, 95.686275%)" fill-opacity="1"
        d="M 24.300781 81.820312 C 24.027344 81.804688 23.761719 81.78125 23.503906 81.761719 C 23.769531 81.789062 24.035156 81.808594 24.300781 81.820312 Z M 24.300781 81.820312 " />
  <path fill-rule="nonzero" fill="rgb(20.392157%, 40.392157%, 95.686275%)" fill-opacity="1"
        d="M 78.980469 42.054688 C 83.417969 39.34375 88.121094 37.558594 93.246094 37.304688 C 88.0625 37.550781 83.164062 39.273438 78.980469 42.054688 Z M 78.980469 42.054688 " />
  <path fill-rule="nonzero" fill="rgb(20.392157%, 40.392157%, 95.686275%)" fill-opacity="0.2"
        d="M 78.980469 42.054688 C 83.417969 39.34375 88.121094 37.558594 93.246094 37.304688 C 88.0625 37.550781 83.164062 39.273438 78.980469 42.054688 Z M 78.980469 42.054688 " />
  <path fill-rule="nonzero" fill="rgb(20.392157%, 40.392157%, 95.686275%)" fill-opacity="1"
        d="M 44.253906 64.007812 C 44.9375 54.164062 37.53125 46.179688 27.710938 46.179688 C 17.890625 46.179688 9.375 54.164062 8.6875 64.007812 C 8.6875 64.019531 8.6875 64.03125 8.6875 64.042969 C 8.671875 64.3125 8.65625 64.582031 8.648438 64.847656 C 8.542969 70.410156 11.203125 75.859375 15.851562 79.035156 C 15.863281 79.039062 15.875 79.042969 15.878906 79.054688 C 16.050781 79.171875 16.230469 79.285156 16.40625 79.394531 C 16.535156 79.476562 16.660156 79.554688 16.792969 79.628906 C 16.859375 79.667969 16.921875 79.707031 16.992188 79.742188 C 18.90625 80.808594 21.074219 81.511719 23.40625 81.753906 C 23.433594 81.753906 23.464844 81.753906 23.492188 81.757812 C 23.757812 81.785156 24.023438 81.808594 24.289062 81.816406 C 24.597656 81.832031 24.90625 81.84375 25.222656 81.84375 C 25.535156 81.84375 25.851562 81.832031 26.160156 81.816406 C 35.582031 81.328125 43.582031 73.546875 44.246094 64.015625 Z M 44.253906 64.007812 " />
  <path fill-rule="nonzero" fill="rgb(20.392157%, 40.392157%, 95.686275%)" fill-opacity="1"
        d="M 119.402344 62.777344 C 119.378906 63.1875 119.359375 63.601562 119.332031 64.011719 C 119.332031 64.011719 119.378906 63.558594 119.402344 62.777344 Z M 119.402344 62.777344 " />
  <path fill-rule="nonzero" fill="rgb(20.392157%, 40.392157%, 95.686275%)" fill-opacity="1"
        d="M 94.527344 37.269531 C 109.261719 37.269531 120.367188 49.242188 119.335938 64.011719 C 119.363281 63.601562 119.390625 63.1875 119.40625 62.777344 C 119.558594 57.53125 118.597656 37.269531 94.523438 37.269531 Z M 94.527344 37.269531 " />
  <path fill-rule="nonzero" fill="rgb(20.392157%, 40.392157%, 95.686275%)" fill-opacity="1"
        d="M 94.527344 37.269531 C 109.261719 37.269531 120.367188 49.242188 119.335938 64.011719 C 119.363281 63.601562 119.390625 63.1875 119.40625 62.777344 C 119.558594 57.53125 118.597656 37.269531 94.523438 37.269531 Z M 94.527344 37.269531 " />
  <path fill-rule="nonzero" fill="rgb(20.392157%, 40.392157%, 95.686275%)" fill-opacity="1"
        d="M 93.230469 37.300781 C 93.664062 37.28125 94.09375 37.269531 94.523438 37.269531 C 94.089844 37.269531 93.65625 37.28125 93.230469 37.300781 Z M 93.230469 37.300781 " />
  <path fill-rule="nonzero" fill="rgb(20.392157%, 40.392157%, 95.686275%)" fill-opacity="1"
        d="M 93.230469 37.300781 C 93.664062 37.28125 94.09375 37.269531 94.523438 37.269531 C 94.089844 37.269531 93.65625 37.28125 93.230469 37.300781 Z M 93.230469 37.300781 " />
  <path fill-rule="nonzero" fill="rgb(20.392157%, 40.392157%, 95.686275%)" fill-opacity="1"
        d="M 26.167969 81.816406 C 25.851562 81.824219 25.542969 81.839844 25.230469 81.839844 C 25.542969 81.839844 25.859375 81.832031 26.167969 81.816406 Z M 26.167969 81.816406 " />
  <path fill-rule="nonzero" fill="rgb(20.392157%, 40.392157%, 95.686275%)" fill-opacity="0.2"
        d="M 26.167969 81.816406 C 25.851562 81.824219 25.542969 81.839844 25.230469 81.839844 C 25.542969 81.839844 25.859375 81.832031 26.167969 81.816406 Z M 26.167969 81.816406 " />
  <path fill-rule="nonzero" fill="rgb(20.392157%, 40.392157%, 95.686275%)" fill-opacity="1"
        d="M 26.167969 81.816406 C 25.851562 81.824219 25.542969 81.839844 25.230469 81.839844 C 25.542969 81.839844 25.859375 81.832031 26.167969 81.816406 Z M 26.167969 81.816406 " />
  <path fill-rule="nonzero" fill="rgb(20.392157%, 40.392157%, 95.686275%)" fill-opacity="1"
        d="M 23.480469 81.75 C 23.457031 81.75 23.421875 81.75 23.398438 81.742188 C 23.421875 81.742188 23.457031 81.742188 23.480469 81.75 Z M 23.480469 81.75 " />
  <path fill-rule="nonzero" fill="rgb(20.392157%, 40.392157%, 95.686275%)" fill-opacity="0.2"
        d="M 23.480469 81.75 C 23.457031 81.75 23.421875 81.75 23.398438 81.742188 C 23.421875 81.742188 23.457031 81.742188 23.480469 81.75 Z M 23.480469 81.75 " />
  <path fill-rule="nonzero" fill="rgb(20.392157%, 40.392157%, 95.686275%)" fill-opacity="1"
        d="M 23.480469 81.75 C 23.457031 81.75 23.421875 81.75 23.398438 81.742188 C 23.421875 81.742188 23.457031 81.742188 23.480469 81.75 Z M 23.480469 81.75 " />
  <path fill-rule="nonzero" fill="rgb(20.392157%, 40.392157%, 95.686275%)" fill-opacity="1"
        d="M 16.992188 79.738281 C 16.925781 79.703125 16.863281 79.664062 16.792969 79.628906 C 16.855469 79.664062 16.921875 79.703125 16.992188 79.738281 Z M 16.992188 79.738281 " />
  <path fill-rule="nonzero" fill="rgb(20.392157%, 40.392157%, 95.686275%)" fill-opacity="0.2"
        d="M 16.992188 79.738281 C 16.925781 79.703125 16.863281 79.664062 16.792969 79.628906 C 16.855469 79.664062 16.921875 79.703125 16.992188 79.738281 Z M 16.992188 79.738281 " />
  <path fill-rule="nonzero" fill="rgb(20.392157%, 40.392157%, 95.686275%)" fill-opacity="1"
        d="M 16.992188 79.738281 C 16.925781 79.703125 16.863281 79.664062 16.792969 79.628906 C 16.855469 79.664062 16.921875 79.703125 16.992188 79.738281 Z M 16.992188 79.738281 " />
  <path fill-rule="nonzero" fill="rgb(20.392157%, 40.392157%, 95.686275%)" fill-opacity="1"
        d="M 8.652344 64.839844 C 8.511719 70.804688 11.347656 76 15.855469 79.027344 C 11.203125 75.855469 8.542969 70.402344 8.652344 64.839844 Z M 8.652344 64.839844 " />
  <path fill-rule="nonzero" fill="rgb(20.392157%, 40.392157%, 95.686275%)" fill-opacity="0.2"
        d="M 8.652344 64.839844 C 8.511719 70.804688 11.347656 76 15.855469 79.027344 C 11.203125 75.855469 8.542969 70.402344 8.652344 64.839844 Z M 8.652344 64.839844 " />
  <path fill-rule="nonzero" fill="rgb(20.392157%, 40.392157%, 95.686275%)" fill-opacity="1"
        d="M 8.652344 64.839844 C 8.511719 70.804688 11.347656 76 15.855469 79.027344 C 11.203125 75.855469 8.542969 70.402344 8.652344 64.839844 Z M 8.652344 64.839844 " />
  <path fill-rule="nonzero" fill="rgb(20.392157%, 40.392157%, 95.686275%)" fill-opacity="1"
        d="M 16.402344 79.386719 C 16.226562 79.277344 16.046875 79.164062 15.878906 79.046875 C 16.050781 79.164062 16.226562 79.277344 16.402344 79.386719 Z M 16.402344 79.386719 " />
  <path fill-rule="nonzero" fill="rgb(20.392157%, 40.392157%, 95.686275%)" fill-opacity="0.2"
        d="M 16.402344 79.386719 C 16.226562 79.277344 16.046875 79.164062 15.878906 79.046875 C 16.050781 79.164062 16.226562 79.277344 16.402344 79.386719 Z M 16.402344 79.386719 " />
  <path fill-rule="nonzero" fill="rgb(20.392157%, 40.392157%, 95.686275%)" fill-opacity="1"
        d="M 16.402344 79.386719 C 16.226562 79.277344 16.046875 79.164062 15.878906 79.046875 C 16.050781 79.164062 16.226562 79.277344 16.402344 79.386719 Z M 16.402344 79.386719 " />
  <path fill-rule="nonzero" fill="rgb(20.392157%, 40.392157%, 95.686275%)" fill-opacity="1"
        d="M 94.527344 37.269531 C 94.097656 37.269531 93.664062 37.28125 93.234375 37.300781 C 88.113281 37.558594 83.410156 39.34375 78.972656 42.054688 C 73.277344 45.535156 68.027344 50.550781 62.886719 55.851562 C 61.089844 54.148438 58.644531 53.113281 55.882812 53.113281 C 49.878906 53.113281 44.671875 57.996094 44.25 64.011719 C 44.039062 67.070312 45.109375 69.835938 46.992188 71.8125 C 40.570312 77.40625 33.824219 81.503906 26.15625 81.8125 C 35.578125 81.324219 43.582031 73.542969 44.246094 64.011719 C 44.910156 54.480469 37.527344 46.179688 27.707031 46.179688 C 17.882812 46.179688 9.367188 54.164062 8.679688 64.011719 C 8.679688 64.019531 8.679688 64.03125 8.679688 64.042969 C 8.664062 64.316406 8.648438 64.582031 8.644531 64.847656 C 8.535156 70.410156 11.195312 75.859375 15.847656 79.035156 C 15.855469 79.039062 15.867188 79.046875 15.875 79.054688 C 16.042969 79.171875 16.222656 79.285156 16.398438 79.398438 C 16.527344 79.476562 16.65625 79.558594 16.789062 79.632812 C 16.851562 79.667969 16.914062 79.707031 16.984375 79.742188 C 18.902344 80.8125 21.066406 81.515625 23.402344 81.753906 C 23.429688 81.753906 23.460938 81.753906 23.488281 81.761719 C 23.753906 81.785156 24.019531 81.808594 24.285156 81.820312 C 24.011719 81.800781 23.746094 81.78125 23.488281 81.761719 C 23.460938 81.761719 23.429688 81.761719 23.402344 81.753906 C 21.011719 81.515625 18.859375 80.804688 16.984375 79.742188 C 16.921875 79.707031 16.859375 79.667969 16.789062 79.632812 C 16.65625 79.558594 16.527344 79.476562 16.398438 79.398438 C 16.21875 79.285156 16.042969 79.171875 15.875 79.054688 C 15.863281 79.050781 15.851562 79.046875 15.847656 79.035156 C 11.339844 76.003906 8.503906 70.8125 8.644531 64.847656 C 8.644531 64.582031 8.660156 64.308594 8.679688 64.042969 C 8.679688 64.03125 8.679688 64.019531 8.679688 64.011719 C 6.636719 93.304688 27.621094 117.289062 56.179688 119.332031 C 57.675781 119.40625 59.210938 119.449219 60.792969 119.46875 C 91.074219 119.113281 117.214844 94.421875 119.335938 64.011719 C 120.367188 49.242188 109.257812 37.269531 94.527344 37.269531 Z M 94.527344 37.269531 " />
  <path fill-rule="nonzero" fill="rgb(100%, 100%, 100%)" fill-opacity="1"
        d="M 27.714844 46.1875 C 33.289062 46.1875 38.082031 48.761719 41.0625 52.785156 C 41.195312 45.472656 36.296875 39.472656 29.417969 38.074219 C 34.78125 35.472656 38.71875 30.105469 39.148438 23.898438 C 39.324219 21.402344 38.910156 19.039062 38.03125 16.9375 C 29.210938 22.230469 21.765625 29.738281 16.5625 38.660156 C 15.753906 40.046875 15.003906 41.464844 14.308594 42.917969 C 12.148438 47.417969 10.535156 52.214844 9.578125 57.214844 C 9.152344 59.445312 8.847656 61.710938 8.6875 64.015625 C 8.824219 62.148438 9.230469 60.347656 9.882812 58.652344 C 12.660156 51.425781 19.753906 46.1875 27.714844 46.1875 Z M 27.714844 46.1875 " />
  <path fill-rule="nonzero" fill="rgb(100%, 100%, 100%)" fill-opacity="1"
        d="M 78.964844 42.054688 C 73.273438 45.539062 68.023438 50.550781 62.882812 55.851562 C 57.578125 61.324219 52.398438 67.101562 46.984375 71.816406 C 40.5625 77.410156 33.820312 81.503906 26.152344 81.816406 C 25.839844 81.832031 25.53125 81.839844 25.214844 81.839844 C 24.902344 81.839844 24.59375 81.832031 24.285156 81.816406 C 24.011719 81.800781 23.746094 81.777344 23.488281 81.757812 C 23.460938 81.757812 23.429688 81.757812 23.402344 81.75 C 21.011719 81.511719 18.859375 80.800781 16.984375 79.738281 C 16.921875 79.703125 16.859375 79.664062 16.789062 79.628906 C 16.65625 79.554688 16.527344 79.472656 16.398438 79.394531 C 16.21875 79.28125 16.042969 79.167969 15.875 79.050781 C 15.863281 79.046875 15.851562 79.042969 15.847656 79.03125 C 11.339844 76 8.503906 70.808594 8.644531 64.84375 C 8.644531 64.578125 8.660156 64.304688 8.679688 64.039062 C 8.679688 64.027344 8.679688 64.019531 8.679688 64.007812 C 6.636719 93.304688 27.621094 117.285156 56.179688 119.328125 C 57.675781 119.402344 59.210938 119.445312 60.792969 119.464844 C 91.070312 119.109375 117.214844 94.421875 119.335938 64.007812 C 120.367188 49.234375 109.257812 37.261719 94.527344 37.261719 C 94.097656 37.261719 93.664062 37.269531 93.234375 37.292969 C 88.113281 37.546875 83.410156 39.335938 78.972656 42.042969 " />
  <path fill-rule="nonzero" fill="rgb(100%, 100%, 100%)" fill-opacity="1"
        d="M 65.269531 10.449219 C 94.769531 10.449219 117.644531 31.691406 119.324219 59.160156 C 119.453125 60.65625 119.457031 61.917969 119.4375 62.773438 C 120.878906 32.710938 98.054688 8.539062 67.902344 8.539062 C 57.785156 8.539062 48.117188 11.265625 39.628906 16.019531 C 47.507812 12.449219 56.214844 10.449219 65.269531 10.449219 Z M 65.269531 10.449219 " />
</svg>
