<?xml version="1.0" encoding="UTF-8"?>
<svg xmlns="http://www.w3.org/2000/svg" width="128" height="128"
     viewBox="0 0 128 128">
  <path fill-rule="nonzero" fill="rgb(96.862745%, 57.647059%, 10.196078%)" fill-opacity="1"
        d="M 126.085938 79.480469 C 117.535156 113.769531 82.804688 134.632812 48.511719 126.085938 C 14.234375 117.535156 -6.636719 82.808594 1.917969 48.523438 C 10.460938 14.234375 45.191406 -6.632812 79.476562 1.914062 C 113.765625 10.464844 134.632812 45.195312 126.085938 79.480469 Z M 126.085938 79.480469 " />
  <path fill-rule="nonzero" fill="rgb(100%, 100%, 100%)" fill-opacity="1"
        d="M 92.222656 54.882812 C 93.496094 46.367188 87.011719 41.789062 78.144531 38.734375 L 81.019531 27.199219 L 73.996094 25.449219 L 71.195312 36.679688 C 69.351562 36.21875 67.453125 35.785156 65.570312 35.355469 L 68.390625 24.050781 L 61.371094 22.300781 L 58.492188 33.832031 C 56.964844 33.484375 55.464844 33.140625 54.007812 32.777344 L 54.015625 32.742188 L 44.332031 30.324219 L 42.464844 37.824219 C 42.464844 37.824219 47.675781 39.019531 47.5625 39.09375 C 50.410156 39.800781 50.921875 41.683594 50.835938 43.175781 L 47.558594 56.316406 C 47.757812 56.367188 48.011719 56.441406 48.289062 56.550781 C 48.054688 56.496094 47.804688 56.429688 47.546875 56.367188 L 42.957031 74.777344 C 42.609375 75.640625 41.726562 76.9375 39.738281 76.445312 C 39.808594 76.546875 34.632812 75.171875 34.632812 75.171875 L 31.148438 83.210938 L 40.285156 85.488281 C 41.984375 85.914062 43.652344 86.359375 45.292969 86.78125 L 42.386719 98.449219 L 49.402344 100.199219 L 52.277344 88.652344 C 54.195312 89.175781 56.054688 89.652344 57.875 90.105469 L 55.007812 101.597656 L 62.03125 103.347656 L 64.9375 91.699219 C 76.910156 93.964844 85.917969 93.050781 89.707031 82.222656 C 92.761719 73.503906 89.554688 68.472656 83.253906 65.191406 C 87.84375 64.132812 91.300781 61.117188 92.222656 54.882812 Z M 76.175781 77.378906 C 74.003906 86.101562 59.320312 81.386719 54.5625 80.203125 L 58.417969 64.746094 C 63.179688 65.933594 78.445312 68.285156 76.175781 77.378906 Z M 78.347656 54.757812 C 76.367188 62.6875 64.144531 58.65625 60.179688 57.671875 L 63.679688 43.652344 C 67.640625 44.636719 80.410156 46.480469 78.347656 54.757812 Z M 78.347656 54.757812 " />
</svg>
