<svg width="128" height="128" viewBox="0 0 128 128" fill="none" xmlns="http://www.w3.org/2000/svg">
  <path d="M126.084 79.4824C117.535 113.768 82.8057 134.634 48.5121 126.084C14.2325 117.536 -6.63578 82.8083 1.91712 48.5247C10.462 14.235 45.1918 -6.63274 79.4754 1.91517C113.767 10.4631 134.633 45.1947 126.084 79.4824Z"
        fill="#F7931A" />
  <path d="M92.221 54.8822C93.4951 46.3663 87.0104 41.7884 78.1435 38.7344L81.0198 27.1985L73.997 25.4485L71.1968 36.6804C69.3506 36.2204 67.4543 35.7864 65.5701 35.3564L68.3904 24.0505L61.3717 22.3005L58.4934 33.8324C56.9652 33.4844 55.465 33.1405 54.0089 32.7785L54.0169 32.7424L44.3319 30.3244L42.4637 37.8244C42.4637 37.8244 47.6743 39.0184 47.5642 39.0924C50.4085 39.8024 50.9226 41.6843 50.8366 43.1763L47.5602 56.3182C47.7562 56.3682 48.0103 56.4402 48.2903 56.5522C48.0563 56.4942 47.8063 56.4302 47.5482 56.3682L42.9557 74.778C42.6077 75.642 41.7256 76.938 39.7374 76.446C39.8074 76.548 34.6329 75.172 34.6329 75.172L31.1465 83.21L40.2855 85.4879C41.9856 85.9139 43.6518 86.3599 45.292 86.7799L42.3857 98.4478L49.4004 100.198L52.2787 88.6539C54.1949 89.1739 56.0551 89.6539 57.8753 90.1059L55.007 101.596L62.0298 103.346L64.9361 91.6999C76.9114 93.9658 85.9163 93.0518 89.7067 82.2219C92.761 73.502 89.5547 68.4721 83.254 65.1921C87.8425 64.1341 91.2989 61.1162 92.221 54.8822ZM76.1752 77.38C74.005 86.0999 59.3215 81.3859 54.561 80.2039L58.4174 64.7461C63.1779 65.9341 78.4435 68.2861 76.1752 77.38ZM78.3475 54.7562C76.3673 62.6881 64.146 58.6582 60.1815 57.6702L63.678 43.6504C67.6424 44.6383 80.4097 46.4823 78.3475 54.7562Z"
        fill="white" />
</svg>
