<svg width="128" height="128" viewBox="0 0 128 128" fill="none" xmlns="http://www.w3.org/2000/svg">
  <g clip-path="url(#clip0_186_137)">
    <path d="M64 128C99.4669 128 128 99.4669 128 64C128 28.5331 99.4669 0 64 0C28.5331 0 0 28.5331 0 64C0 99.4669 28.5331 128 64 128Z"
          fill="#2775CA" />
    <path d="M81.6003 74.1332C81.6003 64.8001 76.0003 61.6001 64.8003 60.267C56.8003 59.2001 55.2003 57.067 55.2003 53.3332C55.2003 49.5994 57.8672 47.2001 63.2003 47.2001C68.0003 47.2001 70.6672 48.8001 72.0003 52.8001C72.2672 53.6001 73.0672 54.1332 73.8672 54.1332H78.1334C79.2003 54.1332 80.0003 53.3332 80.0003 52.267V52.0001C78.9334 46.1332 74.1334 41.6001 68.0003 41.067V34.667C68.0003 33.6001 67.2003 32.8001 65.8672 32.5332H61.8672C60.8003 32.5332 60.0003 33.3332 59.7334 34.667V40.8001C51.7334 41.867 46.6672 47.2001 46.6672 53.867C46.6672 62.667 52.0003 66.1332 63.2003 67.467C70.6672 68.8001 73.0672 70.4001 73.0672 74.667C73.0672 78.9338 69.3334 81.867 64.2672 81.867C57.3334 81.867 54.9334 78.9332 54.1334 74.9332C53.8672 73.867 53.0672 73.3332 52.2672 73.3332H47.7334C46.6672 73.3332 45.8672 74.1332 45.8672 75.2001V75.467C46.9334 82.1332 51.2003 86.9332 60.0003 88.267V94.667C60.0003 95.7332 60.8003 96.5332 62.1334 96.8001H66.1334C67.2003 96.8001 68.0003 96.0001 68.2672 94.667V88.267C76.2672 86.9332 81.6003 81.3332 81.6003 74.1332Z"
          fill="white" />
    <path d="M50.4003 102.133C29.6003 94.667 18.9334 71.467 26.6672 50.9332C30.6672 39.7332 39.4672 31.2001 50.4003 27.2001C51.4672 26.667 52.0003 25.867 52.0003 24.5332V20.8001C52.0003 19.7332 51.4672 18.9332 50.4003 18.667C50.1334 18.667 49.6003 18.667 49.3334 18.9332C24.0003 26.9332 10.1334 53.867 18.1334 79.2001C22.9334 94.1332 34.4003 105.6 49.3334 110.4C50.4003 110.933 51.4672 110.4 51.7334 109.333C52.0003 109.067 52.0003 108.8 52.0003 108.267V104.533C52.0003 103.733 51.2003 102.667 50.4003 102.133ZM78.6672 18.9332C77.6003 18.4001 76.5334 18.9332 76.2672 20.0001C76.0003 20.267 76.0003 20.5332 76.0003 21.067V24.8001C76.0003 25.867 76.8003 26.9332 77.6003 27.467C98.4003 34.9332 109.067 58.1332 101.333 78.667C97.3334 89.867 88.5334 98.4001 77.6003 102.4C76.5334 102.933 76.0003 103.733 76.0003 105.067V108.8C76.0003 109.867 76.5334 110.667 77.6003 110.933C77.8672 110.933 78.4003 110.933 78.6672 110.667C104 102.667 117.867 75.7332 109.867 50.4001C105.067 35.2001 93.3334 23.7332 78.6672 18.9332Z"
          fill="white" />
  </g>
  <defs>
    <clipPath id="clip0_186_137">
      <rect width="128" height="128" fill="white" />
    </clipPath>
  </defs>
</svg>
