<svg width="128" height="128" viewBox="0 0 128 128" fill="none" xmlns="http://www.w3.org/2000/svg">
  <g clip-path="url(#clip0_184_2540)">
    <path d="M103.473 21.9575H24.4414V93.7872H103.473V21.9575Z" fill="white" />
    <path fill-rule="evenodd" clip-rule="evenodd"
          d="M127.958 64C127.958 99.2996 99.3234 127.915 64.0004 127.915C28.6777 127.915 0.0429688 99.2996 0.0429688 64C0.0429688 28.7008 28.6777 0.0851135 64.0004 0.0851135C99.3234 0.0851135 127.958 28.7008 127.958 64ZM45.8767 89.4349H33.4643C30.8561 89.4349 29.5678 89.4349 28.7822 88.9328C27.9338 88.383 27.4153 87.4723 27.3524 86.4672C27.3053 85.5413 27.9495 84.4104 29.2379 82.1494L59.8855 28.1647C61.1896 25.8723 61.8494 24.726 62.6821 24.3021C63.5777 23.8468 64.6462 23.8468 65.5417 24.3021C66.3745 24.726 67.0344 25.8723 68.3384 28.1647L74.6389 39.1557L74.6711 39.2118C76.0796 41.6711 76.7938 42.9182 77.1057 44.2272C77.4513 45.656 77.4513 47.1633 77.1057 48.5922C76.7914 49.9111 76.0844 51.1672 74.6546 53.6637L58.5562 82.1023L58.5145 82.1752C57.0967 84.6547 56.3782 85.9115 55.3824 86.8596C54.2983 87.8962 52.9942 88.6494 51.5644 89.074C50.2603 89.4349 48.7991 89.4349 45.8767 89.4349ZM77.2219 89.4349H95.0074C97.6313 89.4349 98.9513 89.4349 99.7373 88.9174C100.586 88.3677 101.12 87.4409 101.167 86.4366C101.212 85.5404 100.582 84.4536 99.3473 82.324C99.3047 82.2515 99.2621 82.1777 99.2187 82.1026L90.3098 66.8723L90.2085 66.7009C88.9566 64.5853 88.3246 63.5169 87.513 63.104C86.618 62.6486 85.5645 62.6486 84.6694 63.104C83.8523 63.5279 83.1925 64.6427 81.8884 66.888L73.0111 82.1184L72.9807 82.1708C71.6812 84.4125 71.0318 85.5328 71.0786 86.4519C71.1415 87.457 71.6599 88.383 72.5083 88.9328C73.2783 89.4349 74.5981 89.4349 77.2219 89.4349Z"
          fill="#E84142" />
  </g>
  <defs>
    <clipPath id="clip0_184_2540">
      <rect width="128" height="128" fill="white" />
    </clipPath>
  </defs>
</svg>
