<svg width="128" height="128" viewBox="0 0 128 128" fill="none" xmlns="http://www.w3.org/2000/svg">
<g clip-path="url(#clip0_143_1106)">
<path d="M103.473 21.9575H24.4414V93.7873H103.473V21.9575Z" fill="#8F8F8F"/>
<path fill-rule="evenodd" clip-rule="evenodd" d="M127.958 64.0001C127.958 99.2997 99.3234 127.915 64.0004 127.915C28.6777 127.915 0.0429688 99.2997 0.0429688 64.0001C0.0429688 28.7009 28.6777 0.0852051 64.0004 0.0852051C99.3234 0.0852051 127.958 28.7009 127.958 64.0001ZM45.8767 89.435H33.4643C30.8561 89.435 29.5678 89.435 28.7822 88.9329C27.9338 88.3831 27.4153 87.4724 27.3524 86.4673C27.3053 85.5414 27.9495 84.4105 29.2379 82.1495L59.8855 28.1648C61.1896 25.8724 61.8494 24.7261 62.6821 24.3022C63.5777 23.8469 64.6462 23.8469 65.5418 24.3022C66.3745 24.7261 67.0344 25.8724 68.3384 28.1648L74.6389 39.1558L74.6711 39.2118C76.0796 41.6712 76.7938 42.9183 77.1057 44.2272C77.4513 45.6561 77.4513 47.1634 77.1057 48.5923C76.7914 49.9112 76.0844 51.1673 74.6546 53.6638L58.5562 82.1024L58.5145 82.1752C57.0967 84.6548 56.3782 85.9116 55.3824 86.8597C54.2983 87.8963 52.9942 88.6495 51.5644 89.0741C50.2603 89.435 48.7991 89.435 45.8767 89.435ZM77.2219 89.435H95.0074C97.6313 89.435 98.9513 89.435 99.7373 88.9175C100.586 88.3678 101.12 87.4409 101.167 86.4367C101.212 85.5405 100.582 84.4537 99.3473 82.3241C99.3047 82.2516 99.2621 82.1778 99.2187 82.1027L90.3098 66.8724L90.2084 66.7009C88.9566 64.5854 88.3246 63.517 87.513 63.1041C86.618 62.6487 85.5645 62.6487 84.6694 63.1041C83.8523 63.528 83.1925 64.6428 81.8884 66.8881L73.0111 82.1185L72.9807 82.1709C71.6812 84.4126 71.0318 85.5329 71.0786 86.452C71.1415 87.4571 71.6599 88.3831 72.5083 88.9329C73.2783 89.435 74.5981 89.435 77.2219 89.435Z" fill="#BFBFBF"/>
</g>
<defs>
<clipPath id="clip0_143_1106">
<rect width="128" height="128" fill="white"/>
</clipPath>
</defs>
</svg>
