<?xml version="1.0" encoding="UTF-8"?>
<svg xmlns="http://www.w3.org/2000/svg" width="128" height="128"
     viewBox="0 0 128 128">
  <path fill-rule="evenodd" fill="rgb(94.117647%, 72.54902%, 4.313725%)" fill-opacity="1"
        d="M 64 0 C 99.347656 0 128 28.652344 128 64 C 128 99.347656 99.347656 128 64 128 C 28.652344 128 0 99.347656 0 64 C 0 28.652344 28.652344 0 64 0 Z M 64 0 " />
  <path fill-rule="nonzero" fill="rgb(100%, 100%, 100%)" fill-opacity="1"
        d="M 35.175781 64 L 35.222656 80.921875 L 49.597656 89.386719 L 49.597656 99.292969 L 26.804688 85.921875 L 26.804688 59.054688 Z M 35.175781 47.078125 L 35.175781 56.941406 L 26.796875 51.984375 L 26.796875 42.121094 L 35.175781 37.171875 L 43.59375 42.128906 Z M 55.605469 42.121094 L 63.980469 37.167969 L 72.398438 42.121094 L 63.980469 47.078125 Z M 55.605469 42.121094 " />
  <path fill-rule="nonzero" fill="rgb(100%, 100%, 100%)" fill-opacity="1"
        d="M 41.226562 77.414062 L 41.226562 67.507812 L 49.601562 72.464844 L 49.601562 82.324219 Z M 55.601562 92.933594 L 63.980469 97.890625 L 72.398438 92.933594 L 72.398438 102.792969 L 63.980469 107.75 L 55.601562 102.792969 Z M 84.402344 42.121094 L 92.78125 37.167969 L 101.195312 42.121094 L 101.195312 51.984375 L 92.78125 56.941406 L 92.78125 47.078125 Z M 92.78125 80.921875 L 92.824219 64 L 101.203125 59.042969 L 101.203125 85.914062 L 78.40625 99.28125 L 78.40625 89.375 Z M 92.78125 80.921875 " />
  <path fill-rule="nonzero" fill="rgb(100%, 100%, 100%)" fill-opacity="1"
        d="M 86.773438 77.414062 L 78.398438 82.324219 L 78.398438 72.464844 L 86.773438 67.507812 Z M 86.773438 77.414062 " />
  <path fill-rule="nonzero" fill="rgb(100%, 100%, 100%)" fill-opacity="1"
        d="M 86.773438 50.585938 L 86.820312 60.492188 L 72.394531 68.957031 L 72.394531 85.917969 L 64.019531 90.828125 L 55.644531 85.917969 L 55.644531 68.957031 L 41.21875 60.492188 L 41.21875 50.585938 L 49.632812 45.628906 L 63.96875 54.132812 L 78.390625 45.628906 L 86.808594 50.585938 Z M 41.226562 33.664062 L 63.980469 20.25 L 86.773438 33.664062 L 78.398438 38.621094 L 63.972656 30.117188 L 49.601562 38.621094 Z M 41.226562 33.664062 " />
</svg>
