<?xml version="1.0" encoding="UTF-8"?>
<svg xmlns="http://www.w3.org/2000/svg" width="128" height="128"
     viewBox="0 0 128 128">
  <path fill-rule="nonzero" fill="rgb(100%, 54.509804%, 0%)" fill-opacity="1"
        d="M 128 64 C 128 99.347656 99.347656 128 64 128 C 28.652344 128 0 99.347656 0 64 C 0 28.652344 28.652344 0 64 0 C 99.347656 0 128 28.652344 128 64 " />
  <path fill-rule="nonzero" fill="rgb(98.431373%, 100%, 99.607843%)" fill-opacity="1"
        d="M 92.082031 49.304688 L 98.941406 41.144531 C 93.71875 37.222656 86.75 34.285156 83.917969 33.304688 L 87.511719 22.203125 L 79.347656 19.265625 C 78.585938 21.769531 76.800781 27.492188 75.753906 30.367188 C 73.664062 29.324219 70.09375 28.625 68.570312 28.40625 L 72.164062 16.980469 L 64 14.367188 L 60.082031 27.101562 C 54.75 26.449219 43.101562 26.839844 39.183594 33.632812 C 24.113281 59.753906 81.960938 66.9375 74.121094 80.980469 C 67.59375 91.691406 38.855469 79.347656 31.671875 72.488281 C 30.804688 73.6875 28.210938 77.0625 24.816406 80.980469 C 30.824219 85.941406 39.726562 90.011719 43.429688 91.429688 L 39.835938 102.855469 L 48 105.144531 C 48.871094 102.3125 50.808594 96.066406 51.59375 93.714844 C 53.421875 94.496094 57.144531 94.910156 58.777344 95.019531 L 55.183594 107.101562 L 64 109.714844 L 67.589844 96.652344 C 74.449219 97.304688 86.988281 97.4375 91.429688 86.203125 C 99.265625 61.0625 44.734375 55.183594 55.183594 40.488281 C 60.40625 34.285156 82.832031 43.644531 92.082031 49.304688 Z M 92.082031 49.304688 " />
</svg>
