<svg width="128" height="128" viewBox="0 0 128 128" fill="none" xmlns="http://www.w3.org/2000/svg">
  <circle cx="64" cy="64" r="64" fill="#FF8B00" />
  <path d="M92.0838 49.3059L98.9409 41.1426C93.718 37.2241 86.7497 34.2856 83.9184 33.3061L87.5103 22.204L79.347 19.2653C78.5851 21.7687 76.8001 27.4938 75.7552 30.3673C73.6654 29.3224 70.0953 28.6258 68.5715 28.4081L72.1633 16.9796L64.0001 14.3673L60.0817 27.102C54.7484 26.4489 43.1021 26.8408 39.1838 33.6326C24.1131 59.7551 81.9593 66.9387 74.1225 80.9795C67.5919 91.6897 38.8572 79.3469 31.6735 72.4897C30.8028 73.687 28.2123 77.0612 24.8164 80.9795C30.8246 85.9428 39.728 90.0136 43.4286 91.4285L39.8368 102.857L48.0001 105.143C48.8708 102.313 50.8082 96.0653 51.5919 93.7142C53.4205 94.4979 57.1429 94.9115 58.7756 95.0204L55.1838 107.102L64.0001 109.714L67.5913 96.653C74.4484 97.3061 86.9878 97.4367 91.4307 86.2039C99.2654 61.0612 44.7342 55.1836 55.1834 40.4897C60.4076 34.2857 82.8321 43.646 92.0838 49.3059Z"
        fill="#FBFFFE" />
</svg>
