<?xml version="1.0" encoding="UTF-8"?>
<svg xmlns="http://www.w3.org/2000/svg" width="128" height="128"
     viewBox="0 0 128 128">
  <path fill-rule="nonzero" fill="rgb(0%, 0%, 0%)" fill-opacity="1"
        d="M 128 64 C 128 99.347656 99.347656 128 64 128 C 28.652344 128 0 99.347656 0 64 C 0 28.652344 28.652344 0 64 0 C 99.347656 0 128 28.652344 128 64 " />
  <path fill-rule="nonzero" fill="rgb(100%, 100%, 100%)" fill-opacity="1"
        d="M 89.800781 48.574219 L 81.484375 48.574219 C 80.523438 48.574219 79.601562 48.164062 78.953125 47.4375 L 75.582031 43.632812 C 75.070312 43.0625 74.363281 42.730469 73.601562 42.730469 C 72.835938 42.730469 72.128906 43.0625 71.621094 43.632812 L 68.714844 46.90625 C 67.773438 47.96875 66.402344 48.59375 64.992188 48.59375 L 19.472656 48.59375 C 18.175781 52.261719 17.332031 56.164062 17 60.226562 L 59.96875 60.226562 C 60.734375 60.226562 61.441406 59.910156 61.96875 59.363281 L 65.972656 55.183594 C 66.460938 54.65625 67.167969 54.359375 67.875 54.359375 L 68.03125 54.359375 C 68.796875 54.359375 69.5 54.695312 70.011719 55.261719 L 73.382812 59.066406 C 74.03125 59.792969 74.953125 60.207031 75.914062 60.207031 L 110.980469 60.207031 C 110.648438 56.164062 109.804688 52.242188 108.507812 48.554688 Z M 89.800781 48.574219 " />
  <path fill-rule="nonzero" fill="rgb(100%, 100%, 100%)" fill-opacity="1"
        d="M 43.003906 84.699219 C 43.769531 84.699219 44.476562 84.386719 45.007812 83.835938 L 49.007812 79.660156 C 49.515625 79.128906 50.203125 78.835938 50.929688 78.835938 L 51.085938 78.835938 C 51.851562 78.835938 52.578125 79.167969 53.066406 79.71875 L 56.441406 83.523438 C 57.085938 84.25 58.007812 84.660156 58.96875 84.660156 L 106.507812 84.660156 C 108.292969 80.972656 109.589844 77.03125 110.371094 72.894531 L 64.734375 72.894531 C 63.773438 72.894531 62.851562 72.480469 62.207031 71.757812 L 58.832031 67.992188 C 58.324219 67.421875 57.617188 67.109375 56.851562 67.109375 C 56.085938 67.109375 55.359375 67.441406 54.871094 67.992188 L 51.96875 71.265625 C 51.027344 72.34375 49.652344 72.953125 48.222656 72.953125 L 17.648438 72.953125 C 18.433594 77.089844 19.726562 81.03125 21.511719 84.71875 Z M 43.003906 84.699219 " />
  <path fill-rule="nonzero" fill="rgb(100%, 100%, 100%)" fill-opacity="1"
        d="M 76.71875 35.847656 C 77.484375 35.847656 78.1875 35.535156 78.71875 34.984375 L 82.71875 30.808594 C 83.210938 30.277344 83.914062 29.984375 84.640625 29.984375 L 84.796875 29.984375 C 85.5625 29.984375 86.269531 30.316406 86.777344 30.886719 L 90.152344 34.710938 C 90.800781 35.433594 91.722656 35.847656 92.683594 35.847656 L 101.722656 35.847656 C 93.113281 24.394531 79.425781 17 64.007812 17 C 48.59375 17 34.886719 24.394531 26.277344 35.847656 Z M 76.71875 35.847656 " />
  <path fill-rule="nonzero" fill="rgb(100%, 100%, 100%)" fill-opacity="1"
        d="M 58.578125 96.371094 L 46.222656 96.371094 C 45.261719 96.371094 44.339844 95.957031 43.691406 95.230469 L 40.320312 91.425781 C 39.808594 90.859375 39.101562 90.542969 38.339844 90.542969 C 37.574219 90.542969 36.847656 90.878906 36.355469 91.425781 L 33.453125 94.703125 C 32.511719 95.78125 31.140625 96.390625 29.707031 96.390625 L 29.511719 96.390625 C 38.121094 105.605469 50.378906 111.390625 64.011719 111.390625 C 77.640625 111.390625 89.878906 105.605469 98.507812 96.390625 Z M 58.578125 96.371094 " />
</svg>
