<svg width="128" height="128" viewBox="0 0 128 128" fill="none" xmlns="http://www.w3.org/2000/svg">
  <circle cx="64" cy="64" r="64" fill="black" />
  <path d="M89.7995 48.5752H81.484C80.5231 48.5752 79.6013 48.1634 78.9541 47.4377L75.5809 43.633C75.0709 43.0643 74.3649 42.7309 73.6001 42.7309C72.8352 42.7309 72.1292 43.0643 71.6192 43.633L68.7167 46.9082C67.7753 47.9672 66.4025 48.5948 64.9904 48.5948H19.4711C18.1767 52.2623 17.3334 56.165 17 60.2247H59.9698C60.7346 60.2247 61.4407 59.9109 61.9702 59.3618L65.971 55.1844C66.4613 54.6549 67.1673 54.3607 67.8734 54.3607H68.0303C68.7951 54.3607 69.5012 54.6941 70.0111 55.2629L73.3843 59.0676C74.0315 59.7932 74.9533 60.2051 75.9143 60.2051H110.98C110.647 56.165 109.804 52.2426 108.509 48.5556L89.7995 48.5752Z"
        fill="white" />
  <path d="M43.0057 84.7004C43.7706 84.7004 44.4766 84.3866 45.0061 83.8375L49.0069 79.6601C49.5169 79.1306 50.2033 78.8364 50.9289 78.8364H51.0858C51.8507 78.8364 52.5763 79.1698 53.0666 79.719L56.4399 83.5237C57.0871 84.2493 58.0088 84.6612 58.9698 84.6612H106.509C108.294 80.9741 109.588 77.0321 110.373 72.894H64.7357C63.7747 72.894 62.853 72.4822 62.2058 71.7565L58.8325 67.991C58.3226 67.4223 57.6166 67.1085 56.8517 67.1085C56.0868 67.1085 55.3612 67.4419 54.8709 67.991L51.9683 71.2662C51.027 72.3449 49.6541 72.9528 48.2225 72.9528H17.6475C18.4319 77.091 19.7263 81.033 21.511 84.72L43.0057 84.7004Z"
        fill="white" />
  <path d="M76.7183 35.8471C77.4831 35.8471 78.1892 35.5333 78.7187 34.9841L82.7195 30.8068C83.2098 30.2773 83.9159 29.9831 84.6415 29.9831H84.7984C85.5633 29.9831 86.2693 30.3165 86.7792 30.8853L90.1524 34.7096C90.7996 35.4352 91.7214 35.8471 92.6824 35.8471H101.723C93.1139 24.3937 79.4247 17 64.0097 17C48.5947 17 34.886 24.3937 26.2764 35.8471H76.7183Z"
        fill="white" />
  <path d="M58.5776 96.3695H46.2221C45.2611 96.3695 44.3393 95.9576 43.6921 95.232L40.3189 91.4273C39.809 90.8585 39.1029 90.5447 38.3381 90.5447C37.5732 90.5447 36.8476 90.8781 36.3573 91.4273L33.4547 94.7025C32.5133 95.7811 31.1405 96.3891 29.7088 96.3891H29.5127C38.1223 105.607 50.3798 111.392 64.0101 111.392C77.6404 111.392 89.8782 105.607 98.5075 96.3891L58.5776 96.3695Z"
        fill="white" />
</svg>
