<svg width="128" height="128" viewBox="0 0 128 128" fill="none" xmlns="http://www.w3.org/2000/svg">
  <g clip-path="url(#clip0_185_91)">
    <path fill-rule="evenodd" clip-rule="evenodd"
          d="M104.55 112.947L64.1533 72.0896L23.1933 113.254C31.3341 118.682 44.0829 127.949 63.7437 128.051C83.4045 128.154 99.1741 118.374 104.499 112.998L104.55 112.947ZM112.947 23.04L71.9869 63.8976C85.7085 77.568 99.2253 91.392 112.793 105.165C134.041 78.0288 132.096 50.0736 112.947 22.9888V23.04ZM14.8477 104.55L50.3293 10.0864L0.562927 60.16C-1.99707 74.752 5.58053 93.2864 14.8477 104.55ZM33.5357 85.9648C36.0957 85.2992 92.5181 27.3408 104.653 15.3088C98.3549 6.91202 76.7485 -0.358382 65.9453 1.84448e-05L33.5357 85.9648Z"
          fill="url(#paint0_linear_185_91)" />
  </g>
  <defs>
    <linearGradient id="paint0_linear_185_91" x1="35.1302" y1="121.227" x2="98.7206" y2="10.1225"
                    gradientUnits="userSpaceOnUse">
      <stop stop-color="#850000" />
      <stop offset="0.251" stop-color="#C70158" />
      <stop offset="0.4824" stop-color="#DE1E41" />
      <stop offset="0.6392" stop-color="#F63B2A" />
      <stop offset="1" stop-color="#FF8700" />
    </linearGradient>
    <clipPath id="clip0_185_91">
      <rect width="128" height="128" fill="white" />
    </clipPath>
  </defs>
</svg>
