<svg width="128" height="128" viewBox="0 0 128 128" fill="none" xmlns="http://www.w3.org/2000/svg">
  <g clip-path="url(#clip0_575_16)">
    <path d="M0 64.0001C0 28.9216 28.6537 0 64 0C99.3462 0 128 28.9216 128 64.0001C128 99.0784 99.3462 128 64 128C28.6537 128 0 99.0784 0 64.0001Z"
          fill="#D0D0D0" />
    <mask id="mask0_575_16" style="mask-type:luminance" maskUnits="userSpaceOnUse" x="36" y="27" width="51" height="72">
      <path d="M86.1461 27.1357H36.9941V98.5598H86.1461V27.1357Z" fill="white" />
    </mask>
    <g mask="url(#mask0_575_16)">
      <path d="M62.1219 44.9895C62.1219 42.1506 64.4381 39.8379 67.2813 39.8379H76.5134V27.3042H71.8974H67.2813C57.5004 27.3042 49.5692 35.2234 49.5692 44.9895C49.5692 47.538 50.1126 49.9604 51.0841 52.1468C43.4876 55.353 38.4435 62.1652 37.2689 70.7858C35.8968 80.2506 39.6949 90.4605 47.9664 95.393C55.3489 100.035 66.8915 99.728 73.1269 93.2884V97.5633H85.9761V50.1411H67.2868C64.4437 50.1411 62.1219 47.8284 62.1219 44.9895ZM73.4123 62.6803V74.5838C73.4123 81.1604 68.0718 86.4872 61.4907 86.4872C54.9097 86.4872 49.5692 81.1548 49.5692 74.5838C49.5692 68.0127 54.9097 62.6803 61.4907 62.6803H73.4123Z"
            fill="#040404" />
    </g>
  </g>
  <defs>
    <clipPath id="clip0_575_16">
      <rect width="128" height="128" fill="white" />
    </clipPath>
  </defs>
</svg>
