<?xml version="1.0" encoding="UTF-8"?>
<svg xmlns="http://www.w3.org/2000/svg" xmlns:xlink="http://www.w3.org/1999/xlink" width="128" height="128" viewBox="0 0 128 128">
<path fill-rule="evenodd" fill="rgb(66.666667%, 66.666667%, 66.666667%)" fill-opacity="1" d="M 104.519531 112.902344 L 64.109375 72.066406 L 23.140625 113.210938 C 31.28125 118.632812 44.035156 127.898438 63.699219 128 C 83.367188 128.101562 99.140625 118.328125 104.464844 112.953125 Z M 112.917969 23.042969 L 71.945312 63.878906 C 85.671875 77.542969 99.191406 91.359375 112.761719 105.125 C 134.015625 78.003906 132.070312 50.0625 112.917969 22.988281 Z M 14.792969 104.511719 L 50.28125 10.09375 L 0.503906 60.140625 C -2.058594 74.726562 5.523438 93.253906 14.792969 104.511719 Z M 33.484375 85.933594 C 36.046875 85.269531 92.484375 27.339844 104.621094 15.3125 C 98.320312 6.921875 76.707031 -0.34375 65.902344 0.0117188 Z M 33.484375 85.933594 "/>
</svg>
