<svg width="128" height="128" viewBox="0 0 128 128" fill="none" xmlns="http://www.w3.org/2000/svg">
  <g clip-path="url(#clip0_26_685)">
    <path d="M64 128C99.3462 128 128 99.3462 128 64C128 28.6538 99.3462 0 64 0C28.6538 0 0 28.6538 0 64C0 99.3462 28.6538 128 64 128Z"
          fill="#2E3148" />
    <path d="M64.5 13C58.1494 13 53 35.8334 53 64C53 92.1666 58.1494 115 64.5 115C70.8506 115 76 92.1666 76 64C76 35.8334 70.8506 13 64.5 13ZM65.294 112.122C64.5678 113.082 63.8416 112.362 63.8416 112.362C60.9169 109.002 59.4546 102.762 59.4546 102.762C54.339 86.4419 55.5566 51.402 55.5566 51.402C57.9607 23.5839 62.334 17.0124 63.8223 15.5535C63.9742 15.4046 64.1743 15.3136 64.3873 15.2965C64.6003 15.2794 64.8125 15.3374 64.9867 15.4602C67.146 16.9769 68.9571 23.3203 68.9571 23.3203C74.3052 43.0002 73.8209 61.4801 73.8209 61.4801C74.3052 77.5601 71.141 95.5599 71.141 95.5599C68.7053 109.239 65.294 112.122 65.294 112.122Z"
          fill="white" />
    <path d="M108.629 38.8838C105.467 33.3701 82.9255 40.371 58.2656 54.5187C33.6057 68.6663 16.2108 84.6059 19.3706 90.1172C22.5303 95.6285 45.0745 88.63 69.7344 74.4823C94.3944 60.3346 111.789 44.3951 108.629 38.8838ZM22.2879 89.3609C21.0773 89.2083 21.3508 88.2127 21.3508 88.2127C22.8358 83.988 27.5615 79.5839 27.5615 79.5839C39.3019 66.946 70.5727 50.4027 70.5727 50.4027C96.1095 38.5155 104.042 39.0171 106.054 39.5713C106.26 39.629 106.44 39.758 106.56 39.9354C106.681 40.1128 106.735 40.3271 106.713 40.5405C106.471 43.1777 101.81 47.9341 101.81 47.9341C87.2596 62.4665 70.8462 71.3304 70.8462 71.3304C57.0159 79.8307 39.6898 86.1218 39.6898 86.1218C26.5062 90.8749 22.2884 89.3609 22.2884 89.3609H22.2879Z"
          fill="white" />
    <path d="M108.622 90.1432C111.816 84.6774 94.4239 68.7618 69.7925 54.5939C45.1611 40.4261 22.5689 33.3815 19.3776 38.8566C16.1863 44.3317 33.5755 60.238 58.2211 74.4059C82.8666 88.5737 105.431 95.6188 108.622 90.1432ZM21.4941 40.9686C21.0223 39.8588 22.0183 39.5915 22.0183 39.5915C26.4277 38.7653 32.6216 40.648 32.6216 40.648C49.472 44.4549 79.5187 63.1275 79.5187 63.1275C102.653 79.1878 106.201 86.2619 106.732 88.2699C106.786 88.4759 106.765 88.6942 106.673 88.8863C106.581 89.0784 106.423 89.2319 106.227 89.3198C103.815 90.4156 97.3542 88.783 97.3542 88.783C77.4409 83.4857 61.5152 73.7801 61.5152 73.7801C47.2059 66.1232 33.0566 54.3416 33.0566 54.3416C22.3051 45.3606 21.4974 40.9808 21.4974 40.9808L21.4941 40.9686Z"
          fill="white" />
    <path d="M64 70C67.3137 70 70 67.3137 70 64C70 60.6863 67.3137 58 64 58C60.6863 58 58 60.6863 58 64C58 67.3137 60.6863 70 64 70Z"
          fill="white" />
    <path d="M88.5 44C90.433 44 92 42.433 92 40.5C92 38.567 90.433 37 88.5 37C86.567 37 85 38.567 85 40.5C85 42.433 86.567 44 88.5 44Z"
          fill="white" />
    <path d="M31.5 57C33.433 57 35 55.433 35 53.5C35 51.567 33.433 50 31.5 50C29.567 50 28 51.567 28 53.5C28 55.433 29.567 57 31.5 57Z"
          fill="white" />
    <path d="M56.5 101C58.433 101 60 99.433 60 97.5C60 95.567 58.433 94 56.5 94C54.567 94 53 95.567 53 97.5C53 99.433 54.567 101 56.5 101Z"
          fill="white" />
  </g>
  <defs>
    <clipPath id="clip0_26_685">
      <rect width="128" height="128" fill="white" />
    </clipPath>
  </defs>
</svg>
