<?xml version="1.0" encoding="UTF-8"?>
<svg xmlns="http://www.w3.org/2000/svg" width="128" height="128"
     viewBox="0 0 128 128">
  <path fill-rule="nonzero" fill="rgb(18.039216%, 19.215686%, 28.235294%)" fill-opacity="1"
        d="M 64 128 C 99.347656 128 128 99.347656 128 64 C 128 28.652344 99.347656 0 64 0 C 28.652344 0 0 28.652344 0 64 C 0 99.347656 28.652344 128 64 128 Z M 64 128 " />
  <path fill-rule="nonzero" fill="rgb(100%, 100%, 100%)" fill-opacity="1"
        d="M 64.5 13 C 58.148438 13 53 35.832031 53 64 C 53 92.167969 58.148438 115 64.5 115 C 70.851562 115 76 92.167969 76 64 C 76 35.832031 70.851562 13 64.5 13 Z M 65.292969 112.121094 C 64.566406 113.082031 63.839844 112.363281 63.839844 112.363281 C 60.917969 109.003906 59.453125 102.761719 59.453125 102.761719 C 54.339844 86.441406 55.554688 51.402344 55.554688 51.402344 C 57.960938 23.582031 62.335938 17.011719 63.824219 15.554688 C 63.972656 15.40625 64.175781 15.3125 64.386719 15.296875 C 64.601562 15.28125 64.8125 15.335938 64.988281 15.460938 C 67.144531 16.976562 68.957031 23.320312 68.957031 23.320312 C 74.304688 43 73.820312 61.480469 73.820312 61.480469 C 74.304688 77.558594 71.140625 95.558594 71.140625 95.558594 C 68.707031 109.238281 65.292969 112.121094 65.292969 112.121094 Z M 65.292969 112.121094 " />
  <path fill-rule="nonzero" fill="rgb(100%, 100%, 100%)" fill-opacity="1"
        d="M 108.628906 38.882812 C 105.46875 33.371094 82.925781 40.371094 58.265625 54.519531 C 33.605469 68.667969 16.210938 84.605469 19.371094 90.117188 C 22.53125 95.628906 45.074219 88.628906 69.734375 74.480469 C 94.394531 60.335938 111.789062 44.394531 108.628906 38.882812 Z M 22.289062 89.359375 C 21.078125 89.207031 21.351562 88.210938 21.351562 88.210938 C 22.835938 83.988281 27.5625 79.582031 27.5625 79.582031 C 39.300781 66.945312 70.574219 50.402344 70.574219 50.402344 C 96.109375 38.515625 104.042969 39.015625 106.054688 39.570312 C 106.261719 39.628906 106.441406 39.757812 106.558594 39.933594 C 106.679688 40.113281 106.734375 40.328125 106.714844 40.539062 C 106.472656 43.175781 101.808594 47.933594 101.808594 47.933594 C 87.257812 62.464844 70.847656 71.332031 70.847656 71.332031 C 57.015625 79.832031 39.691406 86.121094 39.691406 86.121094 C 26.507812 90.875 22.289062 89.359375 22.289062 89.359375 Z M 22.289062 89.359375 " />
  <path fill-rule="nonzero" fill="rgb(100%, 100%, 100%)" fill-opacity="1"
        d="M 108.621094 90.144531 C 111.816406 84.675781 94.425781 68.761719 69.792969 54.59375 C 45.160156 40.425781 22.570312 33.382812 19.378906 38.855469 C 16.1875 44.332031 33.574219 60.238281 58.222656 74.40625 C 82.867188 88.574219 105.429688 95.617188 108.621094 90.144531 Z M 21.492188 40.96875 C 21.023438 39.859375 22.019531 39.589844 22.019531 39.589844 C 26.425781 38.765625 32.621094 40.648438 32.621094 40.648438 C 49.472656 44.453125 79.519531 63.128906 79.519531 63.128906 C 102.652344 79.1875 106.199219 86.261719 106.730469 88.269531 C 106.785156 88.476562 106.765625 88.695312 106.671875 88.886719 C 106.582031 89.078125 106.421875 89.230469 106.226562 89.320312 C 103.816406 90.414062 97.355469 88.78125 97.355469 88.78125 C 77.441406 83.484375 61.515625 73.78125 61.515625 73.78125 C 47.207031 66.125 33.054688 54.339844 33.054688 54.339844 C 22.304688 45.359375 21.496094 40.980469 21.496094 40.980469 Z M 21.492188 40.96875 " />
  <path fill-rule="nonzero" fill="rgb(100%, 100%, 100%)" fill-opacity="1"
        d="M 64 70 C 67.3125 70 70 67.3125 70 64 C 70 60.6875 67.3125 58 64 58 C 60.6875 58 58 60.6875 58 64 C 58 67.3125 60.6875 70 64 70 Z M 64 70 " />
  <path fill-rule="nonzero" fill="rgb(100%, 100%, 100%)" fill-opacity="1"
        d="M 88.5 44 C 90.433594 44 92 42.433594 92 40.5 C 92 38.566406 90.433594 37 88.5 37 C 86.566406 37 85 38.566406 85 40.5 C 85 42.433594 86.566406 44 88.5 44 Z M 88.5 44 " />
  <path fill-rule="nonzero" fill="rgb(100%, 100%, 100%)" fill-opacity="1"
        d="M 31.5 57 C 33.433594 57 35 55.433594 35 53.5 C 35 51.566406 33.433594 50 31.5 50 C 29.566406 50 28 51.566406 28 53.5 C 28 55.433594 29.566406 57 31.5 57 Z M 31.5 57 " />
  <path fill-rule="nonzero" fill="rgb(100%, 100%, 100%)" fill-opacity="1"
        d="M 56.5 101 C 58.433594 101 60 99.433594 60 97.5 C 60 95.566406 58.433594 94 56.5 94 C 54.566406 94 53 95.566406 53 97.5 C 53 99.433594 54.566406 101 56.5 101 Z M 56.5 101 " />
</svg>
