<?xml version="1.0" encoding="UTF-8"?>
<svg xmlns="http://www.w3.org/2000/svg" width="128" height="128"
     viewBox="0 0 128 128">
  <path fill-rule="nonzero" fill="rgb(100%, 100%, 100%)" fill-opacity="1"
        d="M 127.996094 63.992188 C 127.996094 99.335938 99.347656 127.988281 64 127.988281 C 28.652344 127.988281 0 99.335938 0 63.992188 C 0 28.652344 28.652344 0 64 0 C 99.34375 0 127.996094 28.648438 127.996094 63.992188 Z M 127.996094 63.992188 " />
  <path fill-rule="nonzero" fill="rgb(94.901961%, 40.784314%, 13.333333%)" fill-opacity="1"
        d="M 64 0 C 28.664062 0 -0.0390625 28.691406 0.0078125 63.992188 C 0.015625 71.054688 1.140625 77.847656 3.257812 84.203125 L 22.402344 84.203125 L 22.402344 30.367188 L 64 71.957031 L 105.589844 30.367188 L 105.589844 84.203125 L 124.742188 84.203125 C 126.859375 77.847656 127.980469 71.054688 127.992188 63.992188 C 128.054688 28.65625 99.335938 0.0078125 64 0.0078125 Z M 64 0 " />
  <path fill-rule="nonzero" fill="rgb(30.196078%, 30.196078%, 30.196078%)" fill-opacity="1"
        d="M 54.433594 81.519531 L 36.28125 63.367188 L 36.28125 97.242188 L 22.402344 97.242188 L 9.304688 97.246094 C 20.539062 115.675781 40.839844 128 64 128 C 87.15625 128 107.460938 115.671875 118.695312 97.242188 L 91.710938 97.242188 L 91.710938 63.367188 L 63.996094 91.082031 Z M 54.433594 81.519531 " />
</svg>
