<svg width="128" height="128" viewBox="0 0 128 128" fill="none" xmlns="http://www.w3.org/2000/svg">
  <path d="M127.997 63.9937C127.997 99.3353 99.3462 127.987 63.9985 127.987C28.6507 127.987 0 99.3353 0 63.9937C0 28.6521 28.6514 0 63.9985 0C99.3455 0 127.997 28.6494 127.997 63.9937Z"
        fill="white" />
  <path d="M63.9985 0C28.6634 0 -0.0380942 28.6927 0.00688874 63.9916C0.015749 71.0539 1.14203 77.8473 3.25588 84.2018H22.4036V30.3688L63.9985 71.9589L105.591 30.3688V84.2029H124.743C126.86 77.8487 127.981 71.0553 127.993 63.9927C128.054 28.6569 99.3374 0.00851859 63.9985 0.00851859V0Z"
        fill="#F26822" />
  <path d="M54.4331 81.5205L36.2807 63.3691V97.2438H22.4025L9.30664 97.2462C20.5398 115.674 40.8407 128 63.9987 128C87.1568 128 107.459 115.671 118.694 97.2435H91.7127V63.3691L73.5593 81.5205L63.9967 91.0822L54.4337 81.5205H54.4331Z"
        fill="#4D4D4D" />
</svg>
