<svg width="128" height="128" viewBox="0 0 128 128" fill="none" xmlns="http://www.w3.org/2000/svg">
  <g id="surface1">
    <path style=" stroke:none;fill-rule:nonzero;fill:rgb(100%,100%,100%);fill-opacity:1;"
          d="M 127.03125 63.5 C 127.527344 96 101.726562 127 63.527344 127 C 24.828125 127 1.015625 98.5 0.0234375 63.5 C -0.96875 28.5 30.757812 1 63.527344 0 C 98.597656 0 126.503906 29 127.03125 63.5 Z M 127.03125 63.5 " />
    <path style=" stroke:none;fill-rule:evenodd;fill:rgb(0%,0%,0%);fill-opacity:1;"
          d="M 63.375 127.917969 C 82.207031 127.917969 99.195312 119.695312 110.851562 106.601562 C 105.457031 101.867188 97.269531 101.566406 91.472656 106.285156 L 90.394531 107.21875 C 79.816406 115.824219 64.386719 114.507812 55.351562 104.351562 C 50.402344 98.765625 42 98.230469 36.355469 103.117188 L 23.617188 114.042969 C 34.496094 122.796875 48.328125 128 63.375 128 Z M 83.996094 96.980469 C 94.027344 88.84375 108.242188 89.15625 117.890625 96.980469 C 123.6875 87.375 127.007812 76.050781 127.007812 63.957031 C 127.007812 50.550781 122.921875 38.058594 115.898438 27.835938 C 111.34375 26.832031 106.480469 27.984375 102.695312 31.320312 L 101.613281 32.253906 C 91.417969 41.328125 75.988281 40.777344 66.488281 31.019531 C 61.324219 25.664062 52.824219 25.515625 47.425781 30.632812 L 32.582031 44.578125 L 24.476562 35.890625 L 39.304688 21.933594 C 49.421875 12.394531 65.246094 12.710938 74.976562 22.632812 C 80.074219 27.820312 88.328125 28.136719 93.742188 23.332031 L 94.820312 22.398438 C 98.144531 19.449219 101.929688 17.511719 105.933594 16.429688 C 94.644531 6.203125 79.664062 0 63.304688 0 C 30.957031 0 4.25 24.183594 0.148438 55.503906 C 9.949219 50.769531 22.070312 52.554688 30.109375 60.855469 C 35.125 66.046875 43.3125 66.59375 49.023438 62.09375 L 57.277344 55.585938 C 67.707031 47.449219 82.371094 47.832031 92.320312 56.519531 L 108.460938 70.628906 L 100.671875 79.617188 L 84.53125 65.511719 C 78.898438 60.542969 70.480469 60.320312 64.617188 64.960938 L 56.363281 71.464844 C 45.867188 79.6875 30.96875 78.671875 21.621094 69.148438 C 16.210938 63.574219 7.40625 63.410156 1.777344 68.695312 L 0 70.394531 C 1.3125 83.722656 6.792969 95.898438 15.046875 105.519531 L 28.632812 93.8125 C 39.210938 84.738281 55.039062 85.824219 64.222656 96.210938 C 69.085938 101.632812 77.273438 102.335938 82.902344 97.765625 L 83.984375 96.832031 L 83.984375 96.980469 Z M 83.996094 96.980469 " />
  </g>
</svg>
