<?xml version="1.0" encoding="UTF-8"?>
<svg xmlns="http://www.w3.org/2000/svg" width="128" height="128"
     viewBox="0 0 128 128">
  <path fill-rule="nonzero" fill="rgb(0.392157%, 0.392157%, 0.392157%)" fill-opacity="1"
        d="M 128 64 C 128 99.347656 99.347656 128 64 128 C 28.652344 128 0 99.347656 0 64 C 0 28.652344 28.652344 0 64 0 C 99.347656 0 128 28.652344 128 64 " />
  <path fill-rule="nonzero" fill="rgb(13.72549%, 96.862745%, 86.666667%)" fill-opacity="1"
        d="M 66.78125 63.460938 L 97.617188 47.371094 L 92.46875 37.714844 L 64.207031 48.949219 C 63.5625 49.242188 62.625 49.242188 61.984375 48.949219 L 33.71875 37.714844 L 28.570312 47.371094 L 59.410156 63.460938 L 28.570312 79.550781 L 33.71875 89.207031 L 61.984375 77.972656 C 62.625 77.679688 63.5625 77.679688 64.207031 77.972656 L 92.46875 89.207031 L 97.617188 79.550781 Z M 66.78125 63.460938 " />
</svg>
