<?xml version="1.0" encoding="UTF-8"?>
<svg xmlns="http://www.w3.org/2000/svg" width="128" height="128"
     viewBox="0 0 128 128">
  <path fill-rule="nonzero" fill="rgb(100%, 100%, 100%)" fill-opacity="1"
        d="M 64.5 10 L 110.832031 36.75 L 110.832031 90.25 L 64.5 117 L 18.167969 90.25 L 18.167969 36.75 Z M 64.5 10 " />
  <path fill-rule="nonzero" fill="rgb(12.54902%, 18.823529%, 39.215686%)" fill-opacity="1"
        d="M 64.441406 0 L 9 32.011719 L 9 96.011719 L 64.441406 128 L 119.835938 96.011719 L 119.835938 32.011719 Z M 103.421875 86.527344 L 64.441406 109.035156 L 25.433594 86.527344 L 25.433594 41.472656 L 64.441406 18.964844 L 103.421875 41.472656 Z M 103.421875 86.527344 " />
  <path fill-rule="nonzero" fill="rgb(12.54902%, 18.823529%, 39.215686%)" fill-opacity="1"
        d="M 90.292969 78.953125 L 64.417969 93.886719 L 38.519531 78.953125 L 38.519531 49.066406 L 64.417969 34.113281 L 90.292969 49.066406 L 79.519531 55.289062 L 64.417969 46.554688 L 49.3125 55.289062 L 49.3125 72.710938 L 64.417969 81.441406 L 79.519531 72.710938 Z M 90.292969 78.953125 " />
</svg>
