<svg width="128" height="128" viewBox="0 0 128 128" fill="none" xmlns="http://www.w3.org/2000/svg">
  <path d="M64.5 10L110.832 36.75V90.25L64.5 117L18.1676 90.25V36.75L64.5 10Z" fill="white" />
  <path d="M64.4395 0L9 32.0107V96.0107L64.4395 128L119.836 96.0107V32.0107L64.4395 0ZM103.423 86.5277L64.4395 109.034L25.4345 86.5277V41.4723L64.4395 18.9661L103.423 41.4723V86.5277Z"
        fill="#203064" />
  <path d="M90.2912 78.9536L64.4166 93.8862L38.5205 78.9536V49.0669L64.4166 34.1128L90.2912 49.0669L79.5208 55.2888L64.4166 46.5566L49.3123 55.2888V72.7102L64.4166 81.4423L79.5208 72.7102L90.2912 78.9536Z"
        fill="#203064" />
</svg>
