<?xml version="1.0" encoding="UTF-8"?>
<svg xmlns:xlink="http://www.w3.org/1999/xlink" xmlns="http://www.w3.org/2000/svg" width="128" height="128"
     viewBox="0 0 128 128">
  <defs>
    <filter id="filter-remove-color" x="0%" y="0%" width="100%" height="100%">
      <feColorMatrix color-interpolation-filters="sRGB" values="0 0 0 0 1 0 0 0 0 1 0 0 0 0 1 0 0 0 1 0" />
    </filter>
    <clipPath id="clip-0">
      <path clip-rule="nonzero" d="M 0 0 L 153.601562 0 L 153.601562 153.601562 L 0 153.601562 Z M 0 0 " />
    </clipPath>
    <clipPath id="clip-1">
      <rect x="0" y="0" width="154" height="154" />
    </clipPath>
    <g id="source-511" clip-path="url(#clip-1)">
      <path fill-rule="nonzero" fill="rgb(100%, 100%, 100%)" fill-opacity="1"
            d="M 64 0 C 99.328125 0 128 28.671875 128 64 C 128 99.328125 99.328125 128 64 128 C 28.671875 128 0 99.328125 0 64 C 0 28.671875 28.671875 0 64 0 Z M 64 0 " />
    </g>
    <clipPath id="clip-2">
      <rect x="0" y="0" width="154" height="154" />
    </clipPath>
    <g id="source-514" clip-path="url(#clip-2)">
      <g clip-path="url(#clip-0)">
        <use xlink:href="#source-511" />
      </g>
    </g>
    <mask id="mask-0">
      <g filter="url(#filter-remove-color)">
        <use xlink:href="#source-514" />
      </g>
    </mask>
    <clipPath id="clip-3">
      <path clip-rule="nonzero" d="M 0 0 L 128 0 L 128 128 L 0 128 Z M 0 0 " />
    </clipPath>
    <clipPath id="clip-4">
      <rect x="0" y="0" width="128" height="128" />
    </clipPath>
    <g id="source-513" clip-path="url(#clip-4)">
      <g clip-path="url(#clip-3)">
        <path fill="none" stroke-width="1" stroke-linecap="butt" stroke-linejoin="miter" stroke="rgb(0%, 0%, 0%)"
              stroke-opacity="1" stroke-miterlimit="22.9256" d="M 0 0 L 128 128 M 128 0 L 0 128 " />
      </g>
    </g>
    <linearGradient id="linear-pattern-0" gradientUnits="userSpaceOnUse" x1="64" y1="0" x2="64" y2="128">
      <stop offset="0" stop-color="rgb(97.254902%, 59.215686%, 56.862745%)" stop-opacity="1" />
      <stop offset="1" stop-color="rgb(96.862745%, 78.431373%, 50.980392%)" stop-opacity="1" />
    </linearGradient>
    <clipPath id="clip-5">
      <path clip-rule="nonzero" d="M 0 0 L 153.601562 0 L 153.601562 153.601562 L 0 153.601562 Z M 0 0 " />
    </clipPath>
    <clipPath id="clip-6">
      <rect x="0" y="0" width="154" height="154" />
    </clipPath>
    <g id="source-529" clip-path="url(#clip-6)">
      <path fill-rule="nonzero" fill="rgb(100%, 100%, 100%)" fill-opacity="1"
            d="M 63.949219 75.367188 L 35.429688 59.085938 L 34.664062 60.261719 C 25.90625 73.726562 27.851562 91.339844 39.371094 102.65625 C 52.941406 115.96875 74.957031 115.96875 88.523438 102.65625 C 100.046875 91.339844 101.988281 73.726562 93.234375 60.261719 L 92.46875 59.085938 Z M 63.949219 75.367188 " />
    </g>
    <clipPath id="clip-7">
      <rect x="0" y="0" width="154" height="154" />
    </clipPath>
    <g id="source-532" clip-path="url(#clip-7)">
      <g clip-path="url(#clip-5)">
        <use xlink:href="#source-529" />
      </g>
    </g>
    <mask id="mask-1">
      <g filter="url(#filter-remove-color)">
        <use xlink:href="#source-532" />
      </g>
    </mask>
    <radialGradient id="radial-pattern-0" gradientUnits="userSpaceOnUse" cx="0" cy="0" fx="0" fy="0" r="1"
                    gradientTransform="matrix(-0.377919, -46.425162, 55.335967, -0.450457, 63.8827, 107.355)">
      <stop offset="0" stop-color="rgb(77.254902%, 77.647059%, 67.058824%)" stop-opacity="1" />
      <stop offset="1" stop-color="rgb(47.45098%, 52.156863%, 67.058824%)" stop-opacity="1" />
    </radialGradient>
    <clipPath id="clip-8">
      <rect x="0" y="0" width="128" height="128" />
    </clipPath>
    <g id="source-531" clip-path="url(#clip-8)">
      <path fill-rule="nonzero" fill="url(#radial-pattern-0)"
            d="M 63.949219 113.664062 C 83.148438 113.664062 98.714844 98.097656 98.714844 78.898438 C 98.714844 59.699219 83.148438 44.136719 63.949219 44.136719 C 44.75 44.136719 29.183594 59.699219 29.183594 78.898438 C 29.183594 98.097656 44.75 113.664062 63.949219 113.664062 Z M 63.949219 113.664062 " />
    </g>
    <radialGradient id="radial-pattern-1" gradientUnits="userSpaceOnUse" cx="0" cy="0" fx="0" fy="0" r="1"
                    gradientTransform="matrix(1.2288, 0, 0, 1.2288, 63.949, 53.043)">
      <stop offset="0" stop-color="rgb(0%, 40%, 100%)" stop-opacity="0" />
      <stop offset="1" stop-color="rgb(0%, 76.078431%, 100%)" stop-opacity="0.4" />
    </radialGradient>
    <radialGradient id="radial-pattern-2" gradientUnits="userSpaceOnUse" cx="0" cy="0" fx="0" fy="0" r="1"
                    gradientTransform="matrix(1.43401, 0, 0, 1.43401, 63.9235, 59.0078)">
      <stop offset="0" stop-color="rgb(68.235294%, 90.196078%, 97.647059%)" stop-opacity="0.8588" />
      <stop offset="1" stop-color="rgb(78.431373%, 83.921569%, 86.27451%)" stop-opacity="1" />
    </radialGradient>
    <linearGradient id="linear-pattern-1" gradientUnits="userSpaceOnUse" x1="51.661" y1="12.7999" x2="51.661"
                    y2="63.9999">
      <stop offset="0" stop-color="rgb(46.666667%, 83.137255%, 100%)" stop-opacity="1" />
      <stop offset="1" stop-color="rgb(57.647059%, 83.921569%, 94.901961%)" stop-opacity="0.898" />
    </linearGradient>
    <linearGradient id="linear-pattern-2" gradientUnits="userSpaceOnUse" x1="76.2372" y1="12.7999" x2="76.2372"
                    y2="63.9999">
      <stop offset="0" stop-color="rgb(31.372549%, 41.568627%, 67.45098%)" stop-opacity="1" />
      <stop offset="1" stop-color="rgb(58.823529%, 81.176471%, 93.72549%)" stop-opacity="0.8196" />
    </linearGradient>
  </defs>
  <g mask="url(#mask-0)">
    <use xlink:href="#source-513" />
  </g>
  <path fill-rule="nonzero" fill="url(#linear-pattern-0)"
        d="M 64 0 C 99.328125 0 128 28.671875 128 64 C 128 99.328125 99.328125 128 64 128 C 28.671875 128 0 99.328125 0 64 C 0 28.671875 28.671875 0 64 0 Z M 64 0 " />
  <g mask="url(#mask-1)">
    <use xlink:href="#source-531" />
  </g>
  <path fill-rule="nonzero" fill="url(#radial-pattern-1)"
        d="M 63.949219 39.015625 L 39.371094 53.042969 L 63.949219 67.070312 L 88.523438 53.042969 Z M 63.949219 39.015625 " />
  <path fill-rule="nonzero" fill="url(#radial-pattern-2)"
        d="M 64 42.648438 L 35.429688 59.085938 L 63.949219 75.367188 L 92.417969 59.085938 Z M 64 42.648438 " />
  <path fill-rule="nonzero" fill="url(#linear-pattern-1)"
        d="M 63.949219 15.359375 L 39.371094 53.042969 L 63.949219 67.070312 Z M 63.949219 15.359375 " />
  <path fill-rule="nonzero" fill="url(#linear-pattern-2)"
        d="M 63.949219 67.070312 L 88.523438 53.042969 L 63.949219 15.359375 Z M 63.949219 67.070312 " />
</svg>
