<?xml version="1.0" encoding="UTF-8"?>
<svg xmlns="http://www.w3.org/2000/svg" width="128" height="128"
     viewBox="0 0 128 128">
  <path fill-rule="nonzero" fill="rgb(0%, 0%, 0%)" fill-opacity="1"
        d="M 64 0 C 28.652344 0 0 28.652344 0 64 C 0 99.347656 28.652344 128 64 128 C 99.347656 128 128 99.347656 128 64 C 128 28.652344 99.347656 0 64 0 Z M 64 0 " />
  <path fill-rule="nonzero" fill="rgb(100%, 100%, 100%)" fill-opacity="1"
        d="M 90.015625 91.679688 L 81.886719 91.679688 L 81.886719 74.398438 L 46.113281 74.398438 L 46.113281 91.679688 L 37.984375 91.679688 L 37.984375 35.648438 L 46.113281 35.648438 L 46.113281 52.511719 L 81.886719 52.511719 L 81.886719 35.648438 L 90.015625 35.648438 Z M 46.496094 67.9375 L 82.269531 67.9375 L 82.269531 59.007812 L 46.496094 59.007812 Z M 46.496094 67.9375 " />
</svg>
