<svg width="128" height="128" viewBox="0 0 128 128" fill="none" xmlns="http://www.w3.org/2000/svg">
  <path d="M64 128C99.3462 128 128 99.3462 128 64C128 28.6538 99.3462 0 64 0C28.6538 0 0 28.6538 0 64C0 99.3462 28.6538 128 64 128Z"
        fill="#C1FF3C" />
  <path fill-rule="evenodd" clip-rule="evenodd"
        d="M104.141 59.5456V50.6368H95.2318V32.768H86.323V50.6368H68.5054V95.232H77.4142V59.5456H86.323V95.232H104.141V86.3232H95.2318V59.5456H104.141ZM55.091 81.8688C55.091 84.3264 53.0942 86.3232 50.6366 86.3232H32.819V68.4544H50.6366C53.0942 68.4544 55.091 70.4512 55.091 72.9088V81.8176V81.8688ZM32.819 41.6768H46.1822C48.6398 41.6768 50.6366 43.6736 50.6366 46.1312V55.04C50.6366 57.4976 48.6398 59.4944 46.1822 59.4944H32.819V41.6256V41.6768ZM56.627 62.9248V61.696C58.4702 60.0576 59.5966 57.7024 59.5966 55.04V44.2368C59.5966 37.888 54.4254 32.7168 48.0766 32.7168H23.9102V95.1808H52.1726C58.7262 95.1808 64.051 89.856 64.051 83.3024V72.9088C64.051 68.3008 61.0302 64.256 56.627 62.9248Z"
        fill="black" />
  <rect x="68.2998" y="32.8" width="9" height="9" fill="black" />
</svg>
