<?xml version="1.0" encoding="UTF-8"?>
<svg xmlns="http://www.w3.org/2000/svg" width="128" height="128"
     viewBox="0 0 128 128">
  <path fill-rule="nonzero" fill="rgb(75.686275%, 100%, 23.529412%)" fill-opacity="1"
        d="M 64 128 C 99.347656 128 128 99.347656 128 64 C 128 28.652344 99.347656 0 64 0 C 28.652344 0 0 28.652344 0 64 C 0 99.347656 28.652344 128 64 128 Z M 64 128 " />
  <path fill-rule="evenodd" fill="rgb(0%, 0%, 0%)" fill-opacity="1"
        d="M 104.140625 59.546875 L 104.140625 50.636719 L 95.230469 50.636719 L 95.230469 32.769531 L 86.324219 32.769531 L 86.324219 50.636719 L 68.503906 50.636719 L 68.503906 95.230469 L 77.414062 95.230469 L 77.414062 59.546875 L 86.324219 59.546875 L 86.324219 95.230469 L 104.140625 95.230469 L 104.140625 86.324219 L 95.230469 86.324219 L 95.230469 59.546875 Z M 55.089844 81.867188 C 55.089844 84.328125 53.09375 86.324219 50.636719 86.324219 L 32.820312 86.324219 L 32.820312 68.453125 L 50.636719 68.453125 C 53.09375 68.453125 55.089844 70.453125 55.089844 72.910156 Z M 32.820312 41.675781 L 46.183594 41.675781 C 48.640625 41.675781 50.636719 43.671875 50.636719 46.132812 L 50.636719 55.039062 C 50.636719 57.496094 48.640625 59.496094 46.183594 59.496094 L 32.820312 59.496094 L 32.820312 41.625 Z M 56.628906 62.925781 L 56.628906 61.695312 C 58.46875 60.058594 59.597656 57.703125 59.597656 55.039062 L 59.597656 44.238281 C 59.597656 37.886719 54.425781 32.71875 48.078125 32.71875 L 23.910156 32.71875 L 23.910156 95.179688 L 52.171875 95.179688 C 58.726562 95.179688 64.050781 89.855469 64.050781 83.300781 L 64.050781 72.910156 C 64.050781 68.300781 61.03125 64.257812 56.628906 62.925781 Z M 56.628906 62.925781 " />
  <path fill-rule="nonzero" fill="rgb(0%, 0%, 0%)" fill-opacity="1"
        d="M 68.300781 32.800781 L 77.300781 32.800781 L 77.300781 41.800781 L 68.300781 41.800781 Z M 68.300781 32.800781 " />
</svg>
