<?xml version="1.0" encoding="UTF-8"?>
<svg xmlns="http://www.w3.org/2000/svg" width="128" height="128"
     viewBox="0 0 128 128">
  <path fill-rule="nonzero" fill="rgb(7.843137%, 7.843137%, 7.843137%)" fill-opacity="1"
        d="M 128 64 C 128 99.347656 99.347656 128 64 128 C 28.652344 128 0 99.347656 0 64 C 0 28.652344 28.652344 0 64 0 C 99.347656 0 128 28.652344 128 64 " />
  <path fill-rule="nonzero" fill="rgb(94.901961%, 94.901961%, 94.901961%)" fill-opacity="1"
        d="M 59.921875 87.460938 L 57.792969 82.835938 C 55.21875 77.269531 50.730469 72.78125 45.164062 70.207031 L 40.539062 68.078125 C 39.730469 67.695312 38.984375 67.117188 38.5625 66.3125 C 37.8125 64.875 37.8125 63.125 38.5625 61.6875 C 38.964844 60.882812 39.714844 60.304688 40.539062 59.921875 L 45.164062 57.792969 C 50.730469 55.21875 55.21875 50.730469 57.792969 45.164062 L 59.921875 40.539062 C 60.304688 39.730469 60.882812 38.984375 61.6875 38.5625 C 63.125 37.8125 64.875 37.8125 66.3125 38.5625 C 67.117188 38.964844 67.695312 39.714844 68.078125 40.539062 L 70.207031 45.164062 C 72.78125 50.730469 77.269531 55.21875 82.835938 57.792969 L 87.460938 59.921875 C 88.269531 60.304688 89.015625 60.882812 89.4375 61.6875 C 90.1875 63.125 90.1875 64.875 89.4375 66.3125 C 89.035156 67.117188 88.285156 67.695312 87.460938 68.078125 L 82.835938 70.207031 C 77.269531 72.78125 72.78125 77.269531 70.207031 82.835938 L 68.078125 87.460938 C 67.695312 88.269531 67.117188 89.015625 66.3125 89.4375 C 64.875 90.1875 63.125 90.1875 61.6875 89.4375 C 60.882812 89.035156 60.304688 88.285156 59.921875 87.460938 Z M 59.921875 87.460938 " />
  <path fill-rule="evenodd" fill="rgb(60%, 60%, 60%)" fill-opacity="1"
        d="M 72.769531 111.890625 C 92.765625 108.265625 108.511719 92.425781 111.996094 72.378906 L 103.109375 76.472656 C 91.648438 81.769531 82.402344 91.015625 77.105469 102.480469 Z M 111.882812 54.941406 C 108.199219 35.292969 92.710938 19.804688 73.0625 16.117188 L 77.105469 24.894531 C 82.402344 36.355469 91.648438 45.605469 103.109375 50.902344 Z M 55.628906 16 C 35.578125 19.484375 19.730469 35.234375 16.109375 55.238281 L 25.527344 50.902344 C 36.988281 45.605469 46.238281 36.355469 51.53125 24.894531 Z M 15.996094 72.085938 C 19.417969 92.484375 35.519531 108.585938 55.917969 112.003906 L 51.53125 102.480469 C 46.238281 91.015625 36.988281 81.769531 25.527344 76.472656 L 16 72.085938 C 16 72.085938 16 72.085938 15.996094 72.085938 Z M 15.996094 72.085938 " />
</svg>
