<svg width="128" height="128" viewBox="0 0 128 128" fill="none" xmlns="http://www.w3.org/2000/svg">
  <circle cx="64" cy="64" r="64" fill="#141414" />
  <path d="M59.9218 87.4619L57.7915 82.8367C55.2198 77.2711 50.7289 72.7802 45.1633 70.2085L40.5381 68.0782C39.7321 67.6944 38.9836 67.1187 38.5614 66.3126C37.8129 64.8732 37.8129 63.1268 38.5614 61.6874C38.9644 60.8813 39.7129 60.3056 40.5381 59.9218L45.1633 57.7915C50.7289 55.2198 55.2198 50.7289 57.7915 45.1633L59.9218 40.5381C60.3056 39.7321 60.8813 38.9836 61.6874 38.5614C63.1268 37.8129 64.8732 37.8129 66.3126 38.5614C67.1187 38.9644 67.6944 39.7129 68.0782 40.5381L70.2085 45.1633C72.7802 50.7289 77.2711 55.2198 82.8367 57.7915L87.4619 59.9218C88.268 60.3056 89.0164 60.8813 89.4386 61.6874C90.1871 63.1268 90.1871 64.8732 89.4386 66.3126C89.0356 67.1187 88.2871 67.6944 87.4619 68.0782L82.8367 70.2085C77.2711 72.7802 72.7802 77.2711 70.2085 82.8367L68.0782 87.4619C67.6944 88.2679 67.1187 89.0164 66.3126 89.4386C64.8732 90.1871 63.1268 90.1871 61.6874 89.4386C60.8813 89.0356 60.3056 88.2871 59.9218 87.4619Z"
        fill="#F2F2F2" />
  <path fill-rule="evenodd" clip-rule="evenodd"
        d="M72.77 111.89C92.7673 108.264 108.511 92.4252 111.998 72.3795L103.111 76.4728C91.6492 81.7689 82.4007 91.0174 77.1046 102.479L72.77 111.89ZM111.884 54.9418C108.198 35.2928 92.7101 19.8043 73.0615 16.1166L77.1046 24.8948C82.4007 36.3566 91.6492 45.605 103.111 50.9012L111.884 54.9418ZM55.6297 16.0001C35.5764 19.4841 19.7319 35.2344 16.1079 55.2393L25.5267 50.9012C36.9884 45.605 46.2369 36.3566 51.533 24.8948L55.6297 16.0001ZM15.998 72.084C19.4167 92.4841 35.5186 108.585 55.9192 112.002L51.533 102.479C46.2369 91.0174 36.9884 81.7689 25.5267 76.4728L16.0015 72.0857C16.0004 72.0851 15.9992 72.0846 15.998 72.084Z"
        fill="#999999" />
</svg>
