<?xml version="1.0" encoding="UTF-8"?>
<svg xmlns="http://www.w3.org/2000/svg" width="128" height="128"
     viewBox="0 0 128 128">
  <defs>
    <linearGradient id="linear-pattern-0" gradientUnits="userSpaceOnUse" x1="40.2421" y1="53.3461" x2="40.2421"
                    y2="92.7806">
      <stop offset="0" stop-color="rgb(96.470588%, 91.372549%, 23.921569%)" stop-opacity="1" />
      <stop offset="0.13" stop-color="rgb(97.254902%, 89.019608%, 18.823529%)" stop-opacity="1" />
      <stop offset="0.35" stop-color="rgb(96.862745%, 78.039216%, 18.823529%)" stop-opacity="1" />
      <stop offset="0.64" stop-color="rgb(96.078431%, 61.176471%, 18.039216%)" stop-opacity="1" />
      <stop offset="0.98" stop-color="rgb(92.156863%, 36.862745%, 17.254902%)" stop-opacity="1" />
      <stop offset="1" stop-color="rgb(92.156863%, 36.078431%, 17.254902%)" stop-opacity="1" />
    </linearGradient>
    <linearGradient id="linear-pattern-1" gradientUnits="userSpaceOnUse" x1="55.7395" y1="76.2994" x2="55.7395"
                    y2="109.064">
      <stop offset="0" stop-color="rgb(96.470588%, 91.372549%, 23.921569%)" stop-opacity="1" />
      <stop offset="0.13" stop-color="rgb(97.254902%, 89.019608%, 18.823529%)" stop-opacity="1" />
      <stop offset="0.35" stop-color="rgb(96.862745%, 78.039216%, 18.823529%)" stop-opacity="1" />
      <stop offset="0.64" stop-color="rgb(96.078431%, 61.176471%, 18.039216%)" stop-opacity="1" />
      <stop offset="0.98" stop-color="rgb(92.156863%, 36.862745%, 17.254902%)" stop-opacity="1" />
      <stop offset="1" stop-color="rgb(92.156863%, 36.078431%, 17.254902%)" stop-opacity="1" />
    </linearGradient>
    <linearGradient id="linear-pattern-2" gradientUnits="userSpaceOnUse" x1="74.0064" y1="66.7269" x2="74.0064"
                    y2="103.332">
      <stop offset="0" stop-color="rgb(96.470588%, 91.372549%, 23.921569%)" stop-opacity="1" />
      <stop offset="0.13" stop-color="rgb(97.254902%, 89.019608%, 18.823529%)" stop-opacity="1" />
      <stop offset="0.35" stop-color="rgb(96.862745%, 78.039216%, 18.823529%)" stop-opacity="1" />
      <stop offset="0.64" stop-color="rgb(96.078431%, 61.176471%, 18.039216%)" stop-opacity="1" />
      <stop offset="0.98" stop-color="rgb(92.156863%, 36.862745%, 17.254902%)" stop-opacity="1" />
      <stop offset="1" stop-color="rgb(92.156863%, 36.078431%, 17.254902%)" stop-opacity="1" />
    </linearGradient>
    <linearGradient id="linear-pattern-3" gradientUnits="userSpaceOnUse" x1="44.4596" y1="26.3901" x2="44.4596"
                    y2="54.8762">
      <stop offset="0" stop-color="rgb(96.470588%, 91.372549%, 23.921569%)" stop-opacity="1" />
      <stop offset="0.13" stop-color="rgb(97.254902%, 89.019608%, 18.823529%)" stop-opacity="1" />
      <stop offset="0.35" stop-color="rgb(96.862745%, 78.039216%, 18.823529%)" stop-opacity="1" />
      <stop offset="0.64" stop-color="rgb(96.078431%, 61.176471%, 18.039216%)" stop-opacity="1" />
      <stop offset="0.98" stop-color="rgb(92.156863%, 36.862745%, 17.254902%)" stop-opacity="1" />
      <stop offset="1" stop-color="rgb(92.156863%, 36.078431%, 17.254902%)" stop-opacity="1" />
    </linearGradient>
    <linearGradient id="linear-pattern-4" gradientUnits="userSpaceOnUse" x1="93.2908" y1="36.0432" x2="93.2908"
                    y2="79.3228">
      <stop offset="0" stop-color="rgb(96.470588%, 91.372549%, 23.921569%)" stop-opacity="1" />
      <stop offset="0.13" stop-color="rgb(97.254902%, 89.019608%, 18.823529%)" stop-opacity="1" />
      <stop offset="0.35" stop-color="rgb(96.862745%, 78.039216%, 18.823529%)" stop-opacity="1" />
      <stop offset="0.64" stop-color="rgb(96.078431%, 61.176471%, 18.039216%)" stop-opacity="1" />
      <stop offset="0.98" stop-color="rgb(92.156863%, 36.862745%, 17.254902%)" stop-opacity="1" />
      <stop offset="1" stop-color="rgb(92.156863%, 36.078431%, 17.254902%)" stop-opacity="1" />
    </linearGradient>
    <linearGradient id="linear-pattern-5" gradientUnits="userSpaceOnUse" x1="69.4905" y1="19.1328" x2="69.4905"
                    y2="63.6671">
      <stop offset="0" stop-color="rgb(96.470588%, 91.372549%, 23.921569%)" stop-opacity="1" />
      <stop offset="0.13" stop-color="rgb(97.254902%, 89.019608%, 18.823529%)" stop-opacity="1" />
      <stop offset="0.35" stop-color="rgb(96.862745%, 78.039216%, 18.823529%)" stop-opacity="1" />
      <stop offset="0.64" stop-color="rgb(96.078431%, 61.176471%, 18.039216%)" stop-opacity="1" />
      <stop offset="0.98" stop-color="rgb(92.156863%, 36.862745%, 17.254902%)" stop-opacity="1" />
      <stop offset="1" stop-color="rgb(92.156863%, 36.078431%, 17.254902%)" stop-opacity="1" />
    </linearGradient>
    <linearGradient id="linear-pattern-6" gradientUnits="userSpaceOnUse" x1="78.2419" y1="53.2813" x2="78.2419"
                    y2="63.6792">
      <stop offset="0" stop-color="rgb(96.470588%, 91.372549%, 23.921569%)" stop-opacity="1" />
      <stop offset="0.13" stop-color="rgb(97.254902%, 89.019608%, 18.823529%)" stop-opacity="1" />
      <stop offset="0.35" stop-color="rgb(96.862745%, 78.039216%, 18.823529%)" stop-opacity="1" />
      <stop offset="0.64" stop-color="rgb(96.078431%, 61.176471%, 18.039216%)" stop-opacity="1" />
      <stop offset="0.98" stop-color="rgb(92.156863%, 36.862745%, 17.254902%)" stop-opacity="1" />
      <stop offset="1" stop-color="rgb(92.156863%, 36.078431%, 17.254902%)" stop-opacity="1" />
    </linearGradient>
    <linearGradient id="linear-pattern-7" gradientUnits="userSpaceOnUse" x1="49.4329" y1="61.0839" x2="52.7356"
                    y2="52.0095">
      <stop offset="0" stop-color="rgb(96.470588%, 91.372549%, 23.921569%)" stop-opacity="1" />
      <stop offset="0.13" stop-color="rgb(97.254902%, 89.019608%, 18.823529%)" stop-opacity="1" />
      <stop offset="0.35" stop-color="rgb(96.862745%, 78.039216%, 18.823529%)" stop-opacity="1" />
      <stop offset="0.64" stop-color="rgb(96.078431%, 61.176471%, 18.039216%)" stop-opacity="1" />
      <stop offset="0.98" stop-color="rgb(92.156863%, 36.862745%, 17.254902%)" stop-opacity="1" />
      <stop offset="1" stop-color="rgb(92.156863%, 36.078431%, 17.254902%)" stop-opacity="1" />
    </linearGradient>
  </defs>
  <path fill-rule="nonzero" fill="rgb(9.019608%, 10.980392%, 12.156863%)" fill-opacity="1"
        d="M 128 64 C 128 99.347656 99.347656 128 64 128 C 28.652344 128 0 99.347656 0 64 C 0 28.652344 28.652344 0 64 0 C 99.347656 0 128 28.652344 128 64 " />
  <path fill-rule="nonzero" fill="url(#linear-pattern-0)"
        d="M 42.558594 57.664062 L 42.601562 57.664062 L 43.289062 57.90625 L 43.933594 58.152344 L 44.625 58.351562 L 45.269531 58.636719 L 45.960938 58.878906 L 46.605469 59.121094 L 47.292969 59.363281 L 47.941406 59.609375 L 49.238281 60.09375 L 49.925781 60.335938 L 50.574219 60.621094 L 51.261719 60.820312 L 51.910156 61.066406 L 52.597656 61.308594 L 53.246094 61.589844 L 53.933594 61.832031 L 54.582031 62.035156 L 55.226562 62.277344 L 55.914062 62.5625 L 56.605469 62.804688 L 56.605469 53.335938 L 41.667969 53.335938 L 41.019531 53.65625 L 39.484375 54.46875 L 37.90625 55.316406 L 36.324219 56.085938 L 34.828125 56.894531 L 33.25 57.746094 L 31.671875 58.515625 L 30.132812 59.363281 L 28.554688 60.175781 L 27.015625 60.941406 L 25.480469 61.792969 L 24.0625 62.523438 L 23.902344 85.714844 L 25.480469 86.804688 L 27.015625 87.898438 L 28.554688 88.953125 L 30.132812 90.085938 L 31.671875 91.179688 L 33.25 92.269531 L 33.9375 92.796875 L 34.828125 91.664062 L 36.324219 89.640625 L 36.488281 89.4375 L 36.324219 89.316406 L 34.828125 88.222656 L 33.25 87.128906 L 31.671875 86.039062 L 30.132812 84.945312 L 28.554688 83.8125 L 28.148438 83.570312 L 28.273438 64.789062 L 28.554688 64.625 L 30.132812 63.855469 L 31.671875 63.089844 L 34.828125 61.550781 L 36.324219 60.742188 L 37.90625 59.972656 L 39.484375 59.242188 L 41.019531 58.433594 Z M 42.558594 57.664062 " />
  <path fill-rule="nonzero" fill="url(#linear-pattern-1)"
        d="M 69.351562 101.902344 L 68.058594 102.429688 L 66.601562 103.035156 L 65.144531 103.605469 L 63.6875 104.210938 L 63.039062 104.453125 L 62.269531 104.089844 L 60.8125 103.320312 L 59.355469 102.632812 L 57.9375 101.863281 L 56.480469 101.136719 L 55.023438 100.445312 L 53.566406 99.675781 L 52.109375 98.949219 L 50.652344 98.21875 L 49.195312 97.492188 L 47.738281 96.722656 L 46.363281 96.035156 L 44.90625 95.304688 L 44.746094 95.226562 L 44.746094 76.28125 L 40.535156 76.28125 L 40.535156 97.816406 L 41.992188 98.503906 L 43.449219 99.230469 L 44.90625 100 L 46.363281 100.6875 L 47.738281 101.457031 L 49.195312 102.1875 L 50.652344 102.914062 L 52.109375 103.644531 L 53.566406 104.371094 L 55.023438 105.101562 L 56.480469 105.828125 L 57.9375 106.597656 L 59.355469 107.285156 L 60.8125 108.054688 L 62.269531 108.742188 L 62.835938 109.066406 L 63.6875 108.664062 L 65.144531 108.136719 L 66.601562 107.53125 L 68.058594 106.921875 L 69.472656 106.355469 L 70.933594 105.789062 L 69.472656 102.148438 Z M 69.351562 101.902344 " />
  <path fill-rule="nonzero" fill="url(#linear-pattern-2)"
        d="M 95.21875 75.59375 L 95.296875 84.5 L 94.933594 84.824219 L 92.464844 86.523438 L 87.527344 90.085938 L 85.058594 91.824219 L 82.589844 93.566406 L 80.160156 95.347656 L 77.691406 97.085938 L 76.234375 98.140625 L 75.222656 97.371094 L 72.792969 95.46875 L 70.324219 93.605469 L 67.855469 91.703125 L 65.429688 89.84375 L 64.984375 89.519531 L 64.984375 79.925781 L 65.429688 79.519531 L 67.855469 76.929688 L 70.324219 74.378906 L 72.792969 71.789062 L 75.222656 69.242188 L 77.609375 66.730469 L 48.183594 66.730469 L 50.65625 69.320312 L 53.082031 71.871094 L 55.550781 74.421875 L 58.019531 77.011719 L 60.449219 79.5625 L 60.8125 79.925781 L 60.8125 91.542969 L 62.917969 93.203125 L 65.429688 95.105469 L 67.855469 96.964844 L 70.324219 98.867188 L 72.792969 100.730469 L 75.222656 102.632812 L 76.113281 103.320312 L 77.691406 102.1875 L 80.160156 100.488281 L 82.589844 98.707031 L 85.058594 96.925781 L 87.527344 95.226562 L 92.464844 91.664062 L 94.933594 89.964844 L 97.402344 88.183594 L 99.425781 86.683594 L 99.832031 75.757812 L 97.402344 75.675781 Z M 95.21875 75.59375 " />
  <path fill-rule="nonzero" fill="url(#linear-pattern-3)"
        d="M 27.90625 54.871094 L 28.191406 54.871094 L 28.230469 42.972656 L 29.808594 41.960938 L 31.792969 40.785156 L 33.734375 39.613281 L 35.679688 38.398438 L 37.621094 37.226562 L 39.605469 36.011719 L 41.507812 34.835938 L 43.492188 33.664062 L 45.433594 32.449219 L 47.417969 31.234375 L 47.457031 31.234375 L 49.320312 32.328125 L 51.300781 33.421875 L 53.246094 34.554688 L 55.1875 35.648438 L 57.128906 36.738281 L 59.074219 37.832031 L 61.015625 38.964844 L 62.917969 40.058594 L 63 39.898438 L 64.941406 36.375 L 63 35.242188 L 61.015625 34.148438 L 59.074219 33.054688 L 57.128906 31.964844 L 55.1875 30.832031 L 53.246094 29.738281 L 51.300781 28.644531 L 49.320312 27.511719 L 47.417969 26.417969 L 47.335938 26.378906 L 45.433594 27.511719 L 43.492188 28.726562 L 41.507812 29.941406 L 39.605469 31.152344 L 37.621094 32.328125 L 35.679688 33.5 L 33.734375 34.714844 L 31.792969 35.890625 L 29.808594 37.105469 L 27.90625 38.277344 L 25.925781 39.453125 L 24.0625 40.625 L 23.980469 54.832031 L 25.925781 54.832031 Z M 27.90625 54.871094 " />
  <path fill-rule="nonzero" fill="url(#linear-pattern-4)"
        d="M 104 43.984375 L 101.976562 42.367188 L 100.964844 41.515625 L 99.953125 40.707031 L 98.941406 39.894531 L 97.890625 39.085938 L 96.875 38.277344 L 95.863281 37.46875 L 94.8125 36.617188 L 94.042969 36.050781 L 93.761719 36.375 L 92.75 37.628906 L 91.738281 38.925781 L 91.453125 39.25 L 91.738281 39.53125 L 92.75 40.382812 L 93.761719 41.230469 L 95.863281 42.933594 L 96.875 43.824219 L 97.890625 44.671875 L 98.941406 45.523438 L 99.425781 45.925781 L 99.46875 65.070312 L 98.941406 65.4375 L 97.890625 66.082031 L 96.875 66.730469 L 95.863281 67.378906 L 93.761719 68.675781 L 92.75 69.320312 L 89.714844 71.265625 L 88.699219 71.910156 L 87.648438 72.558594 L 84.613281 74.503906 L 83.5625 75.148438 L 82.546875 75.796875 L 83.5625 77.417969 L 84.613281 79.035156 L 84.773438 79.320312 L 85.625 78.792969 L 86.636719 78.183594 L 87.648438 77.539062 L 88.699219 76.929688 L 89.714844 76.242188 L 90.726562 75.636719 L 91.738281 74.988281 L 92.75 74.378906 L 93.761719 73.734375 L 94.8125 73.125 L 95.863281 72.4375 L 96.875 71.832031 L 97.890625 71.183594 L 98.941406 70.578125 L 99.953125 69.929688 L 100.964844 69.320312 L 101.976562 68.632812 L 102.988281 68.027344 L 104 67.378906 Z M 104 43.984375 " />
  <path fill-rule="nonzero" fill="url(#linear-pattern-5)"
        d="M 70.609375 55.398438 L 70.609375 63.65625 L 70.929688 63.535156 L 72.308594 63.007812 L 73.683594 62.441406 L 75.019531 61.914062 L 76.394531 61.347656 L 77.773438 60.78125 L 79.105469 60.253906 L 80.484375 59.6875 L 81.859375 59.164062 L 83.195312 58.59375 L 84.570312 58.070312 L 85.90625 57.503906 L 85.90625 32.449219 L 84.367188 31.476562 L 81.210938 29.695312 L 79.675781 28.726562 L 78.09375 27.835938 L 76.515625 26.945312 L 74.980469 26.011719 L 73.398438 25.082031 L 71.863281 24.152344 L 70.285156 23.261719 L 68.707031 22.332031 L 67.167969 21.398438 L 65.628906 20.507812 L 64.050781 19.617188 L 63.199219 19.132812 L 62.472656 19.539062 L 60.894531 20.386719 L 59.316406 21.195312 L 57.816406 22.085938 L 56.238281 22.9375 L 54.660156 23.746094 L 53.082031 24.636719 L 56.238281 26.417969 L 57.210938 27.027344 L 57.816406 26.703125 L 59.316406 25.890625 L 60.894531 25.042969 L 62.472656 24.234375 L 63.078125 23.910156 L 64.050781 24.476562 L 65.628906 25.367188 L 67.167969 26.257812 L 68.707031 27.1875 L 70.285156 28.117188 L 71.863281 29.007812 L 73.398438 29.941406 L 74.980469 30.871094 L 76.515625 31.761719 L 78.09375 32.652344 L 79.675781 33.621094 L 81.210938 34.511719 L 81.738281 34.796875 L 81.738281 53.253906 L 70.6875 53.253906 " />
  <path fill-rule="nonzero" fill="url(#linear-pattern-6)"
        d="M 70.609375 63.65625 L 85.90625 57.503906 L 70.609375 53.253906 " />
  <path fill-rule="nonzero" fill="url(#linear-pattern-7)"
        d="M 56.605469 63.65625 L 56.605469 53.414062 L 42.597656 57.582031 L 56.605469 63.613281 " />
</svg>
