<svg width="128" height="128" viewBox="0 0 128 128" fill="none" xmlns="http://www.w3.org/2000/svg">
  <circle cx="64" cy="64" r="64" fill="#171C1F" />
  <path d="M42.5592 57.6648H42.5997L43.2878 57.9076L43.9354 58.1505L44.6234 58.3528L45.271 58.6362L45.9591 58.879L46.6067 59.1219L47.2948 59.3647L47.9424 59.6076L48.59 59.8504L49.2376 60.0933L49.9256 60.3361L50.5732 60.6194L51.2613 60.8218L51.9089 61.0647L52.597 61.3075L53.2446 61.5908L53.9326 61.8337L54.5802 62.036L55.2278 62.2789L55.9159 62.5622L56.604 62.8051V61.7527V61.5908V60.7409V60.1337V59.6885V58.6362V57.6243V56.572V55.5601V54.4673V53.4554V53.334H55.7945H55.0254H54.9445H54.0945H53.4469H53.2041H52.3541H51.9089H51.4637H50.5732H50.3304H49.7233H48.8733H48.8328H48.7923H47.9828H47.2543H47.1329H46.2424H45.6758H44.1377H42.5997H42.5592H41.6688L41.0212 53.6578L39.4832 54.4673L37.9046 55.3172L36.3261 56.0863L34.8286 56.8958L33.25 57.7457L31.6715 58.5147L30.1335 59.3647L28.555 60.1742L27.0169 60.9432L25.4789 61.7932L24.0623 62.5217L23.9004 85.7138L25.4789 86.8066L27.0169 87.8994L28.555 88.9517L30.1335 90.085L31.6715 91.1778L33.25 92.2707L33.9381 92.7968L34.8286 91.6635L36.3261 89.6398L36.488 89.4374L36.3261 89.316L34.8286 88.2232L33.25 87.1304L31.6715 86.0376L30.1335 84.9447L28.555 83.8114L28.1502 83.5686L28.2717 64.7883L28.555 64.6264L30.1335 63.8574L31.6715 63.0884L33.25 62.3194L34.8286 61.5504L36.3261 60.7409L37.9046 59.9718L39.4832 59.2433L41.0212 58.4338L42.5592 57.6648Z"
        fill="url(#paint0_linear_185_146)" />
  <path d="M69.3532 101.904L68.058 102.43L66.6009 103.037L65.1438 103.604L63.6867 104.211L63.0391 104.454L62.2701 104.089L60.813 103.32L59.3559 102.632L57.9393 101.863L56.4822 101.135L55.0251 100.447L53.568 99.6776L52.1109 98.949L50.6538 98.2205L49.1967 97.492L47.7397 96.7229L46.3635 96.0349L44.9064 95.3063L44.7445 95.2254V76.2832H43.4493H41.9922H40.5352V97.8157L41.9922 98.5038L43.4493 99.2324L44.9064 100.001L46.3635 100.689L47.7397 101.458L49.1967 102.187L50.6538 102.916L52.1109 103.644L53.568 104.373L55.0251 105.101L56.4822 105.83L57.9393 106.599L59.3559 107.287L60.813 108.056L62.2701 108.744L62.8367 109.068L63.6867 108.663L65.1438 108.137L66.6009 107.53L68.058 106.923L69.4746 106.356L70.9317 105.789L69.4746 102.147L69.3532 101.904Z"
        fill="url(#paint1_linear_185_146)" />
  <path d="M95.2172 75.5949L95.2981 84.4994L94.9338 84.8232L92.4649 86.5231L89.9959 88.304L87.527 90.0849L85.058 91.8253L82.5891 93.5657L80.1606 95.3466L77.6916 97.087L76.2345 98.1393L75.2227 97.3703L72.7942 95.468L70.3252 93.6062L67.8563 91.7039L65.4278 89.842L64.9826 89.5182V79.9257L65.4278 79.521L67.8563 76.9306L70.3252 74.3807L72.7942 71.7903L75.2227 69.2404L77.6107 66.731H75.2227H72.7942H70.3252H67.8563H65.4278H62.9183H60.4494H58.0209H55.5519H53.083H50.6545H48.1855L50.6545 69.3213L53.083 71.8712L55.5519 74.4212L58.0209 77.0115L60.4494 79.5614L60.8137 79.9257V91.542L62.9183 93.2014L65.4278 95.1037L67.8563 96.9656L70.3252 98.8679L72.7942 100.73L75.2227 102.632L76.1131 103.32L77.6916 102.187L80.1606 100.487L82.5891 98.706L85.058 96.9251L87.527 95.2252L89.9959 93.4443L92.4649 91.6634L94.9338 89.9634L97.4028 88.1826L99.4265 86.685L99.8313 75.7568L97.4028 75.6759L95.2172 75.5949Z"
        fill="url(#paint2_linear_185_146)" />
  <path d="M27.9075 54.8721H28.1908L28.2313 42.9726L29.8098 41.9607L31.7931 40.7869L33.7358 39.6132L35.6786 38.3989L37.6214 37.2252L39.6047 36.0109L41.507 34.8371L43.4903 33.6634L45.433 32.4491L47.4163 31.2349H47.4568L49.3186 32.3277L51.3019 33.4205L53.2447 34.5538L55.1874 35.6466L57.1302 36.7395L59.073 37.8323L61.0158 38.9656L62.9181 40.0584L62.9991 39.8965L64.9419 36.3752L62.9991 35.2419L61.0158 34.1491L59.073 33.0563L57.1302 31.9634L55.1874 30.8301L53.2447 29.7373L51.3019 28.6445L49.3186 27.5112L47.4163 26.4184L47.3354 26.3779L45.433 27.5112L43.4903 28.7255L41.507 29.9397L39.6047 31.1539L37.6214 32.3277L35.6786 33.5015L33.7358 34.7157L31.7931 35.8895L29.8098 37.1037L27.9075 38.2775L25.9242 39.4513L24.0624 40.625L23.9814 54.8316H25.9242L27.9075 54.8721Z"
        fill="url(#paint3_linear_185_146)" />
  <path d="M104 43.9843L102.989 43.1748L101.977 42.3653L100.965 41.5154L99.953 40.7059L98.9411 39.8964L97.8887 39.0869L96.8769 38.2774L95.865 37.4679L94.8127 36.6179L94.0437 36.0513L93.7603 36.3751L92.7485 37.6298L91.7366 38.925L91.4533 39.2488L91.7366 39.5321L92.7485 40.3821L93.7603 41.232L94.8127 42.082L95.865 42.932L96.8769 43.8224L97.8887 44.6724L98.9411 45.5224L99.4268 45.9271L99.4673 65.0716L98.9411 65.4359L97.8887 66.0835L96.8769 66.7311L95.865 67.3787L94.8127 68.0263L93.7603 68.6739L92.7485 69.3215L91.7366 69.9691L90.7247 70.6167L89.7129 71.2643L88.701 71.9119L87.6486 72.5595L86.6368 73.2071L85.6249 73.8546L84.613 74.5022L83.5607 75.1498L82.5488 75.7974L83.5607 77.4164L84.613 79.0354L84.7749 79.3187L85.6249 78.7926L86.6368 78.1854L87.6486 77.5378L88.701 76.9307L89.7129 76.2427L90.7247 75.6355L91.7366 74.9879L92.7485 74.3808L93.7603 73.7332L94.8127 73.1261L95.865 72.438L96.8769 71.8309L97.8887 71.1833L98.9411 70.5762L99.953 69.9286L100.965 69.3215L101.977 68.6334L102.989 68.0263L104 67.3787V43.9843Z"
        fill="url(#paint4_linear_185_146)" />
  <path d="M70.6076 55.3982V56.4505V57.5028V58.5552V59.648V60.7408V61.7932V62.8455V63.655L70.9314 63.5336L72.3075 63.0074L73.6837 62.4408L75.0193 61.9146L76.3955 61.3479L77.7716 60.7813L79.1073 60.2551L80.4834 59.6885L81.8595 59.1623L83.1952 58.5957L84.5714 58.0695L85.907 57.5028V56.4505V56.0457V53.253V32.449L84.369 31.4776L82.7905 30.5872L81.212 29.6967L79.6739 28.7253L78.0954 27.8349L76.5169 26.9444L74.9788 26.0135L73.4003 25.0826L71.8623 24.1517L70.2838 23.2612L68.7053 22.3303L67.1672 21.3994L65.6292 20.509L64.0507 19.6185L63.2007 19.1328L62.4722 19.5376L60.8937 20.3875L59.3151 21.197L57.8176 22.0875L56.2391 22.9374L54.6605 23.7469L53.082 24.6374L54.6605 25.5278L56.2391 26.4183L57.2105 27.0254L57.8176 26.7016L59.3151 25.8921L60.8937 25.0421L62.4722 24.2326L63.0793 23.9088L64.0507 24.4755L65.6292 25.3659L67.1672 26.2564L68.7053 27.1873L70.2838 28.1182L71.8623 29.0086L73.4003 29.9396L74.9788 30.8705L76.5169 31.7609L78.0954 32.6514L79.6739 33.6228L81.212 34.5132L81.7381 34.7965V53.253H81.3739H81.212H80.4834H79.6739H79.593H78.6621H78.0954H77.7716H76.8812H76.5169H75.9907H75.1003H74.9788H74.2098H73.4003H73.3194H72.3885H71.8623H71.498H70.81H70.6885"
        fill="url(#paint5_linear_185_146)" />
  <path d="M70.6084 63.6549L85.9078 57.5028L70.6084 53.2529" fill="url(#paint6_linear_185_146)" />
  <path d="M56.6039 63.6551V53.415L42.5996 57.5839L56.6039 63.6147" fill="url(#paint7_linear_185_146)" />
  <defs>
    <linearGradient id="paint0_linear_185_146" x1="40.2421" y1="53.3461" x2="40.2421" y2="92.7806"
                    gradientUnits="userSpaceOnUse">
      <stop stop-color="#F6E93D" />
      <stop offset="0.13" stop-color="#F8E330" />
      <stop offset="0.35" stop-color="#F7C730" />
      <stop offset="0.64" stop-color="#F59C2E" />
      <stop offset="0.98" stop-color="#EB5E2C" />
      <stop offset="1" stop-color="#EB5C2C" />
    </linearGradient>
    <linearGradient id="paint1_linear_185_146" x1="55.7395" y1="76.2994" x2="55.7395" y2="109.064"
                    gradientUnits="userSpaceOnUse">
      <stop stop-color="#F6E93D" />
      <stop offset="0.13" stop-color="#F8E330" />
      <stop offset="0.35" stop-color="#F7C730" />
      <stop offset="0.64" stop-color="#F59C2E" />
      <stop offset="0.98" stop-color="#EB5E2C" />
      <stop offset="1" stop-color="#EB5C2C" />
    </linearGradient>
    <linearGradient id="paint2_linear_185_146" x1="74.0064" y1="66.7269" x2="74.0064" y2="103.332"
                    gradientUnits="userSpaceOnUse">
      <stop stop-color="#F6E93D" />
      <stop offset="0.13" stop-color="#F8E330" />
      <stop offset="0.35" stop-color="#F7C730" />
      <stop offset="0.64" stop-color="#F59C2E" />
      <stop offset="0.98" stop-color="#EB5E2C" />
      <stop offset="1" stop-color="#EB5C2C" />
    </linearGradient>
    <linearGradient id="paint3_linear_185_146" x1="44.4596" y1="26.3901" x2="44.4596" y2="54.8762"
                    gradientUnits="userSpaceOnUse">
      <stop stop-color="#F6E93D" />
      <stop offset="0.13" stop-color="#F8E330" />
      <stop offset="0.35" stop-color="#F7C730" />
      <stop offset="0.64" stop-color="#F59C2E" />
      <stop offset="0.98" stop-color="#EB5E2C" />
      <stop offset="1" stop-color="#EB5C2C" />
    </linearGradient>
    <linearGradient id="paint4_linear_185_146" x1="93.2908" y1="36.0432" x2="93.2908" y2="79.3228"
                    gradientUnits="userSpaceOnUse">
      <stop stop-color="#F6E93D" />
      <stop offset="0.13" stop-color="#F8E330" />
      <stop offset="0.35" stop-color="#F7C730" />
      <stop offset="0.64" stop-color="#F59C2E" />
      <stop offset="0.98" stop-color="#EB5E2C" />
      <stop offset="1" stop-color="#EB5C2C" />
    </linearGradient>
    <linearGradient id="paint5_linear_185_146" x1="69.4905" y1="19.1328" x2="69.4905" y2="63.6671"
                    gradientUnits="userSpaceOnUse">
      <stop stop-color="#F6E93D" />
      <stop offset="0.13" stop-color="#F8E330" />
      <stop offset="0.35" stop-color="#F7C730" />
      <stop offset="0.64" stop-color="#F59C2E" />
      <stop offset="0.98" stop-color="#EB5E2C" />
      <stop offset="1" stop-color="#EB5C2C" />
    </linearGradient>
    <linearGradient id="paint6_linear_185_146" x1="78.2419" y1="53.2813" x2="78.2419" y2="63.6792"
                    gradientUnits="userSpaceOnUse">
      <stop stop-color="#F6E93D" />
      <stop offset="0.13" stop-color="#F8E330" />
      <stop offset="0.35" stop-color="#F7C730" />
      <stop offset="0.64" stop-color="#F59C2E" />
      <stop offset="0.98" stop-color="#EB5E2C" />
      <stop offset="1" stop-color="#EB5C2C" />
    </linearGradient>
    <linearGradient id="paint7_linear_185_146" x1="49.4329" y1="61.0839" x2="52.7356" y2="52.0095"
                    gradientUnits="userSpaceOnUse">
      <stop stop-color="#F6E93D" />
      <stop offset="0.13" stop-color="#F8E330" />
      <stop offset="0.35" stop-color="#F7C730" />
      <stop offset="0.64" stop-color="#F59C2E" />
      <stop offset="0.98" stop-color="#EB5E2C" />
      <stop offset="1" stop-color="#EB5C2C" />
    </linearGradient>
  </defs>
</svg>
