<?xml version="1.0" encoding="UTF-8"?>
<svg xmlns="http://www.w3.org/2000/svg" width="128" height="128"
     viewBox="0 0 128 128">
  <defs>
    <clipPath id="clip-0">
      <path clip-rule="nonzero" d="M 23 80 L 105 80 L 105 96 L 23 96 Z M 23 80 " />
    </clipPath>
    <linearGradient id="linear-pattern-0" gradientUnits="userSpaceOnUse" x1="97.4083" y1="24.3091" x2="52.4131"
                    y2="110.854">
      <stop offset="0" stop-color="rgb(0%, 100%, 63.921569%)" stop-opacity="1" />
      <stop offset="1" stop-color="rgb(86.27451%, 12.156863%, 100%)" stop-opacity="1" />
    </linearGradient>
    <clipPath id="clip-1">
      <path clip-rule="nonzero" d="M 23 32 L 105 32 L 105 48 L 23 48 Z M 23 32 " />
    </clipPath>
    <linearGradient id="linear-pattern-1" gradientUnits="userSpaceOnUse" x1="77.6042" y1="14.0132" x2="32.609"
                    y2="100.558">
      <stop offset="0" stop-color="rgb(0%, 100%, 63.921569%)" stop-opacity="1" />
      <stop offset="1" stop-color="rgb(86.27451%, 12.156863%, 100%)" stop-opacity="1" />
    </linearGradient>
    <clipPath id="clip-2">
      <path clip-rule="nonzero" d="M 23 55 L 105 55 L 105 72 L 23 72 Z M 23 55 " />
    </clipPath>
    <linearGradient id="linear-pattern-2" gradientUnits="userSpaceOnUse" x1="87.4432" y1="19.1281" x2="42.448"
                    y2="105.673">
      <stop offset="0" stop-color="rgb(0%, 100%, 63.921569%)" stop-opacity="1" />
      <stop offset="1" stop-color="rgb(86.27451%, 12.156863%, 100%)" stop-opacity="1" />
    </linearGradient>
  </defs>
  <path fill-rule="nonzero" fill="rgb(0%, 0%, 0%)" fill-opacity="1"
        d="M 128 64 C 128 99.347656 99.347656 128 64 128 C 28.652344 128 0 99.347656 0 64 C 0 28.652344 28.652344 0 64 0 C 99.347656 0 128 28.652344 128 64 " />
  <g clip-path="url(#clip-0)">
    <path fill-rule="nonzero" fill="url(#linear-pattern-0)"
          d="M 36.320312 80.847656 C 36.816406 80.355469 37.496094 80.066406 38.214844 80.066406 L 103.660156 80.066406 C 104.855469 80.066406 105.453125 81.503906 104.609375 82.34375 L 91.679688 95.21875 C 91.1875 95.710938 90.503906 96 89.785156 96 L 24.339844 96 C 23.144531 96 22.546875 94.5625 23.390625 93.71875 Z M 36.320312 80.847656 " />
  </g>
  <g clip-path="url(#clip-1)">
    <path fill-rule="nonzero" fill="url(#linear-pattern-1)"
          d="M 36.320312 32.78125 C 36.835938 32.289062 37.515625 32 38.214844 32 L 103.660156 32 C 104.855469 32 105.453125 33.4375 104.609375 34.277344 L 91.679688 47.152344 C 91.1875 47.644531 90.503906 47.933594 89.785156 47.933594 L 24.339844 47.933594 C 23.144531 47.933594 22.546875 46.496094 23.390625 45.652344 Z M 36.320312 32.78125 " />
  </g>
  <g clip-path="url(#clip-2)">
    <path fill-rule="nonzero" fill="url(#linear-pattern-2)"
          d="M 91.679688 56.660156 C 91.1875 56.167969 90.503906 55.878906 89.785156 55.878906 L 24.339844 55.878906 C 23.144531 55.878906 22.546875 57.316406 23.390625 58.15625 L 36.320312 71.03125 C 36.816406 71.523438 37.496094 71.8125 38.214844 71.8125 L 103.660156 71.8125 C 104.855469 71.8125 105.453125 70.375 104.609375 69.53125 Z M 91.679688 56.660156 " />
  </g>
</svg>
