<?xml version="1.0" encoding="UTF-8"?>
<svg xmlns="http://www.w3.org/2000/svg" width="128" height="128"
     viewBox="0 0 128 128">
  <path fill-rule="nonzero" fill="rgb(0%, 0%, 0%)" fill-opacity="1"
        d="M 104.652344 128 C 100.945312 128 97.398438 126.925781 94.375 124.886719 C 91.378906 122.867188 89.089844 120.066406 87.699219 116.847656 L 80.449219 124.101562 L 65.644531 109.296875 L 50.839844 124.101562 L 43.589844 116.847656 C 42.671875 118.96875 41.363281 120.917969 39.703125 122.582031 C 36.207031 126.074219 31.574219 128 26.625 128 C 20.59375 128 14.910156 125.027344 11.429688 120.054688 C 7.097656 113.863281 7.019531 105.5 11.246094 99.230469 C 13.261719 96.234375 16.074219 93.941406 19.28125 92.554688 L 12.03125 85.304688 L 29.847656 67.5 L 8 49.214844 L 11.429688 16.285156 L 44.363281 12.867188 L 65.644531 38.300781 L 86.929688 12.867188 L 119.859375 16.285156 L 123.277344 49.214844 L 101.429688 67.5 L 119.234375 85.304688 L 111.980469 92.554688 C 114.113281 93.472656 116.050781 94.78125 117.714844 96.441406 C 121.589844 100.316406 123.539062 105.671875 123.054688 111.128906 C 122.570312 116.585938 119.703125 121.535156 115.1875 124.703125 C 112.097656 126.863281 108.460938 128 104.636719 128 Z M 104.652344 128 " />
  <path fill-rule="nonzero" fill="rgb(0%, 0%, 0%)" fill-opacity="1"
        d="M 104.652344 115.132812 C 100.945312 115.132812 97.398438 114.058594 94.375 112.019531 C 91.378906 110.003906 89.089844 107.199219 87.699219 103.980469 L 80.449219 111.234375 L 65.644531 96.429688 L 50.839844 111.234375 L 43.589844 103.980469 C 42.671875 106.101562 41.363281 108.050781 39.703125 109.714844 C 36.207031 113.210938 31.574219 115.132812 26.625 115.132812 C 20.59375 115.132812 14.910156 112.160156 11.429688 107.1875 C 7.097656 100.996094 7.019531 92.632812 11.246094 86.363281 C 13.261719 83.367188 16.074219 81.074219 19.28125 79.6875 L 12.03125 72.4375 L 29.847656 54.632812 L 8 36.347656 L 11.429688 3.417969 L 44.363281 0 L 65.644531 25.433594 L 86.929688 0 L 119.859375 3.417969 L 123.277344 36.347656 L 101.429688 54.632812 L 119.234375 72.4375 L 111.980469 79.6875 C 114.113281 80.605469 116.050781 81.914062 117.714844 83.574219 C 121.589844 87.449219 123.539062 92.804688 123.054688 98.261719 C 122.570312 103.71875 119.703125 108.667969 115.1875 111.835938 C 112.097656 113.992188 108.460938 115.132812 104.636719 115.132812 Z M 104.652344 115.132812 " />
  <path fill-rule="nonzero" fill="rgb(73.72549%, 73.72549%, 73.72549%)" fill-opacity="1"
        d="M 22.058594 12.957031 L 20.09375 31.898438 L 80.410156 82.371094 L 84.726562 83.746094 L 98.578125 97.59375 L 106.703125 89.480469 L 92.855469 75.628906 L 91.484375 71.296875 L 41.011719 10.980469 Z M 22.058594 12.957031 " />
  <path fill-rule="nonzero" fill="rgb(87.843137%, 87.843137%, 87.843137%)" fill-opacity="1"
        d="M 22.058594 12.957031 L 20.09375 31.898438 L 80.410156 82.371094 L 84.726562 83.746094 L 98.578125 97.59375 L 102.636719 93.535156 Z M 22.058594 12.957031 " />
  <path fill-rule="nonzero" fill="rgb(100%, 42.745098%, 0%)" fill-opacity="1"
        d="M 105.53125 72.4375 L 99.117188 66.023438 L 75.125 90.015625 L 81.539062 96.429688 L 88.203125 89.765625 C 88.90625 89.058594 90.046875 89.058594 90.753906 89.765625 L 97.742188 96.757812 C 97.78125 99.257812 98.960938 101.742188 101.328125 103.339844 C 104 105.144531 107.664062 105.105469 110.308594 103.261719 C 114.535156 100.304688 114.902344 94.4375 111.433594 90.96875 C 109.96875 89.503906 108.070312 88.757812 106.160156 88.652344 L 99.011719 81.507812 C 98.304688 80.800781 98.304688 79.660156 99.011719 78.953125 L 105.542969 72.421875 Z M 107.875 98.785156 C 106.695312 99.964844 104.785156 99.964844 103.605469 98.785156 C 102.429688 97.605469 102.429688 95.695312 103.605469 94.503906 C 104.785156 93.3125 106.695312 93.328125 107.886719 94.503906 C 109.066406 95.683594 109.066406 97.59375 107.886719 98.773438 Z M 107.875 98.785156 " />
  <path fill-rule="nonzero" fill="rgb(0%, 0%, 0%)" fill-opacity="1"
        d="M 17.34375 89.476562 L 34.765625 72.058594 L 36.046875 68.023438 L 89.648438 3.980469 L 117.515625 6.871094 L 120.421875 34.738281 L 56.363281 88.339844 L 52.332031 89.621094 L 34.921875 107.042969 Z M 17.34375 89.476562 " />
  <path fill-rule="nonzero" fill="rgb(73.72549%, 73.72549%, 73.72549%)" fill-opacity="1"
        d="M 111.429688 12.957031 L 92.476562 10.980469 L 42.003906 71.296875 L 40.628906 75.628906 L 26.78125 89.480469 L 34.910156 97.59375 L 48.757812 83.746094 L 53.078125 82.371094 L 113.394531 31.898438 Z M 111.429688 12.957031 " />
  <path fill-rule="nonzero" fill="rgb(87.843137%, 87.843137%, 87.843137%)" fill-opacity="1"
        d="M 111.429688 12.957031 L 92.476562 10.980469 L 42.003906 71.296875 L 40.628906 75.628906 L 26.78125 89.480469 L 30.839844 93.535156 Z M 111.429688 12.957031 " />
  <path fill-rule="nonzero" fill="rgb(100%, 42.745098%, 0%)" fill-opacity="1"
        d="M 51.953125 96.429688 L 58.367188 90.015625 L 34.375 66.023438 L 27.960938 72.4375 L 34.621094 79.097656 C 35.328125 79.804688 35.328125 80.945312 34.621094 81.652344 L 27.632812 88.640625 C 25.132812 88.679688 22.644531 89.859375 21.050781 92.226562 C 19.242188 94.898438 19.28125 98.5625 21.128906 101.207031 C 24.085938 105.433594 29.949219 105.800781 33.417969 102.332031 C 34.882812 100.867188 35.628906 98.96875 35.734375 97.058594 L 42.882812 89.910156 C 43.589844 89.203125 44.726562 89.203125 45.433594 89.910156 L 51.964844 96.441406 Z M 25.605469 98.785156 C 24.425781 97.605469 24.425781 95.695312 25.605469 94.519531 C 26.78125 93.339844 28.695312 93.339844 29.882812 94.519531 C 31.074219 95.695312 31.0625 97.605469 29.882812 98.796875 C 28.707031 99.976562 26.796875 99.976562 25.617188 98.796875 Z M 25.605469 98.785156 " />
  <path fill="none" stroke-width="3.33776" stroke-linecap="round" stroke-linejoin="miter" stroke="rgb(100%, 100%, 100%)"
        stroke-opacity="1" stroke-miterlimit="10" d="M 30.03125 27.996094 L 43.265625 27.996094 " />
  <path fill="none" stroke-width="3.33776" stroke-linecap="round" stroke-linejoin="miter" stroke="rgb(100%, 100%, 100%)"
        stroke-opacity="1" stroke-miterlimit="10" d="M 36.625 15.980469 L 36.625 40.027344 " />
  <path fill="none" stroke-width="3.33776" stroke-linecap="round" stroke-linejoin="miter" stroke="rgb(100%, 100%, 100%)"
        stroke-opacity="1" stroke-miterlimit="10" d="M 89.5 27.996094 L 102.734375 27.996094 " />
  <path fill="none" stroke-width="3.33776" stroke-linecap="round" stroke-linejoin="miter" stroke="rgb(100%, 100%, 100%)"
        stroke-opacity="1" stroke-miterlimit="10" d="M 96.125 15.980469 L 96.125 40.027344 " />
</svg>
