<?xml version="1.0" encoding="UTF-8"?>
<svg xmlns="http://www.w3.org/2000/svg" width="128" height="128"
     viewBox="0 0 128 128">
  <path fill-rule="nonzero" fill="rgb(10.588235%, 35.294118%, 99.607843%)" fill-opacity="1"
        d="M 64 128 C 99.347656 128 128 99.347656 128 64 C 128 28.652344 99.347656 0 64 0 C 28.652344 0 0 28.652344 0 64 C 0 99.347656 28.652344 128 64 128 Z M 64 128 " />
  <path fill-rule="evenodd" fill="rgb(100%, 100%, 100%)" fill-opacity="1"
        d="M 31.492188 33.074219 L 31.492188 54.882812 C 43.535156 54.882812 53.300781 45.117188 53.300781 33.082031 Z M 31.492188 33.074219 " />
  <path fill-rule="evenodd" fill="rgb(100%, 100%, 100%)" fill-opacity="1"
        d="M 53.296875 98.570312 L 53.296875 54.671875 C 53.296875 54.488281 53.296875 54.300781 53.304688 54.117188 C 53.308594 53.933594 53.3125 53.75 53.324219 53.566406 C 53.335938 53.382812 53.34375 53.195312 53.359375 53.015625 C 53.375 52.832031 53.390625 52.652344 53.410156 52.476562 C 53.433594 52.296875 53.453125 52.109375 53.472656 51.933594 C 53.492188 51.753906 53.519531 51.574219 53.550781 51.394531 C 53.574219 51.214844 53.605469 51.035156 53.636719 50.863281 C 53.667969 50.683594 53.703125 50.507812 53.738281 50.335938 C 53.773438 50.160156 53.8125 49.984375 53.851562 49.8125 C 53.894531 49.636719 53.933594 49.464844 53.980469 49.296875 C 54.027344 49.125 54.070312 48.953125 54.117188 48.78125 C 54.164062 48.613281 54.214844 48.445312 54.273438 48.277344 C 54.324219 48.105469 54.378906 47.9375 54.433594 47.773438 C 54.492188 47.605469 54.546875 47.441406 54.609375 47.277344 C 54.671875 47.113281 54.730469 46.949219 54.800781 46.785156 C 54.867188 46.621094 54.933594 46.464844 55 46.300781 C 55.066406 46.136719 55.136719 45.976562 55.207031 45.820312 C 55.28125 45.660156 55.355469 45.5 55.429688 45.34375 C 55.503906 45.183594 55.582031 45.03125 55.664062 44.871094 C 55.746094 44.71875 55.828125 44.5625 55.910156 44.410156 C 55.992188 44.257812 56.078125 44.101562 56.164062 43.953125 C 56.253906 43.804688 56.339844 43.652344 56.433594 43.503906 C 56.523438 43.355469 56.617188 43.207031 56.707031 43.0625 C 56.800781 42.921875 56.898438 42.773438 56.996094 42.628906 C 57.09375 42.484375 57.191406 42.34375 57.292969 42.203125 C 57.394531 42.0625 57.496094 41.921875 57.597656 41.785156 C 57.703125 41.644531 57.808594 41.507812 57.917969 41.375 C 58.023438 41.234375 58.132812 41.101562 58.246094 40.96875 C 58.355469 40.835938 58.464844 40.703125 58.582031 40.574219 C 58.695312 40.449219 58.8125 40.316406 58.925781 40.1875 C 59.042969 40.058594 59.160156 39.929688 59.277344 39.808594 C 59.398438 39.683594 59.519531 39.558594 59.640625 39.4375 C 59.765625 39.316406 59.886719 39.195312 60.011719 39.074219 C 60.132812 38.957031 60.261719 38.839844 60.390625 38.722656 C 60.519531 38.605469 60.644531 38.492188 60.777344 38.378906 C 60.914062 38.265625 61.039062 38.152344 61.171875 38.046875 C 61.304688 37.933594 61.441406 37.828125 61.578125 37.71875 C 61.714844 37.609375 61.847656 37.503906 61.992188 37.402344 C 62.128906 37.300781 62.269531 37.195312 62.414062 37.09375 C 62.554688 36.992188 62.695312 36.894531 62.835938 36.796875 C 62.980469 36.699219 63.125 36.601562 63.273438 36.511719 C 63.414062 36.417969 63.5625 36.328125 63.714844 36.234375 C 63.863281 36.140625 64.011719 36.054688 64.164062 35.96875 C 64.3125 35.878906 64.464844 35.792969 64.617188 35.710938 C 64.773438 35.628906 64.925781 35.546875 65.078125 35.464844 C 65.234375 35.382812 65.390625 35.308594 65.550781 35.230469 C 65.710938 35.152344 65.867188 35.082031 66.027344 35.011719 C 66.1875 34.9375 66.34375 34.867188 66.507812 34.800781 C 66.671875 34.734375 66.832031 34.667969 66.996094 34.601562 C 67.160156 34.535156 67.324219 34.472656 67.484375 34.410156 C 67.648438 34.351562 67.820312 34.292969 67.984375 34.238281 C 68.148438 34.179688 68.316406 34.125 68.484375 34.074219 C 68.652344 34.023438 68.824219 33.972656 68.992188 33.917969 C 69.160156 33.867188 69.335938 33.824219 69.503906 33.78125 C 69.675781 33.734375 69.847656 33.695312 70.019531 33.652344 C 70.195312 33.613281 70.367188 33.578125 70.542969 33.539062 C 70.71875 33.503906 70.894531 33.46875 71.070312 33.4375 C 71.246094 33.40625 71.421875 33.378906 71.601562 33.351562 C 71.78125 33.324219 71.960938 33.300781 72.140625 33.273438 C 72.320312 33.25 72.5 33.230469 72.683594 33.214844 C 72.863281 33.191406 73.046875 33.175781 73.226562 33.160156 C 73.410156 33.148438 73.589844 33.136719 73.773438 33.125 C 73.957031 33.117188 74.140625 33.109375 74.328125 33.105469 C 74.511719 33.101562 74.695312 33.101562 74.878906 33.101562 L 96.492188 33.101562 L 96.492188 54.695312 L 74.878906 54.695312 L 74.878906 98.59375 Z M 53.296875 98.570312 " />
</svg>
