<svg width="128" height="128" viewBox="0 0 128 128" fill="none" xmlns="http://www.w3.org/2000/svg">
  <path d="M64 128C99.3462 128 128 99.3462 128 64C128 28.6538 99.3462 0 64 0C28.6538 0 0 28.6538 0 64C0 99.3462 28.6538 128 64 128Z"
        fill="#1B5AFE" />
  <path fill-rule="evenodd" clip-rule="evenodd"
        d="M31.4932 33.0752V54.8813C43.5354 54.8813 53.2992 45.1174 53.2992 33.0803L31.4932 33.0752Z" fill="white" />
  <path fill-rule="evenodd" clip-rule="evenodd"
        d="M53.2988 98.57V54.6712C53.2988 54.4868 53.2988 54.3025 53.3039 54.1182C53.3091 53.9339 53.3142 53.7495 53.3244 53.5652C53.3347 53.3809 53.3449 53.1966 53.3603 53.0174C53.3756 52.8331 53.391 52.6539 53.4115 52.4747C53.4319 52.2955 53.4524 52.1111 53.4729 51.9319C53.4934 51.7527 53.519 51.5735 53.5497 51.3943C53.5753 51.2151 53.606 51.0359 53.6367 50.8619C53.6675 50.6827 53.7033 50.5086 53.7391 50.3345C53.775 50.1604 53.8108 49.9863 53.8518 49.8123C53.8928 49.6382 53.9337 49.4641 53.9798 49.2951C54.0259 49.1262 54.0719 48.9521 54.118 48.7831C54.1641 48.6142 54.2153 48.4452 54.2716 48.2763C54.3228 48.1073 54.3791 47.9383 54.4355 47.7745C54.4918 47.6055 54.5481 47.4417 54.6095 47.2779C54.671 47.114 54.7324 46.9502 54.799 46.7863C54.8656 46.6225 54.9321 46.4638 54.9987 46.2999C55.0652 46.1361 55.1369 45.9774 55.2086 45.8187C55.2803 45.6599 55.3571 45.5012 55.4287 45.3425C55.5055 45.1838 55.5823 45.0302 55.6643 44.8715C55.7462 44.7179 55.8281 44.5643 55.91 44.4107C55.9919 44.2571 56.079 44.1035 56.166 43.955C56.2531 43.8065 56.3401 43.6529 56.4323 43.5044C56.5244 43.3559 56.6166 43.2075 56.7087 43.0641C56.8009 42.9207 56.8982 42.7723 56.9955 42.6289C57.0927 42.4855 57.19 42.3422 57.2924 42.2039C57.3948 42.0606 57.4972 41.9223 57.5996 41.7841C57.702 41.6459 57.8095 41.5076 57.9171 41.3745C58.0246 41.2363 58.1321 41.1031 58.2447 40.97C58.3574 40.8369 58.4649 40.7038 58.5827 40.5758C58.6953 40.4478 58.8131 40.3147 58.9257 40.1867C59.0435 40.0587 59.1612 39.9307 59.279 39.8078C59.3968 39.6849 59.5196 39.5569 59.6425 39.4391C59.7654 39.3163 59.8883 39.1934 60.0111 39.0756C60.134 38.9579 60.262 38.8401 60.39 38.7223C60.518 38.6046 60.646 38.4919 60.7791 38.3793C60.9123 38.2667 61.0403 38.154 61.1734 38.0465C61.3065 37.9339 61.4396 37.8263 61.5779 37.7188C61.7161 37.6113 61.8492 37.5038 61.9926 37.4014C62.1308 37.299 62.2691 37.1966 62.4124 37.0942C62.5558 36.9918 62.694 36.8945 62.8374 36.7972C62.9808 36.6999 63.1241 36.6027 63.2726 36.5105C63.416 36.4183 63.5644 36.3262 63.7129 36.234C63.8614 36.1419 64.0099 36.0548 64.1635 35.9678C64.3119 35.8807 64.4655 35.7937 64.6191 35.7118C64.7727 35.6299 64.9263 35.5479 65.0799 35.466C65.2335 35.3841 65.3923 35.3073 65.551 35.2305C65.7097 35.1537 65.8684 35.082 66.0271 35.0103C66.1859 34.9387 66.3446 34.867 66.5084 34.8004C66.6723 34.7339 66.831 34.6673 66.9948 34.6007C67.1587 34.5342 67.3225 34.4727 67.4863 34.4113C67.6502 34.3499 67.8191 34.2935 67.983 34.2372C68.1468 34.1809 68.3158 34.1246 68.4847 34.0734C68.6537 34.0222 68.8227 33.971 68.9916 33.9198C69.1606 33.8686 69.3347 33.8225 69.5036 33.7815C69.6777 33.7355 69.8467 33.6945 70.0207 33.6535C70.1948 33.6126 70.3689 33.5767 70.543 33.5409C70.7171 33.5051 70.8963 33.4692 71.0703 33.4385C71.2444 33.4078 71.4236 33.3771 71.6028 33.3515C71.782 33.3259 71.9612 33.3003 72.1404 33.2747C72.3196 33.2491 72.4988 33.2286 72.6831 33.2132C72.8623 33.1927 73.0467 33.1774 73.2259 33.162C73.4102 33.1467 73.5894 33.1364 73.7737 33.1262C73.958 33.1159 74.1423 33.1108 74.3267 33.1057C74.511 33.1006 74.6953 33.1006 74.8796 33.1006H96.4911V54.6967H74.8796V98.5956L53.2988 98.57Z"
        fill="white" />
</svg>
