<svg width="128" height="128" viewBox="0 0 128 128" fill="none" xmlns="http://www.w3.org/2000/svg">
  <circle cx="64" cy="64" r="64" fill="#8247E5" />
  <g clip-path="url(#clip0_26_638)">
    <path d="M83.7387 50.5592C82.329 49.7791 80.5165 49.7791 78.9054 50.5592L67.6276 56.9951L59.9748 61.0906L48.8984 67.5264C47.4887 68.3065 45.6762 68.3065 44.0651 67.5264L35.4054 62.4558C33.9957 61.6757 32.9887 60.1155 32.9887 58.3602V48.609C32.9887 47.0488 33.7943 45.4886 35.4054 44.5135L44.0651 39.6378C45.4748 38.8577 47.2873 38.8577 48.8984 39.6378L57.5582 44.7085C58.9679 45.4886 59.9748 47.0488 59.9748 48.804V55.2398L67.6276 50.9493V44.3184C67.6276 42.7582 66.822 41.198 65.2109 40.2229L49.0998 31.0568C47.6901 30.2767 45.8776 30.2767 44.2665 31.0568L27.7526 40.4179C26.1415 41.198 25.3359 42.7582 25.3359 44.3184V62.6508C25.3359 64.211 26.1415 65.7712 27.7526 66.7463L44.0651 75.9125C45.4748 76.6926 47.2873 76.6926 48.8984 75.9125L59.9748 69.6717L67.6276 65.3811L78.704 59.1403C80.1137 58.3602 81.9262 58.3602 83.5373 59.1403L92.1971 64.016C93.6068 64.7961 94.6137 66.3563 94.6137 68.1115V77.8627C94.6137 79.4229 93.8082 80.9831 92.1971 81.9582L83.7387 86.8339C82.329 87.614 80.5165 87.614 78.9054 86.8339L70.2457 81.9582C68.8359 81.1782 67.829 79.618 67.829 77.8627V71.6219L60.1762 75.9125V82.3483C60.1762 83.9085 60.9818 85.4687 62.5929 86.4438L78.9054 95.61C80.3151 96.3901 82.1276 96.3901 83.7387 95.61L100.051 86.4438C101.461 85.6637 102.468 84.1035 102.468 82.3483V63.8209C102.468 62.2607 101.662 60.7005 100.051 59.7254L83.7387 50.5592Z"
          fill="white" />
  </g>
  <defs>
    <clipPath id="clip0_26_638">
      <rect width="77.3333" height="65.3333" fill="white" transform="translate(25.3359 30.6665)" />
    </clipPath>
  </defs>
</svg>
