<svg width="128" height="128" viewBox="0 0 128 128" fill="none" xmlns="http://www.w3.org/2000/svg">
  <mask id="mask0_515_17" style="mask-type:luminance" maskUnits="userSpaceOnUse" x="0" y="0" width="128" height="128">
    <path d="M63.9998 128C99.3464 128 128 99.3461 128 64C128 28.6537 99.3464 0 63.9998 0C28.6537 0 0 28.6537 0 64C0 99.3461 28.6537 128 63.9998 128Z"
          fill="white" />
  </mask>
  <g mask="url(#mask0_515_17)">
    <path d="M134.06 -6.05981H-6.06055V134.06H134.06V-6.05981Z" fill="url(#paint0_linear_515_17)" />
  </g>
  <path d="M82.5115 77.8108L100.619 67.3554C101.578 66.8017 102.171 65.7717 102.171 64.6641V43.7556C102.171 42.6502 101.575 41.618 100.619 41.064L82.5115 30.6086C81.5525 30.0546 80.3638 30.0572 79.4048 30.6086L61.2976 41.064C60.3386 41.618 59.7455 42.6502 59.7455 43.7556V81.1217L47.048 88.452L34.3504 81.1217V66.4592L47.048 59.1289L55.4235 63.9634V54.1276L48.6002 50.1893C48.1298 49.9176 47.5915 49.7739 47.0453 49.7739C46.4992 49.7739 45.9609 49.9176 45.4931 50.1893L27.3862 60.6448C26.4272 61.1986 25.834 62.2285 25.834 63.3366V84.2448C25.834 85.3498 26.4298 86.3823 27.3862 86.9361L45.4931 97.3915C46.4496 97.9432 47.6412 97.9432 48.6002 97.3915L66.7073 86.9386C67.6663 86.3849 68.2594 85.3529 68.2594 84.2473V46.881L68.4895 46.7504L80.9569 39.551L93.6544 46.881V61.5436L80.9569 68.8738L72.5946 64.0445V73.8808L79.4048 77.8133C80.3638 78.3651 81.5525 78.3651 82.5115 77.8133V77.8108Z"
        fill="white" />
  <defs>
    <linearGradient id="paint0_linear_515_17" x1="-31.6673" y1="5.45656" x2="112.984" y2="93.9765"
                    gradientUnits="userSpaceOnUse">
      <stop stop-color="#A229C5" />
      <stop offset="1" stop-color="#7B3FE4" />
    </linearGradient>
  </defs>
</svg>
