<?xml version="1.0" encoding="UTF-8"?>
<svg xmlns="http://www.w3.org/2000/svg" xmlns:xlink="http://www.w3.org/1999/xlink" width="128" height="128" viewBox="0 0 128 128">
<path fill-rule="nonzero" fill="rgb(1.960784%, 80%, 35.294118%)" fill-opacity="1" d="M 128 64.371094 C 128 28.820312 99.34375 0 63.996094 0 C 28.652344 0 0 28.820312 0 64.371094 C 0 96.578125 23.515625 123.261719 54.21875 127.996094 L 55.699219 121.5 L 55.824219 120.953125 L 55.960938 120.347656 L 56.105469 119.71875 L 56.253906 119.0625 L 56.714844 117.023438 L 59.691406 103.964844 C 50.941406 102.003906 44.402344 94.214844 44.402344 84.886719 C 44.402344 74.082031 53.175781 65.320312 63.996094 65.320312 C 74.820312 65.320312 83.59375 74.082031 83.59375 84.886719 C 83.59375 94.214844 77.050781 102.003906 68.304688 103.964844 L 71.277344 117.023438 L 71.738281 119.0625 L 71.886719 119.71875 L 72.027344 120.347656 L 72.167969 120.953125 L 72.289062 121.5 L 73.773438 127.996094 C 104.476562 123.257812 127.988281 96.578125 127.988281 64.371094 Z M 93.183594 109.429688 C 99.496094 102.460938 103.355469 93.234375 103.355469 83.097656 C 103.355469 61.398438 85.734375 43.8125 64.003906 43.8125 C 42.269531 43.8125 24.652344 61.402344 24.652344 83.097656 C 24.652344 92.941406 28.28125 101.921875 34.269531 108.816406 C 23.296875 100.675781 16.253906 89.082031 16.253906 73.984375 C 16.253906 47.648438 37.632812 26.304688 64.007812 26.304688 C 90.382812 26.304688 111.761719 47.648438 111.761719 73.984375 C 111.761719 89.335938 104.476562 101.222656 93.1875 109.429688 Z M 93.183594 109.429688 "/>
</svg>
