<svg width="128" height="128" viewBox="0 0 128 128" fill="none" xmlns="http://www.w3.org/2000/svg">
  <circle cx="64" cy="64" r="64" fill="#AAAAAA" />
  <g clip-path="url(#clip0_190_69)">
    <path d="M83.7368 50.5592C82.327 49.7791 80.5145 49.7791 78.9034 50.5592L67.6256 56.995L59.9729 61.0905L48.8965 67.5263C47.4868 68.3064 45.6743 68.3064 44.0632 67.5263L35.4034 62.4557C33.9937 61.6756 32.9868 60.1154 32.9868 58.3602V48.6089C32.9868 47.0487 33.7923 45.4885 35.4034 44.5134L44.0632 39.6378C45.4729 38.8577 47.2854 38.8577 48.8965 39.6378L57.5562 44.7084C58.9659 45.4885 59.9729 47.0487 59.9729 48.804V55.2398L67.6256 50.9492V44.3184C67.6256 42.7582 66.8201 41.198 65.209 40.2229L49.0979 31.0567C47.6882 30.2766 45.8756 30.2766 44.2645 31.0567L27.7507 40.4179C26.1395 41.198 25.334 42.7582 25.334 44.3184V62.6507C25.334 64.2109 26.1395 65.7711 27.7507 66.7462L44.0632 75.9124C45.4729 76.6925 47.2854 76.6925 48.8965 75.9124L59.9729 69.6716L67.6256 65.3811L78.702 59.1403C80.1118 58.3602 81.9243 58.3602 83.5354 59.1403L92.1951 64.0159C93.6048 64.796 94.6118 66.3562 94.6118 68.1114V77.8627C94.6118 79.4229 93.8062 80.9831 92.1951 81.9582L83.7368 86.8338C82.327 87.6139 80.5145 87.6139 78.9034 86.8338L70.2437 81.9582C68.834 81.1781 67.827 79.6179 67.827 77.8627V71.6219L60.1743 75.9124V82.3482C60.1743 83.9084 60.9798 85.4686 62.5909 86.4438L78.9034 95.6099C80.3132 96.39 82.1256 96.39 83.7368 95.6099L100.049 86.4438C101.459 85.6637 102.466 84.1035 102.466 82.3482V63.8209C102.466 62.2607 101.66 60.7005 100.049 59.7254L83.7368 50.5592Z"
          fill="white" />
  </g>
  <defs>
    <clipPath id="clip0_190_69">
      <rect width="77.3333" height="65.3333" fill="white" transform="translate(25.334 30.6666)" />
    </clipPath>
  </defs>
</svg>
