<svg width="128" height="128" viewBox="0 0 128 128" fill="none" xmlns="http://www.w3.org/2000/svg">
  <circle cx="64" cy="64" r="64" fill="#AAAAAA" />
  <g clip-path="url(#clip0_190_619)">
    <path d="M63.9916 16L63.3579 18.1877V81.6644L63.9916 82.3069L92.9824 64.8902L63.9916 16Z" fill="#9B9B9B" />
    <path d="M63.9915 16L35 64.8902L63.9915 82.3069V51.4971V16Z" fill="#EAEAEA" />
    <path d="M63.9914 87.8856L63.6343 88.3282V110.94L63.9914 111.999L92.9999 70.4778L63.9914 87.8856Z" fill="#9B9B9B" />
    <path d="M63.9915 111.999V87.8856L35 70.4778L63.9915 111.999Z" fill="#EAEAEA" />
    <path d="M63.9917 82.3069L92.9825 64.8902L63.9917 51.4971V82.3069Z" fill="#919191" />
    <path d="M35 64.8902L63.9915 82.3069V51.4971L35 64.8902Z" fill="#CACACA" />
  </g>
  <defs>
    <clipPath id="clip0_190_619">
      <rect width="58" height="96" fill="white" transform="translate(35 16)" />
    </clipPath>
  </defs>
</svg>
