<?xml version="1.0" encoding="UTF-8"?>
<svg xmlns="http://www.w3.org/2000/svg" width="128" height="128"
     viewBox="0 0 128 128">
  <path fill-rule="nonzero" fill="rgb(0%, 53.333333%, 80%)" fill-opacity="1"
        d="M 64 128 C 99.347656 128 128 99.347656 128 64 C 128 28.652344 99.347656 0 64 0 C 28.652344 0 0 28.652344 0 64 C 0 99.347656 28.652344 128 64 128 Z M 64 128 " />
  <path fill-rule="evenodd" fill="rgb(100%, 100%, 100%)" fill-opacity="1"
        d="M 46.171875 42.285156 L 82.058594 42.285156 C 83.429688 42.285156 84.570312 42.515625 85.941406 43.199219 C 87.542969 43.886719 88.457031 45.027344 88.914062 45.941406 C 88.914062 45.941406 88.914062 46.171875 89.144531 46.171875 C 89.828125 47.316406 90.285156 48.6875 90.285156 50.285156 C 90.285156 51.65625 90.058594 53.027344 89.144531 54.402344 L 66.515625 93.257812 C 66.058594 94.171875 65.144531 94.628906 64 94.628906 C 63.085938 94.628906 62.171875 94.171875 61.484375 93.257812 L 39.316406 54.402344 C 38.859375 53.484375 37.941406 52.34375 37.941406 50.515625 C 37.714844 48.914062 38.171875 47.542969 38.859375 46.171875 C 39.542969 44.800781 40.6875 43.65625 42.285156 43.199219 C 43.65625 42.285156 45.257812 42.285156 46.171875 42.285156 Z M 61.257812 47.773438 L 46.171875 47.773438 C 45.257812 47.773438 44.800781 47.773438 44.570312 48 C 44.113281 48.230469 43.886719 48.457031 43.65625 48.914062 C 43.429688 49.144531 43.429688 49.601562 43.429688 50.058594 C 43.429688 50.285156 43.65625 50.515625 44.113281 51.429688 L 61.257812 81.144531 Z M 66.742188 47.773438 L 66.742188 81.371094 L 84.113281 51.429688 C 84.34375 50.972656 84.34375 50.515625 84.34375 50.058594 C 84.34375 49.601562 84.34375 49.144531 84.113281 48.914062 C 83.886719 48.6875 83.886719 48.457031 83.65625 48.457031 L 83.429688 48.230469 C 82.972656 48 82.515625 48 81.828125 48 L 66.742188 48 Z M 66.742188 47.773438 " />
</svg>
