<svg width="128" height="128" viewBox="0 0 128 128" fill="none" xmlns="http://www.w3.org/2000/svg">
  <path d="M64 128C99.3462 128 128 99.3462 128 64C128 28.6538 99.3462 0 64 0C28.6538 0 0 28.6538 0 64C0 99.3462 28.6538 128 64 128Z"
        fill="#0088CC" />
  <path fill-rule="evenodd" clip-rule="evenodd"
        d="M46.1718 42.2861H82.0575C83.429 42.2861 84.5718 42.5147 85.9432 43.2004C87.5432 43.8861 88.4575 45.029 88.9147 45.9433C88.9147 45.9433 88.9147 46.1718 89.1432 46.1718C89.829 47.3147 90.2861 48.6861 90.2861 50.2861C90.2861 51.6576 90.0575 53.029 89.1432 54.4004L66.5147 93.2576C66.0575 94.1718 65.1432 94.629 64.0004 94.629C63.0861 94.629 62.1718 94.1718 61.4861 93.2576L39.3147 54.4004C38.8575 53.4861 37.9432 52.3433 37.9432 50.5147C37.7147 48.9147 38.1718 47.5433 38.8575 46.1718C39.5432 44.8004 40.6861 43.6576 42.2861 43.2004C43.6575 42.2861 45.2575 42.2861 46.1718 42.2861ZM61.2575 47.7718H46.1718C45.2575 47.7718 44.8004 47.7718 44.5718 48.0004C44.1147 48.229 43.8861 48.4576 43.6575 48.9147C43.429 49.1433 43.429 49.6004 43.429 50.0576C43.429 50.2861 43.6575 50.5147 44.1147 51.429L61.2575 81.1433V47.7718ZM66.7432 47.7718V81.3718L84.1147 51.429C84.3432 50.9718 84.3433 50.5147 84.3433 50.0576C84.3433 49.6004 84.3432 49.1433 84.1147 48.9147C83.8861 48.6861 83.8861 48.4576 83.6575 48.4576L83.429 48.229C82.9718 48.0004 82.5147 48.0004 81.829 48.0004H66.7432V47.7718Z"
        fill="white" />
</svg>
