<svg width="128" height="128" viewBox="0 0 128 128" fill="none" xmlns="http://www.w3.org/2000/svg">
  <g clip-path="url(#clip0_186_160)">
    <path fill-rule="evenodd" clip-rule="evenodd"
          d="M23.4368 8.54687L0.0979045 57.5702C0.00909335 57.7526 -0.0190504 57.9586 0.0175892 58.158C0.0542287 58.3575 0.153729 58.54 0.30154 58.6789L63.3343 119.079C63.5133 119.251 63.7518 119.347 63.9999 119.347C64.2479 119.347 64.4864 119.251 64.6654 119.079L127.698 58.6827C127.846 58.5438 127.945 58.3613 127.982 58.1618C128.019 57.9623 127.991 57.7564 127.902 57.574L104.563 8.55064C104.488 8.386 104.366 8.24653 104.214 8.1489C104.062 8.05126 103.884 7.9996 103.703 8.00007H24.3041C24.1222 7.99781 23.9435 8.04823 23.7896 8.14525C23.6357 8.24228 23.5132 8.38176 23.4368 8.54687Z"
          fill="#50AF95" />
    <path fill-rule="evenodd" clip-rule="evenodd"
          d="M72.098 62.6045C71.6455 62.6385 69.3074 62.778 64.0921 62.778C59.944 62.778 56.9988 62.6536 55.9655 62.6045C39.9349 61.8994 27.9694 59.1088 27.9694 55.7677C27.9694 52.4265 39.9349 49.6397 55.9655 48.9232V59.8253C57.0139 59.9007 60.0156 60.078 64.1638 60.078C69.1415 60.078 71.6342 59.8705 72.0829 59.8291V48.9308C88.0796 49.6435 100.019 52.4341 100.019 55.7677C100.019 59.1013 88.0834 61.8918 72.0829 62.6008L72.098 62.6045ZM72.098 47.8033V38.0476H94.4225V23.1709H33.6411V38.0476H55.9618V47.7995C37.8194 48.6329 24.1758 52.2267 24.1758 56.5332C24.1758 60.8397 37.8194 64.4297 55.9618 65.2669V96.5287H72.0942V65.2556C90.1952 64.4222 103.816 60.8322 103.816 56.5294C103.816 52.2267 90.2065 48.6366 72.0942 47.7995L72.098 47.8033Z"
          fill="white" />
  </g>
  <defs>
    <clipPath id="clip0_186_160">
      <rect width="128" height="111.347" fill="white" transform="translate(0 8)" />
    </clipPath>
  </defs>
</svg>
