<?xml version="1.0" encoding="UTF-8"?>
<svg xmlns="http://www.w3.org/2000/svg" width="128" height="128"
     viewBox="0 0 128 128">
  <defs>
    <clipPath id="clip-0">
      <path clip-rule="nonzero" d="M 0 8 L 128 8 L 128 119.347656 L 0 119.347656 Z M 0 8 " />
    </clipPath>
  </defs>
  <g clip-path="url(#clip-0)">
    <path fill-rule="evenodd" fill="rgb(31.372549%, 68.627451%, 58.431373%)" fill-opacity="1"
          d="M 23.4375 8.546875 L 0.0976562 57.570312 C 0.0078125 57.753906 -0.0195312 57.957031 0.0195312 58.15625 C 0.0546875 58.359375 0.152344 58.539062 0.300781 58.679688 L 63.335938 119.078125 C 63.511719 119.25 63.75 119.347656 64 119.347656 C 64.246094 119.347656 64.488281 119.25 64.664062 119.078125 L 127.699219 58.683594 C 127.847656 58.542969 127.945312 58.359375 127.980469 58.160156 C 128.019531 57.960938 127.992188 57.757812 127.902344 57.574219 L 104.5625 8.550781 C 104.488281 8.386719 104.367188 8.246094 104.214844 8.148438 C 104.0625 8.050781 103.882812 8 103.703125 8 L 24.304688 8 C 24.121094 7.996094 23.945312 8.046875 23.789062 8.144531 C 23.636719 8.242188 23.511719 8.382812 23.4375 8.546875 Z M 23.4375 8.546875 " />
  </g>
  <path fill-rule="evenodd" fill="rgb(100%, 100%, 100%)" fill-opacity="1"
        d="M 72.097656 62.605469 C 71.644531 62.636719 69.308594 62.777344 64.09375 62.777344 C 59.945312 62.777344 57 62.652344 55.964844 62.605469 C 39.933594 61.898438 27.96875 59.109375 27.96875 55.769531 C 27.96875 52.425781 39.933594 49.640625 55.964844 48.921875 L 55.964844 59.824219 C 57.015625 59.902344 60.015625 60.078125 64.164062 60.078125 C 69.140625 60.078125 71.632812 59.871094 72.082031 59.828125 L 72.082031 48.929688 C 88.078125 49.644531 100.019531 52.433594 100.019531 55.769531 C 100.019531 59.101562 88.082031 61.890625 72.082031 62.601562 Z M 72.097656 47.804688 L 72.097656 38.046875 L 94.421875 38.046875 L 94.421875 23.171875 L 33.640625 23.171875 L 33.640625 38.046875 L 55.960938 38.046875 L 55.960938 47.800781 C 37.820312 48.632812 24.175781 52.226562 24.175781 56.53125 C 24.175781 60.839844 37.820312 64.429688 55.960938 65.265625 L 55.960938 96.527344 L 72.09375 96.527344 L 72.09375 65.253906 C 90.195312 64.421875 103.816406 60.832031 103.816406 56.53125 C 103.816406 52.226562 90.207031 48.636719 72.09375 47.800781 Z M 72.097656 47.804688 " />
</svg>
