<svg width="128" height="128" viewBox="0 0 128 128" fill="none" xmlns="http://www.w3.org/2000/svg">
  <circle cx="64" cy="64" r="64" fill="url(#paint0_linear_27_689)" />
  <g filter="url(#filter0_d_27_689)">
    <circle cx="64" cy="64" r="60" fill="url(#paint1_linear_27_689)" />
  </g>
  <path d="M56.1279 41.1048C55.2174 40.9738 55.1737 40.9301 55.6071 40.8898C56.4303 40.7587 58.3354 40.9334 59.6794 41.2358C62.7975 41.9717 65.6132 43.8802 68.6036 47.2133L69.3831 48.1238L70.5087 47.9491C75.3169 47.1696 80.2561 47.7744 84.3721 49.6829C85.4977 50.2037 87.2751 51.2419 87.4902 51.504C87.5775 51.5914 87.7052 52.1525 87.7926 52.717C88.095 54.7531 87.9673 56.2685 87.3154 57.4378C86.9694 58.0862 86.9694 58.261 87.1844 58.8254C87.3591 59.2589 87.8766 59.5613 88.3537 59.5613C89.3919 59.5613 90.4772 57.9149 90.9946 55.62L91.2097 54.7094L91.5994 55.1429C93.8103 57.6125 95.5407 61.033 95.8028 63.4622L95.8902 64.1107L95.5004 63.5462C94.8519 62.5483 94.2438 61.8998 93.4206 61.3354C91.9489 60.3374 90.3865 60.035 86.2738 59.82C82.5476 59.605 80.4241 59.2992 78.3476 58.607C74.7961 57.4378 72.975 55.9224 68.775 50.3314C66.9135 47.8618 65.7442 46.5178 64.5716 45.3922C62.0214 42.9226 59.4644 41.6256 56.1279 41.1048Z"
        fill="#FF007A" />
  <path d="M88.4041 46.6056C88.4914 44.9592 88.7065 43.8773 89.1836 42.8794C89.3583 42.4896 89.5297 42.1436 89.5734 42.1436C89.617 42.1436 89.5297 42.446 89.3986 42.792C89.0526 43.7463 89.0089 45.0869 89.2239 46.6056C89.5263 48.5544 89.6574 48.8165 91.7372 50.9367C92.6914 51.9346 93.817 53.1879 94.2505 53.7087L94.9863 54.6629L94.2505 53.9708C93.3399 53.1039 91.2601 51.4575 90.7863 51.2424C90.4839 51.0677 90.4402 51.0677 90.2218 51.2861C90.0471 51.4608 90.0068 51.7196 90.0068 52.9762C89.9631 54.925 89.7044 56.138 89.0526 57.3946C88.7065 58.0431 88.6628 57.9154 88.9652 57.1796C89.1802 56.6151 89.2239 56.3564 89.2239 54.4949C89.2239 50.725 88.7905 49.8178 86.1495 48.2991C85.501 47.9093 84.3721 47.3448 83.7236 47.0424C83.0314 46.74 82.5106 46.478 82.5543 46.478C82.6417 46.3906 85.1986 47.1264 86.1932 47.5599C87.7086 48.1647 87.9706 48.2084 88.142 48.1647C88.273 48.037 88.3604 47.6909 88.4041 46.6056Z"
        fill="#FF007A" />
  <path d="M57.9046 53.0633C56.0835 50.5501 54.9142 46.6525 55.1763 43.7494L55.2636 42.8389L55.6971 42.9262C56.4766 43.0573 57.8206 43.5747 58.4691 43.9678C60.2028 45.0061 60.9823 46.4374 61.7182 49.9889C61.9332 51.0305 62.239 52.2401 62.3667 52.6333C62.5817 53.2817 63.4049 54.8005 64.1004 55.7513C64.5775 56.4435 64.2751 56.7896 63.1899 56.7056C61.5435 56.5275 59.3326 55.0121 57.9046 53.0633Z"
        fill="#FF007A" />
  <path d="M86.1928 71.9059C77.6147 68.4417 74.584 65.4513 74.584 60.3811C74.584 59.6453 74.6277 59.0371 74.6277 59.0371C74.6713 59.0371 74.9737 59.2958 75.3635 59.6016C77.0973 60.9893 79.0461 61.5941 84.4624 62.3736C87.6241 62.8507 89.4453 63.1968 91.0917 63.7613C96.3333 65.495 99.5824 69.0465 100.362 73.8547C100.577 75.2424 100.449 77.8833 100.103 79.271C99.8008 80.3529 98.9339 82.3454 98.7189 82.3891C98.6752 82.3891 98.5878 82.1741 98.5878 81.8246C98.5005 80.0035 97.5899 78.2731 96.0745 76.9291C94.2501 75.3734 91.9115 74.2008 86.1928 71.9059Z"
        fill="#FF007A" />
  <path d="M80.1278 73.3339C80.0404 72.6854 79.8254 71.8622 79.6943 71.5127L79.4793 70.8643L79.8691 71.3414C80.4335 71.9899 80.867 72.7727 81.2567 73.8547C81.5591 74.6779 81.5591 74.9366 81.5591 76.2806C81.5591 77.5809 81.5155 77.8833 81.2567 78.6191C80.8233 79.7884 80.3025 80.6116 79.4356 81.5222C77.8766 83.1249 75.8404 83.9918 72.9374 84.3815C72.4166 84.4252 70.9449 84.5563 69.6446 84.6403C66.3955 84.815 64.2283 85.1611 62.2795 85.8532C62.0207 85.9406 61.7587 86.0279 61.715 85.9843C61.6276 85.8969 62.9716 85.1174 64.0535 84.5966C65.5689 83.8607 67.1279 83.471 70.5518 82.8628C72.2419 82.6041 73.9723 82.2547 74.4091 82.0833C78.6998 80.7427 80.8199 77.4095 80.1278 73.3339Z"
        fill="#FF007A" />
  <path d="M84.0697 80.3099C82.9441 77.8403 82.6854 75.5017 83.2902 73.2909C83.3776 73.0758 83.4649 72.8574 83.5489 72.8574C83.6329 72.8574 83.895 72.9885 84.1571 73.1598C84.6779 73.5059 85.7598 74.1141 88.5318 75.6294C92.0396 77.5345 94.0355 79.0096 95.4198 80.6963C96.6328 82.168 97.3686 83.8581 97.7147 85.9379C97.9297 87.1072 97.802 89.9229 97.4996 91.0921C96.5454 94.7747 94.3816 97.7214 91.2198 99.4115C90.7427 99.6702 90.3529 99.8449 90.3092 99.8449C90.2656 99.8449 90.4403 99.4115 90.699 98.8907C91.7372 96.6798 91.8683 94.5597 91.0888 92.1741C90.6116 90.7024 89.6171 88.9249 87.6246 85.9345C85.2424 82.4771 84.6779 81.5665 84.0697 80.3099Z"
        fill="#FF007A" />
  <path d="M51.7963 93.5681C55.0017 90.8835 58.943 88.975 62.5819 88.3702C64.1409 88.1115 66.7416 88.1955 68.1696 88.5852C70.4645 89.1934 72.5443 90.4904 73.6296 92.0931C74.6678 93.6521 75.1449 94.9961 75.6221 97.9832C75.7968 99.1524 76.0118 100.365 76.0555 100.624C76.4016 102.183 77.0937 103.396 77.9606 104.048C79.3046 105.043 81.6432 105.086 83.9381 104.223C84.3278 104.092 84.6739 103.964 84.6739 104.008C84.7613 104.095 83.592 104.875 82.8125 105.264C81.7305 105.829 80.8637 106 79.6944 106C77.6145 106 75.8371 104.918 74.4091 102.751C74.1067 102.318 73.4985 101.061 72.9777 99.8916C71.4624 96.3838 70.6829 95.3422 68.9054 94.1729C67.3464 93.1784 65.3539 92.96 63.8385 93.6958C61.8461 94.6501 61.3253 97.2036 62.7129 98.766C63.2774 99.4145 64.3157 99.9353 65.1825 100.066C66.7853 100.281 68.1729 99.0281 68.1729 97.4254C68.1729 96.3872 67.7832 95.779 66.7449 95.3019C65.3573 94.6937 63.8419 95.3893 63.8856 96.7299C63.8856 97.2944 64.1443 97.6404 64.7088 97.8992C65.0549 98.0705 65.0549 98.0705 64.7961 98.0302C63.5395 97.7715 63.2371 96.2125 64.2317 95.2145C65.4446 94.0016 68.0016 94.5224 68.8651 96.2091C69.2112 96.9013 69.2549 98.2889 68.9525 99.1558C68.2166 101.061 66.1368 102.059 64.0133 101.494C62.5819 101.105 61.9771 100.715 60.2433 98.9374C57.2093 95.8193 56.04 95.2112 51.7089 94.5627L50.8857 94.4316L51.7963 93.5681Z"
        fill="#FF007A" />
  <path fill-rule="evenodd" clip-rule="evenodd"
        d="M29.0088 23.8614C39.1022 36.1221 54.6557 55.1834 55.4352 56.225C56.0837 57.0918 55.825 57.915 54.743 58.5198C54.1382 58.8659 52.8816 59.212 52.2734 59.212C51.5813 59.212 50.7581 58.8659 50.1936 58.3014C49.8038 57.9117 48.1138 55.4421 44.3035 49.5083C41.4005 44.9589 38.9309 41.1923 38.8872 41.1486C38.7125 41.0613 38.7125 41.0613 43.9978 50.5062C47.3342 56.44 48.4162 58.5635 48.4162 58.8256C48.4162 59.3901 48.2414 59.6925 47.5493 60.472C46.38 61.7723 45.8592 63.244 45.4694 66.3218C45.036 69.7422 43.8667 72.1715 40.5302 76.2842C38.5814 78.7101 38.279 79.1435 37.8019 80.1414C37.1938 81.3544 37.0224 82.0466 36.935 83.609C36.8477 85.2554 37.0224 86.2936 37.4995 87.8526C37.933 89.2403 38.4101 90.1475 39.5794 91.925C40.5773 93.484 41.1821 94.6533 41.1821 95.0867C41.1821 95.4328 41.2694 95.4328 42.8285 95.0867C46.5547 94.2198 49.6291 92.7482 51.3192 90.927C52.3608 89.8014 52.6195 89.1933 52.6195 87.6342C52.6195 86.6363 52.5758 86.4213 52.3171 85.8131C51.8837 84.8589 51.0605 84.0794 49.2864 82.8664C46.9478 81.2637 45.9499 79.9634 45.6912 78.2296C45.4762 76.7579 45.7349 75.76 47.0352 73.0317C48.3792 70.216 48.7253 69.0467 48.9403 66.1874C49.0714 64.3662 49.2864 63.6304 49.8072 63.0693C50.3717 62.4611 50.8454 62.2461 52.1894 62.0714C54.4003 61.769 55.8283 61.2045 56.9539 60.1226C57.9518 59.212 58.3819 58.3014 58.4256 56.9608L58.4693 55.9629L57.9048 55.3581C55.8686 53.0195 27.6648 22 27.5371 22C27.4934 22 28.1856 22.8232 29.0088 23.8614ZM42.3077 85.467C42.7848 84.6438 42.5227 83.6056 41.7432 83.0848C41.0074 82.6077 39.8818 82.8261 39.8818 83.4746C39.8818 83.6493 39.9691 83.8206 40.2278 83.908C40.6176 84.123 40.6613 84.3414 40.3589 84.8186C40.0565 85.2957 40.0565 85.7291 40.4462 86.0315C41.051 86.5053 41.8742 86.2466 42.3077 85.467Z"
        fill="#FF007A" />
  <path fill-rule="evenodd" clip-rule="evenodd"
        d="M59.8535 62.68C58.8153 62.9824 57.8174 64.108 57.515 65.237C57.3402 65.9291 57.4276 67.1858 57.73 67.5755C58.2071 68.1837 58.6406 68.3551 59.8535 68.3551C62.2358 68.3551 64.2719 67.3168 64.4903 66.0602C64.7054 65.0219 63.7982 63.5906 62.5415 62.9421C61.8897 62.5927 60.5457 62.4616 59.8535 62.68ZM62.6255 64.8439C62.9716 64.3231 62.8406 63.7619 62.1921 63.3722C61.0228 62.6363 59.2454 63.2411 59.2454 64.3701C59.2454 64.9346 60.1559 65.5394 61.0228 65.5394C61.5873 65.5394 62.3668 65.1933 62.6255 64.8439Z"
        fill="#FF007A" />
  <defs>
    <filter id="filter0_d_27_689" x="0" y="0" width="128" height="128" filterUnits="userSpaceOnUse"
            color-interpolation-filters="sRGB">
      <feFlood flood-opacity="0" result="BackgroundImageFix" />
      <feColorMatrix in="SourceAlpha" type="matrix" values="0 0 0 0 0 0 0 0 0 0 0 0 0 0 0 0 0 0 127 0"
                     result="hardAlpha" />
      <feOffset />
      <feGaussianBlur stdDeviation="2" />
      <feComposite in2="hardAlpha" operator="out" />
      <feColorMatrix type="matrix" values="0 0 0 0 0.972549 0 0 0 0 0.760784 0 0 0 0 0.854902 0 0 0 1 0" />
      <feBlend mode="normal" in2="BackgroundImageFix" result="effect1_dropShadow_27_689" />
      <feBlend mode="normal" in="SourceGraphic" in2="effect1_dropShadow_27_689" result="shape" />
    </filter>
    <linearGradient id="paint0_linear_27_689" x1="22.5" y1="14" x2="105" y2="115.5" gradientUnits="userSpaceOnUse">
      <stop stop-color="#FDF8FC" />
      <stop offset="1" stop-color="#FAE3F0" />
    </linearGradient>
    <linearGradient id="paint1_linear_27_689" x1="25.0938" y1="17.125" x2="102.438" y2="112.281"
                    gradientUnits="userSpaceOnUse">
      <stop stop-color="#FDF8FC" />
      <stop offset="1" stop-color="#FAE3F0" />
    </linearGradient>
  </defs>
</svg>
