<?xml version="1.0" encoding="UTF-8"?>
<svg xmlns="http://www.w3.org/2000/svg" width="128" height="128"
     viewBox="0 0 128 128">
  <defs>
    <linearGradient id="linear-pattern-0" gradientUnits="userSpaceOnUse" x1="22.5" y1="14" x2="105" y2="115.5">
      <stop offset="0" stop-color="rgb(99.215686%, 97.254902%, 98.823529%)" stop-opacity="1" />
      <stop offset="1" stop-color="rgb(98.039216%, 89.019608%, 94.117647%)" stop-opacity="1" />
    </linearGradient>
    <linearGradient id="linear-pattern-1" gradientUnits="userSpaceOnUse" x1="25.0938" y1="17.125" x2="102.438"
                    y2="112.281">
      <stop offset="0" stop-color="rgb(99.215686%, 97.254902%, 98.823529%)" stop-opacity="1" />
      <stop offset="1" stop-color="rgb(98.039216%, 89.019608%, 94.117647%)" stop-opacity="1" />
    </linearGradient>
  </defs>
  <path fill-rule="nonzero" fill="url(#linear-pattern-0)"
        d="M 128 64 C 128 99.347656 99.347656 128 64 128 C 28.652344 128 0 99.347656 0 64 C 0 28.652344 28.652344 0 64 0 C 99.347656 0 128 28.652344 128 64 " />
  <path fill-rule="nonzero" fill="url(#linear-pattern-1)"
        d="M 124 64 C 124 97.136719 97.136719 124 64 124 C 30.863281 124 4 97.136719 4 64 C 4 30.863281 30.863281 4 64 4 C 97.136719 4 124 30.863281 124 64 " />
  <path fill-rule="nonzero" fill="rgb(100%, 0%, 47.843137%)" fill-opacity="1"
        d="M 56.128906 41.105469 C 55.21875 40.972656 55.171875 40.929688 55.605469 40.890625 C 56.429688 40.757812 58.335938 40.933594 59.679688 41.234375 C 62.796875 41.972656 65.613281 43.878906 68.605469 47.214844 L 69.382812 48.125 L 70.507812 47.949219 C 75.316406 47.167969 80.257812 47.773438 84.371094 49.683594 C 85.496094 50.203125 87.273438 51.242188 87.488281 51.503906 C 87.578125 51.589844 87.707031 52.152344 87.792969 52.71875 C 88.09375 54.753906 87.96875 56.269531 87.316406 57.4375 C 86.96875 58.085938 86.96875 58.261719 87.183594 58.824219 C 87.359375 59.257812 87.875 59.5625 88.355469 59.5625 C 89.390625 59.5625 90.476562 57.914062 90.996094 55.621094 L 91.210938 54.710938 L 91.597656 55.144531 C 93.808594 57.613281 95.539062 61.03125 95.804688 63.460938 L 95.890625 64.109375 L 95.5 63.546875 C 94.851562 62.546875 94.242188 61.898438 93.421875 61.335938 C 91.949219 60.335938 90.386719 60.035156 86.273438 59.820312 C 82.546875 59.605469 80.425781 59.300781 78.347656 58.605469 C 74.796875 57.4375 72.976562 55.921875 68.773438 50.332031 C 66.914062 47.863281 65.746094 46.519531 64.570312 45.390625 C 62.019531 42.921875 59.464844 41.625 56.128906 41.105469 Z M 56.128906 41.105469 " />
  <path fill-rule="nonzero" fill="rgb(100%, 0%, 47.843137%)" fill-opacity="1"
        d="M 88.402344 46.605469 C 88.492188 44.960938 88.707031 43.878906 89.183594 42.878906 C 89.359375 42.488281 89.53125 42.144531 89.574219 42.144531 C 89.617188 42.144531 89.53125 42.445312 89.398438 42.792969 C 89.050781 43.746094 89.007812 45.085938 89.222656 46.605469 C 89.527344 48.554688 89.65625 48.816406 91.738281 50.9375 C 92.691406 51.933594 93.816406 53.1875 94.25 53.707031 L 94.984375 54.664062 L 94.25 53.972656 C 93.339844 53.105469 91.261719 51.457031 90.785156 51.242188 C 90.484375 51.066406 90.441406 51.066406 90.222656 51.285156 C 90.046875 51.460938 90.007812 51.71875 90.007812 52.976562 C 89.964844 54.925781 89.703125 56.136719 89.050781 57.394531 C 88.707031 58.042969 88.664062 57.914062 88.964844 57.179688 C 89.179688 56.613281 89.222656 56.355469 89.222656 54.496094 C 89.222656 50.726562 88.789062 49.816406 86.148438 48.300781 C 85.5 47.910156 84.371094 47.34375 83.722656 47.042969 C 83.03125 46.738281 82.511719 46.476562 82.554688 46.476562 C 82.640625 46.390625 85.199219 47.125 86.191406 47.558594 C 87.707031 48.164062 87.96875 48.207031 88.140625 48.164062 C 88.273438 48.035156 88.359375 47.691406 88.402344 46.605469 Z M 88.402344 46.605469 " />
  <path fill-rule="nonzero" fill="rgb(100%, 0%, 47.843137%)" fill-opacity="1"
        d="M 57.90625 53.0625 C 56.082031 50.550781 54.914062 46.652344 55.175781 43.75 L 55.261719 42.839844 L 55.695312 42.925781 C 56.476562 43.058594 57.820312 43.574219 58.46875 43.96875 C 60.203125 45.007812 60.980469 46.4375 61.71875 49.988281 C 61.933594 51.03125 62.238281 52.238281 62.367188 52.632812 C 62.582031 53.28125 63.40625 54.800781 64.101562 55.75 C 64.578125 56.445312 64.273438 56.789062 63.191406 56.707031 C 61.542969 56.527344 59.332031 55.011719 57.90625 53.0625 Z M 57.90625 53.0625 " />
  <path fill-rule="nonzero" fill="rgb(100%, 0%, 47.843137%)" fill-opacity="1"
        d="M 86.191406 71.90625 C 77.613281 68.441406 74.585938 65.453125 74.585938 60.382812 C 74.585938 59.644531 74.628906 59.035156 74.628906 59.035156 C 74.671875 59.035156 74.972656 59.296875 75.363281 59.601562 C 77.097656 60.988281 79.046875 61.59375 84.460938 62.375 C 87.625 62.851562 89.445312 63.195312 91.089844 63.761719 C 96.332031 65.496094 99.582031 69.046875 100.363281 73.855469 C 100.578125 75.242188 100.449219 77.882812 100.101562 79.269531 C 99.800781 80.351562 98.933594 82.34375 98.71875 82.390625 C 98.675781 82.390625 98.585938 82.175781 98.585938 81.824219 C 98.5 80.003906 97.589844 78.273438 96.074219 76.929688 C 94.25 75.375 91.910156 74.199219 86.191406 71.90625 Z M 86.191406 71.90625 " />
  <path fill-rule="nonzero" fill="rgb(100%, 0%, 47.843137%)" fill-opacity="1"
        d="M 80.128906 73.332031 C 80.039062 72.683594 79.824219 71.863281 79.695312 71.511719 L 79.480469 70.863281 L 79.867188 71.339844 C 80.433594 71.988281 80.867188 72.773438 81.257812 73.855469 C 81.558594 74.679688 81.558594 74.9375 81.558594 76.28125 C 81.558594 77.582031 81.515625 77.882812 81.257812 78.617188 C 80.824219 79.789062 80.300781 80.613281 79.4375 81.523438 C 77.875 83.125 75.839844 83.992188 72.9375 84.382812 C 72.417969 84.425781 70.945312 84.554688 69.644531 84.640625 C 66.394531 84.816406 64.226562 85.160156 62.28125 85.851562 C 62.019531 85.941406 61.757812 86.027344 61.714844 85.984375 C 61.628906 85.898438 62.972656 85.117188 64.054688 84.597656 C 65.570312 83.859375 67.128906 83.472656 70.550781 82.863281 C 72.242188 82.605469 73.972656 82.253906 74.410156 82.082031 C 78.699219 80.742188 80.820312 77.410156 80.128906 73.332031 Z M 80.128906 73.332031 " />
  <path fill-rule="nonzero" fill="rgb(100%, 0%, 47.843137%)" fill-opacity="1"
        d="M 84.070312 80.308594 C 82.945312 77.839844 82.683594 75.5 83.289062 73.289062 C 83.378906 73.074219 83.464844 72.855469 83.550781 72.855469 C 83.632812 72.855469 83.894531 72.988281 84.15625 73.160156 C 84.679688 73.507812 85.761719 74.113281 88.53125 75.628906 C 92.039062 77.535156 94.035156 79.007812 95.417969 80.695312 C 96.632812 82.167969 97.367188 83.859375 97.714844 85.9375 C 97.929688 87.105469 97.800781 89.921875 97.5 91.09375 C 96.546875 94.773438 94.382812 97.722656 91.21875 99.410156 C 90.742188 99.671875 90.351562 99.84375 90.308594 99.84375 C 90.265625 99.84375 90.441406 99.410156 90.699219 98.890625 C 91.738281 96.679688 91.867188 94.558594 91.089844 92.175781 C 90.613281 90.703125 89.617188 88.925781 87.625 85.933594 C 85.242188 82.476562 84.679688 81.566406 84.070312 80.308594 Z M 84.070312 80.308594 " />
  <path fill-rule="nonzero" fill="rgb(100%, 0%, 47.843137%)" fill-opacity="1"
        d="M 51.796875 93.566406 C 55 90.882812 58.941406 88.976562 62.582031 88.371094 C 64.140625 88.113281 66.742188 88.195312 68.167969 88.585938 C 70.464844 89.195312 72.542969 90.492188 73.628906 92.09375 C 74.667969 93.652344 75.144531 94.996094 75.621094 97.984375 C 75.796875 99.152344 76.011719 100.363281 76.054688 100.625 C 76.402344 102.183594 77.09375 103.394531 77.960938 104.046875 C 79.304688 105.042969 81.644531 105.085938 83.9375 104.222656 C 84.328125 104.09375 84.675781 103.964844 84.675781 104.007812 C 84.761719 104.09375 83.59375 104.875 82.8125 105.265625 C 81.730469 105.828125 80.863281 106 79.695312 106 C 77.613281 106 75.835938 104.917969 74.410156 102.75 C 74.105469 102.316406 73.5 101.0625 72.976562 99.890625 C 71.460938 96.382812 70.683594 95.34375 68.90625 94.171875 C 67.347656 93.179688 65.355469 92.960938 63.839844 93.695312 C 61.847656 94.648438 61.324219 97.203125 62.714844 98.765625 C 63.277344 99.414062 64.316406 99.933594 65.183594 100.066406 C 66.785156 100.28125 68.171875 99.027344 68.171875 97.425781 C 68.171875 96.386719 67.78125 95.777344 66.746094 95.300781 C 65.355469 94.695312 63.84375 95.390625 63.886719 96.730469 C 63.886719 97.292969 64.144531 97.640625 64.707031 97.898438 C 65.054688 98.070312 65.054688 98.070312 64.796875 98.03125 C 63.539062 97.773438 63.238281 96.210938 64.230469 95.214844 C 65.445312 94 68 94.523438 68.863281 96.210938 C 69.210938 96.902344 69.253906 98.289062 68.953125 99.15625 C 68.214844 101.0625 66.136719 102.058594 64.011719 101.492188 C 62.582031 101.105469 61.976562 100.714844 60.242188 98.9375 C 57.210938 95.820312 56.039062 95.210938 51.707031 94.5625 L 50.886719 94.429688 Z M 51.796875 93.566406 " />
  <path fill-rule="evenodd" fill="rgb(100%, 0%, 47.843137%)" fill-opacity="1"
        d="M 29.007812 23.863281 C 39.101562 36.121094 54.65625 55.183594 55.433594 56.226562 C 56.082031 57.09375 55.824219 57.914062 54.742188 58.519531 C 54.136719 58.867188 52.882812 59.210938 52.273438 59.210938 C 51.582031 59.210938 50.757812 58.867188 50.195312 58.300781 C 49.804688 57.910156 48.113281 55.441406 44.304688 49.507812 C 41.402344 44.957031 38.929688 41.191406 38.886719 41.148438 C 38.710938 41.0625 38.710938 41.0625 43.996094 50.507812 C 47.335938 56.441406 48.417969 58.5625 48.417969 58.824219 C 48.417969 59.390625 48.242188 59.691406 47.550781 60.472656 C 46.378906 61.773438 45.859375 63.242188 45.46875 66.320312 C 45.035156 69.742188 43.867188 72.171875 40.53125 76.285156 C 38.582031 78.710938 38.277344 79.144531 37.800781 80.140625 C 37.195312 81.355469 37.023438 82.046875 36.933594 83.609375 C 36.847656 85.253906 37.023438 86.292969 37.5 87.851562 C 37.933594 89.242188 38.410156 90.148438 39.578125 91.925781 C 40.578125 93.484375 41.183594 94.652344 41.183594 95.085938 C 41.183594 95.433594 41.269531 95.433594 42.828125 95.085938 C 46.554688 94.21875 49.628906 92.75 51.320312 90.925781 C 52.359375 89.800781 52.621094 89.191406 52.621094 87.632812 C 52.621094 86.636719 52.574219 86.421875 52.316406 85.8125 C 51.882812 84.859375 51.058594 84.078125 49.285156 82.867188 C 46.949219 81.265625 45.949219 79.964844 45.691406 78.230469 C 45.476562 76.757812 45.734375 75.761719 47.035156 73.03125 C 48.378906 70.214844 48.726562 69.046875 48.941406 66.1875 C 49.070312 64.367188 49.285156 63.628906 49.808594 63.070312 C 50.371094 62.460938 50.84375 62.246094 52.1875 62.070312 C 54.398438 61.769531 55.828125 61.203125 56.953125 60.121094 C 57.953125 59.210938 58.382812 58.300781 58.425781 56.960938 L 58.46875 55.964844 L 57.90625 55.359375 C 55.867188 53.019531 27.664062 22 27.535156 22 C 27.492188 22 28.1875 22.824219 29.007812 23.863281 Z M 42.308594 85.46875 C 42.785156 84.644531 42.523438 83.605469 41.742188 83.085938 C 41.007812 82.609375 39.882812 82.824219 39.882812 83.472656 C 39.882812 83.648438 39.96875 83.820312 40.226562 83.90625 C 40.617188 84.121094 40.660156 84.339844 40.359375 84.820312 C 40.054688 85.296875 40.054688 85.730469 40.445312 86.03125 C 41.050781 86.503906 41.875 86.246094 42.308594 85.46875 Z M 42.308594 85.46875 " />
  <path fill-rule="evenodd" fill="rgb(100%, 0%, 47.843137%)" fill-opacity="1"
        d="M 59.851562 62.679688 C 58.816406 62.980469 57.816406 64.109375 57.515625 65.238281 C 57.339844 65.929688 57.425781 67.1875 57.730469 67.574219 C 58.207031 68.183594 58.640625 68.355469 59.851562 68.355469 C 62.234375 68.355469 64.273438 67.316406 64.492188 66.058594 C 64.707031 65.023438 63.796875 63.589844 62.542969 62.941406 C 61.890625 62.59375 60.546875 62.460938 59.851562 62.679688 Z M 62.625 64.84375 C 62.972656 64.324219 62.839844 63.761719 62.191406 63.371094 C 61.023438 62.636719 59.246094 63.242188 59.246094 64.371094 C 59.246094 64.933594 60.15625 65.539062 61.023438 65.539062 C 61.585938 65.539062 62.367188 65.191406 62.625 64.84375 Z M 62.625 64.84375 " />
</svg>
