<?xml version="1.0" encoding="UTF-8"?>
<svg xmlns="http://www.w3.org/2000/svg" width="128" height="128"
     viewBox="0 0 128 128">
  <path fill-rule="nonzero" fill="rgb(0%, 93.72549%, 54.509804%)" fill-opacity="1"
        d="M 128 64 C 128 99.347656 99.347656 128 64 128 C 28.652344 128 0 99.347656 0 64 C 0 28.652344 28.652344 0 64 0 C 99.347656 0 128 28.652344 128 64 " />
  <path fill-rule="nonzero" fill="rgb(100%, 100%, 100%)" fill-opacity="1"
        d="M 89.589844 54.164062 L 73.835938 54.164062 L 73.835938 69.921875 L 89.589844 69.921875 Z M 89.589844 54.164062 " />
  <path fill-rule="nonzero" fill="rgb(100%, 100%, 100%)" fill-opacity="1"
        d="M 58.078125 75.84375 C 58.078125 79.085938 55.394531 81.765625 52.15625 81.765625 C 48.914062 81.765625 46.234375 79.085938 46.234375 75.84375 C 46.234375 72.605469 48.914062 69.921875 52.15625 69.921875 L 58.078125 69.921875 L 58.078125 54.164062 L 52.15625 54.164062 C 40.199219 54.164062 30.476562 63.886719 30.476562 75.84375 C 30.476562 87.800781 40.199219 97.523438 52.15625 97.523438 C 64.113281 97.523438 73.835938 87.800781 73.835938 75.84375 L 73.835938 69.921875 L 58.078125 69.921875 Z M 58.078125 75.84375 " />
  <path fill-rule="nonzero" fill="rgb(0%, 93.72549%, 54.509804%)" fill-opacity="1"
        d="M 73.835938 54.164062 L 58.078125 54.164062 L 58.078125 69.921875 L 73.835938 69.921875 Z M 73.835938 54.164062 " />
  <path fill-rule="nonzero" fill="rgb(100%, 100%, 100%)" fill-opacity="1"
        d="M 79.757812 46.230469 L 97.523438 46.230469 L 97.523438 30.476562 L 79.757812 30.476562 C 67.800781 30.476562 58.078125 40.199219 58.078125 52.15625 L 58.078125 54.167969 L 73.835938 54.167969 L 73.835938 52.15625 C 73.835938 48.914062 76.515625 46.230469 79.757812 46.230469 Z M 79.757812 46.230469 " />
</svg>
