<svg width="128" height="128" viewBox="0 0 128 128" fill="none" xmlns="http://www.w3.org/2000/svg">
  <circle cx="64" cy="64" r="64" fill="#00EF8B" />
  <path d="M89.5902 54.166H73.834V69.9222H89.5902V54.166Z" fill="white" />
  <path d="M58.0778 75.8447C58.0778 79.0854 55.3959 81.7673 52.1553 81.7673C48.9147 81.7673 46.2328 79.0854 46.2328 75.8447C46.2328 72.6041 48.9147 69.9222 52.1553 69.9222H58.0778V54.166H52.1553C40.1985 54.166 30.4766 63.8879 30.4766 75.8447C30.4766 87.8016 40.1985 97.5235 52.1553 97.5235C64.1121 97.5235 73.834 87.8016 73.834 75.8447V69.9222H58.0778V75.8447Z"
        fill="white" />
  <path d="M73.8343 54.166H58.0781V69.9222H73.8343V54.166Z" fill="#00EF8B" />
  <path d="M79.7569 46.2323H97.5245V30.4761H79.7569C67.8 30.4761 58.0781 40.198 58.0781 52.1548V54.1662H73.8343V52.1548C73.8343 48.9142 76.5162 46.2323 79.7569 46.2323Z"
        fill="white" />
</svg>
