<svg width="128" height="128" viewBox="0 0 128 128" fill="none" xmlns="http://www.w3.org/2000/svg">
  <g clip-path="url(#clip0_26_662)">
    <circle cx="64" cy="64" r="60" fill="#F4F4F4" />
    <path d="M104.37 26.8633L100.855 30.3778C109.242 39.5488 113.892 51.5262 113.892 63.9535C113.892 76.3808 109.242 88.3582 100.855 97.5292L104.37 101.044C113.696 90.9275 118.874 77.6719 118.874 63.9125C118.874 50.1531 113.696 36.8975 104.37 26.7812V26.8633Z"
          fill="#5A5564" />
    <path d="M30.4598 27.1674C39.6308 18.7811 51.6082 14.1305 64.0355 14.1305C76.4628 14.1305 88.4402 18.7811 97.6112 27.1674L101.126 23.6528C91.0095 14.3264 77.754 9.14844 63.9945 9.14844C50.2351 9.14844 36.9796 14.3264 26.8633 23.6528L30.4598 27.1674Z"
          fill="#5A5564" />
    <path d="M27.1674 97.5644C18.791 88.3954 14.1465 76.4253 14.1465 64.0063C14.1465 51.5872 18.791 39.6171 27.1674 30.4481L23.6528 26.9336C14.3264 37.0499 9.14844 50.3054 9.14844 64.0648C9.14844 77.8243 14.3264 91.0798 23.6528 101.196L27.1674 97.5644Z"
          fill="#5A5564" />
    <path d="M97.5644 100.809C88.3934 109.195 76.416 113.846 63.9887 113.846C51.5614 113.846 39.584 109.195 30.413 100.809L26.8984 104.323C37.0147 113.65 50.2703 118.828 64.0297 118.828C77.7891 118.828 91.0447 113.65 101.161 104.323L97.5644 100.809Z"
          fill="#5A5564" />
    <path d="M86.1885 52.273C85.4855 44.9393 79.1594 42.4791 71.1579 41.7293V31.6309H64.9723V41.5419C63.3439 41.5419 61.6803 41.5419 60.0285 41.5419V31.6309H53.8897V41.7996H41.3428V48.4187C41.3428 48.4187 45.9117 48.3367 45.8414 48.4187C46.6652 48.3281 47.492 48.5608 48.1476 49.0678C48.8033 49.5748 49.2365 50.3165 49.356 51.1366V78.9719C49.3384 79.2611 49.2629 79.5439 49.1341 79.8035C49.0054 80.063 48.8258 80.2941 48.6062 80.4831C48.3907 80.6757 48.1384 80.8227 47.8646 80.9154C47.5908 81.008 47.3011 81.0443 47.0129 81.022C47.0949 81.0923 42.5143 81.022 42.5143 81.022L41.3428 88.4143H53.7726V98.7471H59.9582V88.5666H64.902V98.7002H71.0993V88.4846C81.5493 87.852 88.8361 85.2746 89.7499 75.4925C90.4879 67.6199 86.7859 64.1053 80.8698 62.6878C84.4663 60.9188 86.6922 57.6385 86.1885 52.273ZM77.5192 74.2741C77.5192 81.9592 64.3514 81.0806 60.1573 81.0806V67.4441C64.3514 67.4559 77.5192 66.2492 77.5192 74.2741ZM74.649 55.0612C74.649 62.0903 63.6602 61.2351 60.1691 61.2351V48.8404C63.6602 48.8404 74.649 47.7392 74.649 55.0612Z"
          fill="#F09242" />
    <path d="M63.9883 128C51.3313 127.998 38.9592 124.243 28.4362 117.209C17.9133 110.176 9.71205 100.18 4.8695 88.4864C0.0269407 76.7924 -1.23949 63.9251 1.23034 51.5114C3.70017 39.0977 9.79534 27.695 18.7452 18.7452C27.695 9.79534 39.0977 3.70017 51.5114 1.23034C63.9251 -1.23949 76.7924 0.0269407 88.4864 4.8695C100.18 9.71205 110.176 17.9133 117.209 28.4362C124.243 38.9592 127.998 51.3313 128 63.9883C128.002 72.3949 126.347 80.7194 123.131 88.4864C119.914 96.2533 115.199 103.311 109.255 109.255C103.311 115.199 96.2533 119.914 88.4864 123.131C80.7194 126.347 72.3949 128.002 63.9883 128ZM63.9883 4.99069C52.3273 4.99996 40.9308 8.46602 31.2392 14.9508C21.5476 21.4355 13.9961 30.6479 9.53893 41.4235C5.08181 52.1991 3.91924 64.0541 6.19816 75.4903C8.47709 86.9264 14.0952 97.4303 22.3424 105.674C30.5896 113.918 41.0957 119.532 52.5327 121.806C63.9698 124.081 75.8244 122.914 86.5982 118.452C97.372 113.991 106.581 106.436 113.062 96.7414C119.543 87.0472 123.005 75.6493 123.009 63.9883C123.012 56.2378 121.488 48.5627 118.522 41.4018C115.557 34.241 111.209 27.7349 105.728 22.2555C100.246 16.7762 93.7386 12.4311 86.5766 9.46862C79.4146 6.50618 71.7388 4.98453 63.9883 4.99069Z"
          fill="#282138" />
  </g>
  <defs>
    <clipPath id="clip0_26_662">
      <rect width="128" height="128" fill="white" />
    </clipPath>
  </defs>
</svg>
