<?xml version="1.0" encoding="UTF-8"?>
<svg xmlns="http://www.w3.org/2000/svg" width="128" height="128"
     viewBox="0 0 128 128">
  <path fill-rule="nonzero" fill="rgb(95.686275%, 95.686275%, 95.686275%)" fill-opacity="1"
        d="M 124 64 C 124 97.136719 97.136719 124 64 124 C 30.863281 124 4 97.136719 4 64 C 4 30.863281 30.863281 4 64 4 C 97.136719 4 124 30.863281 124 64 " />
  <path fill-rule="nonzero" fill="rgb(35.294118%, 33.333333%, 39.215686%)" fill-opacity="1"
        d="M 104.371094 26.863281 L 100.855469 30.378906 C 109.242188 39.546875 113.890625 51.527344 113.890625 63.953125 C 113.890625 76.378906 109.242188 88.359375 100.855469 97.527344 L 104.371094 101.042969 C 113.695312 90.925781 118.875 77.671875 118.875 63.914062 C 118.875 50.152344 113.695312 36.898438 104.371094 26.78125 Z M 104.371094 26.863281 " />
  <path fill-rule="nonzero" fill="rgb(35.294118%, 33.333333%, 39.215686%)" fill-opacity="1"
        d="M 30.460938 27.167969 C 39.628906 18.78125 51.609375 14.128906 64.035156 14.128906 C 76.460938 14.128906 88.441406 18.78125 97.609375 27.167969 L 101.125 23.652344 C 91.007812 14.328125 77.753906 9.148438 63.996094 9.148438 C 50.234375 9.148438 36.980469 14.328125 26.863281 23.652344 Z M 30.460938 27.167969 " />
  <path fill-rule="nonzero" fill="rgb(35.294118%, 33.333333%, 39.215686%)" fill-opacity="1"
        d="M 27.167969 97.5625 C 18.789062 88.394531 14.148438 76.425781 14.148438 64.007812 C 14.148438 51.585938 18.789062 39.617188 27.167969 30.449219 L 23.652344 26.933594 C 14.328125 37.050781 9.148438 50.304688 9.148438 64.066406 C 9.148438 77.824219 14.328125 91.078125 23.652344 101.195312 Z M 27.167969 97.5625 " />
  <path fill-rule="nonzero" fill="rgb(35.294118%, 33.333333%, 39.215686%)" fill-opacity="1"
        d="M 97.5625 100.808594 C 88.394531 109.195312 76.414062 113.847656 63.988281 113.847656 C 51.5625 113.847656 39.585938 109.195312 30.414062 100.808594 L 26.898438 104.324219 C 37.015625 113.648438 50.269531 118.828125 64.03125 118.828125 C 77.789062 118.828125 91.042969 113.648438 101.160156 104.324219 Z M 97.5625 100.808594 " />
  <path fill-rule="nonzero" fill="rgb(94.117647%, 57.254902%, 25.882353%)" fill-opacity="1"
        d="M 86.1875 52.273438 C 85.484375 44.9375 79.160156 42.480469 71.15625 41.730469 L 71.15625 31.632812 L 64.972656 31.632812 L 64.972656 41.542969 C 63.34375 41.542969 61.679688 41.542969 60.027344 41.542969 L 60.027344 31.632812 L 53.890625 31.632812 L 53.890625 41.800781 L 41.34375 41.800781 L 41.34375 48.417969 C 41.34375 48.417969 45.910156 48.335938 45.839844 48.417969 C 46.664062 48.328125 47.492188 48.5625 48.148438 49.066406 C 48.804688 49.574219 49.238281 50.316406 49.355469 51.136719 L 49.355469 78.972656 C 49.339844 79.261719 49.261719 79.542969 49.132812 79.804688 C 49.003906 80.0625 48.824219 80.292969 48.605469 80.484375 C 48.390625 80.675781 48.136719 80.824219 47.863281 80.914062 C 47.589844 81.007812 47.300781 81.042969 47.011719 81.023438 C 47.09375 81.09375 42.515625 81.023438 42.515625 81.023438 L 41.34375 88.414062 L 53.773438 88.414062 L 53.773438 98.746094 L 59.957031 98.746094 L 59.957031 88.566406 L 64.902344 88.566406 L 64.902344 98.699219 L 71.097656 98.699219 L 71.097656 88.484375 C 81.550781 87.851562 88.835938 85.273438 89.75 75.492188 C 90.488281 67.621094 86.785156 64.105469 80.871094 62.6875 C 84.464844 60.917969 86.691406 57.636719 86.1875 52.273438 Z M 77.519531 74.273438 C 77.519531 81.960938 64.351562 81.082031 60.15625 81.082031 L 60.15625 67.445312 C 64.351562 67.457031 77.519531 66.25 77.519531 74.273438 Z M 74.648438 55.0625 C 74.648438 62.089844 63.660156 61.234375 60.167969 61.234375 L 60.167969 48.839844 C 63.660156 48.839844 74.648438 47.738281 74.648438 55.0625 Z M 74.648438 55.0625 " />
  <path fill-rule="nonzero" fill="rgb(15.686275%, 12.941176%, 21.960784%)" fill-opacity="1"
        d="M 63.988281 128 C 51.332031 127.996094 38.960938 124.242188 28.4375 117.210938 C 17.914062 110.175781 9.710938 100.179688 4.871094 88.488281 C 0.0273438 76.792969 -1.238281 63.925781 1.230469 51.511719 C 3.699219 39.097656 9.796875 27.695312 18.746094 18.746094 C 27.695312 9.796875 39.097656 3.699219 51.511719 1.230469 C 63.925781 -1.238281 76.792969 0.0273438 88.488281 4.871094 C 100.179688 9.710938 110.175781 17.914062 117.210938 28.4375 C 124.242188 38.960938 127.996094 51.332031 128 63.988281 C 128.003906 72.394531 126.347656 80.71875 123.132812 88.488281 C 119.914062 96.253906 115.199219 103.3125 109.253906 109.253906 C 103.3125 115.199219 96.253906 119.914062 88.488281 123.132812 C 80.71875 126.347656 72.394531 128.003906 63.988281 128 Z M 63.988281 4.992188 C 52.328125 5 40.929688 8.464844 31.238281 14.949219 C 21.546875 21.433594 13.996094 30.648438 9.539062 41.421875 C 5.082031 52.199219 3.917969 64.054688 6.199219 75.492188 C 8.476562 86.925781 14.09375 97.429688 22.34375 105.675781 C 30.589844 113.917969 41.09375 119.53125 52.53125 121.804688 C 63.96875 124.082031 75.824219 122.914062 86.597656 118.453125 C 97.371094 113.992188 106.582031 106.4375 113.0625 96.742188 C 119.542969 87.046875 123.003906 75.648438 123.007812 63.988281 C 123.011719 56.238281 121.488281 48.5625 118.523438 41.402344 C 115.558594 34.242188 111.210938 27.734375 105.726562 22.253906 C 100.246094 16.777344 93.738281 12.429688 86.578125 9.46875 C 79.414062 6.507812 71.738281 4.984375 63.988281 4.992188 Z M 63.988281 4.992188 " />
</svg>
