<?xml version="1.0" encoding="UTF-8"?>
<svg xmlns="http://www.w3.org/2000/svg" width="128" height="128"
     viewBox="0 0 128 128">
  <defs>
    <linearGradient id="linear-pattern-0" gradientUnits="userSpaceOnUse" x1="-2.5" y1="33" x2="81.5" y2="60">
      <stop offset="0" stop-color="rgb(41.960784%, 94.117647%, 99.215686%)" stop-opacity="1" />
      <stop offset="1" stop-color="rgb(20.392157%, 28.235294%, 90.196078%)" stop-opacity="1" />
    </linearGradient>
    <linearGradient id="linear-pattern-1" gradientUnits="userSpaceOnUse" x1="34.5" y1="20" x2="122.191" y2="40.8883">
      <stop offset="0" stop-color="rgb(41.960784%, 94.117647%, 99.215686%)" stop-opacity="1" />
      <stop offset="0.455" stop-color="rgb(20.392157%, 28.235294%, 90.196078%)" stop-opacity="1" />
      <stop offset="1" stop-color="rgb(54.509804%, 23.529412%, 93.72549%)" stop-opacity="1" />
    </linearGradient>
  </defs>
  <path fill-rule="nonzero" fill="url(#linear-pattern-0)"
        d="M 45.316406 116.160156 C 43.773438 116.160156 42.238281 115.851562 40.777344 115.242188 C 37.871094 114.023438 35.609375 111.753906 34.410156 108.839844 L 0.890625 27.285156 C -0.304688 24.371094 -0.296875 21.164062 0.917969 18.257812 C 2.136719 15.351562 4.40625 13.089844 7.320312 11.890625 C 10.238281 10.695312 13.441406 10.703125 16.347656 11.917969 C 19.253906 13.136719 21.515625 15.40625 22.714844 18.320312 L 56.230469 99.875 C 57.429688 102.792969 57.421875 105.996094 56.203125 108.902344 C 54.988281 111.808594 52.714844 114.070312 49.800781 115.269531 C 48.359375 115.867188 46.832031 116.160156 45.316406 116.160156 Z M 11.796875 16.460938 C 11 16.460938 10.183594 16.613281 9.390625 16.933594 C 7.820312 17.578125 6.605469 18.792969 5.949219 20.355469 C 5.296875 21.917969 5.296875 23.644531 5.933594 25.214844 L 39.449219 106.769531 C 40.09375 108.339844 41.3125 109.558594 42.875 110.210938 C 44.433594 110.863281 46.160156 110.863281 47.730469 110.230469 C 50.964844 108.902344 52.515625 105.179688 51.191406 101.945312 L 17.671875 20.390625 C 16.664062 17.941406 14.296875 16.460938 11.796875 16.460938 Z M 11.796875 16.460938 " />
  <path fill-rule="nonzero" fill="url(#linear-pattern-1)"
        d="M 127.089844 18.257812 C 125.871094 15.351562 123.601562 13.089844 120.6875 11.890625 C 114.675781 9.421875 107.765625 12.300781 105.296875 18.320312 L 82.71875 73.25 L 85.664062 80.417969 L 110.335938 20.390625 C 110.980469 18.820312 112.195312 17.605469 113.757812 16.949219 C 114.550781 16.625 115.375 16.460938 116.199219 16.460938 C 117.027344 16.460938 117.835938 16.625 118.617188 16.941406 C 121.851562 18.265625 123.402344 21.992188 122.078125 25.222656 L 92.527344 97.125 L 66.855469 34.660156 L 89.066406 34.660156 C 95.570312 34.660156 100.863281 29.363281 100.863281 22.863281 C 100.863281 16.359375 95.570312 11.066406 89.066406 11.066406 L 50.429688 11.066406 C 48.523438 10.867188 46.578125 11.148438 44.753906 11.902344 C 41.839844 13.101562 39.566406 15.363281 38.351562 18.265625 C 37.132812 21.171875 37.125 24.378906 38.324219 27.292969 L 71.839844 108.847656 C 73.039062 111.765625 75.300781 114.035156 78.207031 115.25 C 79.667969 115.859375 81.210938 116.167969 82.746094 116.167969 C 84.28125 116.167969 85.78125 115.867188 87.234375 115.277344 C 90.148438 114.078125 92.417969 111.816406 93.636719 108.910156 C 93.789062 108.53125 93.925781 108.148438 94.042969 107.757812 L 127.105469 27.292969 C 128.304688 24.378906 128.296875 21.171875 127.078125 18.265625 Z M 59.21875 16.515625 L 89.066406 16.515625 C 92.5625 16.515625 95.414062 19.355469 95.414062 22.863281 C 95.414062 26.367188 92.574219 29.210938 89.066406 29.210938 L 64.621094 29.210938 L 60.144531 18.320312 C 59.882812 17.675781 59.554688 17.078125 59.191406 16.503906 C 59.191406 16.503906 59.210938 16.503906 59.210938 16.515625 Z M 85.164062 110.230469 C 83.59375 110.875 81.867188 110.863281 80.304688 110.210938 C 78.742188 109.558594 77.527344 108.332031 76.882812 106.769531 L 43.363281 25.214844 C 42.71875 23.644531 42.726562 21.917969 43.382812 20.355469 C 44.035156 18.792969 45.261719 17.578125 46.824219 16.933594 C 47.605469 16.613281 48.421875 16.449219 49.238281 16.449219 C 50.054688 16.449219 50.902344 16.613281 51.683594 16.941406 C 53.242188 17.59375 54.460938 18.820312 55.105469 20.382812 L 88.621094 101.9375 C 89.949219 105.171875 88.40625 108.894531 85.164062 110.21875 Z M 85.164062 110.230469 " />
</svg>
