<svg width="128" height="128" viewBox="0 0 128 128" fill="none" xmlns="http://www.w3.org/2000/svg">
  <path d="M45.3158 116.159C43.7721 116.159 42.2374 115.85 40.7754 115.242C37.8695 114.025 35.6084 111.754 34.4097 108.84L0.892246 27.2843C-0.306428 24.3693 -0.297347 21.1638 0.919488 18.2579C2.13632 15.3521 4.40654 13.0909 7.3215 11.8922C10.2365 10.6936 13.442 10.7027 16.3479 11.9195C19.2537 13.1363 21.5149 15.4065 22.7136 18.3215L56.231 99.8767C57.4297 102.792 57.4206 105.997 56.2038 108.903C54.9869 111.809 52.7167 114.07 49.8018 115.269C48.3579 115.868 46.8323 116.159 45.3158 116.159ZM11.7984 16.4599C10.9992 16.4599 10.182 16.6143 9.39193 16.9321C7.82094 17.5769 6.60411 18.7937 5.95028 20.3556C5.29646 21.9175 5.29646 23.6429 5.93212 25.2139L39.4496 106.769C40.0943 108.34 41.3112 109.557 42.8731 110.211C44.435 110.865 46.1603 110.865 47.7313 110.229C50.9641 108.903 52.5169 105.18 51.1911 101.947L17.6737 20.3919C16.6657 17.9401 14.2956 16.4599 11.7984 16.4599Z"
        fill="url(#paint0_linear_187_37)" />
  <path d="M127.089 18.2582C125.872 15.3523 123.602 13.0912 120.687 11.8925C114.676 9.42255 107.765 12.3012 105.295 18.3218L82.7202 73.2519L85.6624 80.4167L110.335 20.3922C110.98 18.8212 112.197 17.6044 113.759 16.9506C114.549 16.6237 115.375 16.4602 116.201 16.4602C117.028 16.4602 117.836 16.6237 118.617 16.9415C121.85 18.2673 123.402 21.9905 122.077 25.2232L92.5275 97.1255L66.8559 34.6583H89.0677C95.5696 34.6583 100.864 29.3641 100.864 22.8622C100.864 16.3603 95.5696 11.0662 89.0677 11.0662H50.4287C48.5217 10.8664 46.5784 11.1479 44.7531 11.9016C41.8382 13.1003 39.568 15.3614 38.3511 18.2673C37.1343 21.1732 37.1252 24.3787 38.3239 27.2937L71.8413 108.849C73.04 111.764 75.3011 114.034 78.207 115.251C79.669 115.859 81.2128 116.168 82.7475 116.168C84.2821 116.168 85.7805 115.868 87.2334 115.278C90.1483 114.079 92.4186 111.818 93.6354 108.912C93.7898 108.531 93.926 108.15 94.044 107.759L127.107 27.2937C128.306 24.3787 128.297 21.1732 127.08 18.2673L127.089 18.2582ZM59.2189 16.5147H89.0677C92.5639 16.5147 95.4153 19.357 95.4153 22.8622C95.4153 26.3674 92.5729 29.2097 89.0677 29.2097H64.6221L60.1452 18.3218C59.8819 17.677 59.5549 17.0777 59.1917 16.5056C59.1917 16.5056 59.2099 16.5056 59.2099 16.5147H59.2189ZM85.163 110.229C83.592 110.874 81.8666 110.865 80.3047 110.211C78.7428 109.557 77.526 108.331 76.8812 106.769L43.3638 25.2142C42.719 23.6432 42.7281 21.9178 43.3819 20.3559C44.0357 18.794 45.2617 17.5772 46.8236 16.9324C47.6045 16.6146 48.4218 16.4511 49.2391 16.4511C50.0564 16.4511 50.9009 16.6146 51.6818 16.9415C53.2437 17.5953 54.4606 18.8212 55.1053 20.3831L88.6228 101.938C89.9486 105.171 88.4048 108.894 85.163 110.22V110.229Z"
        fill="url(#paint1_linear_187_37)" />
  <defs>
    <linearGradient id="paint0_linear_187_37" x1="-2.5" y1="33" x2="81.5" y2="60" gradientUnits="userSpaceOnUse">
      <stop stop-color="#6BF0FD" />
      <stop offset="1" stop-color="#3448E6" />
    </linearGradient>
    <linearGradient id="paint1_linear_187_37" x1="34.5" y1="20" x2="122.191" y2="40.8883"
                    gradientUnits="userSpaceOnUse">
      <stop stop-color="#6BF0FD" />
      <stop offset="0.455" stop-color="#3448E6" />
      <stop offset="1" stop-color="#8B3CEF" />
    </linearGradient>
  </defs>
</svg>
