<svg width="128" height="128" viewBox="0 0 128 128" fill="none" xmlns="http://www.w3.org/2000/svg">
  <path d="M39.1419 53.7869L63.9995 28.9299L88.8699 53.7997L103.334 39.3357L63.9995 0L24.6785 39.3229L39.1419 53.7869ZM0.000488281 63.998L14.4649 49.5336L28.9284 63.9971L14.4641 78.4614L0.000488281 63.998ZM39.1419 74.2131L63.9995 99.0701L88.8692 74.201L103.341 88.6573L103.334 88.665L63.9995 128L24.6772 88.6784L24.6567 88.6579L39.1419 74.2131ZM99.0729 64.006L113.537 49.5416L128.001 64.0051L113.536 78.4695L99.0729 64.006Z"
        fill="#AAAAAA" />
  <path d="M78.6703 63.9923H78.6767L63.9996 49.3152L53.1529 60.1619H53.1522L51.9062 61.4086L49.3359 63.9795L49.3154 63.9994L49.3359 64.0205L63.9996 78.6848L78.6767 64.0077L78.6838 63.9994L78.6703 63.9923Z"
        fill="#AAAAAA" />
</svg>
