<?xml version="1.0" encoding="UTF-8"?>
<svg xmlns="http://www.w3.org/2000/svg" width="128" height="128"
     viewBox="0 0 128 128">
  <path fill-rule="nonzero" fill="rgb(66.666667%, 66.666667%, 66.666667%)" fill-opacity="1"
        d="M 39.140625 53.785156 L 64 28.929688 L 88.871094 53.800781 L 103.335938 39.335938 L 64 0 L 24.679688 39.324219 Z M 0 63.996094 L 14.464844 49.535156 L 28.929688 63.996094 L 14.464844 78.460938 Z M 39.140625 74.214844 L 64 99.070312 L 88.871094 74.199219 L 103.339844 88.65625 L 103.335938 88.664062 L 64 128 L 24.675781 88.679688 L 24.65625 88.65625 Z M 99.074219 64.007812 L 113.535156 49.542969 L 128 64.003906 L 113.535156 78.46875 Z M 99.074219 64.007812 " />
  <path fill-rule="nonzero" fill="rgb(66.666667%, 66.666667%, 66.666667%)" fill-opacity="1"
        d="M 78.671875 63.992188 L 78.675781 63.992188 L 64 49.316406 L 53.152344 60.160156 L 51.90625 61.410156 L 49.316406 64 L 64 78.683594 L 78.683594 64 Z M 78.671875 63.992188 " />
</svg>
