<?xml version="1.0" encoding="UTF-8"?>
<svg xmlns="http://www.w3.org/2000/svg" width="128" height="128"
     viewBox="0 0 128 128">
  <path fill-rule="nonzero" fill="rgb(66.666667%, 66.666667%, 66.666667%)" fill-opacity="1"
        d="M 11.570312 38.910156 L 11.570312 89.089844 C 11.570312 92.3125 13.261719 95.230469 16.078125 96.871094 L 59.546875 121.957031 C 62.308594 123.546875 65.742188 123.546875 68.503906 121.957031 L 111.972656 96.871094 C 114.738281 95.28125 116.480469 92.3125 116.480469 89.089844 L 116.480469 38.910156 C 116.480469 35.6875 114.789062 32.769531 111.972656 31.128906 L 68.503906 6.042969 C 65.742188 4.453125 62.308594 4.453125 59.546875 6.042969 L 16.078125 31.128906 C 13.3125 32.71875 11.621094 35.6875 11.621094 38.910156 Z M 11.570312 38.910156 " />
  <path fill-rule="nonzero" fill="rgb(80%, 80%, 80%)" fill-opacity="1"
        d="M 73.472656 73.726562 L 67.277344 90.726562 C 67.125 91.1875 67.125 91.699219 67.277344 92.210938 L 77.925781 121.445312 L 90.265625 114.328125 L 75.46875 73.726562 C 75.109375 72.804688 73.832031 72.804688 73.472656 73.726562 Z M 73.472656 73.726562 " />
  <path fill-rule="nonzero" fill="rgb(80%, 80%, 80%)" fill-opacity="1"
        d="M 85.914062 45.160156 C 85.554688 44.238281 84.273438 44.238281 83.917969 45.160156 L 77.722656 62.15625 C 77.566406 62.617188 77.566406 63.128906 77.722656 63.640625 L 95.179688 111.515625 L 107.519531 104.398438 L 85.914062 45.210938 Z M 85.914062 45.160156 " />
  <path fill-rule="nonzero" fill="rgb(73.333333%, 73.333333%, 73.333333%)" fill-opacity="1"
        d="M 64 7.9375 C 64.308594 7.9375 64.613281 8.039062 64.871094 8.191406 L 111.871094 35.328125 C 112.433594 35.636719 112.742188 36.25 112.742188 36.863281 L 112.742188 91.136719 C 112.742188 91.75 112.382812 92.363281 111.871094 92.671875 L 64.871094 119.808594 C 64.613281 119.960938 64.308594 120.0625 64 120.0625 C 63.691406 120.0625 63.386719 119.960938 63.128906 119.808594 L 16.128906 92.671875 C 15.566406 92.363281 15.257812 91.75 15.257812 91.136719 L 15.257812 36.8125 C 15.257812 36.199219 15.617188 35.585938 16.128906 35.277344 L 63.128906 8.140625 C 63.386719 7.988281 63.691406 7.886719 64 7.886719 Z M 64 0 C 62.308594 0 60.671875 0.410156 59.136719 1.28125 L 12.132812 28.414062 C 9.113281 30.15625 7.269531 33.332031 7.269531 36.8125 L 7.269531 91.085938 C 7.269531 94.566406 9.113281 97.742188 12.132812 99.480469 L 59.136719 126.617188 C 60.621094 127.488281 62.308594 127.898438 64 127.898438 C 65.691406 127.898438 67.328125 127.488281 68.863281 126.617188 L 115.867188 99.480469 C 118.886719 97.742188 120.730469 94.566406 120.730469 91.085938 L 120.730469 36.8125 C 120.730469 33.332031 118.886719 30.15625 115.867188 28.414062 L 68.8125 1.28125 C 67.328125 0.410156 65.636719 0 63.949219 0 Z M 64 0 " />
  <path fill-rule="nonzero" fill="rgb(66.666667%, 66.666667%, 66.666667%)" fill-opacity="1"
        d="M 32.871094 111.566406 L 37.222656 99.6875 L 45.925781 106.90625 L 37.785156 114.382812 Z M 32.871094 111.566406 " />
  <path fill-rule="nonzero" fill="rgb(100%, 100%, 100%)" fill-opacity="1"
        d="M 60.007812 32.972656 L 48.078125 32.972656 C 47.207031 32.972656 46.386719 33.535156 46.082031 34.355469 L 20.53125 104.398438 L 32.871094 111.515625 L 61.03125 34.355469 C 61.285156 33.636719 60.773438 32.921875 60.058594 32.921875 Z M 60.007812 32.972656 " />
  <path fill-rule="nonzero" fill="rgb(100%, 100%, 100%)" fill-opacity="1"
        d="M 80.894531 32.972656 L 68.964844 32.972656 C 68.097656 32.972656 67.277344 33.535156 66.96875 34.355469 L 37.785156 114.328125 L 50.125 121.445312 L 81.867188 34.355469 C 82.125 33.636719 81.613281 32.921875 80.894531 32.921875 Z M 80.894531 32.972656 " />
</svg>
