<?xml version="1.0" encoding="UTF-8"?>
<svg xmlns="http://www.w3.org/2000/svg" width="128" height="128"
     viewBox="0 0 128 128">
  <path fill-rule="nonzero" fill="rgb(100%, 100%, 100%)" fill-opacity="1"
        d="M 64 121.074219 C 95.519531 121.074219 121.074219 95.519531 121.074219 64 C 121.074219 32.480469 95.519531 6.925781 64 6.925781 C 32.480469 6.925781 6.925781 32.480469 6.925781 64 C 6.925781 95.519531 32.480469 121.074219 64 121.074219 Z M 64 121.074219 " />
  <path fill-rule="nonzero" fill="rgb(20.392157%, 36.470588%, 61.568627%)" fill-opacity="1"
        d="M 64 0 C 51.34375 0 38.96875 3.753906 28.445312 10.785156 C 17.917969 17.820312 9.714844 27.8125 4.871094 39.507812 C 0.0273438 51.203125 -1.238281 64.070312 1.230469 76.484375 C 3.699219 88.902344 9.792969 100.304688 18.746094 109.253906 C 27.695312 118.203125 39.097656 124.300781 51.515625 126.769531 C 63.929688 129.238281 76.796875 127.972656 88.492188 123.128906 C 100.1875 118.285156 110.183594 110.082031 117.214844 99.554688 C 124.246094 89.03125 128 76.65625 128 64 C 128.023438 55.621094 126.398438 47.316406 123.214844 39.566406 C 120.027344 31.8125 115.347656 24.765625 109.441406 18.820312 C 103.53125 12.878906 96.511719 8.15625 88.777344 4.929688 C 81.046875 1.699219 72.753906 0.0234375 64.371094 0 Z M 65.085938 66.167969 L 58.421875 88.640625 L 94.0625 88.640625 C 94.300781 88.632812 94.535156 88.667969 94.753906 88.753906 C 94.976562 88.835938 95.179688 88.960938 95.351562 89.121094 C 95.523438 89.28125 95.664062 89.476562 95.761719 89.691406 C 95.859375 89.90625 95.914062 90.140625 95.921875 90.375 L 95.921875 90.964844 L 92.824219 101.65625 C 92.6875 102.160156 92.382812 102.605469 91.960938 102.914062 C 91.539062 103.226562 91.023438 103.382812 90.5 103.359375 L 35.953125 103.359375 L 45.09375 72.214844 L 34.867188 75.3125 L 37.191406 68.183594 L 47.417969 65.085938 L 60.28125 21.386719 C 60.421875 20.882812 60.726562 20.441406 61.148438 20.132812 C 61.570312 19.824219 62.082031 19.664062 62.605469 19.679688 L 76.398438 19.679688 C 76.632812 19.671875 76.867188 19.710938 77.089844 19.792969 C 77.3125 19.875 77.515625 20 77.6875 20.164062 C 77.859375 20.324219 78 20.519531 78.097656 20.734375 C 78.195312 20.949219 78.25 21.179688 78.257812 21.414062 L 78.257812 22.003906 L 67.410156 58.886719 L 77.636719 55.785156 L 75.46875 63.226562 Z M 65.085938 66.167969 " />
</svg>
