<svg width="128" height="128" viewBox="0 0 128 128" fill="none" xmlns="http://www.w3.org/2000/svg">
  <g clip-path="url(#clip0_26_648)">
    <path d="M63.9999 121.073C95.5205 121.073 121.073 95.5205 121.073 63.9999C121.073 32.4793 95.5205 6.92676 63.9999 6.92676C32.4793 6.92676 6.92676 32.4793 6.92676 63.9999C6.92676 95.5205 32.4793 121.073 63.9999 121.073Z"
          fill="white" />
    <path d="M64 0C51.342 0 38.9683 3.75353 28.4435 10.7859C17.9188 17.8184 9.71575 27.8138 4.87174 39.5083C0.02773 51.2027 -1.23968 64.071 1.22977 76.4858C3.69922 88.9006 9.79463 100.304 18.7452 109.255C27.6958 118.205 39.0995 124.301 51.5142 126.77C63.929 129.24 76.7973 127.972 88.4918 123.128C100.186 118.284 110.182 110.081 117.214 99.5565C124.246 89.0317 128 76.658 128 64C128.024 55.6198 126.398 47.3169 123.214 39.5652C120.029 31.8136 115.349 24.7651 109.441 18.8221C103.532 12.8792 96.5113 8.15815 88.7784 4.92864C81.0455 1.69914 72.7521 0.0243846 64.3719 0H64ZM65.0848 66.1695L58.4213 88.6392H94.063C94.2991 88.6309 94.5345 88.6693 94.7558 88.752C94.977 88.8348 95.1798 88.9604 95.3525 89.1216C95.5252 89.2828 95.6645 89.4764 95.7623 89.6915C95.8601 89.9065 95.9145 90.1387 95.9225 90.3748V90.9637L92.8233 101.656C92.6866 102.162 92.3821 102.606 91.9597 102.916C91.5373 103.225 91.0222 103.382 90.4988 103.361H35.9516L45.0945 72.2131L34.8669 75.3123L37.1913 68.184L47.4189 65.0847L60.2809 21.385C60.4225 20.8822 60.7282 20.4412 61.1495 20.1323C61.5707 19.8234 62.0832 19.6643 62.6054 19.6804H76.3971C76.6332 19.6721 76.8686 19.7104 77.0899 19.7932C77.3112 19.876 77.514 20.0015 77.6867 20.1627C77.8594 20.3239 77.9986 20.5176 78.0964 20.7326C78.1942 20.9477 78.2487 21.1799 78.2567 21.416V22.0048L67.4092 58.8862L77.6368 55.7869L75.4673 63.2252L65.0848 66.1695Z"
          fill="#345D9D" />
  </g>
  <defs>
    <clipPath id="clip0_26_648">
      <rect width="128" height="128" fill="white" />
    </clipPath>
  </defs>
</svg>
