<svg width="128" height="128" viewBox="0 0 128 128" fill="none" xmlns="http://www.w3.org/2000/svg">
  <path d="M64 0C99.3524 0 128 28.6476 128 64C128 99.3524 99.3524 128 64 128C28.6476 128 0 99.3524 0 64C0 28.6476 28.6476 0 64 0Z"
        fill="white" />
  <path d="M64.0009 123.734C96.9907 123.734 123.734 96.9907 123.734 64.0009C123.734 31.0111 96.9907 4.26758 64.0009 4.26758C31.0111 4.26758 4.26758 31.0111 4.26758 64.0009C4.26758 96.9907 31.0111 123.734 64.0009 123.734Z"
        fill="#216C58" stroke="#216C58" stroke-width="0.7" />
  <path d="M119.467 63.9999C119.467 94.7808 94.7808 119.467 63.9999 119.467C33.2189 119.467 8.5332 94.7808 8.5332 63.9999C8.5332 33.2189 33.2189 8.5332 63.9999 8.5332C94.7808 8.5332 119.467 33.2189 119.467 63.9999Z"
        fill="#216C58" />
  <path d="M62.7809 90.8184H56.3809V97.2184H62.7809V90.8184Z" fill="#216C58" />
  <path d="M73.4479 90.8184H67.0479V97.2184H73.4479V90.8184Z" fill="#216C58" />
  <path d="M45.7134 24.3809H86.2467C87.4658 24.3809 88.3801 25.5999 88.3801 26.5142V27.7332C88.3801 28.9523 87.4658 29.8666 86.2467 29.8666H45.7134C44.4944 29.8666 43.5801 28.9523 43.5801 27.7332V26.5142C43.5801 25.5999 44.7991 24.3809 45.7134 24.3809Z"
        fill="white" />
  <path d="M64.0004 32V104.533C64.0004 105.752 63.0861 106.667 61.867 106.667H60.648C59.4289 106.667 58.5146 105.752 58.5146 104.533V32H64.0004Z"
        fill="white" />
  <path d="M72.5336 32V104.533C72.5336 105.752 71.6193 106.667 70.4002 106.667H69.1812C67.9621 106.667 67.0479 105.752 67.0479 104.533V32H72.5336Z"
        fill="white" />
  <path d="M59.4294 49.9819C60.9532 49.3723 62.7818 49.0676 65.2198 49.0676C68.5722 49.0676 71.0103 49.6771 72.8389 50.8962C74.0579 51.8104 74.9722 52.7247 75.5817 54.2485C76.1913 55.4676 77.1056 56.6866 78.9341 56.6866H88.6865C90.5151 56.6866 92.0389 55.1628 91.7341 53.3342C91.4294 50.2866 90.2103 47.8485 88.3818 45.4104C86.2484 42.3628 82.896 40.2295 78.9341 38.7057C74.9722 37.1819 70.4008 36.2676 65.2198 36.2676C60.0389 36.2676 55.4675 37.1819 51.5056 38.7057C47.5437 40.2295 44.1913 42.6676 41.7532 45.4104C39.3151 48.4581 38.096 51.8104 38.096 55.7723C38.096 60.6485 39.9246 64.6104 43.5818 67.3533C47.2389 70.0962 51.8103 72.2295 57.6008 73.4485L65.2198 74.9723C67.6579 75.5819 69.7913 76.1914 71.3151 76.8009C72.8389 77.4104 74.0579 78.02 74.9722 78.9342C75.5818 79.5438 76.1913 80.4581 76.1913 81.6771C76.1913 82.8961 75.8865 83.8104 74.9722 85.0295C74.0579 85.9438 72.8389 86.8581 71.0103 87.4676C69.4865 88.0771 67.3532 88.3819 64.9151 88.3819C62.477 88.3819 60.3437 88.0771 58.5151 87.4676C56.6865 86.8581 55.1627 85.9438 54.2484 84.7247C53.6389 83.8104 53.0294 82.8961 52.7246 81.9819C52.4198 80.4581 51.2008 79.239 49.3722 79.239H39.6198C37.7913 79.239 36.2675 80.7628 36.5722 82.5914C36.877 86.2485 38.096 89.2962 40.2294 92.039C42.6675 95.0866 46.0198 97.5247 50.2865 99.0485C54.5532 100.572 59.4294 101.487 65.2198 101.487C71.0103 101.487 75.8865 100.877 79.8484 99.0485C84.1151 97.5247 87.1627 95.3914 89.296 92.3438C91.4294 89.2962 92.6484 85.9438 92.6484 81.9819C92.6484 79.239 92.0389 76.8009 90.8198 74.6676C89.6008 72.5342 88.077 70.7057 86.2484 69.1819C84.4198 67.6581 81.9818 66.439 79.5437 65.22C77.1056 64.3057 74.0579 63.3914 71.0103 62.7819L64.9151 61.5628C63.3913 61.2581 62.1722 60.9533 60.9532 60.6485C59.7341 60.3438 58.5151 59.7342 57.6008 59.1247C56.6865 58.5152 56.077 57.9057 55.4675 57.2961C55.1627 56.6866 54.8579 56.0771 54.8579 55.1628C54.8579 54.2485 55.1627 53.0295 55.7722 52.42C56.9913 51.2009 57.9056 50.5914 59.4294 49.9819Z"
        fill="white" stroke="#216C58" stroke-width="0.7" />
  <path d="M64.0004 46.0176H58.5146V53.3319H64.0004V46.0176Z" fill="white" />
  <path d="M64.0004 72.5332H58.5146V80.1523H64.0004V72.5332Z" fill="white" />
  <path d="M64.0004 94.7793H58.5146V102.094H64.0004V94.7793Z" fill="white" />
  <path d="M72.8373 46.0176H67.3516V53.3319H72.8373V46.0176Z" fill="white" />
  <path d="M72.8373 72.5332H67.3516V80.1523H72.8373V72.5332Z" fill="white" />
  <path d="M72.8373 94.7793H67.3516V102.094H72.8373V94.7793Z" fill="white" />
  <path fill-rule="evenodd" clip-rule="evenodd"
        d="M117.639 67.0475C116.725 67.0475 116.115 67.657 116.115 68.5713C113.677 95.3903 91.4296 116.419 64.001 116.419C36.5724 116.419 14.3248 95.3903 11.8867 68.5713C11.8867 67.657 10.9724 67.0475 10.3629 67.0475C9.4486 67.0475 8.83908 67.9618 8.83908 68.8761C11.2772 97.2189 35.0486 119.467 64.001 119.467C92.9534 119.467 116.725 97.2189 119.163 68.8761C119.468 67.9618 118.553 67.0475 117.639 67.0475ZM10.3629 60.9523C11.2772 60.9523 11.8867 60.3427 11.8867 59.4284C14.3248 32.6094 36.5724 11.8856 64.001 11.8856C91.4296 11.8856 113.677 32.9142 116.115 59.4284C116.115 60.3427 117.03 60.9523 117.639 60.9523C118.553 60.9523 119.163 60.038 119.163 59.1237C116.725 30.7808 92.9534 8.5332 64.001 8.5332C35.0486 8.5332 11.2772 30.7808 8.83908 59.1237C8.53431 60.038 9.4486 60.9523 10.3629 60.9523Z"
        fill="white" />
</svg>
