<?xml version="1.0" encoding="UTF-8"?>
<svg xmlns="http://www.w3.org/2000/svg" width="128" height="128"
     viewBox="0 0 128 128">
  <path fill-rule="nonzero" fill="rgb(100%, 100%, 100%)" fill-opacity="1"
        d="M 64 0 C 99.351562 0 128 28.648438 128 64 C 128 99.351562 99.351562 128 64 128 C 28.648438 128 0 99.351562 0 64 C 0 28.648438 28.648438 0 64 0 Z M 64 0 " />
  <path fill-rule="nonzero" fill="rgb(12.941176%, 42.352941%, 34.509804%)" fill-opacity="1" stroke-width="0.7"
        stroke-linecap="butt" stroke-linejoin="miter" stroke="rgb(12.941176%, 42.352941%, 34.509804%)"
        stroke-opacity="1" stroke-miterlimit="4"
        d="M 64 123.734375 C 96.992188 123.734375 123.734375 96.992188 123.734375 64 C 123.734375 31.011719 96.992188 4.269531 64 4.269531 C 31.011719 4.269531 4.269531 31.011719 4.269531 64 C 4.269531 96.992188 31.011719 123.734375 64 123.734375 Z M 64 123.734375 " />
  <path fill-rule="nonzero" fill="rgb(12.941176%, 42.352941%, 34.509804%)" fill-opacity="1"
        d="M 119.46875 64 C 119.46875 94.78125 94.78125 119.46875 64 119.46875 C 33.21875 119.46875 8.53125 94.78125 8.53125 64 C 8.53125 33.21875 33.21875 8.53125 64 8.53125 C 94.78125 8.53125 119.46875 33.21875 119.46875 64 Z M 119.46875 64 " />
  <path fill-rule="nonzero" fill="rgb(12.941176%, 42.352941%, 34.509804%)" fill-opacity="1"
        d="M 62.78125 90.820312 L 56.382812 90.820312 L 56.382812 97.21875 L 62.78125 97.21875 Z M 62.78125 90.820312 " />
  <path fill-rule="nonzero" fill="rgb(12.941176%, 42.352941%, 34.509804%)" fill-opacity="1"
        d="M 73.449219 90.820312 L 67.046875 90.820312 L 67.046875 97.21875 L 73.449219 97.21875 Z M 73.449219 90.820312 " />
  <path fill-rule="nonzero" fill="rgb(100%, 100%, 100%)" fill-opacity="1"
        d="M 45.714844 24.382812 L 86.246094 24.382812 C 87.464844 24.382812 88.378906 25.601562 88.378906 26.515625 L 88.378906 27.734375 C 88.378906 28.953125 87.464844 29.867188 86.246094 29.867188 L 45.714844 29.867188 C 44.496094 29.867188 43.582031 28.953125 43.582031 27.734375 L 43.582031 26.515625 C 43.582031 25.601562 44.800781 24.382812 45.714844 24.382812 Z M 45.714844 24.382812 " />
  <path fill-rule="nonzero" fill="rgb(100%, 100%, 100%)" fill-opacity="1"
        d="M 64 32 L 64 104.53125 C 64 105.753906 63.085938 106.667969 61.867188 106.667969 L 60.648438 106.667969 C 59.429688 106.667969 58.515625 105.753906 58.515625 104.53125 L 58.515625 32 Z M 64 32 " />
  <path fill-rule="nonzero" fill="rgb(100%, 100%, 100%)" fill-opacity="1"
        d="M 72.535156 32 L 72.535156 104.53125 C 72.535156 105.753906 71.621094 106.667969 70.398438 106.667969 L 69.179688 106.667969 C 67.960938 106.667969 67.046875 105.753906 67.046875 104.53125 L 67.046875 32 Z M 72.535156 32 " />
  <path fill-rule="nonzero" fill="rgb(100%, 100%, 100%)" fill-opacity="1" stroke-width="0.7" stroke-linecap="butt"
        stroke-linejoin="miter" stroke="rgb(12.941176%, 42.352941%, 34.509804%)" stroke-opacity="1"
        stroke-miterlimit="4"
        d="M 59.429688 49.980469 C 60.953125 49.371094 62.78125 49.066406 65.21875 49.066406 C 68.570312 49.066406 71.011719 49.675781 72.839844 50.894531 C 74.058594 51.808594 74.972656 52.726562 75.582031 54.25 C 76.191406 55.46875 77.105469 56.6875 78.933594 56.6875 L 88.6875 56.6875 C 90.515625 56.6875 92.039062 55.164062 91.734375 53.335938 C 91.429688 50.285156 90.210938 47.847656 88.382812 45.410156 C 86.25 42.363281 82.894531 40.230469 78.933594 38.707031 C 74.972656 37.183594 70.402344 36.269531 65.21875 36.269531 C 60.039062 36.269531 55.46875 37.183594 51.503906 38.707031 C 47.542969 40.230469 44.191406 42.667969 41.753906 45.410156 C 39.316406 48.457031 38.097656 51.808594 38.097656 55.773438 C 38.097656 60.648438 39.925781 64.609375 43.582031 67.351562 C 47.238281 70.097656 51.808594 72.230469 57.601562 73.449219 L 65.21875 74.972656 C 67.65625 75.582031 69.792969 76.191406 71.316406 76.800781 C 72.839844 77.410156 74.058594 78.019531 74.972656 78.933594 C 75.582031 79.542969 76.191406 80.457031 76.191406 81.675781 C 76.191406 82.894531 75.886719 83.808594 74.972656 85.03125 C 74.058594 85.945312 72.839844 86.859375 71.011719 87.46875 C 69.488281 88.078125 67.351562 88.382812 64.914062 88.382812 C 62.476562 88.382812 60.34375 88.078125 58.515625 87.46875 C 56.6875 86.859375 55.164062 85.945312 54.25 84.726562 C 53.640625 83.808594 53.03125 82.894531 52.722656 81.980469 C 52.417969 80.457031 51.199219 79.238281 49.371094 79.238281 L 39.621094 79.238281 C 37.792969 79.238281 36.265625 80.761719 36.570312 82.589844 C 36.878906 86.25 38.097656 89.296875 40.230469 92.039062 C 42.667969 95.085938 46.019531 97.523438 50.285156 99.046875 C 54.554688 100.570312 59.429688 101.488281 65.21875 101.488281 C 71.011719 101.488281 75.886719 100.878906 79.847656 99.046875 C 84.113281 97.523438 87.164062 95.390625 89.296875 92.34375 C 91.429688 89.296875 92.648438 85.945312 92.648438 81.980469 C 92.648438 79.238281 92.039062 76.800781 90.820312 74.667969 C 89.601562 72.535156 88.078125 70.707031 86.25 69.183594 C 84.417969 67.65625 81.980469 66.4375 79.542969 65.21875 C 77.105469 64.304688 74.058594 63.390625 71.011719 62.78125 L 64.914062 61.5625 C 63.390625 61.257812 62.171875 60.953125 60.953125 60.648438 C 59.734375 60.34375 58.515625 59.734375 57.601562 59.125 C 56.6875 58.515625 56.078125 57.90625 55.46875 57.296875 C 55.164062 56.6875 54.859375 56.078125 54.859375 55.164062 C 54.859375 54.25 55.164062 53.03125 55.773438 52.421875 C 56.992188 51.199219 57.90625 50.589844 59.429688 49.980469 Z M 59.429688 49.980469 " />
  <path fill-rule="nonzero" fill="rgb(100%, 100%, 100%)" fill-opacity="1"
        d="M 64 46.019531 L 58.515625 46.019531 L 58.515625 53.332031 L 64 53.332031 Z M 64 46.019531 " />
  <path fill-rule="nonzero" fill="rgb(100%, 100%, 100%)" fill-opacity="1"
        d="M 64 72.53125 L 58.515625 72.53125 L 58.515625 80.152344 L 64 80.152344 Z M 64 72.53125 " />
  <path fill-rule="nonzero" fill="rgb(100%, 100%, 100%)" fill-opacity="1"
        d="M 64 94.78125 L 58.515625 94.78125 L 58.515625 102.09375 L 64 102.09375 Z M 64 94.78125 " />
  <path fill-rule="nonzero" fill="rgb(100%, 100%, 100%)" fill-opacity="1"
        d="M 72.835938 46.019531 L 67.351562 46.019531 L 67.351562 53.332031 L 72.835938 53.332031 Z M 72.835938 46.019531 " />
  <path fill-rule="nonzero" fill="rgb(100%, 100%, 100%)" fill-opacity="1"
        d="M 72.835938 72.53125 L 67.351562 72.53125 L 67.351562 80.152344 L 72.835938 80.152344 Z M 72.835938 72.53125 " />
  <path fill-rule="nonzero" fill="rgb(100%, 100%, 100%)" fill-opacity="1"
        d="M 72.835938 94.78125 L 67.351562 94.78125 L 67.351562 102.09375 L 72.835938 102.09375 Z M 72.835938 94.78125 " />
  <path fill-rule="evenodd" fill="rgb(100%, 100%, 100%)" fill-opacity="1"
        d="M 117.640625 67.046875 C 116.726562 67.046875 116.113281 67.65625 116.113281 68.570312 C 113.675781 95.390625 91.429688 116.417969 64 116.417969 C 36.574219 116.417969 14.324219 95.390625 11.886719 68.570312 C 11.886719 67.65625 10.972656 67.046875 10.363281 67.046875 C 9.449219 67.046875 8.839844 67.960938 8.839844 68.875 C 11.277344 97.21875 35.046875 119.46875 64 119.46875 C 92.953125 119.46875 116.726562 97.21875 119.164062 68.875 C 119.46875 67.960938 118.554688 67.046875 117.640625 67.046875 Z M 10.363281 60.953125 C 11.277344 60.953125 11.886719 60.34375 11.886719 59.429688 C 14.324219 32.609375 36.574219 11.886719 64 11.886719 C 91.429688 11.886719 113.675781 32.914062 116.113281 59.429688 C 116.113281 60.34375 117.03125 60.953125 117.640625 60.953125 C 118.554688 60.953125 119.164062 60.039062 119.164062 59.125 C 116.726562 30.78125 92.953125 8.53125 64 8.53125 C 35.046875 8.53125 11.277344 30.78125 8.839844 59.125 C 8.535156 60.039062 9.449219 60.953125 10.363281 60.953125 Z M 10.363281 60.953125 " />
</svg>
