<?xml version="1.0" encoding="UTF-8"?>
<svg xmlns="http://www.w3.org/2000/svg" width="128" height="128"
     viewBox="0 0 128 128">
  <defs>
    <clipPath id="clip-0">
      <path clip-rule="nonzero" d="M 109 47 L 123.222656 47 L 123.222656 74 L 109 74 Z M 109 47 " />
    </clipPath>
  </defs>
  <path fill-rule="nonzero" fill="rgb(0%, 0%, 0%)" fill-opacity="1"
        d="M 31.792969 7.582031 L 64.308594 45.6875 L 86.125 32.84375 C 86.125 32.84375 59.785156 -2.355469 52.785156 0.128906 C 46.199219 2.613281 31.792969 7.582031 31.792969 7.582031 Z M 31.792969 7.582031 " />
  <path fill-rule="nonzero" fill="rgb(0%, 0%, 0%)" fill-opacity="1"
        d="M 86.953125 32.84375 C 86.953125 32.84375 91.890625 24.148438 94.359375 12.550781 C 94.359375 12.550781 119.058594 22.488281 109.59375 47.339844 Z M 86.953125 32.84375 " />
  <g clip-path="url(#clip-0)">
    <path fill-rule="nonzero" fill="rgb(0%, 0%, 0%)" fill-opacity="1"
          d="M 109.59375 47.339844 L 111.648438 73.429688 L 121.117188 72.1875 C 121.117188 72.1875 123.585938 71.359375 123.175781 66.800781 C 122.761719 61.828125 121.941406 51.476562 121.941406 51.476562 C 121.941406 51.476562 122.355469 48.992188 116.589844 48.164062 C 109.59375 46.929688 109.59375 47.339844 109.59375 47.339844 Z M 109.59375 47.339844 " />
  </g>
  <path fill-rule="nonzero" fill="rgb(0%, 0%, 0%)" fill-opacity="1"
        d="M 111.648438 73.429688 L 92.714844 88.753906 L 101.359375 105.734375 C 101.359375 105.734375 103.417969 112.359375 109.589844 104.902344 C 115.351562 97.449219 117.824219 96.207031 117.410156 91.652344 C 117 87.101562 115.765625 76.335938 111.648438 73.429688 Z M 111.648438 73.429688 " />
  <path fill-rule="nonzero" fill="rgb(0%, 0%, 0%)" fill-opacity="1"
        d="M 92.300781 88.753906 L 66.367188 77.164062 L 43.726562 123.132812 C 43.726562 123.132812 42.078125 126.445312 47.84375 126.859375 C 53.609375 127.6875 63.078125 129.757812 68.015625 124.785156 C 72.957031 120.234375 92.300781 88.753906 92.300781 88.753906 Z M 92.300781 88.753906 " />
  <path fill-rule="nonzero" fill="rgb(0%, 0%, 0%)" fill-opacity="1"
        d="M 66.367188 76.742188 L 63.902344 46.09375 L 7.917969 49.828125 C 7.917969 49.828125 4.625 50.242188 5.035156 56.453125 C 5.449219 64.738281 6.269531 73.847656 6.269531 73.847656 C 6.269531 73.847656 5.859375 77.574219 13.269531 77.988281 C 20.679688 78.402344 65.550781 78.402344 66.367188 76.742188 Z M 66.367188 76.742188 " />
</svg>
