<svg width="128" height="128" viewBox="0 0 128 128" fill="none" xmlns="http://www.w3.org/2000/svg">
  <g clip-path="url(#clip0_186_89)">
    <path d="M31.793 7.58312L64.3101 45.6862L86.1264 32.8452C86.1264 32.8452 59.784 -2.3548 52.785 0.128396C46.2006 2.6116 31.793 7.58312 31.793 7.58312Z"
          fill="black" />
    <path d="M86.9512 32.8455C86.9512 32.8455 91.892 24.1466 94.3598 12.5498C94.3598 12.5498 119.059 22.4877 109.592 47.3402L86.9512 32.8455Z"
          fill="black" />
    <path d="M109.592 47.3396L111.65 73.4311L121.117 72.187C121.117 72.187 123.585 71.3575 123.175 66.8007C122.76 61.8292 121.941 51.4766 121.941 51.4766C121.941 51.4766 122.356 48.9934 116.591 48.1639C109.592 46.93 109.592 47.3396 109.592 47.3396Z"
          fill="black" />
    <path d="M111.65 73.4316L92.7158 88.7558L101.358 105.734C101.358 105.734 103.417 112.359 109.591 104.904C115.351 97.4496 117.824 96.2054 117.41 91.6537C117 87.102 115.766 76.3347 111.65 73.4316Z"
          fill="black" />
    <path d="M92.3015 88.7557L66.3687 77.1641L43.728 123.131C43.728 123.131 42.0794 126.444 47.8445 126.859C53.6096 127.688 63.0765 129.757 68.0173 124.785C72.9581 120.234 92.3015 88.7557 92.3015 88.7557Z"
          fill="black" />
    <path d="M66.3687 76.744L63.9009 46.0957L7.91882 49.8282C7.91882 49.8282 4.62666 50.2429 5.03626 56.4535C5.45098 64.7376 6.27018 73.8461 6.27018 73.8461C6.27018 73.8461 5.86058 77.5735 13.2692 77.9882C20.6779 78.4029 65.5495 78.4029 66.3687 76.744Z"
          fill="black" />
  </g>
  <defs>
    <clipPath id="clip0_186_89">
      <rect width="118.221" height="128" fill="white" transform="translate(5)" />
    </clipPath>
  </defs>
</svg>
