<?xml version="1.0" encoding="UTF-8"?>
<svg xmlns="http://www.w3.org/2000/svg" width="128" height="128"
     viewBox="0 0 128 128">
  <path fill-rule="nonzero" fill="rgb(0%, 0%, 0%)" fill-opacity="1"
        d="M 128 64 C 128 99.347656 99.347656 128 64 128 C 28.652344 128 0 99.347656 0 64 C 0 28.652344 28.652344 0 64 0 C 99.347656 0 128 28.652344 128 64 " />
  <path fill-rule="nonzero" fill="rgb(100%, 100%, 100%)" fill-opacity="1"
        d="M 40.308594 59.476562 L 40.308594 39.773438 C 40.308594 37.613281 42.058594 35.863281 44.21875 35.863281 L 57.554688 35.863281 L 57.554688 26 L 40.515625 26 C 33.765625 26 28.289062 31.476562 28.289062 38.230469 L 28.289062 56.488281 C 28.289062 57.910156 27.136719 59.066406 25.710938 59.066406 L 22 59.066406 L 22 68.980469 L 25.710938 68.980469 C 27.136719 68.980469 28.289062 70.132812 28.289062 71.558594 L 28.289062 89.703125 C 28.289062 96.457031 33.765625 101.933594 40.523438 101.933594 L 57.558594 101.933594 L 57.558594 92.070312 L 44.222656 92.070312 C 42.058594 92.070312 40.3125 90.316406 40.3125 88.160156 L 40.3125 68.464844 C 40.3125 65.980469 38.296875 63.972656 35.820312 63.972656 C 38.304688 63.972656 40.3125 61.957031 40.3125 59.480469 Z M 40.308594 59.476562 " />
  <path fill-rule="nonzero" fill="rgb(100%, 100%, 100%)" fill-opacity="1"
        d="M 87.6875 59.476562 L 87.6875 39.773438 C 87.6875 37.613281 85.933594 35.863281 83.773438 35.863281 L 70.441406 35.863281 L 70.441406 26 L 87.476562 26 C 94.230469 26 99.707031 31.476562 99.707031 38.230469 L 99.707031 56.488281 C 99.707031 57.910156 100.863281 59.066406 102.285156 59.066406 L 106 59.066406 L 106 68.980469 L 102.285156 68.980469 C 100.863281 68.980469 99.707031 70.132812 99.707031 71.558594 L 99.707031 89.703125 C 99.707031 96.457031 94.230469 101.933594 87.476562 101.933594 L 70.441406 101.933594 L 70.441406 92.070312 L 83.773438 92.070312 C 85.9375 92.070312 87.6875 90.316406 87.6875 88.160156 L 87.6875 68.464844 C 87.6875 65.980469 89.699219 63.972656 92.179688 63.972656 C 89.695312 63.972656 87.6875 61.957031 87.6875 59.480469 Z M 87.6875 59.476562 " />
  <path fill-rule="nonzero" fill="rgb(100%, 100%, 100%)" fill-opacity="1"
        d="M 63.789062 48.234375 C 55.105469 48.234375 48.066406 55.273438 48.066406 63.957031 C 48.066406 72.640625 55.105469 79.679688 63.789062 79.679688 C 72.472656 79.679688 79.511719 72.640625 79.511719 63.957031 C 79.511719 55.273438 72.472656 48.234375 63.789062 48.234375 Z M 63.789062 72.011719 C 59.34375 72.011719 55.734375 68.402344 55.734375 63.957031 C 55.734375 59.511719 59.34375 55.902344 63.789062 55.902344 C 68.238281 55.902344 71.84375 59.511719 71.84375 63.957031 C 71.84375 68.402344 68.238281 72.011719 63.789062 72.011719 Z M 63.789062 72.011719 " />
</svg>
