<svg width="128" height="128" viewBox="0 0 128 128" fill="none" xmlns="http://www.w3.org/2000/svg">
  <circle cx="64" cy="64" r="64" fill="black" />
  <path d="M40.3067 59.4756V39.775C40.3067 37.6116 42.0604 35.8628 44.2188 35.8628H57.5541V26H40.5165C33.7664 26 28.2904 31.476 28.2904 38.2311V56.4878C28.2904 57.9118 27.1363 59.0659 25.7123 59.0659H22V68.9787H25.7123C27.1363 68.9787 28.2904 70.1329 28.2904 71.5568V89.7036C28.2904 96.4587 33.7664 101.935 40.5215 101.935H57.5591V92.0719H44.2238C42.0604 92.0719 40.3117 90.3182 40.3117 88.1598V68.4641C40.3117 65.9809 38.2981 63.9724 35.8199 63.9724C38.3031 63.9724 40.3117 61.9588 40.3117 59.4806L40.3067 59.4756Z"
        fill="white" />
  <path d="M87.6869 59.4756V39.775C87.6869 37.6116 85.9332 35.8628 83.7747 35.8628H70.4395V26H87.4771C94.2321 26 99.7082 31.476 99.7082 38.2311V49.7177V50.8569V56.4878C99.7082 57.9118 100.862 59.0659 102.286 59.0659H105.999V68.9787H102.286C100.862 68.9787 99.7082 70.1329 99.7082 71.5568V77.0778V78.217V89.7036C99.7082 96.4587 94.2321 101.935 87.4771 101.935H70.4395V92.0719H83.7747C85.9382 92.0719 87.6869 90.3182 87.6869 88.1598V68.4641C87.6869 65.9809 89.7004 63.9724 92.1786 63.9724C89.6954 63.9724 87.6869 61.9588 87.6869 59.4806V59.4756Z"
        fill="white" />
  <path d="M63.79 48.2334C55.1063 48.2334 48.0664 55.2733 48.0664 63.957C48.0664 72.6406 55.1063 79.6805 63.79 79.6805C72.4736 79.6805 79.5135 72.6406 79.5135 63.957C79.5135 55.2733 72.4736 48.2334 63.79 48.2334ZM63.79 72.0111C59.3432 72.0111 55.7358 68.4037 55.7358 63.957C55.7358 59.5102 59.3432 55.9028 63.79 55.9028C68.2367 55.9028 71.8441 59.5102 71.8441 63.957C71.8441 68.4037 68.2367 72.0111 63.79 72.0111Z"
        fill="white" />
</svg>
