<svg width="128" height="128" viewBox="0 0 128 128" fill="none" xmlns="http://www.w3.org/2000/svg">
  <g clip-path="url(#clip0_416_87)">
    <path d="M126.072 79.482C117.524 113.768 82.7962 134.632 48.5061 126.084C14.2322 117.536 -6.63385 82.808 1.91615 48.524C10.4601 14.234 45.1861 -6.63403 79.4661 1.91397C113.754 10.462 134.62 45.194 126.072 79.482Z"
          fill="#DDDDDD" />
    <path d="M92.2126 54.882C93.4846 46.366 87.0006 41.7881 78.1346 38.7341L81.0106 27.198L73.9866 25.448L71.1866 36.68C69.3426 36.22 67.4466 35.786 65.5626 35.356L68.3826 24.05L61.3646 22.3L58.4866 33.8321C56.9586 33.4841 55.4586 33.14 54.0026 32.778L54.0106 32.7421L44.3266 30.324L42.4586 37.8241C42.4586 37.8241 47.6686 39.018 47.5586 39.092C50.4026 39.802 50.9186 41.684 50.8306 43.176L47.5546 56.3181C47.7506 56.3681 48.0046 56.44 48.2846 56.552L47.5446 56.368L42.9506 74.778C42.6026 75.642 41.7206 76.938 39.7326 76.446C39.8026 76.548 34.6286 75.172 34.6286 75.172L31.1426 83.212L40.2826 85.49C41.9826 85.916 43.6486 86.362 45.2866 86.782L42.3806 98.4521L49.3946 100.202L52.2746 88.6581C54.1886 89.1781 56.0486 89.658 57.8686 90.11L55.0006 101.6L62.0226 103.35L64.9286 91.7041C76.9026 93.9701 85.9086 93.056 89.6946 82.228C92.7486 73.508 89.5446 68.478 83.2446 65.196C87.8326 64.134 91.2906 61.116 92.2126 54.882ZM76.1666 77.38C73.9946 86.1 59.3146 81.3881 54.5526 80.2041L58.4086 64.7461C63.1686 65.9341 78.4286 68.286 76.1666 77.38ZM78.3366 54.7561C76.3566 62.6881 64.1366 58.658 60.1706 57.67L63.6666 43.6501C67.6326 44.6381 80.4006 46.482 78.3366 54.7561Z"
          fill="#1A1A1A" />
  </g>
  <defs>
    <clipPath id="clip0_416_87">
      <rect width="128" height="128" fill="white" />
    </clipPath>
  </defs>
</svg>
