<svg width="128" height="128" viewBox="0 0 128 128" fill="none" xmlns="http://www.w3.org/2000/svg">
  <circle cx="64" cy="64.0016" r="64" fill="url(#paint0_linear_142_96)" />
  <path fill-rule="evenodd" clip-rule="evenodd"
        d="M54.0115 42.5902C43.7924 39.7346 33.7483 47.4278 33.7285 57.994L33.6594 90.0988L56.6093 83.5184L56.6816 49.7194C56.6854 47.7237 56.951 45.8057 57.4424 43.9926C56.374 43.4033 55.2257 42.9296 54.0115 42.5902ZM59.6627 38.714C58.3627 38.0403 56.9807 37.492 55.5301 37.0866C41.7801 33.2443 28.1111 43.5933 28.084 58.0003L28 97.6512L62.2453 87.8321L62.3261 49.7132C62.3271 49.2155 62.3503 48.724 62.3947 48.2397C64.5223 50.9935 65.7584 54.4331 65.7584 58.093L65.7518 100L99.9939 90.1818L100 49.7963C99.9989 39.987 93.4771 31.4042 84.0946 28.7983C74.2359 26.0601 64.429 30.61 59.6627 38.714ZM64.321 41.9697C68.7202 45.9987 71.403 51.7848 71.4029 58.0756L71.3961 92.4519L94.3492 85.8706L94.3554 49.8142C94.3545 42.5981 89.551 36.2392 82.5846 34.3043C75.1165 32.2301 67.7501 35.7834 64.321 41.9697Z"
        fill="white" />
  <defs>
    <linearGradient id="paint0_linear_142_96" x1="17" y1="17" x2="108.5" y2="112.5" gradientUnits="userSpaceOnUse">
      <stop offset="0.266281" stop-color="#FF474C" />
      <stop offset="1" stop-color="#6328D6" />
    </linearGradient>
  </defs>
</svg>
