<?xml version="1.0" encoding="UTF-8"?>
<svg xmlns="http://www.w3.org/2000/svg" width="128" height="128"
     viewBox="0 0 128 128">
  <defs>
    <linearGradient id="linear-pattern-0" gradientUnits="userSpaceOnUse" x1="17" y1="17" x2="108.5" y2="112.5">
      <stop offset="0.266281" stop-color="rgb(100%, 27.843137%, 29.803922%)" stop-opacity="1" />
      <stop offset="1" stop-color="rgb(38.823529%, 15.686275%, 83.921569%)" stop-opacity="1" />
    </linearGradient>
  </defs>
  <path fill-rule="nonzero" fill="url(#linear-pattern-0)"
        d="M 128 64 C 128 99.347656 99.347656 128 64 128 C 28.652344 128 0 99.347656 0 64 C 0 28.65625 28.652344 0 64 0 C 99.347656 0 128 28.65625 128 64 " />
  <path fill-rule="evenodd" fill="rgb(100%, 100%, 100%)" fill-opacity="1"
        d="M 54.011719 42.589844 C 43.792969 39.734375 33.75 47.429688 33.726562 57.992188 L 33.660156 90.097656 L 56.609375 83.519531 L 56.679688 49.71875 C 56.683594 47.722656 56.949219 45.804688 57.441406 43.992188 C 56.375 43.402344 55.226562 42.929688 54.011719 42.589844 Z M 59.664062 38.714844 C 58.363281 38.039062 56.980469 37.492188 55.53125 37.085938 C 41.78125 33.246094 28.109375 43.59375 28.085938 58 L 28 97.652344 L 62.246094 87.832031 L 62.324219 49.714844 C 62.328125 49.214844 62.351562 48.722656 62.394531 48.238281 C 64.523438 50.992188 65.757812 54.433594 65.757812 58.09375 L 65.75 100 L 99.992188 90.183594 L 100 49.796875 C 100 39.988281 93.476562 31.402344 84.09375 28.796875 C 74.234375 26.058594 64.429688 30.609375 59.664062 38.714844 Z M 64.320312 41.96875 C 68.71875 46 71.402344 51.785156 71.402344 58.074219 L 71.394531 92.453125 L 94.347656 85.871094 L 94.355469 49.8125 C 94.355469 42.597656 89.550781 36.238281 82.585938 34.304688 C 75.117188 32.230469 67.75 35.785156 64.320312 41.96875 Z M 64.320312 41.96875 " />
</svg>
