<?xml version="1.0" encoding="UTF-8"?>
<svg xmlns="http://www.w3.org/2000/svg" width="128" height="128"
     viewBox="0 0 128 128">
  <path fill-rule="nonzero" fill="rgb(95.686275%, 95.686275%, 95.686275%)" fill-opacity="1"
        d="M 128 64 C 128 99.347656 99.347656 128 64 128 C 28.652344 128 0 99.347656 0 64 C 0 28.652344 28.652344 0 64 0 C 99.347656 0 128 28.652344 128 64 " />
  <path fill-rule="nonzero" fill="rgb(54.117647%, 57.254902%, 69.803922%)" fill-opacity="1"
        d="M 63.992188 51.492188 L 63.992188 16 L 35 64.882812 Z M 63.992188 51.492188 " />
  <path fill-rule="nonzero" fill="rgb(38.431373%, 40.784314%, 56.078431%)" fill-opacity="1"
        d="M 63.992188 82.304688 L 63.992188 51.492188 L 35 64.882812 Z M 63.992188 51.492188 L 92.980469 64.882812 L 63.992188 16 Z M 63.992188 51.492188 " />
  <path fill-rule="nonzero" fill="rgb(27.058824%, 29.019608%, 45.882353%)" fill-opacity="1"
        d="M 63.992188 51.492188 L 63.992188 82.304688 L 92.984375 64.882812 Z M 63.992188 51.492188 " />
  <path fill-rule="nonzero" fill="rgb(54.117647%, 57.254902%, 69.803922%)" fill-opacity="1"
        d="M 63.992188 87.882812 L 35 70.480469 L 63.992188 112 Z M 63.992188 87.882812 " />
  <path fill-rule="nonzero" fill="rgb(38.431373%, 40.784314%, 56.078431%)" fill-opacity="1"
        d="M 93 70.480469 L 63.992188 87.882812 L 63.992188 112 Z M 93 70.480469 " />
</svg>
