<?xml version="1.0" encoding="UTF-8"?>
<svg xmlns="http://www.w3.org/2000/svg" width="128" height="128"
     viewBox="0 0 128 128">
  <path fill-rule="nonzero" fill="rgb(92.156863%, 74.117647%, 24.313725%)" fill-opacity="1"
        d="M 126.070312 79.480469 C 117.523438 113.769531 82.796875 134.632812 48.507812 126.085938 C 14.230469 117.535156 -6.632812 82.808594 1.917969 48.523438 C 10.460938 14.234375 45.1875 -6.632812 79.464844 1.914062 C 113.753906 10.460938 134.621094 45.195312 126.070312 79.480469 Z M 126.070312 79.480469 " />
  <path fill-rule="nonzero" fill="rgb(15.294118%, 14.901961%, 14.117647%)" fill-opacity="1"
        d="M 92.214844 54.882812 C 93.488281 46.367188 87.003906 41.789062 78.136719 38.734375 L 81.015625 27.199219 L 73.992188 25.449219 L 71.191406 36.679688 C 69.347656 36.21875 67.449219 35.785156 65.566406 35.355469 L 68.386719 24.050781 L 61.367188 22.300781 L 58.492188 33.832031 C 56.960938 33.484375 55.460938 33.140625 54.007812 32.777344 L 54.015625 32.742188 L 44.332031 30.324219 L 42.460938 37.824219 C 42.460938 37.824219 47.671875 39.019531 47.5625 39.09375 C 50.40625 39.800781 50.921875 41.683594 50.835938 43.175781 L 47.558594 56.316406 C 47.753906 56.367188 48.007812 56.441406 48.289062 56.550781 L 47.546875 56.367188 L 42.953125 74.777344 C 42.605469 75.640625 41.722656 76.9375 39.738281 76.445312 C 39.804688 76.546875 34.632812 75.171875 34.632812 75.171875 L 31.148438 83.210938 L 40.285156 85.488281 C 41.988281 85.914062 43.652344 86.363281 45.289062 86.78125 L 42.382812 98.453125 L 49.398438 100.203125 L 52.277344 88.65625 C 54.191406 89.179688 56.050781 89.65625 57.871094 90.109375 L 55.003906 101.601562 L 62.027344 103.351562 L 64.933594 91.703125 C 76.90625 93.96875 85.914062 93.054688 89.699219 82.226562 C 92.753906 73.507812 89.546875 68.476562 83.25 65.195312 C 87.835938 64.132812 91.292969 61.117188 92.214844 54.882812 Z M 76.171875 77.378906 C 74 86.101562 59.320312 81.386719 54.554688 80.203125 L 58.414062 64.746094 C 63.171875 65.933594 78.433594 68.285156 76.171875 77.378906 Z M 78.339844 54.757812 C 76.359375 62.6875 64.140625 58.65625 60.175781 57.671875 L 63.671875 43.648438 C 67.636719 44.636719 80.40625 46.480469 78.339844 54.757812 Z M 78.339844 54.757812 " />
</svg>
