<svg width="128" height="128" viewBox="0 0 128 128" fill="none" xmlns="http://www.w3.org/2000/svg">
  <g clip-path="url(#clip0_568_399)">
    <path d="M126.072 79.482C117.524 113.768 82.7962 134.632 48.5061 126.084C14.2322 117.536 -6.63385 82.808 1.91615 48.524C10.4601 14.234 45.1861 -6.63403 79.4661 1.91397C113.754 10.462 134.62 45.194 126.072 79.482Z"
          fill="#EBBD3E" />
    <path d="M92.2165 54.882C93.4885 46.366 87.0045 41.7881 78.1385 38.7341L81.0145 27.198L73.9905 25.448L71.1905 36.68C69.3465 36.22 67.4505 35.786 65.5665 35.356L68.3865 24.05L61.3685 22.3L58.4905 33.8321C56.9625 33.4841 55.4625 33.14 54.0065 32.778L54.0145 32.7421L44.3305 30.324L42.4625 37.8241C42.4625 37.8241 47.6725 39.018 47.5625 39.092C50.4065 39.802 50.9225 41.684 50.8345 43.176L47.5585 56.3181C47.7545 56.3681 48.0085 56.44 48.2885 56.552L47.5485 56.368L42.9545 74.778C42.6065 75.642 41.7245 76.938 39.7365 76.446C39.8065 76.548 34.6325 75.172 34.6325 75.172L31.1465 83.212L40.2865 85.49C41.9865 85.916 43.6525 86.362 45.2905 86.782L42.3845 98.4521L49.3985 100.202L52.2785 88.6581C54.1925 89.1781 56.0525 89.658 57.8725 90.11L55.0045 101.6L62.0265 103.35L64.9325 91.7041C76.9065 93.9701 85.9125 93.056 89.6985 82.228C92.7525 73.508 89.5485 68.478 83.2485 65.196C87.8365 64.134 91.2945 61.116 92.2165 54.882ZM76.1705 77.38C73.9985 86.1 59.3185 81.3881 54.5565 80.2041L58.4125 64.7461C63.1725 65.9341 78.4325 68.286 76.1705 77.38ZM78.3405 54.7561C76.3605 62.6881 64.1405 58.658 60.1745 57.67L63.6705 43.6501C67.6365 44.6381 80.4045 46.482 78.3405 54.7561Z"
          fill="#272624" />
  </g>
  <defs>
    <clipPath id="clip0_568_399">
      <rect width="128" height="128" fill="white" />
    </clipPath>
  </defs>
</svg>
