<?xml version="1.0" encoding="UTF-8"?>
<svg xmlns="http://www.w3.org/2000/svg" width="128" height="128"
     viewBox="0 0 128 128">
  <path fill-rule="nonzero" fill="rgb(33.333333%, 27.45098%, 100%)" fill-opacity="1"
        d="M 64 128 C 99.347656 128 128 99.347656 128 64 C 128 28.652344 99.347656 0 64 0 C 28.652344 0 0 28.652344 0 64 C 0 99.347656 28.652344 128 64 128 Z M 64 128 " />
  <path fill-rule="nonzero" fill="rgb(100%, 100%, 100%)" fill-opacity="1"
        d="M 90.113281 97.722656 L 76.335938 76.09375 L 96.121094 76.09375 L 96.121094 67.925781 L 31.238281 67.925781 L 31.238281 76.09375 L 51.023438 76.09375 L 37.246094 97.722656 L 47.5 97.722656 L 63.679688 72.332031 L 79.859375 97.722656 Z M 96.121094 59.996094 L 96.121094 51.824219 L 76.734375 51.824219 L 90.351562 30.4375 L 80.019531 30.4375 L 63.679688 56.230469 L 47.339844 30.4375 L 37.007812 30.4375 L 50.625 51.824219 L 31.238281 51.824219 L 31.238281 60.074219 Z M 96.121094 59.996094 " />
</svg>
