<svg width="128" height="128" viewBox="0 0 128 128" fill="none" xmlns="http://www.w3.org/2000/svg">
  <path d="M64 128C99.3462 128 128 99.3462 128 64C128 28.6538 99.3462 0 64 0C28.6538 0 0 28.6538 0 64C0 99.3462 28.6538 128 64 128Z"
        fill="#5546FF" />
  <path d="M90.1129 97.7226L76.3356 76.0955H96.1204V67.9253H31.2393V76.0955H51.024L37.2468 97.7226H47.4996L63.6798 72.3308L79.86 97.7226H90.1129ZM96.1204 59.9954V51.8252H76.7361L90.3532 30.4385H80.0202L63.6798 56.2307L47.3394 30.4385H37.0065L50.6235 51.8252H31.2393V60.0755L96.1204 59.9954Z"
        fill="white" />
</svg>
