<svg width="128" height="128" viewBox="0 0 128 128" fill="none" xmlns="http://www.w3.org/2000/svg">
  <g clip-path="url(#clip0_185_69)">
    <path d="M96.8915 32C89.7566 32 81.9439 35.8885 73.7031 43.5585C69.8145 47.1617 66.3898 51.0858 63.8926 54.1895C63.8926 54.1895 67.8881 58.7915 72.2761 63.7503C74.6663 60.7536 78.0553 56.6867 82.0152 53.0123C89.3285 46.1628 94.1089 44.7715 96.8558 44.7715C107.13 44.7715 115.478 53.4047 115.478 64.0714C115.478 74.631 107.13 83.2642 96.8558 83.3712C96.3563 83.3712 95.7856 83.2999 95.0721 83.1572C98.0687 84.5485 101.315 85.5474 104.347 85.5474C123.184 85.5474 126.894 72.5262 127.108 71.5987C127.643 69.2085 127.964 66.7113 127.964 64.1427C127.928 46.4125 114.015 32 96.8915 32Z"
          fill="url(#paint0_linear_185_69)" />
    <path d="M31.0725 96.1427C38.2074 96.1427 46.0201 92.2541 54.2609 84.5841C58.1494 80.981 61.5741 77.0568 64.0714 73.9531C64.0714 73.9531 60.0758 69.3511 55.6879 64.3924C53.2977 67.389 49.9086 71.4559 45.9487 75.1304C38.6355 81.9086 33.8194 83.3712 31.1081 83.3712C20.8339 83.3712 12.4861 74.738 12.4861 64.0713C12.4861 53.5117 20.8339 44.8785 31.1081 44.7714C31.6076 44.7714 32.1784 44.8428 32.8919 44.9855C29.8952 43.5942 26.6488 42.5953 23.6165 42.5953C4.78038 42.5596 1.07023 55.5808 0.856187 56.544C0.32107 58.9342 0 61.4314 0 64C0 81.7302 13.913 96.1427 31.0725 96.1427Z"
          fill="url(#paint1_linear_185_69)" />
    <path fill-rule="evenodd" clip-rule="evenodd"
          d="M45.4133 53.2977C43.3442 51.2999 33.284 43.1304 23.6519 42.845C6.45676 42.4169 1.42666 54.903 0.962891 56.5084C4.28062 42.524 16.5526 32.0713 31.1078 32C42.9874 32 55.0097 43.6656 63.8927 54.1895L63.9283 54.1538C63.9283 54.1538 67.9239 58.7559 72.3118 63.7146C72.3118 63.7146 77.3063 69.6009 82.5861 74.7737C84.6552 76.7715 94.6797 84.8339 104.312 85.1193C121.971 85.6187 126.858 72.4192 127.108 71.4203C123.861 85.5117 111.554 96 96.9272 96.0714C85.0476 96.0714 73.0253 84.4058 64.1067 73.8818C64.1067 73.9175 64.071 73.9175 64.071 73.9532C64.071 73.9532 60.0755 69.3512 55.6875 64.3924C55.7232 64.3924 50.7288 58.4705 45.4133 53.2977Z"
          fill="#29ABE2" />
  </g>
  <defs>
    <linearGradient id="paint0_linear_185_69" x1="80.1906" y1="37.0823" x2="124.17" y2="81.4241"
                    gradientUnits="userSpaceOnUse">
      <stop offset="0.21" stop-color="#F15A24" />
      <stop offset="0.6841" stop-color="#FBB03B" />
    </linearGradient>
    <linearGradient id="paint1_linear_185_69" x1="47.7846" y1="91.0675" x2="3.80479" y2="46.7259"
                    gradientUnits="userSpaceOnUse">
      <stop offset="0.21" stop-color="#ED1E79" />
      <stop offset="0.8929" stop-color="#522785" />
    </linearGradient>
    <clipPath id="clip0_185_69">
      <rect width="128" height="64.1427" fill="white" transform="translate(0 32)" />
    </clipPath>
  </defs>
</svg>
