<?xml version="1.0" encoding="UTF-8"?>
<svg xmlns="http://www.w3.org/2000/svg" width="128" height="128"
     viewBox="0 0 128 128">
  <defs>
    <linearGradient id="linear-pattern-0" gradientUnits="userSpaceOnUse" x1="80.1906" y1="37.0823" x2="124.17"
                    y2="81.4241">
      <stop offset="0.21" stop-color="rgb(94.509804%, 35.294118%, 14.117647%)" stop-opacity="1" />
      <stop offset="0.6841" stop-color="rgb(98.431373%, 69.019608%, 23.137255%)" stop-opacity="1" />
    </linearGradient>
    <clipPath id="clip-0">
      <path clip-rule="nonzero" d="M 0 42 L 65 42 L 65 96.144531 L 0 96.144531 Z M 0 42 " />
    </clipPath>
    <linearGradient id="linear-pattern-1" gradientUnits="userSpaceOnUse" x1="47.7846" y1="91.0675" x2="3.80479"
                    y2="46.7259">
      <stop offset="0.21" stop-color="rgb(92.941176%, 11.764706%, 47.45098%)" stop-opacity="1" />
      <stop offset="0.8929" stop-color="rgb(32.156863%, 15.294118%, 52.156863%)" stop-opacity="1" />
    </linearGradient>
    <clipPath id="clip-1">
      <path clip-rule="nonzero" d="M 0 32 L 128 32 L 128 96.144531 L 0 96.144531 Z M 0 32 " />
    </clipPath>
  </defs>
  <path fill-rule="nonzero" fill="url(#linear-pattern-0)"
        d="M 96.890625 32 C 89.757812 32 81.945312 35.886719 73.703125 43.558594 C 69.816406 47.160156 66.390625 51.085938 63.894531 54.191406 C 63.894531 54.191406 67.886719 58.792969 72.277344 63.75 C 74.667969 60.753906 78.054688 56.6875 82.015625 53.011719 C 89.328125 46.164062 94.109375 44.773438 96.855469 44.773438 C 107.128906 44.773438 115.476562 53.40625 115.476562 64.070312 C 115.476562 74.632812 107.128906 83.265625 96.855469 83.371094 C 96.355469 83.371094 95.785156 83.300781 95.070312 83.15625 C 98.070312 84.546875 101.316406 85.546875 104.347656 85.546875 C 123.183594 85.546875 126.894531 72.527344 127.109375 71.597656 C 127.644531 69.207031 127.964844 66.710938 127.964844 64.144531 C 127.929688 46.414062 114.015625 32 96.890625 32 Z M 96.890625 32 " />
  <g clip-path="url(#clip-0)">
    <path fill-rule="nonzero" fill="url(#linear-pattern-1)"
          d="M 31.074219 96.144531 C 38.207031 96.144531 46.019531 92.253906 54.261719 84.585938 C 58.148438 80.980469 61.574219 77.058594 64.070312 73.953125 C 64.070312 73.953125 60.074219 69.351562 55.6875 64.390625 C 53.296875 67.390625 49.910156 71.457031 45.949219 75.128906 C 38.636719 81.910156 33.820312 83.371094 31.109375 83.371094 C 20.832031 83.371094 12.484375 74.738281 12.484375 64.070312 C 12.484375 53.511719 20.832031 44.878906 31.109375 44.769531 C 31.609375 44.769531 32.179688 44.84375 32.890625 44.984375 C 29.894531 43.59375 26.648438 42.59375 23.617188 42.59375 C 4.78125 42.558594 1.070312 55.582031 0.855469 56.542969 C 0.320312 58.933594 0 61.429688 0 64 C 0 81.730469 13.914062 96.144531 31.074219 96.144531 Z M 31.074219 96.144531 " />
  </g>
  <g clip-path="url(#clip-1)">
    <path fill-rule="evenodd" fill="rgb(16.078431%, 67.058824%, 88.627451%)" fill-opacity="1"
          d="M 45.414062 53.296875 C 43.34375 51.300781 33.285156 43.128906 23.652344 42.84375 C 6.457031 42.417969 1.425781 54.902344 0.964844 56.507812 C 4.28125 42.523438 16.550781 32.070312 31.109375 32 C 42.988281 32 55.007812 43.664062 63.894531 54.191406 L 63.929688 54.152344 C 63.929688 54.152344 67.925781 58.757812 72.3125 63.714844 C 72.3125 63.714844 77.304688 69.601562 82.585938 74.773438 C 84.65625 76.773438 94.679688 84.832031 104.3125 85.121094 C 121.972656 85.617188 126.859375 72.417969 127.109375 71.421875 C 123.859375 85.511719 111.554688 96 96.925781 96.070312 C 85.046875 96.070312 73.023438 84.40625 64.105469 73.882812 C 64.105469 73.917969 64.070312 73.917969 64.070312 73.953125 C 64.070312 73.953125 60.074219 69.351562 55.6875 64.390625 C 55.722656 64.390625 50.730469 58.46875 45.414062 53.296875 Z M 45.414062 53.296875 " />
  </g>
</svg>
