<?xml version="1.0" encoding="UTF-8"?>
<svg xmlns:xlink="http://www.w3.org/1999/xlink" xmlns="http://www.w3.org/2000/svg" width="128" height="128"
     viewBox="0 0 128 128">
  <defs>
    <filter id="filter-remove-color" x="0%" y="0%" width="100%" height="100%">
      <feColorMatrix color-interpolation-filters="sRGB" values="0 0 0 0 1 0 0 0 0 1 0 0 0 0 1 0 0 0 1 0" />
    </filter>
    <clipPath id="clip-0">
      <path clip-rule="nonzero" d="M 0 0 L 153.601562 0 L 153.601562 153.601562 L 0 153.601562 Z M 0 0 " />
    </clipPath>
    <clipPath id="clip-1">
      <rect x="0" y="0" width="154" height="154" />
    </clipPath>
    <g id="source-1443" clip-path="url(#clip-1)">
      <path fill-rule="nonzero" fill="rgb(100%, 100%, 100%)" fill-opacity="1"
            d="M 64 128 C 99.347656 128 128 99.347656 128 64 C 128 28.652344 99.347656 0 64 0 C 28.652344 0 0 28.652344 0 64 C 0 99.347656 28.652344 128 64 128 Z M 64 128 " />
    </g>
    <clipPath id="clip-2">
      <rect x="0" y="0" width="154" height="154" />
    </clipPath>
    <g id="source-1446" clip-path="url(#clip-2)">
      <g clip-path="url(#clip-0)">
        <use xlink:href="#source-1443" />
      </g>
    </g>
    <mask id="mask-0">
      <g filter="url(#filter-remove-color)">
        <use xlink:href="#source-1446" />
      </g>
    </mask>
    <clipPath id="clip-3">
      <path clip-rule="nonzero" d="M 0 0 L 128 0 L 128 128 L 0 128 Z M 0 0 " />
    </clipPath>
    <clipPath id="clip-4">
      <rect x="0" y="0" width="128" height="128" />
    </clipPath>
    <g id="source-1445" clip-path="url(#clip-4)">
      <g clip-path="url(#clip-3)">
        <rect x="-28.16" y="-28.16" width="184.32" height="184.32" fill="rgb(95.686275%, 95.686275%, 95.686275%)"
              fill-opacity="1" />
      </g>
    </g>
  </defs>
  <g mask="url(#mask-0)">
    <use xlink:href="#source-1445" />
  </g>
  <path fill-rule="nonzero" fill="rgb(0%, 0%, 0%)" fill-opacity="1"
        d="M 82.511719 77.8125 L 100.617188 67.355469 C 101.578125 66.800781 102.171875 65.773438 102.171875 64.664062 L 102.171875 43.753906 C 102.171875 42.648438 101.574219 41.617188 100.617188 41.0625 L 82.511719 30.609375 C 81.550781 30.054688 80.363281 30.058594 79.40625 30.609375 L 61.296875 41.0625 C 60.339844 41.617188 59.746094 42.648438 59.746094 43.753906 L 59.746094 81.121094 L 47.046875 88.453125 L 34.351562 81.121094 L 34.351562 66.460938 L 47.046875 59.128906 L 55.421875 63.964844 L 55.421875 54.128906 L 48.601562 50.1875 C 48.128906 49.917969 47.589844 49.773438 47.046875 49.773438 C 46.5 49.773438 45.960938 49.917969 45.492188 50.1875 L 27.386719 60.644531 C 26.425781 61.199219 25.835938 62.230469 25.835938 63.335938 L 25.835938 84.246094 C 25.835938 85.351562 26.429688 86.382812 27.386719 86.9375 L 45.492188 97.390625 C 46.449219 97.941406 47.640625 97.941406 48.601562 97.390625 L 66.707031 86.9375 C 67.667969 86.386719 68.257812 85.351562 68.257812 84.246094 L 68.257812 46.882812 L 68.488281 46.75 L 80.957031 39.550781 L 93.65625 46.882812 L 93.65625 61.542969 L 80.957031 68.875 L 72.59375 64.042969 L 72.59375 73.878906 L 79.40625 77.8125 C 80.363281 78.363281 81.550781 78.363281 82.511719 77.8125 Z M 82.511719 77.8125 " />
</svg>
