<svg width="128" height="128" viewBox="0 0 128 128" fill="none" xmlns="http://www.w3.org/2000/svg">
  <mask id="mask0_516_67" style="mask-type:luminance" maskUnits="userSpaceOnUse" x="0" y="0" width="128" height="129">
    <path d="M63.9999 128C99.3466 128 128 99.3463 128 64.0001C128 28.6538 99.3466 0 63.9999 0C28.6538 0 0 28.6538 0 64.0001C0 99.3463 28.6538 128 63.9999 128Z"
          fill="white" />
  </mask>
  <g mask="url(#mask0_516_67)">
    <path d="M134.06 -6.05981H-6.06055V134.06H134.06V-6.05981Z" fill="#F4F4F4" />
  </g>
  <path d="M82.5116 77.8109L100.619 67.3555C101.578 66.8017 102.171 65.7717 102.171 64.6642V43.7557C102.171 42.6503 101.575 41.618 100.619 41.0641L82.5116 30.6086C81.5526 30.0546 80.3639 30.0572 79.4049 30.6086L61.2977 41.0641C60.3386 41.618 59.7456 42.6503 59.7456 43.7557V81.1218L47.048 88.452L34.3504 81.1218V66.4592L47.048 59.129L55.4236 63.9634V54.1276L48.6002 50.1894C48.1299 49.9176 47.5915 49.7739 47.0454 49.7739C46.4993 49.7739 45.9609 49.9176 45.4932 50.1894L27.3862 60.6448C26.4272 61.1986 25.834 62.2286 25.834 63.3367V84.2449C25.834 85.3499 26.4298 86.3824 27.3862 86.9362L45.4932 97.3916C46.4496 97.9433 47.6412 97.9433 48.6002 97.3916L66.7073 86.9387C67.6663 86.3849 68.2594 85.3529 68.2594 84.2474V46.881L68.4896 46.7504L80.957 39.551L93.6545 46.881V61.5436L80.957 68.8739L72.5947 64.0446V73.8808L79.4049 77.8134C80.3639 78.3652 81.5526 78.3652 82.5116 77.8134V77.8109Z"
        fill="black" />
</svg>
