<svg width="128" height="128" viewBox="0 0 128 128" fill="none" xmlns="http://www.w3.org/2000/svg">
<path d="M11.5703 38.9121V89.0881C11.5703 92.3137 13.2599 95.2321 16.0759 96.8705L59.5447 121.959C62.3095 123.546 65.7399 123.546 68.5047 121.959L111.974 96.8705C114.738 95.2833 116.479 92.3137 116.479 89.0881V38.9121C116.479 35.6865 114.79 32.7681 111.974 31.1297L68.5047 6.04172C65.7399 4.45452 62.3095 4.45452 59.5447 6.04172L16.0759 31.1297C13.3111 32.7169 11.6215 35.6865 11.6215 38.9121H11.5703Z" fill="#838383"/>
<path d="M73.4706 73.7281L67.2754 90.7265C67.1218 91.1873 67.1218 91.6993 67.2754 92.2113L77.925 121.446L90.2642 114.33L75.4674 73.7281C75.109 72.8065 73.829 72.8065 73.4706 73.7281Z" fill="#BEBEBE"/>
<path d="M85.9127 45.1585C85.5543 44.2369 84.2743 44.2369 83.9159 45.1585L77.7207 62.1569C77.5671 62.6177 77.5671 63.1297 77.7207 63.6417L95.1799 111.514L107.519 104.397L85.9127 45.2097V45.1585Z" fill="#BEBEBE"/>
<path d="M63.9991 7.936C64.3063 7.936 64.6135 8.0384 64.8695 8.192L111.871 35.328C112.434 35.6352 112.742 36.2496 112.742 36.864V91.136C112.742 91.7504 112.383 92.3648 111.871 92.672L64.8695 119.808C64.6135 119.962 64.3063 120.064 63.9991 120.064C63.6919 120.064 63.3847 119.962 63.1287 119.808L16.1271 92.672C15.5639 92.3648 15.2567 91.7504 15.2567 91.136V36.8128C15.2567 36.1984 15.6151 35.584 16.1271 35.2768L63.1287 8.1408C63.3847 7.9872 63.6919 7.8848 63.9991 7.8848V7.936ZM63.9991 0C62.3095 0 60.6711 0.4096 59.1351 1.28L12.1335 28.416C9.11273 30.1568 7.26953 33.3312 7.26953 36.8128V91.0848C7.26953 94.5664 9.11273 97.7408 12.1335 99.4816L59.1351 126.618C60.6199 127.488 62.3095 127.898 63.9991 127.898C65.6887 127.898 67.3271 127.488 68.8631 126.618L115.865 99.4816C118.886 97.7408 120.729 94.5664 120.729 91.0848V36.8128C120.729 33.3312 118.886 30.1568 115.865 28.416L68.8119 1.28C67.3271 0.4096 65.6375 0 63.9479 0H63.9991Z" fill="#B6B6B6"/>
<path d="M32.8691 111.565L17.332 93.3333L53.9987 114.667L37.7843 114.381L32.8691 111.565Z" fill="#B6B6B6"/>
<path d="M60.0065 32.9728H48.0769C47.2065 32.9728 46.3873 33.536 46.0801 34.3552L20.5312 104.397L32.8705 111.514L61.0305 34.3552C61.2865 33.6384 60.7745 32.9216 60.0577 32.9216L60.0065 32.9728Z" fill="white"/>
<path d="M80.8956 32.9728H68.966C68.0956 32.9728 67.2764 33.536 66.9692 34.3552L37.7852 114.33L50.1244 121.446L81.8684 34.3552C82.1244 33.6384 81.6124 32.9216 80.8956 32.9216V32.9728Z" fill="white"/>
</svg>
