<?xml version="1.0" encoding="UTF-8"?>
<svg xmlns="http://www.w3.org/2000/svg" width="128" height="128"
     viewBox="0 0 128 128">
  <path fill-rule="nonzero" fill="rgb(29.019608%, 67.45098%, 91.372549%)" fill-opacity="1"
        d="M 64 128 C 99.347656 128 128 99.347656 128 64 C 128 28.652344 99.347656 0 64 0 C 28.652344 0 0 28.652344 0 64 C 0 99.347656 28.652344 128 64 128 Z M 64 128 " />
  <path fill-rule="nonzero" fill="rgb(100%, 100%, 100%)" fill-opacity="1"
        d="M 39.71875 23.34375 L 31.71875 31.535156 L 31.71875 64 L 39.71875 72.191406 L 71.421875 72.191406 L 71.421875 88.574219 L 55.71875 88.574219 L 55.71875 80.382812 L 31.71875 80.382812 L 31.71875 96.769531 L 39.71875 104.960938 L 87.421875 104.960938 L 95.421875 96.769531 L 95.421875 64 L 87.421875 55.808594 L 55.71875 55.808594 L 55.71875 39.425781 L 71.71875 39.425781 L 71.71875 47.617188 L 95.71875 47.617188 L 95.71875 31.230469 L 87.71875 23.039062 L 39.71875 23.039062 Z M 39.71875 23.34375 " />
</svg>
