<?xml version="1.0" encoding="UTF-8"?>
<svg xmlns="http://www.w3.org/2000/svg" width="128" height="128"
     viewBox="0 0 128 128">
  <path fill-rule="nonzero" fill="rgb(94.117647%, 1.960784%, 0%)" fill-opacity="1"
        d="M 128 64 C 128 99.347656 99.347656 128 64 128 C 28.652344 128 0 99.347656 0 64 C 0 28.652344 28.652344 0 64 0 C 99.347656 0 128 28.652344 128 64 " />
  <path fill-rule="nonzero" fill="rgb(0%, 0%, 0%)" fill-opacity="1"
        d="M 93.515625 73.253906 C 93.464844 73.515625 92.6875 74.308594 91.914062 74.886719 C 89.632812 76.550781 85.550781 78.101562 81.40625 78.84375 C 79.042969 79.269531 76.683594 79.335938 75.972656 78.988281 C 75.507812 78.757812 75.441406 78.578125 75.609375 77.984375 C 75.957031 76.746094 77.078125 75.394531 78.828125 74.125 C 79.722656 73.484375 83.339844 71.289062 85.023438 70.367188 C 87.800781 68.851562 90.046875 67.945312 91.566406 67.730469 C 92.042969 67.664062 92.621094 67.648438 92.804688 67.730469 C 93.101562 67.84375 93.433594 68.71875 93.5625 69.773438 C 93.628906 70.335938 93.597656 72.808594 93.515625 73.253906 Z M 93.515625 73.253906 " />
  <path fill-rule="nonzero" fill="rgb(0%, 0%, 0%)" fill-opacity="1"
        d="M 54.597656 78.710938 C 54.496094 78.90625 54 79.121094 53.441406 79.203125 C 52.878906 79.285156 51.160156 79.238281 50.1875 79.121094 C 46.683594 78.660156 42.96875 77.589844 40.257812 76.269531 C 38.738281 75.527344 37.648438 74.785156 36.839844 73.976562 L 36.375 73.5 L 36.328125 72.875 C 36.246094 71.785156 36.261719 70.070312 36.394531 69.460938 C 36.476562 68.949219 36.65625 68.453125 36.90625 68.007812 C 37.039062 67.84375 37.039062 67.84375 37.632812 67.84375 C 38.359375 67.84375 38.96875 67.960938 39.960938 68.273438 C 41.992188 68.898438 45.015625 70.417969 48.699219 72.625 C 51.738281 74.441406 52.878906 75.328125 53.753906 76.550781 C 54.347656 77.308594 54.746094 78.378906 54.597656 78.710938 Z M 54.597656 78.710938 " />
  <path fill-rule="nonzero" fill="rgb(0%, 0%, 0%)" fill-opacity="1"
        d="M 77.984375 101.660156 C 77.984375 101.710938 77.789062 102.5 77.539062 103.441406 C 77.292969 104.378906 77.09375 105.140625 77.09375 105.171875 C 76.914062 105.1875 76.746094 105.203125 76.566406 105.1875 L 76.035156 105.1875 L 75.308594 106.902344 C 74.914062 107.84375 74.550781 108.714844 74.5 108.847656 L 74.402344 109.078125 L 74.054688 108.519531 L 73.707031 107.957031 L 73.707031 103.390625 L 73.574219 103.425781 C 73.296875 103.488281 71.296875 103.753906 70.421875 103.835938 C 66.804688 104.199219 63.167969 104.117188 59.566406 103.605469 C 58.988281 103.523438 58.496094 103.457031 58.476562 103.472656 C 58.460938 103.488281 58.476562 104.546875 58.511719 105.847656 L 58.558594 108.1875 L 58.28125 108.617188 C 58.132812 108.847656 57.980469 109.046875 57.980469 109.0625 C 57.933594 109.113281 57.765625 108.847656 57.386719 108.089844 C 56.972656 107.296875 56.675781 106.457031 56.460938 105.585938 L 56.347656 105.105469 L 55.835938 105.140625 L 55.324219 105.1875 L 55.191406 104.578125 C 55.125 104.246094 55.042969 103.738281 55.007812 103.457031 L 54.960938 102.929688 L 54.53125 102.550781 C 54.28125 102.335938 54.035156 102.121094 53.984375 102.089844 C 53.902344 102.023438 53.867188 101.90625 53.867188 101.808594 L 53.867188 101.609375 L 55.933594 101.628906 L 58 101.644531 L 58.066406 101.859375 L 58.132812 102.070312 L 58.839844 102.105469 C 59.238281 102.121094 60.492188 102.15625 61.617188 102.1875 L 63.679688 102.238281 L 64.210938 101.414062 L 64.753906 100.589844 L 65.449219 100.589844 L 65.433594 98.875 L 65.414062 97.160156 L 64.507812 96.761719 C 61.582031 95.476562 59.867188 94.011719 59.222656 92.230469 C 59.089844 91.867188 59.089844 91.734375 59.054688 90.085938 C 59.039062 88.453125 59.039062 88.304688 59.15625 87.941406 C 59.386719 87.117188 60.03125 86.476562 60.855469 86.261719 C 61.136719 86.179688 61.878906 86.179688 65.777344 86.179688 L 70.371094 86.195312 L 70.882812 86.441406 C 71.496094 86.738281 71.773438 86.953125 72.121094 87.414062 C 72.519531 87.941406 72.632812 88.355469 72.632812 89.359375 C 72.632812 90.796875 72.535156 92.03125 72.386719 92.527344 C 72.171875 93.203125 71.839844 93.84375 71.429688 94.421875 C 70.601562 95.476562 69.097656 96.53125 67.726562 97.011719 L 67.332031 97.160156 L 67.363281 100.621094 L 67.726562 100.652344 L 68.089844 100.6875 L 68.585938 101.429688 L 69.066406 102.171875 L 71.28125 102.171875 C 72.503906 102.171875 73.574219 102.1875 73.675781 102.203125 C 73.839844 102.238281 73.875 102.21875 74.039062 101.941406 L 74.238281 101.644531 L 76.136719 101.644531 C 77.558594 101.578125 77.984375 101.609375 77.984375 101.660156 Z M 77.984375 101.660156 " />
  <path fill-rule="nonzero" fill="rgb(0%, 0%, 0%)" fill-opacity="1"
        d="M 69.265625 106.390625 C 68.949219 106.574219 68.734375 106.65625 68.6875 106.621094 C 68.636719 106.605469 68.40625 106.40625 68.15625 106.226562 L 67.710938 105.863281 L 67.25 106.359375 C 66.242188 107.445312 66.210938 107.496094 65.910156 107.511719 C 65.449219 107.5625 65.351562 107.480469 64.789062 106.640625 C 64.492188 106.210938 64.261719 105.847656 64.261719 105.847656 C 64.261719 105.847656 64.046875 105.816406 63.796875 105.796875 L 63.335938 105.75 L 62.90625 106.640625 L 62.523438 106.523438 C 62.226562 106.425781 61.929688 106.308594 61.648438 106.175781 L 61.15625 105.929688 L 61.15625 104.988281 L 65.546875 105.007812 L 69.941406 105.023438 L 69.957031 105.46875 C 69.976562 105.996094 69.992188 105.980469 69.265625 106.390625 Z M 69.265625 106.390625 " />
  <path fill-rule="nonzero" fill="rgb(100%, 100%, 100%)" fill-opacity="1"
        d="M 110.5625 86.277344 C 110.546875 86.210938 110.546875 86.097656 110.527344 85.914062 C 106.5625 85.488281 95.25 85.222656 84.742188 93.878906 C 84.742188 93.878906 81.355469 78.382812 65.5 78.382812 C 49.640625 78.382812 43.761719 93.878906 43.761719 93.878906 C 34.875 84.332031 22.980469 85.023438 18.683594 85.652344 C 18.683594 85.75 18.667969 85.867188 18.667969 85.964844 C 18.535156 88.355469 18.601562 89.492188 19 90.992188 C 20.238281 95.691406 24.054688 100.867188 30.03125 105.945312 C 39.828125 114.257812 53.109375 120.257812 63.167969 120.949219 C 73.660156 121.660156 89.136719 115.542969 99.445312 106.605469 C 101.0625 105.171875 102.582031 103.65625 104.003906 102.039062 C 105.027344 100.851562 106.546875 98.808594 106.433594 98.808594 C 106.398438 98.808594 106.433594 98.773438 106.496094 98.742188 C 106.546875 98.710938 106.597656 98.660156 106.5625 98.625 C 106.546875 98.609375 106.578125 98.5625 106.628906 98.542969 C 106.679688 98.527344 106.714844 98.496094 106.695312 98.460938 C 106.679688 98.429688 106.695312 98.394531 106.761719 98.378906 C 106.8125 98.363281 106.828125 98.3125 106.8125 98.28125 C 106.796875 98.246094 106.8125 98.214844 106.84375 98.214844 C 106.878906 98.214844 106.910156 98.164062 106.910156 98.132812 C 106.910156 98.097656 106.945312 98.050781 106.976562 98.050781 C 107.011719 98.050781 107.042969 98.015625 107.042969 97.984375 C 107.09375 97.851562 107.175781 97.71875 107.257812 97.605469 C 107.503906 97.226562 108.496094 95.460938 108.628906 95.164062 C 109.570312 93.039062 110.164062 91.140625 110.445312 89.246094 C 110.546875 88.339844 110.628906 86.671875 110.5625 86.277344 Z M 69.265625 106.390625 C 68.949219 106.574219 68.734375 106.65625 68.6875 106.621094 C 68.636719 106.605469 68.40625 106.410156 68.15625 106.226562 L 67.710938 105.863281 L 67.25 106.359375 C 66.242188 107.445312 66.207031 107.496094 65.910156 107.511719 C 65.449219 107.5625 65.351562 107.480469 64.789062 106.640625 C 64.492188 106.210938 64.257812 105.847656 64.257812 105.847656 C 64.257812 105.847656 64.046875 105.816406 63.796875 105.800781 L 63.335938 105.75 L 62.90625 106.640625 L 62.523438 106.523438 C 62.226562 106.425781 61.929688 106.308594 61.648438 106.179688 L 61.152344 105.929688 L 61.152344 104.992188 L 69.941406 105.023438 L 69.957031 105.46875 C 69.976562 105.996094 69.992188 105.980469 69.265625 106.390625 Z M 77.523438 103.425781 C 77.277344 104.363281 77.078125 105.121094 77.078125 105.15625 C 76.894531 105.171875 76.730469 105.1875 76.550781 105.171875 L 76.019531 105.171875 L 75.3125 106.902344 C 74.914062 107.84375 74.550781 108.71875 74.5 108.847656 L 74.402344 109.078125 L 74.054688 108.519531 L 73.707031 107.957031 L 73.707031 103.390625 L 73.578125 103.425781 C 73.296875 103.488281 71.296875 103.753906 70.421875 103.835938 C 66.804688 104.199219 63.167969 104.117188 59.570312 103.605469 C 58.988281 103.523438 58.496094 103.457031 58.476562 103.472656 C 58.460938 103.488281 58.476562 104.546875 58.511719 105.847656 L 58.5625 108.1875 L 58.28125 108.617188 C 58.132812 108.847656 57.984375 109.046875 57.984375 109.0625 C 57.933594 109.113281 57.769531 108.847656 57.386719 108.089844 C 56.976562 107.300781 56.675781 106.457031 56.464844 105.585938 L 56.347656 105.105469 L 55.835938 105.140625 L 55.324219 105.1875 L 55.191406 104.578125 C 55.125 104.25 55.042969 103.738281 55.007812 103.457031 L 54.960938 102.929688 L 54.53125 102.550781 C 54.28125 102.335938 54.035156 102.121094 53.984375 102.089844 C 53.902344 102.023438 53.871094 101.90625 53.871094 101.808594 L 53.871094 101.609375 L 55.933594 101.628906 L 58 101.644531 L 58.132812 102.074219 L 58.839844 102.105469 C 59.238281 102.121094 60.492188 102.15625 61.617188 102.1875 L 63.679688 102.238281 L 64.210938 101.414062 L 64.753906 100.589844 L 65.449219 100.589844 L 65.433594 98.875 L 65.414062 97.160156 L 64.507812 96.765625 C 61.582031 95.476562 59.867188 94.011719 59.222656 92.230469 C 59.089844 91.867188 59.089844 91.734375 59.054688 90.085938 C 59.039062 88.453125 59.039062 88.304688 59.15625 87.941406 C 59.386719 87.117188 60.03125 86.476562 60.855469 86.261719 C 61.136719 86.179688 61.882812 86.179688 65.78125 86.179688 L 70.371094 86.195312 L 70.882812 86.441406 C 71.496094 86.738281 71.777344 86.953125 72.121094 87.414062 C 72.519531 87.941406 72.632812 88.355469 72.632812 89.359375 C 72.632812 90.796875 72.535156 92.03125 72.386719 92.527344 C 72.171875 93.203125 71.839844 93.84375 71.429688 94.421875 C 70.601562 95.476562 69.097656 96.53125 67.730469 97.011719 L 67.332031 97.160156 L 67.363281 100.621094 L 67.730469 100.65625 L 68.09375 100.6875 L 68.585938 101.429688 L 69.066406 102.171875 L 71.28125 102.171875 C 72.503906 102.171875 73.578125 102.1875 73.675781 102.203125 C 73.839844 102.238281 73.875 102.222656 74.039062 101.941406 L 74.238281 101.644531 L 76.136719 101.644531 C 77.605469 101.644531 78.035156 101.660156 78.035156 101.710938 C 77.988281 101.691406 77.773438 102.5 77.523438 103.425781 Z M 77.523438 103.425781 " />
  <path fill-rule="nonzero" fill="rgb(100%, 64.313725%, 3.529412%)" fill-opacity="1"
        d="M 110.429688 84.597656 C 110.398438 83.855469 110.332031 82.816406 110.28125 82.304688 C 109.570312 74.820312 107.65625 68.703125 104.019531 62.222656 C 103.871094 61.976562 103.738281 61.730469 103.65625 61.53125 C 103.625 61.480469 103.609375 61.433594 103.589844 61.398438 C 104.101562 59.867188 106.199219 53.453125 107.867188 46.117188 C 110.132812 36.15625 111.570312 24.519531 107.175781 21.023438 C 107.175781 21.023438 99.578125 20.460938 89.402344 30.421875 C 86.644531 33.171875 84.117188 36.15625 81.867188 39.339844 L 81.160156 39.109375 C 77.0625 37.773438 72.816406 36.949219 68.539062 36.667969 C 67.25 36.570312 62.441406 36.570312 60.875 36.667969 C 56.132812 36.980469 52.5 37.691406 48.371094 39.125 C 48.203125 39.191406 48.054688 39.242188 47.90625 39.289062 C 45.578125 36.125 42.984375 33.15625 40.125 30.4375 C 29.539062 20.429688 21.660156 21.007812 21.660156 21.007812 C 17 24.617188 18.585938 36.785156 20.996094 47.070312 C 22.582031 53.882812 24.53125 59.867188 25.261719 62.027344 C 25.210938 62.140625 25.144531 62.273438 25.078125 62.386719 C 21.230469 70.171875 19.148438 77.671875 18.652344 85.652344 C 22.964844 85.023438 34.839844 84.316406 43.742188 93.878906 C 43.742188 93.878906 49.625 78.378906 65.484375 78.378906 C 81.339844 78.378906 84.726562 93.878906 84.726562 93.878906 C 95.234375 85.222656 106.546875 85.503906 110.511719 85.914062 C 110.496094 85.585938 110.464844 85.089844 110.429688 84.597656 Z M 28.382812 55.808594 C 28.382812 55.808594 22.203125 40.394531 23.789062 31.589844 C 24.054688 30.105469 24.550781 28.804688 25.324219 27.816406 C 25.324219 27.816406 32.328125 28.507812 43.628906 41.039062 C 43.628906 41.039062 41.480469 42.078125 38.605469 44.285156 C 38.605469 44.285156 38.589844 44.300781 38.574219 44.300781 C 35.453125 46.691406 31.453125 50.484375 28.382812 55.808594 Z M 54.597656 78.710938 C 54.496094 78.90625 54.003906 79.121094 53.441406 79.203125 C 52.878906 79.289062 51.160156 79.238281 50.1875 79.121094 C 46.683594 78.660156 42.96875 77.589844 40.257812 76.269531 C 38.738281 75.527344 37.648438 74.785156 36.839844 73.980469 L 36.375 73.5 L 36.328125 72.875 C 36.246094 71.785156 36.261719 70.070312 36.394531 69.460938 C 36.476562 68.949219 36.65625 68.457031 36.90625 68.011719 C 37.039062 67.84375 37.039062 67.84375 37.632812 67.84375 C 38.359375 67.84375 38.96875 67.960938 39.960938 68.273438 C 41.992188 68.902344 45.015625 70.417969 48.699219 72.625 C 51.738281 74.441406 52.878906 75.332031 53.753906 76.550781 C 54.347656 77.308594 54.746094 78.378906 54.597656 78.710938 Z M 93.515625 73.253906 C 93.464844 73.515625 92.6875 74.308594 91.914062 74.886719 C 89.632812 76.550781 85.554688 78.101562 81.40625 78.84375 C 79.042969 79.269531 76.683594 79.335938 75.972656 78.992188 C 75.507812 78.761719 75.445312 78.578125 75.609375 77.984375 C 75.957031 76.75 77.078125 75.398438 78.828125 74.128906 C 79.722656 73.484375 83.339844 71.292969 85.023438 70.367188 C 87.800781 68.851562 90.046875 67.945312 91.566406 67.730469 C 92.042969 67.664062 92.621094 67.648438 92.804688 67.730469 C 93.101562 67.84375 93.433594 68.71875 93.5625 69.773438 C 93.628906 70.335938 93.597656 72.808594 93.515625 73.253906 Z M 90.773438 44.285156 L 90.738281 44.269531 C 87.964844 42.058594 85.882812 41.019531 85.882812 41.019531 C 96.800781 28.492188 103.558594 27.796875 103.558594 27.796875 C 104.300781 28.804688 104.78125 30.089844 105.046875 31.574219 C 106.582031 40.378906 100.617188 55.808594 100.617188 55.808594 C 98.125 51.375 94.769531 47.453125 90.773438 44.285156 Z M 90.773438 44.285156 " />
  <path fill-rule="nonzero" fill="rgb(100%, 57.647059%, 0%)" fill-opacity="1"
        d="M 105.0625 31.574219 C 103.773438 31.410156 97.675781 31.375 90.773438 44.285156 L 90.738281 44.269531 C 87.964844 42.058594 85.882812 41.019531 85.882812 41.019531 C 96.800781 28.492188 103.558594 27.796875 103.558594 27.796875 C 104.316406 28.804688 104.796875 30.089844 105.0625 31.574219 Z M 105.0625 31.574219 " />
  <path fill-rule="nonzero" fill="rgb(100%, 51.372549%, 0%)" fill-opacity="1"
        d="M 100.632812 55.808594 C 98.125 51.359375 94.785156 47.453125 90.773438 44.285156 C 97.675781 31.375 103.757812 31.410156 105.0625 31.574219 C 106.597656 40.394531 100.632812 55.808594 100.632812 55.808594 Z M 100.632812 55.808594 " />
  <path fill-rule="nonzero" fill="rgb(100%, 51.372549%, 0%)" fill-opacity="1"
        d="M 105.308594 31.625 C 105.226562 31.605469 105.144531 31.589844 105.0625 31.574219 Z M 105.308594 31.625 " />
  <path fill-rule="nonzero" fill="rgb(100%, 57.647059%, 0%)" fill-opacity="1"
        d="M 43.628906 41.019531 C 43.628906 41.019531 41.480469 42.058594 38.605469 44.269531 C 38.605469 44.269531 38.589844 44.285156 38.574219 44.285156 C 31.421875 31.359375 25.128906 31.410156 23.773438 31.574219 C 24.039062 30.089844 24.535156 28.789062 25.308594 27.796875 C 25.328125 27.796875 32.332031 28.492188 43.628906 41.019531 Z M 43.628906 41.019531 " />
  <path fill-rule="nonzero" fill="rgb(100%, 51.372549%, 0%)" fill-opacity="1"
        d="M 38.589844 44.285156 C 35.453125 46.691406 31.453125 50.46875 28.382812 55.808594 C 28.382812 55.808594 22.203125 40.394531 23.789062 31.574219 C 25.128906 31.410156 31.4375 31.375 38.589844 44.285156 Z M 38.589844 44.285156 " />
  <path fill-rule="nonzero" fill="rgb(100%, 51.372549%, 0%)" fill-opacity="1"
        d="M 23.789062 31.574219 C 23.707031 31.589844 23.609375 31.605469 23.527344 31.625 Z M 23.789062 31.574219 " />
  <path fill-rule="nonzero" fill="rgb(100%, 100%, 100%)" fill-opacity="1"
        d="M 83.917969 64.367188 C 83.917969 64.367188 78.628906 64.695312 79.292969 60.574219 C 79.953125 56.453125 84.082031 55.957031 85.238281 56.125 C 86.394531 56.289062 91.019531 57.9375 90.195312 61.398438 C 89.367188 64.863281 88.210938 64.203125 87.550781 64.367188 C 86.890625 64.53125 83.917969 64.367188 83.917969 64.367188 Z M 83.917969 64.367188 " />
  <path fill-rule="nonzero" fill="rgb(100%, 100%, 100%)" fill-opacity="1"
        d="M 44.933594 64.367188 C 44.933594 64.367188 39.648438 64.695312 40.308594 60.574219 C 40.96875 56.453125 45.097656 55.957031 46.253906 56.125 C 47.410156 56.289062 52.035156 57.9375 51.210938 61.398438 C 50.382812 64.863281 49.226562 64.203125 48.566406 64.367188 C 47.90625 64.53125 44.933594 64.367188 44.933594 64.367188 Z M 44.933594 64.367188 " />
</svg>
