<svg width="128" height="128" viewBox="0 0 128 128" fill="none" xmlns="http://www.w3.org/2000/svg">
  <circle cx="64" cy="64" r="64" fill="#F00500" />
  <path d="M93.5147 73.2528C93.4651 73.5165 92.6887 74.3079 91.9124 74.885C89.6328 76.5501 85.5527 78.0999 81.4065 78.8418C79.0444 79.2705 76.6822 79.3364 75.9719 78.9902C75.5094 78.7594 75.4433 78.578 75.6085 77.9845C75.9554 76.748 77.0786 75.396 78.8296 74.1266C79.7216 73.4836 83.3392 71.2908 85.0241 70.3675C87.7992 68.8508 90.0458 67.944 91.5655 67.7296C92.0445 67.6637 92.6227 67.6472 92.8044 67.7296C93.1017 67.8451 93.4321 68.7189 93.5642 69.774C93.6303 70.3346 93.5973 72.8076 93.5147 73.2528Z"
        fill="black" />
  <path d="M54.5964 78.7096C54.4973 78.9074 54.0018 79.1218 53.4401 79.2042C52.8785 79.2866 51.1606 79.2372 50.186 79.1218C46.684 78.6601 42.9673 77.5885 40.2583 76.2695C38.7386 75.5276 37.6483 74.7857 36.8389 73.9779L36.3764 73.4997L36.3268 72.8732C36.2443 71.7851 36.2608 70.0705 36.3929 69.4605C36.4755 68.9494 36.6572 68.4547 36.905 68.0096C37.0372 67.8447 37.0372 67.8447 37.6318 67.8447C38.3586 67.8447 38.9698 67.9601 39.9609 68.2734C41.9927 68.8999 45.0156 70.4167 48.6993 72.6259C51.7387 74.4395 52.8785 75.3298 53.754 76.5498C54.3487 77.3082 54.7451 78.3799 54.5964 78.7096Z"
        fill="black" />
  <path d="M77.9863 101.66C77.9863 101.709 77.7881 102.501 77.5403 103.441C77.2926 104.38 77.0943 105.139 77.0943 105.172C76.9126 105.188 76.7474 105.205 76.5657 105.188H76.0371L75.3103 106.903C74.9139 107.843 74.5505 108.716 74.5009 108.848L74.4018 109.079L74.0549 108.518L73.708 107.958V103.391L73.5759 103.424C73.295 103.49 71.2963 103.754 70.4208 103.836C66.8032 104.199 63.1691 104.116 59.5681 103.605C58.9899 103.523 58.4944 103.457 58.4778 103.473C58.4613 103.49 58.4779 104.545 58.5109 105.848L58.5604 108.189L58.2796 108.617C58.131 108.848 57.9823 109.046 57.9823 109.063C57.9327 109.112 57.7675 108.848 57.3876 108.09C56.9746 107.298 56.6773 106.458 56.4626 105.584L56.3469 105.106L55.8349 105.139L55.3228 105.188L55.1906 104.578C55.1246 104.248 55.042 103.737 55.0089 103.457L54.9594 102.929L54.5299 102.55C54.2821 102.336 54.0343 102.122 53.9848 102.089C53.9022 102.023 53.8691 101.907 53.8691 101.808V101.61L55.934 101.627L57.9988 101.643L58.0649 101.858L58.131 102.072L58.8413 102.105C59.2377 102.122 60.4931 102.155 61.6164 102.188L63.6812 102.237L64.2098 101.413L64.7549 100.588H65.4487L65.4322 98.8736L65.4157 97.159L64.5071 96.7633C61.5833 95.4773 59.8654 94.01 59.2212 92.2294C59.089 91.8667 59.089 91.7348 59.056 90.0861C59.0395 88.4539 59.0395 88.3055 59.1551 87.9428C59.3864 87.1185 60.0306 86.4755 60.8565 86.2611C61.1373 86.1787 61.8807 86.1787 65.7791 86.1787L70.3712 86.1952L70.8833 86.4425C71.4945 86.7393 71.7753 86.9536 72.1222 87.4152C72.5187 87.9428 72.6343 88.355 72.6343 89.3607C72.6343 90.795 72.5352 92.0316 72.3865 92.5262C72.1718 93.2021 71.8414 93.8451 71.4284 94.4222C70.6025 95.4773 69.0993 96.5325 67.7283 97.0106L67.3318 97.159L67.3484 98.8901L67.3649 100.621L67.7283 100.654L68.0917 100.687L68.5872 101.429L69.0663 102.171H71.2798C72.5021 102.171 73.5759 102.187 73.675 102.204C73.8402 102.237 73.8732 102.22 74.0384 101.94L74.2366 101.643H76.1362C77.5569 101.577 77.9863 101.61 77.9863 101.66Z"
        fill="black" />
  <path d="M69.2649 106.392C68.9511 106.573 68.7363 106.655 68.6868 106.622C68.6372 106.606 68.406 106.408 68.1582 106.227L67.7122 105.864L67.2497 106.359C66.242 107.447 66.209 107.496 65.9116 107.513C65.4491 107.562 65.35 107.48 64.7884 106.639C64.4911 106.21 64.2598 105.848 64.2598 105.848C64.2598 105.848 64.0451 105.815 63.7973 105.798L63.3347 105.749L63.12 106.194L62.9053 106.639L62.5253 106.524C62.228 106.425 61.9307 106.309 61.6499 106.177L61.1543 105.93V104.99L65.5482 105.007L69.9422 105.023L69.9587 105.468C69.9752 105.996 69.9918 105.979 69.2649 106.392Z"
        fill="black" />
  <path d="M110.561 86.2781C110.545 86.2121 110.545 86.0967 110.528 85.9154C106.564 85.4867 95.2486 85.2229 84.7428 93.8785C84.7428 93.8785 81.3565 78.3809 65.4986 78.3809C49.6407 78.3809 43.7601 93.8785 43.7601 93.8785C34.8731 84.3326 22.9797 85.0251 18.6848 85.6516C18.6848 85.7505 18.6683 85.8659 18.6683 85.9648C18.5361 88.3554 18.6022 89.493 18.9987 90.9933C20.2376 95.6921 24.0534 100.869 30.0331 105.947C39.8287 114.256 53.1096 120.258 63.1695 120.95C73.6588 121.659 89.1367 115.542 99.4444 106.606C101.063 105.172 102.583 103.655 104.004 102.04C105.028 100.853 106.547 98.8081 106.432 98.8081C106.399 98.8081 106.432 98.7752 106.498 98.7422C106.547 98.7092 106.597 98.6597 106.564 98.6268C106.547 98.6103 106.58 98.5608 106.63 98.5443C106.68 98.5279 106.713 98.4949 106.696 98.4619C106.68 98.4289 106.696 98.396 106.762 98.3795C106.812 98.363 106.828 98.3135 106.812 98.2806C106.795 98.2476 106.812 98.2146 106.845 98.2146C106.878 98.2146 106.911 98.1651 106.911 98.1322C106.911 98.0992 106.944 98.0497 106.977 98.0497C107.01 98.0497 107.043 98.0168 107.043 97.9838C107.092 97.8519 107.175 97.72 107.258 97.6046C107.505 97.2254 108.497 95.4613 108.629 95.1645C109.57 93.0377 110.165 91.1417 110.446 89.2457C110.545 88.339 110.627 86.6738 110.561 86.2781ZM69.2648 106.392C68.951 106.573 68.7362 106.656 68.6867 106.623C68.6371 106.606 68.4059 106.409 68.1581 106.227L67.7121 105.865L67.2496 106.359C66.2419 107.447 66.2089 107.497 65.9116 107.513C65.449 107.563 65.3499 107.48 64.7883 106.639C64.491 106.211 64.2597 105.848 64.2597 105.848C64.2597 105.848 64.045 105.815 63.7972 105.799L63.3347 105.749L63.1199 106.194L62.9052 106.639L62.5252 106.524C62.2279 106.425 61.9306 106.31 61.6498 106.178L61.1542 105.93V104.991L65.5482 105.007L69.9421 105.024L69.9586 105.469C69.9751 105.996 69.9917 105.98 69.2648 106.392ZM77.5242 103.424C77.2764 104.364 77.0781 105.123 77.0781 105.156C76.8964 105.172 76.7313 105.189 76.5496 105.172H76.021L75.3107 106.903C74.9142 107.843 74.5508 108.717 74.5012 108.849L74.4021 109.079L74.0552 108.519L73.7084 107.958V103.391L73.5762 103.424C73.2954 103.49 71.2966 103.754 70.4211 103.837C66.8036 104.199 63.1695 104.117 59.5684 103.606C58.9902 103.523 58.4947 103.457 58.4782 103.474C58.4617 103.49 58.4782 104.546 58.5112 105.848L58.5608 108.189L58.28 108.618C58.1313 108.849 57.9826 109.046 57.9826 109.063C57.9331 109.112 57.7679 108.849 57.388 108.09C56.975 107.299 56.6777 106.458 56.4629 105.584L56.3473 105.106L55.8352 105.139L55.3231 105.189L55.191 104.579C55.1249 104.249 55.0423 103.738 55.0093 103.457L54.9597 102.93L54.5302 102.551C54.2824 102.336 54.0347 102.122 53.9851 102.089C53.9025 102.023 53.8695 101.908 53.8695 101.809V101.611L55.9343 101.627L57.9991 101.644L58.0652 101.858L58.1313 102.073L58.8416 102.106C59.238 102.122 60.4934 102.155 61.6167 102.188L63.6815 102.237L64.2101 101.413L64.7553 100.589H65.449L65.4325 98.8741L65.416 97.1594L64.5075 96.7638C61.5837 95.4778 59.8657 94.0104 59.2215 92.2299C59.0894 91.8671 59.0894 91.7353 59.0563 90.0866C59.0398 88.4544 59.0398 88.306 59.1554 87.9433C59.3867 87.1189 60.0309 86.4759 60.8569 86.2616C61.1377 86.1792 61.881 86.1792 65.7794 86.1792L70.3716 86.1957L70.8837 86.443C71.4948 86.7397 71.7757 86.954 72.1226 87.4157C72.519 87.9433 72.6346 88.3554 72.6346 89.3611C72.6346 90.7955 72.5355 92.032 72.3869 92.5266C72.1721 93.2026 71.8417 93.8456 71.4288 94.4226C70.6028 95.4778 69.0996 96.5329 67.7286 97.0111L67.3322 97.1594L67.3487 98.8906L67.3652 100.622L67.7286 100.655L68.092 100.688L68.5876 101.43L69.0666 102.171H71.2801C72.5025 102.171 73.5762 102.188 73.6753 102.204C73.8405 102.237 73.8735 102.221 74.0387 101.941L74.2369 101.644H76.1366C77.6067 101.644 78.0362 101.66 78.0362 101.71C77.9867 101.693 77.7719 102.501 77.5242 103.424Z"
        fill="white" />
  <path d="M110.43 84.5962C110.397 83.8542 110.331 82.8156 110.281 82.3045C109.571 74.8194 107.655 68.7028 104.021 62.2234C103.872 61.9761 103.74 61.7288 103.657 61.531C103.624 61.4815 103.608 61.4321 103.591 61.3991C104.103 59.8658 106.201 53.4524 107.869 46.1157C110.132 36.1576 111.57 24.5179 107.176 21.0227C107.176 21.0227 99.5771 20.4621 89.4016 30.4202C86.643 33.1735 84.1156 36.1576 81.8691 39.3396L81.1588 39.1088C77.0622 37.7733 72.8169 36.949 68.5386 36.6687C67.2501 36.5698 62.4432 36.5698 60.8739 36.6687C56.1331 36.982 52.499 37.6909 48.3694 39.1253C48.2042 39.1912 48.0555 39.2407 47.9068 39.2901C45.5777 36.1247 42.9843 33.157 40.1266 30.4367C29.5381 20.4291 21.6587 21.0062 21.6587 21.0062C17.0005 24.6168 18.5863 36.7841 20.998 47.072C22.5838 53.8811 24.533 59.8658 25.2598 62.0256C25.2102 62.141 25.1442 62.2729 25.0781 62.3883C21.2293 70.1701 19.1479 77.6716 18.6523 85.6513C22.9637 85.0248 34.8406 84.3159 43.7441 93.8783C43.7441 93.8783 49.6248 78.3806 65.4826 78.3806C81.3405 78.3806 84.7268 93.8783 84.7268 93.8783C95.2327 85.2227 106.548 85.5029 110.512 85.9151C110.496 85.5854 110.463 85.0908 110.43 84.5962ZM28.3818 55.81C28.3818 55.81 22.2038 40.3948 23.7896 31.5908C24.0539 30.1069 24.5495 28.8045 25.3259 27.8153C25.3259 27.8153 32.3298 28.5077 43.6285 41.0378C43.6285 41.0378 41.4811 42.0764 38.6068 44.2857C38.6068 44.2857 38.5903 44.3022 38.5738 44.3022C35.4518 46.6928 31.4543 50.4848 28.3818 55.81ZM54.5969 78.7103C54.4977 78.9082 54.0022 79.1225 53.4406 79.2049C52.8789 79.2874 51.161 79.2379 50.1864 79.1225C46.6845 78.6609 42.9678 77.5892 40.2587 76.2703C38.739 75.5284 37.6488 74.7864 36.8393 73.9786L36.3768 73.5005L36.3273 72.874C36.2447 71.7858 36.2612 70.0712 36.3933 69.4612C36.4759 68.9501 36.6576 68.4555 36.9054 68.0103C37.0376 67.8455 37.0376 67.8455 37.6322 67.8455C38.3591 67.8455 38.9702 67.9609 39.9614 68.2741C41.9932 68.9006 45.0161 70.4174 48.6997 72.6267C51.7391 74.4402 52.8789 75.3305 53.7544 76.5505C54.3491 77.3089 54.7455 78.3806 54.5969 78.7103ZM93.5147 73.2532C93.4652 73.517 92.6888 74.3083 91.9124 74.8854C89.6329 76.5505 85.5528 78.1003 81.4066 78.8422C79.0444 79.2709 76.6823 79.3368 75.972 78.9906C75.5094 78.7598 75.4434 78.5784 75.6086 77.9849C75.9555 76.7484 77.0787 75.3965 78.8297 74.127C79.7217 73.484 83.3393 71.2912 85.0242 70.368C87.7993 68.8512 90.0458 67.9444 91.5656 67.7301C92.0446 67.6641 92.6227 67.6476 92.8044 67.7301C93.1018 67.8455 93.4322 68.7193 93.5643 69.7744C93.6304 70.335 93.5973 72.808 93.5147 73.2532ZM90.7726 44.2857L90.7396 44.2692C87.9645 42.0599 85.8831 41.0213 85.8831 41.0213C96.8019 28.4912 103.558 27.7988 103.558 27.7988C104.301 28.8045 104.78 30.0905 105.045 31.5743C106.581 40.3783 100.618 55.81 100.618 55.81C98.1234 51.375 94.7701 47.4512 90.7726 44.2857Z"
        fill="#FFA409" />
  <path d="M105.061 31.5743C103.772 31.4095 97.6771 31.3765 90.7723 44.2857L90.7393 44.2692C87.9642 42.06 85.8828 41.0213 85.8828 41.0213C96.8016 28.4913 103.558 27.7988 103.558 27.7988C104.318 28.8045 104.797 30.0905 105.061 31.5743Z"
        fill="#FF9300" />
  <path d="M100.634 55.8105C98.1233 51.359 94.7865 47.4516 90.7725 44.2861C97.6772 31.3769 103.756 31.4099 105.061 31.5747C106.597 40.3952 100.634 55.8105 100.634 55.8105Z"
        fill="#FF8300" />
  <path d="M105.308 31.6237C105.226 31.6072 105.143 31.5907 105.061 31.5742L105.308 31.6237Z" fill="#FF8300" />
  <path d="M43.6288 41.0213C43.6288 41.0213 41.4814 42.06 38.6072 44.2692C38.6072 44.2692 38.5906 44.2857 38.5741 44.2857C31.4216 31.36 25.128 31.4095 23.7734 31.5743C24.0377 30.0905 24.5333 28.788 25.3097 27.7988C25.3262 27.7988 32.3301 28.4913 43.6288 41.0213Z"
        fill="#FF9300" />
  <path d="M38.5903 44.2861C35.4517 46.6932 31.4542 50.4687 28.3818 55.8105C28.3818 55.8105 22.2038 40.3952 23.7896 31.5747C25.1276 31.4099 31.4377 31.3769 38.5903 44.2861Z"
        fill="#FF8300" />
  <path d="M23.7897 31.5742C23.7071 31.5907 23.608 31.6072 23.5254 31.6237L23.7897 31.5742Z" fill="#FF8300" />
  <path d="M83.9167 64.3668C83.9167 64.3668 78.6308 64.6966 79.2915 60.5749C79.9523 56.4531 84.0819 55.9585 85.2382 56.1234C86.3945 56.2883 91.0198 57.937 90.1938 61.3992C89.3679 64.8615 88.2116 64.202 87.5508 64.3668C86.8901 64.5317 83.9167 64.3668 83.9167 64.3668Z"
        fill="white" />
  <path d="M44.9333 64.3668C44.9333 64.3668 39.6474 64.6966 40.3081 60.5749C40.9689 56.4531 45.0985 55.9585 46.2548 56.1234C47.4111 56.2883 52.0364 57.937 51.2104 61.3992C50.3845 64.8615 49.2282 64.202 48.5674 64.3668C47.9067 64.5317 44.9333 64.3668 44.9333 64.3668Z"
        fill="white" />
</svg>
