<?xml version="1.0" encoding="UTF-8"?>
<svg xmlns:xlink="http://www.w3.org/1999/xlink" xmlns="http://www.w3.org/2000/svg" width="128" height="128"
     viewBox="0 0 128 128">
  <defs>
    <filter id="filter-remove-color" x="0%" y="0%" width="100%" height="100%">
      <feColorMatrix color-interpolation-filters="sRGB" values="0 0 0 0 1 0 0 0 0 1 0 0 0 0 1 0 0 0 1 0" />
    </filter>
    <clipPath id="clip-0">
      <path clip-rule="nonzero" d="M 0 0 L 153.601562 0 L 153.601562 153.601562 L 0 153.601562 Z M 0 0 " />
    </clipPath>
    <clipPath id="clip-1">
      <path clip-rule="nonzero" d="M 36.5 27 L 86.5 27 L 86.5 99 L 36.5 99 Z M 36.5 27 " />
    </clipPath>
    <clipPath id="clip-2">
      <rect x="0" y="0" width="154" height="154" />
    </clipPath>
    <g id="source-1564" clip-path="url(#clip-2)">
      <g clip-path="url(#clip-1)">
        <path fill-rule="nonzero" fill="rgb(100%, 100%, 100%)" fill-opacity="1"
              d="M 86.148438 27.132812 L 36.992188 27.132812 L 36.992188 98.558594 L 86.148438 98.558594 Z M 86.148438 27.132812 " />
      </g>
    </g>
    <clipPath id="clip-3">
      <rect x="0" y="0" width="154" height="154" />
    </clipPath>
    <g id="source-1567" clip-path="url(#clip-3)">
      <g clip-path="url(#clip-0)">
        <use xlink:href="#source-1564" />
      </g>
    </g>
    <mask id="mask-0">
      <g filter="url(#filter-remove-color)">
        <use xlink:href="#source-1567" />
      </g>
    </mask>
    <clipPath id="clip-4">
      <rect x="0" y="0" width="128" height="128" />
    </clipPath>
    <g id="source-1566" clip-path="url(#clip-4)">
      <path fill-rule="nonzero" fill="rgb(100%, 100%, 100%)" fill-opacity="1"
            d="M 62.121094 44.988281 C 62.121094 42.152344 64.4375 39.839844 67.28125 39.839844 L 76.511719 39.839844 L 76.511719 27.304688 L 67.28125 27.304688 C 57.5 27.304688 49.570312 35.222656 49.570312 44.988281 C 49.570312 47.539062 50.113281 49.960938 51.085938 52.148438 C 43.488281 55.351562 38.445312 62.164062 37.269531 70.785156 C 35.898438 80.25 39.695312 90.460938 47.964844 95.394531 C 55.347656 100.035156 66.890625 99.726562 73.128906 93.289062 L 73.128906 97.5625 L 85.976562 97.5625 L 85.976562 50.140625 L 67.285156 50.140625 C 64.445312 50.140625 62.121094 47.828125 62.121094 44.988281 Z M 73.414062 62.679688 L 73.414062 74.585938 C 73.414062 81.160156 68.070312 86.488281 61.492188 86.488281 C 54.910156 86.488281 49.570312 81.15625 49.570312 74.585938 C 49.570312 68.011719 54.910156 62.679688 61.492188 62.679688 Z M 73.414062 62.679688 " />
    </g>
  </defs>
  <path fill-rule="nonzero" fill="rgb(1.568627%, 1.568627%, 1.568627%)" fill-opacity="1"
        d="M 0 64 C 0 28.921875 28.652344 0 64 0 C 99.347656 0 128 28.921875 128 64 C 128 99.078125 99.347656 128 64 128 C 28.652344 128 0 99.078125 0 64 Z M 0 64 " />
  <g mask="url(#mask-0)">
    <use xlink:href="#source-1566" />
  </g>
</svg>
