<svg width="128" height="128" viewBox="0 0 128 128" fill="none" xmlns="http://www.w3.org/2000/svg">
  <circle cx="64" cy="64" r="64" fill="#ECEFF0" />
  <g clip-path="url(#clip0_26_3)">
    <path d="M63.9911 16L63.3574 18.1877V81.6644L63.9911 82.3069L92.9819 64.8902L63.9911 16Z" fill="#343434" />
    <path d="M63.9915 16L35 64.8902L63.9915 82.3069V51.4971V16Z" fill="#8C8C8C" />
    <path d="M63.9919 87.8855L63.6348 88.3282V110.94L63.9919 111.999L93.0004 70.4778L63.9919 87.8855Z" fill="#3C3C3B" />
    <path d="M63.9915 111.999V87.8855L35 70.4778L63.9915 111.999Z" fill="#8C8C8C" />
    <path d="M63.9912 82.3069L92.982 64.8901L63.9912 51.4971V82.3069Z" fill="#141414" />
    <path d="M35 64.8901L63.9915 82.3069V51.4971L35 64.8901Z" fill="#393939" />
  </g>
  <defs>
    <clipPath id="clip0_26_3">
      <rect width="58" height="96" fill="white" transform="translate(35 16)" />
    </clipPath>
  </defs>
</svg>
