<svg width="128" height="128" viewBox="0 0 128 128" fill="none" xmlns="http://www.w3.org/2000/svg">
  <path d="M128 63.2603C128 71.8167 124.467 80.0885 121.369 87.5397C118.272 94.991 113.483 102.359 107.672 108.169C101.862 113.979 94.8796 118.986 87.1772 122.184C79.7427 125.265 71.337 127.81 62.7806 127.81C54.2242 127.81 45.6343 125.7 38.1998 122.619C30.4806 119.421 25.2062 112.472 19.3959 106.645C13.5855 100.835 7.07198 95.3761 3.8738 87.6569C0.675617 79.9378 0.156545 71.8167 0.156545 63.2603C0.156545 54.7039 -0.848122 45.6285 2.23285 38.1772C5.43103 30.4581 12.179 24.2961 18.0061 18.4858C23.8164 12.6755 30.263 6.59729 37.9821 3.39911C45.4166 0.318145 54.2242 0 62.7806 0C71.337 0 79.6255 1.55723 87.06 4.6382C94.7791 7.83638 102.214 12.1899 108.024 18.017C113.834 23.8273 118.874 30.9939 122.072 38.6963C125.153 46.1308 128 54.7039 128 63.2603Z"
        fill="#6FC7BA" />
  <path d="M67.1329 97.719L80.6959 99.7283L86.0876 63.259L80.6959 26.7729L67.1329 28.7823L71.0009 55.0207L42.6191 33.1693L34.2637 44.0699L59.1626 63.259L34.2637 82.4313L42.6191 93.3487L71.0009 71.4805L67.1329 97.719Z"
        fill="white" />
</svg>
