<?xml version="1.0" encoding="UTF-8"?>
<svg xmlns="http://www.w3.org/2000/svg" width="128" height="128"
     viewBox="0 0 128 128">
  <path fill-rule="nonzero" fill="rgb(43.529412%, 78.039216%, 72.941176%)" fill-opacity="1"
        d="M 128 63.261719 C 128 71.816406 124.46875 80.089844 121.367188 87.539062 C 118.273438 94.992188 113.484375 102.359375 107.671875 108.167969 C 101.863281 113.980469 94.878906 118.984375 87.175781 122.183594 C 79.742188 125.265625 71.335938 127.808594 62.78125 127.808594 C 54.222656 127.808594 45.632812 125.699219 38.199219 122.617188 C 30.480469 119.421875 25.207031 112.472656 19.394531 106.644531 C 13.585938 100.835938 7.070312 95.375 3.875 87.65625 C 0.675781 79.9375 0.15625 71.816406 0.15625 63.261719 C 0.15625 54.703125 -0.847656 45.628906 2.234375 38.175781 C 5.429688 30.457031 12.179688 24.296875 18.007812 18.484375 C 23.816406 12.675781 30.261719 6.597656 37.980469 3.398438 C 45.417969 0.316406 54.222656 0 62.78125 0 C 71.335938 0 79.625 1.558594 87.058594 4.636719 C 94.777344 7.835938 102.214844 12.191406 108.023438 18.015625 C 113.835938 23.828125 118.875 30.992188 122.070312 38.695312 C 125.152344 46.128906 128 54.703125 128 63.261719 Z M 128 63.261719 " />
  <path fill-rule="nonzero" fill="rgb(100%, 100%, 100%)" fill-opacity="1"
        d="M 67.132812 97.71875 L 80.695312 99.726562 L 86.085938 63.257812 L 80.695312 26.773438 L 67.132812 28.78125 L 71 55.019531 L 42.617188 33.167969 L 34.265625 44.070312 L 59.164062 63.257812 L 34.265625 82.429688 L 42.617188 93.347656 L 71 71.480469 Z M 67.132812 97.71875 " />
</svg>
