<svg width="128" height="128" viewBox="0 0 128 128" fill="none" xmlns="http://www.w3.org/2000/svg">
  <circle cx="64" cy="64" r="64" fill="#7B2BF9" />
  <path d="M114.865 53.1298C108.902 25.0782 81.2731 7.15228 53.2074 13.1599C43.3675 15.2432 34.4001 20.1364 27.2746 27.2099C24.8994 29.5839 22.7666 32.1517 20.9247 34.9132C20.3915 35.6399 19.9067 36.4151 19.4705 37.2387C4.63787 61.8021 12.5874 93.778 37.163 108.555C61.7386 123.332 93.7305 115.434 108.515 90.8711C109.678 88.9332 110.696 86.9468 111.617 84.912C111.908 84.2821 112.199 83.6038 112.441 82.9256C116.125 73.4781 116.949 63.2071 114.913 53.3236L114.865 53.1298ZM96.8328 29.3901C97.1236 29.6808 97.4145 29.9715 97.7053 30.2622C102.213 34.7679 105.8 40.1456 108.224 46.0563C108.369 46.4439 108.175 46.9284 107.788 47.1222C107.642 47.1707 107.497 47.2191 107.351 47.1707C105.849 46.9284 104.298 46.7831 102.746 46.8315C101.583 46.8315 100.565 46.0079 100.323 44.8451C99.4988 40.0003 98.1415 35.2523 96.3481 30.6498C96.2511 30.4075 96.1542 30.1653 96.0572 29.923C95.9118 29.6808 95.9603 29.3901 96.1542 29.1963C96.3481 29.0025 96.6874 29.1479 96.8328 29.3901ZM101.777 59.8641C101.777 59.5734 102.019 59.2828 102.31 59.2828C102.504 59.2828 102.649 59.3796 102.795 59.525C103.183 60.0579 103.57 60.6393 103.91 61.1722C104.395 61.899 104.831 62.6257 105.267 63.3524C105.509 63.7885 105.461 64.3698 105.122 64.7574C104.588 65.3872 103.958 66.0171 103.28 66.6469L102.553 67.3736C102.359 67.5674 102.068 67.519 101.874 67.3252C101.777 67.2283 101.729 67.1314 101.729 66.986C101.777 66.2109 101.777 65.4357 101.777 64.6121C101.825 63.0617 101.825 61.4629 101.777 59.8641ZM36.339 25.1266C44.4339 19.3613 54.1284 16.2606 64.0168 16.309C66.6343 16.309 69.2519 16.5028 71.8694 16.9389C72.3056 16.9873 72.5965 17.4233 72.548 17.8594C72.4995 18.0532 72.4026 18.247 72.2572 18.3439C69.7851 20.2818 67.4584 23.1887 65.4225 26.9192C64.9378 27.8397 63.8714 28.2758 62.8535 27.9851C56.5036 26.1441 49.8628 25.272 43.2221 25.4173C41.0408 25.4658 38.908 25.708 36.7752 26.0956C36.4844 26.1441 36.1935 25.9503 36.1451 25.6596C36.0966 25.4658 36.1935 25.272 36.339 25.1266ZM29.5528 96.2973C28.5349 94.4078 29.8436 90.0475 36.4359 83.3616C37.066 82.7318 37.066 81.6659 36.3874 81.0361C36.339 80.9876 36.2905 80.9876 36.2905 80.9392L35.5149 80.3094C34.8848 79.7764 33.9153 79.8249 33.3337 80.4062L33.0913 80.6485C29.7952 84.0399 27.5169 87.1406 26.2082 89.9506C25.9173 90.532 25.2872 90.7258 24.7055 90.4835C24.5116 90.3866 24.3662 90.2897 24.2693 90.0959C19.0827 82.3926 16.3682 73.2843 16.3682 63.9822C16.3682 60.6393 16.7075 57.2964 17.3862 54.0503C17.4346 53.8081 17.7255 53.6143 17.9678 53.6627C18.1133 53.7112 18.2587 53.8081 18.3071 54.0019C19.422 57.5871 21.0701 60.93 23.1059 64.0791C26.3536 68.9724 30.2799 73.3812 34.7394 77.1602C36.339 78.5652 38.0355 79.8733 39.7805 81.1814C43.416 83.8461 47.2938 86.2201 51.317 88.3033C53.159 89.2723 54.904 90.1444 56.7459 90.968C57.7639 91.404 58.9272 91.4525 59.9451 91.0649C60.8176 90.7258 61.6901 90.3866 62.5626 89.999C63.5321 89.6115 64.0168 88.594 63.7745 87.5766C63.726 87.4313 63.726 87.3344 63.726 87.2859C62.2233 80.7454 61.4478 74.0595 61.3993 67.3252C61.3993 67.2283 61.3993 67.1314 61.3993 67.0829C61.3993 66.6954 61.3993 66.3078 61.3993 65.9202C61.3993 65.7748 61.3993 65.581 61.3993 65.4357V65.2904C61.3993 64.8543 61.3993 64.4183 61.3993 63.9338C61.4478 62.7226 61.4478 61.5114 61.5447 60.3002C61.981 51.7248 63.4351 43.6339 65.7618 36.8511C65.9557 36.2213 65.6649 35.543 65.0347 35.3492C64.4046 35.1555 63.8229 34.9617 63.1928 34.7679C62.5626 34.5741 61.9325 34.9132 61.6901 35.543C59.1696 42.9072 57.6184 51.6764 57.2307 60.93C57.1822 62.0928 56.552 63.1586 55.5341 63.7885C50.3475 66.8407 45.3549 70.2321 40.653 73.9626C39.732 74.6893 38.4718 74.6409 37.5508 73.9142C33.3821 70.3774 29.7467 66.3078 26.7414 61.7536C21.3124 53.372 20.0037 45.475 23.1059 39.5643L23.1544 39.5158C23.5422 38.8375 23.9784 38.2077 24.4147 37.5779C28.0017 32.8784 34.5939 30.1168 43.416 29.8261C43.9492 29.8261 44.5308 29.7777 45.1125 29.7777C50.8807 29.8261 56.649 30.6982 62.1749 32.3454L62.5626 32.4423L62.8535 32.5392C64.2107 32.9268 65.5679 33.4113 66.9252 33.8958L67.0221 33.9442L68.0885 34.3318L68.4278 34.4772L68.7671 34.5741C71.6755 35.6884 74.5838 36.9965 77.3468 38.4499C82.6788 41.2115 87.6715 44.506 92.2279 48.3334C83.8906 50.2714 74.1961 53.9534 64.4046 58.9436C63.9683 59.1859 63.6775 59.6219 63.629 60.1064C63.5806 60.6878 63.5321 61.9474 63.5321 62.9164C63.5321 63.3524 63.8714 63.74 64.3077 63.74C64.4531 63.74 64.55 63.6916 64.6954 63.6431C74.3415 58.556 83.9875 54.7771 92.2764 52.7907C93.8275 52.4031 94.8454 50.9496 94.603 49.3508C94.4576 48.2365 94.2637 47.1707 94.0698 46.1048C93.8275 44.7482 93.1004 43.5855 92.034 42.7619C88.0108 39.7096 83.7936 37.0449 79.2857 34.7194C76.2319 33.1206 73.1297 31.7156 69.9305 30.5044C69.3003 30.2622 69.0095 29.5839 69.2519 29.0025C69.2519 28.9541 69.3003 28.9056 69.3488 28.8572C72.5965 23.0918 76.4258 19.8458 80.1582 19.8458H80.2551C84.6662 19.9427 89.0772 24.5453 92.3248 32.4423C94.0698 36.8511 95.3786 41.4537 96.1542 46.1048C96.5419 48.2365 96.8328 50.4651 97.0751 52.7422L97.0267 52.7907L97.1236 52.8876C97.5114 56.8119 97.6568 60.7847 97.5599 64.7574C97.5114 67.3252 97.366 69.8445 97.1721 72.3154C90.5313 77.5478 83.4543 82.1988 75.9411 86.0747C73.3236 87.4797 70.6576 88.7878 68.04 89.9506L67.9431 89.999L67.3614 90.2897C65.1802 91.2587 63.0474 92.1792 60.963 93.0028L60.6237 93.1482L60.1875 93.342L59.1211 93.7296L58.8302 93.8265C58.394 93.9718 57.9577 94.1171 57.57 94.3109L57.4245 94.3594C53.2559 95.8613 48.9903 97.0725 44.6762 97.9446C35.0302 99.6403 30.5707 98.2353 29.5528 96.2973ZM42.6404 77.8385C47.2453 74.1564 52.0926 70.765 57.1822 67.7612C57.2791 74.3018 58.0062 80.8423 59.4119 87.2859C57.4245 86.4138 55.4372 85.4933 53.4498 84.4759C49.6689 82.4895 46.0335 80.3094 42.6404 77.8385ZM70.2213 111.219C68.1855 111.462 66.1496 111.607 64.0653 111.607C54.9524 111.655 45.985 109.039 38.3263 104.098C38.0355 103.904 37.9386 103.516 38.1324 103.225C38.2294 103.032 38.4233 102.935 38.6656 102.935H39.0049C41.1377 102.789 43.2705 102.499 45.3549 102.063C50.8323 100.948 56.1643 99.3496 61.3508 97.3632C61.884 97.1694 62.4172 97.4116 62.6111 97.9446C64.8409 103.322 67.5068 107.344 70.5606 109.96C70.8999 110.25 70.8999 110.735 70.6091 111.026C70.5121 111.074 70.3667 111.171 70.2213 111.219ZM90.3374 98.4775C86.9444 105.163 82.7272 108.942 78.704 108.845C74.293 108.749 69.882 104.194 66.6343 96.2489C66.4404 95.7644 66.6828 95.183 67.1675 94.9408L67.2645 94.8923C67.4584 94.7954 67.7007 94.7954 67.9431 94.8439C73.7113 96.4911 79.6735 97.4116 85.6841 97.4601C86.3142 97.4601 86.8959 97.4601 87.526 97.4116C88.2531 97.3632 88.9317 97.3632 89.6104 97.3147C90.0466 97.3147 90.4344 97.6539 90.4344 98.0899C90.4344 98.2353 90.3859 98.3806 90.3374 98.4775ZM91.7916 92.7122C90.289 92.9059 88.7863 93.0513 87.3321 93.0997C83.3089 93.1966 79.2857 92.9059 75.3109 92.1308C75.0201 92.0823 74.8262 91.7916 74.8747 91.5009C74.9232 91.3556 75.0201 91.2103 75.1655 91.1133C76.0865 90.6773 76.959 90.1928 77.88 89.7083C83.9391 86.5107 89.7558 82.9256 95.3301 78.9044C95.5725 78.7106 95.9118 78.759 96.0572 79.0013C96.1542 79.0982 96.2026 79.2919 96.1542 79.4373C95.4755 83.5554 94.5061 87.5766 93.1973 91.5009C93.0034 92.1792 92.4702 92.6152 91.7916 92.7122ZM98.8202 96.4911C98.4809 96.8787 98.0931 97.2663 97.7053 97.6054C97.0751 98.2353 96.3965 98.8651 95.7179 99.4949C95.4755 99.6887 95.1362 99.6403 94.9423 99.4465C94.7969 99.3011 94.7969 99.0589 94.8454 98.8651C94.8939 98.7197 94.9908 98.5744 95.0393 98.4291C95.3301 97.7992 95.621 97.1209 95.8633 96.4911C95.9118 96.3458 96.0572 96.2004 96.2026 96.2004C96.8812 96.0551 97.5599 95.8613 98.19 95.6191C98.4808 95.5222 98.7717 95.6675 98.8686 95.9582C99.014 96.152 98.9656 96.3458 98.8202 96.4911ZM108.418 81.3752C108.175 81.9566 107.933 82.538 107.691 83.1194L107.594 83.3616C106.043 86.3654 103.377 88.7878 99.8381 90.4351C99.3049 90.6773 98.7232 90.4351 98.4808 89.9506C98.3839 89.7083 98.3354 89.4661 98.4324 89.2723C99.6442 84.8635 100.517 80.3578 101.05 75.8037C101.147 74.9316 101.583 74.108 102.262 73.5266C103.716 72.2669 105.073 71.0073 106.333 69.7961C106.77 69.36 107.497 69.36 107.933 69.7961C108.078 69.9414 108.175 70.0867 108.224 70.2805C109.484 74.2533 109.533 78.0807 108.418 81.3752ZM109.387 59.089C109.145 59.5734 108.515 59.7188 108.078 59.4765C107.933 59.3797 107.836 59.2828 107.739 59.1374C107.691 59.0405 107.642 58.9436 107.545 58.8467C106.091 56.6181 104.443 54.4379 102.649 52.4515C102.359 52.1124 102.407 51.6279 102.698 51.3372C102.843 51.1919 103.037 51.1434 103.231 51.1434C107.497 51.1434 109.726 52.2093 110.405 53.4689C110.987 54.5348 110.841 56.4243 109.387 59.089ZM111.714 65.3872C111.714 65.5326 111.568 65.6779 111.423 65.6779C111.326 65.6779 111.181 65.581 111.132 65.4841L110.987 65.0966C110.89 64.8543 110.89 64.6121 111.035 64.3698C111.084 64.3214 111.132 64.2245 111.229 64.1276C111.423 63.8369 111.714 63.8853 111.714 64.176C111.714 64.6121 111.714 64.9512 111.714 65.3872Z"
        fill="white" />
</svg>
