<?xml version="1.0" encoding="UTF-8"?>
<svg xmlns="http://www.w3.org/2000/svg" width="128" height="128"
     viewBox="0 0 128 128">
  <path fill-rule="nonzero" fill="rgb(48.235294%, 16.862745%, 97.647059%)" fill-opacity="1"
        d="M 128 64 C 128 99.347656 99.347656 128 64 128 C 28.652344 128 0 99.347656 0 64 C 0 28.652344 28.652344 0 64 0 C 99.347656 0 128 28.652344 128 64 " />
  <path fill-rule="nonzero" fill="rgb(100%, 100%, 100%)" fill-opacity="1"
        d="M 114.863281 53.128906 C 108.902344 25.078125 81.273438 7.152344 53.207031 13.160156 C 43.367188 15.242188 34.398438 20.136719 27.273438 27.210938 C 24.898438 29.582031 22.765625 32.152344 20.925781 34.914062 C 20.390625 35.640625 19.90625 36.414062 19.46875 37.238281 C 4.636719 61.800781 12.585938 93.777344 37.164062 108.554688 C 61.738281 123.332031 93.730469 115.433594 108.515625 90.871094 C 109.679688 88.933594 110.695312 86.945312 111.617188 84.910156 C 111.90625 84.28125 112.199219 83.605469 112.441406 82.925781 C 116.125 73.476562 116.949219 63.207031 114.914062 53.324219 Z M 96.832031 29.390625 C 97.125 29.679688 97.414062 29.972656 97.707031 30.261719 C 102.214844 34.769531 105.800781 40.144531 108.222656 46.054688 C 108.367188 46.445312 108.175781 46.929688 107.789062 47.121094 C 107.640625 47.171875 107.496094 47.21875 107.351562 47.171875 C 105.847656 46.929688 104.296875 46.78125 102.746094 46.832031 C 101.582031 46.832031 100.566406 46.007812 100.324219 44.84375 C 99.5 40 98.140625 35.253906 96.347656 30.648438 C 96.25 30.40625 96.152344 30.164062 96.058594 29.921875 C 95.910156 29.679688 95.960938 29.390625 96.152344 29.195312 C 96.347656 29.003906 96.6875 29.148438 96.832031 29.390625 Z M 101.777344 59.863281 C 101.777344 59.574219 102.019531 59.28125 102.308594 59.28125 C 102.503906 59.28125 102.648438 59.378906 102.796875 59.523438 C 103.183594 60.058594 103.570312 60.640625 103.910156 61.171875 C 104.394531 61.898438 104.832031 62.625 105.265625 63.351562 C 105.507812 63.789062 105.460938 64.371094 105.121094 64.757812 C 104.589844 65.386719 103.957031 66.015625 103.28125 66.648438 L 102.554688 67.375 C 102.359375 67.566406 102.066406 67.519531 101.875 67.324219 C 101.777344 67.226562 101.730469 67.132812 101.730469 66.984375 C 101.777344 66.210938 101.777344 65.4375 101.777344 64.613281 C 101.824219 63.0625 101.824219 61.464844 101.777344 59.863281 Z M 36.339844 25.125 C 44.433594 19.359375 54.128906 16.261719 64.015625 16.308594 C 66.632812 16.308594 69.25 16.503906 71.871094 16.9375 C 72.304688 16.988281 72.597656 17.421875 72.546875 17.859375 C 72.5 18.054688 72.402344 18.246094 72.257812 18.34375 C 69.785156 20.28125 67.457031 23.1875 65.421875 26.917969 C 64.9375 27.839844 63.871094 28.277344 62.851562 27.984375 C 56.503906 26.144531 49.863281 25.273438 43.222656 25.417969 C 41.039062 25.464844 38.90625 25.707031 36.773438 26.09375 C 36.484375 26.144531 36.195312 25.949219 36.144531 25.660156 C 36.097656 25.464844 36.195312 25.273438 36.339844 25.125 Z M 29.554688 96.296875 C 28.535156 94.40625 29.84375 90.046875 36.4375 83.363281 C 37.066406 82.730469 37.066406 81.664062 36.386719 81.035156 C 36.339844 80.988281 36.289062 80.988281 36.289062 80.9375 L 35.515625 80.308594 C 34.886719 79.777344 33.914062 79.824219 33.332031 80.40625 L 33.089844 80.648438 C 29.796875 84.039062 27.515625 87.140625 26.207031 89.949219 C 25.917969 90.53125 25.289062 90.726562 24.707031 90.484375 C 24.511719 90.386719 24.367188 90.289062 24.269531 90.097656 C 19.082031 82.394531 16.367188 73.285156 16.367188 63.980469 C 16.367188 60.640625 16.707031 57.296875 17.386719 54.050781 C 17.433594 53.808594 17.726562 53.613281 17.96875 53.664062 C 18.113281 53.710938 18.257812 53.808594 18.308594 54 C 19.421875 57.585938 21.070312 60.929688 23.105469 64.078125 C 26.355469 68.972656 30.28125 73.382812 34.738281 77.160156 C 36.339844 78.566406 38.035156 79.875 39.78125 81.179688 C 43.414062 83.847656 47.292969 86.21875 51.316406 88.304688 C 53.160156 89.273438 54.902344 90.144531 56.746094 90.96875 C 57.765625 91.402344 58.925781 91.453125 59.945312 91.066406 C 60.816406 90.726562 61.691406 90.386719 62.5625 90 C 63.53125 89.613281 64.015625 88.59375 63.773438 87.578125 C 63.726562 87.429688 63.726562 87.335938 63.726562 87.285156 C 62.222656 80.746094 61.449219 74.058594 61.398438 67.324219 C 61.398438 67.226562 61.398438 67.132812 61.398438 67.082031 C 61.398438 66.695312 61.398438 66.308594 61.398438 65.921875 C 61.398438 65.773438 61.398438 65.582031 61.398438 65.4375 L 61.398438 65.289062 C 61.398438 64.855469 61.398438 64.417969 61.398438 63.933594 C 61.449219 62.722656 61.449219 61.511719 61.542969 60.300781 C 61.980469 51.726562 63.433594 43.632812 65.761719 36.851562 C 65.957031 36.222656 65.664062 35.542969 65.035156 35.347656 C 64.40625 35.15625 63.824219 34.960938 63.191406 34.769531 C 62.5625 34.574219 61.933594 34.914062 61.691406 35.542969 C 59.167969 42.90625 57.617188 51.675781 57.230469 60.929688 C 57.183594 62.09375 56.550781 63.160156 55.535156 63.789062 C 50.347656 66.839844 45.355469 70.230469 40.652344 73.960938 C 39.730469 74.6875 38.472656 74.640625 37.550781 73.914062 C 33.382812 70.378906 29.746094 66.308594 26.742188 61.753906 C 21.3125 53.371094 20.003906 45.476562 23.105469 39.5625 L 23.15625 39.515625 C 23.542969 38.835938 23.976562 38.207031 24.414062 37.578125 C 28 32.878906 34.59375 30.117188 43.414062 29.824219 C 43.949219 29.824219 44.53125 29.777344 45.113281 29.777344 C 50.878906 29.824219 56.648438 30.699219 62.175781 32.34375 L 62.5625 32.441406 L 62.851562 32.539062 C 64.210938 32.925781 65.566406 33.410156 66.925781 33.894531 L 67.023438 33.945312 L 68.089844 34.332031 L 68.429688 34.476562 L 68.765625 34.574219 C 71.675781 35.6875 74.582031 36.996094 77.347656 38.449219 C 82.679688 41.210938 87.671875 44.507812 92.226562 48.332031 C 83.890625 50.269531 74.195312 53.953125 64.40625 58.945312 C 63.96875 59.1875 63.675781 59.621094 63.628906 60.105469 C 63.582031 60.6875 63.53125 61.949219 63.53125 62.917969 C 63.53125 63.351562 63.871094 63.738281 64.308594 63.738281 C 64.453125 63.738281 64.550781 63.691406 64.695312 63.644531 C 74.339844 58.554688 83.988281 54.777344 92.277344 52.789062 C 93.828125 52.402344 94.84375 50.949219 94.601562 49.351562 C 94.457031 48.238281 94.265625 47.171875 94.070312 46.105469 C 93.828125 44.75 93.101562 43.585938 92.035156 42.761719 C 88.011719 39.710938 83.792969 37.042969 79.285156 34.71875 C 76.230469 33.121094 73.128906 31.714844 69.929688 30.503906 C 69.300781 30.261719 69.007812 29.582031 69.25 29.003906 C 69.25 28.953125 69.300781 28.90625 69.347656 28.855469 C 72.597656 23.09375 76.425781 19.847656 80.15625 19.847656 L 80.253906 19.847656 C 84.667969 19.941406 89.078125 24.546875 92.324219 32.441406 C 94.070312 36.851562 95.378906 41.453125 96.152344 46.105469 C 96.542969 48.238281 96.832031 50.464844 97.074219 52.742188 L 97.027344 52.789062 L 97.125 52.886719 C 97.511719 56.8125 97.65625 60.785156 97.558594 64.757812 C 97.511719 67.324219 97.367188 69.84375 97.171875 72.316406 C 90.53125 77.546875 83.453125 82.199219 75.941406 86.074219 C 73.324219 87.480469 70.65625 88.789062 68.039062 89.949219 L 67.941406 90 L 67.363281 90.289062 C 65.179688 91.257812 63.046875 92.179688 60.964844 93.003906 L 60.625 93.148438 L 60.1875 93.34375 L 59.121094 93.730469 L 58.832031 93.828125 C 58.394531 93.972656 57.957031 94.117188 57.570312 94.3125 L 57.425781 94.359375 C 53.257812 95.859375 48.992188 97.074219 44.675781 97.945312 C 35.03125 99.640625 30.570312 98.234375 29.554688 96.296875 Z M 42.640625 77.839844 C 47.246094 74.15625 52.09375 70.765625 57.183594 67.761719 C 57.277344 74.300781 58.007812 80.84375 59.410156 87.285156 C 57.425781 86.414062 55.4375 85.492188 53.449219 84.476562 C 49.667969 82.488281 46.035156 80.308594 42.640625 77.839844 Z M 70.222656 111.21875 C 68.183594 111.460938 66.148438 111.605469 64.066406 111.605469 C 54.953125 111.65625 45.984375 109.039062 38.328125 104.097656 C 38.035156 103.902344 37.9375 103.515625 38.132812 103.226562 C 38.230469 103.03125 38.421875 102.933594 38.664062 102.933594 L 39.003906 102.933594 C 41.136719 102.789062 43.269531 102.5 45.355469 102.0625 C 50.832031 100.949219 56.164062 99.347656 61.351562 97.363281 C 61.882812 97.167969 62.417969 97.410156 62.609375 97.945312 C 64.839844 103.320312 67.507812 107.34375 70.5625 109.960938 C 70.898438 110.25 70.898438 110.734375 70.609375 111.027344 C 70.511719 111.074219 70.367188 111.171875 70.222656 111.21875 Z M 90.335938 98.476562 C 86.945312 105.164062 82.726562 108.941406 78.703125 108.84375 C 74.292969 108.75 69.882812 104.195312 66.632812 96.25 C 66.441406 95.765625 66.683594 95.183594 67.167969 94.941406 L 67.265625 94.890625 C 67.457031 94.796875 67.699219 94.796875 67.941406 94.84375 C 73.710938 96.492188 79.671875 97.410156 85.683594 97.460938 C 86.3125 97.460938 86.894531 97.460938 87.527344 97.410156 C 88.253906 97.363281 88.933594 97.363281 89.609375 97.316406 C 90.046875 97.316406 90.433594 97.652344 90.433594 98.089844 C 90.433594 98.234375 90.386719 98.378906 90.335938 98.476562 Z M 91.792969 92.710938 C 90.289062 92.90625 88.785156 93.050781 87.332031 93.101562 C 83.308594 93.195312 79.285156 92.90625 75.3125 92.128906 C 75.019531 92.082031 74.828125 91.792969 74.875 91.5 C 74.921875 91.355469 75.019531 91.210938 75.164062 91.113281 C 76.085938 90.675781 76.960938 90.191406 77.878906 89.707031 C 83.9375 86.511719 89.753906 82.925781 95.332031 78.90625 C 95.574219 78.710938 95.910156 78.757812 96.058594 79 C 96.152344 79.097656 96.203125 79.292969 96.152344 79.4375 C 95.476562 83.554688 94.507812 87.578125 93.199219 91.5 C 93.003906 92.179688 92.46875 92.613281 91.792969 92.710938 Z M 98.820312 96.492188 C 98.480469 96.878906 98.09375 97.265625 97.707031 97.605469 C 97.074219 98.234375 96.398438 98.863281 95.71875 99.496094 C 95.476562 99.6875 95.136719 99.640625 94.941406 99.445312 C 94.796875 99.300781 94.796875 99.058594 94.84375 98.863281 C 94.894531 98.71875 94.992188 98.574219 95.039062 98.429688 C 95.332031 97.800781 95.621094 97.121094 95.863281 96.492188 C 95.910156 96.347656 96.058594 96.199219 96.203125 96.199219 C 96.882812 96.054688 97.558594 95.859375 98.191406 95.617188 C 98.480469 95.523438 98.773438 95.667969 98.867188 95.957031 C 99.015625 96.152344 98.964844 96.347656 98.820312 96.492188 Z M 108.417969 81.375 C 108.175781 81.957031 107.933594 82.539062 107.691406 83.121094 L 107.59375 83.363281 C 106.042969 86.367188 103.378906 88.789062 99.839844 90.433594 C 99.304688 90.675781 98.722656 90.433594 98.480469 89.949219 C 98.382812 89.707031 98.335938 89.464844 98.433594 89.273438 C 99.644531 84.863281 100.515625 80.359375 101.050781 75.804688 C 101.148438 74.929688 101.582031 74.109375 102.261719 73.527344 C 103.714844 72.265625 105.074219 71.007812 106.332031 69.796875 C 106.769531 69.359375 107.496094 69.359375 107.933594 69.796875 C 108.078125 69.941406 108.175781 70.085938 108.222656 70.28125 C 109.484375 74.253906 109.53125 78.082031 108.417969 81.375 Z M 109.386719 59.089844 C 109.144531 59.574219 108.515625 59.71875 108.078125 59.476562 C 107.933594 59.378906 107.835938 59.28125 107.738281 59.136719 C 107.691406 59.039062 107.640625 58.945312 107.546875 58.847656 C 106.089844 56.617188 104.441406 54.4375 102.648438 52.453125 C 102.359375 52.113281 102.40625 51.628906 102.699219 51.335938 C 102.84375 51.191406 103.035156 51.144531 103.230469 51.144531 C 107.496094 51.144531 109.726562 52.210938 110.40625 53.46875 C 110.988281 54.535156 110.839844 56.425781 109.386719 59.089844 Z M 111.714844 65.386719 C 111.714844 65.53125 111.566406 65.679688 111.421875 65.679688 C 111.324219 65.679688 111.179688 65.582031 111.132812 65.484375 L 110.988281 65.097656 C 110.890625 64.855469 110.890625 64.613281 111.035156 64.371094 C 111.085938 64.320312 111.132812 64.222656 111.230469 64.128906 C 111.421875 63.835938 111.714844 63.886719 111.714844 64.175781 C 111.714844 64.613281 111.714844 64.953125 111.714844 65.386719 Z M 111.714844 65.386719 " />
</svg>
