<svg width="128" height="128" viewBox="0 0 128 128" fill="none" xmlns="http://www.w3.org/2000/svg">
  <path d="M64 128C99.3462 128 128 99.3462 128 64C128 28.6538 99.3462 0 64 0C28.6538 0 0 28.6538 0 64C0 99.3462 28.6538 128 64 128Z"
        fill="url(#paint0_linear_186_118)" />
  <path d="M43.3382 49.1684C42.8366 48.5458 42.0757 48.1999 41.2628 48.1999H24.5045C24.3661 48.1999 24.2451 48.148 24.1413 48.0615C24.0548 47.975 24.0029 47.8713 24.0029 47.7502V36.4569C24.0029 36.3359 24.0548 36.2321 24.1413 36.1456C24.2451 36.0418 24.3661 35.99 24.5045 36.0073H42.214C46.676 36.0073 50.5327 37.8405 53.784 41.4896L58.0904 46.7471L49.7025 56.9682L43.3382 49.1684ZM74.2953 41.4377C77.5294 37.8232 81.4033 36.0073 85.9172 36.0073H103.575C103.696 35.99 103.817 36.0418 103.903 36.111C103.99 36.1975 104.025 36.3186 104.007 36.4569V47.7502C104.007 47.8713 103.973 47.975 103.903 48.0615C103.817 48.1653 103.696 48.2172 103.575 48.1999H86.8165C86.021 48.1826 85.26 48.5458 84.7412 49.1684L72.3929 64.1973L84.7931 79.3299C85.2946 79.9006 86.0383 80.2465 86.7992 80.2292H103.558C103.679 80.212 103.817 80.2811 103.886 80.3676C103.955 80.4714 104.007 80.6097 103.99 80.7308V92.0241C103.99 92.1451 103.955 92.2489 103.886 92.3354C103.8 92.4391 103.679 92.491 103.558 92.4737H85.9172C81.4033 92.4737 77.564 90.6405 74.3472 86.9914L64.0743 74.4529L53.8013 86.9914C50.5673 90.6405 46.6933 92.4737 42.1794 92.4737H24.5045C24.3834 92.491 24.2451 92.4219 24.1759 92.3354C24.0894 92.2316 24.0548 92.0933 24.0721 91.9722V80.6789C24.0721 80.5578 24.1067 80.4541 24.1759 80.3676C24.2623 80.2638 24.3834 80.212 24.5045 80.2292H41.2628C42.0584 80.2292 42.8193 79.8661 43.3382 79.2608L55.4616 64.4567L74.2953 41.4377Z"
        fill="#00D1FF" />
  <defs>
    <linearGradient id="paint0_linear_186_118" x1="64.0088" y1="-0.000370452" x2="64.0088" y2="33.8695"
                    gradientUnits="userSpaceOnUse">
      <stop stop-color="#090220" />
      <stop offset="1" stop-color="#170659" />
    </linearGradient>
  </defs>
</svg>
