<?xml version="1.0" encoding="UTF-8"?>
<svg xmlns="http://www.w3.org/2000/svg" width="128" height="128"
     viewBox="0 0 128 128">
  <defs>
    <linearGradient id="linear-pattern-0" gradientUnits="userSpaceOnUse" x1="64.0088" y1="-0.000370452" x2="64.0088"
                    y2="33.8695">
      <stop offset="0" stop-color="rgb(3.529412%, 0.784314%, 12.54902%)" stop-opacity="1" />
      <stop offset="1" stop-color="rgb(9.019608%, 2.352941%, 34.901961%)" stop-opacity="1" />
    </linearGradient>
  </defs>
  <path fill-rule="nonzero" fill="url(#linear-pattern-0)"
        d="M 64 128 C 99.347656 128 128 99.347656 128 64 C 128 28.652344 99.347656 0 64 0 C 28.652344 0 0 28.652344 0 64 C 0 99.347656 28.652344 128 64 128 Z M 64 128 " />
  <path fill-rule="nonzero" fill="rgb(0%, 81.960784%, 100%)" fill-opacity="1"
        d="M 43.339844 49.167969 C 42.835938 48.546875 42.074219 48.199219 41.261719 48.199219 L 24.503906 48.199219 C 24.367188 48.199219 24.246094 48.148438 24.140625 48.0625 C 24.054688 47.976562 24.003906 47.871094 24.003906 47.75 L 24.003906 36.457031 C 24.003906 36.335938 24.054688 36.230469 24.140625 36.144531 C 24.246094 36.042969 24.367188 35.988281 24.503906 36.007812 L 42.214844 36.007812 C 46.675781 36.007812 50.53125 37.839844 53.785156 41.488281 L 58.089844 46.746094 L 49.703125 56.96875 Z M 74.296875 41.4375 C 77.53125 37.824219 81.402344 36.007812 85.917969 36.007812 L 103.574219 36.007812 C 103.695312 35.988281 103.816406 36.042969 103.902344 36.109375 C 103.988281 36.199219 104.023438 36.320312 104.007812 36.457031 L 104.007812 47.75 C 104.007812 47.871094 103.972656 47.976562 103.902344 48.0625 C 103.816406 48.164062 103.695312 48.21875 103.574219 48.199219 L 86.816406 48.199219 C 86.019531 48.183594 85.261719 48.546875 84.742188 49.167969 L 72.394531 64.199219 L 84.792969 79.328125 C 85.292969 79.902344 86.039062 80.246094 86.800781 80.230469 L 103.558594 80.230469 C 103.679688 80.210938 103.816406 80.28125 103.886719 80.367188 C 103.953125 80.472656 104.007812 80.609375 103.988281 80.730469 L 103.988281 92.023438 C 103.988281 92.144531 103.953125 92.25 103.886719 92.335938 C 103.800781 92.4375 103.679688 92.492188 103.558594 92.472656 L 85.917969 92.472656 C 81.402344 92.472656 77.5625 90.640625 74.347656 86.992188 L 64.074219 74.453125 L 53.800781 86.992188 C 50.566406 90.640625 46.691406 92.472656 42.179688 92.472656 L 24.503906 92.472656 C 24.382812 92.492188 24.246094 92.421875 24.175781 92.335938 C 24.089844 92.230469 24.054688 92.09375 24.070312 91.972656 L 24.070312 80.679688 C 24.070312 80.558594 24.105469 80.453125 24.175781 80.367188 C 24.261719 80.265625 24.382812 80.210938 24.503906 80.230469 L 41.261719 80.230469 C 42.058594 80.230469 42.820312 79.867188 43.339844 79.261719 L 55.460938 64.457031 Z M 74.296875 41.4375 " />
</svg>
