<svg width="128" height="128" viewBox="0 0 128 128" fill="none" xmlns="http://www.w3.org/2000/svg">
  <path fill-rule="evenodd" clip-rule="evenodd"
        d="M64 0C99.3485 0 128 28.6515 128 64C128 99.3485 99.3485 128 64 128C28.6515 128 0 99.3485 0 64C0 28.6515 28.6515 0 64 0Z"
        fill="#F0B90B" />
  <path d="M35.1742 64.0001L35.2203 80.9217L49.5972 89.385V99.2922L26.803 85.9239V59.0541L35.1742 64.0001ZM35.1742 47.0785V56.9396L26.7979 51.9834V42.1223L35.1742 37.1713L43.5915 42.1274L35.1742 47.0785ZM55.603 42.1223L63.9793 37.1661L72.3966 42.1223L63.9793 47.0785L55.603 42.1223Z"
        fill="white" />
  <path d="M41.2266 77.4145V67.5073L49.6029 72.4634V82.3245L41.2266 77.4145ZM55.6035 92.9332L63.9798 97.8893L72.3971 92.9332V102.794L63.9798 107.75L55.6035 102.794V92.9332ZM84.4035 42.1223L92.7798 37.1661L101.197 42.1223V51.9834L92.7798 56.9396V47.0785L84.4035 42.1223ZM92.7798 80.9217L92.8259 64.0001L101.202 59.0439V85.9137L78.408 99.282V89.3748L92.7798 80.9217Z"
        fill="white" />
  <path d="M86.7738 77.4144L78.3975 82.3245V72.4634L86.7738 67.5072V77.4144Z" fill="white" />
  <path d="M86.7733 50.5856L86.8194 60.4928L72.3964 68.9562V85.9188L64.0201 90.8288L55.6437 85.9188V68.9562L41.2207 60.4928V50.5856L49.6329 45.6295L63.9689 54.1338L78.3919 45.6295L86.8092 50.5856H86.7733ZM41.2258 33.664L63.9791 20.2496L86.7733 33.664L78.397 38.6202L63.974 30.1159L49.6021 38.6202L41.2258 33.664Z"
        fill="white" />
</svg>
