<svg width="128" height="128" viewBox="0 0 128 128" fill="none" xmlns="http://www.w3.org/2000/svg">
  <path d="M64 128C99.3462 128 128 99.3462 128 64C128 28.6538 99.3462 0 64 0C28.6538 0 0 28.6538 0 64C0 99.3462 28.6538 128 64 128Z"
        fill="url(#paint0_linear_17_300)" />
  <path d="M32.4995 83.2V53.0773L55.3433 70.2699V83.2H61.1737V69.056C61.1726 68.5304 61.0497 68.0123 60.8147 67.5422C60.5796 67.0721 60.2388 66.6629 59.819 66.3467L32.1155 45.4891C31.6088 45.1127 31.0077 44.8842 30.3789 44.829C29.7501 44.7738 29.1184 44.894 28.5538 45.1763C27.9892 45.4586 27.514 45.8918 27.1809 46.428C26.8478 46.9641 26.6699 47.5821 26.667 48.2133V83.2H32.4995ZM95.6761 83.2V53.0773L72.8323 70.2699V83.2H67.0019V69.056C67.003 68.5304 67.1259 68.0123 67.3609 67.5422C67.596 67.0721 67.9368 66.6629 68.3566 66.3467L96.0601 45.4976C96.5662 45.1217 97.1665 44.8932 97.7946 44.8377C98.4226 44.7821 99.0537 44.9016 99.618 45.1829C100.182 45.4641 100.658 45.8961 100.991 46.4311C101.325 46.966 101.504 47.5829 101.509 48.2133V83.2H95.6761Z"
        fill="white" />
  <defs>
    <linearGradient id="paint0_linear_17_300" x1="64" y1="0" x2="64" y2="128" gradientUnits="userSpaceOnUse">
      <stop stop-color="#4FA89B" />
      <stop offset="1" stop-color="#6ACEBB" />
    </linearGradient>
  </defs>
</svg>
