<?xml version="1.0" encoding="UTF-8"?>
<svg xmlns="http://www.w3.org/2000/svg" width="128" height="128"
     viewBox="0 0 128 128">
  <defs>
    <linearGradient id="linear-pattern-0" gradientUnits="userSpaceOnUse" x1="64" y1="0" x2="64" y2="128">
      <stop offset="0" stop-color="rgb(30.980392%, 65.882353%, 60.784314%)" stop-opacity="1" />
      <stop offset="1" stop-color="rgb(41.568627%, 80.784314%, 73.333333%)" stop-opacity="1" />
    </linearGradient>
  </defs>
  <path fill-rule="nonzero" fill="url(#linear-pattern-0)"
        d="M 64 128 C 99.347656 128 128 99.347656 128 64 C 128 28.652344 99.347656 0 64 0 C 28.652344 0 0 28.652344 0 64 C 0 99.347656 28.652344 128 64 128 Z M 64 128 " />
  <path fill-rule="nonzero" fill="rgb(100%, 100%, 100%)" fill-opacity="1"
        d="M 32.5 83.199219 L 32.5 53.078125 L 55.34375 70.269531 L 55.34375 83.199219 L 61.171875 83.199219 L 61.171875 69.054688 C 61.171875 68.53125 61.050781 68.011719 60.816406 67.542969 C 60.578125 67.070312 60.238281 66.664062 59.820312 66.347656 L 32.117188 45.488281 C 31.609375 45.113281 31.007812 44.882812 30.378906 44.828125 C 29.75 44.773438 29.117188 44.894531 28.554688 45.175781 C 27.988281 45.457031 27.515625 45.890625 27.179688 46.429688 C 26.847656 46.964844 26.667969 47.582031 26.667969 48.214844 L 26.667969 83.199219 Z M 95.675781 83.199219 L 95.675781 53.078125 L 72.832031 70.269531 L 72.832031 83.199219 L 67 83.199219 L 67 69.054688 C 67.003906 68.53125 67.125 68.011719 67.359375 67.542969 C 67.597656 67.070312 67.9375 66.664062 68.355469 66.347656 L 96.058594 45.496094 C 96.566406 45.121094 97.167969 44.894531 97.792969 44.835938 C 98.421875 44.78125 99.054688 44.902344 99.617188 45.183594 C 100.183594 45.464844 100.65625 45.894531 100.992188 46.429688 C 101.324219 46.964844 101.503906 47.582031 101.507812 48.214844 L 101.507812 83.199219 Z M 95.675781 83.199219 " />
</svg>
