<?xml version="1.0" encoding="UTF-8"?>
<svg xmlns="http://www.w3.org/2000/svg" width="128" height="128"
     viewBox="0 0 128 128">
  <defs>
    <clipPath id="clip-0">
      <path clip-rule="nonzero"
            d="M 0.707031 0.496094 L 127.714844 0.496094 L 127.714844 127.503906 L 0.707031 127.503906 Z M 0.707031 0.496094 " />
    </clipPath>
  </defs>
  <g clip-path="url(#clip-0)">
    <path fill-rule="nonzero" fill="rgb(85.098039%, 85.098039%, 85.098039%)" fill-opacity="1"
          d="M 64.210938 127.503906 C 99.285156 127.503906 127.714844 99.074219 127.714844 64 C 127.714844 28.929688 99.285156 0.496094 64.210938 0.496094 C 29.140625 0.496094 0.707031 28.929688 0.707031 64 C 0.707031 99.074219 29.140625 127.503906 64.210938 127.503906 Z M 64.210938 127.503906 " />
  </g>
  <path fill-rule="nonzero" fill="rgb(100%, 100%, 100%)" fill-opacity="1"
        d="M 64.492188 108.128906 C 89.105469 108.128906 109.058594 88.210938 109.058594 63.640625 C 109.058594 39.070312 89.105469 19.152344 64.492188 19.152344 C 41.140625 19.152344 21.984375 37.082031 20.082031 59.902344 L 78.988281 59.902344 L 78.988281 67.382812 L 20.082031 67.382812 C 21.984375 90.199219 41.140625 108.128906 64.492188 108.128906 Z M 64.492188 108.128906 " />
</svg>
