<?xml version="1.0" encoding="UTF-8"?>
<svg xmlns="http://www.w3.org/2000/svg" xmlns:xlink="http://www.w3.org/1999/xlink" width="128" height="128" viewBox="0 0 128 128">
<path fill-rule="nonzero" fill="rgb(0%, 64.705882%, 30.980392%)" fill-opacity="1" d="M 64 0 C 99.347656 0 128 35.347656 128 64 C 128 99.347656 99.347656 128 64 128 C 28.652344 128 0 92.652344 0 64 C 0 28.652344 28.652344 0 64 0 Z M 64 0 "/>
<path fill-rule="nonzero" fill="rgb(100%, 99.607843%, 100%)" fill-opacity="1" d="M 84.609375 73.597656 C 85.839844 72.21875 86.910156 70.761719 87.894531 69.222656 C 90.441406 65.011719 91.671875 60.476562 91.671875 55.457031 C 91.671875 50.433594 90.441406 45.816406 87.894531 41.605469 C 85.347656 37.394531 81.980469 34.074219 77.792969 31.644531 C 73.523438 29.214844 69.007812 28 64.082031 28 C 59.074219 28 54.476562 29.214844 50.207031 31.644531 C 45.933594 34.074219 42.570312 37.394531 40.023438 41.523438 C 37.476562 45.738281 36.246094 50.273438 36.246094 55.210938 C 36.246094 60.316406 37.476562 65.011719 40.023438 69.222656 C 41.007812 70.84375 42.078125 72.300781 43.308594 73.597656 C 38.792969 76.433594 36 80.15625 36 84.207031 C 36 92.871094 48.5625 100 64 100 C 79.4375 100 92 92.953125 92 84.207031 C 92 80.15625 89.125 76.433594 84.609375 73.597656 Z M 43.882812 91.011719 C 41.089844 88.984375 39.613281 86.636719 39.613281 84.289062 C 39.613281 81.371094 41.910156 78.539062 46.019531 76.1875 C 47.25 77.242188 48.5625 78.132812 49.957031 78.941406 C 45.769531 81.128906 43.144531 84.207031 43.144531 87.691406 C 43.0625 88.90625 43.308594 89.957031 43.882812 91.011719 Z M 64 96.03125 C 57.675781 96.03125 54.148438 93.277344 54.148438 91.902344 C 54.148438 90.523438 57.59375 87.769531 64 87.769531 C 70.40625 87.769531 73.851562 90.523438 73.851562 91.902344 C 73.769531 93.277344 70.324219 96.03125 64 96.03125 Z M 77.300781 92.871094 C 77.382812 92.550781 77.382812 92.226562 77.382812 91.902344 C 77.382812 87.691406 71.390625 84.207031 63.917969 84.207031 C 56.527344 84.207031 50.453125 87.691406 50.453125 91.902344 C 50.453125 92.226562 50.453125 92.550781 50.535156 92.871094 C 48.070312 91.414062 46.511719 89.632812 46.511719 87.769531 C 46.511719 85.097656 49.546875 82.585938 54.066406 81.046875 C 57.101562 82.183594 60.304688 82.75 63.589844 82.75 C 67.039062 82.75 70.40625 82.183594 73.523438 80.96875 C 78.042969 82.507812 81.160156 85.015625 81.160156 87.691406 C 81.324219 89.632812 79.765625 91.414062 77.300781 92.871094 Z M 84.035156 91.011719 C 84.609375 89.957031 84.855469 88.824219 84.855469 87.691406 C 84.855469 84.207031 82.148438 81.046875 77.957031 78.863281 C 79.355469 78.050781 80.667969 77.078125 81.898438 76.109375 C 86.089844 78.457031 88.304688 81.292969 88.304688 84.207031 C 88.386719 86.636719 86.828125 88.984375 84.035156 91.011719 Z M 84.035156 91.011719 "/>
</svg>
