<?xml version="1.0" encoding="UTF-8"?>
<svg xmlns:xlink="http://www.w3.org/1999/xlink" xmlns="http://www.w3.org/2000/svg" width="128" height="128"
     viewBox="0 0 128 128">
  <defs>
    <filter id="filter-remove-color" x="0%" y="0%" width="100%" height="100%">
      <feColorMatrix color-interpolation-filters="sRGB" values="0 0 0 0 1 0 0 0 0 1 0 0 0 0 1 0 0 0 1 0" />
    </filter>
    <clipPath id="clip-0">
      <path clip-rule="nonzero" d="M 0 0 L 153.601562 0 L 153.601562 153.601562 L 0 153.601562 Z M 0 0 " />
    </clipPath>
    <clipPath id="clip-1">
      <rect x="0" y="0" width="154" height="154" />
    </clipPath>
    <g id="source-39" clip-path="url(#clip-1)">
      <path fill-rule="nonzero" fill="rgb(100%, 100%, 100%)" fill-opacity="1"
            d="M 103 32.324219 L 25 32.324219 L 25 95.734375 L 103 95.734375 Z M 103 32.324219 " />
    </g>
    <clipPath id="clip-2">
      <rect x="0" y="0" width="154" height="154" />
    </clipPath>
    <g id="source-42" clip-path="url(#clip-2)">
      <g clip-path="url(#clip-0)">
        <use xlink:href="#source-39" />
      </g>
    </g>
    <mask id="mask-0">
      <g filter="url(#filter-remove-color)">
        <use xlink:href="#source-42" />
      </g>
    </mask>
    <clipPath id="clip-3">
      <rect x="0" y="0" width="128" height="128" />
    </clipPath>
    <g id="source-41" clip-path="url(#clip-3)">
      <path fill-rule="nonzero" fill="rgb(100%, 100%, 100%)" fill-opacity="1"
            d="M 94.636719 32.324219 L 102.832031 32.324219 L 69.609375 70.257812 C 68.769531 71.210938 68.714844 72.671875 69.554688 73.679688 L 88.691406 95.957031 L 80.160156 95.957031 L 62.484375 75.308594 L 61.585938 74.1875 C 60.746094 73.230469 60.800781 71.714844 61.640625 70.761719 Z M 94.636719 32.324219 " />
      <path fill-rule="nonzero" fill="rgb(100%, 100%, 100%)" fill-opacity="1"
            d="M 76.175781 73.679688 C 75.617188 73.0625 75.449219 72.164062 75.617188 71.378906 C 75.785156 70.929688 76.066406 70.480469 76.402344 70.144531 L 78.589844 67.730469 L 103 95.957031 L 95.257812 95.957031 C 95.257812 95.957031 80.945312 79.234375 76.175781 73.679688 Z M 76.175781 73.679688 " />
      <path fill-rule="nonzero" fill="rgb(100%, 100%, 100%)" fill-opacity="1"
            d="M 33.53125 95.957031 L 25 95.957031 L 51.148438 65.710938 C 51.992188 64.757812 51.992188 63.300781 51.148438 62.34375 L 25.222656 32.324219 L 33.417969 32.324219 L 59.511719 62.570312 C 60.183594 63.46875 60.296875 64.757812 59.566406 65.601562 C 52.722656 73.511719 33.53125 95.957031 33.53125 95.957031 Z M 33.53125 95.957031 " />
      <path fill-rule="nonzero" fill="rgb(100%, 100%, 100%)" fill-opacity="1"
            d="M 47.78125 32.324219 L 39.925781 32.324219 L 64.113281 60.324219 C 64.113281 60.324219 64.167969 60.269531 66.863281 57.070312 C 67.589844 56.230469 67.761719 55.164062 66.917969 54.320312 C 61.867188 49.160156 47.78125 32.324219 47.78125 32.324219 Z M 47.78125 32.324219 " />
      <path fill-rule="nonzero" fill="rgb(100%, 100%, 100%)" fill-opacity="1"
            d="M 71.351562 51.851562 L 88.128906 32.324219 L 80.160156 32.324219 L 71.40625 42.535156 L 68.882812 45.511719 C 68.039062 46.464844 67.984375 47.921875 68.828125 48.933594 C 69.445312 49.664062 71.351562 51.851562 71.351562 51.851562 Z M 71.351562 51.851562 " />
      <path fill-rule="nonzero" fill="rgb(100%, 100%, 100%)" fill-opacity="1"
            d="M 56.761719 76.429688 L 39.980469 95.957031 L 47.894531 95.957031 L 56.648438 85.746094 L 59.171875 82.769531 C 60.015625 81.816406 60.070312 80.359375 59.230469 79.347656 C 58.613281 78.617188 56.761719 76.429688 56.761719 76.429688 Z M 56.761719 76.429688 " />
    </g>
  </defs>
  <path fill-rule="nonzero" fill="rgb(0%, 0%, 0%)" fill-opacity="1"
        d="M 128 64 C 128 99.347656 99.347656 128 64 128 C 28.652344 128 0 99.347656 0 64 C 0 28.652344 28.652344 0 64 0 C 99.347656 0 128 28.652344 128 64 " />
  <g mask="url(#mask-0)">
    <use xlink:href="#source-41" />
  </g>
</svg>
