<svg width="128" height="128" viewBox="0 0 128 128" fill="none" xmlns="http://www.w3.org/2000/svg">
  <circle cx="64" cy="64" r="64" fill="black" />
  <mask id="mask0_185_86" style="mask-type:luminance" maskUnits="userSpaceOnUse" x="25" y="32" width="78" height="64">
    <path d="M103 32.3237H25V95.7338H103V32.3237Z" fill="white" />
  </mask>
  <g mask="url(#mask0_185_86)">
    <path d="M94.6382 32.3237H102.831L69.6108 70.2575C68.7691 71.2115 68.713 72.6705 69.5547 73.6806L88.69 95.9583H80.1605L62.4842 75.3079L61.5864 74.1856C60.7446 73.2316 60.8008 71.7165 61.6425 70.7626L94.6382 32.3237Z"
          fill="white" />
    <path d="M76.1771 73.6806C75.616 73.0634 75.4476 72.1655 75.616 71.3799C75.7843 70.931 76.0649 70.4821 76.4016 70.1454L78.5901 67.7324L103 95.9583H95.2563C95.2563 95.9583 80.9469 79.236 76.1771 73.6806Z"
          fill="white" />
    <path d="M33.5295 95.9583H25L51.1496 65.7122C51.9914 64.7583 51.9914 63.2993 51.1496 62.3453L25.2245 32.3237H33.4173L59.5108 62.5698C60.1842 63.4676 60.2964 64.7583 59.5669 65.6C52.7209 73.5122 33.5295 95.9583 33.5295 95.9583Z"
          fill="white" />
    <path d="M47.7829 32.3237H39.9268L64.1124 60.3252C64.1124 60.3252 64.1685 60.2691 66.862 57.0705C67.5915 56.2288 67.7599 55.1626 66.9181 54.3209C61.8678 49.1583 47.7829 32.3237 47.7829 32.3237Z"
          fill="white" />
    <path d="M71.3518 51.8518L88.1302 32.3237H80.1618L71.4079 42.5367L68.8827 45.5108C68.041 46.4647 67.9849 47.9237 68.8266 48.9338C69.4439 49.6633 71.3518 51.8518 71.3518 51.8518Z"
          fill="white" />
    <path d="M56.7608 76.4302L39.9824 95.9582H47.8947L56.6486 85.7453L59.1738 82.7712C60.0155 81.8172 60.0716 80.3582 59.2299 79.3482C58.6126 78.6187 56.7608 76.4302 56.7608 76.4302Z"
          fill="white" />
  </g>
</svg>
