<?xml version="1.0" encoding="UTF-8"?>
<svg xmlns="http://www.w3.org/2000/svg" width="128" height="128"
     viewBox="0 0 128 128">
  <path fill-rule="nonzero" fill="rgb(96.078431%, 67.45098%, 21.568627%)" fill-opacity="1"
        d="M 64 0 C 99.347656 0 128 28.65625 128 64 C 128 99.347656 99.347656 128 64 128 C 28.65625 128 0 99.347656 0 64 C 0 28.65625 28.65625 0 64 0 Z M 64 0 " />
  <path fill-rule="nonzero" fill="rgb(99.607843%, 99.607843%, 99.215686%)" fill-opacity="1"
        d="M 66.359375 68.519531 L 90.679688 68.519531 C 91.195312 68.519531 91.441406 68.519531 91.480469 67.839844 C 91.675781 65.363281 91.675781 62.875 91.480469 60.398438 C 91.480469 59.917969 91.238281 59.71875 90.71875 59.71875 L 42.320312 59.71875 C 41.71875 59.71875 41.558594 59.917969 41.558594 60.480469 L 41.558594 67.601562 C 41.558594 68.519531 41.558594 68.519531 42.519531 68.519531 Z M 88.761719 51.398438 C 88.832031 51.21875 88.832031 51.019531 88.761719 50.839844 C 88.355469 49.957031 87.875 49.113281 87.316406 48.320312 C 86.476562 46.96875 85.484375 45.71875 84.355469 44.601562 C 83.824219 43.921875 83.207031 43.316406 82.515625 42.800781 C 79.054688 39.855469 74.9375 37.769531 70.515625 36.71875 C 68.28125 36.21875 66 35.980469 63.714844 36 L 42.234375 36 C 41.636719 36 41.554688 36.238281 41.554688 36.761719 L 41.554688 50.960938 C 41.554688 51.558594 41.554688 51.71875 42.316406 51.71875 L 88.476562 51.71875 C 88.476562 51.71875 88.875 51.640625 88.957031 51.398438 Z M 88.761719 76.839844 C 88.082031 76.765625 87.398438 76.765625 86.71875 76.839844 L 42.359375 76.839844 C 41.761719 76.839844 41.558594 76.839844 41.558594 77.640625 L 41.558594 91.523438 C 41.558594 92.160156 41.558594 92.320312 42.359375 92.320312 L 62.839844 92.320312 C 63.820312 92.398438 64.796875 92.328125 65.757812 92.125 C 68.730469 91.910156 71.652344 91.265625 74.441406 90.203125 C 75.453125 89.851562 76.433594 89.394531 77.359375 88.84375 L 77.636719 88.84375 C 82.4375 86.347656 86.335938 82.421875 88.796875 77.609375 C 88.796875 77.609375 89.078125 77.003906 88.761719 76.84375 Z M 33.519531 99.519531 L 33.519531 77.402344 C 33.519531 76.878906 33.519531 76.800781 32.882812 76.800781 L 24.203125 76.800781 C 23.71875 76.800781 23.523438 76.800781 23.523438 76.164062 L 23.523438 68.5625 L 32.800781 68.5625 C 33.320312 68.5625 33.519531 68.5625 33.519531 67.882812 L 33.519531 60.363281 C 33.519531 59.882812 33.519531 59.761719 32.882812 59.761719 L 24.203125 59.761719 C 23.71875 59.761719 23.523438 59.761719 23.523438 59.125 L 23.523438 52.085938 C 23.523438 51.644531 23.523438 51.527344 24.160156 51.527344 L 32.761719 51.527344 C 33.359375 51.527344 33.519531 51.527344 33.519531 50.765625 L 33.519531 29.207031 C 33.519531 28.566406 33.519531 28.40625 34.320312 28.40625 L 64.320312 28.40625 C 66.496094 28.492188 68.660156 28.730469 70.800781 29.125 C 75.210938 29.941406 79.445312 31.515625 83.320312 33.765625 C 85.886719 35.277344 88.253906 37.101562 90.359375 39.207031 C 91.941406 40.851562 93.371094 42.628906 94.636719 44.523438 C 95.898438 46.445312 96.941406 48.5 97.761719 50.644531 C 97.863281 51.203125 98.398438 51.582031 98.957031 51.484375 L 106.117188 51.484375 C 107.035156 51.484375 107.035156 51.484375 107.078125 52.367188 L 107.078125 58.929688 C 107.078125 59.566406 106.839844 59.730469 106.195312 59.730469 L 100.675781 59.730469 C 100.117188 59.730469 99.953125 59.730469 99.996094 60.449219 C 100.214844 62.886719 100.214844 65.332031 99.996094 67.765625 C 99.996094 68.445312 99.996094 68.527344 100.757812 68.527344 L 107.074219 68.527344 C 107.351562 68.886719 107.074219 69.246094 107.074219 69.609375 C 107.113281 70.074219 107.113281 70.542969 107.074219 71.007812 L 107.074219 75.847656 C 107.074219 76.527344 106.875 76.730469 106.273438 76.730469 L 98.714844 76.730469 C 98.1875 76.628906 97.671875 76.964844 97.550781 77.488281 C 95.753906 82.171875 92.871094 86.367188 89.152344 89.730469 C 87.792969 90.953125 86.363281 92.105469 84.871094 93.167969 C 83.269531 94.089844 81.710938 95.050781 80.070312 95.808594 C 77.050781 97.167969 73.882812 98.171875 70.628906 98.808594 C 67.542969 99.359375 64.410156 99.613281 61.269531 99.570312 L 33.507812 99.570312 L 33.507812 99.527344 Z M 33.519531 99.519531 " />
</svg>
