<svg width="128" height="128" viewBox="0 0 128 128" fill="none" xmlns="http://www.w3.org/2000/svg">
  <g clip-path="url(#clip0_26_649)">
    <path d="M64 0C99.3495 0 128 28.6563 128 64C128 99.3495 99.3495 128 64 128C28.6563 128 0 99.3466 0 64C0 28.6563 28.6563 0 64 0Z"
          fill="#F5AC37" />
    <path d="M66.359 68.5188H90.678C91.1964 68.5188 91.4412 68.5188 91.4786 67.8391C91.6774 65.3652 91.6774 62.8768 91.4786 60.4C91.4786 59.919 91.2396 59.7203 90.7183 59.7203H42.3194C41.7204 59.7203 41.5591 59.919 41.5591 60.4806V67.6001C41.5591 68.5188 41.5591 68.5188 42.5182 68.5188H66.359ZM88.7628 51.3999C88.8319 51.2185 88.8319 51.0197 88.7628 50.8412C88.3567 49.957 87.8757 49.1132 87.317 48.3212C86.476 46.9675 85.4853 45.7205 84.3563 44.6002C83.8235 43.9234 83.2072 43.3157 82.516 42.8001C79.0542 39.8539 74.9386 37.7687 70.5149 36.7204C68.2829 36.2193 66.0019 35.9802 63.7152 36.0004H42.2359C41.6369 36.0004 41.5562 36.2394 41.5562 36.7607V50.9593C41.5562 51.5583 41.5562 51.7196 42.3166 51.7196H88.4748C88.4748 51.7196 88.8751 51.639 88.9557 51.3999H88.7599H88.7628ZM88.7628 76.8392C88.0831 76.7643 87.3976 76.7643 86.718 76.8392H42.3598C41.7607 76.8392 41.5591 76.8392 41.5591 77.6398V91.5216C41.5591 92.161 41.5591 92.3222 42.3598 92.3222H62.8396C63.8188 92.3971 64.7981 92.328 65.7571 92.1235C68.7293 91.9104 71.6525 91.2653 74.4404 90.2025C75.4542 89.8512 76.4334 89.3933 77.3579 88.8432H77.6372C82.4382 86.3462 86.3378 82.4236 88.7973 77.6082C88.7973 77.6082 89.0767 77.0034 88.7628 76.845V76.8392ZM33.5209 99.5194V99.2804V89.9606V86.8012V77.4008C33.5209 76.8795 33.5209 76.8018 32.8816 76.8018H24.2012C23.7202 76.8018 23.5215 76.8018 23.5215 76.1624V68.562H32.8009C33.3193 68.562 33.5209 68.562 33.5209 67.8823V60.3626C33.5209 59.8816 33.5209 59.7635 32.8816 59.7635H24.2012C23.7202 59.7635 23.5215 59.7635 23.5215 59.1241V52.0854C23.5215 51.6447 23.5215 51.5266 24.1609 51.5266H32.7606C33.3597 51.5266 33.5209 51.5266 33.5209 50.7663V29.2064C33.5209 28.567 33.5209 28.4058 34.3216 28.4058H64.32C66.4973 28.4922 68.6602 28.7312 70.8 29.1258C75.2094 29.9408 79.4459 31.5162 83.3195 33.7655C85.8885 35.2775 88.253 37.1035 90.3583 39.2059C91.9423 40.8504 93.3708 42.6302 94.638 44.5253C95.8966 46.4463 96.9421 48.4997 97.7629 50.6453C97.8637 51.2041 98.3994 51.5814 98.9581 51.4863H106.118C107.037 51.4863 107.037 51.4863 107.077 52.3676V58.9283C107.077 59.5677 106.838 59.729 106.196 59.729H100.675C100.116 59.729 99.9546 59.729 99.9949 60.449C100.214 62.8855 100.214 65.3306 99.9949 67.7671C99.9949 68.4468 99.9949 68.5274 100.758 68.5274H107.074C107.353 68.8874 107.074 69.2475 107.074 69.6103C107.114 70.074 107.114 70.5435 107.074 71.0072V75.8485C107.074 76.5282 106.875 76.7298 106.273 76.7298H98.7133C98.1862 76.629 97.6736 76.9659 97.5526 77.4901C95.7526 82.1701 92.8726 86.3663 89.1516 89.7302C87.7922 90.9542 86.3637 92.1062 84.8719 93.169C83.2706 94.0906 81.7125 95.0496 80.0708 95.81C77.0497 97.1693 73.8817 98.1716 70.6301 98.8081C67.5427 99.361 64.4121 99.6116 61.27 99.5684H33.5094V99.5281L33.5209 99.5194Z"
          fill="#FEFEFD" />
  </g>
  <defs>
    <clipPath id="clip0_26_649">
      <rect width="128" height="128" fill="white" />
    </clipPath>
  </defs>
</svg>
