<?xml version="1.0" encoding="UTF-8"?>
<svg xmlns="http://www.w3.org/2000/svg" width="128" height="128"
     viewBox="0 0 128 128">
  <path fill-rule="nonzero" fill="rgb(86.666667%, 86.666667%, 86.666667%)" fill-opacity="1"
        d="M 64 0 C 99.347656 0 128 35.347656 128 64 C 128 99.347656 99.347656 128 64 128 C 28.652344 128 0 92.652344 0 64 C 0 28.652344 28.652344 0 64 0 Z M 64 0 " />
  <path fill-rule="evenodd" fill="rgb(7.058824%, 7.058824%, 7.058824%)" fill-opacity="1"
        d="M 64 25.957031 L 31.089844 44.980469 L 31.089844 83.019531 L 64 102.042969 L 96.910156 83.019531 L 96.910156 44.980469 Z M 65.382812 16.371094 C 64.527344 15.875 63.472656 15.875 62.617188 16.371094 L 23.484375 38.988281 C 22.628906 39.480469 22.101562 40.394531 22.101562 41.382812 L 22.101562 86.617188 C 22.101562 87.605469 22.628906 88.519531 23.484375 89.011719 L 62.617188 111.628906 C 63.472656 112.121094 64.527344 112.121094 65.382812 111.628906 L 104.511719 89.011719 C 105.367188 88.519531 105.894531 87.605469 105.894531 86.617188 L 105.894531 41.382812 C 105.894531 40.394531 105.367188 39.480469 104.511719 38.988281 Z M 65.382812 16.371094 " />
  <path fill-rule="nonzero" fill="rgb(7.058824%, 7.058824%, 7.058824%)" fill-opacity="1"
        d="M 64 39.738281 L 43.007812 51.867188 L 43.007812 76.132812 L 63.859375 88.183594 C 63.945312 88.234375 64 88.324219 64 88.421875 L 64 92.578125 C 64 92.789062 63.769531 92.925781 63.585938 92.816406 L 39.898438 79.128906 C 39.257812 78.757812 38.859375 78.070312 38.859375 77.332031 L 38.859375 50.667969 C 38.859375 49.929688 39.257812 49.242188 39.898438 48.871094 L 62.960938 35.542969 C 63.605469 35.171875 64.394531 35.171875 65.035156 35.542969 L 88.816406 49.238281 C 89 49.34375 89 49.605469 88.820312 49.714844 C 87.417969 50.546875 86.699219 50.917969 85.128906 51.792969 C 85.042969 51.839844 84.9375 51.839844 84.855469 51.789062 Z M 64 39.738281 " />
  <path fill-rule="nonzero" fill="rgb(7.058824%, 7.058824%, 7.058824%)" fill-opacity="1"
        d="M 67.457031 64.511719 C 67.457031 64.410156 67.511719 64.316406 67.601562 64.265625 L 88.472656 53.148438 C 88.65625 53.046875 88.878906 53.183594 88.878906 53.390625 L 88.878906 80.445312 C 88.878906 80.542969 88.828125 80.632812 88.742188 80.683594 L 67.871094 92.816406 C 67.6875 92.921875 67.457031 92.789062 67.457031 92.574219 Z M 67.457031 64.511719 " />
</svg>
