<?xml version="1.0" encoding="UTF-8"?>
<svg xmlns="http://www.w3.org/2000/svg" width="128" height="128"
     viewBox="0 0 128 128">
  <path fill-rule="nonzero" fill="rgb(16.470588%, 56.862745%, 98.039216%)" fill-opacity="1"
        d="M 0 26.949219 L 64 63.246094 L 64 87.960938 L 20.871094 63.246094 L 20.871094 114.929688 L 0 103.171875 Z M 0 26.949219 " />
  <path fill-rule="nonzero" fill="rgb(16.862745%, 42.352941%, 93.72549%)" fill-opacity="1"
        d="M 21.050781 14 L 0 26.949219 L 64 63.246094 L 85.03125 51.304688 Z M 21.050781 14 " />
  <path fill-rule="nonzero" fill="rgb(16.470588%, 74.117647%, 97.647059%)" fill-opacity="1"
        d="M 85.03125 51.304688 L 85.03125 75.128906 L 64 87.960938 L 64 63.246094 Z M 85.03125 51.304688 " />
  <path fill-rule="nonzero" fill="rgb(16.470588%, 74.117647%, 97.647059%)" fill-opacity="1"
        d="M 20.871094 114.929688 L 42.019531 103.285156 L 42.019531 75.648438 L 20.871094 63.246094 Z M 20.871094 114.929688 " />
  <path fill-rule="nonzero" fill="rgb(16.470588%, 56.862745%, 98.039216%)" fill-opacity="1"
        d="M 85.03125 26.414062 L 85.03125 101.859375 L 106.65625 114.929688 L 106.65625 39.011719 Z M 85.03125 26.414062 " />
  <path fill-rule="nonzero" fill="rgb(16.862745%, 42.352941%, 93.72549%)" fill-opacity="1"
        d="M 106.65625 14 L 85.03125 26.414062 L 106.65625 39.011719 L 128 26.503906 Z M 106.65625 14 " />
  <path fill-rule="nonzero" fill="rgb(16.470588%, 74.117647%, 97.647059%)" fill-opacity="1"
        d="M 106.65625 114.929688 L 128 101.921875 L 128 26.503906 L 106.65625 39.011719 Z M 106.65625 114.929688 " />
</svg>
