<svg width="128" height="128" viewBox="0 0 128 128" fill="none" xmlns="http://www.w3.org/2000/svg">
  <path fill-rule="evenodd" clip-rule="evenodd"
        d="M104.518 112.903L64.1104 72.0659L23.1398 113.21C31.2827 118.634 44.0348 127.897 63.7007 127.999C83.3666 128.102 99.1403 118.327 104.466 112.954L104.518 112.903ZM112.917 23.0411L71.946 63.878C85.6712 77.5415 99.1915 91.3585 112.763 105.124C134.017 78.0021 132.07 50.061 112.917 22.9899V23.0411ZM14.792 104.51L50.2828 10.094L0.503487 60.1423C-2.05718 74.7269 5.52239 93.252 14.792 104.51ZM33.4848 85.9341C36.0455 85.2688 92.4825 27.3397 104.62 15.3138C98.3209 6.92121 76.7089 -0.345512 65.9028 0.0127073L33.4848 85.9341Z"
        fill="url(#paint0_linear_133_119)" />
  <defs>
    <linearGradient id="paint0_linear_133_119" x1="35.0797" y1="121.178" x2="98.6133" y2="10.0882"
                    gradientUnits="userSpaceOnUse">
      <stop stop-color="#850000" />
      <stop offset="0.251" stop-color="#C70158" />
      <stop offset="0.4824" stop-color="#DE1E41" />
      <stop offset="0.6392" stop-color="#F63B2A" />
      <stop offset="1" stop-color="#FF8700" />
    </linearGradient>
  </defs>
</svg>
