<?xml version="1.0" encoding="UTF-8"?>
<svg xmlns="http://www.w3.org/2000/svg" width="128" height="128"
     viewBox="0 0 128 128">
  <path fill-rule="nonzero" fill="rgb(0%, 0%, 0%)" fill-opacity="1"
        d="M 22.148438 128 L 71.5625 128 L 73 107.1875 C 69.640625 105.535156 55.347656 103.226562 25.027344 107.1875 C -12.871094 112.144531 6.320312 128 22.148438 128 Z M 22.148438 128 " />
  <path fill-rule="nonzero" fill="rgb(0%, 0%, 0%)" fill-opacity="1"
        d="M 117.675781 58.839844 C 117.675781 91.335938 91.335938 117.675781 58.839844 117.675781 C 26.34375 117.675781 0 91.335938 0 58.839844 C 0 26.34375 26.34375 0 58.839844 0 C 91.335938 0 117.675781 26.34375 117.675781 58.839844 " />
  <path fill-rule="nonzero" fill="rgb(92.54902%, 10.980392%, 47.45098%)" fill-opacity="1"
        d="M 112.515625 58.839844 C 112.515625 88.484375 88.484375 112.515625 58.839844 112.515625 C 29.195312 112.515625 5.160156 88.484375 5.160156 58.839844 C 5.160156 29.195312 29.195312 5.160156 58.839844 5.160156 C 88.484375 5.160156 112.515625 29.195312 112.515625 58.839844 " />
  <path fill-rule="nonzero" fill="rgb(0%, 0%, 0%)" fill-opacity="1"
        d="M 128 69.160156 C 128 101.65625 101.65625 128 69.160156 128 C 36.664062 128 10.324219 101.65625 10.324219 69.160156 C 10.324219 36.664062 36.664062 10.324219 69.160156 10.324219 C 101.65625 10.324219 128 36.664062 128 69.160156 " />
  <path fill-rule="nonzero" fill="rgb(100%, 100%, 100%)" fill-opacity="1"
        d="M 122.839844 69.160156 C 122.839844 98.804688 98.804688 122.839844 69.160156 122.839844 C 39.515625 122.839844 15.484375 98.804688 15.484375 69.160156 C 15.484375 39.515625 39.515625 15.484375 69.160156 15.484375 C 98.804688 15.484375 122.839844 39.515625 122.839844 69.160156 " />
  <path fill-rule="evenodd" fill="rgb(0%, 0%, 0%)" fill-opacity="1"
        d="M 27.507812 58.839844 L 21.675781 58.839844 L 28.476562 80.515625 L 34.308594 80.515625 L 34.304688 80.515625 L 38.191406 68.128906 L 42.078125 80.515625 L 47.910156 80.515625 L 54.710938 58.839844 L 48.878906 58.839844 L 44.992188 71.226562 L 41.109375 58.839844 L 35.277344 58.839844 L 31.390625 71.226562 Z M 27.507812 58.839844 " />
  <path fill-rule="evenodd" fill="rgb(0%, 0%, 0%)" fill-opacity="1"
        d="M 83.613281 58.839844 L 77.417969 58.839844 L 77.417969 64 L 83.613281 64 L 83.613281 80.515625 L 88.773438 80.515625 L 88.773438 64 L 94.96875 64 L 94.96875 58.839844 Z M 83.613281 58.839844 " />
  <path fill-rule="evenodd" fill="rgb(0%, 0%, 0%)" fill-opacity="1"
        d="M 74.320312 58.839844 L 57.804688 58.839844 L 57.804688 80.515625 L 74.320312 80.515625 L 74.320312 75.355469 L 62.96875 75.355469 L 62.96875 72.257812 L 73.289062 72.257812 L 73.289062 67.097656 L 62.96875 67.097656 L 62.96875 64 L 74.320312 64 Z M 74.320312 58.839844 " />
  <path fill-rule="evenodd" fill="rgb(0%, 0%, 0%)" fill-opacity="1"
        d="M 111.484375 58.839844 L 116.644531 58.839844 L 116.644531 80.515625 L 111.484375 80.515625 L 111.484375 72.257812 L 103.226562 72.257812 L 103.226562 80.515625 L 98.066406 80.515625 L 98.066406 58.839844 L 103.226562 58.839844 L 103.226562 67.097656 L 111.484375 67.097656 Z M 111.484375 58.839844 " />
  <path fill-rule="nonzero" fill="rgb(0%, 0%, 0%)" fill-opacity="1"
        d="M 5.617188 47.484375 L 15.527344 53.027344 L 13.007812 57.53125 L 3.097656 51.988281 Z M 5.617188 47.484375 " />
  <path fill-rule="nonzero" fill="rgb(0%, 0%, 0%)" fill-opacity="1"
        d="M 3.550781 60.902344 L 13.460938 66.445312 L 10.941406 70.949219 L 1.03125 65.40625 Z M 3.550781 60.902344 " />
</svg>
