<?xml version="1.0" encoding="UTF-8"?>
<svg xmlns="http://www.w3.org/2000/svg" width="128" height="128"
     viewBox="0 0 128 128">
  <path fill-rule="nonzero" fill="rgb(91.764706%, 70.196078%, 0%)" fill-opacity="1" stroke-width="1"
        stroke-linecap="butt" stroke-linejoin="miter" stroke="rgb(98.431373%, 75.294118%, 0%)" stroke-opacity="1"
        stroke-miterlimit="4"
        d="M 2.402344 48.644531 C 10.878906 14.625 45.339844 -6.082031 79.355469 2.398438 L 79.476562 1.914062 L 79.355469 2.398438 C 113.378906 10.882812 134.082031 45.339844 125.597656 79.363281 C 117.117188 113.378906 82.660156 134.082031 48.632812 125.597656 C 14.621094 117.117188 -6.082031 82.660156 2.402344 48.644531 Z M 2.402344 48.644531 " />
  <path fill-rule="nonzero" fill="rgb(100%, 100%, 100%)" fill-opacity="1"
        d="M 89.386719 47.734375 C 88.558594 39.164062 81.15625 36.292969 71.8125 35.480469 L 71.808594 23.59375 L 64.570312 23.597656 L 64.578125 35.171875 C 62.675781 35.175781 60.730469 35.214844 58.796875 35.253906 L 58.792969 23.601562 L 51.558594 23.605469 L 51.5625 35.492188 C 49.996094 35.523438 48.457031 35.554688 46.957031 35.554688 L 46.953125 35.519531 L 36.972656 35.519531 L 36.980469 43.25 C 36.980469 43.25 42.324219 43.144531 42.234375 43.242188 C 45.167969 43.242188 46.121094 44.945312 46.398438 46.410156 L 46.40625 59.957031 C 46.609375 59.957031 46.875 59.964844 47.171875 60.007812 C 46.929688 60.007812 46.671875 60.003906 46.40625 60.007812 L 46.417969 78.980469 C 46.289062 79.902344 45.746094 81.375 43.699219 81.378906 C 43.789062 81.460938 38.4375 81.382812 38.4375 81.382812 L 37.003906 90.023438 L 46.421875 90.019531 C 48.175781 90.019531 49.898438 90.050781 51.59375 90.058594 L 51.601562 102.082031 L 58.832031 102.078125 L 58.824219 90.183594 C 60.808594 90.222656 62.730469 90.238281 64.605469 90.234375 L 64.609375 102.078125 L 71.847656 102.070312 L 71.84375 90.070312 C 84.011719 89.363281 92.527344 86.292969 93.578125 74.867188 C 94.425781 65.667969 90.09375 61.566406 83.1875 59.910156 C 87.382812 57.773438 90.003906 54.003906 89.386719 47.734375 Z M 79.273438 73.453125 C 79.285156 82.4375 63.894531 81.425781 58.992188 81.433594 L 58.984375 65.5 C 63.890625 65.5 79.269531 64.078125 79.273438 73.453125 Z M 75.898438 50.976562 C 75.898438 59.152344 63.066406 58.203125 58.980469 58.207031 L 58.972656 43.757812 C 63.058594 43.753906 75.890625 42.449219 75.898438 50.976562 Z M 75.898438 50.976562 " />
</svg>
