<svg width="128" height="128" viewBox="0 0 128 128" fill="none" xmlns="http://www.w3.org/2000/svg">
  <path d="M2.40225 48.6457L2.40229 48.6456C10.8804 14.6239 45.3388 -6.08078 79.3544 2.40032L79.4753 1.91562L79.3545 2.40033C113.378 10.8814 134.081 45.3417 125.599 79.3614C117.117 113.379 82.6588 134.082 48.633 125.599C14.6213 117.118 -6.0838 82.6614 2.40225 48.6457Z"
        fill="#EAB300" stroke="#FBC000" />
  <path d="M89.3872 47.7342C88.5584 39.1635 81.1572 36.2945 71.8144 35.4816L71.8078 23.5925L64.5703 23.5976L64.577 35.1733C62.6743 35.1746 60.7294 35.2134 58.7972 35.2531L58.792 23.6007L51.5584 23.6048L51.5621 35.4904C49.9952 35.5233 48.4564 35.5534 46.9559 35.5553L46.9549 35.5184L36.9727 35.5208L36.9787 43.2499C36.9787 43.2499 42.3233 43.1449 42.2345 43.2434C45.1661 43.2425 46.1211 44.9437 46.3994 46.412L46.4073 59.9562C46.6096 59.9571 46.8735 59.9654 47.1724 60.0062C46.9313 60.0066 46.6732 60.0051 46.4078 60.0076L46.4161 78.9816C46.288 79.9042 45.7465 81.3753 43.6983 81.3801C43.7909 81.4621 38.4372 81.3818 38.4372 81.3818L37.0038 90.0253L46.4223 90.0193C48.1751 90.0204 49.8997 90.049 51.5927 90.0588L51.6023 102.083L58.832 102.08L58.8254 90.1828C60.8105 90.2227 62.7316 90.2373 64.607 90.2345L64.6103 102.077L71.8478 102.072L71.8436 90.0689C84.0109 89.3636 92.5256 86.2935 93.577 74.8677C94.4258 65.6674 90.0955 61.5651 83.1876 59.9107C87.3826 57.7717 90.0041 54.0057 89.3872 47.7342ZM79.2753 73.4512C79.2841 82.4371 63.8957 81.4241 58.9907 81.4317L58.984 65.5C63.8905 65.4983 79.2708 64.0787 79.2753 73.4512ZM75.8971 50.9758C75.8992 59.1512 63.0655 58.2048 58.9798 58.2075L58.9725 43.7583C63.0582 43.7556 75.8916 42.4488 75.8971 50.9758Z"
        fill="white" />
</svg>
