<svg width="128" height="128" viewBox="0 0 128 128" fill="none" xmlns="http://www.w3.org/2000/svg">
  <circle cx="64" cy="64" r="64" fill="#F7931A" />
  <path d="M96.7771 48.5925C97.5091 43.3749 96.8496 38.7938 94.8051 34.8424C92.7606 30.8911 89.5289 27.8481 85.1035 25.7067C82.0631 24.2349 78.5479 23.2802 74.5907 22.8227L75.6921 14.9333H70.416L69.3607 22.5045C69.2091 22.5045 69.0574 22.4979 68.9057 22.4979C68.167 22.4979 67.4415 22.5178 66.7161 22.5443L67.7779 14.94H62.5017L61.3673 23.068C57.9774 23.5918 54.7655 24.4603 51.7449 25.7133C46.5743 27.8547 42.3401 30.858 39.0623 34.7098C35.7779 38.5684 33.7861 43.0103 33.087 48.0422C32.2297 54.188 33.4959 59.1205 36.8859 62.8265C40.2758 66.5326 45.552 69.1712 52.7078 70.7358L54.6402 71.1866L52.477 86.6604C50.5907 85.7853 49.1992 84.4925 48.3022 82.7754C47.3921 81.0451 47.0425 78.9434 47.2338 76.4904H26.9865C26.1884 82.9743 26.8809 88.3709 29.064 92.6736C31.2404 96.9763 34.7622 100.192 39.6163 102.313C42.6303 103.633 46.0598 104.541 49.9048 105.038L48.7837 113.06H54.0598L55.1217 105.456C55.8735 105.482 56.632 105.502 57.4102 105.502C57.5289 105.502 57.641 105.502 57.7597 105.502L56.7045 113.067H61.9807L63.0755 105.25C67.5602 104.846 71.6229 103.964 75.2569 102.572C80.3682 100.616 84.4836 97.805 87.6097 94.1322C90.7358 90.4593 92.6682 85.9975 93.4003 80.7467C94.2181 74.3755 92.8991 69.1314 89.4564 65.0144C86.0071 60.8973 80.1373 57.9073 71.8339 56.0443L70.0005 55.6664L72.0714 40.8689C72.1637 40.9086 72.2626 40.9418 72.355 40.9816C73.8785 41.6313 74.9733 42.6125 75.6394 43.9185C76.3121 45.2246 76.5891 46.7892 76.4836 48.6124H96.7771V48.5925ZM57.2321 51.4433C55.6229 50.2168 55.0029 48.5726 55.3591 46.524C55.5372 45.2578 56.0714 44.1307 56.9683 43.1429C57.4564 42.6059 58.0565 42.1351 58.7424 41.7307L57.3706 51.5494C57.3245 51.5162 57.2717 51.4831 57.2255 51.4499L57.2321 51.4433ZM59.5734 87.9997C58.8809 87.9997 58.2148 87.9731 57.5685 87.9201L59.7383 72.38L60.5561 72.5723C61.1629 72.7049 61.7367 72.8441 62.2907 72.9833L60.1934 87.9798C59.9823 87.9798 59.7845 87.9997 59.5668 87.9997H59.5734ZM67.4415 74.6673C69.1497 75.4297 70.3434 76.2982 71.0293 77.2661C71.7086 78.2341 71.9527 79.3876 71.768 80.7335C71.5701 82.1522 70.9568 83.3986 69.9345 84.4793C68.9123 85.5599 67.5207 86.4151 65.7663 87.0516C65.7136 87.0715 65.6542 87.0847 65.6015 87.1046L67.3426 74.6341C67.3426 74.6341 67.4086 74.6606 67.4415 74.6739V74.6673ZM64.8694 54.5792C63.9593 54.3471 63.1151 54.1018 62.3302 53.8499L64.256 40.0932C64.9353 40.0269 65.641 39.9871 66.3995 39.9871C66.571 39.9871 66.7424 39.9871 66.9139 39.9937L64.876 54.5725L64.8694 54.5792Z"
        fill="white" />
</svg>
