<?xml version="1.0" encoding="UTF-8"?>
<svg xmlns="http://www.w3.org/2000/svg" width="128" height="128"
     viewBox="0 0 128 128">
  <path fill-rule="nonzero" fill="rgb(96.862745%, 57.647059%, 10.196078%)" fill-opacity="1"
        d="M 128 64 C 128 99.347656 99.347656 128 64 128 C 28.652344 128 0 99.347656 0 64 C 0 28.652344 28.652344 0 64 0 C 99.347656 0 128 28.652344 128 64 " />
  <path fill-rule="nonzero" fill="rgb(100%, 100%, 100%)" fill-opacity="1"
        d="M 96.777344 48.59375 C 97.507812 43.375 96.847656 38.792969 94.804688 34.84375 C 92.761719 30.890625 89.527344 27.847656 85.101562 25.707031 C 82.0625 24.234375 78.546875 23.28125 74.589844 22.824219 L 75.691406 14.933594 L 70.414062 14.933594 L 69.359375 22.503906 C 69.210938 22.503906 69.058594 22.496094 68.90625 22.496094 C 68.167969 22.496094 67.441406 22.519531 66.714844 22.542969 L 67.777344 14.941406 L 62.5 14.941406 L 61.367188 23.066406 C 57.976562 23.59375 54.765625 24.460938 51.746094 25.714844 C 46.574219 27.855469 42.339844 30.859375 39.0625 34.710938 C 35.777344 38.570312 33.785156 43.011719 33.085938 48.042969 C 32.230469 54.1875 33.496094 59.121094 36.886719 62.828125 C 40.277344 66.53125 45.550781 69.171875 52.707031 70.734375 L 54.640625 71.1875 L 52.476562 86.660156 C 50.589844 85.785156 49.199219 84.492188 48.300781 82.777344 C 47.390625 81.046875 47.042969 78.945312 47.234375 76.492188 L 26.988281 76.492188 C 26.1875 82.972656 26.882812 88.371094 29.0625 92.671875 C 31.242188 96.976562 34.761719 100.191406 39.617188 102.3125 C 42.628906 103.632812 46.058594 104.539062 49.90625 105.039062 L 48.785156 113.058594 L 54.058594 113.058594 L 55.121094 105.457031 C 55.875 105.480469 56.632812 105.503906 57.410156 105.503906 C 57.527344 105.503906 57.640625 105.503906 57.757812 105.503906 L 56.703125 113.066406 L 61.980469 113.066406 L 63.074219 105.25 C 67.558594 104.847656 71.621094 103.964844 75.257812 102.570312 C 80.367188 100.617188 84.484375 97.804688 87.609375 94.132812 C 90.734375 90.460938 92.667969 85.996094 93.398438 80.746094 C 94.21875 74.375 92.898438 69.132812 89.457031 65.015625 C 86.007812 60.898438 80.136719 57.90625 71.832031 56.042969 L 70 55.667969 L 72.070312 40.867188 C 72.164062 40.910156 72.261719 40.941406 72.355469 40.980469 C 73.878906 41.632812 74.972656 42.613281 75.640625 43.917969 C 76.3125 45.222656 76.589844 46.789062 76.484375 48.613281 L 96.777344 48.613281 Z M 57.230469 51.441406 C 55.621094 50.21875 55.003906 48.574219 55.359375 46.523438 C 55.539062 45.257812 56.070312 44.128906 56.96875 43.144531 C 57.457031 42.605469 58.054688 42.136719 58.742188 41.730469 L 57.371094 51.550781 C 57.324219 51.515625 57.273438 51.484375 57.226562 51.449219 Z M 59.574219 88 C 58.882812 88 58.214844 87.972656 57.570312 87.921875 L 59.738281 72.378906 L 60.554688 72.574219 C 61.164062 72.703125 61.738281 72.84375 62.289062 72.984375 L 60.195312 87.980469 C 59.980469 87.980469 59.785156 88 59.566406 88 Z M 67.441406 74.667969 C 69.148438 75.429688 70.34375 76.296875 71.03125 77.265625 C 71.707031 78.234375 71.953125 79.386719 71.769531 80.734375 C 71.570312 82.152344 70.957031 83.398438 69.933594 84.480469 C 68.914062 85.558594 67.519531 86.414062 65.765625 87.050781 C 65.714844 87.070312 65.652344 87.085938 65.601562 87.105469 L 67.34375 74.632812 C 67.34375 74.632812 67.410156 74.660156 67.441406 74.675781 Z M 64.871094 54.578125 C 63.960938 54.347656 63.113281 54.101562 62.332031 53.851562 L 64.257812 40.09375 C 64.933594 40.027344 65.640625 39.988281 66.398438 39.988281 C 66.570312 39.988281 66.742188 39.988281 66.914062 39.992188 L 64.875 54.574219 Z M 64.871094 54.578125 " />
</svg>
