<svg xmlns="http://www.w3.org/2000/svg" width="128" height="128"
     viewBox="0 0 128 128" version="1.1">
  <g id="surface1">
    <path style=" stroke:none;fill-rule:nonzero;fill:rgb(94.901961%,94.901961%,94.901961%);fill-opacity:1;"
          d="M 128 64 C 128 28.652344 99.347656 0 64 0 C 28.652344 0 0 28.652344 0 64 C 0 99.347656 28.652344 128 64 128 C 99.347656 128 128 99.347656 128 64 Z M 128 64 " />
    <path style=" stroke:none;fill-rule:evenodd;fill:rgb(100%,27.843139%,29.803923%);fill-opacity:1;"
          d="M 53.496094 101.710938 C 47.566406 99.582031 41.632812 97.457031 35.429688 96.339844 L 35.429688 96.34375 C 28.839844 95.160156 17.699219 95.136719 10.539062 99.191406 C 3.878906 89.089844 0 77 0 64 C 0 28.65625 28.65625 0 64 0 C 99.34375 0 128 28.65625 128 64.003906 C 128 69.929688 127.191406 75.664062 125.683594 81.109375 C 123.292969 82.8125 121.320312 85.144531 119.382812 87.433594 C 118.410156 88.582031 117.449219 89.722656 116.445312 90.765625 C 112.808594 94.539062 108.679688 97.730469 104.128906 100.335938 C 95.121094 105.492188 84.183594 108.851562 73.730469 107.421875 C 66.742188 106.460938 60.121094 104.085938 53.496094 101.710938 Z M 78.714844 45.183594 C 78.730469 36.792969 70.835938 30.742188 62.867188 32.9375 L 62.859375 32.9375 L 39.464844 39.382812 L 49.222656 55.507812 L 73.898438 48.707031 C 75.402344 48.296875 76.902344 48.09375 78.375 48.09375 C 78.59375 47.152344 78.714844 46.179688 78.714844 45.183594 Z M 82.820312 48.683594 C 83.054688 47.554688 83.179688 46.382812 83.179688 45.191406 L 83.183594 45.1875 C 83.203125 33.898438 72.550781 25.644531 61.6875 28.632812 L 32.605469 36.644531 L 47.164062 60.703125 L 75.09375 53.007812 C 75.46875 52.902344 75.84375 52.816406 76.21875 52.753906 C 74.589844 54.953125 72.253906 56.613281 69.5 57.378906 L 38.730469 65.921875 L 53.289062 89.984375 L 82.910156 81.757812 C 90.300781 79.707031 95.398438 73.328125 95.398438 65.238281 C 95.398438 57.148438 89.917969 50.621094 82.820312 48.683594 Z M 81.339844 52.917969 C 79.222656 57.117188 75.429688 60.371094 70.6875 61.6875 L 45.59375 68.65625 L 55.355469 84.78125 L 81.714844 77.464844 C 87.148438 75.953125 90.933594 70.957031 90.933594 65.242188 C 90.933594 59.113281 86.714844 54.238281 81.339844 52.917969 Z M 81.339844 52.917969 " />
    <path style=" stroke:none;fill-rule:nonzero;fill:rgb(100%,27.843139%,29.803923%);fill-opacity:1;"
          d="M 42.007812 106.457031 C 35.230469 103.867188 22.960938 101.617188 15.148438 105.375 C 26.886719 119.210938 44.398438 127.996094 63.96875 127.996094 C 70.050781 127.996094 75.9375 127.148438 81.515625 125.5625 C 80.179688 125.277344 78.867188 124.921875 77.570312 124.488281 C 64.898438 120.230469 54.472656 111.226562 42.011719 106.457031 Z M 42.007812 106.457031 " />
  </g>
</svg>
