<?xml version="1.0" encoding="UTF-8"?>
<svg xmlns="http://www.w3.org/2000/svg" width="128" height="128"
     viewBox="0 0 128 128">
  <path fill-rule="nonzero" fill="rgb(40.392157%, 27.843137%, 92.941176%)" fill-opacity="1"
        d="M 64 128 C 99.347656 128 128 99.347656 128 64 C 128 28.652344 99.347656 0 64 0 C 28.652344 0 0 28.652344 0 64 C 0 99.347656 28.652344 128 64 128 Z M 64 128 " />
  <path fill-rule="evenodd" fill="rgb(100%, 100%, 100%)" fill-opacity="1"
        d="M 63.066406 72.265625 C 53.601562 72.265625 46 64.667969 46 55.199219 C 46 45.734375 53.601562 38.132812 63.066406 38.132812 C 72.535156 38.132812 80.132812 45.734375 80.132812 55.199219 C 80.132812 64.667969 72.535156 72.265625 63.066406 72.265625 Z M 63.066406 29.601562 C 77.199219 29.601562 88.667969 41.066406 88.667969 55.199219 C 88.667969 69.332031 77.199219 80.800781 63.066406 80.800781 C 48.933594 80.800781 37.46875 69.332031 37.46875 55.199219 C 37.46875 41.066406 48.933594 29.601562 63.066406 29.601562 Z M 87.46875 82.132812 C 89.199219 83.867188 89.199219 86.535156 87.46875 88.132812 L 70.398438 105.199219 C 68.667969 106.933594 66 106.933594 64.398438 105.199219 C 62.667969 103.46875 62.667969 100.800781 64.398438 99.199219 L 81.46875 82.132812 C 83.066406 80.402344 85.867188 80.402344 87.46875 82.132812 Z M 97.332031 33.867188 C 97.332031 36.265625 95.46875 38.132812 93.066406 38.132812 C 90.667969 38.132812 88.800781 36.265625 88.800781 33.867188 C 88.800781 31.46875 90.667969 29.601562 93.066406 29.601562 C 95.332031 29.601562 97.332031 31.46875 97.332031 33.867188 Z M 97.332031 33.867188 " />
</svg>
