<svg width="128" height="128" viewBox="0 0 128 128" fill="none" xmlns="http://www.w3.org/2000/svg">
  <path d="M64 128C99.3462 128 128 99.3462 128 64C128 28.6538 99.3462 0 64 0C28.6538 0 0 28.6538 0 64C0 99.3462 28.6538 128 64 128Z"
        fill="#6747ED" />
  <path fill-rule="evenodd" clip-rule="evenodd"
        d="M63.0668 72.2673C53.6001 72.2673 46.0001 64.6673 46.0001 55.2006C46.0001 45.7339 53.6001 38.1339 63.0668 38.1339C72.5335 38.1339 80.1335 45.7339 80.1335 55.2006C80.1335 64.6673 72.5335 72.2673 63.0668 72.2673ZM63.0668 29.6006C77.2001 29.6006 88.6668 41.0673 88.6668 55.2006C88.6668 69.3339 77.2001 80.8006 63.0668 80.8006C48.9335 80.8006 37.4668 69.3339 37.4668 55.2006C37.4668 41.0673 48.9335 29.6006 63.0668 29.6006ZM87.4668 82.1339C89.2001 83.8673 89.2001 86.5339 87.4668 88.1339L70.4001 105.201C68.6668 106.934 66.0001 106.934 64.4001 105.201C62.6668 103.467 62.6668 100.801 64.4001 99.2006L81.4668 82.1339C83.0668 80.4006 85.8668 80.4006 87.4668 82.1339ZM97.3335 33.8673C97.3335 36.2673 95.4668 38.1339 93.0668 38.1339C90.6668 38.1339 88.8001 36.2673 88.8001 33.8673C88.8001 31.4673 90.6668 29.6006 93.0668 29.6006C95.3335 29.6006 97.3335 31.4673 97.3335 33.8673Z"
        fill="white" />
</svg>
