<svg width="128" height="128" viewBox="0 0 128 128" fill="none" xmlns="http://www.w3.org/2000/svg">
  <circle cx="64" cy="64" r="64" fill="black" />
  <g clip-path="url(#clip0_26_653)">
    <path d="M95.5796 36.6791L84.9836 42.0441L33.8166 67.9441C33.6435 66.6327 33.5565 65.3115 33.5559 63.9888C33.5629 58.7115 34.9571 53.5275 37.6005 48.9504C40.2438 44.3733 44.0445 40.5619 48.6261 37.8937C53.2077 35.2255 58.4113 33.7932 63.7213 33.7385C69.0314 33.6838 74.2637 35.0087 78.9 37.5819L84.965 34.5109L85.8697 34.0521C80.3138 30.0446 73.7511 27.6417 66.9069 27.1091C60.0628 26.5764 53.2037 27.9346 47.0877 31.0337C40.9718 34.1328 35.8371 38.8521 32.2512 44.6699C28.6654 50.4877 26.7679 57.1775 26.7687 63.9999C26.7687 64.9422 26.8046 65.8808 26.8766 66.8156C26.9774 68.1395 26.682 69.4635 26.0275 70.6209C25.3729 71.7783 24.3885 72.7175 23.1982 73.3202L20 74.9408V82.4999L29.4158 77.7306L32.4651 76.184L35.4696 74.6633L89.4104 47.3499L95.4717 44.2826L108 37.9371V30.3817L95.5796 36.6791Z"
          fill="white" />
    <path d="M108 45.5L38.5338 80.65L32.4725 83.7247L20 90.0406V97.5923L32.3869 91.3208L42.9829 85.9558L94.2021 60.0188C94.3752 61.3389 94.4623 62.6687 94.4627 64C94.4594 69.2835 93.0656 74.4742 90.4197 79.0568C87.7738 83.6395 83.9678 87.4547 79.3796 90.1238C74.7914 92.7928 69.5805 94.2228 64.2642 94.2718C58.9479 94.3208 53.7112 92.9872 49.074 90.4032L48.7016 90.5993L42.1266 93.9293C47.6812 97.9369 54.2426 100.341 61.0857 100.874C67.9288 101.408 74.7872 100.052 80.9031 96.955C87.0191 93.858 92.1545 89.1411 95.7419 83.3253C99.3293 77.5096 101.229 70.8215 101.231 64C101.231 63.0491 101.194 62.0982 101.123 61.1584C101.023 59.835 101.318 58.5115 101.972 57.3542C102.625 56.197 103.609 55.2575 104.798 54.6538L108 53.0332V45.5Z"
          fill="white" />
  </g>
  <defs>
    <clipPath id="clip0_26_653">
      <rect width="88" height="74" fill="white" transform="translate(20 27)" />
    </clipPath>
  </defs>
</svg>
