<?xml version="1.0" encoding="UTF-8"?>
<svg xmlns="http://www.w3.org/2000/svg" width="128" height="128"
     viewBox="0 0 128 128">
  <defs>
    <clipPath id="clip-0">
      <path clip-rule="nonzero"
            d="M 25.335938 30.667969 L 102.667969 30.667969 L 102.667969 96 L 25.335938 96 Z M 25.335938 30.667969 " />
    </clipPath>
  </defs>
  <path fill-rule="nonzero" fill="rgb(93.333333%, 93.333333%, 93.333333%)" fill-opacity="1"
        d="M 128 64 C 128 99.347656 99.347656 128 64 128 C 28.652344 128 0 99.347656 0 64 C 0 28.652344 28.652344 0 64 0 C 99.347656 0 128 28.652344 128 64 " />
  <g clip-path="url(#clip-0)">
    <path fill-rule="nonzero" fill="rgb(56.078431%, 56.078431%, 56.078431%)" fill-opacity="1"
          d="M 83.738281 50.558594 C 82.328125 49.777344 80.515625 49.777344 78.902344 50.558594 L 67.625 56.996094 L 59.972656 61.089844 L 48.898438 67.527344 C 47.488281 68.304688 45.675781 68.304688 44.0625 67.527344 L 35.402344 62.457031 C 33.992188 61.675781 32.988281 60.117188 32.988281 58.359375 L 32.988281 48.609375 C 32.988281 47.046875 33.792969 45.488281 35.402344 44.511719 L 44.0625 39.636719 C 45.472656 38.859375 47.285156 38.859375 48.898438 39.636719 L 57.554688 44.707031 C 58.964844 45.488281 59.972656 47.046875 59.972656 48.804688 L 59.972656 55.238281 L 67.625 50.949219 L 67.625 44.320312 C 67.625 42.757812 66.820312 41.199219 65.210938 40.222656 L 49.097656 31.058594 C 47.6875 30.277344 45.875 30.277344 44.265625 31.058594 L 27.75 40.417969 C 26.140625 41.199219 25.335938 42.757812 25.335938 44.320312 L 25.335938 62.652344 C 25.335938 64.210938 26.140625 65.769531 27.75 66.746094 L 44.0625 75.914062 C 45.472656 76.691406 47.285156 76.691406 48.898438 75.914062 L 59.972656 69.671875 L 67.625 65.382812 L 78.703125 59.140625 C 80.113281 58.359375 81.925781 58.359375 83.535156 59.140625 L 92.195312 64.015625 C 93.605469 64.796875 94.613281 66.355469 94.613281 68.113281 L 94.613281 77.863281 C 94.613281 79.421875 93.804688 80.984375 92.195312 81.957031 L 83.738281 86.832031 C 82.328125 87.613281 80.515625 87.613281 78.902344 86.832031 L 70.242188 81.957031 C 68.835938 81.179688 67.828125 79.617188 67.828125 77.863281 L 67.828125 71.621094 L 60.175781 75.914062 L 60.175781 82.347656 C 60.175781 83.910156 60.980469 85.46875 62.589844 86.445312 L 78.902344 95.609375 C 80.3125 96.390625 82.125 96.390625 83.738281 95.609375 L 100.050781 86.445312 C 101.460938 85.664062 102.464844 84.101562 102.464844 82.347656 L 102.464844 63.820312 C 102.464844 62.261719 101.660156 60.699219 100.050781 59.726562 Z M 83.738281 50.558594 " />
  </g>
</svg>
