<?xml version="1.0" encoding="UTF-8"?>
<svg xmlns="http://www.w3.org/2000/svg" width="128" height="128"
     viewBox="0 0 128 128">
  <path fill-rule="nonzero" fill="rgb(53.72549%, 81.176471%, 85.098039%)" fill-opacity="1"
        d="M 81.78125 80.460938 L 81.921875 80.378906 L 82.449219 79.996094 L 82.179688 6.636719 C 72.75 0 64.839844 0 63.710938 0 C 62.777344 0 57.164062 0 49.894531 3.800781 L 39.652344 55.160156 L 81.777344 80.460938 Z M 81.78125 80.460938 " />
  <path fill-rule="nonzero" fill="rgb(23.137255%, 56.470588%, 81.176471%)" fill-opacity="1"
        d="M 39.652344 55.160156 L 28.65625 110.304688 L 81.78125 80.460938 Z M 39.652344 55.160156 " />
  <path fill-rule="nonzero" fill="rgb(65.882353%, 85.490196%, 89.019608%)" fill-opacity="1"
        d="M 49.894531 3.800781 C 40.75 8.574219 28.964844 19.34375 20.527344 43.675781 L 39.652344 55.160156 Z M 49.894531 3.800781 " />
  <path fill-rule="nonzero" fill="rgb(54.509804%, 81.568627%, 89.019608%)" fill-opacity="1"
        d="M 39.652344 55.160156 L 20.527344 43.675781 C 20.476562 43.820312 20.425781 43.960938 20.375 44.105469 C 11.789062 73.960938 16.644531 96.535156 27.929688 110.710938 L 28.652344 110.304688 Z M 39.652344 55.160156 " />
  <path fill-rule="nonzero" fill="rgb(13.72549%, 73.333333%, 90.196078%)" fill-opacity="1"
        d="M 110.457031 59.78125 C 109.742188 54.804688 108.625 49.574219 107.050781 44.105469 C 99.96875 23.460938 90.484375 12.480469 82.183594 6.640625 L 82.457031 80 L 110.460938 59.785156 Z M 110.457031 59.78125 " />
  <path fill-rule="nonzero" fill="rgb(5.490196%, 45.490196%, 73.72549%)" fill-opacity="1"
        d="M 82.453125 79.996094 L 81.921875 80.378906 L 81.78125 80.460938 L 82.457031 80.871094 Z M 82.453125 79.996094 " />
  <path fill-rule="nonzero" fill="rgb(5.490196%, 45.490196%, 73.72549%)" fill-opacity="1"
        d="M 81.78125 80.460938 L 28.65625 110.304688 L 28.445312 111.355469 C 37.441406 122.265625 50.320312 128 63.714844 128 C 70.269531 128 76.703125 126.621094 82.617188 123.941406 L 82.460938 80.871094 L 81.78125 80.464844 Z M 81.78125 80.460938 " />
  <path fill-rule="nonzero" fill="rgb(9.803922%, 70.196078%, 91.764706%)" fill-opacity="1"
        d="M 82.457031 80.871094 L 107.632812 95.988281 C 111.214844 86.058594 112.484375 73.933594 110.457031 59.78125 L 82.453125 79.996094 L 82.453125 80.863281 Z M 82.457031 80.871094 " />
  <path fill-rule="nonzero" fill="rgb(0%, 57.647059%, 83.137255%)" fill-opacity="1"
        d="M 82.617188 123.941406 C 93.570312 118.976562 102.75 109.519531 107.636719 95.988281 L 82.460938 80.871094 Z M 82.617188 123.941406 " />
</svg>
