<svg width="128" height="128" viewBox="0 0 128 128" fill="none" xmlns="http://www.w3.org/2000/svg">
  <path d="M81.7804 80.46L81.9204 80.38L82.4504 79.995L82.1804 6.635C72.7504 0 64.8404 0 63.7104 0C62.7754 0 57.1654 0 49.8954 3.8L39.6504 55.16L81.7754 80.46H81.7804Z"
        fill="#89CFD9" />
  <path d="M39.6513 55.1599L28.6562 110.305L81.7813 80.4599L39.6513 55.1599Z" fill="#3B90CF" />
  <path d="M49.8954 3.80005C40.7504 8.57505 28.9654 19.3451 20.5254 43.6751L39.6504 55.1601L49.8954 3.80005Z"
        fill="#A8DAE3" />
  <path d="M39.6507 55.1601L20.5257 43.675C20.4757 43.82 20.4257 43.96 20.3757 44.105C11.7907 73.9601 16.6457 96.5351 27.9307 110.71L28.6507 110.305L39.6507 55.1601Z"
        fill="#8BD0E3" />
  <path d="M110.456 59.7802C109.741 54.8052 108.626 49.5752 107.051 44.1052C99.9706 23.4601 90.4855 12.4801 82.1855 6.64014L82.4556 80.0002L110.461 59.7852L110.456 59.7802Z"
        fill="#23BBE6" />
  <path d="M82.4512 79.9951L81.9212 80.3801L81.7812 80.4601L82.4563 80.8701L82.4512 79.9951Z" fill="#0E74BC" />
  <path d="M81.7813 80.46L28.6563 110.305L28.4463 111.355C37.4413 122.265 50.3213 128 63.7163 128C70.2713 128 76.7013 126.62 82.6163 123.94L82.4613 80.87L81.7813 80.465V80.46Z"
        fill="#0E74BC" />
  <path d="M82.4562 80.87L107.631 95.99C111.216 86.06 112.486 73.935 110.456 59.78L82.4512 79.995V80.865L82.4562 80.87Z"
        fill="#19B3EA" />
  <path d="M82.6159 123.94C93.5709 118.975 102.751 109.52 107.636 95.9901L82.4609 80.8701L82.6159 123.94Z"
        fill="#0093D4" />
</svg>
