<?xml version="1.0" encoding="UTF-8"?>
<svg xmlns="http://www.w3.org/2000/svg" width="128" height="128"
     viewBox="0 0 128 128">
  <path fill-rule="nonzero" fill="rgb(74.509804%, 74.509804%, 74.509804%)" fill-opacity="1"
        d="M 128 64 C 128 99.347656 99.347656 128 64 128 C 28.652344 128 0 99.347656 0 64 C 0 28.652344 28.652344 0 64 0 C 99.347656 0 128 28.652344 128 64 " />
  <path fill-rule="nonzero" fill="rgb(56.078431%, 56.078431%, 56.078431%)" fill-opacity="1"
        d="M 55.28125 78.480469 C 55.390625 65.128906 58.945312 60.929688 65.417969 56.949219 C 70.054688 53.933594 73.609375 50.59375 73.609375 45.640625 C 73.609375 40.257812 69.40625 36.707031 64.230469 36.707031 C 59.164062 36.707031 54.527344 40.042969 54.3125 46.394531 L 39 46.394531 C 39.324219 31.214844 50.535156 24 64.339844 24 C 79.324219 24 90 31.859375 90 45.105469 C 90 53.933594 85.472656 59.640625 78.355469 63.839844 C 72.316406 67.5 69.621094 70.945312 69.515625 78.480469 L 69.515625 79.667969 L 55.28125 79.667969 Z M 62.722656 104 C 57.652344 104 53.554688 99.910156 53.664062 94.957031 C 53.554688 90.003906 57.652344 86.019531 62.722656 86.019531 C 67.464844 86.019531 71.671875 90.003906 71.671875 94.957031 C 71.671875 99.910156 67.464844 104 62.722656 104 Z M 62.722656 104 " />
</svg>
