<svg width="128" height="128" viewBox="0 0 128 128" fill="none" xmlns="http://www.w3.org/2000/svg">
  <circle cx="64" cy="64" r="64" fill="#23292F" />
  <g clip-path="url(#clip0_186_71)">
    <path d="M91.5746 32H102.848L79.3871 55.0158C70.8909 63.3464 57.1159 63.3464 48.6136 55.0158L25.1436 32H36.4261L54.2504 49.4838C56.8473 52.0198 60.3472 53.4414 63.9935 53.4414C67.6398 53.4414 71.1397 52.0198 73.7366 49.4838L91.5746 32Z"
          fill="white" />
    <path d="M36.2811 96.0004H25L48.6133 72.8427C57.1095 64.5121 70.8844 64.5121 79.3867 72.8427L103 96.0004H91.7266L73.75 78.3747C71.153 75.8387 67.6532 74.4171 64.0069 74.4171C60.3606 74.4171 56.8607 75.8387 54.2637 78.3747L36.2811 96.0004Z"
          fill="white" />
  </g>
  <defs>
    <clipPath id="clip0_186_71">
      <rect width="78" height="64" fill="white" transform="translate(25 32)" />
    </clipPath>
  </defs>
</svg>
