<?xml version="1.0" encoding="UTF-8"?>
<svg xmlns="http://www.w3.org/2000/svg" width="128" height="128"
     viewBox="0 0 128 128">
  <path fill-rule="nonzero" fill="rgb(13.72549%, 16.078431%, 18.431373%)" fill-opacity="1"
        d="M 128 64 C 128 99.347656 99.347656 128 64 128 C 28.652344 128 0 99.347656 0 64 C 0 28.652344 28.652344 0 64 0 C 99.347656 0 128 28.652344 128 64 " />
  <path fill-rule="nonzero" fill="rgb(100%, 100%, 100%)" fill-opacity="1"
        d="M 91.574219 32 L 102.847656 32 L 79.386719 55.015625 C 70.890625 63.347656 57.117188 63.347656 48.613281 55.015625 L 25.144531 32 L 36.425781 32 L 54.25 49.484375 C 56.847656 52.019531 60.347656 53.441406 63.992188 53.441406 C 67.640625 53.441406 71.140625 52.019531 73.738281 49.484375 Z M 91.574219 32 " />
  <path fill-rule="nonzero" fill="rgb(100%, 100%, 100%)" fill-opacity="1"
        d="M 36.28125 96 L 25 96 L 48.613281 72.84375 C 57.109375 64.511719 70.882812 64.511719 79.386719 72.84375 L 103 96 L 91.726562 96 L 73.75 78.375 C 71.152344 75.839844 67.652344 74.417969 64.007812 74.417969 C 60.359375 74.417969 56.859375 75.839844 54.265625 78.375 Z M 36.28125 96 " />
</svg>
