<svg width="128" height="128" viewBox="0 0 128 128" fill="none" xmlns="http://www.w3.org/2000/svg">
  <circle cx="64" cy="64" r="64" fill="#BEBEBE" />
  <path d="M55.2812 78.4818C55.389 65.1306 58.9471 60.9314 65.4165 56.9475C70.0529 53.9327 73.611 50.5949 73.611 45.642C73.611 40.2584 69.4059 36.7052 64.2304 36.7052C59.1628 36.7052 54.5264 40.0431 54.3108 46.3957H39C39.3235 31.214 50.537 24 64.3383 24C79.3256 24 90 31.86 90 45.1036C90 53.9327 85.4715 59.6393 78.3552 63.8385C72.3171 67.4993 69.6216 70.9448 69.5137 78.4818V79.6662H55.2812V78.4818ZM62.7209 104C57.6533 104 53.556 99.9085 53.6638 94.9556C53.556 90.0027 57.6533 86.0188 62.7209 86.0188C67.4651 86.0188 71.6702 90.0027 71.6702 94.9556C71.6702 99.9085 67.4651 104 62.7209 104Z"
        fill="#8F8F8F" />
</svg>
