<svg width="128" height="128" viewBox="0 0 128 128" fill="none" xmlns="http://www.w3.org/2000/svg">
  <path d="M128 0H0V128H128V0Z" fill="black" />
  <path d="M64.5 119.588V100.758C62.6047 100.758 60.6681 100.594 58.7728 100.305L55.8062 118.888C58.6904 119.382 61.6158 119.588 64.5 119.588ZM73.1526 118.929C76.0367 118.475 78.8797 117.816 81.6403 116.91L75.8307 98.9866C74.0178 99.5635 72.1225 100.017 70.2272 100.305L73.1526 118.929ZM47.3597 116.91L53.1693 99.0278C51.3563 98.451 49.5846 97.7093 47.8541 96.8441L39.284 113.614C41.8797 114.891 44.5991 116.003 47.3597 116.91ZM89.6748 113.614C92.2706 112.295 94.7428 110.771 97.0913 109.081L85.9666 93.8775C84.4421 94.99 82.794 96.02 81.0635 96.8441L89.6748 113.614ZM31.8675 109.04L42.9922 93.8363C41.4677 92.7238 39.9844 91.4877 38.6247 90.1281L25.2751 103.437C27.3352 105.455 29.5601 107.351 31.8675 109.04ZM103.643 103.519L103.766 103.395C105.826 101.376 107.722 99.1514 109.411 96.8441L94.1659 85.7606C93.0534 87.2851 91.7762 88.7684 90.4577 90.0869L90.2517 90.2929L96.6793 96.3497L103.643 103.519ZM19.6303 96.8029L34.8753 85.7194C33.7628 84.1949 32.7327 82.5468 31.8675 80.8575L15.0568 89.3864C16.3753 91.9822 17.8998 94.4543 19.6303 96.8029ZM113.943 89.4276C115.262 86.873 116.374 84.1537 117.281 81.3931L99.3163 75.6247C98.7394 77.4376 97.9978 79.2093 97.1325 80.8987L113.943 89.4276ZM11.7194 81.3931L29.6837 75.5835C29.1069 73.7706 28.6537 71.9165 28.3653 70.0212L9.70045 72.9465C10.1537 75.7895 10.8541 78.6325 11.7194 81.3931ZM119.3 72.9877C119.753 70.1448 120 67.2194 120 64.3352H101.129C101.129 66.2305 100.964 68.167 100.676 70.0624L119.3 72.9877ZM27.912 64.294C27.912 62.3987 28.0768 60.4621 28.3653 58.5668L9.70045 55.6414C9.24722 58.4844 9.0412 61.4098 9 64.294H27.912ZM100.676 58.608L119.341 55.6826C118.888 52.8396 118.228 49.9967 117.322 47.2361L99.3575 53.0045C99.9343 54.8586 100.388 56.7127 100.676 58.608ZM29.6837 53.0045C30.2606 51.1915 31.0022 49.4198 31.8675 47.7305L15.0568 39.2016C13.7383 41.7561 12.6258 44.4755 11.7194 47.2361L29.6837 53.0045ZM97.1737 47.7717L114.026 39.2428C112.707 36.647 111.183 34.1748 109.452 31.8263L94.1659 42.9098C95.2784 44.4343 96.3085 46.0824 97.1737 47.7717ZM34.8753 42.8686C35.9877 41.3441 37.265 39.8608 38.6247 38.5011L38.6659 38.4599L25.3163 25.1514L25.2751 25.1926C23.2149 27.2528 21.3196 29.4365 19.6303 31.7851L34.8753 42.8686ZM90.4577 38.5835L94.4955 34.5044L103.766 25.2751L103.725 25.2339C101.665 23.2149 99.4811 21.3196 97.1737 19.6303L86.049 34.8341C87.5735 35.9465 89.0568 37.1826 90.3753 38.5423L90.4577 38.5835ZM43.0334 34.7517C44.5579 33.6392 46.206 32.6503 47.9365 31.7851L39.3664 15.0156C36.7706 16.3341 34.2984 17.8586 31.9499 19.5479L43.0334 34.7517ZM81.1871 31.8263L89.7984 15.0568C87.2027 13.7383 84.5245 12.6258 81.7639 11.7194L75.9131 29.6013C77.6849 30.2194 79.4566 30.961 81.1871 31.8263ZM53.2517 29.6013C55.0646 29.0245 56.9599 28.5713 58.8552 28.2828L55.9298 9.70044C53.0869 10.1537 50.2027 10.8129 47.4421 11.7194L53.2517 29.6013ZM70.2684 28.2828L73.235 9.70044C70.392 9.24722 67.4666 9 64.5824 9V27.8296C66.4777 27.8296 68.4142 27.9944 70.2684 28.2828Z"
        fill="white" />
  <path d="M64.5005 101.623V82.7113C62.8936 82.7113 61.3279 82.5053 59.7622 82.0933L54.8179 100.346C57.9905 101.17 61.2455 101.623 64.5005 101.623ZM74.1831 100.346C77.3558 99.522 80.3635 98.2859 83.2065 96.6378L73.6475 80.2804C72.2878 81.0632 70.8045 81.6813 69.28 82.0933L74.1831 100.346ZM45.8357 96.6378L55.3947 80.2804C54.035 79.4975 52.7578 78.5086 51.6041 77.3962L51.4393 77.2314L45.4237 83.5354L38.0072 90.6634L38.1308 90.787C40.4382 93.0532 43.0339 95.0309 45.8357 96.6378ZM90.9114 90.787C93.2188 88.4797 95.2377 85.9251 96.8446 83.1233L80.3223 73.6467C79.5395 75.0064 78.5506 76.2425 77.397 77.3962L90.9114 90.787ZM32.1564 83.0821L48.6787 73.6467C47.8958 72.287 47.2778 70.845 46.8658 69.3205L28.4482 74.1824C29.2722 77.2726 30.5495 80.2804 32.1564 83.0821ZM100.594 74.2236C101.418 71.0922 101.871 67.8784 101.871 64.6646H82.7945C82.7945 66.2303 82.5885 67.8372 82.1765 69.3617L100.594 74.2236ZM46.2889 64.6233C46.2889 63.0576 46.495 61.4507 46.907 59.9262L28.4482 55.0643C27.6241 58.1957 27.1709 61.4095 27.1709 64.6233H46.2889ZM82.1353 59.9674L100.594 55.1055C99.77 51.9741 98.4927 48.9663 96.8858 46.1646L80.3636 55.6C81.1052 57.0009 81.7232 58.4429 82.1353 59.9674ZM48.7199 55.6C49.5027 54.2815 50.4504 53.0042 51.6041 51.8917L51.6453 51.8505L44.8056 45.0933L38.2544 38.3772L38.1308 38.5009C35.8235 40.767 33.8457 43.3628 32.1976 46.1233L48.7199 55.6ZM77.397 51.8917L84.1542 45.1757L91.0762 38.6657L90.9114 38.5009C88.6041 36.1935 86.0083 34.257 83.2065 32.6089L73.6475 48.9663C75.0072 49.7492 76.2433 50.6968 77.397 51.8093V51.8917ZM55.3947 48.9663C56.7544 48.1835 58.2377 47.5654 59.7622 47.1534L54.9003 28.9006C51.7277 29.7247 48.7199 30.9608 45.8769 32.6089L55.3947 48.9663ZM69.2388 47.1946L74.1831 28.9418C71.0517 28.1178 67.7967 27.6646 64.5417 27.6646V46.5766C66.1074 46.5766 67.7143 46.7826 69.2388 47.1946Z"
        fill="white" />
</svg>
