<?xml version="1.0" encoding="UTF-8"?>
<svg xmlns="http://www.w3.org/2000/svg" width="128" height="128"
     viewBox="0 0 128 128">
  <rect x="-12.8" y="-12.8" width="153.6" height="153.6" fill="rgb(0%, 0%, 0%)" fill-opacity="1" />
  <path fill-rule="nonzero" fill="rgb(100%, 100%, 100%)" fill-opacity="1"
        d="M 64.5 119.589844 L 64.5 100.757812 C 62.605469 100.757812 60.667969 100.59375 58.773438 100.304688 L 55.804688 118.886719 C 58.691406 119.382812 61.617188 119.589844 64.5 119.589844 Z M 73.152344 118.929688 C 76.035156 118.476562 78.878906 117.816406 81.640625 116.910156 L 75.832031 98.988281 C 74.019531 99.5625 72.121094 100.015625 70.226562 100.304688 Z M 47.359375 116.910156 L 53.167969 99.027344 C 51.355469 98.449219 49.585938 97.710938 47.855469 96.84375 L 39.285156 113.613281 C 41.878906 114.890625 44.597656 116.003906 47.359375 116.910156 Z M 89.675781 113.613281 C 92.269531 112.296875 94.742188 110.769531 97.089844 109.082031 L 85.964844 93.878906 C 84.441406 94.988281 82.792969 96.019531 81.0625 96.84375 Z M 31.867188 109.039062 L 42.992188 93.835938 C 41.46875 92.722656 39.984375 91.488281 38.625 90.128906 L 25.273438 103.4375 C 27.335938 105.453125 29.558594 107.351562 31.867188 109.039062 Z M 103.644531 103.519531 L 103.765625 103.394531 C 105.824219 101.375 107.722656 99.152344 109.410156 96.84375 L 94.164062 85.761719 C 93.054688 87.285156 91.777344 88.769531 90.457031 90.085938 L 90.25 90.292969 L 96.679688 96.351562 Z M 19.628906 96.804688 L 34.875 85.71875 C 33.761719 84.195312 32.734375 82.546875 31.867188 80.859375 L 15.058594 89.386719 C 16.375 91.980469 17.898438 94.453125 19.628906 96.804688 Z M 113.941406 89.425781 C 115.261719 86.871094 116.375 84.152344 117.28125 81.394531 L 99.316406 75.625 C 98.738281 77.4375 97.996094 79.210938 97.132812 80.898438 Z M 11.71875 81.394531 L 29.683594 75.582031 C 29.105469 73.769531 28.652344 71.917969 28.367188 70.019531 L 9.699219 72.945312 C 10.152344 75.789062 10.855469 78.632812 11.71875 81.394531 Z M 119.300781 72.988281 C 119.753906 70.144531 120 67.21875 120 64.335938 L 101.128906 64.335938 C 101.128906 66.230469 100.964844 68.167969 100.675781 70.0625 Z M 27.910156 64.292969 C 27.910156 62.398438 28.078125 60.460938 28.367188 58.566406 L 9.699219 55.640625 C 9.246094 58.484375 9.042969 61.410156 9 64.292969 Z M 100.675781 58.609375 L 119.339844 55.683594 C 118.886719 52.839844 118.226562 49.996094 117.320312 47.234375 L 99.359375 53.003906 C 99.933594 54.859375 100.386719 56.710938 100.675781 58.609375 Z M 29.683594 53.003906 C 30.261719 51.191406 31.003906 49.417969 31.867188 47.730469 L 15.058594 39.203125 C 13.738281 41.757812 12.625 44.476562 11.71875 47.234375 Z M 97.171875 47.773438 L 114.027344 39.242188 C 112.707031 36.648438 111.183594 34.175781 109.453125 31.828125 L 94.164062 42.910156 C 95.277344 44.433594 96.308594 46.082031 97.171875 47.773438 Z M 34.875 42.867188 C 35.988281 41.34375 37.265625 39.859375 38.625 38.5 L 38.664062 38.460938 L 25.316406 25.152344 L 25.273438 25.191406 C 23.214844 27.253906 21.320312 29.4375 19.628906 31.785156 Z M 90.457031 38.582031 L 94.496094 34.503906 L 103.765625 25.273438 L 103.726562 25.234375 C 101.664062 23.214844 99.480469 21.320312 97.171875 19.628906 L 86.050781 34.835938 C 87.574219 35.945312 89.058594 37.183594 90.375 38.542969 Z M 43.035156 34.75 C 44.558594 33.640625 46.207031 32.648438 47.9375 31.785156 L 39.367188 15.015625 C 36.769531 16.335938 34.296875 17.859375 31.949219 19.546875 Z M 81.1875 31.828125 L 89.796875 15.058594 C 87.203125 13.738281 84.523438 12.625 81.765625 11.71875 L 75.914062 29.601562 C 77.683594 30.21875 79.457031 30.960938 81.1875 31.828125 Z M 53.25 29.601562 C 55.066406 29.023438 56.960938 28.570312 58.855469 28.28125 L 55.929688 9.699219 C 53.085938 10.152344 50.203125 10.8125 47.441406 11.71875 Z M 70.269531 28.28125 L 73.234375 9.699219 C 70.390625 9.246094 67.464844 9 64.582031 9 L 64.582031 27.828125 C 66.476562 27.828125 68.414062 27.996094 70.269531 28.28125 Z M 70.269531 28.28125 " />
  <path fill-rule="nonzero" fill="rgb(100%, 100%, 100%)" fill-opacity="1"
        d="M 64.5 101.621094 L 64.5 82.710938 C 62.894531 82.710938 61.328125 82.503906 59.761719 82.09375 L 54.816406 100.347656 C 57.992188 101.171875 61.246094 101.621094 64.5 101.621094 Z M 74.183594 100.347656 C 77.355469 99.523438 80.363281 98.285156 83.207031 96.636719 L 73.648438 80.28125 C 72.289062 81.0625 70.804688 81.679688 69.28125 82.09375 Z M 45.835938 96.636719 L 55.394531 80.28125 C 54.035156 79.496094 52.757812 78.507812 51.605469 77.394531 L 51.4375 77.230469 L 45.421875 83.535156 L 38.007812 90.664062 L 38.128906 90.785156 C 40.4375 93.054688 43.035156 95.03125 45.835938 96.636719 Z M 90.910156 90.785156 C 93.21875 88.480469 95.238281 85.925781 96.84375 83.125 L 80.324219 73.648438 C 79.539062 75.007812 78.550781 76.242188 77.398438 77.394531 Z M 32.15625 83.082031 L 48.679688 73.648438 C 47.894531 72.285156 47.277344 70.84375 46.867188 69.320312 L 28.449219 74.183594 C 29.273438 77.273438 30.550781 80.28125 32.15625 83.082031 Z M 100.59375 74.222656 C 101.417969 71.09375 101.871094 67.878906 101.871094 64.664062 L 82.792969 64.664062 C 82.792969 66.230469 82.589844 67.835938 82.175781 69.363281 Z M 46.289062 64.625 C 46.289062 63.058594 46.496094 61.449219 46.90625 59.925781 L 28.449219 55.0625 C 27.625 58.195312 27.171875 61.410156 27.171875 64.625 Z M 82.136719 59.96875 L 100.59375 55.105469 C 99.769531 51.972656 98.492188 48.964844 96.886719 46.164062 L 80.363281 55.601562 C 81.105469 57 81.722656 58.441406 82.136719 59.96875 Z M 48.71875 55.601562 C 49.503906 54.28125 50.449219 53.003906 51.605469 51.890625 L 51.644531 51.851562 L 44.804688 45.09375 L 38.253906 38.378906 L 38.128906 38.5 C 35.824219 40.765625 33.84375 43.363281 32.199219 46.125 Z M 77.398438 51.890625 L 84.152344 45.175781 L 91.078125 38.664062 L 90.910156 38.5 C 88.605469 36.195312 86.007812 34.257812 83.207031 32.609375 L 73.648438 48.964844 C 75.007812 49.75 76.242188 50.695312 77.398438 51.808594 Z M 55.394531 48.964844 C 56.753906 48.183594 58.238281 47.566406 59.761719 47.152344 L 54.898438 28.902344 C 51.726562 29.726562 48.71875 30.960938 45.875 32.609375 Z M 69.238281 47.195312 L 74.183594 28.941406 C 71.050781 28.117188 67.796875 27.664062 64.542969 27.664062 L 64.542969 46.578125 C 66.105469 46.578125 67.714844 46.78125 69.238281 47.195312 Z M 69.238281 47.195312 " />
</svg>
