<svg width="128" height="128" viewBox="0 0 128 128" fill="none" xmlns="http://www.w3.org/2000/svg">
<path d="M31.8324 69.8355L35.0324 45.7355L7.23242 26.4355L32.6324 35.0355L38.6324 25.8355L60.5324 12.2355L108.832 38.8355L111.332 79.4355L89.8325 109.336L72.8325 111.936L81.6324 95.8355V80.3355L75.2324 68.2355L68.7324 63.9355L58.7324 74.2355V85.1355L50.9324 92.4355L41.0324 93.6355L36.6324 96.1355L29.4324 93.8355L26.4324 83.0355L31.8324 75.4355V69.8355Z" fill="white"/>
<path d="M76.2316 26.2354C70.9316 25.1354 65.1316 25.4354 65.1316 25.4354C65.1316 25.4354 63.2316 34.2354 51.4316 36.5354C51.5316 36.5354 67.0316 41.8354 76.2316 26.2354Z" fill="#94A6C3"/>
<path d="M81.032 106.036C87.432 101.036 92.232 94.1355 94.432 86.3355C94.532 86.0355 95.432 85.5355 96.032 85.1355C97.032 84.5355 98.032 84.0355 98.232 83.2355C98.632 80.9355 98.832 78.5355 98.832 76.1355C98.832 75.2355 97.932 74.3355 97.032 73.4355C96.332 72.8355 95.632 72.1355 95.632 71.6355C94.632 62.5355 90.432 54.0355 83.732 47.8355L83.032 48.5355C89.532 54.6355 93.732 62.9355 94.632 71.7355C94.732 72.5355 95.532 73.3355 96.332 74.1355C97.032 74.7355 97.832 75.6355 97.832 76.0355C97.832 78.3355 97.632 80.6355 97.232 82.9355C97.132 83.3355 96.232 83.7355 95.532 84.1355C94.532 84.6355 93.632 85.1355 93.432 85.9355C91.032 94.4355 85.532 101.836 78.232 106.636C79.532 103.836 83.632 94.7355 85.832 90.1355L85.432 75.3355L72.732 63.0355L65.532 64.0355L57.632 76.8355C57.632 76.8355 61.332 81.5355 56.132 87.0355C51.032 92.4355 47.032 93.6355 47.032 93.6355L43.332 91.6355C44.432 90.2355 46.632 88.1355 48.332 86.7355C51.232 84.3355 54.132 84.1355 54.132 81.5355C54.232 76.1355 48.432 77.6355 48.432 77.6355L46.332 79.6355L45.432 87.0355L41.032 92.5355L40.532 92.4355L33.332 90.8355C33.332 90.8355 37.732 88.5355 38.432 85.9355C39.132 83.4355 37.032 75.1355 36.932 74.6355C37.032 74.7355 39.032 76.4355 39.932 79.2355C41.532 74.8355 43.632 70.6355 44.232 70.2355C44.832 69.8355 52.932 65.5355 52.932 65.5355L50.232 72.6355L52.232 71.5355L57.032 59.7355C57.032 59.7355 61.732 57.4355 65.232 57.4355C71.532 57.3355 80.832 49.6355 76.632 35.8355C77.832 36.3355 98.632 46.7355 102.232 67.1355C104.932 82.8355 96.032 97.5355 81.032 106.036Z" fill="#94A6C3"/>
<path d="M57.2326 28.4355C59.5326 25.7355 58.6326 21.7355 58.6326 21.7355L51.9326 31.6355C51.8326 31.6355 54.3326 31.7355 57.2326 28.4355Z" fill="#1B314F"/>
<path d="M34.732 82.5358L35.532 78.5358C35.532 78.5358 32.232 84.3358 31.932 85.1358C31.632 86.0358 32.132 87.6358 33.432 87.5358C34.732 87.4358 36.332 85.5358 36.332 84.1358C36.332 82.3358 34.732 82.5358 34.732 82.5358Z" fill="#1B314F"/>
<path d="M94.132 18.9357C94.132 18.9357 99.132 19.1357 104.332 19.7357C92.632 10.5356 81.532 7.83562 72.532 7.83562C60.132 7.83562 51.732 12.9357 51.232 13.2357L55.132 7.03562C55.132 7.03562 39.532 5.53563 34.032 22.0357C32.632 18.5357 31.332 13.4357 31.332 13.4357C31.332 13.4357 23.232 20.5357 27.032 32.3357C17.732 28.9357 4.432 24.2357 3.932 24.1357C3.232 24.0357 3.032 24.3357 3.032 24.3357C3.032 24.3357 2.832 24.6357 3.432 25.1357C4.532 26.0357 25.532 41.5357 30.132 44.5357C29.132 48.1357 29.132 49.8357 30.132 51.5357C31.532 53.8357 31.632 55.0357 31.432 56.7357C31.232 58.4357 29.432 73.1357 29.032 74.9357C28.632 76.7357 24.432 83.1357 24.632 85.0357C24.832 86.9357 27.432 95.0357 29.732 95.9357C31.432 96.5357 35.632 97.8357 38.432 97.8357C39.432 97.8357 40.332 97.6357 40.732 97.2357C42.432 95.7357 42.932 95.4357 44.132 95.4357C44.232 95.4357 44.332 95.4357 44.432 95.4357C44.932 95.4357 45.532 95.5357 46.232 95.5357C47.832 95.5357 49.932 95.2357 51.432 93.8357C53.632 91.6357 57.432 88.6357 58.632 87.2357C60.132 85.3357 60.932 82.7357 60.532 80.1357C60.232 77.7357 61.532 75.6357 63.032 73.5357C64.932 71.0357 68.432 66.5357 68.432 66.5357C75.332 71.7357 79.632 79.6357 79.632 88.4357C79.632 104.036 66.032 116.636 49.232 116.636C46.632 116.636 44.132 116.336 41.632 115.736C49.332 118.436 55.832 119.336 61.132 119.336C72.432 119.336 78.432 115.236 78.432 115.236C78.432 115.236 76.332 117.936 72.932 121.036C73.032 121.036 73.032 121.036 73.032 121.036C91.732 118.436 100.832 103.036 100.832 103.036C100.832 103.036 100.132 108.036 99.232 111.436C124.132 92.7357 119.932 69.3357 119.832 68.5357C120.032 68.8357 122.532 71.8357 123.832 73.4357C127.833 32.2356 94.132 18.9357 94.132 18.9357ZM55.832 84.7357C55.432 85.2357 53.732 86.7357 52.532 87.8357C51.332 88.9357 50.032 90.0357 49.032 91.0357C48.632 91.4357 47.832 91.6357 46.632 91.6357C46.232 91.6357 45.832 91.6357 45.532 91.6357C45.332 91.6357 45.132 91.6357 44.932 91.6357C44.732 91.6357 44.632 91.6357 44.532 91.6357C44.232 91.6357 43.932 91.6357 43.632 91.6357C45.132 89.6357 49.532 85.0357 51.032 84.0357C52.832 82.8357 53.732 81.6357 52.632 79.5357C51.532 77.4357 48.632 77.9357 48.632 77.9357C48.632 77.9357 50.332 77.2357 51.832 77.2357C49.932 76.7357 47.532 77.2357 46.432 78.3357C45.232 79.4357 45.432 83.3357 44.932 85.8357C44.432 88.4357 42.732 89.7357 40.132 92.1357C38.732 93.4357 37.732 93.8357 36.932 93.8357C35.232 93.5357 33.232 93.0357 31.832 92.5357C30.832 91.2357 29.332 86.9357 28.932 85.1357C29.232 84.1357 30.432 82.0357 31.032 80.8357C32.232 78.5357 32.932 77.2357 33.132 76.0357C33.532 74.3357 34.832 63.8357 35.332 59.4357C36.632 61.1357 38.432 63.9357 38.032 65.7357C40.932 61.6357 38.832 57.6357 37.832 56.0357C36.932 54.4357 35.732 51.2357 36.732 47.8357C37.732 44.4357 41.332 35.0357 41.332 35.0357C41.332 35.0357 42.532 37.1357 44.232 36.7357C45.932 36.3357 59.632 15.7357 59.632 15.7357C59.632 15.7357 63.332 23.8357 59.432 29.7357C55.432 35.6357 51.532 36.7357 51.532 36.7357C51.532 36.7357 57.032 37.7357 62.132 34.0357C64.232 38.9357 66.232 44.0357 66.332 44.7357C66.032 45.4357 62.032 55.0357 61.632 55.6357C61.432 55.8357 60.032 56.2357 59.032 56.4357C57.332 56.9357 56.332 57.2357 55.932 57.5357C55.232 58.1357 52.032 66.9357 50.532 71.2357C48.732 71.7357 46.932 72.7357 45.632 74.7357C46.332 74.2357 48.532 73.9357 50.132 73.7357C51.532 73.6357 55.832 75.9357 56.932 80.2357C56.932 80.3357 56.932 80.3357 56.932 80.4357C57.132 82.0357 56.632 83.5357 55.832 84.7357ZM46.432 85.9357C47.332 84.6357 47.232 82.4357 47.332 81.7357C47.432 81.0357 47.632 79.7357 48.432 79.5357C49.232 79.3357 51.132 79.6357 51.132 81.0357C51.132 82.3357 49.732 82.6357 48.732 83.5357C48.032 84.2357 46.632 85.7357 46.432 85.9357ZM86.332 66.8357C87.332 61.7357 87.432 57.3357 87.132 53.7357C91.032 58.9357 93.432 65.2357 94.132 71.7357C94.232 72.5357 95.032 73.3357 95.832 74.1357C96.532 74.7357 97.332 75.5357 97.332 76.0357C97.332 78.3357 97.132 80.6357 96.732 82.9357C96.632 83.2357 95.732 83.7357 95.032 84.1357C94.032 84.6357 93.132 85.1357 92.932 85.9357C90.732 93.6357 86.032 100.436 79.732 105.236C89.032 95.5357 93.532 79.5357 86.332 66.8357ZM80.032 106.136C86.532 101.136 91.532 94.1357 93.732 86.2357C93.832 85.9357 94.732 85.4357 95.332 85.0357C96.332 84.5357 97.332 83.9357 97.532 83.1357C97.932 80.8357 98.132 78.4357 98.132 76.0357C98.132 75.1357 97.232 74.2357 96.332 73.3357C95.832 72.7357 95.032 72.0357 95.032 71.5357C94.232 64.2357 91.332 57.3357 86.832 51.6357C84.832 39.6357 76.832 35.9357 76.632 35.8357C76.832 36.1357 82.032 43.6357 78.432 52.4357C74.732 61.3357 65.232 59.9357 64.432 60.0357C63.632 60.0357 60.532 64.0357 56.632 71.4357C56.132 71.2357 54.032 70.7357 51.632 71.1357C53.432 66.1357 56.132 59.0357 56.632 58.4357C56.832 58.2357 58.332 57.8357 59.332 57.5357C61.232 57.0357 62.132 56.7357 62.432 56.3357C62.632 56.0357 63.632 53.7357 64.632 51.3357C65.532 51.3357 67.832 51.1357 68.032 51.0357C68.232 50.8357 70.132 45.9357 70.132 45.3357C70.132 44.8357 66.232 35.1357 64.732 31.4357C65.432 30.6357 66.132 29.6357 66.832 28.5357C87.332 30.7357 103.332 48.1357 103.332 69.2357C103.332 85.4357 93.832 99.5357 80.032 106.136Z" fill="#1B314F"/>
<path d="M53.4327 52.1355C55.3327 49.9355 54.3327 45.8355 50.8327 45.1355C51.7327 43.0355 53.0327 38.8355 53.0327 38.8355C53.0327 38.8355 42.8327 54.8355 41.9327 55.1355C41.0327 55.4355 40.1327 51.9356 40.1327 51.9356C38.2327 59.2355 43.3327 60.2355 43.9327 57.9356C46.7327 57.2355 51.5327 54.2355 53.4327 52.1355Z" fill="#1B314F"/>
<path d="M44.7324 56.0357L49.9324 47.1357C49.9324 47.1357 52.9324 48.6357 51.4324 51.0357C49.5324 53.8357 44.7324 56.0357 44.7324 56.0357Z" fill="#FFD923"/>
<path d="M109.032 97.2356C107.532 99.2356 105.832 101.336 103.832 103.336C116.732 78.5356 104.432 55.8356 103.932 54.9356C104.832 55.8356 105.732 56.8356 106.532 57.7356C116.432 68.7356 117.632 85.2356 109.032 97.2356Z" fill="#D82122"/>
<path d="M121.032 65.3355C116.532 53.2355 110.132 42.9355 96.032 33.6355C82.432 24.6355 67.832 25.3355 67.032 25.4355C66.932 25.4355 66.832 25.4355 66.832 25.4355C67.332 25.2355 67.832 25.1355 68.332 25.0355C71.432 24.0355 75.432 23.2355 79.432 22.7355C90.032 21.2355 100.732 24.8355 108.032 32.5355C108.132 32.6355 108.132 32.6355 108.232 32.7355C116.532 41.5355 120.832 52.5355 121.032 65.3355Z" fill="#D82122"/>
<path d="M92.832 15.8357C77.932 13.0357 68.332 14.4357 61.432 17.0357C61.232 16.2357 60.532 14.6357 59.932 13.3357C57.832 15.8357 55.632 18.8357 54.232 20.7357C50.432 23.3357 48.832 25.8357 48.832 25.8357C51.032 18.3357 57.432 12.7357 65.232 11.3358C67.432 10.9358 69.832 10.7358 72.432 10.7358C79.332 10.8358 86.232 12.5357 92.832 15.8357Z" fill="#D82122"/>
<path d="M37.7314 35.0358C26.0314 34.6358 29.9314 21.0358 30.1314 20.2358C30.1314 20.3358 30.9314 30.9358 37.7314 35.0358Z" fill="#D82122"/>
<path d="M49.2311 10.5356C40.2311 15.9356 42.0311 28.8356 42.0311 28.8356C33.4311 15.7356 48.5311 10.8356 49.2311 10.5356Z" fill="#D82122"/>
<path d="M34.4328 38.6356C35.0328 39.1356 35.6328 40.0356 34.9328 41.3356C34.5328 42.0356 33.9328 41.9356 33.0328 41.5356C31.8328 40.9356 24.6328 36.7356 18.1328 32.4356C25.5328 35.0356 33.0328 37.8356 34.2328 38.4356C34.2328 38.4356 34.3328 38.5356 34.4328 38.6356Z" fill="white"/>
</svg>
