<?xml version="1.0" encoding="UTF-8"?>
<svg xmlns="http://www.w3.org/2000/svg" width="128" height="128"
     viewBox="0 0 128 128">
  <path fill-rule="nonzero" fill="rgb(100%, 100%, 100%)" fill-opacity="1"
        d="M 31.832031 69.835938 L 35.03125 45.734375 L 7.230469 26.433594 L 32.632812 35.035156 L 38.632812 25.835938 L 60.53125 12.234375 L 108.832031 38.835938 L 111.332031 79.433594 L 89.832031 109.335938 L 72.832031 111.9375 L 81.632812 95.835938 L 81.632812 80.335938 L 75.230469 68.234375 L 68.730469 63.933594 L 58.730469 74.234375 L 58.730469 85.136719 L 50.933594 92.433594 L 41.03125 93.636719 L 36.632812 96.136719 L 29.433594 93.835938 L 26.433594 83.035156 L 31.832031 75.433594 Z M 31.832031 69.835938 " />
  <path fill-rule="nonzero" fill="rgb(58.039216%, 65.098039%, 76.470588%)" fill-opacity="1"
        d="M 76.230469 26.234375 C 70.929688 25.136719 65.132812 25.433594 65.132812 25.433594 C 65.132812 25.433594 63.230469 34.234375 51.429688 36.535156 C 51.53125 36.535156 67.03125 41.835938 76.230469 26.234375 Z M 76.230469 26.234375 " />
  <path fill-rule="nonzero" fill="rgb(58.039216%, 65.098039%, 76.470588%)" fill-opacity="1"
        d="M 81.03125 106.035156 C 87.433594 101.035156 92.230469 94.136719 94.433594 86.335938 C 94.53125 86.035156 95.433594 85.535156 96.03125 85.136719 C 97.03125 84.535156 98.03125 84.035156 98.230469 83.234375 C 98.632812 80.933594 98.832031 78.535156 98.832031 76.136719 C 98.832031 75.234375 97.933594 74.335938 97.03125 73.433594 C 96.332031 72.835938 95.632812 72.136719 95.632812 71.636719 C 94.632812 62.535156 90.433594 54.035156 83.730469 47.835938 L 83.03125 48.535156 C 89.53125 54.636719 93.730469 62.933594 94.632812 71.734375 C 94.730469 72.535156 95.53125 73.335938 96.332031 74.136719 C 97.03125 74.734375 97.832031 75.636719 97.832031 76.035156 C 97.832031 78.335938 97.632812 80.636719 97.230469 82.933594 C 97.132812 83.335938 96.230469 83.734375 95.53125 84.136719 C 94.53125 84.636719 93.632812 85.136719 93.433594 85.933594 C 91.03125 94.433594 85.53125 101.835938 78.230469 106.636719 C 79.53125 103.835938 83.632812 94.734375 85.832031 90.136719 L 85.433594 75.335938 L 72.730469 63.035156 L 65.53125 64.035156 L 57.632812 76.835938 C 57.632812 76.835938 61.332031 81.535156 56.132812 87.035156 C 51.03125 92.433594 47.03125 93.636719 47.03125 93.636719 L 43.332031 91.636719 C 44.433594 90.234375 46.632812 88.136719 48.332031 86.734375 C 51.230469 84.335938 54.132812 84.136719 54.132812 81.535156 C 54.230469 76.136719 48.433594 77.636719 48.433594 77.636719 L 46.332031 79.636719 L 45.433594 87.035156 L 41.03125 92.535156 L 40.53125 92.433594 L 33.332031 90.835938 C 33.332031 90.835938 37.730469 88.535156 38.433594 85.933594 C 39.132812 83.433594 37.03125 75.136719 36.933594 74.636719 C 37.03125 74.734375 39.03125 76.433594 39.933594 79.234375 C 41.53125 74.835938 43.632812 70.636719 44.230469 70.234375 C 44.832031 69.835938 52.933594 65.535156 52.933594 65.535156 L 50.230469 72.636719 L 52.230469 71.535156 L 57.03125 59.734375 C 57.03125 59.734375 61.730469 57.433594 65.230469 57.433594 C 71.53125 57.335938 80.832031 49.636719 76.632812 35.835938 C 77.832031 36.335938 98.632812 46.734375 102.230469 67.136719 C 104.933594 82.835938 96.03125 97.535156 81.03125 106.035156 Z M 81.03125 106.035156 " />
  <path fill-rule="nonzero" fill="rgb(10.588235%, 19.215686%, 30.980392%)" fill-opacity="1"
        d="M 57.234375 28.433594 C 59.53125 25.734375 58.632812 21.734375 58.632812 21.734375 L 51.933594 31.636719 C 51.832031 31.636719 54.332031 31.734375 57.234375 28.433594 Z M 57.234375 28.433594 " />
  <path fill-rule="nonzero" fill="rgb(10.588235%, 19.215686%, 30.980392%)" fill-opacity="1"
        d="M 34.730469 82.535156 L 35.53125 78.535156 C 35.53125 78.535156 32.230469 84.335938 31.933594 85.136719 C 31.632812 86.035156 32.132812 87.636719 33.433594 87.535156 C 34.730469 87.4375 36.332031 85.535156 36.332031 84.136719 C 36.332031 82.335938 34.730469 82.535156 34.730469 82.535156 Z M 34.730469 82.535156 " />
  <path fill-rule="nonzero" fill="rgb(10.588235%, 19.215686%, 30.980392%)" fill-opacity="1"
        d="M 94.132812 18.9375 C 94.132812 18.9375 99.132812 19.136719 104.332031 19.734375 C 92.632812 10.535156 81.53125 7.835938 72.53125 7.835938 C 60.132812 7.835938 51.730469 12.9375 51.230469 13.234375 L 55.132812 7.035156 C 55.132812 7.035156 39.53125 5.535156 34.03125 22.035156 C 32.632812 18.535156 31.332031 13.4375 31.332031 13.4375 C 31.332031 13.4375 23.230469 20.535156 27.03125 32.335938 C 17.730469 28.9375 4.433594 24.234375 3.933594 24.136719 C 3.230469 24.035156 3.03125 24.335938 3.03125 24.335938 C 3.03125 24.335938 2.832031 24.636719 3.433594 25.136719 C 4.53125 26.035156 25.53125 41.535156 30.132812 44.535156 C 29.132812 48.136719 29.132812 49.835938 30.132812 51.535156 C 31.53125 53.835938 31.632812 55.035156 31.433594 56.734375 C 31.230469 58.4375 29.433594 73.136719 29.03125 74.9375 C 28.632812 76.734375 24.433594 83.136719 24.632812 85.035156 C 24.832031 86.9375 27.433594 95.035156 29.730469 95.9375 C 31.433594 96.535156 35.632812 97.835938 38.433594 97.835938 C 39.433594 97.835938 40.332031 97.636719 40.730469 97.234375 C 42.433594 95.734375 42.933594 95.4375 44.132812 95.4375 C 44.230469 95.4375 44.332031 95.4375 44.433594 95.4375 C 44.933594 95.4375 45.53125 95.535156 46.230469 95.535156 C 47.832031 95.535156 49.933594 95.234375 51.433594 93.835938 C 53.632812 91.636719 57.433594 88.636719 58.632812 87.234375 C 60.132812 85.335938 60.933594 82.734375 60.53125 80.136719 C 60.230469 77.734375 61.53125 75.636719 63.03125 73.535156 C 64.933594 71.035156 68.433594 66.535156 68.433594 66.535156 C 75.332031 71.734375 79.632812 79.636719 79.632812 88.4375 C 79.632812 104.035156 66.03125 116.636719 49.230469 116.636719 C 46.632812 116.636719 44.132812 116.335938 41.632812 115.734375 C 49.332031 118.4375 55.832031 119.335938 61.132812 119.335938 C 72.433594 119.335938 78.433594 115.234375 78.433594 115.234375 C 78.433594 115.234375 76.332031 117.9375 72.933594 121.035156 C 73.03125 121.035156 73.03125 121.035156 73.03125 121.035156 C 91.730469 118.4375 100.832031 103.035156 100.832031 103.035156 C 100.832031 103.035156 100.132812 108.035156 99.230469 111.4375 C 124.132812 92.734375 119.933594 69.335938 119.832031 68.535156 C 120.03125 68.835938 122.53125 71.835938 123.832031 73.4375 C 127.832031 32.234375 94.132812 18.9375 94.132812 18.9375 Z M 55.832031 84.734375 C 55.433594 85.234375 53.730469 86.734375 52.53125 87.835938 C 51.332031 88.9375 50.03125 90.035156 49.03125 91.035156 C 48.632812 91.4375 47.832031 91.636719 46.632812 91.636719 C 46.230469 91.636719 45.832031 91.636719 45.53125 91.636719 C 45.332031 91.636719 45.132812 91.636719 44.933594 91.636719 C 44.730469 91.636719 44.632812 91.636719 44.53125 91.636719 C 44.230469 91.636719 43.933594 91.636719 43.632812 91.636719 C 45.132812 89.636719 49.53125 85.035156 51.03125 84.035156 C 52.832031 82.835938 53.730469 81.636719 52.632812 79.535156 C 51.53125 77.4375 48.632812 77.9375 48.632812 77.9375 C 48.632812 77.9375 50.332031 77.234375 51.832031 77.234375 C 49.933594 76.734375 47.53125 77.234375 46.433594 78.335938 C 45.230469 79.4375 45.433594 83.335938 44.933594 85.835938 C 44.433594 88.4375 42.730469 89.734375 40.132812 92.136719 C 38.730469 93.4375 37.730469 93.835938 36.933594 93.835938 C 35.230469 93.535156 33.230469 93.035156 31.832031 92.535156 C 30.832031 91.234375 29.332031 86.9375 28.933594 85.136719 C 29.230469 84.136719 30.433594 82.035156 31.03125 80.835938 C 32.230469 78.535156 32.933594 77.234375 33.132812 76.035156 C 33.53125 74.335938 34.832031 63.835938 35.332031 59.4375 C 36.632812 61.136719 38.433594 63.9375 38.03125 65.734375 C 40.933594 61.636719 38.832031 57.636719 37.832031 56.035156 C 36.933594 54.4375 35.730469 51.234375 36.730469 47.835938 C 37.730469 44.4375 41.332031 35.035156 41.332031 35.035156 C 41.332031 35.035156 42.53125 37.136719 44.230469 36.734375 C 45.933594 36.335938 59.632812 15.734375 59.632812 15.734375 C 59.632812 15.734375 63.332031 23.835938 59.433594 29.734375 C 55.433594 35.636719 51.53125 36.734375 51.53125 36.734375 C 51.53125 36.734375 57.03125 37.734375 62.132812 34.035156 C 64.230469 38.9375 66.230469 44.035156 66.332031 44.734375 C 66.03125 45.4375 62.03125 55.035156 61.632812 55.636719 C 61.433594 55.835938 60.03125 56.234375 59.03125 56.4375 C 57.332031 56.9375 56.332031 57.234375 55.933594 57.535156 C 55.230469 58.136719 52.03125 66.9375 50.53125 71.234375 C 48.730469 71.734375 46.933594 72.734375 45.632812 74.734375 C 46.332031 74.234375 48.53125 73.9375 50.132812 73.734375 C 51.53125 73.636719 55.832031 75.9375 56.933594 80.234375 C 56.933594 80.335938 56.933594 80.335938 56.933594 80.4375 C 57.132812 82.035156 56.632812 83.535156 55.832031 84.734375 Z M 46.433594 85.9375 C 47.332031 84.636719 47.230469 82.4375 47.332031 81.734375 C 47.433594 81.035156 47.632812 79.734375 48.433594 79.535156 C 49.230469 79.335938 51.132812 79.636719 51.132812 81.035156 C 51.132812 82.335938 49.730469 82.636719 48.730469 83.535156 C 48.03125 84.234375 46.632812 85.734375 46.433594 85.9375 Z M 86.332031 66.835938 C 87.332031 61.734375 87.433594 57.335938 87.132812 53.734375 C 91.03125 58.9375 93.433594 65.234375 94.132812 71.734375 C 94.230469 72.535156 95.03125 73.335938 95.832031 74.136719 C 96.53125 74.734375 97.332031 75.535156 97.332031 76.035156 C 97.332031 78.335938 97.132812 80.636719 96.730469 82.9375 C 96.632812 83.234375 95.730469 83.734375 95.03125 84.136719 C 94.03125 84.636719 93.132812 85.136719 92.933594 85.9375 C 90.730469 93.636719 86.03125 100.4375 79.730469 105.234375 C 89.03125 95.535156 93.53125 79.535156 86.332031 66.835938 Z M 80.03125 106.136719 C 86.53125 101.136719 91.53125 94.136719 93.730469 86.234375 C 93.832031 85.9375 94.730469 85.4375 95.332031 85.035156 C 96.332031 84.535156 97.332031 83.9375 97.53125 83.136719 C 97.933594 80.835938 98.132812 78.4375 98.132812 76.035156 C 98.132812 75.136719 97.230469 74.234375 96.332031 73.335938 C 95.832031 72.734375 95.03125 72.035156 95.03125 71.535156 C 94.230469 64.234375 91.332031 57.335938 86.832031 51.636719 C 84.832031 39.636719 76.832031 35.9375 76.632812 35.835938 C 76.832031 36.136719 82.03125 43.636719 78.433594 52.4375 C 74.730469 61.335938 65.230469 59.9375 64.433594 60.035156 C 63.632812 60.035156 60.53125 64.035156 56.632812 71.4375 C 56.132812 71.234375 54.03125 70.734375 51.632812 71.136719 C 53.433594 66.136719 56.132812 59.035156 56.632812 58.4375 C 56.832031 58.234375 58.332031 57.835938 59.332031 57.535156 C 61.230469 57.035156 62.132812 56.734375 62.433594 56.335938 C 62.632812 56.035156 63.632812 53.734375 64.632812 51.335938 C 65.53125 51.335938 67.832031 51.136719 68.03125 51.035156 C 68.230469 50.835938 70.132812 45.9375 70.132812 45.335938 C 70.132812 44.835938 66.230469 35.136719 64.730469 31.4375 C 65.433594 30.636719 66.132812 29.636719 66.832031 28.535156 C 87.332031 30.734375 103.332031 48.136719 103.332031 69.234375 C 103.332031 85.4375 93.832031 99.535156 80.03125 106.136719 Z M 80.03125 106.136719 " />
  <path fill-rule="nonzero" fill="rgb(10.588235%, 19.215686%, 30.980392%)" fill-opacity="1"
        d="M 53.433594 52.136719 C 55.332031 49.933594 54.332031 45.835938 50.832031 45.136719 C 51.734375 43.035156 53.03125 38.835938 53.03125 38.835938 C 53.03125 38.835938 42.832031 54.835938 41.933594 55.136719 C 41.03125 55.433594 40.132812 51.9375 40.132812 51.9375 C 38.234375 59.234375 43.332031 60.234375 43.933594 57.9375 C 46.734375 57.234375 51.53125 54.234375 53.433594 52.136719 Z M 53.433594 52.136719 " />
  <path fill-rule="nonzero" fill="rgb(100%, 85.098039%, 13.72549%)" fill-opacity="1"
        d="M 44.730469 56.035156 L 49.933594 47.136719 C 49.933594 47.136719 52.933594 48.636719 51.433594 51.035156 C 49.53125 53.835938 44.730469 56.035156 44.730469 56.035156 Z M 44.730469 56.035156 " />
  <path fill-rule="nonzero" fill="rgb(84.705882%, 12.941176%, 13.333333%)" fill-opacity="1"
        d="M 109.03125 97.234375 C 107.53125 99.234375 105.832031 101.335938 103.832031 103.335938 C 116.730469 78.535156 104.433594 55.835938 103.933594 54.9375 C 104.832031 55.835938 105.730469 56.835938 106.53125 57.734375 C 116.433594 68.734375 117.632812 85.234375 109.03125 97.234375 Z M 109.03125 97.234375 " />
  <path fill-rule="nonzero" fill="rgb(84.705882%, 12.941176%, 13.333333%)" fill-opacity="1"
        d="M 121.03125 65.335938 C 116.53125 53.234375 110.132812 42.933594 96.03125 33.636719 C 82.433594 24.636719 67.832031 25.335938 67.03125 25.433594 C 66.933594 25.433594 66.832031 25.433594 66.832031 25.433594 C 67.332031 25.234375 67.832031 25.136719 68.332031 25.035156 C 71.433594 24.035156 75.433594 23.234375 79.433594 22.734375 C 90.03125 21.234375 100.730469 24.835938 108.03125 32.535156 C 108.132812 32.636719 108.132812 32.636719 108.230469 32.734375 C 116.53125 41.535156 120.832031 52.535156 121.03125 65.335938 Z M 121.03125 65.335938 " />
  <path fill-rule="nonzero" fill="rgb(84.705882%, 12.941176%, 13.333333%)" fill-opacity="1"
        d="M 92.832031 15.835938 C 77.933594 13.035156 68.332031 14.4375 61.433594 17.035156 C 61.230469 16.234375 60.53125 14.636719 59.933594 13.335938 C 57.832031 15.835938 55.632812 18.835938 54.230469 20.734375 C 50.433594 23.335938 48.832031 25.835938 48.832031 25.835938 C 51.03125 18.335938 57.433594 12.734375 65.230469 11.335938 C 67.433594 10.9375 69.832031 10.734375 72.433594 10.734375 C 79.332031 10.835938 86.230469 12.535156 92.832031 15.835938 Z M 92.832031 15.835938 " />
  <path fill-rule="nonzero" fill="rgb(84.705882%, 12.941176%, 13.333333%)" fill-opacity="1"
        d="M 37.730469 35.035156 C 26.03125 34.636719 29.929688 21.035156 30.132812 20.234375 C 30.132812 20.335938 30.929688 30.9375 37.730469 35.035156 Z M 37.730469 35.035156 " />
  <path fill-rule="nonzero" fill="rgb(84.705882%, 12.941176%, 13.333333%)" fill-opacity="1"
        d="M 49.230469 10.535156 C 40.230469 15.9375 42.03125 28.835938 42.03125 28.835938 C 33.429688 15.734375 48.53125 10.835938 49.230469 10.535156 Z M 49.230469 10.535156 " />
  <path fill-rule="nonzero" fill="rgb(100%, 100%, 100%)" fill-opacity="1"
        d="M 34.433594 38.636719 C 35.03125 39.136719 35.632812 40.035156 34.933594 41.335938 C 34.53125 42.035156 33.933594 41.9375 33.03125 41.535156 C 31.832031 40.9375 24.632812 36.734375 18.132812 32.4375 C 25.53125 35.035156 33.03125 37.835938 34.234375 38.4375 C 34.234375 38.4375 34.332031 38.535156 34.433594 38.636719 Z M 34.433594 38.636719 " />
</svg>
