<?xml version="1.0" encoding="UTF-8"?>
<svg xmlns:xlink="http://www.w3.org/1999/xlink" xmlns="http://www.w3.org/2000/svg" width="128" height="128"
     viewBox="0 0 128 128">
  <defs>
    <filter id="filter-remove-color" x="0%" y="0%" width="100%" height="100%">
      <feColorMatrix color-interpolation-filters="sRGB" values="0 0 0 0 1 0 0 0 0 1 0 0 0 0 1 0 0 0 1 0" />
    </filter>
    <clipPath id="clip-0">
      <path clip-rule="nonzero" d="M 0 0 L 153.601562 0 L 153.601562 153.601562 L 0 153.601562 Z M 0 0 " />
    </clipPath>
    <clipPath id="clip-1">
      <path clip-rule="nonzero" d="M 0 0 L 128 0 L 128 128 L 0 128 Z M 0 0 " />
    </clipPath>
    <clipPath id="clip-2">
      <rect x="0" y="0" width="154" height="154" />
    </clipPath>
    <g id="source-327" clip-path="url(#clip-2)">
      <g clip-path="url(#clip-1)">
        <rect x="-46.592" y="-46.592" width="221.184" height="221.184" fill="rgb(100%, 100%, 100%)" fill-opacity="1" />
      </g>
    </g>
    <clipPath id="clip-3">
      <rect x="0" y="0" width="154" height="154" />
    </clipPath>
    <g id="source-330" clip-path="url(#clip-3)">
      <g clip-path="url(#clip-0)">
        <use xlink:href="#source-327" />
      </g>
    </g>
    <mask id="mask-0">
      <g filter="url(#filter-remove-color)">
        <use xlink:href="#source-330" />
      </g>
    </mask>
    <clipPath id="clip-4">
      <rect x="0" y="0" width="128" height="128" />
    </clipPath>
    <g id="source-329" clip-path="url(#clip-4)">
      <path fill-rule="nonzero" fill="rgb(100%, 100%, 100%)" fill-opacity="1"
            d="M 64 128 C 99.347656 128 128 99.347656 128 64 C 128 28.652344 99.347656 0 64 0 C 28.652344 0 0 28.652344 0 64 C 0 99.347656 28.652344 128 64 128 Z M 64 128 " />
      <path fill-rule="evenodd" fill="rgb(0%, 32.156863%, 100%)" fill-opacity="1"
            d="M 64 121.855469 C 95.953125 121.855469 121.855469 95.953125 121.855469 64 C 121.855469 32.046875 95.953125 6.144531 64 6.144531 C 32.046875 6.144531 6.144531 32.046875 6.144531 64 C 6.144531 95.953125 32.046875 121.855469 64 121.855469 Z M 128 64 C 128 99.347656 99.347656 128 64 128 C 28.652344 128 0 99.347656 0 64 C 0 28.652344 28.652344 0 64 0 C 99.347656 0 128 28.652344 128 64 Z M 128 64 " />
      <path fill-rule="nonzero" fill="rgb(0%, 32.156863%, 100%)" fill-opacity="1"
            d="M 86.023438 57.183594 C 87.171875 50.304688 81.992188 46.523438 74.867188 43.871094 L 77.34375 34.636719 L 71.695312 33.125 L 69.269531 42.183594 C 67.785156 41.785156 66.269531 41.378906 64.738281 41.03125 L 67.175781 31.929688 L 61.558594 30.421875 L 59.070312 39.71875 C 57.847656 39.390625 56.640625 39.066406 55.464844 38.75 L 47.613281 36.648438 L 45.992188 42.691406 C 45.992188 42.691406 50.1875 43.738281 50.097656 43.792969 C 51.703125 44.03125 52.832031 45.519531 52.636719 47.136719 L 45.820312 72.578125 C 45.648438 73.101562 45.265625 73.53125 44.773438 73.78125 C 44.28125 74.027344 43.703125 74.0625 43.1875 73.875 C 43.242188 73.953125 39.082031 72.773438 39.082031 72.773438 L 36.15625 79.226562 L 47.570312 82.285156 L 45.039062 91.726562 L 50.6875 93.238281 L 53.175781 83.945312 C 54.675781 84.347656 56.191406 84.753906 57.691406 85.152344 L 55.214844 94.40625 L 60.875 95.921875 L 63.378906 86.582031 C 73.074219 88.566406 80.367188 88 83.585938 79.277344 C 86.191406 72.269531 83.667969 68.15625 78.601562 65.410156 C 82.351562 64.601562 85.210938 62.21875 86.023438 57.183594 Z M 72.730469 75.15625 C 70.847656 82.167969 59.03125 78.152344 55.207031 77.128906 L 58.546875 64.671875 C 62.367188 65.710938 74.691406 67.832031 72.730469 75.15625 Z M 74.816406 56.894531 C 73.09375 63.320312 63.261719 59.835938 60.085938 58.984375 L 63.117188 47.675781 C 66.289062 48.539062 76.605469 50.214844 74.816406 56.894531 Z M 74.816406 56.894531 " />
    </g>
  </defs>
  <g mask="url(#mask-0)">
    <use xlink:href="#source-329" />
  </g>
</svg>
