<svg width="128" height="128" viewBox="0 0 128 128" fill="none" xmlns="http://www.w3.org/2000/svg">
  <g clip-path="url(#clip0_589_10)">
    <mask id="mask0_589_10" style="mask-type:luminance" maskUnits="userSpaceOnUse" x="0" y="0" width="128" height="128">
      <path d="M128 0H0V128H128V0Z" fill="white" />
    </mask>
    <g mask="url(#mask0_589_10)">
      <path d="M64 128C99.3462 128 128 99.3462 128 64C128 28.6538 99.3462 0 64 0C28.6538 0 0 28.6538 0 64C0 99.3462 28.6538 128 64 128Z"
            fill="white" />
      <path fill-rule="evenodd" clip-rule="evenodd"
            d="M64 121.856C95.9529 121.856 121.856 95.9529 121.856 64C121.856 32.0471 95.9529 6.144 64 6.144C32.0471 6.144 6.144 32.0471 6.144 64C6.144 95.9529 32.0471 121.856 64 121.856ZM128 64C128 99.3462 99.3462 128 64 128C28.6538 128 0 99.3462 0 64C0 28.6538 28.6538 0 64 0C99.3462 0 128 28.6538 128 64Z"
            fill="#0052FF" />
      <path d="M86.0238 57.1854C87.1735 50.3059 81.9928 46.5217 74.8688 43.8721L77.3436 34.6364L71.6962 33.1232L69.2688 42.1822C67.7835 41.7844 66.2688 41.3784 64.7381 41.0315L67.1773 31.9279L61.5594 30.4226L59.069 39.7172C57.8484 39.3903 56.6424 39.067 55.4658 38.7518L47.6125 36.6475L45.9931 42.6919C45.9931 42.6919 50.1894 43.7374 50.096 43.7914C51.7024 44.0326 52.8334 45.5179 52.6362 47.1358L45.819 72.5784C45.6477 73.0999 45.2637 73.5328 44.7719 73.7795C44.2804 74.0261 43.7036 74.0606 43.186 73.8748C43.2436 73.9531 39.0828 72.7753 39.0828 72.7753L36.1562 79.2259L47.5687 82.2839L45.0387 91.7257L50.686 93.2389L53.1767 83.9443C54.6768 84.3462 56.1916 84.752 57.6915 85.1541L55.2129 94.4044L60.8748 95.9217L63.3772 86.5829C73.0755 88.5669 80.3682 87.9988 83.5877 79.2779C86.1909 72.2676 83.6675 68.1552 78.6023 65.4109C82.3499 64.6025 85.2115 62.2168 86.0238 57.1854ZM72.7287 75.1545C70.8491 82.1697 59.0319 78.152 55.208 77.1275L58.5458 64.6711C62.3655 65.7102 74.6912 67.8306 72.7287 75.1545ZM74.8161 56.8935C73.094 63.3201 63.262 59.8347 60.0856 58.9835L63.1159 47.6742C66.2885 48.54 76.605 50.2165 74.8161 56.8935Z"
            fill="#0052FF" />
    </g>
  </g>
  <defs>
    <clipPath id="clip0_589_10">
      <rect width="128" height="128" fill="white" />
    </clipPath>
  </defs>
</svg>
