<?xml version="1.0" encoding="UTF-8"?>
<svg xmlns="http://www.w3.org/2000/svg" width="128" height="128"
     viewBox="0 0 128 128">
  <path fill-rule="nonzero" fill="rgb(66.666667%, 66.666667%, 66.666667%)" fill-opacity="1"
        d="M 128 64 C 128 99.347656 99.347656 128 64 128 C 28.652344 128 0 99.347656 0 64 C 0 28.652344 28.652344 0 64 0 C 99.347656 0 128 28.652344 128 64 " />
  <path fill-rule="evenodd" fill="rgb(100%, 100%, 100%)" fill-opacity="1"
        d="M 79.894531 48.539062 C 79.910156 39.152344 71.023438 32.382812 62.0625 34.839844 L 35.734375 42.050781 L 46.714844 60.089844 L 74.480469 52.488281 C 74.480469 52.484375 74.480469 52.488281 74.480469 52.488281 C 76.171875 52.023438 77.859375 51.800781 79.511719 51.796875 C 79.761719 50.746094 79.890625 49.65625 79.894531 48.539062 Z M 84.511719 52.453125 C 84.773438 51.1875 84.914062 49.878906 84.917969 48.546875 C 84.9375 35.917969 72.945312 26.675781 60.726562 30.023438 L 28 38.988281 L 44.386719 65.910156 L 75.8125 57.300781 C 76.234375 57.183594 76.65625 57.089844 77.078125 57.015625 C 75.246094 59.472656 72.621094 61.332031 69.519531 62.191406 L 34.898438 71.75 L 51.28125 98.667969 L 84.613281 89.464844 C 92.925781 87.167969 98.667969 79.59375 98.667969 70.980469 C 98.667969 61.929688 92.5 54.625 84.511719 52.453125 Z M 82.847656 57.191406 C 80.46875 61.886719 76.195312 65.53125 70.863281 67 L 42.625 74.796875 L 53.605469 92.84375 L 83.269531 84.652344 C 89.386719 82.960938 93.644531 77.375 93.644531 70.980469 C 93.644531 64.121094 88.898438 58.667969 82.847656 57.191406 Z M 82.847656 57.191406 " />
</svg>
