<svg width="128" height="128" viewBox="0 0 128 128" fill="none" xmlns="http://www.w3.org/2000/svg">
  <g clip-path="url(#clip0_184_2506)">
    <path d="M11.5713 38.912V89.088C11.5713 92.3136 13.2609 95.232 16.0769 96.8704L59.5457 121.958C62.3105 123.546 65.7409 123.546 68.5057 121.958L111.974 96.8704C114.739 95.2832 116.48 92.3136 116.48 89.088V38.912C116.48 35.6864 114.79 32.768 111.974 31.1296L68.5057 6.0416C65.7409 4.4544 62.3105 4.4544 59.5457 6.0416L16.0769 31.1296C13.3121 32.7168 11.6225 35.6864 11.6225 38.912H11.5713Z"
          fill="#213147" />
    <path d="M73.4725 73.728L67.2773 90.7264C67.1237 91.1872 67.1237 91.6992 67.2773 92.2112L77.9269 121.446L90.2661 114.33L75.4693 73.728C75.1109 72.8064 73.8309 72.8064 73.4725 73.728Z"
          fill="#12AAFF" />
    <path d="M85.9136 45.1584C85.5552 44.2368 84.2752 44.2368 83.9168 45.1584L77.7216 62.1568C77.568 62.6176 77.568 63.1296 77.7216 63.6416L95.1808 111.514L107.52 104.397L85.9136 45.2096V45.1584Z"
          fill="#12AAFF" />
    <path d="M64.0001 7.936C64.3073 7.936 64.6145 8.0384 64.8705 8.192L111.872 35.328C112.435 35.6352 112.743 36.2496 112.743 36.864V91.136C112.743 91.7504 112.384 92.3648 111.872 92.672L64.8705 119.808C64.6145 119.962 64.3073 120.064 64.0001 120.064C63.6929 120.064 63.3857 119.962 63.1297 119.808L16.1281 92.672C15.5649 92.3648 15.2577 91.7504 15.2577 91.136V36.8128C15.2577 36.1984 15.6161 35.584 16.1281 35.2768L63.1297 8.1408C63.3857 7.9872 63.6929 7.8848 64.0001 7.8848V7.936ZM64.0001 0C62.3105 0 60.6721 0.4096 59.1361 1.28L12.1345 28.416C9.11371 30.1568 7.27051 33.3312 7.27051 36.8128V91.0848C7.27051 94.5664 9.11371 97.7408 12.1345 99.4816L59.1361 126.618C60.6209 127.488 62.3105 127.898 64.0001 127.898C65.6897 127.898 67.3281 127.488 68.8641 126.618L115.866 99.4816C118.887 97.7408 120.73 94.5664 120.73 91.0848V36.8128C120.73 33.3312 118.887 30.1568 115.866 28.416L68.8129 1.28C67.3281 0.4096 65.6385 0 63.9489 0H64.0001Z"
          fill="#9DCCED" />
    <path d="M32.8701 111.565L37.2221 99.6864L45.9261 106.906L37.7853 114.381L32.8701 111.565Z" fill="#213147" />
    <path d="M60.0065 32.9728H48.0769C47.2065 32.9728 46.3873 33.536 46.0801 34.3552L20.5312 104.397L32.8705 111.514L61.0305 34.3552C61.2865 33.6384 60.7745 32.9216 60.0577 32.9216L60.0065 32.9728Z"
          fill="white" />
    <path d="M80.8965 32.9728H68.9669C68.0965 32.9728 67.2773 33.536 66.9701 34.3552L37.7861 114.33L50.1253 121.446L81.8693 34.3552C82.1253 33.6384 81.6133 32.9216 80.8965 32.9216V32.9728Z"
          fill="white" />
  </g>
  <defs>
    <clipPath id="clip0_184_2506">
      <rect width="128" height="128" fill="white" />
    </clipPath>
  </defs>
</svg>
