<?xml version="1.0" encoding="UTF-8"?>
<svg xmlns="http://www.w3.org/2000/svg" width="128" height="128"
     viewBox="0 0 128 128">
  <path fill-rule="nonzero" fill="rgb(94.901961%, 94.901961%, 94.901961%)" fill-opacity="1"
        d="M 35.421875 96.335938 C 48.558594 98.691406 60.480469 105.605469 73.726562 107.410156 C 84.183594 108.839844 95.117188 105.484375 104.128906 100.324219 C 108.671875 97.722656 112.8125 94.53125 116.433594 90.761719 C 119.4375 87.648438 122.070312 83.660156 125.675781 81.101562 C 127.183594 75.652344 127.984375 69.921875 127.984375 63.992188 C 128 28.644531 99.355469 0 64.007812 0 C 28.660156 0 0 28.644531 0 64.007812 C 0 77.007812 3.882812 89.097656 10.535156 99.199219 C 17.695312 95.148438 28.832031 95.164062 35.421875 96.351562 Z M 35.421875 96.335938 " />
  <path fill-rule="evenodd" fill="rgb(100%, 27.843139%, 29.803923%)" fill-opacity="1"
        d="M 62.867188 32.945312 C 70.832031 30.757812 78.730469 36.796875 78.714844 45.1875 C 78.714844 46.191406 78.59375 47.160156 78.378906 48.097656 C 76.914062 48.097656 75.40625 48.300781 73.910156 48.714844 L 49.238281 55.507812 L 39.472656 39.382812 L 62.867188 32.929688 Z M 83.183594 45.1875 C 83.183594 46.375 83.058594 47.546875 82.828125 48.683594 C 89.929688 50.625 95.410156 57.15625 95.410156 65.242188 C 95.410156 73.328125 90.3125 79.703125 82.921875 81.765625 L 53.304688 89.992188 L 38.75 65.933594 L 69.519531 57.386719 C 72.277344 56.617188 74.605469 54.953125 76.234375 52.765625 C 75.867188 52.828125 75.480469 52.921875 75.113281 53.027344 L 47.1875 60.730469 L 32.636719 36.671875 L 61.710938 28.664062 C 72.570312 25.675781 83.230469 33.929688 83.210938 45.21875 Z M 70.691406 61.683594 C 75.433594 60.375 79.222656 57.109375 81.347656 52.921875 C 86.726562 54.246094 90.945312 59.113281 90.945312 65.242188 C 90.945312 70.957031 87.15625 75.945312 81.71875 77.453125 L 55.351562 84.769531 L 45.585938 68.644531 L 70.675781 61.683594 Z M 70.691406 61.683594 " />
  <path fill-rule="nonzero" fill="rgb(100%, 27.843139%, 29.803923%)" fill-opacity="1"
        d="M 42.046875 106.46875 C 54.503906 111.242188 64.933594 120.253906 77.605469 124.503906 C 78.902344 124.933594 80.226562 125.289062 81.550781 125.582031 C 102.925781 119.496094 119.746094 102.570312 125.691406 81.117188 C 122.085938 83.671875 119.453125 87.664062 116.449219 90.773438 C 112.8125 94.546875 108.6875 97.734375 104.144531 100.335938 C 95.132812 105.496094 84.199219 108.855469 73.742188 107.421875 C 60.496094 105.605469 48.574219 98.707031 35.4375 96.347656 C 28.847656 95.164062 17.710938 95.148438 10.550781 99.199219 C 11.964844 101.355469 13.523438 103.417969 15.1875 105.390625 C 22.992188 101.632812 35.269531 103.878906 42.046875 106.46875 Z M 42.046875 106.46875 " />
  <path fill-rule="nonzero" fill="rgb(94.901961%, 94.901961%, 94.901961%)" fill-opacity="1"
        d="M 42.046875 106.46875 C 35.269531 103.882812 22.992188 101.632812 15.183594 105.390625 C 26.921875 119.222656 44.433594 128.015625 64.007812 128.015625 C 70.089844 128.015625 75.972656 127.167969 81.550781 125.582031 C 80.210938 125.289062 78.902344 124.953125 77.605469 124.503906 C 64.933594 120.253906 54.503906 111.242188 42.046875 106.46875 Z M 42.046875 106.46875 " />
</svg>
