<svg width="128" height="128" viewBox="0 0 128 128" fill="none" xmlns="http://www.w3.org/2000/svg">
  <path d="M0 26.95L64 63.245V87.96L20.87 63.245V114.93L0 103.17V26.95Z" fill="#2A91FA" />
  <path d="M21.05 14L0 26.95L64 63.245L85.03 51.305L21.05 14Z" fill="#2B6CEF" />
  <path d="M85.03 51.305V75.13L64 87.96V63.245L85.03 51.305Z" fill="#2ABDF9" />
  <path d="M20.8701 114.93L42.0201 103.285V75.65L20.8701 63.245V114.93Z" fill="#2ABDF9" />
  <path d="M85.03 26.415V101.86L106.655 114.93V39.01L85.03 26.415Z" fill="#2A91FA" />
  <path d="M106.655 14L85.03 26.415L106.655 39.01L128 26.505L106.655 14Z" fill="#2B6CEF" />
  <path d="M106.655 114.93L128 101.92V26.505L106.655 39.01V114.93Z" fill="#2ABDF9" />
</svg>
