<svg width="128" height="128" viewBox="0 0 128 128" fill="none" xmlns="http://www.w3.org/2000/svg">
  <g clip-path="url(#clip0_376_49)">
    <path d="M126.086 79.482C117.537 113.768 82.8055 134.632 48.5116 126.084C14.2338 117.536 -6.6346 82.808 1.91637 48.524C10.4613 14.234 45.1912 -6.63403 79.4751 1.91397C113.767 10.462 134.635 45.194 126.086 79.482Z"
          fill="#FF474C" />
    <path d="M11.6174 50.9433L11.6175 50.9429C18.8272 22.0113 48.1303 4.40415 77.0569 11.6164L77.057 11.6164C105.991 18.8287 123.598 48.1335 116.385 77.0636C109.172 105.992 79.8674 123.596 50.9316 116.383C22.0101 109.171 4.40262 79.8698 11.6174 50.9433Z"
          stroke="#F8F8F8" stroke-width="4" />
    <path d="M92.2126 54.882C93.4846 46.366 87.0006 41.788 78.1346 38.734L81.0106 27.198L73.9866 25.448L71.1866 36.68C69.3426 36.22 67.4466 35.786 65.5626 35.356L68.3826 24.05L61.3646 22.3L58.4866 33.832C56.9586 33.484 55.4586 33.14 54.0026 32.778L54.0106 32.742L44.3266 30.324L42.4586 37.824C42.4586 37.824 47.6686 39.018 47.5586 39.092C50.4026 39.802 50.9186 41.684 50.8306 43.176L47.5546 56.318C47.7506 56.368 48.0046 56.44 48.2846 56.552L47.5446 56.368L42.9506 74.778C42.6026 75.642 41.7206 76.938 39.7326 76.446C39.8026 76.548 34.6286 75.172 34.6286 75.172L31.1426 83.212L40.2826 85.49C41.9826 85.916 43.6486 86.362 45.2866 86.782L42.3806 98.452L49.3946 100.202L52.2746 88.658C54.1886 89.178 56.0486 89.658 57.8686 90.11L55.0006 101.6L62.0226 103.35L64.9286 91.704C76.9026 93.97 85.9086 93.056 89.6946 82.228C92.7486 73.508 89.5446 68.478 83.2446 65.196C87.8326 64.134 91.2906 61.116 92.2126 54.882ZM76.1666 77.38C73.9946 86.1 59.3146 81.388 54.5526 80.204L58.4086 64.746C63.1686 65.934 78.4286 68.286 76.1666 77.38ZM78.3366 54.756C76.3566 62.688 64.1366 58.658 60.1706 57.67L63.6666 43.65C67.6326 44.638 80.4006 46.482 78.3366 54.756Z"
          fill="#F8F8F8" />
  </g>
  <defs>
    <clipPath id="clip0_376_49">
      <rect width="128" height="128" fill="white" />
    </clipPath>
  </defs>
</svg>
