<?xml version="1.0" encoding="UTF-8"?>
<svg xmlns="http://www.w3.org/2000/svg" width="128" height="128"
     viewBox="0 0 128 128">
  <path fill-rule="nonzero" fill="rgb(100%, 27.843137%, 29.803922%)" fill-opacity="1"
        d="M 126.085938 79.480469 C 117.535156 113.769531 82.804688 134.632812 48.511719 126.085938 C 14.234375 117.535156 -6.632812 82.808594 1.917969 48.523438 C 10.460938 14.234375 45.191406 -6.632812 79.476562 1.914062 C 113.765625 10.460938 134.636719 45.195312 126.085938 79.480469 Z M 126.085938 79.480469 " />
  <path fill="none" stroke-width="4" stroke-linecap="butt" stroke-linejoin="miter"
        stroke="rgb(97.254902%, 97.254902%, 97.254902%)" stroke-opacity="1" stroke-miterlimit="4"
        d="M 11.617188 50.941406 C 18.828125 22.011719 48.128906 4.402344 77.058594 11.617188 C 105.992188 18.828125 123.597656 48.132812 116.386719 77.0625 C 109.171875 105.992188 79.867188 123.597656 50.929688 116.382812 C 22.011719 109.171875 4.402344 79.871094 11.617188 50.941406 Z M 11.617188 50.941406 " />
  <path fill-rule="nonzero" fill="rgb(97.254902%, 97.254902%, 97.254902%)" fill-opacity="1"
        d="M 92.210938 54.882812 C 93.484375 46.367188 87 41.789062 78.132812 38.734375 L 81.011719 27.199219 L 73.988281 25.449219 L 71.1875 36.679688 C 69.34375 36.21875 67.445312 35.785156 65.5625 35.355469 L 68.382812 24.050781 L 61.363281 22.300781 L 58.488281 33.832031 C 56.957031 33.484375 55.457031 33.140625 54.003906 32.777344 L 54.011719 32.742188 L 44.328125 30.324219 L 42.457031 37.824219 C 42.457031 37.824219 47.667969 39.019531 47.558594 39.09375 C 50.402344 39.800781 50.917969 41.683594 50.832031 43.175781 L 47.554688 56.316406 C 47.75 56.367188 48.003906 56.441406 48.285156 56.550781 L 47.542969 56.367188 L 42.949219 74.777344 C 42.601562 75.640625 41.71875 76.9375 39.734375 76.445312 C 39.800781 76.546875 34.628906 75.171875 34.628906 75.171875 L 31.144531 83.210938 L 40.28125 85.488281 C 41.984375 85.914062 43.648438 86.363281 45.285156 86.78125 L 42.378906 98.453125 L 49.394531 100.203125 L 52.273438 88.65625 C 54.1875 89.179688 56.046875 89.65625 57.867188 90.109375 L 55 101.601562 L 62.023438 103.351562 L 64.929688 91.703125 C 76.902344 93.96875 85.910156 93.054688 89.695312 82.226562 C 92.75 73.507812 89.542969 68.476562 83.246094 65.195312 C 87.832031 64.132812 91.289062 61.117188 92.210938 54.882812 Z M 76.167969 77.378906 C 73.996094 86.101562 59.316406 81.386719 54.550781 80.203125 L 58.410156 64.746094 C 63.167969 65.933594 78.429688 68.285156 76.167969 77.378906 Z M 78.335938 54.757812 C 76.355469 62.6875 64.136719 58.65625 60.171875 57.671875 L 63.667969 43.648438 C 67.632812 44.636719 80.402344 46.480469 78.335938 54.757812 Z M 78.335938 54.757812 " />
</svg>
