<?xml version="1.0" encoding="UTF-8"?>
<svg xmlns:xlink="http://www.w3.org/1999/xlink" xmlns="http://www.w3.org/2000/svg" width="128" height="128"
     viewBox="0 0 128 128">
  <defs>
    <filter id="filter-remove-color" x="0%" y="0%" width="100%" height="100%">
      <feColorMatrix color-interpolation-filters="sRGB" values="0 0 0 0 1 0 0 0 0 1 0 0 0 0 1 0 0 0 1 0" />
    </filter>
    <clipPath id="clip-0">
      <path clip-rule="nonzero" d="M 0 0 L 153.601562 0 L 153.601562 153.601562 L 0 153.601562 Z M 0 0 " />
    </clipPath>
    <clipPath id="clip-1">
      <path clip-rule="nonzero" d="M 0 0 L 128 0 L 128 128 L 0 128 Z M 0 0 " />
    </clipPath>
    <clipPath id="clip-2">
      <rect x="0" y="0" width="154" height="154" />
    </clipPath>
    <g id="source-1157" clip-path="url(#clip-2)">
      <g clip-path="url(#clip-1)">
        <rect x="-46.592" y="-46.592" width="221.184" height="221.184" fill="rgb(100%, 100%, 100%)" fill-opacity="1" />
      </g>
    </g>
    <clipPath id="clip-3">
      <rect x="0" y="0" width="154" height="154" />
    </clipPath>
    <g id="source-1160" clip-path="url(#clip-3)">
      <g clip-path="url(#clip-0)">
        <use xlink:href="#source-1157" />
      </g>
    </g>
    <mask id="mask-0">
      <g filter="url(#filter-remove-color)">
        <use xlink:href="#source-1160" />
      </g>
    </mask>
    <clipPath id="clip-4">
      <path clip-rule="nonzero" d="M 56 1 L 128 1 L 128 128 L 56 128 Z M 56 1 " />
    </clipPath>
    <clipPath id="clip-5">
      <path clip-rule="nonzero" d="M 33 0 L 95 0 L 95 128 L 33 128 Z M 33 0 " />
    </clipPath>
    <clipPath id="clip-6">
      <rect x="0" y="0" width="128" height="128" />
    </clipPath>
    <g id="source-1159" clip-path="url(#clip-6)">
      <g clip-path="url(#clip-4)">
        <path fill-rule="nonzero" fill="rgb(45.490196%, 36.470588%, 87.45098%)" fill-opacity="1"
              d="M 125.441406 82.328125 C 118.679688 105.625 99.277344 123.136719 75.417969 127.4375 L 75.417969 109.210938 C 79.71875 107.570312 83.609375 104.960938 86.785156 101.582031 C 88.523438 99.6875 90.0625 97.585938 91.238281 95.335938 C 93.492188 91.035156 94.71875 86.273438 94.71875 81.40625 C 94.71875 81.355469 94.71875 81.304688 94.71875 81.253906 C 94.71875 65.175781 83.097656 58.726562 72.191406 53.964844 L 66.664062 51.507812 C 60.773438 48.84375 56.269531 46.488281 56.269531 42.496094 C 56.269531 36.914062 61.132812 33.945312 65.6875 33.945312 C 70.554688 33.945312 73.316406 35.738281 76.238281 40.804688 L 78.488281 44.75 L 93.082031 35.378906 L 91.1875 31.847656 C 87.859375 25.496094 82.175781 20.582031 75.417969 18.226562 L 75.417969 1.535156 C 76.851562 1.792969 78.234375 2.097656 79.667969 2.457031 C 79.820312 2.507812 79.972656 2.507812 80.128906 2.558594 C 80.28125 2.613281 80.433594 2.613281 80.589844 2.664062 C 80.640625 2.664062 80.691406 2.664062 80.742188 2.714844 C 81.101562 2.816406 81.511719 2.917969 81.917969 3.019531 C 109.261719 10.957031 128.050781 35.992188 128.050781 64.460938 C 128.050781 70.503906 127.179688 76.542969 125.492188 82.328125 Z M 125.441406 82.328125 " />
      </g>
      <path fill-rule="nonzero" fill="rgb(18.039216%, 71.372549%, 91.764706%)" fill-opacity="1"
            d="M 76.800781 82.125 C 76.800781 89.445312 70.195312 94.003906 64.050781 94.003906 C 56.679688 94.003906 52.480469 87.910156 51.660156 82.277344 L 50.945312 77.363281 L 33.28125 82.328125 L 34.097656 86.273438 C 36.609375 98.714844 45.105469 107.675781 56.679688 110.335938 L 56.679688 127.949219 C 53.554688 127.589844 50.433594 126.976562 47.410156 126.15625 C 47 126.054688 46.539062 125.953125 46.132812 125.796875 C 18.839844 117.863281 0 92.824219 0 64.359375 L 0 2.867188 C 0 1.484375 1.125 0.359375 2.507812 0.359375 L 56.679688 0.359375 L 56.679688 17.972656 C 50.328125 19.8125 44.953125 24.011719 41.574219 29.644531 C 39.425781 33.382812 38.296875 37.582031 38.296875 41.882812 C 38.296875 41.933594 38.296875 41.984375 38.296875 42.035156 L 38.296875 42.394531 C 38.453125 56.730469 49 62.769531 58.980469 67.277344 L 63.949219 69.425781 L 64.359375 69.632812 C 72.242188 73.265625 76.699219 75.621094 76.699219 82.074219 Z M 76.800781 82.125 " />
      <g clip-path="url(#clip-5)">
        <path fill-rule="nonzero" fill="rgb(100%, 100%, 100%)" fill-opacity="1"
              d="M 94.667969 81.253906 C 94.667969 81.304688 94.667969 81.355469 94.667969 81.40625 C 94.667969 86.273438 93.492188 91.035156 91.1875 95.335938 C 90.007812 97.585938 88.472656 99.738281 86.734375 101.582031 C 83.558594 104.960938 79.667969 107.570312 75.367188 109.210938 L 75.367188 127.488281 L 70.246094 127.949219 C 70.246094 127.949219 59.289062 128.257812 56.679688 127.949219 L 56.625 110.386719 C 45.105469 107.675781 36.609375 98.765625 34.046875 86.324219 L 33.226562 82.382812 L 50.890625 77.414062 L 51.609375 82.328125 C 52.429688 87.960938 56.625 94.054688 64 94.054688 C 70.144531 94.054688 76.75 89.496094 76.75 82.175781 C 76.75 75.726562 72.292969 73.371094 64.359375 69.734375 L 63.949219 69.53125 L 58.980469 67.378906 C 49 62.875 38.449219 56.882812 38.296875 42.496094 L 38.296875 42.136719 C 38.296875 42.085938 38.296875 42.035156 38.296875 41.984375 C 38.296875 37.683594 39.421875 33.484375 41.574219 29.746094 C 44.953125 24.0625 50.328125 19.867188 56.679688 18.074219 L 56.679688 0.460938 C 68.199219 0.359375 69.121094 0.410156 75.417969 1.535156 L 75.417969 18.277344 C 82.226562 20.632812 87.859375 25.496094 91.1875 31.898438 L 93.082031 35.429688 L 78.488281 44.800781 L 76.238281 40.859375 C 73.316406 35.789062 70.554688 33.996094 65.6875 33.996094 C 61.082031 33.996094 56.269531 36.964844 56.269531 42.546875 C 56.269531 46.59375 60.773438 48.949219 66.660156 51.558594 L 72.191406 54.015625 C 83.097656 58.777344 94.71875 65.230469 94.71875 81.304688 Z M 94.667969 81.253906 " />
      </g>
    </g>
  </defs>
  <g mask="url(#mask-0)">
    <use xlink:href="#source-1159" />
  </g>
</svg>
