<svg width="128" height="128" viewBox="0 0 128 128" fill="none" xmlns="http://www.w3.org/2000/svg">
  <g clip-path="url(#clip0_185_178)">
    <mask id="mask0_185_178" style="mask-type:luminance" maskUnits="userSpaceOnUse" x="0" y="0" width="128"
          height="128">
      <path d="M128 0H0V128H128V0Z" fill="white" />
    </mask>
    <g mask="url(#mask0_185_178)">
      <path d="M125.44 82.3297C118.681 105.626 99.2766 123.136 75.4174 127.437V109.21C79.7182 107.571 83.6094 104.96 86.7838 101.581C88.5246 99.6865 90.0606 97.5873 91.2382 95.3345C93.491 91.0337 94.7198 86.2721 94.7198 81.4081C94.7198 81.3569 94.7198 81.3057 94.7198 81.2545C94.7198 65.1777 83.0974 58.7265 72.1918 53.9649L66.6622 51.5073C60.7742 48.8449 56.2686 46.4897 56.2686 42.4961C56.2686 36.9153 61.1326 33.9457 65.6894 33.9457C70.5534 33.9457 73.3182 35.7377 76.2366 40.8065L78.4894 44.7489L93.0814 35.3793L91.187 31.8465C87.859 25.4977 82.1758 20.5825 75.4174 18.2273V1.53613C76.851 1.79213 78.2334 2.09933 79.667 2.45773C79.8206 2.50893 79.9742 2.50893 80.1278 2.56013C80.2814 2.61133 80.435 2.61133 80.5886 2.66253C80.6398 2.66253 80.691 2.66253 80.7422 2.71373C81.1006 2.81613 81.5102 2.91853 81.9198 3.02093C109.261 10.9569 128.051 35.9937 128.051 64.4609C128.051 70.5025 127.181 76.5441 125.491 82.3297H125.44Z"
            fill="#745DDF" />
      <path d="M76.8 82.1248C76.8 89.4464 70.1952 94.0032 64.0512 94.0032C56.6784 94.0032 52.48 87.9104 51.6608 82.2784L50.944 77.3632L33.28 82.3296L34.0992 86.272C36.608 98.7136 45.1072 107.674 56.6784 110.336V127.949C53.5552 127.59 50.432 126.976 47.4112 126.157C47.0016 126.054 46.5408 125.952 46.1312 125.798C18.8416 117.862 0 92.8256 0 64.3584V2.8672C0 1.4848 1.1264 0.358398 2.5088 0.358398H56.6784V17.9712C50.3296 19.8144 44.9536 24.0128 41.5744 29.6448C39.424 33.3824 38.2976 37.5808 38.2976 41.8816C38.2976 41.9328 38.2976 41.984 38.2976 42.0352V42.3936C38.4512 56.7296 48.9984 62.7712 58.9824 67.2768L63.9488 69.4272L64.3584 69.632C72.2432 73.2672 76.6976 75.6224 76.6976 82.0736L76.8 82.1248Z"
            fill="#2EB6EA" />
      <path d="M94.6685 81.2546C94.6685 81.3058 94.6685 81.357 94.6685 81.4082C94.6685 86.2722 93.4909 91.0338 91.1869 95.3346C90.0093 97.5874 88.4733 99.7378 86.7325 101.581C83.5581 104.96 79.6669 107.571 75.3661 109.21V127.488L70.2461 127.949C70.2461 127.949 59.2893 128.256 56.6781 127.949L56.6269 110.387C45.1069 107.674 36.6077 98.765 34.0477 86.3234L33.2285 82.381L50.8925 77.4146L51.6093 82.3298C52.4285 87.9618 56.6269 94.0546 63.9997 94.0546C70.1437 94.0546 76.7485 89.4978 76.7485 82.1762C76.7485 75.725 72.2941 73.3698 64.3581 69.7346L63.9485 69.5298L58.9821 67.3794C48.9981 62.8738 38.4509 56.8834 38.2973 42.4962V42.1378C38.2973 42.0866 38.2973 42.0354 38.2973 41.9842C38.2973 37.6834 39.4237 33.485 41.5741 29.7474C44.9533 24.0642 50.3293 19.8658 56.6781 18.0738V0.460965C68.1981 0.358565 69.1197 0.409765 75.4173 1.53617V18.2786C82.2269 20.6338 87.8589 25.4978 91.1869 31.8978L93.0813 35.4306L78.4893 44.8002L76.2365 40.8578C73.3181 35.789 70.5533 33.997 65.6893 33.997C61.0813 33.997 56.2685 36.9666 56.2685 42.5474C56.2685 46.5922 60.7741 48.9474 66.6621 51.5586L72.1917 54.0162C83.0973 58.7778 94.7197 65.229 94.7197 81.3058L94.6685 81.2546Z"
            fill="white" />
    </g>
  </g>
  <defs>
    <clipPath id="clip0_185_178">
      <rect width="128" height="128" fill="white" />
    </clipPath>
  </defs>
</svg>
