<svg width="128" height="128" viewBox="0 0 128 128" fill="none" xmlns="http://www.w3.org/2000/svg">
  <circle cx="64" cy="64" r="64" fill="#6BE89E" />
  <path d="M83.2852 35.2711L69.9312 55.1111C69.0078 56.4622 70.7836 58.0978 72.0622 56.96L85.2031 45.5111C85.5583 45.2267 86.0555 45.44 86.0555 45.9378V81.7067C86.0555 82.2044 85.4162 82.4178 85.1321 82.0622L45.3541 34.4178C44.0755 32.8533 42.2286 32 40.1687 32H38.7481C35.0544 32 32 35.0578 32 38.8267V89.1733C32 92.9422 35.0544 96 38.8191 96C41.1632 96 43.3651 94.7911 44.6437 92.7289L57.9978 72.8889C58.9212 71.5378 57.1454 69.9022 55.8668 71.04L42.7259 82.4178C42.3707 82.7022 41.8735 82.4889 41.8735 81.9911V46.2933C41.8735 45.7956 42.5128 45.5822 42.7969 45.9378L82.5749 93.5822C83.8535 95.1467 85.7714 96 87.7603 96H89.1809C92.9456 96 96 92.9422 96 89.1733V38.8267C96 35.0578 92.9456 32 89.1809 32C86.7658 32 84.5638 33.2089 83.2852 35.2711Z"
        fill="black" />
</svg>
