<?xml version="1.0" encoding="UTF-8"?>
<svg xmlns="http://www.w3.org/2000/svg" width="128" height="128"
     viewBox="0 0 128 128">
  <path fill-rule="nonzero" fill="rgb(41.960784%, 90.980392%, 61.960784%)" fill-opacity="1"
        d="M 128 64 C 128 99.347656 99.347656 128 64 128 C 28.652344 128 0 99.347656 0 64 C 0 28.652344 28.652344 0 64 0 C 99.347656 0 128 28.652344 128 64 " />
  <path fill-rule="nonzero" fill="rgb(0%, 0%, 0%)" fill-opacity="1"
        d="M 83.285156 35.269531 L 69.929688 55.109375 C 69.007812 56.460938 70.785156 58.097656 72.0625 56.960938 L 85.203125 45.511719 C 85.558594 45.226562 86.054688 45.441406 86.054688 45.9375 L 86.054688 81.707031 C 86.054688 82.203125 85.417969 82.417969 85.132812 82.0625 L 45.355469 34.417969 C 44.074219 32.851562 42.230469 32 40.167969 32 L 38.75 32 C 35.054688 32 32 35.058594 32 38.828125 L 32 89.171875 C 32 92.941406 35.054688 96 38.820312 96 C 41.164062 96 43.363281 94.792969 44.644531 92.730469 L 57.996094 72.890625 C 58.921875 71.539062 57.144531 69.902344 55.867188 71.039062 L 42.726562 82.417969 C 42.371094 82.703125 41.875 82.488281 41.875 81.992188 L 41.875 46.292969 C 41.875 45.796875 42.511719 45.582031 42.796875 45.9375 L 82.574219 93.582031 C 83.851562 95.148438 85.769531 96 87.761719 96 L 89.179688 96 C 92.945312 96 96 92.941406 96 89.171875 L 96 38.828125 C 96 35.058594 92.945312 32 89.179688 32 C 86.765625 32 84.5625 33.207031 83.285156 35.269531 Z M 83.285156 35.269531 " />
</svg>
