<?xml version="1.0" encoding="UTF-8"?>
<svg xmlns="http://www.w3.org/2000/svg" width="128" height="128"
     viewBox="0 0 128 128">
  <defs>
    <clipPath id="clip-0">
      <path clip-rule="nonzero" d="M 20 27 L 108 27 L 108 83 L 20 83 Z M 20 27 " />
    </clipPath>
  </defs>
  <path fill-rule="nonzero" fill="rgb(0%, 0%, 0%)" fill-opacity="1"
        d="M 128 64 C 128 99.347656 99.347656 128 64 128 C 28.652344 128 0 99.347656 0 64 C 0 28.652344 28.652344 0 64 0 C 99.347656 0 128 28.652344 128 64 " />
  <g clip-path="url(#clip-0)">
    <path fill-rule="nonzero" fill="rgb(100%, 100%, 100%)" fill-opacity="1"
          d="M 95.578125 36.679688 L 84.984375 42.042969 L 33.816406 67.945312 C 33.644531 66.632812 33.554688 65.3125 33.554688 63.988281 C 33.5625 58.710938 34.957031 53.527344 37.601562 48.949219 C 40.242188 44.375 44.042969 40.5625 48.625 37.894531 C 53.207031 35.226562 58.410156 33.792969 63.722656 33.738281 C 69.03125 33.683594 74.265625 35.007812 78.898438 37.582031 L 84.964844 34.511719 L 85.871094 34.050781 C 80.3125 30.042969 73.75 27.640625 66.90625 27.109375 C 60.0625 26.578125 53.203125 27.933594 47.085938 31.035156 C 40.972656 34.132812 35.835938 38.851562 32.25 44.667969 C 28.664062 50.488281 26.769531 57.175781 26.769531 64 C 26.769531 64.941406 26.804688 65.878906 26.875 66.816406 C 26.976562 68.140625 26.683594 69.464844 26.027344 70.621094 C 25.371094 71.777344 24.386719 72.71875 23.199219 73.320312 L 20 74.941406 L 20 82.5 L 29.414062 77.730469 L 32.464844 76.183594 L 35.46875 74.664062 L 89.410156 47.351562 L 95.472656 44.28125 L 108 37.9375 L 108 30.382812 Z M 95.578125 36.679688 " />
  </g>
  <path fill-rule="nonzero" fill="rgb(100%, 100%, 100%)" fill-opacity="1"
        d="M 108 45.5 L 38.535156 80.648438 L 32.472656 83.726562 L 20 90.039062 L 20 97.59375 L 32.386719 91.320312 L 42.984375 85.957031 L 94.203125 60.019531 C 94.375 61.339844 94.460938 62.667969 94.460938 64 C 94.460938 69.285156 93.066406 74.472656 90.417969 79.058594 C 87.773438 83.640625 83.96875 87.453125 79.378906 90.125 C 74.792969 92.792969 69.582031 94.222656 64.265625 94.273438 C 58.949219 94.320312 53.710938 92.988281 49.074219 90.402344 L 48.703125 90.597656 L 42.125 93.929688 C 47.679688 97.9375 54.242188 100.339844 61.085938 100.875 C 67.929688 101.40625 74.789062 100.050781 80.902344 96.953125 C 87.019531 93.859375 92.15625 89.140625 95.742188 83.324219 C 99.328125 77.507812 101.230469 70.820312 101.230469 64 C 101.230469 63.050781 101.195312 62.097656 101.121094 61.160156 C 101.023438 59.835938 101.316406 58.511719 101.972656 57.355469 C 102.625 56.195312 103.609375 55.257812 104.796875 54.652344 L 108 53.03125 Z M 108 45.5 " />
</svg>
