<?xml version="1.0" encoding="UTF-8"?>
<svg xmlns="http://www.w3.org/2000/svg" width="128" height="128"
     viewBox="0 0 128 128">
  <path fill-rule="nonzero" fill="rgb(5.098039%, 11.764706%, 18.823529%)" fill-opacity="1"
        d="M 64 128 C 99.347656 128 128 99.347656 128 64 C 128 28.652344 99.347656 0 64 0 C 28.652344 0 0 28.652344 0 64 C 0 99.347656 28.652344 128 64 128 Z M 64 128 " />
  <path fill-rule="nonzero" fill="rgb(0%, 0%, 0%)" fill-opacity="1"
        d="M 62.898438 24.738281 C 64.8125 23.75 67.152344 26.035156 66.136719 27.917969 C 65.542969 29.457031 63.296875 29.863281 62.152344 28.691406 C 60.941406 27.570312 61.339844 25.347656 62.898438 24.734375 Z M 42.277344 26.921875 C 43.441406 26.453125 44.917969 27.5 44.796875 28.75 C 44.917969 30.105469 43.238281 31.105469 42.050781 30.460938 C 40.476562 29.859375 40.65625 27.347656 42.277344 26.921875 Z M 84.511719 30.496094 C 82.691406 30.28125 82.402344 27.464844 84.148438 26.894531 C 85.511719 26.246094 86.757812 27.46875 86.957031 28.734375 C 86.671875 29.816406 85.75 30.808594 84.511719 30.496094 Z M 46.96875 35.554688 C 48.917969 34.34375 51.695312 36.148438 51.394531 38.375 C 51.292969 40.621094 48.261719 41.921875 46.550781 40.402344 C 44.894531 39.210938 45.144531 36.476562 46.96875 35.554688 Z M 76.691406 36.84375 C 77.558594 34.644531 81.078125 34.570312 82.066406 36.714844 C 83.046875 38.382812 81.84375 40.453125 80.101562 41.019531 C 77.792969 41.445312 75.605469 38.988281 76.691406 36.84375 Z M 60.414062 40.894531 C 60.394531 39 62.144531 37.59375 63.972656 37.460938 C 65.191406 37.699219 66.511719 38.207031 67.03125 39.410156 C 68.003906 41.074219 67.136719 43.359375 65.390625 44.125 C 64.589844 44.5625 63.636719 44.398438 62.765625 44.347656 C 61.433594 43.707031 60.308594 42.441406 60.414062 40.894531 Z M 29.75 43.65625 C 31.53125 42.574219 33.929688 44.535156 33.253906 46.441406 C 32.886719 48.082031 30.636719 48.75 29.355469 47.703125 C 27.980469 46.71875 28.199219 44.355469 29.753906 43.652344 Z M 95.597656 43.648438 C 97.105469 42.496094 99.597656 43.820312 99.414062 45.691406 C 99.519531 47.398438 97.363281 48.691406 95.867188 47.8125 C 94.21875 47.078125 94.046875 44.582031 95.597656 43.652344 Z M 69.039062 47.050781 C 71.527344 46.171875 74.484375 47.222656 75.902344 49.410156 C 77.773438 52.078125 76.78125 56.144531 73.875 57.675781 C 70.867188 59.488281 66.46875 57.957031 65.355469 54.644531 C 64.09375 51.683594 65.933594 47.980469 69.035156 47.050781 Z M 54.425781 47.34375 C 57.1875 46.0625 60.902344 47.136719 62.234375 49.910156 C 63.800781 52.617188 62.589844 56.378906 59.785156 57.777344 C 56.976562 59.347656 53.015625 58.15625 51.65625 55.253906 C 50.132812 52.449219 51.484375 48.636719 54.425781 47.34375 Z M 39.796875 52.261719 C 40.011719 50.511719 41.6875 49.371094 43.378906 49.25 C 44.261719 49.34375 45.085938 49.734375 45.71875 50.359375 C 46.347656 50.980469 46.75 51.800781 46.859375 52.679688 C 46.738281 54.480469 45.328125 56.230469 43.390625 56.222656 C 41.257812 56.402344 39.390625 54.316406 39.796875 52.261719 Z M 83.007812 49.636719 C 85.195312 48.382812 88.230469 50.203125 88.132812 52.675781 C 88.28125 55.296875 84.921875 57.140625 82.746094 55.605469 C 80.480469 54.324219 80.65625 50.722656 83.007812 49.636719 Z M 48.484375 58.863281 C 51.039062 58.171875 53.964844 59.355469 55.21875 61.667969 C 56.589844 63.996094 56.03125 67.226562 53.898438 68.941406 C 51.15625 71.445312 46.113281 70.4375 44.65625 67.019531 C 42.980469 63.886719 45.019531 59.6875 48.480469 58.859375 Z M 76.195312 58.851562 C 78.679688 58.152344 81.597656 59.09375 82.933594 61.320312 C 84.703125 63.867188 83.859375 67.671875 81.230469 69.3125 C 78.46875 71.21875 74.207031 70.21875 72.6875 67.234375 C 70.847656 64.152344 72.699219 59.792969 76.195312 58.851562 Z M 32.035156 61.753906 C 34.242188 60.9375 36.691406 63.332031 35.792969 65.488281 C 35.25 67.449219 32.4375 68.175781 30.984375 66.726562 C 29.285156 65.367188 29.914062 62.347656 32.035156 61.753906 Z M 91.910156 64.882812 C 91.867188 64.003906 92.175781 63.140625 92.765625 62.488281 C 93.355469 61.832031 94.183594 61.4375 95.0625 61.386719 C 96.574219 61.628906 98.046875 62.828125 97.925781 64.449219 C 98.066406 66.585938 95.445312 68.039062 93.589844 67.035156 C 92.722656 66.601562 92.277344 65.722656 91.910156 64.882812 Z M 21.175781 62.820312 C 22.503906 62.246094 24.144531 63.378906 23.84375 64.832031 C 23.769531 66.476562 21.300781 67.113281 20.398438 65.734375 C 19.597656 64.78125 20.078125 63.3125 21.175781 62.816406 Z M 104.96875 62.785156 C 105.90625 62.132812 107.410156 62.601562 107.777344 63.675781 C 108.40625 64.851562 107.253906 66.460938 105.910156 66.265625 C 104.023438 66.433594 103.414062 63.605469 104.96875 62.785156 Z M 55.703125 70.675781 C 59.199219 69.785156 62.957031 72.652344 62.980469 76.195312 C 63.207031 79.777344 59.503906 82.949219 55.925781 82.125 C 53.15625 81.683594 50.984375 79.058594 51.078125 76.3125 C 51.070312 73.679688 53.085938 71.230469 55.703125 70.675781 Z M 69.550781 70.671875 C 73.097656 69.695312 76.96875 72.617188 76.914062 76.238281 C 77.101562 79.75 73.515625 82.820312 70.011719 82.121094 C 66.710938 81.703125 64.277344 78.140625 65.199219 74.988281 C 65.664062 72.890625 67.445312 71.1875 69.550781 70.667969 Z M 42.847656 72.851562 C 45.300781 72.441406 47.605469 75.132812 46.609375 77.429688 C 45.882812 79.875 42.265625 80.535156 40.667969 78.539062 C 38.792969 76.621094 40.195312 73.117188 42.847656 72.851562 Z M 83.460938 72.960938 C 85.652344 72.054688 88.34375 73.917969 88.175781 76.261719 C 88.261719 78.832031 84.941406 80.609375 82.800781 79.105469 C 80.375 77.753906 80.816406 73.785156 83.460938 72.960938 Z M 94.8125 84.160156 C 93.957031 82.585938 95.515625 80.503906 97.292969 80.796875 C 98.175781 80.78125 98.792969 81.464844 99.359375 82.039062 C 99.472656 82.972656 99.671875 84.082031 98.882812 84.800781 C 97.8125 86.132812 95.394531 85.75 94.8125 84.160156 Z M 29.742188 81.230469 C 31.402344 80.148438 33.789062 81.769531 33.414062 83.671875 C 33.214844 85.363281 31.054688 86.328125 29.632812 85.367188 C 28.105469 84.5 28.164062 82.023438 29.742188 81.230469 Z M 62.515625 84.765625 C 64.6875 83.824219 67.453125 85.683594 67.246094 88.035156 C 67.40625 90.636719 63.984375 92.4375 61.863281 90.875 C 59.503906 89.535156 59.898438 85.59375 62.515625 84.765625 Z M 47.339844 88.246094 C 49.1875 87.292969 51.667969 88.945312 51.5 90.984375 C 51.554688 92.65625 49.898438 94.078125 48.21875 93.832031 C 46.832031 93.804688 45.925781 92.574219 45.476562 91.410156 C 45.503906 90.144531 46.035156 88.730469 47.339844 88.25 Z M 78.082031 88.28125 C 79.984375 87.121094 82.691406 88.785156 82.511719 90.960938 C 82.558594 93.238281 79.503906 94.695312 77.730469 93.199219 C 76.019531 92.027344 76.226562 89.210938 78.082031 88.28125 Z M 83.429688 101.28125 C 82.582031 100.023438 83.578125 98.507812 84.949219 98.21875 C 86.058594 98.441406 87.230469 99.261719 86.996094 100.515625 C 86.835938 102.222656 84.296875 102.742188 83.429688 101.285156 Z M 40.984375 100.1875 C 41.320312 99.1875 42.136719 98.199219 43.335938 98.460938 C 45.074219 98.578125 45.589844 101.164062 44.066406 101.960938 C 42.699219 102.867188 41.105469 101.625 40.984375 100.1875 Z M 61.464844 101.335938 C 61.796875 99.855469 63.738281 99.140625 65.019531 99.921875 C 65.867188 100.285156 66.113281 101.210938 66.332031 102.003906 C 66.214844 102.414062 66.109375 102.828125 66.011719 103.242188 C 65.484375 103.851562 64.808594 104.464844 63.9375 104.445312 C 62.316406 104.632812 60.855469 102.828125 61.460938 101.335938 Z M 61.464844 101.335938 " />
  <path fill-rule="nonzero" fill="rgb(100%, 100%, 100%)" fill-opacity="1"
        d="M 62.898438 24.238281 C 64.8125 23.25 67.152344 25.535156 66.136719 27.417969 C 65.542969 28.957031 63.296875 29.363281 62.152344 28.191406 C 60.941406 27.070312 61.339844 24.847656 62.898438 24.234375 Z M 42.277344 26.421875 C 43.441406 25.953125 44.917969 27 44.796875 28.25 C 44.917969 29.605469 43.238281 30.605469 42.050781 29.960938 C 40.476562 29.359375 40.65625 26.847656 42.277344 26.421875 Z M 84.511719 29.996094 C 82.691406 29.78125 82.402344 26.964844 84.148438 26.394531 C 85.511719 25.746094 86.757812 26.96875 86.957031 28.234375 C 86.671875 29.316406 85.75 30.308594 84.511719 29.996094 Z M 46.96875 35.054688 C 48.917969 33.84375 51.695312 35.648438 51.394531 37.875 C 51.292969 40.121094 48.261719 41.421875 46.550781 39.902344 C 44.894531 38.710938 45.144531 35.976562 46.96875 35.054688 Z M 76.691406 36.34375 C 77.558594 34.144531 81.078125 34.070312 82.066406 36.214844 C 83.046875 37.882812 81.84375 39.953125 80.101562 40.519531 C 77.792969 40.945312 75.605469 38.488281 76.691406 36.34375 Z M 60.414062 40.394531 C 60.394531 38.5 62.144531 37.09375 63.972656 36.960938 C 65.191406 37.199219 66.511719 37.707031 67.03125 38.910156 C 68.003906 40.574219 67.136719 42.859375 65.390625 43.625 C 64.589844 44.0625 63.636719 43.898438 62.765625 43.847656 C 61.433594 43.207031 60.308594 41.941406 60.414062 40.394531 Z M 29.75 43.15625 C 31.53125 42.074219 33.929688 44.035156 33.253906 45.941406 C 32.886719 47.582031 30.636719 48.25 29.355469 47.203125 C 27.980469 46.21875 28.199219 43.855469 29.753906 43.152344 Z M 95.597656 43.148438 C 97.105469 41.996094 99.597656 43.320312 99.414062 45.191406 C 99.519531 46.898438 97.363281 48.191406 95.867188 47.3125 C 94.21875 46.578125 94.046875 44.082031 95.597656 43.152344 Z M 69.039062 46.550781 C 71.527344 45.671875 74.484375 46.722656 75.902344 48.910156 C 77.773438 51.578125 76.78125 55.644531 73.875 57.175781 C 70.867188 58.988281 66.46875 57.457031 65.355469 54.144531 C 64.09375 51.183594 65.933594 47.480469 69.035156 46.550781 Z M 54.425781 46.84375 C 57.1875 45.5625 60.902344 46.636719 62.234375 49.410156 C 63.800781 52.117188 62.589844 55.878906 59.785156 57.277344 C 56.976562 58.847656 53.015625 57.65625 51.65625 54.753906 C 50.132812 51.949219 51.484375 48.136719 54.425781 46.84375 Z M 39.796875 51.761719 C 40.011719 50.011719 41.6875 48.871094 43.378906 48.75 C 44.261719 48.84375 45.085938 49.234375 45.71875 49.859375 C 46.347656 50.480469 46.75 51.300781 46.859375 52.179688 C 46.738281 53.980469 45.328125 55.730469 43.390625 55.722656 C 41.257812 55.902344 39.390625 53.816406 39.796875 51.761719 Z M 83.007812 49.136719 C 85.195312 47.882812 88.230469 49.703125 88.132812 52.175781 C 88.28125 54.796875 84.921875 56.640625 82.746094 55.105469 C 80.480469 53.824219 80.65625 50.222656 83.007812 49.136719 Z M 48.484375 58.363281 C 51.039062 57.671875 53.964844 58.855469 55.21875 61.167969 C 56.589844 63.496094 56.03125 66.726562 53.898438 68.441406 C 51.15625 70.945312 46.113281 69.9375 44.65625 66.519531 C 42.980469 63.386719 45.019531 59.1875 48.480469 58.359375 Z M 76.195312 58.351562 C 78.679688 57.652344 81.597656 58.59375 82.933594 60.820312 C 84.703125 63.367188 83.859375 67.171875 81.230469 68.8125 C 78.46875 70.71875 74.207031 69.71875 72.6875 66.734375 C 70.847656 63.652344 72.699219 59.292969 76.195312 58.351562 Z M 32.035156 61.253906 C 34.242188 60.4375 36.691406 62.832031 35.792969 64.988281 C 35.25 66.949219 32.4375 67.675781 30.984375 66.226562 C 29.285156 64.867188 29.914062 61.847656 32.035156 61.253906 Z M 91.910156 64.382812 C 91.867188 63.503906 92.175781 62.640625 92.765625 61.988281 C 93.355469 61.332031 94.183594 60.9375 95.0625 60.886719 C 96.574219 61.128906 98.046875 62.328125 97.925781 63.949219 C 98.066406 66.085938 95.445312 67.539062 93.589844 66.535156 C 92.722656 66.101562 92.277344 65.222656 91.910156 64.382812 Z M 21.175781 62.320312 C 22.503906 61.746094 24.144531 62.878906 23.84375 64.332031 C 23.769531 65.976562 21.300781 66.613281 20.398438 65.234375 C 19.597656 64.28125 20.078125 62.8125 21.175781 62.316406 Z M 104.96875 62.285156 C 105.90625 61.632812 107.410156 62.101562 107.777344 63.175781 C 108.40625 64.351562 107.253906 65.960938 105.910156 65.765625 C 104.023438 65.933594 103.414062 63.105469 104.96875 62.285156 Z M 55.703125 70.175781 C 59.199219 69.285156 62.957031 72.152344 62.980469 75.695312 C 63.207031 79.277344 59.503906 82.449219 55.925781 81.625 C 53.15625 81.183594 50.984375 78.558594 51.078125 75.8125 C 51.070312 73.179688 53.085938 70.730469 55.703125 70.175781 Z M 69.550781 70.171875 C 73.097656 69.195312 76.96875 72.117188 76.914062 75.738281 C 77.101562 79.25 73.515625 82.320312 70.011719 81.621094 C 66.710938 81.203125 64.277344 77.640625 65.199219 74.488281 C 65.664062 72.390625 67.445312 70.6875 69.550781 70.167969 Z M 42.847656 72.351562 C 45.300781 71.941406 47.605469 74.632812 46.609375 76.929688 C 45.882812 79.375 42.265625 80.035156 40.667969 78.039062 C 38.792969 76.121094 40.195312 72.617188 42.847656 72.351562 Z M 83.460938 72.460938 C 85.652344 71.554688 88.34375 73.417969 88.175781 75.761719 C 88.261719 78.332031 84.941406 80.109375 82.800781 78.605469 C 80.375 77.253906 80.816406 73.285156 83.460938 72.460938 Z M 94.8125 83.660156 C 93.957031 82.085938 95.515625 80.003906 97.292969 80.296875 C 98.175781 80.28125 98.792969 80.964844 99.359375 81.539062 C 99.472656 82.472656 99.671875 83.582031 98.882812 84.300781 C 97.8125 85.632812 95.394531 85.25 94.8125 83.660156 Z M 29.742188 80.730469 C 31.402344 79.648438 33.789062 81.269531 33.414062 83.171875 C 33.214844 84.863281 31.054688 85.828125 29.632812 84.867188 C 28.105469 84 28.164062 81.523438 29.742188 80.730469 Z M 62.515625 84.265625 C 64.6875 83.324219 67.453125 85.183594 67.246094 87.535156 C 67.40625 90.136719 63.984375 91.9375 61.863281 90.375 C 59.503906 89.035156 59.898438 85.09375 62.515625 84.265625 Z M 47.339844 87.746094 C 49.1875 86.792969 51.667969 88.445312 51.5 90.484375 C 51.554688 92.15625 49.898438 93.578125 48.21875 93.332031 C 46.832031 93.304688 45.925781 92.074219 45.476562 90.910156 C 45.503906 89.644531 46.035156 88.230469 47.339844 87.75 Z M 78.082031 87.78125 C 79.984375 86.621094 82.691406 88.285156 82.511719 90.460938 C 82.558594 92.738281 79.503906 94.195312 77.730469 92.699219 C 76.019531 91.527344 76.226562 88.710938 78.082031 87.78125 Z M 83.429688 100.78125 C 82.582031 99.523438 83.578125 98.007812 84.949219 97.71875 C 86.058594 97.941406 87.230469 98.761719 86.996094 100.015625 C 86.835938 101.722656 84.296875 102.242188 83.429688 100.785156 Z M 40.984375 99.6875 C 41.320312 98.6875 42.136719 97.699219 43.335938 97.960938 C 45.074219 98.078125 45.589844 100.664062 44.066406 101.460938 C 42.699219 102.367188 41.105469 101.125 40.984375 99.6875 Z M 61.464844 100.835938 C 61.796875 99.355469 63.738281 98.640625 65.019531 99.421875 C 65.867188 99.785156 66.113281 100.710938 66.332031 101.503906 C 66.214844 101.914062 66.109375 102.328125 66.011719 102.742188 C 65.484375 103.351562 64.808594 103.964844 63.9375 103.945312 C 62.316406 104.132812 60.855469 102.328125 61.460938 100.835938 Z M 61.464844 100.835938 " />
</svg>
