<svg width="128" height="128" viewBox="0 0 128 128" fill="none" xmlns="http://www.w3.org/2000/svg">
  <path d="M64 128C99.3462 128 128 99.3462 128 64C128 28.6538 99.3462 0 64 0C28.6538 0 0 28.6538 0 64C0 99.3462 28.6538 128 64 128Z"
        fill="#0D1E30" />
  <g filter="url(#filter0_d_177_16)">
    <path d="M62.8982 24.2398C64.8142 23.2518 67.1542 25.5358 66.1382 27.4198C65.5422 28.9558 63.2982 29.3638 62.1542 28.1918C60.9422 27.0718 61.3382 24.8478 62.8982 24.2358V24.2398ZM42.2782 26.4238C43.4422 25.9518 44.9182 26.9998 44.7982 28.2518C44.9182 29.6038 43.2382 30.6038 42.0502 29.9598C40.4782 29.3598 40.6582 26.8478 42.2782 26.4238ZM84.5102 29.9958C82.6902 29.7798 82.4022 26.9638 84.1502 26.3958C85.5102 25.7478 86.7582 26.9678 86.9582 28.2358C86.6702 29.3158 85.7502 30.3078 84.5102 29.9958ZM46.9702 35.0558C48.9182 33.8438 51.6942 35.6478 51.3942 37.8758C51.2942 40.1198 48.2622 41.4238 46.5502 39.9038C44.8942 38.7118 45.1462 35.9758 46.9702 35.0558ZM76.6902 36.3438C77.5582 34.1438 81.0782 34.0718 82.0662 36.2158C83.0462 37.8838 81.8422 39.9518 80.1022 40.5198C77.7942 40.9438 75.6062 38.4878 76.6902 36.3438ZM60.4142 40.3958C60.3942 38.4998 62.1462 37.0918 63.9742 36.9598C65.1902 37.1998 66.5102 37.7078 67.0302 38.9118C68.0022 40.5758 67.1382 42.8598 65.3902 43.6238C64.5902 44.0638 63.6382 43.8998 62.7662 43.8478C61.4342 43.2078 60.3102 41.9398 60.4142 40.3958ZM29.7502 43.1558C31.5302 42.0758 33.9302 44.0358 33.2542 45.9398C32.8862 47.5838 30.6382 48.2518 29.3542 47.2038C27.9822 46.2198 28.1982 43.8558 29.7542 43.1518L29.7502 43.1558ZM95.5982 43.1478C97.1062 41.9958 99.5982 43.3198 99.4142 45.1918C99.5182 46.8998 97.3622 48.1918 95.8662 47.3118C94.2182 46.5798 94.0462 44.0838 95.5982 43.1518V43.1478ZM69.0382 46.5518C71.5262 45.6718 74.4862 46.7238 75.9022 48.9118C77.7742 51.5798 76.7822 55.6438 73.8742 57.1758C70.8662 58.9878 66.4702 57.4558 65.3542 54.1438C64.0942 51.1838 65.9342 47.4798 69.0342 46.5518H69.0382ZM54.4262 46.8438C57.1862 45.5638 60.9022 46.6358 62.2342 49.4118C63.8022 52.1158 62.5902 55.8798 59.7862 57.2758C56.9782 58.8478 53.0142 57.6558 51.6582 54.7558C50.1342 51.9478 51.4862 48.1358 54.4262 46.8438ZM39.7982 51.7598C40.0102 50.0118 41.6862 48.8718 43.3782 48.7518C44.2606 48.845 45.0853 49.2348 45.7175 49.8575C46.3496 50.4802 46.7518 51.2989 46.8582 52.1798C46.7382 53.9798 45.3262 55.7318 43.3902 55.7238C41.2582 55.9038 39.3902 53.8158 39.7982 51.7598ZM83.0062 49.1358C85.1942 47.8838 88.2302 49.7038 88.1342 52.1758C88.2822 54.7958 84.9222 56.6398 82.7462 55.1038C80.4822 53.8238 80.6582 50.2238 83.0062 49.1358ZM48.4862 58.3638C51.0382 57.6718 53.9662 58.8558 55.2182 61.1678C56.5902 63.4958 56.0302 66.7278 53.8982 68.4398C51.1582 70.9438 46.1142 69.9358 44.6582 66.5198C42.9822 63.3878 45.0182 59.1878 48.4822 58.3598L48.4862 58.3638ZM76.1942 58.3518C78.6782 57.6518 81.5982 58.5918 82.9342 60.8198C84.7022 63.3678 83.8582 67.1718 81.2302 68.8118C78.4702 70.7198 74.2062 69.7198 72.6862 66.7358C70.8462 63.6518 72.6982 59.2918 76.1942 58.3518ZM32.0342 61.2558C34.2422 60.4358 36.6902 62.8318 35.7942 64.9878C35.2502 66.9478 32.4382 67.6758 30.9862 66.2278C29.2862 64.8678 29.9142 61.8478 32.0342 61.2558ZM91.9102 64.3838C91.8688 63.5033 92.1766 62.642 92.7669 61.9873C93.3572 61.3326 94.1821 60.9374 95.0622 60.8878C96.5742 61.1278 98.0462 62.3278 97.9262 63.9478C98.0662 66.0878 95.4462 67.5398 93.5902 66.5358C92.7222 66.0998 92.2782 65.2238 91.9102 64.3838ZM21.1742 62.3198C22.5022 61.7478 24.1462 62.8798 23.8422 64.3318C23.7702 65.9758 21.3022 66.6118 20.3982 65.2358C19.5982 64.2798 20.0782 62.8118 21.1742 62.3158V62.3198ZM104.97 62.2838C105.906 61.6318 107.41 62.0998 107.778 63.1758C108.406 64.3518 107.254 65.9598 105.91 65.7638C104.022 65.9318 103.414 63.1038 104.97 62.2838ZM55.7022 70.1758C59.1982 69.2838 62.9582 72.1518 62.9822 75.6958C63.2062 79.2758 59.5022 82.4478 55.9262 81.6238C53.1582 81.1838 50.9862 78.5598 51.0782 75.8118C51.0702 73.1798 53.0862 70.7318 55.7022 70.1758ZM69.5502 70.1718C73.0982 69.1958 76.9702 72.1158 76.9142 75.7398C77.1022 79.2518 73.5142 82.3198 70.0102 81.6198C66.7102 81.2038 64.2782 77.6398 65.1982 74.4878C65.6622 72.3918 67.4462 70.6878 69.5502 70.1678V70.1718ZM42.8462 72.3518C45.3022 71.9398 47.6062 74.6318 46.6102 76.9278C45.8822 79.3758 42.2662 80.0358 40.6662 78.0398C38.7942 76.1198 40.1942 72.6158 42.8462 72.3518ZM83.4622 72.4598C85.6542 71.5558 88.3422 73.4198 88.1742 75.7598C88.2622 78.3318 84.9422 80.1078 82.8022 78.6038C80.3742 77.2558 80.8182 73.2838 83.4622 72.4598ZM94.8142 83.6598C93.9582 82.0878 95.5142 80.0038 97.2942 80.2958C98.1742 80.2798 98.7942 80.9638 99.3582 81.5398C99.4742 82.4718 99.6702 83.5838 98.8822 84.2998C97.8142 85.6318 95.3942 85.2518 94.8142 83.6598ZM29.7422 80.7318C31.4022 79.6478 33.7902 81.2678 33.4142 83.1718C33.2142 84.8638 31.0542 85.8278 29.6342 84.8678C28.1062 83.9998 28.1622 81.5238 29.7422 80.7318ZM62.5142 84.2638C64.6862 83.3238 67.4542 85.1838 67.2462 87.5358C67.4062 90.1358 63.9862 91.9358 61.8622 90.3758C59.5022 89.0358 59.8982 85.0918 62.5142 84.2638ZM47.3382 87.7478C49.1862 86.7918 51.6662 88.4438 51.4982 90.4838C51.5542 92.1558 49.8982 93.5798 48.2182 93.3318C46.8302 93.3038 45.9262 92.0758 45.4782 90.9118C45.5022 89.6438 46.0342 88.2318 47.3382 87.7518V87.7478ZM78.0822 87.7798C79.9862 86.6198 82.6902 88.2838 82.5102 90.4598C82.5582 92.7398 79.5022 94.1958 77.7302 92.6998C76.0182 91.5278 76.2262 88.7118 78.0822 87.7798ZM83.4302 100.78C82.5822 99.5238 83.5782 98.0078 84.9502 97.7198C86.0582 97.9398 87.2302 98.7598 86.9942 100.016C86.8342 101.724 84.2982 102.244 83.4302 100.784V100.78ZM40.9862 99.6878C41.3222 98.6878 42.1382 97.6998 43.3342 97.9598C45.0742 98.0798 45.5902 100.664 44.0662 101.46C42.6982 102.368 41.1062 101.124 40.9862 99.6878ZM61.4662 100.836C61.7982 99.3558 63.7382 98.6398 65.0182 99.4238C65.8662 99.7838 66.1142 100.712 66.3302 101.504C66.2161 101.915 66.1094 102.329 66.0102 102.744C65.4862 103.352 64.8102 103.964 63.9382 103.944C62.3182 104.132 60.8542 102.328 61.4622 100.836H61.4662Z"
          fill="black" />
  </g>
  <path d="M62.8982 24.2398C64.8142 23.2518 67.1542 25.5358 66.1382 27.4198C65.5422 28.9558 63.2982 29.3638 62.1542 28.1918C60.9422 27.0718 61.3382 24.8478 62.8982 24.2358V24.2398ZM42.2782 26.4238C43.4422 25.9518 44.9182 26.9998 44.7982 28.2518C44.9182 29.6038 43.2382 30.6038 42.0502 29.9598C40.4782 29.3598 40.6582 26.8478 42.2782 26.4238ZM84.5102 29.9958C82.6902 29.7798 82.4022 26.9638 84.1502 26.3958C85.5102 25.7478 86.7582 26.9678 86.9582 28.2358C86.6702 29.3158 85.7502 30.3078 84.5102 29.9958ZM46.9702 35.0558C48.9182 33.8438 51.6942 35.6478 51.3942 37.8758C51.2942 40.1198 48.2622 41.4238 46.5502 39.9038C44.8942 38.7118 45.1462 35.9758 46.9702 35.0558ZM76.6902 36.3438C77.5582 34.1438 81.0782 34.0718 82.0662 36.2158C83.0462 37.8838 81.8422 39.9518 80.1022 40.5198C77.7942 40.9438 75.6062 38.4878 76.6902 36.3438ZM60.4142 40.3958C60.3942 38.4998 62.1462 37.0918 63.9742 36.9598C65.1902 37.1998 66.5102 37.7078 67.0302 38.9118C68.0022 40.5758 67.1382 42.8598 65.3902 43.6238C64.5902 44.0638 63.6382 43.8998 62.7662 43.8478C61.4342 43.2078 60.3102 41.9398 60.4142 40.3958ZM29.7502 43.1558C31.5302 42.0758 33.9302 44.0358 33.2542 45.9398C32.8862 47.5838 30.6382 48.2518 29.3542 47.2038C27.9822 46.2198 28.1982 43.8558 29.7542 43.1518L29.7502 43.1558ZM95.5982 43.1478C97.1062 41.9958 99.5982 43.3198 99.4142 45.1918C99.5182 46.8998 97.3622 48.1918 95.8662 47.3118C94.2182 46.5798 94.0462 44.0838 95.5982 43.1518V43.1478ZM69.0382 46.5518C71.5262 45.6718 74.4862 46.7238 75.9022 48.9118C77.7742 51.5798 76.7822 55.6438 73.8742 57.1758C70.8662 58.9878 66.4702 57.4558 65.3542 54.1438C64.0942 51.1838 65.9342 47.4798 69.0342 46.5518H69.0382ZM54.4262 46.8438C57.1862 45.5638 60.9022 46.6358 62.2342 49.4118C63.8022 52.1158 62.5902 55.8798 59.7862 57.2758C56.9782 58.8478 53.0142 57.6558 51.6582 54.7558C50.1342 51.9478 51.4862 48.1358 54.4262 46.8438ZM39.7982 51.7598C40.0102 50.0118 41.6862 48.8718 43.3782 48.7518C44.2606 48.845 45.0853 49.2348 45.7175 49.8575C46.3496 50.4802 46.7518 51.2989 46.8582 52.1798C46.7382 53.9798 45.3262 55.7318 43.3902 55.7238C41.2582 55.9038 39.3902 53.8158 39.7982 51.7598ZM83.0062 49.1358C85.1942 47.8838 88.2302 49.7038 88.1342 52.1758C88.2822 54.7958 84.9222 56.6398 82.7462 55.1038C80.4822 53.8238 80.6582 50.2238 83.0062 49.1358ZM48.4862 58.3638C51.0382 57.6718 53.9662 58.8558 55.2182 61.1678C56.5902 63.4958 56.0302 66.7278 53.8982 68.4398C51.1582 70.9438 46.1142 69.9358 44.6582 66.5198C42.9822 63.3878 45.0182 59.1878 48.4822 58.3598L48.4862 58.3638ZM76.1942 58.3518C78.6782 57.6518 81.5982 58.5918 82.9342 60.8198C84.7022 63.3678 83.8582 67.1718 81.2302 68.8118C78.4702 70.7198 74.2062 69.7198 72.6862 66.7358C70.8462 63.6518 72.6982 59.2918 76.1942 58.3518ZM32.0342 61.2558C34.2422 60.4358 36.6902 62.8318 35.7942 64.9878C35.2502 66.9478 32.4382 67.6758 30.9862 66.2278C29.2862 64.8678 29.9142 61.8478 32.0342 61.2558ZM91.9102 64.3838C91.8688 63.5033 92.1766 62.642 92.7669 61.9873C93.3572 61.3326 94.1821 60.9374 95.0622 60.8878C96.5742 61.1278 98.0462 62.3278 97.9262 63.9478C98.0662 66.0878 95.4462 67.5398 93.5902 66.5358C92.7222 66.0998 92.2782 65.2238 91.9102 64.3838ZM21.1742 62.3198C22.5022 61.7478 24.1462 62.8798 23.8422 64.3318C23.7702 65.9758 21.3022 66.6118 20.3982 65.2358C19.5982 64.2798 20.0782 62.8118 21.1742 62.3158V62.3198ZM104.97 62.2838C105.906 61.6318 107.41 62.0998 107.778 63.1758C108.406 64.3518 107.254 65.9598 105.91 65.7638C104.022 65.9318 103.414 63.1038 104.97 62.2838ZM55.7022 70.1758C59.1982 69.2838 62.9582 72.1518 62.9822 75.6958C63.2062 79.2758 59.5022 82.4478 55.9262 81.6238C53.1582 81.1838 50.9862 78.5598 51.0782 75.8118C51.0702 73.1798 53.0862 70.7318 55.7022 70.1758ZM69.5502 70.1718C73.0982 69.1958 76.9702 72.1158 76.9142 75.7398C77.1022 79.2518 73.5142 82.3198 70.0102 81.6198C66.7102 81.2038 64.2782 77.6398 65.1982 74.4878C65.6622 72.3918 67.4462 70.6878 69.5502 70.1678V70.1718ZM42.8462 72.3518C45.3022 71.9398 47.6062 74.6318 46.6102 76.9278C45.8822 79.3758 42.2662 80.0358 40.6662 78.0398C38.7942 76.1198 40.1942 72.6158 42.8462 72.3518ZM83.4622 72.4598C85.6542 71.5558 88.3422 73.4198 88.1742 75.7598C88.2622 78.3318 84.9422 80.1078 82.8022 78.6038C80.3742 77.2558 80.8182 73.2838 83.4622 72.4598ZM94.8142 83.6598C93.9582 82.0878 95.5142 80.0038 97.2942 80.2958C98.1742 80.2798 98.7942 80.9638 99.3582 81.5398C99.4742 82.4718 99.6702 83.5838 98.8822 84.2998C97.8142 85.6318 95.3942 85.2518 94.8142 83.6598ZM29.7422 80.7318C31.4022 79.6478 33.7902 81.2678 33.4142 83.1718C33.2142 84.8638 31.0542 85.8278 29.6342 84.8678C28.1062 83.9998 28.1622 81.5238 29.7422 80.7318ZM62.5142 84.2638C64.6862 83.3238 67.4542 85.1838 67.2462 87.5358C67.4062 90.1358 63.9862 91.9358 61.8622 90.3758C59.5022 89.0358 59.8982 85.0918 62.5142 84.2638ZM47.3382 87.7478C49.1862 86.7918 51.6662 88.4438 51.4982 90.4838C51.5542 92.1558 49.8982 93.5798 48.2182 93.3318C46.8302 93.3038 45.9262 92.0758 45.4782 90.9118C45.5022 89.6438 46.0342 88.2318 47.3382 87.7518V87.7478ZM78.0822 87.7798C79.9862 86.6198 82.6902 88.2838 82.5102 90.4598C82.5582 92.7398 79.5022 94.1958 77.7302 92.6998C76.0182 91.5278 76.2262 88.7118 78.0822 87.7798ZM83.4302 100.78C82.5822 99.5238 83.5782 98.0078 84.9502 97.7198C86.0582 97.9398 87.2302 98.7598 86.9942 100.016C86.8342 101.724 84.2982 102.244 83.4302 100.784V100.78ZM40.9862 99.6878C41.3222 98.6878 42.1382 97.6998 43.3342 97.9598C45.0742 98.0798 45.5902 100.664 44.0662 101.46C42.6982 102.368 41.1062 101.124 40.9862 99.6878ZM61.4662 100.836C61.7982 99.3558 63.7382 98.6398 65.0182 99.4238C65.8662 99.7838 66.1142 100.712 66.3302 101.504C66.2161 101.915 66.1094 102.329 66.0102 102.744C65.4862 103.352 64.8102 103.964 63.9382 103.944C62.3182 104.132 60.8542 102.328 61.4622 100.836H61.4662Z"
        fill="white" />
  <defs>
    <filter id="filter0_d_177_16" x="19" y="23.5015" width="89.9541" height="81.9559" filterUnits="userSpaceOnUse"
            color-interpolation-filters="sRGB">
      <feFlood flood-opacity="0" result="BackgroundImageFix" />
      <feColorMatrix in="SourceAlpha" type="matrix" values="0 0 0 0 0 0 0 0 0 0 0 0 0 0 0 0 0 0 127 0"
                     result="hardAlpha" />
      <feOffset dy="0.5" />
      <feGaussianBlur stdDeviation="0.5" />
      <feColorMatrix type="matrix" values="0 0 0 0 0 0 0 0 0 0 0 0 0 0 0 0 0 0 0.204257 0" />
      <feBlend mode="normal" in2="BackgroundImageFix" result="effect1_dropShadow_177_16" />
      <feBlend mode="normal" in="SourceGraphic" in2="effect1_dropShadow_177_16" result="shape" />
    </filter>
  </defs>
</svg>
