<?xml version="1.0" encoding="UTF-8"?>
<svg xmlns="http://www.w3.org/2000/svg" width="128" height="128"
     viewBox="0 0 128 128">
  <defs>
    <linearGradient id="linear-pattern-0" gradientUnits="userSpaceOnUse" x1="111.717" y1="23.8493" x2="16.4855"
                    y2="103.977">
      <stop offset="0" stop-color="rgb(71.372549%, 31.372549%, 61.960784%)" stop-opacity="1" />
      <stop offset="1" stop-color="rgb(18.039216%, 72.941176%, 77.647059%)" stop-opacity="1" />
    </linearGradient>
  </defs>
  <path fill-rule="nonzero" fill="url(#linear-pattern-0)"
        d="M 64 128 C 99.347656 128 128 99.347656 128 64 C 128 28.652344 99.347656 0 64 0 C 28.652344 0 0 28.652344 0 64 C 0 99.347656 28.652344 128 64 128 Z M 64 128 " />
  <path fill-rule="nonzero" fill="rgb(100%, 100%, 100%)" fill-opacity="1"
        d="M 92.007812 89.5 L 70.367188 37.179688 C 69.148438 34.472656 67.332031 33.15625 64.941406 33.15625 L 63.027344 33.15625 C 60.636719 33.15625 58.820312 34.472656 57.601562 37.179688 L 48.183594 59.976562 L 41.058594 59.976562 C 38.929688 59.992188 37.195312 61.707031 37.179688 63.851562 L 37.179688 63.902344 C 37.195312 66.027344 38.929688 67.761719 41.058594 67.777344 L 44.882812 67.777344 L 35.894531 89.5 C 35.730469 89.980469 35.628906 90.472656 35.628906 90.984375 C 35.628906 92.207031 36.007812 93.164062 36.6875 93.90625 C 37.363281 94.648438 38.335938 95.011719 39.554688 95.011719 C 40.363281 94.992188 41.140625 94.746094 41.78125 94.269531 C 42.476562 93.789062 42.953125 93.097656 43.332031 92.304688 L 53.230469 67.761719 L 60.089844 67.761719 C 62.21875 67.746094 63.953125 66.027344 63.96875 63.882812 L 63.96875 63.785156 C 63.953125 61.65625 62.21875 59.925781 60.089844 59.910156 L 56.429688 59.910156 L 63.984375 41.089844 L 84.570312 92.289062 C 84.949219 93.082031 85.429688 93.773438 86.121094 94.25 C 86.765625 94.730469 87.554688 94.976562 88.347656 94.992188 C 89.566406 94.992188 90.523438 94.628906 91.21875 93.886719 C 91.910156 93.144531 92.273438 92.191406 92.273438 90.96875 C 92.289062 90.472656 92.207031 89.960938 92.007812 89.5 Z M 92.007812 89.5 " />
</svg>
