<svg width="128" height="128" viewBox="0 0 128 128" fill="none" xmlns="http://www.w3.org/2000/svg">
  <path d="M64 128C99.3462 128 128 99.3462 128 64C128 28.6538 99.3462 0 64 0C28.6538 0 0 28.6538 0 64C0 99.3462 28.6538 128 64 128Z"
        fill="url(#paint0_linear_177_9)" />
  <path d="M92.0093 89.5009L70.368 37.1793C69.1474 34.4741 67.333 33.1545 64.9412 33.1545H63.0278C60.6361 33.1545 58.8216 34.4741 57.601 37.1793L48.1825 59.9752H41.0567C38.9289 59.9917 37.1969 61.7071 37.1804 63.8515V63.9009C37.1969 66.0288 38.9289 67.7607 41.0567 67.7772H44.8835L35.8938 89.5009C35.7289 89.9793 35.6299 90.4741 35.6299 90.9855C35.6299 92.2061 36.0093 93.1628 36.6856 93.9051C37.3618 94.6473 38.335 95.0102 39.5557 95.0102C40.3639 94.9937 41.1392 94.7463 41.7825 94.2679C42.4752 93.7896 42.9536 93.0968 43.333 92.3051L53.2299 67.7607H60.0917C62.2196 67.7442 63.9515 66.0288 63.968 63.8844V63.7855C63.9515 61.6576 62.2196 59.9257 60.0917 59.9092H56.4299L63.9845 41.0886L84.5701 92.2886C84.9495 93.0803 85.4278 93.7731 86.1206 94.2515C86.7639 94.7298 87.5557 94.9772 88.3474 94.9937C89.568 94.9937 90.5247 94.6308 91.2175 93.8886C91.9103 93.1463 92.2732 92.1896 92.2732 90.969C92.2897 90.4741 92.2072 89.9628 92.0093 89.5009Z"
        fill="white" />
  <defs>
    <linearGradient id="paint0_linear_177_9" x1="111.717" y1="23.8493" x2="16.4855" y2="103.977"
                    gradientUnits="userSpaceOnUse">
      <stop stop-color="#B6509E" />
      <stop offset="1" stop-color="#2EBAC6" />
    </linearGradient>
  </defs>
</svg>
