<svg width="128" height="128" viewBox="0 0 128 128" fill="none" xmlns="http://www.w3.org/2000/svg">
  <path d="M128 64C128 28.672 99.328 0 64 0C28.672 0 0 28.672 0 64C0 99.328 28.672 128 64 128C99.328 128 128 99.328 128 64Z"
        fill="#FF0420" />
  <path d="M45.3642 80.9984C41.5242 80.9984 38.401 80.0768 35.9946 78.2848C33.5882 76.4416 32.3594 73.8304 32.3594 70.5024C32.3594 69.7856 32.4618 68.9152 32.6154 67.8912C33.025 65.5872 33.6394 62.8224 34.4074 59.5456C36.609 50.7392 42.241 46.336 51.3034 46.336C53.761 46.336 56.0138 46.7456 57.9594 47.616C59.905 48.4352 61.441 49.664 62.5674 51.3024C63.6938 52.9408 64.257 54.8352 64.257 57.088C64.257 57.7536 64.1546 58.624 64.001 59.648C63.489 62.5152 62.9258 65.28 62.2602 67.9936C61.1338 72.3968 59.1882 75.6736 56.4234 77.8752C53.6586 80.0256 49.9722 81.1008 45.3642 81.1008V80.9984ZM46.081 74.0864C47.873 74.0864 49.409 73.5232 50.6378 72.4992C51.9178 71.424 52.8394 69.8368 53.4026 67.6352C54.1706 64.6144 54.7338 62.0032 55.0922 59.7504C55.2458 59.0848 55.297 58.368 55.297 57.6512C55.297 54.7328 53.761 53.248 50.7402 53.248C48.9482 53.248 47.4122 53.8112 46.1322 54.8352C44.8522 55.9104 43.9818 57.4976 43.4186 59.6992C42.8042 61.8496 42.241 64.4608 41.6778 67.584C41.5242 68.2496 41.473 68.9152 41.473 69.632C41.4218 72.6016 43.009 74.0864 46.081 74.0864Z"
        fill="white" />
  <path d="M66.4061 80.5376C66.0477 80.5376 65.7917 80.4352 65.5869 80.1792C65.4333 79.9232 65.3821 79.616 65.4333 79.3088L72.0893 48.0768C72.1405 47.7184 72.3453 47.4112 72.6525 47.2064C72.9597 46.9504 73.2669 46.848 73.5741 46.848H86.3741C89.9581 46.848 92.7741 47.616 94.9245 49.0496C97.1261 50.5344 98.2013 52.6848 98.2013 55.4496C98.2013 56.2688 98.0989 57.088 97.8941 57.9584C97.0749 61.6448 95.4877 64.3584 93.0301 66.1504C90.6237 67.9424 87.2957 68.8128 83.0973 68.8128H76.5949L74.3933 79.36C74.2909 79.7184 74.1373 80.0256 73.8301 80.2304C73.5229 80.4864 73.2157 80.5888 72.9085 80.5888H66.3549L66.4061 80.5376ZM83.4045 62.1568C84.7869 62.1568 85.9133 61.7984 86.9373 61.0304C87.9613 60.2624 88.6269 59.2384 88.9853 57.856C89.0877 57.2928 89.1389 56.832 89.1389 56.4224C89.1389 55.5008 88.8317 54.784 88.3197 54.272C87.7565 53.76 86.8349 53.504 85.5037 53.504H79.7181L77.8749 62.1056H83.4045V62.1568Z"
        fill="white" />
</svg>
