<?xml version="1.0" encoding="UTF-8"?>
<svg xmlns="http://www.w3.org/2000/svg" width="128" height="128"
     viewBox="0 0 128 128">
  <path fill-rule="nonzero" fill="rgb(100%, 1.568627%, 12.54902%)" fill-opacity="1"
        d="M 128 64 C 128 28.671875 99.328125 0 64 0 C 28.671875 0 0 28.671875 0 64 C 0 99.328125 28.671875 128 64 128 C 99.328125 128 128 99.328125 128 64 Z M 128 64 " />
  <path fill-rule="nonzero" fill="rgb(100%, 100%, 100%)" fill-opacity="1"
        d="M 45.363281 81 C 41.523438 81 38.402344 80.078125 35.996094 78.285156 C 33.589844 76.441406 32.359375 73.832031 32.359375 70.503906 C 32.359375 69.785156 32.460938 68.914062 32.617188 67.890625 C 33.023438 65.585938 33.640625 62.824219 34.40625 59.546875 C 36.609375 50.738281 42.242188 46.335938 51.304688 46.335938 C 53.761719 46.335938 56.015625 46.746094 57.960938 47.617188 C 59.90625 48.433594 61.441406 49.664062 62.566406 51.300781 C 63.695312 52.941406 64.257812 54.835938 64.257812 57.089844 C 64.257812 57.753906 64.15625 58.625 64 59.648438 C 63.488281 62.515625 62.925781 65.28125 62.261719 67.992188 C 61.132812 72.398438 59.1875 75.671875 56.421875 77.875 C 53.660156 80.027344 49.972656 81.101562 45.363281 81.101562 Z M 46.082031 74.085938 C 47.871094 74.085938 49.410156 73.523438 50.636719 72.5 C 51.917969 71.425781 52.839844 69.835938 53.402344 67.636719 C 54.171875 64.613281 54.734375 62.003906 55.09375 59.75 C 55.246094 59.085938 55.296875 58.367188 55.296875 57.652344 C 55.296875 54.734375 53.761719 53.246094 50.738281 53.246094 C 48.949219 53.246094 47.414062 53.8125 46.132812 54.835938 C 44.851562 55.910156 43.980469 57.496094 43.417969 59.699219 C 42.804688 61.847656 42.242188 64.460938 41.679688 67.585938 C 41.523438 68.25 41.472656 68.914062 41.472656 69.632812 C 41.421875 72.601562 43.007812 74.085938 46.082031 74.085938 Z M 46.082031 74.085938 " />
  <path fill-rule="nonzero" fill="rgb(100%, 100%, 100%)" fill-opacity="1"
        d="M 66.40625 80.539062 C 66.046875 80.539062 65.792969 80.433594 65.585938 80.179688 C 65.433594 79.921875 65.382812 79.617188 65.433594 79.308594 L 72.089844 48.078125 C 72.140625 47.71875 72.34375 47.410156 72.652344 47.207031 C 72.960938 46.949219 73.265625 46.847656 73.574219 46.847656 L 86.375 46.847656 C 89.957031 46.847656 92.773438 47.617188 94.925781 49.050781 C 97.125 50.535156 98.203125 52.683594 98.203125 55.449219 C 98.203125 56.269531 98.097656 57.089844 97.894531 57.957031 C 97.074219 61.644531 95.488281 64.359375 93.03125 66.152344 C 90.625 67.941406 87.296875 68.8125 83.097656 68.8125 L 76.59375 68.8125 L 74.394531 79.359375 C 74.289062 79.71875 74.136719 80.027344 73.832031 80.230469 C 73.523438 80.488281 73.214844 80.589844 72.910156 80.589844 L 66.355469 80.589844 Z M 83.40625 62.15625 C 84.785156 62.15625 85.914062 61.796875 86.9375 61.03125 C 87.960938 60.261719 88.625 59.238281 88.984375 57.855469 C 89.085938 57.292969 89.140625 56.832031 89.140625 56.421875 C 89.140625 55.5 88.832031 54.785156 88.320312 54.273438 C 87.757812 53.761719 86.835938 53.503906 85.503906 53.503906 L 79.71875 53.503906 L 77.875 62.105469 L 83.40625 62.105469 Z M 83.40625 62.15625 " />
</svg>
