<?xml version="1.0" encoding="UTF-8"?>
<svg xmlns="http://www.w3.org/2000/svg" width="128" height="128"
     viewBox="0 0 128 128">
  <path fill-rule="nonzero" fill="rgb(100%, 27.843137%, 29.803922%)" fill-opacity="1"
        d="M 127.148438 64 C 127.148438 99.074219 98.71875 127.503906 63.644531 127.503906 C 28.574219 127.503906 0.140625 99.074219 0.140625 64 C 0.140625 28.929688 28.574219 0.496094 63.644531 0.496094 C 98.71875 0.496094 127.148438 28.929688 127.148438 64 " />
  <path fill-rule="evenodd" fill="rgb(100%, 100%, 100%)" fill-opacity="1"
        d="M 79.417969 48.660156 C 79.429688 39.347656 70.613281 32.628906 61.722656 35.066406 L 35.597656 42.222656 L 46.496094 60.121094 L 74.042969 52.574219 C 75.722656 52.117188 77.398438 51.894531 79.039062 51.890625 C 79.285156 50.847656 79.414062 49.765625 79.417969 48.660156 Z M 83.996094 52.542969 C 84.257812 51.289062 84.398438 49.988281 84.398438 48.667969 C 84.417969 36.136719 72.523438 26.964844 60.398438 30.289062 L 27.925781 39.183594 L 44.183594 65.894531 L 75.367188 57.351562 C 75.785156 57.238281 76.207031 57.144531 76.625 57.070312 C 74.804688 59.507812 72.199219 61.355469 69.121094 62.203125 L 34.769531 71.6875 L 51.023438 98.398438 L 84.097656 89.265625 C 92.347656 86.988281 98.042969 79.472656 98.042969 70.925781 C 98.042969 61.945312 91.925781 54.699219 83.996094 52.542969 Z M 82.347656 57.242188 C 79.984375 61.902344 75.746094 65.519531 70.453125 66.980469 C 70.453125 66.980469 70.457031 66.980469 70.453125 66.980469 L 42.433594 74.714844 L 53.332031 92.617188 L 82.765625 84.492188 C 88.832031 82.816406 93.058594 77.273438 93.058594 70.925781 C 93.058594 64.121094 88.351562 58.710938 82.347656 57.242188 Z M 82.347656 57.242188 " />
</svg>
