<svg width="128" height="128" viewBox="0 0 128 128" fill="none" xmlns="http://www.w3.org/2000/svg">
  <path fill-rule="evenodd" clip-rule="evenodd"
        d="M64 128.003C28.8 128.003 0 99.2026 0 63.6826C0.32 28.4826 28.8 -0.317359 64.32 0.00264114C99.52 0.322641 128 28.8026 128 64.6426C127.68 99.5226 99.2 128.003 64 128.003Z"
        fill="#0090FF" />
  <path fill-rule="evenodd" clip-rule="evenodd"
        d="M70.0803 56.3226L68.1603 66.5626L86.4003 69.1226L85.1203 73.9226L67.2003 71.3626C65.9203 75.5226 65.2803 80.0026 63.6803 83.8426C62.0803 88.3226 60.4803 92.8026 58.5603 96.9626C56.0003 102.403 51.5203 106.243 45.4403 107.203C41.9203 107.843 38.0803 107.523 35.2003 105.283C34.2403 104.643 33.2803 103.363 33.2803 102.403C33.2803 101.123 33.9203 99.5226 34.8803 98.8826C35.5203 98.5626 37.1203 98.8826 38.0803 99.2026C39.0403 100.163 40.0003 101.443 40.6403 102.723C42.5603 105.283 45.1203 105.603 47.6803 103.683C50.5603 101.123 52.1603 97.6026 53.1203 94.0826C55.0403 86.4026 56.9603 79.0426 58.5603 71.3626V70.0826L41.6003 67.5226L42.2403 62.7226L59.8403 65.2826L62.0803 55.3626L43.8403 52.4826L44.4803 47.3626L63.3603 49.9226C64.0003 48.0026 64.3203 46.4026 64.9603 44.8026C66.5603 39.0426 68.1603 33.2826 72.0003 28.1626C75.8403 23.0426 80.3203 19.8426 87.0403 20.1626C89.9203 20.1626 92.8003 21.1226 94.7203 23.3626C95.0403 23.6826 95.6803 24.3226 95.6803 24.9626C95.6803 26.2426 95.6803 27.8426 94.7203 28.8026C93.4403 29.7626 91.8403 29.4426 90.5603 28.1626C89.6003 27.2026 88.9603 26.2426 88.0003 25.2826C86.0803 22.7226 83.2003 22.4026 80.9603 24.6426C79.3603 26.2426 77.7603 28.4826 76.8003 30.7226C74.5603 37.4426 72.9603 44.4826 70.7203 51.5226L88.3203 54.0826L87.0403 58.8826L70.0803 56.3226Z"
        fill="white" />
</svg>
