<?xml version="1.0" encoding="UTF-8"?>
<svg xmlns="http://www.w3.org/2000/svg" width="128" height="128"
     viewBox="0 0 128 128">
  <path fill-rule="evenodd" fill="rgb(0%, 56.470588%, 100%)" fill-opacity="1"
        d="M 64 128.003906 C 28.800781 128.003906 0 99.203125 0 63.683594 C 0.320312 28.484375 28.800781 -0.316406 64.320312 0.00390625 C 99.519531 0.324219 128 28.800781 128 64.644531 C 127.679688 99.523438 99.199219 128.003906 64 128.003906 Z M 64 128.003906 " />
  <path fill-rule="evenodd" fill="rgb(100%, 100%, 100%)" fill-opacity="1"
        d="M 70.082031 56.324219 L 68.160156 66.5625 L 86.398438 69.121094 L 85.121094 73.921875 L 67.199219 71.363281 C 65.921875 75.523438 65.28125 80.003906 63.679688 83.84375 C 62.082031 88.324219 60.480469 92.800781 58.558594 96.960938 C 56 102.402344 51.519531 106.242188 45.441406 107.203125 C 41.921875 107.84375 38.082031 107.523438 35.199219 105.28125 C 34.242188 104.644531 33.28125 103.363281 33.28125 102.402344 C 33.28125 101.121094 33.921875 99.523438 34.878906 98.882812 C 35.519531 98.5625 37.121094 98.882812 38.082031 99.203125 C 39.039062 100.164062 40 101.441406 40.640625 102.722656 C 42.558594 105.28125 45.121094 105.601562 47.679688 103.683594 C 50.558594 101.121094 52.160156 97.601562 53.121094 94.082031 C 55.039062 86.402344 56.960938 79.042969 58.558594 71.363281 L 58.558594 70.082031 L 41.601562 67.523438 L 42.242188 62.722656 L 59.839844 65.28125 L 62.082031 55.363281 L 43.839844 52.484375 L 44.480469 47.363281 L 63.359375 49.921875 C 64 48.003906 64.320312 46.402344 64.960938 44.800781 C 66.558594 39.042969 68.160156 33.28125 72 28.164062 C 75.839844 23.042969 80.320312 19.84375 87.039062 20.164062 C 89.921875 20.164062 92.800781 21.121094 94.71875 23.363281 C 95.039062 23.683594 95.679688 24.324219 95.679688 24.960938 C 95.679688 26.242188 95.679688 27.84375 94.71875 28.800781 C 93.441406 29.761719 91.839844 29.441406 90.558594 28.164062 C 89.601562 27.203125 88.960938 26.242188 88 25.28125 C 86.082031 22.722656 83.199219 22.402344 80.960938 24.644531 C 79.359375 26.242188 77.761719 28.484375 76.800781 30.722656 C 74.558594 37.441406 72.960938 44.484375 70.71875 51.523438 L 88.320312 54.082031 L 87.039062 58.882812 Z M 70.082031 56.324219 " />
</svg>
