<svg width="128" height="128" viewBox="0 0 128 128" fill="none" xmlns="http://www.w3.org/2000/svg">
  <g clip-path="url(#clip0_185_45)">
    <path d="M64 128C99.3462 128 128 99.3462 128 64C128 28.6538 99.3462 0 64 0C28.6538 0 0 28.6538 0 64C0 99.3462 28.6538 128 64 128Z"
          fill="#1969FF" />
    <path d="M60.1191 20.3526C62.2753 19.2158 65.5561 19.2158 67.7123 20.3526L89.7144 31.9519C91.013 32.6365 91.7262 33.6566 91.854 34.7098H91.875V93.0138C91.8464 94.1626 91.1265 95.3037 89.7144 96.0481L67.7123 107.647C65.5561 108.784 62.2753 108.784 60.1191 107.647L38.117 96.0481C36.7109 95.3068 36.0361 94.1577 36.0027 93.0138C35.9993 92.8964 35.999 92.7997 36.0026 92.72L36.0027 35.1023C35.9994 35.0213 35.9994 34.9406 36.0026 34.8602L36.0027 34.7098H36.0125C36.1103 33.645 36.7911 32.6509 38.117 31.9519L60.1191 20.3526ZM88.375 67.125L67.7056 78.0575C65.5525 79.1964 62.2764 79.1964 60.1234 78.0575L39.5 67.1494V92.8337L60.1234 103.684C61.3421 104.336 62.6093 104.971 63.8433 104.999L63.9145 105C65.146 105.004 66.3417 104.378 67.5541 103.785L88.375 92.7401V67.125ZM32.553 91.75C32.553 93.9851 32.8104 95.4541 33.3216 96.489C33.7453 97.3469 34.3811 98.0024 35.5419 98.8001L35.6082 98.8453C35.8629 99.0187 36.1435 99.2003 36.4851 99.4135L36.888 99.6624L38.125 100.416L36.3508 103.375L34.9662 102.531L34.7335 102.387C34.3332 102.138 34.0014 101.924 33.6919 101.713C30.3836 99.4628 29.1497 97.0094 29.1254 91.9055L29.125 91.75H32.553ZM62.25 51.625C62.0899 51.6801 61.9399 51.7439 61.8031 51.8163L39.8346 63.453C39.8115 63.4651 39.7895 63.4773 39.7686 63.4892L39.75 63.4999L39.7845 63.5198L39.8346 63.547L61.8031 75.1837C61.9399 75.2561 62.0899 75.32 62.25 75.375V51.625ZM65.75 51.625V75.375C65.9102 75.32 66.0603 75.2561 66.197 75.1837L88.1653 63.547C88.1884 63.5349 88.2104 63.5227 88.2313 63.5108L88.25 63.4999L88.2155 63.4802L88.1653 63.453L66.197 51.8163C66.0603 51.7439 65.9102 51.6801 65.75 51.625ZM88.375 38.875L68.625 49.25L88.375 59.625V38.875ZM39.5 38.875V59.625L59.25 49.25L39.5 38.875ZM66.1778 23.4534C65.0344 22.8489 62.9656 22.8489 61.8222 23.4534L39.8346 35.078C39.8116 35.0902 39.7896 35.1022 39.7686 35.1142L39.75 35.125L39.7845 35.1447L39.8346 35.172L61.8222 46.7966C62.9656 47.4011 65.0344 47.4011 66.1778 46.7966L88.1653 35.172C88.1884 35.1598 88.2104 35.1477 88.2313 35.1358L88.25 35.125L88.2155 35.1052L88.1653 35.078L66.1778 23.4534ZM91.6492 24.625L93.0338 25.4687L93.2665 25.6128C93.6668 25.8621 93.9986 26.0763 94.3081 26.2868C97.6165 28.5372 98.8503 30.9906 98.8747 36.0945L98.875 36.25H95.4471C95.4471 34.0148 95.1896 32.5459 94.6783 31.5109C94.2547 30.6531 93.619 29.9976 92.4582 29.1999L92.3919 29.1546C92.1371 28.9813 91.8565 28.7998 91.5149 28.5864L91.1121 28.3375L89.875 27.5843L91.6492 24.625Z"
          fill="white" />
  </g>
  <defs>
    <clipPath id="clip0_185_45">
      <rect width="128" height="128" fill="white" />
    </clipPath>
  </defs>
</svg>
