<?xml version="1.0" encoding="UTF-8"?>
<svg xmlns="http://www.w3.org/2000/svg" width="128" height="128"
     viewBox="0 0 128 128">
  <path fill-rule="nonzero" fill="rgb(9.803922%, 41.176471%, 100%)" fill-opacity="1"
        d="M 64 128 C 99.347656 128 128 99.347656 128 64 C 128 28.652344 99.347656 0 64 0 C 28.652344 0 0 28.652344 0 64 C 0 99.347656 28.652344 128 64 128 Z M 64 128 " />
  <path fill-rule="nonzero" fill="rgb(100%, 100%, 100%)" fill-opacity="1"
        d="M 60.117188 20.351562 C 62.273438 19.214844 65.554688 19.214844 67.710938 20.351562 L 89.714844 31.953125 C 91.011719 32.636719 91.726562 33.65625 91.855469 34.710938 L 91.875 34.710938 L 91.875 93.015625 C 91.847656 94.164062 91.125 95.304688 89.714844 96.046875 L 67.710938 107.648438 C 65.554688 108.785156 62.273438 108.785156 60.117188 107.648438 L 38.117188 96.046875 C 36.710938 95.308594 36.035156 94.15625 36.003906 93.015625 C 36 92.894531 36 92.800781 36.003906 92.71875 L 36.003906 35.101562 C 36 35.019531 36 34.941406 36.003906 34.859375 L 36.003906 34.710938 L 36.011719 34.710938 C 36.109375 33.644531 36.792969 32.652344 38.117188 31.953125 Z M 88.375 67.125 L 67.707031 78.058594 C 65.550781 79.195312 62.277344 79.195312 60.125 78.058594 L 39.5 67.148438 L 39.5 92.832031 L 60.125 103.683594 C 61.34375 104.335938 62.609375 104.972656 63.84375 105 L 63.914062 105 C 65.144531 105.003906 66.339844 104.378906 67.554688 103.785156 L 88.375 92.738281 Z M 32.554688 91.75 C 32.554688 93.984375 32.808594 95.453125 33.320312 96.488281 C 33.746094 97.347656 34.382812 98.003906 35.542969 98.800781 L 35.609375 98.84375 C 35.863281 99.019531 36.144531 99.199219 36.484375 99.414062 L 36.886719 99.664062 L 38.125 100.414062 L 36.351562 103.375 L 34.964844 102.53125 L 34.734375 102.386719 C 34.332031 102.136719 34 101.925781 33.691406 101.714844 C 30.382812 99.460938 29.148438 97.007812 29.125 91.90625 L 29.125 91.75 Z M 62.25 51.625 C 62.089844 51.679688 61.941406 51.742188 61.804688 51.816406 L 39.835938 63.453125 C 39.8125 63.464844 39.789062 63.476562 39.769531 63.488281 L 39.75 63.5 L 39.785156 63.519531 L 39.835938 63.546875 L 61.804688 75.183594 C 61.941406 75.257812 62.089844 75.320312 62.25 75.375 Z M 65.75 51.625 L 65.75 75.375 C 65.910156 75.320312 66.058594 75.257812 66.195312 75.183594 L 88.164062 63.546875 C 88.1875 63.535156 88.210938 63.523438 88.230469 63.511719 L 88.25 63.5 L 88.214844 63.480469 L 88.164062 63.453125 L 66.195312 51.816406 C 66.058594 51.742188 65.910156 51.679688 65.75 51.625 Z M 88.375 38.875 L 68.625 49.25 L 88.375 59.625 Z M 39.5 38.875 L 39.5 59.625 L 59.25 49.25 Z M 66.179688 23.453125 C 65.035156 22.847656 62.964844 22.847656 61.820312 23.453125 L 39.835938 35.078125 C 39.8125 35.089844 39.789062 35.101562 39.769531 35.113281 L 39.75 35.125 L 39.785156 35.144531 L 39.835938 35.171875 L 61.820312 46.796875 C 62.964844 47.402344 65.035156 47.402344 66.179688 46.796875 L 88.164062 35.171875 C 88.1875 35.160156 88.210938 35.148438 88.230469 35.136719 L 88.25 35.125 L 88.214844 35.105469 L 88.164062 35.078125 Z M 91.648438 24.625 L 93.035156 25.46875 L 93.265625 25.613281 C 93.667969 25.863281 94 26.078125 94.308594 26.285156 C 97.617188 28.539062 98.851562 30.992188 98.875 36.09375 L 98.875 36.25 L 95.445312 36.25 C 95.445312 34.015625 95.191406 32.546875 94.679688 31.511719 C 94.253906 30.652344 93.617188 29.996094 92.457031 29.199219 L 92.390625 29.15625 C 92.136719 28.980469 91.855469 28.800781 91.515625 28.585938 L 91.113281 28.335938 L 89.875 27.585938 Z M 91.648438 24.625 " />
</svg>
