<?xml version="1.0" encoding="UTF-8"?>
<svg xmlns="http://www.w3.org/2000/svg" width="128" height="128"
     viewBox="0 0 128 128">
  <path fill-rule="nonzero" fill="rgb(95.686275%, 95.686275%, 95.686275%)" fill-opacity="1"
        d="M 128 64 C 128 99.347656 99.347656 128 64 128 C 28.652344 128 0 99.347656 0 64 C 0 28.652344 28.652344 0 64 0 C 99.347656 0 128 28.652344 128 64 " />
  <path fill-rule="nonzero" fill="rgb(20.392157%, 20.392157%, 20.392157%)" fill-opacity="1"
        d="M 63.992188 16 L 63.355469 18.1875 L 63.355469 81.664062 L 63.992188 82.308594 L 92.980469 64.890625 Z M 63.992188 16 " />
  <path fill-rule="nonzero" fill="rgb(54.901961%, 54.901961%, 54.901961%)" fill-opacity="1"
        d="M 63.992188 16 L 35 64.890625 L 63.992188 82.308594 Z M 63.992188 16 " />
  <path fill-rule="nonzero" fill="rgb(23.529412%, 23.529412%, 23.137255%)" fill-opacity="1"
        d="M 63.992188 87.886719 L 63.636719 88.328125 L 63.636719 110.941406 L 63.992188 112 L 93 70.476562 Z M 63.992188 87.886719 " />
  <path fill-rule="nonzero" fill="rgb(54.901961%, 54.901961%, 54.901961%)" fill-opacity="1"
        d="M 63.992188 112 L 63.992188 87.886719 L 35 70.476562 Z M 63.992188 112 " />
  <path fill-rule="nonzero" fill="rgb(7.843137%, 7.843137%, 7.843137%)" fill-opacity="1"
        d="M 63.992188 82.308594 L 92.984375 64.890625 L 63.992188 51.496094 Z M 63.992188 82.308594 " />
  <path fill-rule="nonzero" fill="rgb(22.352941%, 22.352941%, 22.352941%)" fill-opacity="1"
        d="M 35 64.890625 L 63.992188 82.308594 L 63.992188 51.496094 Z M 35 64.890625 " />
</svg>
