<svg width="128" height="128" viewBox="0 0 128 128" fill="none" xmlns="http://www.w3.org/2000/svg">
  <g clip-path="url(#clip0_190_59)">
    <path d="M103.473 21.9575H24.4419V93.7872H103.473V21.9575Z" fill="white" />
    <path fill-rule="evenodd" clip-rule="evenodd"
          d="M127.957 64C127.957 99.2995 99.323 127.915 63.9999 127.915C28.6772 127.915 0.0424805 99.2995 0.0424805 64C0.0424805 28.7007 28.6772 0.085083 63.9999 0.085083C99.323 0.085083 127.957 28.7007 127.957 64ZM45.8762 89.4349H33.4639C30.8556 89.4349 29.5673 89.4349 28.7818 88.9327C27.9333 88.3829 27.4148 87.4723 27.352 86.4672C27.3048 85.5412 27.949 84.4104 29.2374 82.1493L59.885 28.1647C61.1891 25.8722 61.8489 24.726 62.6817 24.3021C63.5772 23.8468 64.6457 23.8468 65.5413 24.3021C66.374 24.726 67.0339 25.8722 68.3379 28.1647L74.6385 39.1556L74.6706 39.2117C76.0791 41.671 76.7933 42.9182 77.1052 44.2271C77.4508 45.656 77.4508 47.1633 77.1052 48.5921C76.791 49.911 76.0839 51.1672 74.6541 53.6637L58.5557 82.1023L58.514 82.1751C57.0962 84.6547 56.3777 85.9115 55.3819 86.8595C54.2978 87.8961 52.9937 88.6493 51.5639 89.074C50.2598 89.4349 48.7986 89.4349 45.8762 89.4349ZM77.2215 89.4349H95.0069C97.6308 89.4349 98.9508 89.4349 99.7368 88.9174C100.585 88.3676 101.119 87.4408 101.167 86.4366C101.212 85.5404 100.582 84.4536 99.3468 82.324C99.3042 82.2515 99.2616 82.1777 99.2182 82.1026L90.3093 66.8723L90.208 66.7008C88.9561 64.5852 88.3242 63.5169 87.5125 63.104C86.6175 62.6486 85.564 62.6486 84.6689 63.104C83.8518 63.5279 83.192 64.6427 81.8879 66.888L73.0107 82.1184L72.9802 82.1708C71.6807 84.4125 71.0313 85.5327 71.0781 86.4519C71.141 87.457 71.6595 88.3829 72.5078 88.9327C73.2778 89.4349 74.5976 89.4349 77.2215 89.4349Z"
          fill="#AAAAAA" />
  </g>
  <defs>
    <clipPath id="clip0_190_59">
      <rect width="128" height="128" fill="white" />
    </clipPath>
  </defs>
</svg>
