<?xml version="1.0" encoding="UTF-8"?>
<svg xmlns="http://www.w3.org/2000/svg" width="128" height="128"
     viewBox="0 0 128 128">
  <path fill-rule="nonzero" fill="rgb(100%, 100%, 100%)" fill-opacity="1"
        d="M 103.472656 21.957031 L 24.441406 21.957031 L 24.441406 93.789062 L 103.472656 93.789062 Z M 103.472656 21.957031 " />
  <path fill-rule="evenodd" fill="rgb(66.666667%, 66.666667%, 66.666667%)" fill-opacity="1"
        d="M 127.957031 64 C 127.957031 99.300781 99.324219 127.914062 64 127.914062 C 28.675781 127.914062 0.0429688 99.300781 0.0429688 64 C 0.0429688 28.699219 28.675781 0.0859375 64 0.0859375 C 99.324219 0.0859375 127.957031 28.699219 127.957031 64 Z M 45.875 89.433594 L 33.464844 89.433594 C 30.855469 89.433594 29.566406 89.433594 28.78125 88.933594 C 27.933594 88.382812 27.414062 87.472656 27.351562 86.46875 C 27.304688 85.542969 27.949219 84.410156 29.238281 82.148438 L 59.886719 28.164062 C 61.1875 25.871094 61.847656 24.726562 62.683594 24.300781 C 63.578125 23.847656 64.644531 23.847656 65.542969 24.300781 C 66.375 24.726562 67.035156 25.871094 68.339844 28.164062 L 74.636719 39.15625 L 74.671875 39.210938 C 76.078125 41.671875 76.792969 42.917969 77.105469 44.226562 C 77.449219 45.65625 77.449219 47.164062 77.105469 48.59375 C 76.789062 49.910156 76.082031 51.167969 74.652344 53.664062 L 58.554688 82.101562 L 58.515625 82.175781 C 57.097656 84.65625 56.378906 85.910156 55.382812 86.859375 C 54.296875 87.894531 52.992188 88.648438 51.5625 89.074219 C 50.261719 89.433594 48.796875 89.433594 45.875 89.433594 Z M 77.222656 89.433594 L 95.007812 89.433594 C 97.628906 89.433594 98.949219 89.433594 99.738281 88.917969 C 100.585938 88.367188 101.117188 87.441406 101.167969 86.4375 C 101.210938 85.539062 100.582031 84.453125 99.347656 82.324219 C 99.304688 82.25 99.261719 82.175781 99.21875 82.101562 L 90.308594 66.871094 L 90.207031 66.699219 C 88.957031 64.585938 88.324219 63.515625 87.511719 63.105469 C 86.617188 62.648438 85.5625 62.648438 84.667969 63.105469 C 83.851562 63.527344 83.191406 64.644531 81.886719 66.886719 L 73.011719 82.117188 L 72.980469 82.171875 C 71.679688 84.414062 71.03125 85.53125 71.078125 86.453125 C 71.140625 87.457031 71.660156 88.382812 72.507812 88.933594 C 73.277344 89.433594 74.597656 89.433594 77.222656 89.433594 Z M 77.222656 89.433594 " />
</svg>
