<svg width="128" height="128" viewBox="0 0 128 128" fill="none" xmlns="http://www.w3.org/2000/svg">
  <circle cx="64" cy="64.0016" r="52" fill="white" />
  <path fill-rule="evenodd" clip-rule="evenodd"
        d="M64 128.002C99.3464 128.002 128 99.348 128 64.0016C128 28.6553 99.3464 0.00164795 64 0.00164795C28.6536 0.00164795 0 28.6553 0 64.0016C0 99.348 28.6536 128.002 64 128.002ZM69.3646 59.1804L72.8571 65.0339L49.4124 71.1481L45.8942 65.2962L69.3646 59.1804ZM91.3913 62.7813H92.1559L95.5449 68.4613L33.1947 85.2725L27.8906 86.6918L27.4854 86.0264C23.5732 79.6009 21.3333 72.056 21.3333 64.001C21.3333 40.4737 40.4811 21.335 64.0176 21.335C75.9701 21.335 86.7848 26.2728 94.5303 34.1986L95.78 35.4776L88.4069 37.4167L87.9902 37.0469C81.597 31.3705 73.2067 27.8923 64.0176 27.8923C44.1016 27.8923 27.8926 44.0947 27.8926 64.001C27.8926 69.35 29.0921 74.4356 31.1986 79.0085L91.3913 62.7813ZM96.8184 48.9922C98.9255 53.5658 100.125 58.6524 100.125 64.0023C100.125 83.9086 83.9163 100.111 64.0003 100.111C54.8275 100.111 46.473 96.6677 40.099 91.0101L39.6829 90.6406L32.2881 92.5788L33.5423 93.8594C41.2881 101.767 52.0664 106.668 63.9824 106.668C87.5189 106.668 106.667 87.5296 106.667 64.0023C106.667 55.9473 104.427 48.4024 100.515 41.9769L100.109 41.3102L95.3099 42.6048L46.4548 55.6185L49.971 61.4675L96.8184 48.9922Z"
        fill="#1A1A1A" />
</svg>
