<?xml version="1.0" encoding="UTF-8"?>
<svg xmlns="http://www.w3.org/2000/svg" width="128" height="128"
     viewBox="0 0 128 128">
  <path fill-rule="nonzero" fill="rgb(100%, 100%, 100%)" fill-opacity="1"
        d="M 116 64 C 116 92.71875 92.71875 116 64 116 C 35.28125 116 12 92.71875 12 64 C 12 35.28125 35.28125 12 64 12 C 92.71875 12 116 35.28125 116 64 " />
  <path fill-rule="evenodd" fill="rgb(10.196078%, 10.196078%, 10.196078%)" fill-opacity="1"
        d="M 64 128.003906 C 99.347656 128.003906 128 99.347656 128 64 C 128 28.65625 99.347656 0 64 0 C 28.652344 0 0 28.65625 0 64 C 0 99.347656 28.652344 128.003906 64 128.003906 Z M 69.363281 59.179688 L 72.855469 65.035156 L 49.414062 71.148438 L 45.894531 65.296875 Z M 91.390625 62.78125 L 92.15625 62.78125 L 95.542969 68.460938 L 33.195312 85.273438 L 27.890625 86.691406 L 27.484375 86.027344 C 23.574219 79.601562 21.332031 72.054688 21.332031 64 C 21.332031 40.472656 40.480469 21.335938 64.019531 21.335938 C 75.96875 21.335938 86.785156 26.273438 94.53125 34.199219 L 95.78125 35.476562 L 88.40625 37.417969 L 87.988281 37.046875 C 81.597656 31.371094 73.207031 27.890625 64.019531 27.890625 C 44.101562 27.890625 27.894531 44.09375 27.894531 64 C 27.894531 69.351562 29.09375 74.4375 31.199219 79.007812 Z M 96.820312 48.992188 C 98.925781 53.566406 100.125 58.652344 100.125 64.003906 C 100.125 83.910156 83.917969 100.109375 64 100.109375 C 54.828125 100.109375 46.472656 96.667969 40.097656 91.011719 L 39.683594 90.640625 L 32.289062 92.578125 L 33.542969 93.859375 C 41.289062 101.765625 52.066406 106.667969 63.980469 106.667969 C 87.519531 106.667969 106.667969 87.53125 106.667969 64.003906 C 106.667969 55.949219 104.425781 48.402344 100.515625 41.976562 L 100.109375 41.308594 L 95.308594 42.605469 L 46.453125 55.617188 L 49.972656 61.46875 Z M 96.820312 48.992188 " />
</svg>
