<?xml version="1.0" encoding="UTF-8"?>
<svg xmlns="http://www.w3.org/2000/svg" width="128" height="128"
     viewBox="0 0 128 128">
  <path fill-rule="nonzero" fill="rgb(0%, 0%, 0%)" fill-opacity="1"
        d="M 128 64 C 128 99.347656 99.347656 128 64 128 C 28.652344 128 0 99.347656 0 64 C 0 28.652344 28.652344 0 64 0 C 99.347656 0 128 28.652344 128 64 " />
  <path fill-rule="nonzero" fill="rgb(100%, 100%, 100%)" fill-opacity="1"
        d="M 63.855469 10.238281 L 38.695312 44.863281 L 28.160156 96.039062 L 63.855469 117.761719 L 99.554688 96.039062 L 88.800781 44.644531 Z M 33.964844 93.675781 L 41.921875 54.753906 L 59.984375 109.589844 Z M 44.503906 45.9375 L 63.855469 19.273438 L 83.210938 45.9375 L 63.855469 104.429688 Z M 67.511719 109.589844 L 85.574219 54.753906 L 93.53125 93.675781 Z M 67.511719 109.589844 " />
</svg>
