<?xml version="1.0" encoding="UTF-8"?>
<svg xmlns="http://www.w3.org/2000/svg" width="128" height="128"
     viewBox="0 0 128 128">
  <path fill-rule="nonzero" fill="rgb(16.862745%, 16.862745%, 16.862745%)" fill-opacity="1"
        d="M 10.601562 121 L 32.125 121 C 37.191406 121 39.726562 121 41.988281 120.371094 C 44.464844 119.632812 46.726562 118.320312 48.605469 116.515625 C 50.332031 114.867188 51.578125 112.679688 54.035156 108.363281 L 54.039062 108.359375 L 54.109375 108.234375 L 82.023438 58.71875 C 84.503906 54.371094 85.730469 52.183594 86.273438 49.886719 C 86.875 47.398438 86.875 44.773438 86.273438 42.285156 C 85.734375 40.007812 84.496094 37.835938 82.054688 33.554688 L 81.996094 33.457031 L 71.070312 14.320312 C 68.8125 10.328125 67.667969 8.332031 66.222656 7.59375 C 64.671875 6.800781 62.816406 6.800781 61.265625 7.59375 C 59.820312 8.332031 58.675781 10.328125 56.414062 14.320312 L 3.273438 108.316406 C 1.039062 112.253906 -0.078125 114.222656 0.00390625 115.832031 C 0.113281 117.582031 1.011719 119.167969 2.484375 120.125 C 3.84375 121 6.078125 121 10.601562 121 Z M 10.601562 121 " />
  <path fill-rule="nonzero" fill="rgb(16.862745%, 16.862745%, 16.862745%)" fill-opacity="1"
        d="M 117.316406 121 L 86.476562 121 C 81.925781 121 79.636719 121 78.300781 120.125 C 76.832031 119.167969 75.933594 117.554688 75.824219 115.804688 C 75.742188 114.207031 76.867188 112.257812 79.121094 108.351562 L 79.175781 108.261719 L 94.566406 81.742188 C 96.828125 77.832031 97.972656 75.890625 99.390625 75.152344 C 100.941406 74.359375 102.769531 74.359375 104.320312 75.152344 C 105.726562 75.871094 106.820312 77.730469 108.992188 81.410156 L 108.992188 81.417969 L 109.171875 81.714844 L 124.617188 108.234375 C 124.691406 108.363281 124.765625 108.492188 124.839844 108.617188 C 126.980469 112.328125 128.074219 114.21875 127.996094 115.78125 C 127.914062 117.527344 126.988281 119.140625 125.515625 120.097656 C 124.152344 121 121.863281 121 117.316406 121 Z M 117.316406 121 " />
</svg>
