<svg width="128" height="128" viewBox="0 0 128 128" fill="none" xmlns="http://www.w3.org/2000/svg">
  <path d="M10.602 121H32.1245C37.1919 121 39.7254 121 41.9867 120.372C44.4659 119.632 46.7272 118.321 48.607 116.516C50.3334 114.866 51.5791 112.678 54.0366 108.362L54.038 108.36L54.1102 108.233L82.0243 58.7173C84.5035 54.3706 85.7294 52.1834 86.2743 49.887C86.8736 47.3992 86.8736 44.7747 86.2743 42.2869C85.7336 40.0078 84.4951 37.8364 82.0528 33.5543L81.9971 33.4567L71.0722 14.3198C68.8111 10.3284 67.6668 8.33268 66.2229 7.59458C64.67 6.80181 62.8174 6.80181 61.2645 7.59458C59.8206 8.33268 58.6764 10.3284 56.4152 14.3198L3.27344 108.315C1.0395 112.252 -0.0776188 114.221 0.00418993 115.833C0.11317 117.583 1.01218 119.168 2.48341 120.126C3.84551 121 6.07945 121 10.602 121Z"
        fill="#2B2B2B" />
  <path d="M117.315 121H86.4759C81.9262 121 79.6378 121 78.3027 120.126C76.8316 119.168 75.9326 117.556 75.8236 115.806C75.7424 114.206 76.8684 112.256 79.1213 108.353L79.1218 108.352L79.1746 108.261L94.5673 81.7427C96.8286 77.8333 97.9727 75.8923 99.3894 75.1542C100.942 74.3612 102.768 74.3612 104.32 75.1542C105.727 75.8728 106.822 77.7314 108.991 81.4113L108.994 81.4168L109.17 81.7154L124.617 108.234C124.693 108.364 124.767 108.493 124.84 108.619L124.841 108.619C126.982 112.327 128.074 114.219 127.996 115.78C127.913 117.528 126.987 119.142 125.517 120.099C124.154 121 121.865 121 117.315 121Z"
        fill="#2B2B2B" />
</svg>
