<svg width="128" height="128" viewBox="0 0 128 128" fill="none" xmlns="http://www.w3.org/2000/svg">
  <path d="M64 128C99.3462 128 128 99.3462 128 64C128 28.6538 99.3462 0 64 0C28.6538 0 0 28.6538 0 64C0 99.3462 28.6538 128 64 128Z"
        fill="#FF0420" />
  <path d="M45.3376 80.9987C41.5232 80.9987 38.4 80.1027 35.968 78.3107C33.5616 76.4931 32.3584 73.8819 32.3584 70.5283C32.3584 69.8115 32.4352 68.9667 32.5888 67.9427C32.9984 65.6387 33.5872 62.8739 34.3552 59.6227C36.5312 50.8163 42.1632 46.4131 51.2256 46.4131C53.6832 46.4131 55.9104 46.8227 57.856 47.6675C59.8016 48.4611 61.3376 49.6899 62.464 51.3283C63.5904 52.9411 64.1536 54.8611 64.1536 57.0883C64.1536 57.7539 64.0768 58.5987 63.9232 59.6227C63.4368 62.4643 62.8736 65.2547 62.1824 67.9427C61.056 72.3203 59.136 75.6227 56.3712 77.7987C53.632 79.9491 49.9456 80.9987 45.3376 80.9987ZM46.0288 74.0867C47.8208 74.0867 49.3312 73.5491 50.5856 72.4995C51.8656 71.4499 52.7872 69.8371 53.3248 67.6355C54.0672 64.6147 54.6304 62.0035 55.0144 59.7507C55.1424 59.0851 55.2192 58.3939 55.2192 57.6771C55.2192 54.7587 53.7088 53.2995 50.6624 53.2995C48.8704 53.2995 47.3344 53.8371 46.0544 54.8867C44.8 55.9363 43.904 57.5491 43.3664 59.7507C42.7776 61.9011 42.2144 64.5123 41.6256 67.6355C41.4976 68.2755 41.4208 68.9411 41.4208 69.6579C41.3952 72.6275 42.9568 74.0867 46.0288 74.0867Z"
        fill="white" />
  <path d="M66.3807 80.5378C66.0223 80.5378 65.7663 80.4354 65.5615 80.205C65.4079 79.949 65.3567 79.6674 65.4079 79.3346L72.0383 48.1026C72.0895 47.7442 72.2687 47.4626 72.5759 47.2322C72.8575 47.0018 73.1647 46.8994 73.4975 46.8994H86.2719C89.8303 46.8994 92.6719 47.6418 94.8223 49.101C96.9983 50.5858 98.0991 52.7106 98.0991 55.501C98.0991 56.2946 97.9967 57.1394 97.8175 58.0098C97.0239 61.6962 95.4111 64.4098 92.9535 66.1762C90.5471 67.9426 87.2447 68.813 83.0463 68.813H76.5695L74.3679 79.3346C74.2911 79.693 74.1375 79.9746 73.8303 80.205C73.5487 80.4354 73.2415 80.5378 72.9087 80.5378H66.3807ZM83.3791 62.1826C84.7359 62.1826 85.8879 61.8242 86.8863 61.0818C87.9103 60.3394 88.5759 59.2898 88.9087 57.9074C89.0111 57.3698 89.0623 56.8834 89.0623 56.4738C89.0623 55.5522 88.7807 54.8354 88.2431 54.349C87.7055 53.837 86.7583 53.581 85.4527 53.581H79.6927L77.8751 62.1826H83.3791Z"
        fill="white" />
</svg>
