<?xml version="1.0" encoding="UTF-8"?>
<svg xmlns="http://www.w3.org/2000/svg" width="128" height="128"
     viewBox="0 0 128 128">
  <path fill-rule="nonzero" fill="rgb(100%, 1.568627%, 12.54902%)" fill-opacity="1"
        d="M 64 128 C 99.347656 128 128 99.347656 128 64 C 128 28.652344 99.347656 0 64 0 C 28.652344 0 0 28.652344 0 64 C 0 99.347656 28.652344 128 64 128 Z M 64 128 " />
  <path fill-rule="nonzero" fill="rgb(100%, 100%, 100%)" fill-opacity="1"
        d="M 45.335938 81 C 41.523438 81 38.398438 80.101562 35.96875 78.3125 C 33.5625 76.492188 32.359375 73.882812 32.359375 70.527344 C 32.359375 69.8125 32.433594 68.964844 32.589844 67.941406 C 33 65.640625 33.585938 62.875 34.355469 59.621094 C 36.53125 50.816406 42.164062 46.414062 51.226562 46.414062 C 53.683594 46.414062 55.910156 46.824219 57.855469 47.667969 C 59.800781 48.460938 61.335938 49.691406 62.464844 51.328125 C 63.589844 52.941406 64.152344 54.859375 64.152344 57.089844 C 64.152344 57.753906 64.078125 58.597656 63.921875 59.621094 C 63.4375 62.464844 62.875 65.253906 62.183594 67.941406 C 61.054688 72.320312 59.136719 75.621094 56.371094 77.796875 C 53.632812 79.949219 49.945312 81 45.335938 81 Z M 46.027344 74.085938 C 47.820312 74.085938 49.332031 73.550781 50.585938 72.5 C 51.867188 71.449219 52.789062 69.835938 53.324219 67.636719 C 54.066406 64.613281 54.628906 62.003906 55.015625 59.75 C 55.140625 59.085938 55.21875 58.394531 55.21875 57.675781 C 55.21875 54.757812 53.707031 53.300781 50.664062 53.300781 C 48.871094 53.300781 47.335938 53.835938 46.054688 54.886719 C 44.800781 55.9375 43.902344 57.550781 43.367188 59.75 C 42.777344 61.902344 42.214844 64.511719 41.625 67.636719 C 41.496094 68.277344 41.421875 68.941406 41.421875 69.65625 C 41.394531 72.628906 42.957031 74.085938 46.027344 74.085938 Z M 46.027344 74.085938 " />
  <path fill-rule="nonzero" fill="rgb(100%, 100%, 100%)" fill-opacity="1"
        d="M 66.378906 80.539062 C 66.023438 80.539062 65.765625 80.433594 65.5625 80.203125 C 65.40625 79.949219 65.355469 79.667969 65.40625 79.335938 L 72.039062 48.101562 C 72.089844 47.746094 72.269531 47.460938 72.574219 47.230469 C 72.859375 47 73.164062 46.898438 73.496094 46.898438 L 86.273438 46.898438 C 89.832031 46.898438 92.671875 47.640625 94.824219 49.101562 C 97 50.585938 98.097656 52.710938 98.097656 55.5 C 98.097656 56.292969 97.996094 57.140625 97.816406 58.011719 C 97.023438 61.695312 95.410156 64.410156 92.953125 66.175781 C 90.546875 67.941406 87.246094 68.8125 83.046875 68.8125 L 76.570312 68.8125 L 74.367188 79.335938 C 74.292969 79.691406 74.136719 79.972656 73.832031 80.203125 C 73.546875 80.433594 73.242188 80.539062 72.910156 80.539062 Z M 83.378906 62.183594 C 84.734375 62.183594 85.886719 61.824219 86.886719 61.082031 C 87.910156 60.339844 88.574219 59.289062 88.910156 57.90625 C 89.011719 57.371094 89.0625 56.882812 89.0625 56.472656 C 89.0625 55.550781 88.78125 54.835938 88.242188 54.347656 C 87.707031 53.835938 86.757812 53.582031 85.453125 53.582031 L 79.691406 53.582031 L 77.875 62.183594 Z M 83.378906 62.183594 " />
</svg>
