<svg width="128" height="128" viewBox="0 0 128 128" fill="none" xmlns="http://www.w3.org/2000/svg">
  <circle cx="64" cy="64" r="64" fill="#FF060A" />
  <g clip-path="url(#clip0_186_66)">
    <path d="M101.861 47.7026C98.0176 44.1535 92.7004 38.7339 88.3698 34.8901L88.1135 34.7107C87.6872 34.3684 87.2064 34.0998 86.6913 33.9164C76.2491 31.9689 27.6513 22.8848 26.7032 23.0001C26.4375 23.0373 26.1836 23.1336 25.9601 23.282L25.7166 23.4742C25.4169 23.7786 25.1892 24.1464 25.0504 24.5504L24.9863 24.717V25.6267V25.7676C30.4573 41.0017 52.0591 90.9064 56.3129 102.617C56.5691 103.411 57.056 104.923 57.9657 105H58.1707C58.6576 105 60.7332 102.258 60.7332 102.258C60.7332 102.258 97.8382 57.2607 101.592 52.4689C102.078 51.8786 102.507 51.2437 102.874 50.5726C102.967 50.0475 102.923 49.5072 102.746 49.0043C102.568 48.5013 102.264 48.0529 101.861 47.7026ZM70.2529 52.9429L86.0891 39.8101L95.3782 48.3689L70.2529 52.9429ZM64.1029 52.0845L36.8379 29.7395L80.9513 37.8754L64.1029 52.0845ZM66.5629 57.9398L94.4685 53.4426L62.5654 91.8801L66.5629 57.9398ZM33.1351 31.9689L61.8223 56.3126L57.671 91.9057L33.1351 31.9689Z"
          fill="white" />
  </g>
  <defs>
    <clipPath id="clip0_186_66">
      <rect width="82" height="82" fill="white" transform="translate(23 23)" />
    </clipPath>
  </defs>
</svg>
