<?xml version="1.0" encoding="UTF-8"?>
<svg xmlns="http://www.w3.org/2000/svg" width="128" height="128"
     viewBox="0 0 128 128">
  <path fill-rule="nonzero" fill="rgb(100%, 2.352941%, 3.921569%)" fill-opacity="1"
        d="M 128 64 C 128 99.347656 99.347656 128 64 128 C 28.652344 128 0 99.347656 0 64 C 0 28.652344 28.652344 0 64 0 C 99.347656 0 128 28.652344 128 64 " />
  <path fill-rule="nonzero" fill="rgb(100%, 100%, 100%)" fill-opacity="1"
        d="M 101.859375 47.703125 C 98.019531 44.152344 92.699219 38.734375 88.371094 34.890625 L 88.113281 34.710938 C 87.6875 34.367188 87.207031 34.101562 86.691406 33.917969 C 76.25 31.96875 27.652344 22.886719 26.703125 23 C 26.4375 23.039062 26.183594 23.132812 25.960938 23.28125 L 25.714844 23.472656 C 25.417969 23.777344 25.1875 24.144531 25.050781 24.550781 L 24.984375 24.71875 L 24.984375 25.769531 C 30.457031 41 52.058594 90.90625 56.3125 102.617188 C 56.570312 103.410156 57.054688 104.921875 57.964844 105 L 58.171875 105 C 58.65625 105 60.734375 102.257812 60.734375 102.257812 C 60.734375 102.257812 97.839844 57.261719 101.59375 52.46875 C 102.078125 51.878906 102.507812 51.242188 102.875 50.574219 C 102.96875 50.046875 102.921875 49.507812 102.746094 49.003906 C 102.566406 48.5 102.265625 48.054688 101.859375 47.703125 Z M 70.253906 52.941406 L 86.089844 39.808594 L 95.378906 48.367188 Z M 64.101562 52.085938 L 36.839844 29.738281 L 80.953125 37.875 Z M 66.5625 57.941406 L 94.46875 53.441406 L 62.566406 91.878906 Z M 33.136719 31.96875 L 61.824219 56.3125 L 57.671875 91.90625 Z M 33.136719 31.96875 " />
</svg>
