<svg width="128" height="128" viewBox="0 0 128 128" fill="none" xmlns="http://www.w3.org/2000/svg">
  <path fill-rule="evenodd" clip-rule="evenodd"
        d="M64 0C99.328 0 128 28.672 128 64C128 99.328 99.328 128 64 128C28.672 128 0 99.328 0 64C0 28.672 28.672 0 64 0Z"
        fill="#CF1011" />
  <path fill-rule="evenodd" clip-rule="evenodd"
        d="M63.9999 48.8447C72.3455 48.8447 79.1551 55.6031 79.1551 63.9999C79.1551 72.3455 72.3967 79.1551 63.9999 79.1551C55.6543 79.1551 48.8447 72.3967 48.8447 63.9999C48.8447 55.6543 55.6031 48.8447 63.9999 48.8447Z"
        fill="white" />
  <path fill-rule="evenodd" clip-rule="evenodd"
        d="M64.3579 24.3715C69.1195 24.4227 73.8299 25.3443 78.2331 27.0339C82.6363 28.7235 86.7323 31.1811 90.3163 34.3555L90.4187 34.4579C98.5595 41.7283 103.014 51.5587 103.577 61.6451C104.192 71.7827 100.915 82.1251 93.6955 90.3171L93.5931 90.4195C86.3227 98.5603 76.4923 103.015 66.4059 103.578C56.2683 104.192 45.9259 100.916 37.7339 93.6963C29.5419 86.4259 25.0363 76.5443 24.4731 66.4067C23.8587 56.2691 27.1355 45.9267 34.3547 37.7347L37.7851 40.7555C31.3851 47.9747 28.5179 57.1395 29.0299 66.0995C29.5931 75.0595 33.5355 83.8147 40.7547 90.2147C47.9739 96.6147 57.1387 99.4819 66.0987 98.9699C75.0587 98.4067 83.8139 94.4643 90.2139 87.2451L90.3163 87.1427C96.6651 79.9235 99.5323 70.8099 98.9691 61.9011C98.4059 52.9411 94.4635 44.1859 87.2443 37.7859L87.1419 37.6835C84.0187 34.9187 80.4347 32.7683 76.5947 31.2835C72.7035 29.7987 68.5563 28.9795 64.3579 28.9283L64.4091 24.3203L64.3579 24.3715Z"
        fill="white" />
  <path d="M41.4719 24.6279C44.2367 24.6279 46.6943 25.7543 48.4863 27.5463C50.2783 29.3383 51.4047 31.8471 51.4047 34.5607C51.4047 37.3255 50.2783 39.7831 48.4863 41.5751C46.6943 43.3671 44.1855 44.4935 41.4719 44.4935C38.7071 44.4935 36.2495 43.3671 34.4575 41.5751C32.6655 39.7831 31.5391 37.2743 31.5391 34.5607C31.5391 31.7959 32.6655 29.3383 34.4575 27.5463C36.2495 25.7543 38.7583 24.6279 41.4719 24.6279ZM45.2607 30.8231C44.2879 29.8503 42.9567 29.2359 41.4719 29.2359C39.9871 29.2359 38.6559 29.8503 37.6831 30.8231C36.7103 31.7959 36.0959 33.1271 36.0959 34.6119C36.0959 36.0967 36.7103 37.4279 37.6831 38.4007C38.6559 39.3735 39.9871 39.9879 41.4719 39.9879C42.9567 39.9879 44.2879 39.3735 45.2607 38.4007C46.2335 37.4279 46.8479 36.0967 46.8479 34.6119C46.8479 33.1271 46.2335 31.7959 45.2607 30.8231Z"
        fill="white" />
</svg>
