<?xml version="1.0" encoding="UTF-8"?>
<svg xmlns="http://www.w3.org/2000/svg" width="128" height="128"
     viewBox="0 0 128 128">
  <path fill-rule="evenodd" fill="rgb(81.176471%, 6.27451%, 6.666667%)" fill-opacity="1"
        d="M 64 0 C 99.328125 0 128 28.671875 128 64 C 128 99.328125 99.328125 128 64 128 C 28.671875 128 0 99.328125 0 64 C 0 28.671875 28.671875 0 64 0 Z M 64 0 " />
  <path fill-rule="evenodd" fill="rgb(100%, 100%, 100%)" fill-opacity="1"
        d="M 64 48.84375 C 72.34375 48.84375 79.15625 55.601562 79.15625 64 C 79.15625 72.34375 72.398438 79.15625 64 79.15625 C 55.65625 79.15625 48.84375 72.398438 48.84375 64 C 48.84375 55.65625 55.601562 48.84375 64 48.84375 Z M 64 48.84375 " />
  <path fill-rule="evenodd" fill="rgb(100%, 100%, 100%)" fill-opacity="1"
        d="M 64.359375 24.371094 C 69.121094 24.421875 73.828125 25.34375 78.234375 27.035156 C 82.636719 28.722656 86.730469 31.179688 90.316406 34.355469 L 90.417969 34.457031 C 98.558594 41.726562 103.015625 51.558594 103.578125 61.644531 C 104.191406 71.78125 100.914062 82.125 93.695312 90.316406 L 93.59375 90.417969 C 86.324219 98.558594 76.492188 103.015625 66.40625 103.578125 C 56.269531 104.191406 45.925781 100.914062 37.734375 93.695312 C 29.542969 86.425781 25.035156 76.542969 24.472656 66.40625 C 23.859375 56.269531 27.136719 45.925781 34.355469 37.734375 L 37.785156 40.753906 C 31.386719 47.976562 28.519531 57.140625 29.03125 66.097656 C 29.59375 75.058594 33.535156 83.816406 40.753906 90.214844 C 47.972656 96.613281 57.140625 99.480469 66.097656 98.96875 C 75.058594 98.40625 83.8125 94.464844 90.214844 87.246094 L 90.316406 87.144531 C 96.664062 79.921875 99.53125 70.808594 98.96875 61.902344 C 98.40625 52.941406 94.464844 44.1875 87.246094 37.785156 L 87.140625 37.683594 C 84.019531 34.917969 80.433594 32.769531 76.59375 31.285156 C 72.703125 29.796875 68.554688 28.980469 64.359375 28.929688 L 64.410156 24.320312 Z M 64.359375 24.371094 " />
  <path fill-rule="nonzero" fill="rgb(100%, 100%, 100%)" fill-opacity="1"
        d="M 41.472656 24.628906 C 44.238281 24.628906 46.695312 25.753906 48.484375 27.546875 C 50.277344 29.339844 51.40625 31.847656 51.40625 34.5625 C 51.40625 37.324219 50.277344 39.78125 48.484375 41.574219 C 46.695312 43.367188 44.183594 44.492188 41.472656 44.492188 C 38.707031 44.492188 36.25 43.367188 34.457031 41.574219 C 32.664062 39.78125 31.539062 37.273438 31.539062 34.5625 C 31.539062 31.796875 32.664062 29.339844 34.457031 27.546875 C 36.25 25.753906 38.757812 24.628906 41.472656 24.628906 Z M 45.261719 30.824219 C 44.289062 29.851562 42.957031 29.234375 41.472656 29.234375 C 39.988281 29.234375 38.65625 29.851562 37.683594 30.824219 C 36.710938 31.796875 36.097656 33.128906 36.097656 34.613281 C 36.097656 36.097656 36.710938 37.429688 37.683594 38.402344 C 38.65625 39.375 39.988281 39.988281 41.472656 39.988281 C 42.957031 39.988281 44.289062 39.375 45.261719 38.402344 C 46.234375 37.429688 46.847656 36.097656 46.847656 34.613281 C 46.847656 33.128906 46.234375 31.796875 45.261719 30.824219 Z M 45.261719 30.824219 " />
</svg>
