<svg width="128" height="128" viewBox="0 0 128 128" fill="none" xmlns="http://www.w3.org/2000/svg">
<circle cx="64" cy="64" r="64" fill="url(#paint0_linear_613_34)"/>
<path fill-rule="evenodd" clip-rule="evenodd" d="M49.7065 40H36.9498L30.1152 88.6133H58.7121L60.1636 78.3034H44.3235L49.7065 40ZM90.241 40H69.5631L62.7285 88.6299H75.4853L77.5388 74.0152H85.0238C88.6899 74.0152 92.0159 73.3185 94.9853 71.9333C97.9547 70.5482 100.385 68.5824 102.276 66.0443C104.167 63.498 105.353 60.5203 105.834 57.0947C106.315 53.7106 105.984 50.7246 104.864 48.1285C103.744 45.5323 101.919 43.5251 99.3979 42.1151C96.8765 40.705 93.8241 40 90.241 40ZM78.9443 64.0122H83.9455C85.538 64.0122 86.9398 63.7302 88.1591 63.1745C89.3783 62.6188 90.3571 61.8225 91.0953 60.794C91.8335 59.7655 92.3063 58.5296 92.5053 57.103C92.7044 55.6764 92.58 54.4405 92.1321 53.412C91.6842 52.3835 90.9294 51.5955 89.876 51.0647C88.8226 50.5256 87.4872 50.2601 85.8781 50.2601H80.8766L78.9443 64.0122Z" fill="white"/>
<path fill-rule="evenodd" clip-rule="evenodd" d="M64 117C93.2711 117 117 93.2711 117 64C117 34.7289 93.2711 11 64 11C34.7289 11 11 34.7289 11 64C11 93.2711 34.7289 117 64 117ZM64 120C94.9279 120 120 94.9279 120 64C120 33.0721 94.9279 8 64 8C33.0721 8 8 33.0721 8 64C8 94.9279 33.0721 120 64 120Z" fill="white" style="mix-blend-mode:soft-light"/>
<defs>
<linearGradient id="paint0_linear_613_34" x1="17.5" y1="20.5" x2="111" y2="108.5" gradientUnits="userSpaceOnUse">
<stop stop-color="#2775CA"/>
<stop offset="1" stop-color="#F7931A"/>
</linearGradient>
</defs>
</svg>
