<?xml version="1.0" encoding="UTF-8"?>
<svg xmlns="http://www.w3.org/2000/svg" width="128" height="128"
     viewBox="0 0 128 128">
  <defs>
    <linearGradient id="linear-pattern-0" gradientUnits="userSpaceOnUse" x1="17.5" y1="20.5" x2="111" y2="108.5">
      <stop offset="0" stop-color="rgb(15.294118%, 45.882353%, 79.215686%)" stop-opacity="1" />
      <stop offset="1" stop-color="rgb(96.862745%, 57.647059%, 10.196078%)" stop-opacity="1" />
    </linearGradient>
  </defs>
  <path fill-rule="nonzero" fill="url(#linear-pattern-0)"
        d="M 128 64 C 128 99.347656 99.347656 128 64 128 C 28.652344 128 0 99.347656 0 64 C 0 28.652344 28.652344 0 64 0 C 99.347656 0 128 28.652344 128 64 " />
  <path fill-rule="evenodd" fill="rgb(100%, 100%, 100%)" fill-opacity="1"
        d="M 49.707031 40 L 36.949219 40 L 30.113281 88.613281 L 58.710938 88.613281 L 60.164062 78.304688 L 44.324219 78.304688 Z M 90.242188 40 L 69.5625 40 L 62.726562 88.628906 L 75.484375 88.628906 L 77.539062 74.015625 L 85.023438 74.015625 C 88.691406 74.015625 92.015625 73.320312 94.984375 71.933594 C 97.953125 70.546875 100.386719 68.582031 102.277344 66.042969 C 104.167969 63.496094 105.351562 60.519531 105.835938 57.09375 C 106.316406 53.710938 105.984375 50.722656 104.863281 48.128906 C 103.742188 45.53125 101.917969 43.523438 99.398438 42.113281 C 96.875 40.703125 93.824219 40 90.242188 40 Z M 78.945312 64.011719 L 83.945312 64.011719 C 85.539062 64.011719 86.941406 63.730469 88.160156 63.175781 C 89.378906 62.617188 90.355469 61.824219 91.09375 60.792969 C 91.832031 59.765625 92.304688 58.53125 92.503906 57.101562 C 92.703125 55.675781 92.578125 54.441406 92.132812 53.410156 C 91.683594 52.382812 90.929688 51.59375 89.875 51.066406 C 88.824219 50.527344 87.488281 50.261719 85.878906 50.261719 L 80.875 50.261719 Z M 78.945312 64.011719 " />
  <path fill-rule="evenodd" fill="rgb(100%, 100%, 100%)" fill-opacity="1"
        d="M 64 117 C 93.269531 117 117 93.269531 117 64 C 117 34.730469 93.269531 11 64 11 C 34.730469 11 11 34.730469 11 64 C 11 93.269531 34.730469 117 64 117 Z M 64 120 C 94.929688 120 120 94.929688 120 64 C 120 33.070312 94.929688 8 64 8 C 33.070312 8 8 33.070312 8 64 C 8 94.929688 33.070312 120 64 120 Z M 64 120 " />
</svg>
