<?xml version="1.0" encoding="UTF-8"?>
<svg xmlns="http://www.w3.org/2000/svg" width="128" height="128"
     viewBox="0 0 128 128">
  <defs>
    <clipPath id="clip-0">
      <path clip-rule="nonzero"
            d="M 0.425781 0.496094 L 127.433594 0.496094 L 127.433594 127.503906 L 0.425781 127.503906 Z M 0.425781 0.496094 " />
    </clipPath>
  </defs>
  <g clip-path="url(#clip-0)">
    <path fill-rule="nonzero" fill="rgb(54.901961%, 54.901961%, 54.901961%)" fill-opacity="1"
          d="M 63.929688 127.503906 C 99 127.503906 127.433594 99.074219 127.433594 64 C 127.433594 28.929688 99 0.496094 63.929688 0.496094 C 28.855469 0.496094 0.425781 28.929688 0.425781 64 C 0.425781 99.074219 28.855469 127.503906 63.929688 127.503906 Z M 63.929688 127.503906 " />
  </g>
  <path fill-rule="nonzero" fill="rgb(100%, 100%, 100%)" fill-opacity="1"
        d="M 64.210938 108.128906 C 88.824219 108.128906 108.777344 88.210938 108.777344 63.640625 C 108.777344 39.070312 88.824219 19.152344 64.210938 19.152344 C 40.859375 19.152344 21.703125 37.082031 19.800781 59.902344 L 78.707031 59.902344 L 78.707031 67.382812 L 19.800781 67.382812 C 21.703125 90.199219 40.859375 108.128906 64.210938 108.128906 Z M 64.210938 108.128906 " />
</svg>
