<?xml version="1.0" encoding="UTF-8"?>
<svg xmlns="http://www.w3.org/2000/svg" width="128" height="128"
     viewBox="0 0 128 128">
  <path fill-rule="nonzero" fill="rgb(0%, 32.156863%, 100%)" fill-opacity="1"
        d="M 128 64 C 128 99.347656 99.347656 128 64 128 C 28.652344 128 0 99.347656 0 64 C 0 28.652344 28.652344 0 64 0 C 99.347656 0 128 28.652344 128 64 " />
  <path fill-rule="nonzero" fill="rgb(100%, 100%, 100%)" fill-opacity="1"
        d="M 64.28125 108.476562 C 89.089844 108.476562 109.195312 88.402344 109.195312 63.636719 C 109.195312 38.875 89.089844 18.800781 64.28125 18.800781 C 40.75 18.800781 21.441406 36.871094 19.523438 59.871094 L 78.890625 59.871094 L 78.890625 67.40625 L 19.523438 67.40625 C 21.441406 90.40625 40.75 108.476562 64.28125 108.476562 Z M 64.28125 108.476562 " />
</svg>
