<svg width="128" height="128" viewBox="0 0 128 128" fill="none" xmlns="http://www.w3.org/2000/svg">
  <circle cx="64" cy="64" r="64" fill="#E6007A" />
  <path d="M64.002 112.446C73.7096 112.446 81.5791 107.894 81.5791 102.278C81.5791 96.663 73.7096 92.1108 64.002 92.1108C54.2944 92.1108 46.4248 96.663 46.4248 102.278C46.4248 107.894 54.2944 112.446 64.002 112.446Z"
        fill="white" />
  <path d="M106.207 88.21C111.061 79.8487 111.032 70.7946 106.143 67.9869C101.253 65.1793 93.3552 69.6813 88.5014 78.0425C83.6476 86.4038 83.6765 95.4579 88.5658 98.2656C93.4551 101.073 101.353 96.5712 106.207 88.21Z"
        fill="white" />
  <path d="M64.002 35.8349C73.7096 35.8349 81.5791 31.2828 81.5791 25.6675C81.5791 20.0521 73.7096 15.5 64.002 15.5C54.2944 15.5 46.4248 20.0521 46.4248 25.6675C46.4248 31.2828 54.2944 35.8349 64.002 35.8349Z"
        fill="white" />
  <path d="M39.5068 49.9099C44.3606 41.5486 44.3291 32.4927 39.4364 29.6832C34.5437 26.8736 26.6425 31.3741 21.7887 39.7355C16.9348 48.0968 16.9663 57.1526 21.859 59.9622C26.7518 62.7718 34.6529 58.2712 39.5068 49.9099Z"
        fill="white" />
  <path d="M39.4391 98.2637C44.3318 95.4541 44.3633 86.3984 39.5095 78.0371C34.6557 69.6758 26.7546 65.1753 21.8619 67.9848C16.9692 70.7944 16.9377 79.8502 21.7915 88.2114C26.6454 96.5727 34.5464 101.073 39.4391 98.2637Z"
        fill="white" />
  <path d="M106.147 59.9633C111.037 57.1556 111.065 48.1015 106.212 39.7402C101.358 31.379 93.4593 26.8769 88.5699 29.6846C83.6804 32.4923 83.6516 41.5464 88.5055 49.9076C93.3593 58.2689 101.258 62.7709 106.147 59.9633Z"
        fill="white" />
</svg>
