<?xml version="1.0" encoding="UTF-8"?>
<svg xmlns="http://www.w3.org/2000/svg" width="128" height="128"
     viewBox="0 0 128 128">
  <path fill-rule="nonzero" fill="rgb(90.196078%, 0%, 47.843137%)" fill-opacity="1"
        d="M 128 64 C 128 99.347656 99.347656 128 64 128 C 28.652344 128 0 99.347656 0 64 C 0 28.652344 28.652344 0 64 0 C 99.347656 0 128 28.652344 128 64 " />
  <path fill-rule="nonzero" fill="rgb(100%, 100%, 100%)" fill-opacity="1"
        d="M 64.003906 112.445312 C 73.710938 112.445312 81.578125 107.894531 81.578125 102.277344 C 81.578125 96.664062 73.710938 92.109375 64.003906 92.109375 C 54.292969 92.109375 46.425781 96.664062 46.425781 102.277344 C 46.425781 107.894531 54.292969 112.445312 64.003906 112.445312 Z M 64.003906 112.445312 " />
  <path fill-rule="nonzero" fill="rgb(100%, 100%, 100%)" fill-opacity="1"
        d="M 106.207031 88.210938 C 111.0625 79.847656 111.03125 70.792969 106.144531 67.988281 C 101.253906 65.179688 93.355469 69.679688 88.5 78.042969 C 83.648438 86.402344 83.675781 95.457031 88.566406 98.265625 C 93.457031 101.074219 101.351562 96.570312 106.207031 88.210938 Z M 106.207031 88.210938 " />
  <path fill-rule="nonzero" fill="rgb(100%, 100%, 100%)" fill-opacity="1"
        d="M 64.003906 35.835938 C 73.710938 35.835938 81.578125 31.28125 81.578125 25.667969 C 81.578125 20.050781 73.710938 15.5 64.003906 15.5 C 54.292969 15.5 46.425781 20.050781 46.425781 25.667969 C 46.425781 31.28125 54.292969 35.835938 64.003906 35.835938 Z M 64.003906 35.835938 " />
  <path fill-rule="nonzero" fill="rgb(100%, 100%, 100%)" fill-opacity="1"
        d="M 39.507812 49.910156 C 44.359375 41.546875 44.328125 32.492188 39.4375 29.683594 C 34.542969 26.875 26.640625 31.375 21.789062 39.734375 C 16.933594 48.097656 16.964844 57.152344 21.859375 59.960938 C 26.75 62.773438 34.652344 58.269531 39.507812 49.910156 Z M 39.507812 49.910156 " />
  <path fill-rule="nonzero" fill="rgb(100%, 100%, 100%)" fill-opacity="1"
        d="M 39.4375 98.265625 C 44.332031 95.453125 44.363281 86.398438 39.507812 78.035156 C 34.65625 69.675781 26.753906 65.175781 21.863281 67.984375 C 16.96875 70.792969 16.9375 79.851562 21.792969 88.210938 C 26.644531 96.574219 34.546875 101.074219 39.4375 98.265625 Z M 39.4375 98.265625 " />
  <path fill-rule="nonzero" fill="rgb(100%, 100%, 100%)" fill-opacity="1"
        d="M 106.148438 59.964844 C 111.035156 57.15625 111.066406 48.101562 106.210938 39.738281 C 101.359375 31.378906 93.460938 26.875 88.570312 29.683594 C 83.679688 32.492188 83.652344 41.546875 88.503906 49.90625 C 93.359375 58.269531 101.257812 62.769531 106.148438 59.964844 Z M 106.148438 59.964844 " />
</svg>
