<svg width="128" height="128" viewBox="0 0 128 128" fill="none" xmlns="http://www.w3.org/2000/svg">
  <g clip-path="url(#clip0_26_665)">
    <path d="M64 128C99.3462 128 128 99.3462 128 64C128 28.6538 99.3462 0 64 0C28.6538 0 0 28.6538 0 64C0 99.3462 28.6538 128 64 128Z"
          fill="#0AC18E" />
    <path d="M83.963 42.5096C80.7467 35.2162 73.3559 33.6568 64.3081 35.1675L61.4005 23.8944L54.5457 25.665L57.4046 36.9056C55.6015 37.3604 53.7498 37.7502 51.9142 38.27L49.0554 27.0944L42.2005 28.865L45.1082 40.1381C43.63 40.5604 31.2686 43.7279 31.2686 43.7279L33.1528 51.07C33.1528 51.07 38.1884 49.6568 38.1396 49.7705C40.9335 49.0396 42.2493 50.4365 42.8665 51.7523L50.8584 82.6477C50.9559 83.5411 50.7934 85.068 48.8767 85.5878C48.9904 85.6528 43.8899 86.8711 43.8899 86.8711L44.6371 95.4315C44.6371 95.4315 56.8848 92.2964 58.4929 91.8904L61.433 103.293L68.2878 101.523L65.3477 90.0386C67.232 89.6 69.0675 89.1452 70.8543 88.6741L73.7782 100.093L80.633 98.3228L77.6929 86.936C88.2513 84.3695 95.7071 77.7096 94.1802 67.5249C93.2056 61.3848 86.497 56.3492 80.9254 55.7807C84.3528 52.7431 86.0909 48.3086 83.963 42.5096ZM80.6655 69.3929C82.03 79.4802 68.0117 80.7147 63.3823 81.933L59.3538 66.8426C63.9995 65.6244 78.3589 60.5076 80.6655 69.3929ZM72.2188 48.8447C73.6645 57.8112 61.6767 58.8507 57.8107 59.8416L54.1396 46.1482C58.0219 45.1898 69.2787 40.5442 72.2188 48.8447Z"
          fill="white" />
  </g>
  <defs>
    <clipPath id="clip0_26_665">
      <rect width="128" height="128" fill="white" />
    </clipPath>
  </defs>
</svg>
