<?xml version="1.0" encoding="UTF-8"?>
<svg xmlns="http://www.w3.org/2000/svg" width="128" height="128"
     viewBox="0 0 128 128">
  <path fill-rule="nonzero" fill="rgb(3.921569%, 75.686275%, 55.686275%)" fill-opacity="1"
        d="M 64 128 C 99.347656 128 128 99.347656 128 64 C 128 28.652344 99.347656 0 64 0 C 28.652344 0 0 28.652344 0 64 C 0 99.347656 28.652344 128 64 128 Z M 64 128 " />
  <path fill-rule="nonzero" fill="rgb(100%, 100%, 100%)" fill-opacity="1"
        d="M 83.964844 42.507812 C 80.746094 35.214844 73.355469 33.65625 64.308594 35.167969 L 61.402344 23.894531 L 54.546875 25.664062 L 57.40625 36.90625 C 55.601562 37.359375 53.75 37.75 51.914062 38.269531 L 49.054688 27.09375 L 42.199219 28.863281 L 45.109375 40.136719 C 43.628906 40.558594 31.269531 43.726562 31.269531 43.726562 L 33.152344 51.070312 C 33.152344 51.070312 38.1875 49.65625 38.140625 49.769531 C 40.933594 49.039062 42.25 50.4375 42.867188 51.753906 L 50.859375 82.648438 C 50.957031 83.542969 50.792969 85.066406 48.875 85.585938 C 48.992188 85.652344 43.890625 86.871094 43.890625 86.871094 L 44.636719 95.429688 C 44.636719 95.429688 56.886719 92.296875 58.492188 91.890625 L 61.433594 103.292969 L 68.289062 101.523438 L 65.347656 90.039062 C 67.230469 89.601562 69.066406 89.144531 70.855469 88.675781 L 73.777344 100.09375 L 80.632812 98.324219 L 77.691406 86.9375 C 88.25 84.371094 95.707031 77.710938 94.179688 67.523438 C 93.207031 61.386719 86.496094 56.347656 80.925781 55.78125 C 84.351562 52.742188 86.089844 48.308594 83.964844 42.507812 Z M 80.664062 69.394531 C 82.03125 79.480469 68.011719 80.714844 63.382812 81.933594 L 59.355469 66.84375 C 64 65.625 78.359375 60.507812 80.664062 69.394531 Z M 72.21875 48.84375 C 73.664062 57.8125 61.675781 58.851562 57.8125 59.839844 L 54.140625 46.148438 C 58.023438 45.191406 69.277344 40.542969 72.21875 48.84375 Z M 72.21875 48.84375 " />
</svg>
