<svg width="128" height="128" viewBox="0 0 128 128" fill="none" xmlns="http://www.w3.org/2000/svg">
  <circle cx="64" cy="64" r="64" fill="#FF474C" />
  <path fill-rule="evenodd" clip-rule="evenodd"
        d="M79.8941 48.5401C79.9088 39.153 71.0233 32.3835 62.0625 34.8389L35.734 42.0506L46.7145 60.0917L74.4799 52.4863C74.4799 52.4863 74.4799 52.4863 74.4799 52.4863C76.1724 52.0227 77.8607 51.8005 79.5132 51.7955C79.7611 50.746 79.8923 49.6555 79.8941 48.5401ZM84.5101 52.4548C84.7751 51.188 84.9145 49.8805 84.9167 48.548C84.9364 35.9175 72.9464 26.6766 60.7283 30.0244C60.7284 30.0244 60.7282 30.0244 60.7283 30.0244L28 38.9891L44.385 65.9097L75.8139 57.3008C76.2361 57.1852 76.6582 57.09 77.079 57.0146C75.2458 59.4742 72.6213 61.3337 69.5191 62.1899L34.8967 71.7485L51.2802 98.6667L84.6127 89.4636C92.9271 87.1675 98.6667 79.5949 98.6667 70.98C98.6667 61.9279 92.5013 54.6252 84.5101 52.4548ZM82.8471 57.191C80.4678 61.8871 76.1949 65.5299 70.8627 67.0018C70.8627 67.0018 70.8628 67.0018 70.8627 67.0018L42.6234 74.7981L53.6055 92.8418L83.2688 84.6519C83.2688 84.6519 83.2687 84.6519 83.2688 84.6519C89.385 82.9627 93.6441 77.3765 93.6441 70.98C93.6441 64.1229 88.8981 58.6692 82.8471 57.191Z"
        fill="white" />
</svg>
