<svg width="128" height="128" viewBox="0 0 128 128" fill="none" xmlns="http://www.w3.org/2000/svg">
  <g clip-path="url(#clip0_184_2623)">
    <path d="M64 128C99.3462 128 128 99.3462 128 64C128 28.6538 99.3462 0 64 0C28.6538 0 0 28.6538 0 64C0 99.3462 28.6538 128 64 128Z"
          fill="#988430" />
    <path d="M63.9998 125.95C98.2138 125.95 125.95 98.214 125.95 64C125.95 29.786 98.2138 2.05005 63.9998 2.05005C29.7857 2.05005 2.0498 29.786 2.0498 64C2.0498 98.214 29.7857 125.95 63.9998 125.95Z"
          fill="#7A6A2A" />
    <path d="M64.0002 124.645C97.4933 124.645 124.645 97.4931 124.645 63.9999C124.645 30.5068 97.4933 3.35522 64.0002 3.35522C30.507 3.35522 3.35547 30.5068 3.35547 63.9999C3.35547 97.4931 30.507 124.645 64.0002 124.645Z"
          fill="#BA9F33" />
    <path fill-rule="evenodd" clip-rule="evenodd"
          d="M27.9815 57.1653C27.619 56.8342 27.236 56.5024 26.8837 56.1713C26.5315 55.8402 26.1697 55.5084 25.8072 55.1773L24.7299 54.1533C24.5538 53.9772 24.3674 53.8222 24.1913 53.6454C24.0152 53.4905 23.8083 53.3143 23.6322 53.1587C22.2027 51.8022 20.765 50.4458 19.3553 49.0886C20.8155 50.4246 22.245 51.751 23.7052 53.1068L24.2125 53.6147C24.3886 53.7901 24.575 53.9458 24.7511 54.1219L25.8276 55.1159C26.1901 55.447 26.5424 55.7788 26.9049 56.1399C27.2674 56.501 27.6196 56.8335 27.9821 57.1639L27.9815 57.1653ZM9.00947 56.9605C9.00947 56.9605 14.208 57.4984 16.7455 57.8609C19.0959 58.1927 26.4489 59.3211 26.4489 59.3211L9.00947 56.9605ZM9.00947 56.9605C10.4697 57.0847 11.9299 57.2397 13.3901 57.3953C14.1356 57.4677 14.8504 57.5503 15.5651 57.6226L16.6622 57.7476C17.0247 57.7988 17.3769 57.8506 17.7394 57.9025L22.0894 58.5961L24.2637 58.9586C24.9784 59.0829 25.6932 59.218 26.4386 59.3423C25.7239 59.2699 24.9784 59.1661 24.2637 59.0624L22.0894 58.7518L17.7394 58.1101C17.3769 58.0582 17.0247 57.9851 16.6622 57.9339L15.5644 57.8076C14.8497 57.7353 14.1042 57.6315 13.3895 57.5482C11.9292 57.3728 10.469 57.1857 9.00879 56.9584L9.00947 56.9605ZM25.9314 60.6755C25.9314 60.6755 20.3807 62.0845 18.506 62.6232C16.6628 63.1304 11.0807 64.8289 11.0807 64.8289L25.9307 60.6762L25.9314 60.6755Z"
          fill="#CFB66C" />
    <path fill-rule="evenodd" clip-rule="evenodd"
          d="M25.9315 60.6753C24.6992 61.0378 23.4739 61.39 22.2239 61.7218L18.5163 62.7158C17.2841 63.0783 16.0587 63.4305 14.8299 63.793L12.9867 64.3003C12.3757 64.4764 11.7545 64.6313 11.123 64.8082C11.7334 64.6034 12.3553 64.3938 12.9662 64.2177L14.8094 63.6278C16.0417 63.2442 17.267 62.8817 18.4958 62.4987C19.7485 62.1881 20.9814 61.8563 22.2341 61.5559C23.4247 61.2556 24.6781 60.9559 25.9315 60.676V60.6753ZM11.8583 68.2461C12.4686 68.0181 19.511 64.7358 21.1473 63.9692C21.9665 63.5855 24.3477 62.7404 24.3477 62.7404L11.8583 68.2461Z"
          fill="#CFB66C" />
    <path fill-rule="evenodd" clip-rule="evenodd"
          d="M11.8581 68.2461C12.396 68.0413 12.904 67.7907 13.4214 67.5525L14.954 66.8377L18.0301 65.357C19.0541 64.8703 20.0494 64.333 21.1055 63.8756C21.6441 63.6483 22.1828 63.4619 22.7207 63.2858L23.5399 63.0271C23.8191 62.9547 24.0785 62.8714 24.3591 62.7991C23.3351 63.2858 22.2572 63.7002 21.2318 64.176C20.2078 64.6839 19.1606 65.0983 18.1038 65.5536L14.9765 66.9306C13.9266 67.3559 12.9026 67.8112 11.8574 68.2461H11.8581ZM12.5408 71.1133C12.5408 71.1133 18.9196 67.375 21.1151 66.1735C22.2647 65.5318 25.9825 63.6879 25.9825 63.6879L12.5408 71.1133Z"
          fill="#CFB66C" />
    <path fill-rule="evenodd" clip-rule="evenodd"
          d="M12.541 71.1148C13.6176 70.4519 14.7153 69.7788 15.813 69.0955L17.4514 68.1008C18.0105 67.7697 18.5492 67.4591 19.1192 67.128C19.6783 66.7962 20.2169 66.4651 20.7863 66.1545C21.0573 65.9872 21.3413 65.8418 21.6355 65.7197L22.5052 65.2848C23.6548 64.7257 24.8044 64.1557 26.0162 63.6689C24.9184 64.3632 23.7893 64.9537 22.6609 65.564C22.1018 65.8746 21.5317 66.1545 20.9726 66.4651C20.4135 66.7758 19.8749 67.1075 19.3049 67.4079C18.7458 67.739 18.2071 68.0496 17.6378 68.35L15.9496 69.2716L12.5424 71.1148H12.541ZM25.9308 64.5073C25.9308 64.5073 21.9645 67.552 20.6805 68.5254C19.3964 69.4989 15.6164 72.233 15.6164 72.233L25.9308 64.5073Z"
          fill="#CFB66C" />
    <path fill-rule="evenodd" clip-rule="evenodd"
          d="M48.6936 89.0614L46.6641 85.2193L47.8444 80.414L56.2637 77.1625L52.6804 69.8102L54.4512 62.3848L57.7758 55.7356L68.0493 54.1205L75.5982 46.9231L91.8989 48.1553L95.0986 65.5845L88.9368 87.5288L85.4266 98.8897L71.1971 99.4284L64.5902 94.8511L56.8542 91.6193L48.6936 89.0614Z"
          fill="#E2CC85" />
    <path fill-rule="evenodd" clip-rule="evenodd"
          d="M73.652 88.9371C73.652 88.9371 71.6839 89.8382 68.3272 89.6307C67.3558 88.3261 60.5524 87.7151 60.5524 87.7151C60.5524 87.7151 59.7031 87.4564 58.2012 88.0776C56.6898 88.692 55.2603 88.6162 53.9243 88.9473C52.5884 89.2784 51.2619 87.539 50.2379 87.1765C49.2139 86.7935 47.8561 85.8719 47.8561 85.8719L44.9889 85.592L39.2313 83.1583L30.0843 74.0454L27.5987 77.9366L26.832 82.7521L29.5975 88.4586L37.0434 95.2415L51.5623 98.9279L60.168 96.3925L70.9487 91.8357L73.652 88.9364V88.9371Z"
          fill="#F1D789" />
    <path fill-rule="evenodd" clip-rule="evenodd"
          d="M22.0682 56.7303L23.9114 51.1488L26.1076 47.5444L33.18 46.9539L31.0569 53.147L25.1443 63.669L27.5985 73.0618L23.2493 75.2361L21.9126 73.186L20.836 68.4845L20.7637 63.2027L22.0682 56.7303Z"
          fill="#F4ECB4" />
    <path fill-rule="evenodd" clip-rule="evenodd"
          d="M30.001 88.5541L28.6445 86.659C28.6445 86.659 28.282 85.7578 28.4896 84.9707C28.6944 84.1734 28.665 84.1215 28.5619 83.8211C28.4589 83.5207 27.5885 82.4851 27.6403 81.5943C27.6915 80.6931 27.568 80.3928 28.2302 79.6787C28.9238 78.9851 28.7169 77.7836 28.7169 77.7836L29.618 78.3427L29.8228 78.0321C29.8228 78.0321 30.1539 78.2908 30.1539 78.695C30.2263 78.1359 29.9259 75.5465 30.6093 74.9567C31.2926 74.3669 32.5043 77.7215 32.5043 77.7215L31.7589 72.8541L29.8426 67.8631L26.4354 63.3063L26.2306 58.2832V57.8484C26.2306 57.8484 24.6666 60.2514 24.2318 62.1492C23.9212 63.4538 24.6666 65.0382 24.5117 66.9128C24.3868 68.7772 24.2318 68.6318 24.6871 69.3704C25.1425 70.1091 26.2511 71.628 25.8163 72.7257C25.4333 73.6685 24.128 73.0056 24.128 73.0056C24.128 73.0056 23.8693 73.7716 23.517 74.0515C23.3928 73.5961 23.2583 73.306 23.0098 73.0275C22.9887 73.2036 22.9375 73.4419 22.9375 73.4419C22.9375 73.4419 22.7094 72.7271 22.4814 71.826C22.1715 70.6252 21.8397 69.0407 21.5394 68.1915C21.4151 68.6782 21.1045 70.1589 21.1045 70.1589L21.2806 72.4377L22.1299 75.565L22.9491 77.613L23.7464 80.119L24.4393 81.8025L24.9984 83.0866L25.4852 85.9763L27.8356 88.4612L29.089 89.021L29.9996 88.5547L30.001 88.5541Z"
          fill="#F3E19D" />
    <path fill-rule="evenodd" clip-rule="evenodd"
          d="M23.3004 52.1735C23.3004 52.1735 21.6122 55.0407 21.1261 57.9311C20.64 60.8215 20.2045 63.8758 20.5117 67.8107C20.8223 71.7777 21.4128 74.2107 21.8893 75.9508C22.7085 78.8405 24.8303 82.8587 24.8303 82.8587L24.9026 82.7031C24.546 82.027 24.2613 81.3154 24.0534 80.58C23.7735 79.4822 23.6697 78.1777 23.411 77.5872C23.183 76.9973 22.8 76.4894 22.6136 75.7644C22.4375 75.0708 22.4088 73.9731 21.8682 73.1553C21.6402 72.8235 21.3603 71.9538 21.2777 71.0841C21.1739 69.7788 21.3295 68.3186 21.2053 67.1178C20.9773 65.1189 20.8223 63.7625 21.0292 62.7159C21.236 61.6694 22.3139 58.6984 22.9768 56.3371C23.4117 54.825 23.1523 53.5511 23.9496 52.2356C24.747 50.9311 25.2344 49.7815 25.4098 48.9841C25.6146 48.2591 23.2977 52.1735 23.2977 52.1735H23.3004Z"
          fill="#F2E8B0" />
    <path fill-rule="evenodd" clip-rule="evenodd"
          d="M31.3061 51.0239C31.3061 51.0239 30.4364 51.2833 30.0221 51.7387C29.6077 52.1735 29.4315 52.536 28.8724 53.2713C28.3133 54.0065 28.2819 54.6072 27.8259 55.5288C27.3706 56.43 26.3657 57.7864 26.2414 58.2732C26.1172 58.7599 25.9104 61.038 25.6516 62.1152C25.4236 63.1925 25.9103 64.5182 25.9103 64.5182L26.5002 64.3933C26.5002 64.3933 26.5002 65.1599 27.0907 65.6781C27.6805 66.1853 27.7843 63.9584 27.7843 63.9584L29.99 56.5126L33.3139 54.255L33.6764 52.4323L31.3048 51.0239H31.3061Z"
          fill="#F5EEC0" />
    <path fill-rule="evenodd" clip-rule="evenodd"
          d="M32.9215 54.4003C32.9215 54.4003 31.3575 54.5034 30.5915 55.0632C30.2809 55.2905 30.1567 55.4769 29.8256 55.7568C29.2146 56.264 28.5927 56.7302 28.293 57.3952C27.9612 58.0573 27.5987 59.0622 27.3502 60.9573C27.2465 61.7547 27.2465 62.4899 27.1741 63.1323C27.0703 64.002 26.9154 64.6956 26.998 65.1803C27.1017 66.1743 28.1271 66.6924 28.2268 67.8208L30.3499 66.7443L32.3487 58.8629L36.5949 56.2005L34.1919 53.5081L32.9187 54.3955L32.9215 54.4003Z"
          fill="#E6DB9D" />
    <path fill-rule="evenodd" clip-rule="evenodd"
          d="M21.7214 107.471C21.7303 107.394 21.7391 107.316 21.748 107.236C22.0579 104.574 22.1105 102.556 22.3378 101.292C22.6689 99.5007 22.8969 98.8344 22.8451 98.164C22.7727 97.0874 22.6901 96.3003 22.7939 95.4716C22.9488 94.3738 24.0261 93.0693 23.9953 92.1681C23.9742 91.4534 23.6117 90.9878 23.3011 90.553C22.9905 90.1181 22.742 89.7556 22.742 89.7556C22.742 89.7556 24.8651 88.2954 24.8446 82.4128C24.8879 82.4251 24.9297 82.4425 24.9688 82.4647L26.0147 85.4364L26.7294 86.3061L29.4737 91.422L33.0052 94.8503L38.2242 98.3606L41.4969 101.922L41.828 111.419L37.5511 116.969L36.8506 118.238C31.286 115.444 26.1833 111.813 21.7207 107.471L21.7214 107.471Z"
          fill="#E5CB7A" />
    <path fill-rule="evenodd" clip-rule="evenodd"
          d="M34.7861 116.556C34.7861 116.556 34.8585 115.376 35.832 114.609C35.9876 114.868 36.0907 115.117 36.06 115.303C36.2361 114.993 37.4683 113.004 40.2543 112.486C43.0403 111.979 43.7134 109.95 43.7134 109.95L49.6259 104.575L56.3884 98.351L64.6112 95.4613L68.4539 94.5186C68.4539 94.5186 68.5262 94.7984 68.3815 95.4197C69.0956 95.3685 70.6801 95.006 72.3267 94.4257C72.9895 94.167 73.6114 94.0632 73.9425 94.4052C74.4293 94.8606 74.5016 95.9378 74.5324 96.5795C75.3297 96.4034 76.2513 95.6374 76.99 95.7098C78.171 95.834 79.2168 97.2219 80.4183 97.2219C82.0028 97.2219 82.7168 96.2484 83.8255 95.4818C84.4884 95.0265 85.4407 94.4578 85.9793 94.0735C87.2634 93.1307 100.851 88.978 100.851 88.978L105.614 89.2886L106.381 94.4045L105.971 107.778C105.921 107.826 105.87 107.877 105.819 107.925L84.1593 119.238L54.1356 123.84C47.4102 122.742 40.9201 120.509 34.9418 117.238L34.7882 116.556L34.7861 116.556Z"
          fill="#D8C173" />
    <path fill-rule="evenodd" clip-rule="evenodd"
          d="M23.542 109.173C23.9687 108.28 24.3523 107.534 24.4199 107.267C24.4731 107.805 24.5708 108.986 24.7674 110.24C24.3546 109.889 23.9461 109.533 23.542 109.172V109.173Z"
          fill="#F1D789" />
    <path fill-rule="evenodd" clip-rule="evenodd"
          d="M45.4735 121.758L49.3565 120.678L49.6876 120.782C49.6876 120.782 49.8638 120.886 49.8638 121.238C50.3505 120.958 50.7649 121.01 51.0653 120.824C51.2202 121.155 51.3752 122.253 52.0592 122.387C52.7733 122.543 53.5399 122.077 54.3168 121.487C55.0827 120.876 55.9552 120.109 56.6153 119.798C56.8575 120.244 57.0721 120.704 57.2577 121.175C58.1274 120.482 59.6395 117.665 61.7934 117.716C62.4159 116.245 63.4559 114.989 64.7848 114.102C66.7837 112.746 68.0363 112.642 69.6003 112.766C70.2215 111.959 70.987 111.275 71.8579 110.747C72.1166 110.851 72.8314 111.286 73.7223 110.871C74.6234 110.458 75.6378 108.852 76.9738 108.645C77.6937 108.546 78.4257 108.7 79.045 109.08C79.045 109.08 82.9362 105.217 85.6212 103.933C85.5174 103.622 85.3105 102.452 88.4583 99.8625C88.6344 100.018 88.5102 100.453 88.6344 100.477C88.6856 100.477 89.4536 100.146 90.4258 99.3997C91.6273 98.4993 93.0663 97.5565 93.936 97.2978C95.5744 96.811 97.3125 97.805 97.3125 97.805C97.4603 97.7013 97.625 97.6242 97.7992 97.577C98.2129 97.5046 98.5133 97.4527 98.7413 97.3722C98.7208 97.9108 99.0212 98.8324 98.7413 99.6298C99.0656 99.8121 99.409 99.9579 99.7653 100.065C99.5899 100.448 99.2062 101.421 98.5645 101.887C99.1025 102.146 99.1748 102.446 99.9415 102.707C99.6308 103.141 99.1223 103.888 98.8956 104.345C98.6676 104.832 97.8491 106.851 97.4866 107.617C97.1036 108.384 96.5861 109.792 96.337 110.075C96.0878 110.357 95.1874 111.555 94.4938 112.145C95.1082 111.917 97.6218 111.151 98.6881 110.861C98.3706 111.327 96.7616 113.714 95.2147 116.01C87.8081 120.449 79.5404 123.259 70.9625 124.252C62.3847 125.245 53.6937 124.398 45.4688 121.769L45.4735 121.758Z"
          fill="#E0CD81" />
    <path fill-rule="evenodd" clip-rule="evenodd"
          d="M33.1779 54.1205C33.1779 54.1205 32.2775 54.1205 32.1014 54.2448C31.9252 54.369 33.0025 54.6284 33.3336 54.7527C33.6647 54.8769 34.3794 55.4463 34.5658 55.9023C34.7419 56.3372 41.0381 58.874 41.0381 58.874L45.4912 58.6459L47.0265 56.5249L44.106 53.9669L46.154 47.9294L43.4411 48.3643L36.9169 52.2555L33.6442 53.5089L33.1779 54.1205Z"
          fill="#DFC57C" />
    <path fill-rule="evenodd" clip-rule="evenodd"
          d="M42.957 56.1194C43.0214 56.2236 43.112 56.3091 43.2199 56.3672C43.3277 56.4253 43.449 56.454 43.5714 56.4505C44.493 56.4505 45.3416 56.6785 45.6938 57.1441C46.2843 57.8902 47.9207 60.272 47.9207 60.272L51.8351 61.6804L52.0877 57.071L47.8108 54.0994L42.9434 55.8907V56.1187H42.9543L42.957 56.1194Z"
          fill="#E5CC7C" />
    <path fill-rule="evenodd" clip-rule="evenodd"
          d="M42.1886 57.828C42.1886 57.828 42.9027 57.8799 43.8038 57.5481C44.7049 57.2163 46.1856 56.5023 46.828 56.7822C47.7284 57.1651 47.5421 58.3666 48.5162 59.4446C49.1061 60.1074 50.1833 60.087 50.7943 60.8017C51.4053 61.5165 53.5072 61.1847 53.5072 61.1847L54.3046 65.4855L51.1049 69.5869L50.0584 74.6817H45.7316L41.779 73.1136L39.832 68.4032L40.8055 63.6395L42.1886 57.828Z"
          fill="#D2C281" />
    <path fill-rule="evenodd" clip-rule="evenodd"
          d="M50.5586 58.0349C50.6659 58.068 50.7774 58.0855 50.8897 58.0868C50.7655 58.1906 50.5061 58.4179 50.6098 59.0084C50.7136 59.5989 51.0447 60.3444 50.7655 60.7997C50.9884 61.0434 51.1546 61.3334 51.2522 61.6489C51.4284 62.1569 51.4802 62.6224 52.6292 62.6955C52.4633 62.7975 52.3105 62.9193 52.1738 63.058C52.1738 63.058 52.9712 63.7516 53.3753 64.3933C53.789 64.3755 54.8867 64.0342 54.8867 64.0342L55.1148 64.1898L55.6015 63.985C55.6015 63.985 55.1462 63.8089 55.4773 62.7009C55.7879 61.7275 56.0678 61.7793 56.0917 61.707C56.1155 61.6346 56.3197 60.6092 56.3197 60.1949C56.4746 59.6569 56.5989 58.0206 56.5989 58.0206L56.2678 54.4065L54.4041 53.2774L52.8886 51.8145L51.4591 54.5069L50.5177 55.4456L50.4453 57.7755L50.5586 58.0349Z"
          fill="#E2C270" />
    <path fill-rule="evenodd" clip-rule="evenodd"
          d="M55.042 55.0114C55.042 55.0114 55.3731 55.9534 55.498 56.6784C55.542 56.5375 55.5664 56.3912 55.5704 56.2436C55.5704 56.2436 55.8291 57.6731 55.8803 58.2636C55.9841 58.2424 56.0851 58.2117 56.1083 58.3148C56.1315 58.4179 56.3677 59.5682 56.3131 60.2099C56.7444 59.4984 57.3411 58.9017 58.0526 58.4704C58.4669 58.211 58.9537 57.9318 59.4616 57.9106C60.2589 57.8902 60.8385 58.4186 61.7915 58.4186C64.0901 58.4186 66.1722 56.7303 67.7048 56.2129C68.8332 55.8292 69.8067 55.55 70.4901 54.9281C70.8218 54.6489 71.4123 54.0276 71.9503 53.1054C72.665 51.8766 73.4105 50.8068 74.1567 50.6723C73.8191 50.7344 73.4756 50.7586 73.1327 50.7447C73.1327 50.7447 73.3607 50.5167 73.7471 50.2061C74.1334 49.8955 74.5963 49.5125 75.2585 49.5125C76.4395 49.5125 77.0293 49.6879 77.6922 49.6879C78.3551 49.6674 78.738 49.5125 78.738 49.5125C78.738 49.5125 79.4323 49.9992 80.9956 49.9992C82.5596 50.0197 83.6054 50.1542 84.424 50.2272C85.2425 50.3003 87.9861 49.9992 88.7732 50.0224C89.2864 50.0422 89.7903 50.1655 90.2546 50.3849L87.7172 43.0121L78.6022 35.0454L73.1757 38.8875L64.828 47.2344L56.7507 50.2272L55.0625 52.1223V55.0114H55.042Z"
          fill="#CCB360" />
    <path fill-rule="evenodd" clip-rule="evenodd"
          d="M73.1654 50.7856C73.1654 50.7856 73.3934 50.5582 73.7757 50.2476C74.158 49.937 74.6256 49.5533 75.2878 49.5533C76.4681 49.5533 77.0586 49.7295 77.7215 49.7295C78.3844 49.709 78.7673 49.5533 78.7673 49.5533C78.7673 49.5533 79.4623 50.0394 81.0249 50.0394C82.5889 50.0599 83.6348 50.1944 84.4533 50.2667C85.2718 50.3391 88.0154 50.0394 88.8025 50.0619C89.3156 50.0813 89.8193 50.2046 90.2832 50.4244L89.1336 47.0998L87.7983 44.5631L83.987 40.3892C83.987 40.3892 79.4131 37.6968 79.3783 37.6763C79.3578 37.6558 77.7939 37.2415 77.7939 37.2415L73.6514 39.7475L69.8927 49.4721L69.8203 51.5201L72.2533 52.6697C72.8643 51.6457 73.5381 50.8265 74.1696 50.7228C73.5996 50.7849 73.1647 50.7849 73.1647 50.7849L73.1654 50.7856Z"
          fill="#D5B457" />
    <path fill-rule="evenodd" clip-rule="evenodd"
          d="M73.1135 51.4798C72.751 51.5003 72.4513 51.4279 72.368 51.1692C72.0574 50.2995 71.8089 50.1752 71.5488 50.1752C71.2887 50.1752 70.9378 50.7343 70.7296 50.7855C70.5214 50.8367 70.2743 50.1438 70.2743 50.1438L70.0463 50.04C70.0463 50.04 68.7103 50.9098 67.7682 51.9351C66.8261 52.9605 65.2826 54.7006 64.589 55.0105C63.8954 55.3205 61.5129 55.4249 60.6978 55.601C59.8827 55.7772 58.9789 56.3677 58.8546 56.5022C58.7304 56.6366 59.2178 56.7814 59.2902 56.9159C59.3625 57.0401 58.4921 56.9882 58.4198 57.1207C58.3686 57.2244 58.6246 57.8142 58.7515 58.1146C58.9737 58.0041 59.2175 57.944 59.4656 57.9385C60.263 57.918 60.8432 58.4464 61.7956 58.4464C64.0948 58.4464 66.1762 56.7582 67.7088 56.24C68.8379 55.857 69.8114 55.5771 70.4948 54.9559C70.8259 54.6767 71.4164 54.0548 71.955 53.1332C72.3482 52.5017 72.7319 51.9112 73.1155 51.4764L73.1135 51.4798Z"
          fill="#D2B257" />
    <path fill-rule="evenodd" clip-rule="evenodd"
          d="M40.1408 102.732C40.1408 102.732 39.936 101.965 38.0382 99.9873C37.4996 99.4282 37.1685 98.9633 36.806 98.6309C35.9049 97.781 35.3765 97.5536 34.7348 97.0669C33.3264 96.021 31.7939 96.021 30.6135 94.737C29.4332 93.4529 28.0576 90.9994 27.1019 88.4919C26.1598 85.9858 25.9004 85.1885 25.9004 85.1161C25.9004 85.0438 26.1598 84.557 26.4909 84.6294C26.822 84.7017 26.822 85.3435 26.9053 85.4991C27.0702 85.7531 27.2573 85.9921 27.4644 86.2132C27.9511 86.773 28.6447 87.442 28.997 88.44C28.9246 87.5908 28.6345 86.6487 28.6345 86.6487C28.6345 86.6487 30.4572 87.7983 32.0103 88.9991C33.5742 90.2006 34.216 90.615 34.6727 91.381C35.1294 92.1469 36.2052 94.1669 36.7207 94.7574C37.2361 95.3479 44.2983 97.5741 44.2983 97.5741L47.6577 100.079L49.3254 103.734L48.0202 105.782L45.5141 106.321L41.444 104.498L40.1408 102.731V102.732Z"
          fill="#D2B159" />
    <path fill-rule="evenodd" clip-rule="evenodd"
          d="M31.0986 90.1386C31.0986 90.1386 31.9479 91.495 34.0191 92.7791C35.8834 93.9082 38.8346 94.9336 41.4656 95.5446C42.977 95.9071 44.4891 96.1863 45.8456 96.2075C49.5013 96.2587 52.0176 95.2135 55.1353 94.8715C56.8236 94.6954 58.8948 94.5609 61.0486 94.0523C63.8134 93.3894 65.4497 92.6433 67.6766 91.5947C69.2918 90.8492 70.7732 90.2901 71.974 89.5754C73.6622 88.5814 74.8944 87.4734 76.3239 87.1423C76.1478 87.6291 75.9614 88.4988 74.5531 89.3999C75.2986 89.3787 76.3239 89.3276 76.3239 89.3276C76.3239 89.3276 75.33 89.9174 73.5796 91.2431C72.5024 92.0623 71.0735 93.4488 69.6133 94.3704C68.6706 94.9609 67.6452 95.3944 66.9721 95.748C65.3337 96.6492 64.6729 97.1045 63.5963 98.2056C63.9793 98.1852 64.0107 98.2056 64.0107 98.2056C64.0107 98.2056 62.6535 98.3818 61.6807 98.8992C61.4759 98.8992 61.1209 98.8269 60.4997 99.003C60.013 99.1579 59.3706 99.5109 58.7084 99.6966C57.7656 99.9765 57.4557 99.8522 57.4557 99.8522L57.6107 100.163C57.6107 100.163 56.3819 100.142 55.9723 100.183C56.0446 100.204 56.0242 100.235 56.0242 100.235C55.9522 100.247 55.8829 100.272 55.8194 100.308C55.6223 100.435 55.4054 100.53 55.1777 100.587C55.0534 100.607 54.9496 100.607 54.794 100.639C54.8459 100.763 55.25 101.458 55.4364 101.867C55.2814 101.971 52.9508 103.732 52.9508 103.732C53.0231 103.846 53.0822 103.967 53.1269 104.094C53.1993 104.322 53.2307 104.653 53.303 104.808C53.4785 105.119 53.5823 105.171 53.5823 105.171C53.5823 105.171 53.303 105.223 52.8156 105.347C52.4019 105.451 51.894 105.626 51.1772 105.73C50.9573 105.759 50.7361 105.776 50.5144 105.782C50.6181 106.01 51.0735 106.88 50.2345 107.884C49.3955 108.888 49.1367 109.034 48.878 109.676C48.7478 109.577 48.6091 109.491 48.4636 109.416C48.1844 109.292 47.8008 109.106 47.6663 108.857C47.5879 109.189 47.484 109.515 47.3557 109.831C47.0969 110.524 46.714 111.208 46.6416 111.726C46.3617 111.415 45.8442 110.804 45.1295 110.928C44.4147 111.053 43.8454 112.026 43.7211 112.306C43.7211 112.13 43.5969 111.995 43.5662 112.202C43.545 112.43 43.1518 114.811 40.9563 116.738C40.9359 116.251 40.9359 115.174 40.884 114.822C40.6792 115.027 40.4286 115.33 38.937 115.972C37.4768 116.614 37.7082 117.256 37.7082 117.256C37.7082 117.256 37.584 116.232 38.3711 115.154C39.1684 114.077 39.6552 113.569 39.6552 113.486C39.6423 113.402 39.6064 113.323 39.5514 113.258C39.4476 113.155 39.2408 113.03 39.2408 112.948C39.365 112.897 40.5973 112.306 40.5249 111.083C40.4525 109.986 39.987 109.416 39.6552 109.013C39.604 108.961 40.1426 108.578 40.0696 108.454C40.0177 108.381 39.3555 107.894 39.2722 107.635C39.2918 107.48 39.3265 107.327 39.376 107.179C39.4483 106.951 39.5002 106.796 39.4797 106.641C39.4278 106.382 39.148 105.667 39.0654 105.595C39.1377 105.615 39.6552 105.595 39.6552 105.595C39.6552 105.595 39.2415 104.932 39.1684 104.621C39.0954 104.311 38.9404 103.492 38.8578 103.337C39.034 103.358 39.4688 103.388 39.4688 103.337C39.49 103.182 39.0858 102.923 39.264 102.723C39.3883 102.743 39.6265 102.847 39.8538 103.137C39.7296 102.805 39.5227 102.164 39.0872 101.905C39.292 101.833 39.9883 101.646 40.5993 102.008C41.2103 102.371 41.4185 102.878 41.4185 102.878C41.4185 102.878 41.781 103.158 42.3408 103.572C42.9825 104.079 43.8003 104.801 45.1056 105.312C45.3855 105.467 46.0996 105.467 46.6177 105.363C46.8433 105.31 47.0596 105.222 47.2594 105.105C47.3315 105.062 47.408 105.027 47.4874 105.001C47.3761 104.777 47.2481 104.563 47.1044 104.359C47.2806 104.359 47.4874 104.38 47.4874 104.38C47.4874 104.38 47.6117 104.1 47.0526 103.56C47.1768 103.436 47.3324 103.356 47.3324 103.146C47.1563 103.126 46.8457 102.867 46.7733 102.763C46.8764 102.691 47.0321 102.452 47.2082 102.38C47.0526 102.256 46.6696 101.738 46.4934 101.687C46.6617 101.624 46.8245 101.548 46.9802 101.459C46.9802 101.459 46.1105 101.231 45.8306 101.044C45.5507 100.839 45.137 100.485 44.8885 100.381C44.6291 100.278 44.1737 100.226 43.9874 100.019C44.1628 100.071 44.4427 100.019 44.6502 100.019C44.8052 100.019 44.8783 100.039 44.9295 100.039C44.909 99.9669 44.909 99.8113 45.3131 99.7601C45.5075 99.7308 45.6961 99.6713 45.8722 99.5839C45.8722 99.5839 45.4886 99.5635 45.053 99.1491C44.6175 98.7347 44.2557 98.4036 44.0072 98.3517C43.7484 98.2998 43.2617 98.5278 42.9613 98.5067C42.547 98.4555 42.3708 98.248 42.3708 98.248C42.3708 98.248 40.9939 98.3722 37.939 96.5085C35.2977 94.8926 34.1481 93.4638 34.1481 93.4638C33.9009 93.3741 33.662 93.2631 33.434 93.1321C32.4401 92.6146 31.0625 91.5373 31.1041 90.1283L31.0986 90.1386Z"
          fill="#C2A44D" />
    <path fill-rule="evenodd" clip-rule="evenodd"
          d="M69.1989 27.9819C69.4385 28.0598 69.6514 28.2033 69.8133 28.3963C70.3001 28.9554 70.6107 30.0115 69.5027 31.1406C69.9376 31.2956 70.1171 31.3454 70.4967 31.2956C70.1137 31.7516 69.244 32.7251 69.1921 33.5743C69.1402 34.2679 69.5751 34.4755 69.5751 34.4755C69.5751 34.4755 68.9122 35.2414 68.8815 36.5235C69.1945 36.1704 69.5371 35.8448 69.9055 35.55C70.6721 34.939 71.7282 34.2454 72.443 33.8105C72.4333 33.9928 72.4578 34.1753 72.5153 34.3485C72.5153 34.3485 73.8506 33.2507 74.9729 33.7382C75.4802 33.9662 75.2521 34.6803 75.2521 34.6803C75.2521 34.6803 75.9464 34.4215 76.4332 34.9083C76.9199 35.395 77.608 36.6504 77.961 37.1372C78.1159 37.3652 78.5201 37.8 78.9338 38.4731C79.4989 39.4155 79.9709 40.4108 80.3428 41.4448C80.3633 40.9062 80.4978 40.0679 82.031 40.5956C83.5636 41.1342 85.303 42.2633 86.7633 44.4868C88.2235 46.7102 88.5853 49.2204 89.3205 50.1761C90.066 51.0977 90.8326 52.6303 90.8845 53.2727C90.9364 53.9151 90.6565 55.9856 92.1891 61.5882C92.624 59.8488 93.2868 55.9856 93.2868 55.9856L93.6493 52.5784L94.0637 42.036L83.055 32.8903L74.4493 26.6453L68.8467 27.1839L69.1983 27.9812L69.1989 27.9819Z"
          fill="#CAA13E" />
    <path fill-rule="evenodd" clip-rule="evenodd"
          d="M89.6519 43.6708C89.6519 43.6708 89.4963 42.6468 86.9076 40.906C84.3182 39.1871 82.2989 39.1871 80.4352 37.7268C79.0057 36.5772 77.5148 33.936 76.544 33.0663C75.6013 32.2068 75.4463 29.7212 75.4463 29.7212L78.6255 27.0588L83.3536 20.2246L87.3506 15.8235L89.2662 18.4859L91.9286 21.6132L93.4093 27.8889L93.9479 37.0749L89.6471 43.6715L89.6519 43.6708Z"
          fill="#B59544" />
    <path fill-rule="evenodd" clip-rule="evenodd"
          d="M92.8519 54.6817C92.9302 53.2886 92.7582 51.8928 92.344 50.5604C91.6613 48.4373 90.1697 44.6676 89.4768 43.2559C89.1969 41.6919 89.4044 41.5677 89.7048 41.3915C90.0052 41.2154 91.1343 40.5723 91.7528 38.3161C92.3713 36.0599 94.2902 35.9862 94.2902 35.9862L95.4706 35.1165L97.2626 39.6002L98.8259 43.6498L99.3126 46.7464L99.6751 49.3869L98.8259 54.9691L94.6323 58.7592L92.8512 54.6817H92.8519Z"
          fill="#C89D3A" />
    <path fill-rule="evenodd" clip-rule="evenodd"
          d="M34.3311 116.899V116.784C34.4182 116.73 34.4951 116.661 34.5584 116.58C34.6307 116.476 34.6833 116.352 34.7345 116.321C34.8383 116.269 35.325 116.116 35.5837 116.165C35.8425 116.214 36.5265 116.496 36.889 116.476C37.6345 116.455 38.5042 115.885 39.8818 116.145C41.953 116.528 42.4398 117.936 43.6413 118.733C44.4605 119.293 45.3083 119.044 45.4326 119.044H45.7118C45.7637 119.044 46.1466 118.609 46.3542 118.63C46.7686 118.651 46.8095 118.993 47.0682 119.013C47.6792 119.086 48.8602 118.703 49.4508 118.858C49.6259 118.913 49.7851 119.01 49.9149 119.139C50.0447 119.269 50.1412 119.428 50.1962 119.603C50.3205 119.986 50.2167 120.473 49.9163 120.753C49.2746 121.343 48.6636 121.902 48.5394 122.391C48.6974 122.512 48.8492 122.64 48.9941 122.776C43.8701 121.471 38.9401 119.497 34.3311 116.905V116.899Z"
          fill="#CEB052" />
    <path fill-rule="evenodd" clip-rule="evenodd"
          d="M89.4756 96.2074C89.4756 96.2074 91.0908 94.0536 91.6506 92.9866C92.2097 91.8868 89.8797 77.9604 89.8797 77.9604L94.5608 62.6237L94.4358 57.632C94.4358 57.632 94.6638 53.0233 95.2025 51.0245C95.8449 52.1741 97.8437 53.5619 98.2786 54.2972C98.4834 52.8881 99.179 49.9165 99.0759 46.7476C99.4589 47.3374 100.381 53.2718 100.381 53.2718L101.302 57.2688L102.504 61.515L103.84 65.9994L104.637 69.096L105.092 69.8415L105.476 71.1461L105.838 72.5551L106.884 75.8585L107.499 78.5714L107.985 83.4907C108.091 83.8674 108.168 84.2518 108.213 84.6403C108.234 85.179 108.141 85.4896 108.141 85.5831C108.141 85.6766 108.317 86.7634 108.245 87.5819C108.141 88.4011 108.141 89.0422 107.499 89.6299C106.856 90.2177 106.453 93.7307 106.453 93.7307L105.303 92.9648C105.303 92.9648 105.531 91.9182 104.993 90.9659C104.454 90.0136 103.408 89.8163 102.818 89.972C102.228 90.0962 101.047 90.2819 100.664 90.6137C100.301 90.9448 99.4111 91.9701 98.5926 92.4364C97.5686 93.0508 95.9002 93.0993 95.01 93.3061C94.1088 93.5109 93.1149 94.1253 92.0684 94.8387C91.2478 95.3699 90.3815 95.8269 89.4797 96.204L89.4756 96.2074Z"
          fill="#CCA847" />
    <path fill-rule="evenodd" clip-rule="evenodd"
          d="M89.4756 118.835C89.4756 118.835 89.5438 118.879 89.6756 118.952C97.0331 115.505 103.625 110.619 109.063 104.582C109.004 102.486 108.927 100.338 108.842 99.5416C108.667 97.8534 108.791 96.1344 108.739 95.1404C108.687 94.1465 108.128 90.0969 107.869 89.051C107.589 88.0052 107.05 87.4871 106.968 87.4871C106.896 87.5082 106.46 89.4552 106.46 89.9447C106.46 90.4341 106.357 91.6124 106.357 91.9128C106.284 91.8916 106.253 91.708 106.253 91.6329C106.15 91.8916 106.025 92.3476 105.974 92.3995C105.922 92.4514 106.046 91.9647 105.974 91.8609C105.901 91.7571 105.769 91.809 105.797 91.5503C105.81 91.3969 105.834 91.2446 105.87 91.095C105.87 91.095 105.559 91.5503 105.332 92.7101C105.104 93.8598 105.104 93.8912 105.021 93.9942C104.949 94.1192 104.535 94.5329 104.513 94.6885C104.493 94.9677 104.897 95.2476 104.928 95.4026C104.948 95.662 104.565 96.8628 104.441 97.4506C104.317 98.0384 104.369 99.19 104.236 99.7805C104.132 100.319 104.031 100.63 103.677 100.857C103.936 100.909 104.184 100.981 104.184 100.981C104.184 100.981 104.547 102.514 103.625 103.819C103.294 104.275 103.212 104.482 102.859 104.896C102.165 105.662 101.626 106.535 101.574 107.102C101.539 106.935 101.514 106.765 101.502 106.594C101.502 106.594 100.426 107.848 99.9695 108.562C99.3797 109.484 98.5612 109.432 98.3311 109.66C98.1011 109.888 98.0512 110.302 98.1263 110.634C97.9215 110.685 97.5365 110.758 97.2771 111.555C97.1528 111.969 96.8422 112.374 96.3555 112.653C95.8688 112.931 95.2783 113.015 94.9779 113.088C95.2366 113.16 95.3404 113.16 95.4646 113.243C95.3097 113.501 94.5949 113.906 93.7975 114.424C93.0002 114.91 92.6165 115.625 92.4199 116.091C92.2151 116.526 91.9127 116.806 91.426 116.857C91.6308 116.982 91.9339 117.271 92.0888 117.365C91.8608 117.417 91.4744 117.417 90.7843 118.007C90.0593 118.608 89.8108 118.784 89.479 118.836L89.4756 118.835Z"
          fill="#C39D3C" />
    <path fill-rule="evenodd" clip-rule="evenodd"
          d="M75.0659 123.634C75.4625 123.356 75.8919 123.129 76.3445 122.957C77.9597 122.315 79.6684 122.191 80.3416 121.984C80.9839 121.779 81.4912 121.496 82.2885 121.341C82.2674 121.523 82.2496 121.694 82.2305 121.855C79.8797 122.594 77.4859 123.188 75.0625 123.634H75.0659Z"
          fill="#D2BA6B" />
    <path fill-rule="evenodd" clip-rule="evenodd"
          d="M104.857 81.1501C104.857 81.1501 104.526 82.9414 103.936 84.0705C103.345 85.1996 102.707 86.7629 102.707 86.7629C102.711 86.4107 102.752 86.0598 102.831 85.7164C102.086 86.1513 100.273 87.1978 99.759 87.6634C99.2723 88.0982 98.4538 88.8649 98.2469 89.2274C98.7337 87.7985 99.2409 86.5145 99.3242 85.9239C98.5787 86.4626 95.0985 89.3311 93.2867 91.2262L87.6424 95.7933C86.991 96.1446 86.3203 96.4587 85.6333 96.734C84.6605 97.1477 83.5109 97.4999 82.6617 97.8317C82.8897 97.2207 83.2515 96.6814 83.7594 96.1639C84.298 95.6567 85.9132 93.9064 86.1617 93.0919C86.3897 92.2427 86.4416 91.7355 86.1412 91.0207C85.8613 91.0931 85.2196 91.1245 84.7847 91.2487C84.3499 91.373 83.8836 91.8386 83.8836 91.8386C83.8836 91.8386 84.2147 89.9435 84.9295 88.1522C84.3908 88.1726 83.4692 88.3276 83.4692 88.3276C83.4692 88.3276 84.7533 86.1738 86.9508 84.6726C86.2778 84.8158 85.6193 85.0201 84.9834 85.2829C83.6993 85.8215 82.291 86.6189 81.2451 87.0538C81.8349 86.2346 85.9774 80.3227 88.4425 74.8129C90.9001 69.314 91.8183 67.9056 92.3569 64.9545C92.6361 63.4942 92.5617 61.3363 92.6361 59.4037C92.7085 57.4875 92.9467 55.7685 92.7917 54.6189C93.4334 55.4163 95.8364 57.6636 95.919 62.6867C95.9914 67.709 93.6205 74.4927 91.1035 78.1477C91.7179 78.3238 93.3099 78.5313 94.9456 75.6901C96.5812 72.8488 96.5614 72.0556 97.1519 70.8746C97.2243 71.4651 97.2031 71.6719 97.2031 71.6719C97.2031 71.6719 99.5856 68.7829 100.714 65.1477C100.942 66.7117 101.615 68.0893 100.558 70.9578C99.6164 73.5465 98.3842 74.1787 98.3842 74.1787C98.3842 74.1787 98.9951 74.0749 99.8956 73.5363C100.051 73.9192 100.02 74.3555 100.279 74.5098C100.538 74.664 100.89 74.9241 100.942 75.1726C101.221 74.7582 101.656 74.2299 101.791 73.8366C101.688 74.6558 101.615 78.2378 101.996 80.0605C102.794 79.9882 103.612 79.9363 104.171 78.4965C103.788 79.9056 103.788 80.7541 104.047 81.9556C104.471 81.6662 104.854 81.148 104.854 81.148L104.857 81.1501Z"
          fill="#C0993A" />
    <path fill-rule="evenodd" clip-rule="evenodd"
          d="M77.9495 24.0674C77.9495 24.0674 77.1522 24.3985 75.7957 24.3985C74.6154 24.3985 74.9465 23.9431 73.1033 23.9431C70.2661 23.9431 60.3552 25.5815 58.615 25.5583C57.4859 25.5378 62.4257 26.045 62.4257 26.045L75.0502 26.2212L77.587 26.0164L78.5298 24.0981L77.9495 24.0674Z"
          fill="#A88F33" />
    <path fill-rule="evenodd" clip-rule="evenodd"
          d="M45.2147 48.7459C45.2147 48.7459 43.5988 49.9781 42.9155 50.9209C42.2321 51.8637 41.8696 52.4842 41.0928 53.2508C41.2751 53.2578 41.4573 53.2333 41.6314 53.1785C41.6314 53.1785 41.6314 53.3833 41.5072 53.4372C41.6145 53.4252 41.7232 53.4374 41.8253 53.4728C41.9273 53.5082 42.0202 53.566 42.097 53.642C41.869 53.7663 41.2477 54.3882 41.7345 55.1234C42.097 55.6825 42.8636 55.7337 42.8636 55.7337C42.8636 55.7337 42.6875 56.2416 43.4227 56.1897C45.0072 56.1174 46.778 55.4231 47.5959 55.5992C48.4151 55.804 48.8806 55.8791 49.4602 56.884C50.0746 57.878 50.6098 58.0336 50.6098 58.0336C50.6098 58.0336 50.9723 57.1113 50.8897 55.7344C51.1869 54.9922 51.3517 54.2036 51.3765 53.4044L50.8378 49.4381L48.4874 46.4658L45.4427 48.1541L45.2147 48.7439V48.7459Z"
          fill="#E3C571" />
    <path fill-rule="evenodd" clip-rule="evenodd"
          d="M48.1035 48.1552C48.1035 48.1552 48.3315 48.6938 49.2845 48.745C49.1808 48.9731 49.1808 49.0045 49.2122 49.1799C49.2326 49.356 49.2634 49.6148 49.2634 49.6148C49.3683 49.564 49.4631 49.4946 49.5433 49.41C49.5951 49.638 49.4914 49.9998 49.5433 50.2592C49.5753 50.417 49.6273 50.57 49.6982 50.7145C49.7133 50.6791 49.7307 50.6447 49.7501 50.6115C49.7706 50.5596 49.9549 51.1706 50.4649 51.6355C50.4644 51.564 50.482 51.4935 50.5161 51.4307C50.5239 51.5605 50.5668 51.6858 50.6403 51.7932C50.6021 51.775 50.5673 51.7505 50.5372 51.7208C50.5372 51.7208 50.5884 53.3592 50.8683 54.2064C50.9151 54.1516 50.9567 54.0927 50.9926 54.0303C50.9926 53.9791 50.9721 54.4863 50.9202 54.8495C50.8478 55.212 50.8997 55.7192 50.8997 55.7192C51.0864 55.5722 51.2916 55.4503 51.51 55.3567C51.8206 55.2318 52.3292 54.8488 52.6392 53.9995C52.819 53.5186 52.9576 53.0232 53.0535 52.5188C53.1537 52.7116 53.2228 52.9189 53.2583 53.1332C53.2795 53.392 53.7662 53.2575 53.7662 53.2575L53.87 52.1283L54.4844 49.5704L55.0435 47.9859L57.7359 43.7923L62.6006 40.0458L66.8468 41.0193L70.4294 36.1519L64.2575 32.4443L58.4166 33.0553L53.1157 40.3974L48.8701 47.0568L48.1035 48.1545V48.1552Z"
          fill="#D8B65B" />
    <path fill-rule="evenodd" clip-rule="evenodd"
          d="M78.6947 37.5304C78.6947 37.5304 78.3322 37.6028 77.2863 38.1448C76.2405 38.6868 75.5155 38.8589 75.1113 39.6562C74.7072 40.4536 74.6765 41.0857 74.6765 41.0857C74.6765 41.0857 75.3912 40.7751 75.8056 40.6713C76.2405 40.5683 76.7272 40.599 76.6753 40.7751C76.6255 40.8959 76.5563 41.0077 76.4705 41.1062C76.4705 41.1062 77.2897 41.0857 77.2679 41.4899C77.246 41.894 77.1129 42.3391 76.9579 42.5357C76.8023 42.7405 76.1606 43.0436 76.0882 43.2819C75.9121 43.7686 76.1606 43.7891 76.0671 44.1823C75.9947 44.566 75.6534 45.3114 74.5345 46.616C73.3849 47.9213 72.8961 48.8429 72.8961 48.8429C72.8961 48.8429 72.337 47.797 72.0468 46.8959C71.842 46.999 70.7423 47.61 70.7423 47.61L68.1946 38.7353L68.2458 38.1448C68.2458 38.1448 68.4738 37.8656 68.5256 37.3474C68.1427 37.2232 68.0908 37.1194 67.5829 36.6334C67.075 36.1473 66.6613 35.5561 65.8127 35.152C65.6885 34.924 65.5328 34.614 64.9116 34.4891C64.2904 34.3642 63.9176 34.2618 63.9176 34.2618C63.9176 34.2618 64.2487 34.1369 64.4044 33.8781C64.0207 33.93 63.7108 34.0543 62.8718 34.0338C62.0226 34.0126 61.929 33.9819 61.4635 34.0543C60.9979 34.1266 60.4395 34.3341 60.2312 33.6194C60.0032 33.4433 59.5165 33.5989 59.1021 34.2092C58.6877 34.8195 58.543 35.3069 57.7457 35.5452C57.6896 35.8967 57.5665 36.2341 57.3832 36.5392C57.1552 36.9228 56.7927 37.3058 56.3059 37.8751C55.5393 38.7763 55.6635 40.257 54.4416 41.3861C53.2093 42.5145 54.6464 38.2581 54.6464 38.2581L56.6138 33.5477L62.2164 28.0693L70.9157 27.4795L71.7649 31.9851L76.0111 33.4453L78.6933 37.5359L78.6947 37.5304Z"
          fill="#D3AE4D" />
    <path fill-rule="evenodd" clip-rule="evenodd"
          d="M80.0726 38.5243L76.4169 33.2535L73.859 31.2853C73.859 31.2853 72.0362 27.9307 71.912 27.8269C71.8082 27.7546 70.0893 27.5682 68.9915 27.4958L69.1963 28.0031C69.4359 28.0809 69.6488 28.2245 69.8107 28.4174C70.2975 28.9766 70.6081 30.0326 69.5001 31.1618C69.935 31.3167 70.1145 31.3666 70.4941 31.3167C70.1111 31.7728 69.2414 32.7462 69.1895 33.5955C69.1376 34.2891 69.5725 34.4959 69.5725 34.4959C69.5725 34.4959 68.9096 35.2625 68.8789 36.5439C69.1919 36.1909 69.5345 35.8652 69.9029 35.5704C70.6695 34.956 71.7256 34.2652 72.4404 33.8303C72.4306 34.0128 72.4552 34.1955 72.5127 34.3689C72.5127 34.3689 73.848 33.2712 74.9703 33.758C75.4776 33.986 75.2496 34.7007 75.2496 34.7007C75.2496 34.7007 75.9438 34.442 76.4306 34.9287C76.9173 35.4155 77.6109 36.6682 77.9632 37.1556C78.1181 37.3836 78.5223 37.8185 78.936 38.4909C79.5013 39.4334 79.9732 40.4289 80.345 41.4632C80.3655 41.0488 80.4487 40.4692 81.1642 40.4692L80.0767 38.5223L80.0726 38.5243Z"
          fill="#CAA13E" />
    <path fill-rule="evenodd" clip-rule="evenodd"
          d="M25.2693 53.4992C25.2693 53.4992 25.0106 52.8569 25.2693 51.6042C25.528 50.3515 25.9322 49.761 26.0666 47.9178C26.2011 46.0746 27.4026 43.7753 27.4026 43.7753L30.7265 42.2639L33.0776 42.9056L33.7712 46.0541L30.7989 47.6925C30.7989 47.6925 30.6439 48.3861 29.8049 48.9452C28.9659 49.5043 27.8061 49.9391 27.5269 50.5092C27.36 50.8582 27.2381 51.2271 27.1644 51.6069C27.1644 51.6069 26.3151 51.4308 25.8079 51.9899C25.2693 52.5599 25.2898 53.0671 25.2693 53.502V53.4992Z"
          fill="#F4EFC8" />
    <path fill-rule="evenodd" clip-rule="evenodd"
          d="M31.9796 52.6603C31.9796 52.6603 31.6997 52.8364 31.4929 53.2747C31.2881 52.9436 30.7986 50.9755 30.7781 49.2046C30.7576 47.4338 30.6518 46.9948 31.0614 46.3845C31.471 45.7742 33.0773 45.1311 32.8493 44.0321C32.6213 42.9862 31.6683 42.5514 30.4982 42.8517C29.679 43.0565 29.0694 44.7987 28.2202 45.6684C27.5778 46.3313 26.8118 46.2275 26.605 46.59C26.3251 47.0767 26.5838 47.5635 26.5012 47.8741C26.4801 47.9779 26.2213 48.537 25.7551 49.2101C24.813 50.5665 23.2183 52.4828 23.0107 54.2017C23.0831 53.2283 23.0319 53.2078 23.2906 52.1305L23.135 51.8718L24.159 48.5165L24.8219 45.7517L26.3032 41.1218L28.9124 36.3896L31.4499 33.5518L34.0904 33.7279L34.401 37.6942L35.9131 45.1407L39.0923 49.0551L33.9969 52.4842L31.9776 52.6603H31.9796Z"
          fill="#EBCC73" />
    <path fill-rule="evenodd" clip-rule="evenodd"
          d="M33.5644 54.0673C33.5644 54.0673 33.1295 54.171 32.9739 54.0884C32.8182 54.0058 32.6639 53.9123 32.7151 53.8085C32.7663 53.7048 33.0462 53.5293 33.0462 53.446C33.052 53.3708 33.0282 53.2962 32.9799 53.2382C32.9316 53.1802 32.8626 53.1434 32.7875 53.1354C32.5492 53.1047 32.4769 53.2597 32.4769 53.2597C32.4769 53.2597 32.2489 53.0842 32.0632 53.0549C32.1731 53.0414 32.2836 53.0343 32.3943 53.0337C32.1081 52.9041 31.8045 52.8169 31.4932 52.775C31.7519 52.62 32.2598 52.164 32.5909 52.164C32.922 52.164 33.1295 52.1128 33.0776 51.9366C33.0258 51.7605 32.767 51.5018 32.4878 51.398C32.5909 51.2738 32.6639 51.0874 32.4154 50.5788C32.156 50.0716 32.2598 49.7296 32.3431 49.606C32.4154 49.4504 32.6742 49.1712 32.7984 48.995C32.9227 48.8189 33.0264 48.5807 33.2333 48.4564C33.337 48.3841 33.6681 48.2516 33.9999 48.1253C34.3624 48.0011 34.6628 47.8454 34.8696 48.0011C35.0976 48.156 34.9939 48.3636 34.9939 48.3636C34.9939 48.3636 35.7086 48.1042 36.3503 48.4359C36.9927 48.7459 38.5567 48.9432 38.5567 48.9432L39.1172 50.0723L35.4096 53.2515L33.877 54.0181L33.5664 54.0693L33.5644 54.0673Z"
          fill="#E5C66B" />
    <path fill-rule="evenodd" clip-rule="evenodd"
          d="M38.7106 48.8702C38.7106 48.8702 37.561 49.6368 37.3023 49.916C37.4573 49.9372 37.716 50.0409 37.6122 50.1959C37.488 50.3509 36.7425 50.8895 36.3281 51.3974C35.8933 51.9046 35.4789 52.547 35.3342 52.8576C35.1792 53.1368 33.9982 53.9553 33.5947 54.0584C34.444 54.0584 36.1527 53.0126 36.7944 53.0126C36.7739 53.3232 36.9705 53.6755 37.333 53.7062C37.6955 53.7369 38.7414 53.9342 40.1497 53.0645C41.558 52.2152 41.0925 51.5831 41.6823 51.1694C42.8114 50.4232 43.2668 49.7604 43.888 49.3467C44.5092 48.933 44.8307 48.8388 44.8307 48.8388C44.8307 48.8388 44.8512 48.5282 45.0355 48.5596C45.086 48.5653 45.1339 48.5848 45.1741 48.6158C45.2143 48.6469 45.2452 48.6883 45.2635 48.7357C45.2635 48.7357 46.3408 47.969 47.7211 47.7622C47.6889 47.7478 47.6632 47.722 47.6488 47.6898C47.6488 47.6898 47.7519 47.638 47.773 47.5861C47.773 47.5861 47.8454 47.4823 47.8973 47.5342C47.9492 47.5861 48.0215 47.969 48.1253 48.1247C48.3533 48.0209 48.7882 47.0474 48.7882 47.0474L49.8347 44.0546V41.3206L49.0155 41.4762L42.8715 44.0854L39.1428 47.9486L38.7079 48.8702H38.7106Z"
          fill="#E6BD62" />
    <path fill-rule="evenodd" clip-rule="evenodd"
          d="M56.3985 35.459C56.7308 35.3784 57.0494 35.2491 57.344 35.0754C57.2197 35.4071 57.2197 35.7696 56.6811 36.5567C56.1425 37.3439 56.122 37.4579 55.6871 38.2757C55.2523 39.1249 55.2004 40.3469 54.786 40.8849C54.9717 40.7946 55.171 40.7353 55.3758 40.7094C55.3758 40.7094 54.9621 41.0719 54.786 41.4549C54.6099 41.8379 54.2993 42.6352 53.5333 43.1226C52.7674 43.6101 51.7932 43.92 50.7474 45.0696C49.7008 46.198 48.6243 47.6276 48.085 48.1416C48.3649 47.6549 48.7478 46.6814 48.8516 46.0397C48.9554 45.398 48.8304 44.6306 49.0066 43.7821C49.1827 42.9335 49.1827 42.3219 50.0306 40.8405C50.8784 39.3591 52.3298 34.2125 52.3298 34.2125L55.4571 33.2185L56.3998 35.4556L56.3985 35.459Z"
          fill="#B6933F" />
    <path fill-rule="evenodd" clip-rule="evenodd"
          d="M54.1408 33.564C54.1408 33.564 53.1987 34.9205 52.94 36.122C52.6812 37.3235 52.9188 37.2197 52.7638 37.8102C52.6712 38.1702 52.6712 38.5479 52.7638 38.9079C53.0901 38.3823 53.5368 37.9419 54.0671 37.6231C54.9579 37.0852 55.6829 36.7015 56.1151 36.2462C56.5499 35.7595 56.9124 34.9621 57.8545 34.3511C57.4715 34.2992 56.9329 34.1231 56.8305 34.1463C57.2142 33.7115 58.3631 33.0486 59.5229 32.2512C60.6725 31.432 60.6002 31.1016 62.4645 30.2838C61.8536 30.3876 61.5634 30.2319 61.0555 30.2838C61.2603 29.8489 61.9771 29.6414 62.6939 28.9273C63.4107 28.2133 62.2386 27.1565 62.2386 27.1565L56.7772 30.4599L54.1367 33.5667L54.1408 33.564Z"
          fill="#C49937" />
    <path fill-rule="evenodd" clip-rule="evenodd"
          d="M39.3213 31.0989L39.4455 30.105L41.0095 27.5989L42.6459 23.1977V17.1807L42.5216 13.7012L42.7804 11.4224L42.977 10.6981L43.1845 10.4182L44.5198 11.1118L46.3637 13.6179L46.5398 18.4546L44.7478 26.0868L39.6319 31.6689L39.3213 31.0989Z"
          fill="#DFC068" />
    <path fill-rule="evenodd" clip-rule="evenodd"
          d="M43.3918 10.1382C43.3918 10.1382 42.5726 10.1594 42.3979 13.5666C42.2231 16.9738 42.1385 18.7651 42.0142 20.4533C41.89 22.1415 41.6005 23.1662 41.4551 24.1609C41.3097 25.1555 41.2271 26.5113 40.7615 27.34C40.5567 27.723 40.1191 28.9245 39.0938 29.8256C37.9441 30.8196 36.2266 31.5139 35.9665 31.5658C35.5104 31.6688 33.201 31.8969 32.2589 32.415C31.9278 32.5911 31.3578 32.798 30.7263 33.3885C29.4729 34.5169 27.8059 36.5363 26.6044 38.97C24.7612 42.6052 22.918 52.8677 22.918 52.8677L23.3323 52.1741C23.3323 52.1741 23.3842 51.2525 24.3058 49.6366C25.207 48.0214 24.9482 46.209 26.2009 43.1124C26.6877 41.9321 27.2986 40.3995 28.0441 39.0942C29.2251 36.9711 30.6539 35.1484 32.0937 34.1544C34.4441 32.5392 37.0335 32.187 37.0335 32.187L39.8194 30.3438C39.8194 30.3438 40.3062 29.4017 40.9486 28.3245C41.849 26.813 42.9966 25.1248 43.2471 22.6706C43.6308 19.0354 42.7085 16.6536 42.7604 14.4998C42.8122 12.346 42.8327 10.7615 43.2683 10.3778C43.7038 9.99417 43.3925 10.1396 43.3925 10.1396L43.3918 10.1382Z"
          fill="#A88F33" />
    <path fill-rule="evenodd" clip-rule="evenodd"
          d="M43.392 26.3974C43.392 26.3974 44.6208 23.3732 45.1833 20.691C45.2871 20.1524 45.4939 19.6144 45.5458 19.1796C45.8045 16.6421 45.8769 15.5963 45.5458 14.2084C45.2871 13.1844 44.2931 12.2614 43.775 11.546C43.2677 10.7999 43.0295 10.522 43.1332 10.365C43.237 10.208 43.6405 9.9513 44.0337 9.98202C44.4517 9.99418 44.8628 10.0912 45.2421 10.2673C45.6214 10.4433 45.9609 10.6947 46.2401 11.006C47.0374 11.9276 47.6689 15.0556 47.6689 15.0556L48.3331 19.183L50.0214 24.3815L43.3933 26.4015L43.392 26.3974Z"
          fill="#C99E3D" />
    <path fill-rule="evenodd" clip-rule="evenodd"
          d="M54.9381 23.2497C54.9381 23.2497 54.7101 23.3527 54.2964 23.2497C54.314 23.4187 54.2847 23.5894 54.2116 23.7428C54.1385 23.8963 54.0244 24.0266 53.882 24.1194C53.4472 23.9432 49.3764 24.2955 49.3764 24.2955C49.3764 24.2955 47.4813 23.9637 46.8908 21.4577C46.4771 19.7899 47.2014 17.4914 46.9632 15.9793C46.6007 13.7524 46.0935 13.3169 46.0416 12.624C45.9897 11.931 45.9378 11.7542 45.9378 11.3194C45.7098 11.2675 45.5753 11.1951 45.348 11.1951C45.2961 10.9903 45.3992 10.8115 45.1719 10.449C45.2961 10.5009 46.1454 10.6046 47.1393 11.5467C47.9585 12.3133 47.9585 12.5925 48.0821 12.7482C48.237 12.9032 49.4904 13.977 50.029 15.0474C50.5677 16.1178 51.6135 19.5312 51.8518 20.0903C51.9241 20.3183 52.0798 20.5463 52.4662 21.0638C53.0669 21.8099 53.9469 23.0435 54.9408 23.2483L54.9381 23.2497Z"
          fill="#B58634" />
    <path fill-rule="evenodd" clip-rule="evenodd"
          d="M48.2285 12.8C48.8559 13.8135 49.4195 14.865 49.9161 15.9485C50.5271 17.3254 50.8896 18.4546 51.6562 19.3762C51.2418 18.1754 50.5066 15.814 50.0717 14.975C49.585 14.0876 48.591 13.1318 48.2285 12.8007V12.8Z"
          fill="#A88F33" />
    <path fill-rule="evenodd" clip-rule="evenodd"
          d="M41.1857 29.8256C41.1857 29.8256 40.1398 30.0844 38.1929 31.1097C37.5505 31.4408 36.9402 31.72 36.3497 31.9794C34.8157 32.673 33.1705 33.3141 31.8652 33.6677C31.969 33.7919 32.0202 33.8431 32.0202 33.8431C32.0202 33.8431 32.0202 34.351 32.3001 34.6405C32.1451 34.7961 30.0732 36.2045 30.6849 40.9162C31.0986 40.7613 31.5853 40.5537 31.6577 40.5537C31.7826 40.5749 31.8133 40.9162 31.9683 40.9162C32.1233 40.9162 32.6312 40.7114 33.1698 40.0151C33.1493 40.295 32.8387 43.1117 34.5058 45.0068C34.8164 44.6443 35.6035 43.4428 35.6035 43.4428L35.624 43.0598C35.624 43.0598 35.6964 41.7238 36.1319 40.5019C36.5674 39.2799 37.416 38.3788 37.416 38.3788L41.8472 32.0511L41.1843 29.825L41.1857 29.8256Z"
          fill="#E6C367" />
    <path fill-rule="evenodd" clip-rule="evenodd"
          d="M37.0436 39.1167C36.8407 39.2601 36.6172 39.3717 36.3808 39.4478C36.3084 39.1891 36.2046 38.2982 36.8156 37.4285C37.5304 36.3819 39.0937 35.0255 39.5285 33.9469C39.8084 33.2526 39.6842 31.5132 42.1698 29.2863C44.6554 27.0595 45.6282 26.2935 45.6282 26.2935L49.6463 24.2742L54.5861 26.2211L52.1319 35.8399L50.2266 40.3455L42.649 38.9167L37.0429 39.1167H37.0436Z"
          fill="#DCBA5A" />
    <path fill-rule="evenodd" clip-rule="evenodd"
          d="M39.9355 36.5049L40.8783 35.3245V34.4856C40.8783 34.4856 41.9242 34.2057 43.0526 33.056C44.181 31.9064 45.745 29.7007 47.1227 29.8352C48.5003 29.9909 48.6348 32.828 48.6867 33.6261C48.7385 34.4241 48.9147 36.2352 49.1939 37.2094C49.5045 38.1829 45.8386 41.8693 45.8386 41.8693L43.3489 43.7644L39.9355 36.5049Z"
          fill="#E9CE77" />
    <path fill-rule="evenodd" clip-rule="evenodd"
          d="M42.8535 46.3326C42.8535 46.3326 43.6202 45.1311 43.0583 44.8724C43.3894 44.1269 44.0004 43.3398 44.0004 43.3398C44.0004 43.3398 44.4353 42.2632 45.8436 40.9375C47.2519 39.6117 48.1223 38.7311 48.3503 37.8409C48.4909 37.2607 48.5674 36.6669 48.5784 36.0701C48.7306 36.1945 48.8935 36.3052 49.0651 36.4012C49.2931 36.5049 50.3697 37.3951 50.2147 39.1871C50.0597 40.9791 49.3955 41.7246 49.3955 41.7246C49.3955 41.7246 48.7538 42.3663 48.2985 42.6981C47.811 43.0292 47.6356 43.4121 46.8171 43.4436C46.9012 43.3767 46.9958 43.3241 47.097 43.2879C47.097 43.2879 46.2477 43.1848 45.7917 43.5985C45.3357 44.0122 44.3663 45.2868 43.8796 45.6704C43.3928 45.981 42.8556 46.3333 42.8556 46.3333L42.8535 46.3326Z"
          fill="#CDAE50" />
    <path fill-rule="evenodd" clip-rule="evenodd"
          d="M77.2869 26.1898C76.0634 25.7439 74.7776 25.4924 73.4762 25.4444C71.3013 25.372 68.1221 25.4962 65.005 25.5167C61.6497 25.5372 58.605 24.3671 54.38 24.1603C53.6864 23.7459 51.9224 21.9334 46.416 25.7755C46.7471 25.755 50.4137 24.9262 51.6869 26.5216C52.971 28.1061 52.6085 30.7985 52.433 31.4402C52.1013 32.8697 51.024 34.9512 50.5898 36.4114C50.1557 37.8716 50.2581 38.6389 49.9475 39.6629C49.6368 40.6869 48.9535 41.1955 49.3569 42.3759C49.8956 42.0448 50.1761 42.0448 51.0759 40.0254C51.9757 38.0061 51.7907 36.5664 53.2823 34.8576C54.7425 33.1387 57.1735 30.7876 58.0978 30.1971C59.0221 29.6066 66.3615 25.7959 74.0463 29.4311C75.8997 29.2345 77.2876 26.1891 77.2876 26.1891L77.2869 26.1898Z"
          fill="#D2A83E" />
    <path fill-rule="evenodd" clip-rule="evenodd"
          d="M49.5121 24.7809C49.5045 24.7031 49.4873 24.6265 49.4609 24.5529C49.389 24.4015 49.2946 24.2618 49.181 24.1385C49.181 24.1385 47.3582 23.8074 46.4366 23.9105C44.8208 24.0866 43.3606 26.0855 42.6772 27.1109C41.9939 28.1362 41.1446 29.72 40.223 30.5385C40.2331 30.4588 40.2147 30.378 40.1711 30.3105C40.1711 30.3105 40.223 30.3829 40.1199 30.4866C40.0169 30.5904 40.0162 30.6416 40.0681 30.6914L40.2237 30.8464C40.2749 30.8464 41.7044 30.204 43.6514 28.3888C45.7226 26.4937 47.3071 25.5216 48.1358 25.1885C48.5778 25.0006 49.0398 24.8639 49.5127 24.7809H49.5121Z"
          fill="#C29637" />
    <path fill-rule="evenodd" clip-rule="evenodd"
          d="M84.8679 16.9944C84.8679 16.9944 84.5361 17.4081 84.1218 17.8641C83.2002 18.8376 81.9987 19.9346 80.9733 21.0638C80.0005 22.141 78.9028 22.98 77.6699 24.3883C76.437 25.7967 75.0075 27.36 74.6457 27.816C74.3146 28.272 74.0558 29.0175 74.0558 29.4005C73.8797 29.2762 73.6729 29.1418 73.6729 29.1418C73.7599 29.3043 73.8641 29.4572 73.9835 29.5978C74.2422 29.9603 74.6457 30.417 74.8532 30.6955C75.1078 31.0501 75.2905 31.4511 75.3911 31.8758C75.5154 31.8963 76.3127 32.052 77.3074 30.4156C78.302 28.7793 79.6059 26.9879 79.6059 26.9879L81.6771 23.9118L82.9824 21.3027L84.6208 18.3822L84.87 16.9944H84.8679Z"
          fill="#AC8132" />
    <path fill-rule="evenodd" clip-rule="evenodd"
          d="M86.9908 14.9026C86.9908 14.9026 85.7374 15.9266 85.2507 16.541C84.764 17.1554 83.6123 18.7678 83.6123 18.7678L84.0267 18.716L86.1293 16.8523L86.9485 15.3921L86.9901 14.9053L86.9908 14.9026Z"
          fill="#A88F33" />
    <path fill-rule="evenodd" clip-rule="evenodd"
          d="M86.607 97.2015C86.607 97.2015 86.5865 96.3522 87.063 95.845C87.5498 95.3371 88.782 94.5917 89.9835 91.7955C91.185 88.9993 91.3188 88.3678 91.3188 88.3678C91.3188 88.3678 89.165 90.211 87.8372 90.6458C88.1478 90.0034 88.3239 89.5481 88.4796 89.2163C88.3035 89.0614 87.558 88.8852 87.4856 88.8026C87.8993 88.3883 88.1273 87.3731 88.9663 86.7C90.0436 85.8808 92.011 84.4732 93.5402 83.2184C95.0694 81.9637 98.0758 79.0453 98.4595 78.196C98.6875 78.5271 98.7387 78.734 98.7387 78.734C98.7387 78.734 97.2273 80.7021 96.4402 81.9548C95.7459 83.0321 95.7978 83.643 95.7978 83.643L97.2273 83.0286C97.2273 83.0286 97.641 84.5612 95.767 86.8919C96.5862 86.5812 96.9167 86.7676 97.3822 86.5082C96.6156 86.9956 95.5595 87.6585 94.5656 89.4805C93.5921 91.3032 92.2663 93.4263 90.0299 94.7514C87.8549 96.1495 86.6016 97.1953 86.6016 97.1953L86.607 97.2015Z"
          fill="#A67A2E" />
    <path fill-rule="evenodd" clip-rule="evenodd"
          d="M80.9946 27.2678C80.9946 27.2678 80.1454 29.0379 80.0211 30.4155C80.0007 30.7473 79.9174 31.006 79.9174 31.389C79.8969 32.6212 79.9897 33.9989 79.7126 34.6406C79.6088 34.3818 79.5569 34.2057 79.4532 34.1026C79.2982 34.5375 79.0183 35.8939 78.7903 36.4012C78.6872 36.0701 78.4592 34.9205 78.4804 33.564C78.5015 32.2075 78.5316 31.9481 78.5316 31.6689C78.4804 32.0826 78.2005 32.6424 78.0967 32.9735C77.9417 32.6943 77.7656 32.3318 77.5581 32.0314C77.4338 32.2362 77.2789 32.5386 77.1444 32.6943C77.1232 32.57 77.072 32.2383 77.0406 31.7727C77.0201 31.2341 76.9887 30.5405 77.0201 30.3951C77.0713 30.1158 77.5069 29.0181 78.4285 28.0132C79.5262 26.8117 80.6553 24.503 80.9864 23.7882C81.3175 23.0735 82.7259 20.1018 82.7259 20.1018H83.8031L82.2391 23.664C82.2391 23.664 81.297 25.6109 80.8103 26.3264C80.3236 27.0418 79.2982 29.0918 78.8422 29.8892C79.1733 29.4543 79.4532 29.2263 79.7849 28.812C80.1058 28.5218 80.996 27.2691 80.996 27.2691L80.9946 27.2678Z"
          fill="#8C6228" />
    <path fill-rule="evenodd" clip-rule="evenodd"
          d="M87.0115 14.7673C86.8356 15.3089 86.5575 15.8118 86.1923 16.2487C85.5499 17.0154 84.1723 18.04 83.4999 18.8579C82.8855 19.6552 81.6567 21.8302 82.2151 24.4086C82.4199 23.8495 82.8056 22.7416 83.831 21.4882C84.8563 20.2348 85.9541 18.7958 86.4934 17.6775C87.0313 16.5484 87.1037 15.6582 87.1037 15.6582L87.3085 15.3995L87.1842 14.809L87.0081 14.7673H87.0115Z"
          fill="#CBA94C" />
    <path fill-rule="evenodd" clip-rule="evenodd"
          d="M107.982 83.4588C107.982 83.4588 107.568 82.3304 107.443 81.305C107.319 80.2796 107.648 80.0762 107.267 78.9027C107.039 78.1879 106.626 78.2883 106.522 78.1879C106.418 78.0876 106.346 77.0076 106.366 76.4171C106.387 75.8266 106.346 75.0606 106.242 74.7289C106.087 74.6046 105.983 74.5009 105.755 73.7349C105.496 72.9683 105.372 72.5853 105.248 72.358C105.124 72.1306 104.76 71.9231 104.76 71.6951C104.76 71.2391 105.175 71.0015 105.175 70.8759C105.154 70.6172 104.844 70.8247 104.76 70.7516C104.657 70.6274 105.02 69.8819 104.885 69.7782C104.834 69.727 104.471 70.1618 104.378 70.0376C104.274 69.9126 104.149 68.6804 103.963 67.8626C103.788 67.0652 103.601 66.4857 103.58 66.2474C103.56 66.0194 102.151 62.0012 101.809 61.0277C101.534 60.2052 101.303 59.3686 101.116 58.5217C101.012 58.0349 100.94 57.0403 100.888 57.144C100.836 57.2478 100.867 57.755 100.784 57.7346C100.712 57.7134 100.453 55.9432 100.37 55.6633C100.298 55.3835 99.8624 54.4345 99.7559 53.7478C99.6521 53.0535 99.4248 51.241 99.2691 50.0088C99.1135 48.7766 99.0411 48.2694 99.0411 47.9608C99.0666 47.2061 99.025 46.4506 98.9169 45.7032C98.7121 44.398 98.3025 42.8135 97.9434 41.8926C97.2498 40.1525 95.4059 35.6994 95.0762 34.5915C95.0762 34.3116 95.4387 34.4672 95.4387 34.4672C95.4387 34.4672 96.3391 36.7248 97.002 38.4642C97.6444 40.2044 98.2553 41.7369 98.411 41.8926C98.5352 42.0476 99.5087 43.7563 99.9436 46.5525C100.378 49.3487 100.533 51.9271 100.793 53.6461C100.917 54.4653 101.021 55.3343 101.28 56.204C101.559 57.1468 101.994 58.1203 102.564 59.6112C103.05 60.8646 103.413 61.9104 103.61 62.8116C103.838 63.9612 103.838 64.8309 103.972 65.4009C104.097 65.8876 104.283 66.8604 104.718 68.2681C105.154 69.6758 105.795 71.4889 106.23 72.6174C107.08 74.875 107.458 76.7598 107.587 77.7647C107.7 78.8003 108.084 82.3836 107.98 83.4602L107.982 83.4588Z"
          fill="#A88F33" />
    <path fill-rule="evenodd" clip-rule="evenodd"
          d="M87.0632 14.6432L87.0113 14.7674C87.0113 14.7674 87.1662 14.8193 87.1355 15.0268C87.1377 15.3108 87.1204 15.5945 87.0836 15.8761C87.0324 16.2386 86.9287 16.5178 86.9082 16.7458C86.9082 17.2325 86.9806 17.7916 86.2938 19.1795C86.089 19.5625 85.9627 19.8936 85.8589 20.1216C85.6002 20.6807 85.5483 20.764 85.3203 21.0227C85.6828 20.8179 86.9881 19.9987 87.6502 20.1216C87.1949 20.3803 86.5006 20.8882 86.0658 21.5511C86.1695 21.5716 86.6044 21.6548 87.2946 21.5511C88.4442 21.3749 89.7283 20.9606 90.8567 21.0432C92.0896 21.1155 91.6029 19.5625 91.6029 19.5625L90.1802 16.4352L87.4878 14.5408L87.0632 14.6439V14.6432Z"
          fill="#BE9C44" />
    <path fill-rule="evenodd" clip-rule="evenodd"
          d="M94.0842 38.0689C94.0842 38.0689 92.8827 36.8674 92.396 32.7441C91.9093 28.6017 92.013 22.5041 92.013 22.5041L91.0395 20.1223C91.0395 20.1223 90.8347 18.5378 90.3248 17.948C89.8148 17.3582 88.8134 16.3636 88.3573 15.8768C87.9013 15.3901 87.3839 14.7272 87.0732 14.6234C87.2282 14.3647 87.9225 12.9045 90.5835 12.884C93.2446 12.8635 94.0651 14.3442 94.343 14.8828C94.6208 15.4215 95.8755 17.75 96.3411 22.1874C96.776 26.6193 96.7971 26.951 96.7248 28.4836C96.6729 29.3329 96.393 31.3003 95.9056 33.4022C95.4605 35.184 94.9737 37.1726 94.0829 38.073L94.0842 38.0689Z"
          fill="#A17C34" />
    <path fill-rule="evenodd" clip-rule="evenodd"
          d="M90.3169 41.6004C90.7173 41.6293 91.1173 41.539 91.4665 41.3409C91.8495 41.3205 93.2374 41.4966 94.3037 40.1401C94.376 40.4501 94.5631 41.2897 94.0757 42.0352C94.3351 41.7758 94.7181 41.6727 94.7699 41.6004C94.7904 41.9833 95.1529 43.1637 93.6203 46.0322C94.034 45.5769 94.5208 45.5974 94.9556 45.5455C94.9768 46.0841 95.2662 47.8959 94.5003 48.8701C93.9931 49.5329 93.1643 49.3254 93.1643 49.3254C93.1764 49.1807 93.1764 49.0353 93.1643 48.8906C93.1438 48.6107 93.0401 48.3315 93.1131 48.1451C92.7126 47.9622 92.3479 47.7095 92.0359 47.3989C91.1347 46.5497 89.9646 45.1004 89.882 44.0231C89.7783 42.8217 90.8555 42.5629 90.8555 42.5629C90.7653 42.4822 90.6883 42.3877 90.6275 42.283C90.5756 42.1076 90.5237 41.8277 90.3169 41.6004Z"
          fill="#8C6228" />
    <path fill-rule="evenodd" clip-rule="evenodd"
          d="M82.3291 28.5724C82.3291 28.5724 82.2773 28.5 81.998 28.8311C82.0499 28.5 82.1018 28.1887 82.1223 27.8884C82.2544 27.6103 82.4255 27.3524 82.6302 27.1224C82.4745 27.4323 82.3708 27.7122 82.3708 27.7122C82.3708 27.7122 82.7544 26.9975 83.3135 26.5626C83.6965 26.252 84.1833 26.1073 84.3901 25.8172C84.6181 25.5065 84.5662 25.4547 84.6181 25.4028C84.6181 25.4028 85.126 25.0717 85.9029 24.0975C86.006 23.9733 86.1616 23.8388 86.2654 23.7145C86.4408 23.6422 86.8552 23.4558 87.342 23.2066C87.8499 22.9274 88.4192 22.5444 88.7715 22.3874C89.4651 22.0768 90.201 22.1082 90.5423 21.6208C90.801 21.5484 91.0802 20.7716 91.029 20.1094C91.412 20.2643 93.3795 21.4863 94.0533 24.1583C94.54 26.0534 93.6696 28.9738 93.3071 30.3828C92.9446 31.7918 92.8934 32.837 92.3855 33.4787C91.7431 34.3286 89.6726 35.5267 89.1647 36.12C88.7298 36.6067 87.4252 37.8389 87.4764 38.7291C87.5283 39.392 88.3462 39.7531 88.523 39.8787C88.6998 40.0043 88.6984 40.1586 89.0302 40.0835C89.362 40.0084 89.4855 39.8555 89.6207 39.8555C89.7757 39.876 89.7757 39.9074 89.848 39.9074C89.9005 39.9058 89.9527 39.8987 90.0037 39.8862C90.0037 39.8862 89.9518 40.829 87.7461 41.115C87.5904 41.1362 87.4355 41.1874 87.2382 41.2188C87.4976 41.0945 87.6526 41.0945 87.9325 40.7116C87.6219 40.6597 86.731 40.6078 86.503 40.5354C86.5753 40.4112 86.8136 40.0794 87.0102 39.9245C87.1863 39.7695 86.9897 39.7197 86.8347 39.8002C86.5679 39.9817 86.312 40.1787 86.0681 40.39C85.8094 40.618 85.5814 40.9287 85.167 41.2092C85.0427 40.7949 85.0632 40.0077 85.5506 39.4384C85.4257 39.4589 85.1875 39.8214 84.9601 39.749C84.919 39.3713 84.9435 38.9893 85.0325 38.6199C85.1567 38.1536 85.8299 37.3358 85.8299 37.3358L89.0814 31.5256L89.775 27.1245L82.3291 28.571V28.5724Z"
          fill="#92723A" />
    <path fill-rule="evenodd" clip-rule="evenodd"
          d="M82.1544 28.8208C82.1544 28.8208 81.9782 28.945 82.3305 29.1832C82.2786 29.2556 82.1544 29.5143 81.9987 29.6905C81.8233 29.8953 81.6362 30.0222 81.5639 30.1984C81.4089 30.5609 81.2847 30.8094 81.2847 30.965C81.2847 31.1207 81.2328 32.1146 80.7979 32.7563C80.6423 32.9843 80.4661 33.3673 80.3419 33.626C80.0832 34.0814 79.8552 34.4452 79.8033 34.65C79.7002 35.0125 79.6278 36.0065 79.6278 36.0065C79.6278 36.0065 79.8558 35.7266 79.9384 35.6235C79.8135 35.8823 79.679 36.1615 79.4824 36.369C79.6067 36.2652 79.9692 36.0065 80.5801 35.4679C81.4294 34.7538 82.7551 33.5523 84.371 32.6007C83.8836 32.7768 83.4699 32.7768 83.1388 32.8287C83.3975 32.57 85.7275 29.8359 86.9494 29.5771C87.0236 29.4831 87.0606 29.365 87.0532 29.2454L86.0067 29.1423L83.8836 29.5976L83.5736 27.9592L82.1544 28.8187V28.8208Z"
          fill="#B18E3E" />
    <path fill-rule="evenodd" clip-rule="evenodd"
          d="M85.531 38.1412C85.531 38.1412 85.2511 38.4205 84.9924 39.1147C84.7932 38.9067 84.6224 38.6733 84.4845 38.4205C84.1015 37.7788 83.5117 36.9602 82.1341 37.4265C82.1136 36.9916 82.0822 36.7636 82.1341 36.453C82.3621 36.4018 83.0557 35.8427 83.7493 35.0242C84.2367 34.4651 84.692 33.8227 85.0026 33.0049C85.2074 32.8492 85.5617 32.5905 86.0266 32.2901C86.6895 31.8348 87.4869 31.2129 87.6111 30.5193C87.3005 30.6435 86.6376 30.9541 85.643 30.9029C86.0266 30.7268 86.6165 30.5404 86.5441 29.7738C86.6997 29.67 86.824 29.5977 86.824 29.5977C86.7073 29.5587 86.5845 29.5412 86.4615 29.5458C86.4403 29.4734 86.4096 29.3703 86.2335 29.4215C86.0574 29.4727 86.0287 29.4734 86.0055 29.5458C85.9331 29.567 85.6949 29.5458 85.5187 29.6707C85.3426 29.7956 84.8559 30.2087 84.6695 30.281C84.7419 30.1568 84.8449 29.9711 84.8449 29.9711C84.8449 29.9711 84.3377 30.0223 83.9752 30.1759C83.3124 30.4039 82.5464 30.8183 81.7695 31.2217C81.8419 31.0975 81.8733 31.0169 81.9245 30.9937C81.9757 30.9705 82.1006 30.9425 82.1006 30.9214C82.1006 30.9002 82.0494 30.7166 82.0801 30.6422C82.3124 30.1501 82.5865 29.6789 82.8993 29.2338C83.2618 28.7464 83.3342 28.0528 83.3342 28.0528L84.9187 27.2554L89.3717 26.2314L92.2614 26.4076L91.8989 28.4064L90.1923 31.8962L88.732 35.0754L87.0643 37.023L85.5317 38.1412H85.531Z"
          fill="#543E26" />
    <path fill-rule="evenodd" clip-rule="evenodd"
          d="M92.7487 29.4912C92.7487 29.4912 91.0086 31.645 90.5218 31.9768C90.8325 31.314 92.7487 27.3681 93.4423 26.2704C93.2873 26.1462 93.0798 26.1462 93.5665 24.2224C93.1528 25.1952 93.0074 25.7031 92.6661 25.9618C92.3248 26.2206 92.2824 26.138 92.0517 26.138C92.0953 26.0592 92.1132 25.9687 92.1029 25.8792C92.1029 25.8792 90.6427 25.7031 89.6453 25.7031C88.6479 25.7031 86.6737 26.2417 85.5752 26.6766C84.7055 27.0391 84.2188 27.0391 83.9082 27.2664C83.5976 27.5252 83.4214 27.805 83.2658 27.8774C83.1415 27.9498 82.5517 28.1361 82.4165 28.3327C82.2923 28.5375 82.0855 28.7676 82.0855 28.8195C82.0855 28.8714 82.0336 28.9444 82.1892 28.8919C82.2404 28.8714 82.6241 28.6638 83.0589 28.4051C83.6488 28.074 84.3635 27.691 84.8817 27.463C86.3624 26.8725 86.8286 26.9763 87.4908 26.852C88.1844 26.7278 89.179 26.4377 89.8412 26.4377C90.5041 26.4172 91.7575 26.4377 92.0476 26.4895C91.9234 26.5933 91.8196 26.7176 91.8715 27.1524C91.8715 27.2767 91.7677 27.4111 91.6667 27.7115C91.3567 28.5608 90.7662 29.9691 90.4379 30.6839C89.9825 31.6567 89.4651 32.4752 89.2091 32.9824C88.9531 33.4896 88.3899 34.8256 87.8321 35.5403C87.2744 36.2551 86.9829 36.69 86.8081 36.8456C86.6334 37.0012 85.3786 37.9222 85.4722 38.2539C85.7002 38.1816 87.1399 37.6395 88.1851 36.4626C89.2302 35.2857 89.4385 34.5675 90.2563 33.9252C91.0741 33.2828 91.7165 32.2062 92.0995 31.316C92.4203 30.4872 92.348 30.2285 92.7514 29.4933L92.7487 29.4912Z"
          fill="#806031" />
    <path fill-rule="evenodd" clip-rule="evenodd"
          d="M55.2495 45.5667C55.2495 45.5667 55.0215 46.5088 54.5033 46.975C53.9961 47.4311 53.095 47.8243 52.9919 48.5909C52.8676 49.3569 53.893 49.7405 53.893 49.7405C53.893 49.7405 53.3332 50.6621 53.3332 51.3557C53.3332 52.0705 53.3127 52.2049 53.3851 52.8883C53.303 52.9411 53.2331 53.011 53.1803 53.0931C53.1803 53.0931 53.2315 53.756 53.7394 54.1697C54.2473 54.5834 54.6815 54.8325 54.9402 54.7288C54.9797 54.8132 55.0144 54.8998 55.044 54.9882C55.044 54.9882 55.4276 54.0147 55.6864 53.1655C55.9451 52.2957 56.1731 52.4193 56.2762 51.2492C56.3793 50.0791 57.505 48.07 57.505 48.07L58.273 46.3531L57.0203 45.3796L55.2495 45.566V45.5667Z"
          fill="#B6903C" />
    <path fill-rule="evenodd" clip-rule="evenodd"
          d="M57.5792 47.2542C57.3209 47.5193 57.0824 47.8032 56.8658 48.1034C56.5347 48.5594 56.276 48.9731 55.7892 49.1499C55.3025 49.3267 54.9919 49.3254 55.0226 49.8128C55.0533 50.3002 55.5093 50.5064 55.7681 50.7549C56.048 51.0136 56.276 51.4485 56.1517 51.9359C56.3067 51.8635 56.5866 51.7802 56.8453 51.2211C57.104 50.662 58.9138 47.2548 58.9138 47.2548H57.5792V47.2542Z"
          fill="#685026" />
    <path fill-rule="evenodd" clip-rule="evenodd"
          d="M64.7167 39.3941C64.7167 39.3941 64.8716 38.9804 64.7167 38.68C64.561 38.3694 63.6189 38.2656 63.1527 37.9134C62.6659 37.5509 62.0754 37.299 61.5887 37.458C61.6611 37.2819 61.9512 36.8982 61.7129 36.8156C61.4849 36.7433 60.6364 37.1262 60.4084 37.3024C60.1803 37.4785 59.6622 37.6853 59.5591 37.8103C59.456 37.9352 59.2792 38.1728 59.1755 38.069C59.0717 37.9966 59.0205 37.8103 58.8444 37.9134C58.6682 38.0164 57.8204 38.7107 57.664 39.1149C57.5077 39.519 57.1561 40.4201 56.1 41.4448C55.044 42.4695 54.5879 43.133 54.8986 43.516C55.2092 43.899 55.3546 43.6198 55.4065 43.9509C55.4464 44.2759 55.4288 44.6054 55.3546 44.9243C55.2303 45.463 55.0235 45.9702 55.3027 46.074C56.0174 46.302 56.7117 45.8692 56.8667 46.0016C57.1773 46.2808 56.6906 47.2857 57.4258 47.4823C58.1719 47.6871 58.9072 47.3062 58.9072 47.3062L61.6201 45.8459L64.2299 44.469L65.5652 41.8278L64.8491 39.6221L64.7126 39.3941H64.7167Z"
          fill="#D4B968" />
    <path fill-rule="evenodd" clip-rule="evenodd"
          d="M62.1566 45.7012C62.1566 45.7012 61.7005 45.0076 62.2603 44.3959C62.8201 43.7842 63.6168 43.5262 63.9274 43.1432C63.8683 43.0703 63.789 43.0164 63.6994 42.9882C63.9056 42.6193 64.2201 42.3226 64.6005 42.1383C64.4455 41.9834 64.238 41.8591 64.0107 41.8591C63.5028 41.8591 63.1915 42.1697 62.7259 42.1697C62.2706 42.1697 62.2187 41.9417 62.2187 41.9417C62.2187 41.9417 62.9853 41.8694 62.9123 41.5273C62.8399 41.1648 62.7075 41.1648 62.7075 41.1648C62.7075 41.1648 64.1882 40.5504 64.4469 40.2228C64.7056 39.8951 64.6749 39.508 64.7268 39.353C64.9022 39.353 65.9276 38.8144 66.342 39.0424C66.7564 39.2704 66.4662 39.8917 66.4662 39.8917C66.4662 39.8917 67.7203 38.9489 68.3593 38.0246C68.9184 38.0765 69.1785 37.6416 69.5881 37.6416C70.096 37.6416 70.8933 38.3352 71.0483 39.8159C71.152 40.6651 71.307 41.1519 71.1521 42.6537C71.0797 43.503 71.1002 45.3161 71.3569 46.2159C71.5323 46.9306 71.9467 46.8583 71.9467 46.8583C71.8831 47.0761 71.7571 47.2705 71.5842 47.4174C71.3043 47.6761 71.2736 48.3602 71.3043 48.6189C71.3456 48.808 71.3975 48.9947 71.4599 49.178C71.4599 49.178 71.1288 49.561 71.0456 49.8204C70.9732 50.0791 70.6319 50.2552 70.3827 50.2552C70.1335 50.2552 70.2584 50.2341 69.9273 50.2552C69.5962 50.2764 69.4925 50.3276 69.285 50.2552C69.0774 50.1829 68.9225 50.0996 69.0057 49.436C69.0781 48.7732 66.4478 47.2303 66.4478 47.2303L62.147 45.6978L62.1566 45.7012Z"
          fill="#CCA849" />
    <path fill-rule="evenodd" clip-rule="evenodd"
          d="M57.2173 52.2459C57.2173 52.2459 58.1594 53.4993 62.0328 53.4993C63.876 53.4993 64.5184 53.3232 64.9 53.2194C65.3144 53.1156 66.8675 52.5053 68.4314 50.6614C69.8398 48.9944 69.5292 48.311 69.5292 48.311L68.71 48.1868L66.0476 48.5493L58.1696 51.9046L57.2139 52.2459H57.2173Z"
          fill="#585136" />
    <path fill-rule="evenodd" clip-rule="evenodd"
          d="M60.1063 52.5565C60.1063 52.5565 56.751 53.3027 56.751 51.1796C56.751 49.1084 58.8222 46.9334 59.3403 46.5504C59.879 46.1667 61.1631 45.7312 61.1631 45.7312H64.2596L64.8495 47.2952L64.5907 50.671L60.1063 52.5558V52.5565Z"
          fill="#252211" />
    <path fill-rule="evenodd" clip-rule="evenodd"
          d="M63.2025 46.3639C63.2025 46.3639 62.5608 45.7734 61.1006 46.5687C59.6403 47.3641 58.4593 49.0264 58.387 50.5357C58.3146 51.871 59.4847 52.8657 61.3074 52.9175C62.6639 52.9687 63.4824 52.8138 63.8968 52.7127C63.793 52.5885 63.2544 51.9154 63.2544 51.9154L63.2032 46.3646L63.2025 46.3639Z"
          fill="#C3B378" />
    <path fill-rule="evenodd" clip-rule="evenodd"
          d="M62.5711 46.6944C62.5711 46.6944 62.4161 46.5701 61.9567 46.8186C61.5737 47.0234 61.0146 47.5648 60.5798 47.9478C60.2999 48.1758 60.1237 48.2789 59.9654 48.455C59.323 49.2216 58.7843 50.475 59.0956 51.0962C59.4069 51.7175 60.4316 52.4322 63.0415 51.9455L62.5636 46.6951L62.5711 46.6944Z"
          fill="#E6D89C" />
    <path fill-rule="evenodd" clip-rule="evenodd"
          d="M61.7218 47.9791C61.7218 47.9791 61.3074 48.6215 61.3074 49.6469C61.3074 50.6927 61.8979 52.3598 64.0729 52.484C65.74 52.5878 66.8582 50.0817 68.0699 49.1082C68.9915 48.3628 69.5506 48.3416 69.5506 48.3416C69.5506 48.3416 68.6086 47.3176 66.0923 45.9912C63.6067 44.6552 60.8207 44.4791 59.3086 46.5298C60.0233 46.4779 62.3328 45.8874 62.3328 45.8874L63.4619 46.2499L61.7218 47.9798V47.9791Z"
          fill="#252211" />
    <path fill-rule="evenodd" clip-rule="evenodd"
          d="M64.9731 49.3356C64.9007 49.1806 64.8488 48.9731 65.1492 48.9219C65.4496 48.8707 65.5841 48.9008 65.6878 49.1267C65.7916 49.3527 65.8926 49.5411 65.739 49.6346C65.5841 49.7172 65.1799 49.6346 64.9724 49.3342L64.9731 49.3356ZM64.4863 47.8754C64.4863 47.8754 64.3826 47.9477 64.4344 47.803C64.4549 47.6276 64.5901 47.3163 64.9212 47.3893C65.2523 47.4624 65.1806 47.8242 65.126 47.928C65.0714 48.0317 64.7949 48.2072 64.5874 48.1328C64.5611 48.126 64.5367 48.1132 64.5163 48.0953C64.4959 48.0774 64.48 48.0549 64.4698 48.0297C64.4597 48.0045 64.4557 47.9773 64.4581 47.9502C64.4605 47.9232 64.4692 47.8971 64.4836 47.874L64.4863 47.8754Z"
          fill="#6F674D" />
    <path fill-rule="evenodd" clip-rule="evenodd"
          d="M36.4541 48.5377C36.4541 48.5377 37.2733 49.1521 38.2249 49.1282C39.167 49.107 40.3788 48.1342 40.9379 47.5123C41.2689 47.1498 41.5523 46.7669 41.8595 46.4665C42.1189 46.2078 42.2943 46.0835 42.4186 45.9074C42.5947 45.7026 42.7811 45.3176 42.8746 45.1926C42.6466 45.3688 42.3155 45.68 41.9735 45.8869C41.6424 46.0917 40.9276 46.4767 40.6375 46.5805C40.3583 46.6843 37.4583 48.2189 37.4583 48.2189L36.4541 48.5377Z"
          fill="#AC924C" />
    <path fill-rule="evenodd" clip-rule="evenodd"
          d="M37.7061 40.8855C37.7061 40.8855 38.1614 40.5749 39.042 40.3776C39.8913 40.1728 41.6 40.0151 41.6 40.0151L43.0083 40.6295L43.5674 42.7526L42.5434 44.959L41.2389 45.7782L39.7575 43.3964L37.7095 40.8896L37.7061 40.8855Z"
          fill="#9F8E57" />
    <path fill-rule="evenodd" clip-rule="evenodd"
          d="M35.8634 42.7808L35.376 43.1446C35.376 43.1446 35.5009 42.9166 35.604 42.223C35.7071 41.5294 36.2464 39.8412 37.0335 38.8677C37.8206 37.8942 37.8001 37.9461 37.8001 37.9461C37.7277 37.9329 37.6533 37.9352 37.5818 37.953C37.5104 37.9708 37.4435 38.0036 37.3857 38.0492C37.4895 37.8198 38.1524 37.0006 38.8153 36.591C39.4781 36.1814 39.7368 36.0524 40.4304 36.3862C41.124 36.7201 41.3002 36.8935 41.8081 36.873C42.316 36.8525 42.7501 36.3139 42.7501 36.3139C42.7501 36.3139 42.8539 36.645 42.4709 37.4116C42.088 38.1782 40.5758 39.7415 40.5758 39.7415L37.4274 41.8954L35.8634 42.7828V42.7808Z"
          fill="#EAC970" />
    <path fill-rule="evenodd" clip-rule="evenodd"
          d="M38.1922 40.6269C38.1922 40.6269 40.4709 40.9375 41.1645 40.2958C41.185 40.3682 41.2683 40.3682 41.2683 40.4201C41.2627 40.4592 41.2445 40.4954 41.2164 40.5232C41.2918 40.5111 41.368 40.5043 41.4444 40.5027C41.5356 40.5298 41.6294 40.5472 41.7243 40.5546C41.8007 40.5529 41.8769 40.5458 41.9523 40.5334C41.9451 40.5849 41.9276 40.6344 41.9009 40.6789C41.8741 40.7235 41.8387 40.7622 41.7967 40.7928C41.9004 40.7928 42.0015 40.8133 42.0015 40.8959C42.0015 40.9785 42.0219 41.2277 41.8977 41.2796C41.7948 41.308 41.6852 41.3006 41.5871 41.2584C41.5953 41.4545 41.6486 41.646 41.7427 41.8182C41.9475 42.2012 42.3844 42.6374 42.9715 42.5118C42.9715 42.5118 43.2815 43.2572 41.9769 44.9141C41.8014 45.1421 41.6144 45.4527 41.3871 45.7114C41.2972 45.9072 41.2286 46.112 41.1823 46.3224C41.1823 46.3224 43.3886 45.4732 44.0201 43.5364C44.6625 41.5895 44.7867 39.6739 44.6625 37.8826C44.6413 37.3747 44.5587 37.0129 44.4345 36.7535C44.1239 36.1111 43.2535 36.2148 42.9019 36.5773C42.394 37.0852 41.5448 38.3482 40.3644 39.2179C39.1629 40.0876 39.1117 40.2419 38.1895 40.6269H38.1922Z"
          fill="#D7BC6B" />
    <path fill-rule="evenodd" clip-rule="evenodd"
          d="M35.4596 43.423C35.4596 43.423 35.0247 43.6817 34.7967 44.6518C34.5687 45.6458 35.0015 46.8575 35.252 47.2405C35.5026 47.6235 36.0712 48.67 37.2509 48.7219C37.5429 48.7203 37.8316 48.6604 38.1001 48.5457C38.5119 48.3569 38.8982 48.1168 39.2497 47.831C39.7576 47.448 40.1713 47.1169 40.1194 47.0855C39.9952 47.0336 36.9921 44.548 36.9921 44.548L35.863 43.2878L35.4589 43.4244L35.4596 43.423Z"
          fill="#585136" />
    <path fill-rule="evenodd" clip-rule="evenodd"
          d="M38.298 47.5444C38.298 47.5444 38.909 47.4932 39.2715 47.2652C39.634 47.0372 37.1484 44.5728 37.1484 44.5728L37.3246 47.2352L38.298 47.5444Z"
          fill="#453A25" />
    <path fill-rule="evenodd" clip-rule="evenodd"
          d="M35.6558 43.236C35.6558 43.236 35.3452 43.8265 35.3452 43.9821C35.2933 44.4893 35.449 46.084 35.5732 46.5913C35.6975 47.1299 36.3706 47.9477 37.241 47.9477C37.7789 47.9477 38.5251 47.6166 38.5251 47.534C38.5251 47.4303 37.7584 47.3292 37.5516 46.9435C37.4273 46.7387 37.3755 46.2295 37.3468 45.7147C37.3263 45.3836 37.3263 45.0211 37.4506 44.8955C37.7305 44.5849 37.7817 43.694 37.7817 43.694L38.7756 41.8474H37.4683L35.9043 42.8209L35.6558 43.236Z"
          fill="#84754B" />
    <path fill-rule="evenodd" clip-rule="evenodd"
          d="M35.2725 43.8061C35.2725 43.8061 36.2965 42.4497 37.2194 42.1384C38.1424 41.8271 38.5554 42.0141 38.5554 42.0141L38.0168 43.3917L37.2501 44.241L37.302 44.6758C37.302 44.6758 37.1771 45.8254 37.9437 46.6228C38.7104 47.4202 39.2797 47.3894 39.6115 47.3894C39.9433 47.3894 40.8956 47.1095 41.3823 45.9599C41.8172 44.8834 42.1797 43.5023 41.31 42.1179C40.46 40.7403 38.9589 40.687 38.6687 40.687C38.3786 40.687 36.1005 40.801 35.2725 43.8041V43.8061Z"
          fill="#252211" />
    <path fill-rule="evenodd" clip-rule="evenodd"
          d="M61.5663 48.4141C61.1833 48.238 61.5458 47.1614 61.9288 46.8296C62.3118 46.4979 62.7985 46.1156 63.6484 46.063C63.9584 46.0425 64.2587 46.2391 64.2075 46.4467C64.1352 46.8296 63.5966 47.3683 63.1098 47.7512C62.4367 48.2796 62.0012 48.6107 61.5663 48.4141Z"
          fill="#F7F7E7" />
    <path fill-rule="evenodd" clip-rule="evenodd"
          d="M40.8543 42.5423C41.1342 42.5218 41.4967 42.7471 41.569 43.0502C41.6414 43.3813 41.3929 44.0442 40.8543 44.0442C40.4194 44.0442 40.1914 43.5056 40.1914 43.3506C40.1963 43.2232 40.2319 43.0988 40.2952 42.9881C40.3157 42.9567 40.3675 42.5942 40.8543 42.5423Z"
          fill="#F8F6DE" />
    <path fill-rule="evenodd" clip-rule="evenodd"
          d="M36.8153 42.7808C36.8153 42.7808 36.1005 43.1119 35.7694 43.8048C35.5328 44.3164 35.4613 44.889 35.5646 45.4432C35.6165 45.7019 35.8752 46.3436 36.0514 46.5716C36.2275 46.7996 36.4657 46.9553 36.6419 46.9341C36.818 46.9129 37.1798 46.4474 37.1798 46.1682C37.1798 45.8889 37.201 44.7079 37.5423 44.0655C37.8427 43.4238 36.8173 42.7814 36.8173 42.7814L36.8153 42.7808Z"
          fill="#D4C38B" />
    <path fill-rule="evenodd" clip-rule="evenodd"
          d="M36.9197 42.7288C36.7955 42.8012 36.5886 42.905 36.6398 43.0395C36.6917 43.1637 37.1266 43.2443 37.2822 43.5474C37.4583 43.858 37.4583 44.1891 37.4065 44.3447C37.5417 44.2805 37.6645 44.1926 37.769 44.0853C37.997 43.8266 38.2762 43.475 38.5144 43.475C38.6701 43.475 38.825 43.5474 38.9704 43.5474C39.1985 43.5474 39.4258 43.475 39.4572 43.2368C39.5084 42.9261 39.0223 42.6462 38.7424 42.6981C38.7943 42.4933 38.8667 42.1909 38.6387 41.9834C38.4107 41.7758 37.6966 42.139 37.5409 42.2428C37.3853 42.3466 36.9197 42.7295 36.9197 42.7295V42.7288Z"
          fill="#E2D59D" />
    <path fill-rule="evenodd" clip-rule="evenodd"
          d="M53.3753 64.4868L54.9079 64.0342L55.3427 64.3448C55.3427 64.3448 55.6526 65.0077 56.1401 65.0903C55.9844 65.4214 55.5803 65.7047 55.6014 65.9395C55.6226 66.1743 55.8295 66.3539 55.8295 66.3539C55.8295 66.3539 54.4518 68.6319 57.1654 70.9277C56.5231 71.1865 55.7052 71.5421 55.2704 71.7469C55.5803 71.8193 56.2432 71.9518 56.523 72.203C56.8029 72.4542 56.8029 72.5341 57.0617 72.6897C57.3204 72.8454 57.4754 73.0522 57.4242 73.145C57.248 73.0413 56.6575 72.7314 56.5545 73.0208C56.4514 73.3103 53.9965 73.1969 53.9965 73.1969L49.8541 73.9943C49.8541 73.9943 50.009 73.5799 49.5742 73.1969C49.067 72.7416 48.4457 73.2174 47.7829 72.7102C46.9132 72.0473 46.8817 71.2807 46.6025 70.9912C46.8817 70.8151 47.4518 70.5564 48.8082 70.3768C48.7564 70.2731 48.5802 69.9625 48.684 69.6832C48.8082 69.3208 49.3257 69.0927 49.1707 68.6592C49.3987 68.6074 49.5018 68.6074 50.0718 67.8926C50.6105 67.1779 50.9416 67.0229 51.3559 66.971C51.7703 66.9191 52.0188 66.971 52.7854 66.2563C53.3234 65.749 53.1479 65.3142 53.1479 65.3142C53.1479 65.3142 53.4995 65.2002 53.376 64.4854L53.3753 64.4868Z"
          fill="#CBAC5A" />
    <path fill-rule="evenodd" clip-rule="evenodd"
          d="M48.8501 64.7167C48.8705 64.613 48.9538 64.5611 49.5129 64.613C50.072 64.6648 53.6137 64.2819 54.5769 64.23C55.5504 64.1576 58.9781 64.2088 60.6459 64.5611C62.3136 64.9133 64.0012 65.3277 64.819 65.5346C65.6382 65.7626 65.8962 65.8445 65.8648 65.9483C65.8444 66.052 65.66 66.1531 65.5542 66.1244C65.4511 66.1039 62.7375 65.2752 61.8992 65.1004C61.0609 64.9256 58.1603 64.458 56.5744 64.486C55.0937 64.5072 54.5032 64.4655 53.2505 64.6102C51.9971 64.7659 49.9259 64.9727 49.3047 64.8901C48.6903 64.8178 48.8173 64.8178 48.8487 64.714L48.8501 64.7167Z"
          fill="#D6BC6F" />
    <path fill-rule="evenodd" clip-rule="evenodd"
          d="M57.1861 72.8337C57.1861 72.8337 59.3091 73.9833 60.0758 75.3916C60.6349 76.4374 59.7447 76.9556 59.7447 76.9556C59.7447 76.9556 60.9462 76.9556 60.7905 77.6185C60.7182 78.0322 58.7193 79.1504 57.3833 79.7409C56.0269 80.3314 56.0788 80.3007 55.4159 80.4037C54.7735 80.5075 53.0129 80.1989 52.6504 80.7144C52.2879 81.2298 52.4456 81.7609 52.5466 81.8435C52.6504 81.9158 53.4894 82.0196 53.4894 82.0196C53.4894 82.0196 53.3133 82.5064 51.5738 82.5582C49.8344 82.6101 49.3989 82.7337 49.2951 82.9207C49.1913 83.0962 49.6262 82.9931 50.4242 83.1255C51.2216 83.2498 52.3398 83.3303 52.3398 83.3303C52.3398 83.3303 51.9773 83.6409 51.0352 83.8894C49.958 84.1686 48.2697 84.4281 47.7625 84.7387C48.0213 84.9148 48.4049 85.1735 48.5817 85.194C48.1469 85.2978 47.5352 85.5258 47.4321 85.6084C47.5871 85.7122 47.7946 85.8364 47.7946 85.8364C47.7946 85.8364 46.9242 86.8822 46.417 87.1417C45.9098 87.4011 42.9893 88.7569 41.9844 88.4981C39.4784 87.8353 39.1677 85.0909 38.5568 84.8841C37.6352 84.5735 37.2003 85.194 36.3818 84.7592C36.7443 84.5004 36.9416 84.3455 37.3245 84.1693C36.9102 83.9645 34.7666 82.6053 34.7666 82.6053C34.5424 82.1168 34.2936 81.6399 34.0211 81.1765C33.6067 80.4618 32.9971 79.5088 32.5397 78.6698C31.5458 76.8266 31.4939 75.9773 30.5928 74.9315C30.7484 74.7267 31.2864 74.7554 31.2864 74.7554L38.8367 77.2409L52.2244 77.6287L55.706 72.6582L57.1867 72.8343L57.1861 72.8337Z"
          fill="#DFC677" />
    <path fill-rule="evenodd" clip-rule="evenodd"
          d="M37.3545 80.4141C37.4353 80.504 37.5295 80.5809 37.6337 80.6421C37.8931 80.8183 38.2761 81.0258 38.5348 81.3357C38.6386 81.1808 38.8973 80.9009 39.354 81.3357C39.8107 81.7706 40.378 81.4607 40.731 81.5637C41.0935 81.6887 41.1139 81.7399 41.1139 81.7399C41.1139 81.7399 41.3187 81.5637 41.7768 81.3774C42.0567 81.2736 42.3878 81.2012 42.7503 81.0982C43.0814 81.0258 43.4439 80.922 43.6931 80.922C43.9211 81.077 44.7389 81.946 48.0218 80.6633C51.1184 79.4618 51.8325 79.3273 52.3506 79.513C52.4025 79.3888 52.4544 79.1505 53.2518 79.1819C53.2518 78.8508 52.5889 77.7217 52.5889 77.7217L48.9332 76.469H46.9337L40.9378 77.5667L37.6153 79.4625L37.3565 80.4182L37.3545 80.4141Z"
          fill="#C4A859" />
    <path fill-rule="evenodd" clip-rule="evenodd"
          d="M35.3555 78.3121C35.3555 78.3121 35.4278 78.8712 36.2566 79.4617C37.0758 80.0516 37.3332 80.4038 37.3332 80.4038C37.3332 80.4038 37.4888 80.199 37.613 79.9901C37.7373 79.7621 37.8411 79.5034 38.0479 79.431C38.4623 79.2549 39.4044 79.586 39.6119 79.5341C39.788 79.4829 39.7361 79.1204 39.9225 79.1204C40.3574 79.0992 40.6366 79.3996 40.7922 79.3996C40.9479 79.3996 41.3302 79.3791 41.382 79.2965C41.4339 79.2139 41.4544 78.3538 42.0449 77.9394C42.6873 77.484 43.4744 77.6807 43.6833 77.7844C43.6833 77.9394 43.7038 78.323 44.1182 78.3435C44.5326 78.364 44.5735 78.2916 44.9374 78.4159C45.3012 78.5401 45.7347 78.3954 45.9313 79.0057C46.1075 78.9545 46.5218 78.9026 46.4181 78.3121C46.6229 78.1572 46.8017 78.0534 47.2373 77.4424C47.341 77.2874 47.5165 77.1113 47.6517 76.8833C48.0142 76.8833 48.449 76.8109 49.0286 77.3182C48.8525 77.4424 48.7487 77.523 48.6975 77.6492C48.8491 77.7993 48.9875 77.9622 49.1112 78.136C49.2669 78.3408 49.3706 78.592 49.5672 78.6439C50.0021 78.7681 50.7168 78.592 51.5142 78.6439C52.2808 78.6958 52.9225 78.975 53.2024 79.1511C53.3062 79.0999 53.3062 79.0788 53.5649 79.1306C53.8237 79.1825 54.0203 79.203 53.741 78.8719C53.896 78.9443 54.0721 79.0999 54.2278 78.9443C54.3834 78.7886 54.507 78.5613 54.9419 78.5094C55.3767 78.4575 55.5324 78.5299 55.7085 78.0746C55.9365 77.5154 55.1494 77.5154 55.1494 77.5154C55.1494 77.5154 55.5119 77.1837 55.916 76.7488C56.4028 76.2935 56.9619 75.703 57.0964 74.978C57.3244 73.642 56.0198 73.4666 56.0198 73.4666L49.6921 75.4135L41.9562 75.0299L35.3596 78.3128L35.3555 78.3121Z"
          fill="#927D49" />
    <path fill-rule="evenodd" clip-rule="evenodd"
          d="M29.6697 60.0337C29.6697 60.0337 29.4649 60.2924 29.3386 60.9034C29.2123 61.5144 29.2663 61.442 29.1625 61.8769C29.0587 62.3117 27.7842 66.6405 28.2621 68.1007C28.7399 69.561 29.5673 70.0996 30.0848 71.2799C30.1886 71.5386 30.2896 71.6943 30.3435 71.9223C30.5197 72.6883 30.3647 73.2788 30.5715 74.0454C30.6439 74.3041 30.831 74.6045 31.1102 74.9151C31.7246 75.5568 32.726 76.1678 33.1582 76.6027C33.7685 77.245 34.6389 78.5503 35.7468 78.6739C36.3373 78.7462 37.1763 78.4977 37.8699 78.0841C38.4843 77.7004 38.8639 77.1625 39.5083 76.8553C39.9637 76.6272 40.4504 76.5446 40.8853 76.4409C41.7864 76.2647 42.6049 76.2361 43.0916 76.3371C43.8371 76.4927 45.5977 77.0314 46.5732 77.0314C47.3355 77.0191 48.0935 76.9148 48.8308 76.7208C50.3115 76.2859 52.1028 75.5397 53.2839 75.2087C53.9774 75.0039 54.5365 74.9499 55.1066 74.8257C56.0801 74.5977 56.8979 74.2871 57.3642 73.6966C57.0535 73.3341 56.6706 72.7749 54.5987 72.7954C52.2483 72.8473 49.5347 74.1519 48.1987 74.3594C46.8627 74.5669 46.2831 74.7424 44.7915 74.2038C43.3292 73.6597 43.2807 73.2999 43.2807 73.2999C43.2807 73.2999 41.7454 72.2261 41.103 69.4886C40.4606 66.7511 41.103 64.7563 42.7708 62.8606C43.2057 62.3738 43.1019 61.939 43.1019 61.939C43.1019 61.939 44.1996 60.4583 43.8992 59.0718C43.5681 57.6942 41.4451 57.974 41.4451 57.974L29.6704 60.0337H29.6697Z"
          fill="#6E6342" />
    <path fill-rule="evenodd" clip-rule="evenodd"
          d="M31.4411 64.6423C31.3498 64.814 31.3068 65.0073 31.3169 65.2014C31.3373 65.4806 31.4206 65.8431 32.2589 66.6617C32.9737 67.3757 32.818 68.1731 32.818 68.1731C32.818 68.1731 33.1778 68.2455 34.154 67.7887C34.9206 67.4263 35.178 68.0686 35.178 68.0686C35.4012 67.9516 35.6431 67.8745 35.8928 67.8406C36.119 67.8198 36.338 67.7499 36.5345 67.6358C36.5345 67.6358 37.4356 68.5574 38.2227 68.9923C38.9375 69.3759 39.3518 69.6347 39.7041 69.3759C40.0352 69.1479 40.0352 68.6817 40.014 68.4748C39.9319 68.2839 39.8279 68.1032 39.7041 67.9362C39.4761 67.6051 39.1136 67.2214 39.0897 66.9122C39.0378 66.1981 39.6283 65.3482 39.5034 65.1414C39.3785 64.9345 38.9136 64.8826 37.764 65.297C36.5734 65.6902 31.4363 64.6444 31.4363 64.6444L31.4411 64.6423Z"
          fill="#39331F" />
    <path fill-rule="evenodd" clip-rule="evenodd"
          d="M34.1535 69.2716C34.1535 69.2716 33.5637 68.7125 33.7705 65.9989C34.021 65.9952 34.271 66.0195 34.516 66.0713C34.516 66.0713 34.8376 68.1739 34.1535 69.2716Z"
          fill="#292311" />
    <path fill-rule="evenodd" clip-rule="evenodd"
          d="M29.9498 57.9625C30.0321 57.9016 30.1084 57.8331 30.1778 57.7577C29.973 58.1407 29.0275 59.6733 29.7941 62.0865C30.5608 64.4888 32.4866 66.2802 34.8582 66.3634C37.2298 66.4467 38.4763 65.2862 39.9017 63.5468C40.4608 62.8532 41.1032 61.9828 41.6725 61.3929C42.5218 60.4707 43.1847 60.2119 43.1847 59.3217C43.1847 57.499 41.3203 56.6805 38.576 55.8627C35.8317 55.0448 33.3563 55.1459 32.0722 55.7056C30.8195 56.316 30.2809 56.9583 29.9491 57.9632L29.9498 57.9625Z"
          fill="#252211" />
    <path fill-rule="evenodd" clip-rule="evenodd"
          d="M38.7628 70.0893L38.9676 69.9855C38.9676 69.9855 39.0188 69.1663 39.3506 69.1882C39.6817 69.2401 39.8373 69.6756 39.8059 69.8306C39.7854 69.9855 39.7028 70.2449 39.371 70.2135C38.9362 70.2238 38.7607 70.0893 38.7607 70.0893H38.7628Z"
          fill="#3F3824" />
    <path fill-rule="evenodd" clip-rule="evenodd"
          d="M37.8408 66.6099C37.8408 66.6099 38.0456 66.5375 38.2962 66.786C38.501 66.786 39.3939 66.6823 39.6738 66.8584C39.9537 67.0345 40.0363 67.1895 40.0363 67.1895C40.0363 67.1895 38.9904 67.4175 38.4204 67.1895C37.8408 66.9929 37.8408 66.6099 37.8408 66.6099Z"
          fill="#2D2815" />
    <path fill-rule="evenodd" clip-rule="evenodd"
          d="M42.4495 66.7648C42.4495 66.713 41.8904 66.33 41.2999 66.2051C41.1961 66.1846 41.1749 66.2569 41.0951 66.2569C41.0432 66.2365 41.0227 66.0808 41.0227 66.0808L40.6868 66.2576C40.6868 66.2576 40.6349 66.33 40.8111 66.4624C40.966 66.5867 41.2254 66.6904 41.2978 66.8973C41.3702 67.1041 41.3702 67.1765 41.4016 67.2079C41.422 67.2284 41.7845 67.2079 41.9607 67.1041C42.1368 67.0004 42.4686 66.8311 42.4474 66.7628L42.4495 66.7648Z"
          fill="#82764F" />
    <path fill-rule="evenodd" clip-rule="evenodd"
          d="M37.2197 68.8674C37.2197 68.8674 37.3228 68.1533 38.0171 68.1219C38.7312 68.07 38.8663 68.7636 38.8663 68.7636L38.4519 69.178C38.4519 69.1678 38.1413 68.7329 37.2231 68.8674H37.2197Z"
          fill="#2D2816" />
    <path fill-rule="evenodd" clip-rule="evenodd"
          d="M41.7247 65.7914C41.7247 65.7914 41.341 66.2058 40.4925 66.3301C40.4201 66.2263 40.2644 66.0194 40.4925 65.6884C40.7205 65.3573 40.9792 65.2535 41.2379 65.3566C41.3521 65.3751 41.4586 65.4259 41.5448 65.5029C41.6311 65.58 41.6935 65.6801 41.7247 65.7914Z"
          fill="#574F35" />
    <path fill-rule="evenodd" clip-rule="evenodd"
          d="M43.2877 66.2992C43.3089 66.1955 43.2365 66.175 43.2877 66.1231C43.3389 66.0712 43.6195 65.9682 43.6714 66.0194C43.6919 66.0405 43.6714 66.1231 43.6714 66.2242C43.6714 66.3252 43.6714 66.429 43.6195 66.5034C43.5472 66.6071 43.3403 66.659 43.2365 66.6283C43.1328 66.5976 43.1123 66.4522 43.1123 66.4235C43.1635 66.403 43.2877 66.3511 43.2877 66.2992ZM45.0559 65.181C45.0559 65.1292 45.232 65.0254 45.3357 65.0254C45.4907 65.0254 45.4907 65.1496 45.5119 65.181C45.5631 65.2015 45.5631 65.1599 45.615 65.2534C45.6668 65.3469 45.7399 65.5121 45.6873 65.6159C45.6348 65.7197 45.4286 65.7913 45.3774 65.7709C45.305 65.719 45.077 65.2534 45.0559 65.181Z"
          fill="#82764F" />
    <path fill-rule="evenodd" clip-rule="evenodd"
          d="M41.4961 66.5375C41.4961 66.5375 41.7241 66.5887 42.0347 66.8482C41.931 66.9205 41.7753 67.0031 41.7753 67.0031C41.7753 67.0031 41.7548 66.7649 41.4961 66.5369V66.5375Z"
          fill="#6E6342" />
    <path fill-rule="evenodd" clip-rule="evenodd"
          d="M40.9896 64.2587C40.9377 64.2075 41.1446 64.0833 41.2688 64.1038C41.3931 64.1242 41.445 64.2075 41.5795 64.228C41.7139 64.2485 41.7351 64.1761 41.7843 64.1242C41.8334 64.0724 42.0123 64.1038 42.043 64.1242C42.0621 64.147 42.0795 64.1712 42.0949 64.1966C42.097 64.1572 42.1073 64.1187 42.125 64.0835C42.1428 64.0482 42.1676 64.017 42.198 63.9918C42.2377 63.9626 42.2835 63.9428 42.332 63.9338C42.3804 63.9248 42.4303 63.9269 42.4778 63.9399C42.4983 64.0123 42.6021 64.271 42.5816 64.3229C42.5611 64.3748 42.2505 64.4478 42.198 64.3953C42.2498 64.5202 42.4778 64.7789 42.5086 64.8301C42.5393 64.8813 42.2806 65.0063 42.1775 64.9858C42.0327 64.9755 41.1419 64.4574 40.9869 64.2608L40.9896 64.2587ZM42.3461 62.5398C42.3269 62.4876 42.2902 62.4437 42.2423 62.4155C42.17 62.395 41.9317 62.4155 41.9317 62.5398C41.9317 62.664 42.1365 63.359 42.3666 63.7208C42.626 64.0833 42.8014 64.383 42.9776 64.4663C43.0329 64.4914 43.0956 64.4947 43.1533 64.4755C43.2109 64.4562 43.2591 64.4159 43.2882 64.3625C43.3086 64.3106 43.3605 63.9276 43.3401 63.0265C43.3196 62.1254 43.2882 61.2557 43.2363 61.2038C43.1844 61.1519 42.9776 61.1526 42.9052 61.2557C42.8328 61.3588 42.3666 62.3848 42.3454 62.5398H42.3461Z"
          fill="#585136" />
    <path fill-rule="evenodd" clip-rule="evenodd"
          d="M41.424 67.8421C41.424 67.8421 41.0616 67.6141 40.7093 67.7697C40.3782 67.9254 40.3987 68.5363 40.3987 68.5363C40.4732 68.5655 40.5537 68.576 40.6331 68.567C40.7126 68.5579 40.7887 68.5296 40.8547 68.4845C41.0827 68.3295 41.3722 68.0708 41.424 67.8427V67.8421Z"
          fill="#574F35" />
    <path fill-rule="evenodd" clip-rule="evenodd"
          d="M42.1071 68.6604C42.0867 68.4556 41.9023 68.4556 41.9023 68.3498C41.915 68.2993 41.9443 68.2544 41.9856 68.2225C42.0268 68.1905 42.0775 68.1734 42.1297 68.1737C42.2334 68.1737 42.3345 68.298 42.4614 68.3785C42.5857 68.4509 42.7721 68.5833 42.7925 68.741C42.813 68.8987 42.5877 69.3308 42.3372 69.3308C42.0867 69.3308 42.1611 68.8646 42.1092 68.6577L42.1071 68.6604ZM44.106 68.3806C44.106 68.3806 43.6916 68.5048 43.7223 68.3806C43.7531 68.2563 43.8473 68.2256 43.9817 68.2256C44.0501 68.1541 44.142 68.1097 44.2405 68.1007C44.2968 68.0979 44.3521 68.1164 44.3954 68.1525C44.3954 68.1525 44.6753 68.0283 44.7579 68.1007C44.8405 68.173 44.7791 68.173 44.8303 68.2563C44.8955 68.3487 44.9383 68.4551 44.9552 68.5669C44.9552 68.6495 44.6446 68.8257 44.3954 68.7949C44.106 68.7328 44.1572 68.4324 44.106 68.3806ZM46.5185 67.9143C46.5185 67.9143 46.6428 67.9867 46.5397 68.0699C46.4673 68.1423 46.1048 68.2747 45.7935 68.298C45.4829 68.298 45.2037 68.3492 45.2037 68.2461C45.2037 68.143 45.4624 67.9355 45.6174 67.8836C45.6485 67.8446 45.688 67.8133 45.7329 67.7917C45.7778 67.7702 45.827 67.7591 45.8768 67.7593C46.0011 67.7593 46.4871 67.7074 46.6223 67.687C46.7465 67.6658 46.8503 67.7382 46.7773 67.8419C46.7465 67.9143 46.5185 67.9143 46.5185 67.9143ZM47.2333 64.7167C47.2333 64.7167 47.0776 65.0478 46.9022 65.0478C46.7261 65.0273 46.7261 64.9754 46.7261 64.9235C46.7261 64.8512 46.9022 64.6648 46.881 64.6129C46.8298 64.6129 46.7049 64.6129 46.7261 64.4887C46.7261 64.3849 46.9022 64.2607 47.0572 64.2839C47.1743 64.1876 47.32 64.1331 47.4715 64.1289C47.6477 64.1289 47.8026 64.1801 47.8026 64.2839C47.8026 64.3876 47.5978 64.615 47.5227 64.6675C47.4401 64.7501 47.3364 64.8041 47.2333 64.7187V64.7167ZM44.8719 70.8368C44.8719 70.8368 44.6671 70.8579 44.6671 70.961C44.6671 71.0129 44.7183 71.0129 44.7914 70.9822C44.8335 70.9798 44.8751 70.9727 44.9156 70.961C44.9361 70.9822 44.9361 71.0853 45.0918 71.0853C45.2196 71.068 45.3427 71.0258 45.4543 70.961C45.5785 70.9098 45.6823 70.8573 45.6823 70.7562C45.6304 70.5801 45.5266 70.4968 45.3717 70.4968C45.2922 70.4918 45.2131 70.5098 45.1436 70.5487C45.1436 70.5487 45.0918 70.4449 44.9156 70.5487C44.7395 70.6525 44.76 70.6525 44.8119 70.7043C44.9047 70.787 44.874 70.8409 44.874 70.8409L44.8719 70.8368ZM43.7019 71.914C43.7019 71.8622 43.9606 71.7584 44.0329 71.7898C44.1053 71.8103 44.3122 72.2035 44.3122 72.2451C44.3122 72.297 44.0534 72.4213 43.9497 72.4213C43.8459 72.4213 43.6705 72.2451 43.6705 72.2165C43.6705 72.196 43.7947 72.1653 43.7947 72.1441C43.8254 72.0929 43.7019 71.968 43.7019 71.9161V71.914ZM42.8827 70.4019C42.9345 70.3815 42.9345 70.3296 43.0069 70.2777C43.0296 70.2626 43.0554 70.2529 43.0823 70.2494C43.1093 70.2458 43.1368 70.2485 43.1625 70.2572C43.1808 70.2246 43.2061 70.1965 43.2365 70.1749C43.267 70.1533 43.3019 70.1387 43.3387 70.1323C43.4629 70.1118 43.5667 70.1323 43.5435 70.1842C43.5435 70.3398 43.6472 70.4429 43.6472 70.5671C43.6472 70.6914 43.5749 70.847 43.3161 70.9508C43.0574 71.0232 42.7052 71.0232 42.6533 71.0027C42.6014 70.9822 42.5495 70.7747 42.6014 70.6709C42.6533 70.5671 42.798 70.4538 42.8813 70.4019H42.8827Z"
          fill="#82764F" />
    <path fill-rule="evenodd" clip-rule="evenodd"
          d="M43.2126 70.4724C43.2126 70.4724 43.0365 70.5762 43.0365 70.6281C43.0208 70.6782 43.0139 70.7306 43.016 70.783C43.016 70.8137 43.244 70.7625 43.2747 70.7311C43.2849 70.7107 43.2126 70.5263 43.2126 70.4724Z"
          fill="#6E6342" />
    <path fill-rule="evenodd" clip-rule="evenodd"
          d="M41.6729 69.9855C41.776 70.0067 41.9521 69.9855 42.0866 70.0374C42.1904 70.0893 42.2628 70.1931 42.159 70.3173C42.0552 70.4416 41.9542 70.6279 41.7241 70.5965C41.4654 70.576 41.2169 70.4416 41.2169 70.3378C41.2126 70.2722 41.2213 70.2063 41.2426 70.1441C41.264 70.0818 41.2975 70.0245 41.3412 69.9753C41.4449 69.8927 41.4961 69.9446 41.6722 69.9855H41.6729Z"
          fill="#585136" />
    <path fill-rule="evenodd" clip-rule="evenodd"
          d="M41.5481 70.0894C41.5481 70.0894 41.217 70.3481 41.1337 70.473C41.03 70.5973 40.5227 71.239 40.3678 71.3735C40.4192 71.2827 40.4779 71.1961 40.5432 71.1147C40.3384 71.2457 40.1849 71.4431 40.1084 71.6738C39.9841 72.0575 40.8026 72.2643 41.3406 72.42C41.8785 72.5756 42.0867 72.6248 42.0867 72.6248C41.8887 72.3271 41.7186 72.0118 41.5788 71.6827C41.374 71.196 41.2682 71.1441 41.4027 70.9161C41.5065 70.6881 41.6621 70.5331 41.6621 70.357C41.6 70.1931 41.5481 70.0894 41.5481 70.0894Z"
          fill="#574F35" />
    <path fill-rule="evenodd" clip-rule="evenodd"
          d="M29.7426 70.9079C29.8179 70.9217 29.8952 70.9217 29.9706 70.9079C30.1256 70.8867 31.7414 70.2935 33.4297 70.4C34.6935 70.4764 35.9461 70.6822 37.1679 71.0144C39.291 71.5735 41.9316 72.6815 43.6403 73.3136C44.0956 73.4891 44.5414 73.8004 44.8691 73.9239C46.1744 74.4318 46.2256 74.4318 46.9922 74.5663C47.8933 74.6906 48.8149 74.3902 49.7782 74.1833C50.9585 73.9239 52.9778 73.7997 54.7487 73.5409C55.3213 73.4616 55.8861 73.3335 56.4369 73.158C56.4369 73.158 55.0285 74.5663 51.6521 75.0735C50.2873 75.2808 48.9004 75.2982 47.5308 75.1254C46.4536 75.0216 45.7395 74.866 45.2009 74.711C44.5899 74.5349 43.3365 74.0686 41.7937 73.687C40.7164 73.4071 39.5149 73.2003 38.138 72.9416C34.7411 72.3196 31.0547 71.6056 29.7412 70.912L29.7426 70.9079Z"
          fill="#252211" />
    <path fill-rule="evenodd" clip-rule="evenodd"
          d="M25.9315 64.5078C25.1123 65.2014 24.2432 65.8643 23.3947 66.506L20.8367 68.4714C19.967 69.1131 19.1178 69.776 18.2474 70.4183C17.377 71.0607 16.5079 71.671 15.585 72.2615C16.4042 71.568 17.2732 70.9256 18.1429 70.2941C19.0126 69.6626 19.9144 69.0434 20.7534 68.4031L23.3114 66.435C24.1913 65.7933 25.0406 65.1304 25.9315 64.5092V64.5078ZM21.4061 71.7571C21.4061 71.7571 22.3277 70.9904 23.4773 69.9138C24.9061 68.5786 26.6565 66.8692 27.2156 66.5592L21.4054 71.7577L21.4061 71.7571Z"
          fill="#CFB66C" />
    <path fill-rule="evenodd" clip-rule="evenodd"
          d="M21.4053 71.7565C21.8613 71.3012 22.348 70.8561 22.8348 70.4206L23.5803 69.7789C23.8083 69.5741 24.0677 69.344 24.295 69.116C24.7503 68.6606 25.1961 68.1732 25.6515 67.7076C25.8771 67.4735 26.1158 67.2522 26.3662 67.0448C26.4914 66.934 26.6305 66.8399 26.7799 66.7649C26.9048 66.6925 27.0393 66.5601 27.2148 66.5369C27.1117 66.6925 26.9874 66.7649 26.8837 66.8994C26.7594 67.0031 26.6557 67.1274 26.5526 67.2305C26.3246 67.4585 26.0658 67.6653 25.8378 67.8728C25.3511 68.2872 24.8439 68.692 24.3571 69.1255C23.8704 69.559 23.415 70.0267 22.9276 70.4615C22.3999 70.9073 21.9132 71.3422 21.4053 71.7586V71.7565ZM27.5984 67.6141C27.5984 67.6141 24.2226 70.9182 23.5284 71.4562L27.5984 67.6141Z"
          fill="#CFB66C" />
    <path fill-rule="evenodd" clip-rule="evenodd"
          d="M27.5984 67.614C27.2947 67.9655 26.9691 68.2975 26.6235 68.608L25.5995 69.5815C25.2684 69.9126 24.9571 70.2443 24.6056 70.5754C24.2431 70.886 23.912 71.1898 23.5283 71.4765L24.5223 70.5031C24.8541 70.172 25.2166 69.8928 25.5688 69.561L26.5628 68.5875C26.9041 68.2462 27.2359 67.9144 27.5984 67.614ZM27.7533 69.4053C27.4422 70.2738 27.0755 71.1214 26.6556 71.9428C25.7859 73.6829 24.4813 75.8572 23.9113 76.9659L27.7533 69.4053Z"
          fill="#CFB66C" />
    <path fill-rule="evenodd" clip-rule="evenodd"
          d="M27.7537 69.406C27.7537 69.789 27.6499 70.1208 27.5257 70.4519C27.4046 70.7832 27.2665 71.1082 27.112 71.4253C26.9563 71.7359 26.7802 72.0677 26.6041 72.3681C26.4279 72.6685 26.2211 72.9784 26.0654 73.2897L25.0196 75.1329C24.6571 75.7473 24.3049 76.3651 23.9219 76.9556C24.1806 76.2927 24.5329 75.6715 24.8646 75.0605C25.2271 74.4461 25.5582 73.8317 25.8886 73.1962C26.05 72.8795 26.1951 72.5548 26.3235 72.2234C26.4785 71.8916 26.6334 71.581 26.7584 71.2806C26.9133 70.9495 27.0376 70.6382 27.1932 70.3385C27.3687 70.017 27.5141 69.7064 27.7523 69.406H27.7537Z"
          fill="#CFB66C" />
    <path fill-rule="evenodd" clip-rule="evenodd"
          d="M31.4405 77.8977C31.4405 77.8977 30.4165 79.2542 30.5189 80.9731C30.7981 80.0727 31.1504 78.6951 31.4405 77.8977ZM32.414 79.2576C32.414 79.2576 32.0515 82.944 31.7511 84.7565C32.1757 82.6614 32.2584 82.8375 32.414 79.2576ZM39.197 84.9742C39.197 84.9742 37.6644 89.4798 37.633 90.7318C37.9648 89.4443 38.6065 86.814 39.197 84.9708V84.9742Z"
          fill="#DEC270" />
    <path fill-rule="evenodd" clip-rule="evenodd"
          d="M42.7803 77.6191C42.7803 77.6191 45.2659 81.7199 47.1302 85.2199C46.6257 83.4587 45.4652 80.2283 42.7803 77.6191Z"
          fill="#CBAF59" />
    <path fill-rule="evenodd" clip-rule="evenodd"
          d="M49.4609 83.656C50.8256 86.0683 52.0563 88.554 53.1473 91.1018C52.9405 89.3413 52.3807 86.328 49.4609 83.656Z"
          fill="#E3C677" />
    <path fill-rule="evenodd" clip-rule="evenodd"
          d="M69.0956 89.7023C69.5093 89.4436 70.3278 88.0346 71.0426 87.683C71.7566 87.3205 72.2953 87.2481 72.9377 86.5334C73.5794 85.7872 73.7569 85.3319 75.1638 84.7421C77.132 83.8921 75.7782 82.7944 75.7782 82.7944C75.995 82.5815 76.2268 82.3844 76.4718 82.2046C76.9797 81.8216 77.5696 81.3554 77.5184 80.5368C77.446 79.1599 77.1873 77.1611 76.0581 76.0012C77.1559 75.7732 79.2578 75.6182 80.5637 75.2871C82.0752 74.9035 82.7694 74.3648 82.7694 74.3648C82.7694 74.3648 81.8997 72.8841 83.308 71.3932C84.7164 69.9023 85.866 69.0114 86.7152 67.3436C85.7418 67.2194 84.2576 66.7019 80.4702 68.141C80.6747 68.2372 80.872 68.3478 81.0607 68.4721C81.0607 68.4721 78.7308 69.1145 77.8815 69.8292C76.4001 71.0819 76.2138 72.1073 74.6088 72.8739C73.0039 73.6405 71.388 73.433 70.0527 74.0542C68.7174 74.6755 68.5201 75.2038 68.0327 75.4319C68.1365 75.5561 68.0122 75.7629 68.2088 75.9391C68.0846 76.1152 67.3596 77.2955 66.6244 77.2955C66.6967 77.5754 67.3179 77.7823 67.3179 77.7823C67.3179 77.7823 66.8626 78.114 65.7028 78.1967C66.2926 78.8111 66.8524 79.4808 68.3952 80.4542C68.2709 80.713 67.7528 81.0966 67.9603 81.5834C68.1883 82.0701 68.7795 82.733 71.1395 83.2716C69.938 83.3228 68.5304 83.6027 66.6339 83.344C64.7388 83.1159 64.4282 82.9815 63.2581 83.2716C63.3824 83.3958 63.7135 83.3958 64.0036 83.7269C63.693 83.7474 61.746 83.4989 61.0832 84.3693C60.3896 85.2698 60.0892 86.7511 60.1411 87.7451C59.7786 87.9212 59.4263 88.2319 59.6024 88.8742C59.7786 89.5166 60.7002 89.7235 61.2907 90.1269C61.8805 90.5618 61.9324 90.7168 62.4922 90.6137C63.082 90.4894 63.9517 89.8996 64.4596 89.8996C64.9675 89.8996 65.3293 90.2826 65.3293 90.2826C65.3293 90.2826 66.707 89.6197 66.8414 89.744C66.9657 89.8682 66.8619 90.6656 66.9964 90.7898C67.1329 90.8833 68.6846 89.9617 69.099 89.7023H69.0956Z"
          fill="#ECD592" />
    <path fill-rule="evenodd" clip-rule="evenodd"
          d="M99.2008 48.259C92.7284 31.5446 76.728 28.448 76.728 28.448H31.0788L31.2549 45.473H40.346V83.49H31.0781V100.484H75.4644C86.1618 100.484 94.7368 89.7344 94.7368 89.7344C108.469 70.2449 99.2001 48.259 99.2001 48.259H99.2008ZM75.7027 78.2806C75.7027 78.2806 72.2211 83.3037 68.433 83.3037H60.8554L60.6758 45.5147H70.4004C70.4004 45.5147 74.906 46.4567 78.0538 55.3731C78.0538 55.3731 82.2269 68.1389 75.7027 78.2806Z"
          fill="white" fill-opacity="0.8" />
  </g>
  <defs>
    <clipPath id="clip0_184_2623">
      <rect width="128" height="128" fill="white" />
    </clipPath>
  </defs>
</svg>
