<svg width="128" height="128" viewBox="0 0 128 128" fill="none" xmlns="http://www.w3.org/2000/svg">
  <path d="M64 128C99.3462 128 128 99.3462 128 64C128 28.6538 99.3462 0 64 0C28.6538 0 0 28.6538 0 64C0 99.3462 28.6538 128 64 128Z"
        fill="#00AF70" />
  <path d="M64 120.05C33.0949 120.05 7.94995 94.905 7.94995 64C7.94995 33.095 33.0949 7.95001 64 7.95001C94.905 7.95001 120.05 33.095 120.05 64C120.05 94.905 94.905 120.05 64 120.05ZM64 9.95001C34.195 9.95001 9.94995 34.195 9.94995 64C9.94995 93.805 34.195 118.05 64 118.05C93.8049 118.05 118.05 93.805 118.05 64C118.05 34.195 93.8049 9.95001 64 9.95001Z"
        fill="#008748" />
  <path d="M93.915 52.445H86.21V60.15H93.915V52.445Z" fill="#52C89B" />
  <path d="M34.0901 42.09H25.0601V51.12H34.0901V42.09Z" fill="#52C89B" />
  <path d="M93.91 42.09V60.15H77.175V85.91H102.935V42.09H93.905H93.91ZM86.205 76.88V69.175H93.91V76.88H86.205Z"
        fill="white" />
  <path d="M52.2651 42.09V51.12H68.1501V60.15H52.2651V69.18V76.88V85.91H61.2951H68.1501V76.88H61.2951V69.18H77.1801V60.15V51.12V42.09H52.2651Z"
        fill="#BBE7D4" />
  <path d="M34.0901 42.09V51.12H43.2401V60.15H34.0901V51.12H25.0601V85.91H34.0901V69.18H52.2651V67.685V60.15V51.12V49.505V42.09H34.0901Z"
        fill="white" />
  <path d="M77.1801 76.88H68.1501V85.91H77.1801V76.88Z" fill="#52C89B" />
</svg>
