<?xml version="1.0" encoding="UTF-8"?>
<svg xmlns="http://www.w3.org/2000/svg" width="128" height="128"
     viewBox="0 0 128 128">
  <path fill-rule="nonzero" fill="rgb(0%, 68.627451%, 43.921569%)" fill-opacity="1"
        d="M 64 128 C 99.347656 128 128 99.347656 128 64 C 128 28.652344 99.347656 0 64 0 C 28.652344 0 0 28.652344 0 64 C 0 99.347656 28.652344 128 64 128 Z M 64 128 " />
  <path fill-rule="nonzero" fill="rgb(0%, 52.941176%, 28.235294%)" fill-opacity="1"
        d="M 64 120.050781 C 33.09375 120.050781 7.949219 94.90625 7.949219 64 C 7.949219 33.09375 33.09375 7.949219 64 7.949219 C 94.90625 7.949219 120.050781 33.09375 120.050781 64 C 120.050781 94.90625 94.90625 120.050781 64 120.050781 Z M 64 9.949219 C 34.195312 9.949219 9.949219 34.195312 9.949219 64 C 9.949219 93.804688 34.195312 118.050781 64 118.050781 C 93.804688 118.050781 118.050781 93.804688 118.050781 64 C 118.050781 34.195312 93.804688 9.949219 64 9.949219 Z M 64 9.949219 " />
  <path fill-rule="nonzero" fill="rgb(32.156863%, 78.431373%, 60.784314%)" fill-opacity="1"
        d="M 93.914062 52.445312 L 86.210938 52.445312 L 86.210938 60.148438 L 93.914062 60.148438 Z M 93.914062 52.445312 " />
  <path fill-rule="nonzero" fill="rgb(32.156863%, 78.431373%, 60.784314%)" fill-opacity="1"
        d="M 34.089844 42.089844 L 25.058594 42.089844 L 25.058594 51.121094 L 34.089844 51.121094 Z M 34.089844 42.089844 " />
  <path fill-rule="nonzero" fill="rgb(100%, 100%, 100%)" fill-opacity="1"
        d="M 93.910156 42.089844 L 93.910156 60.148438 L 77.175781 60.148438 L 77.175781 85.910156 L 102.933594 85.910156 L 102.933594 42.089844 L 93.90625 42.089844 Z M 86.203125 76.878906 L 86.203125 69.175781 L 93.910156 69.175781 L 93.910156 76.878906 Z M 86.203125 76.878906 " />
  <path fill-rule="nonzero" fill="rgb(73.333333%, 90.588235%, 83.137255%)" fill-opacity="1"
        d="M 52.265625 42.089844 L 52.265625 51.121094 L 68.148438 51.121094 L 68.148438 60.148438 L 52.265625 60.148438 L 52.265625 85.910156 L 68.148438 85.910156 L 68.148438 76.878906 L 61.296875 76.878906 L 61.296875 69.179688 L 77.179688 69.179688 L 77.179688 42.089844 Z M 52.265625 42.089844 " />
  <path fill-rule="nonzero" fill="rgb(100%, 100%, 100%)" fill-opacity="1"
        d="M 34.089844 42.089844 L 34.089844 51.121094 L 43.238281 51.121094 L 43.238281 60.148438 L 34.089844 60.148438 L 34.089844 51.121094 L 25.058594 51.121094 L 25.058594 85.910156 L 34.089844 85.910156 L 34.089844 69.179688 L 52.265625 69.179688 L 52.265625 42.089844 Z M 34.089844 42.089844 " />
  <path fill-rule="nonzero" fill="rgb(32.156863%, 78.431373%, 60.784314%)" fill-opacity="1"
        d="M 77.179688 76.878906 L 68.148438 76.878906 L 68.148438 85.910156 L 77.179688 85.910156 Z M 77.179688 76.878906 " />
</svg>
