<?xml version="1.0" encoding="UTF-8"?>
<svg xmlns="http://www.w3.org/2000/svg" width="128" height="128"
     viewBox="0 0 128 128">
  <path fill-rule="nonzero" fill="rgb(4.313725%, 51.372549%, 6.666667%)" fill-opacity="1"
        d="M 128 64 C 128 99.347656 99.347656 128 64 128 C 28.652344 128 0 99.347656 0 64 C 0 28.652344 28.652344 0 64 0 C 99.347656 0 128 28.652344 128 64 " />
  <path fill-rule="nonzero" fill="rgb(100%, 100%, 100%)" fill-opacity="1"
        d="M 32 68.566406 C 43.140625 74.480469 54.761719 80.675781 63.742188 85.464844 L 95.222656 68.566406 C 83.824219 85.5 74.324219 99.597656 63.742188 115.199219 C 53.136719 99.632812 41.425781 82.453125 32 68.566406 Z M 33.210938 63.894531 L 63.773438 47.585938 L 93.941406 63.777344 L 63.792969 80.105469 Z M 63.742188 42.359375 L 32 59.070312 L 63.601562 12.800781 L 95.222656 59.171875 Z M 63.742188 42.359375 " />
  <path fill-rule="nonzero" fill="rgb(70.196078%, 79.607843%, 69.019608%)" fill-opacity="1"
        d="M 63.742188 85.464844 L 95.222656 68.566406 C 83.824219 85.5 63.742188 115.199219 63.742188 115.199219 Z M 63.777344 47.585938 L 93.941406 63.777344 L 63.792969 80.105469 Z M 63.742188 42.363281 L 63.601562 12.800781 L 95.222656 59.171875 Z M 63.742188 42.363281 " />
  <path fill-rule="nonzero" fill="rgb(69.019608%, 78.823529%, 67.45098%)" fill-opacity="1"
        d="M 33.210938 63.894531 L 63.777344 66.40625 L 93.941406 63.792969 L 63.792969 80.121094 Z M 33.210938 63.894531 " />
  <path fill-rule="nonzero" fill="rgb(41.176471%, 59.607843%, 38.039216%)" fill-opacity="1"
        d="M 63.777344 66.40625 L 93.941406 63.792969 L 63.792969 80.121094 Z M 63.777344 66.40625 " />
</svg>
