<svg width="128" height="128" viewBox="0 0 128 128" fill="none" xmlns="http://www.w3.org/2000/svg">
  <circle cx="64" cy="64" r="64" fill="#0B8311" />
  <path d="M32 68.5665C43.1394 74.4822 54.763 80.6745 63.7406 85.4659L95.2215 68.5665C83.8228 85.5003 74.3252 99.5979 63.7406 115.2C53.1372 99.6323 41.4271 82.4543 32 68.5665ZM33.2108 63.8956L63.7751 47.5862L93.9415 63.7763L63.7923 80.1037L33.2108 63.8956ZM63.7406 42.3609L32 59.0702L63.6022 12.8L95.2215 59.1738L63.7406 42.3609Z"
        fill="white" />
  <path d="M63.741 85.4659L95.2219 68.5665C83.8232 85.5003 63.741 115.2 63.741 115.2V85.4659ZM63.7754 47.5862L93.9419 63.7763L63.7927 80.1037L63.7754 47.5862ZM63.741 42.3622L63.6025 12.8L95.2219 59.1738L63.741 42.3622Z"
        fill="#B3CBB0" />
  <path d="M33.2109 63.8959L63.7769 66.4043L93.9433 63.7922L63.7925 80.1208L33.2109 63.8959Z" fill="#B0C9AC" />
  <path d="M63.7754 66.4043L93.9418 63.7922L63.7926 80.1208L63.7754 66.4043Z" fill="#699861" />
</svg>
