<?xml version="1.0" encoding="UTF-8"?>
<svg xmlns="http://www.w3.org/2000/svg" width="128" height="128"
     viewBox="0 0 128 128">
  <path fill-rule="nonzero" fill="rgb(0%, 0%, 0%)" fill-opacity="1"
        d="M 128 64 C 128 99.347656 99.347656 128 64 128 C 28.652344 128 0 99.347656 0 64 C 0 28.652344 28.652344 0 64 0 C 99.347656 0 128 28.652344 128 64 " />
  <path fill-rule="nonzero" fill="rgb(85.098039%, 85.098039%, 85.098039%)" fill-opacity="1"
        d="M 28.433594 26.433594 L 49.476562 26.433594 C 50.582031 26.433594 51.476562 27.539062 51.476562 28.433594 L 51.476562 49.476562 C 51.476562 50.582031 50.582031 51.476562 49.476562 51.476562 L 28.433594 51.476562 C 27.328125 51.476562 26.433594 50.371094 26.433594 49.476562 L 26.433594 28.433594 C 26.433594 27.328125 27.328125 26.433594 28.433594 26.433594 Z M 28.433594 26.433594 " />
  <path fill-rule="nonzero" fill="rgb(85.098039%, 85.098039%, 85.098039%)" fill-opacity="1"
        d="M 28.433594 76.523438 L 49.476562 76.523438 C 50.582031 76.523438 51.476562 77.628906 51.476562 78.523438 L 51.476562 99.566406 C 51.476562 100.671875 50.582031 101.566406 49.476562 101.566406 L 28.433594 101.566406 C 27.328125 101.566406 26.433594 100.460938 26.433594 99.566406 L 26.433594 78.523438 C 26.433594 77.417969 27.328125 76.523438 28.433594 76.523438 Z M 28.433594 76.523438 " />
  <path fill-rule="nonzero" fill="rgb(85.098039%, 85.098039%, 85.098039%)" fill-opacity="1"
        d="M 78.523438 26.433594 L 99.566406 26.433594 C 100.671875 26.433594 101.566406 27.539062 101.566406 28.433594 L 101.566406 49.476562 C 101.566406 50.582031 100.671875 51.476562 99.566406 51.476562 L 78.523438 51.476562 C 77.417969 51.476562 76.523438 50.371094 76.523438 49.476562 L 76.523438 28.433594 C 76.523438 27.328125 77.417969 26.433594 78.523438 26.433594 Z M 78.523438 26.433594 " />
  <path fill-rule="nonzero" fill="rgb(85.098039%, 85.098039%, 85.098039%)" fill-opacity="1"
        d="M 53.476562 51.476562 L 74.519531 51.476562 C 75.625 51.476562 76.519531 52.582031 76.519531 53.476562 L 76.519531 74.519531 C 76.519531 75.625 75.625 76.519531 74.519531 76.519531 L 53.476562 76.519531 C 52.371094 76.519531 51.476562 75.414062 51.476562 74.519531 L 51.476562 53.476562 C 51.476562 52.371094 52.371094 51.476562 53.476562 51.476562 Z M 53.476562 51.476562 " />
  <path fill-rule="nonzero" fill="rgb(85.098039%, 85.098039%, 85.098039%)" fill-opacity="1"
        d="M 78.523438 76.523438 L 99.566406 76.523438 C 100.671875 76.523438 101.566406 77.628906 101.566406 78.523438 L 101.566406 99.566406 C 101.566406 100.671875 100.671875 101.566406 99.566406 101.566406 L 78.523438 101.566406 C 77.417969 101.566406 76.523438 100.460938 76.523438 99.566406 L 76.523438 78.523438 C 76.523438 77.417969 77.417969 76.523438 78.523438 76.523438 Z M 78.523438 76.523438 " />
</svg>
